<svg width="24" height="24" viewBox="0 0 16 16" fill="currentColor" xmlns="http://www.w3.org/2000/svg"><path d="M0.708252 11C0.708252 10.6548 0.988074 10.375 1.33325 10.375C1.67843 10.375 1.95825 10.6548 1.95825 11V11.6484C1.96221 11.6563 1.97017 11.6691 1.98364 11.6826C1.99657 11.6955 2.00885 11.7038 2.01685 11.708H13.9836C13.9916 11.7037 14.0032 11.6953 14.0159 11.6826C14.0289 11.6696 14.0371 11.6574 14.0413 11.6494V11C14.0413 10.6549 14.3212 10.3752 14.6663 10.375C15.0114 10.375 15.2913 10.6548 15.2913 11V11.667C15.2912 12.0368 15.1133 12.3547 14.9006 12.5674C14.688 12.78 14.37 12.9579 14.0002 12.958H2.00024C1.6305 12.958 1.31257 12.78 1.09985 12.5674C0.8872 12.3547 0.708357 12.0368 0.708252 11.667V11Z" fill="currentColor"/><path d="M11.437 10.0806C10.6421 10.0806 10.019 9.73145 9.77197 9.146H9.71289V9.45215C9.71289 9.83887 9.49268 10.0537 9.13281 10.0537C8.76221 10.0537 8.55273 9.81738 8.55273 9.39307V2.90479C8.55273 2.48584 8.77295 2.24414 9.14893 2.24414C9.5249 2.24414 9.74512 2.48584 9.74512 2.90479V5.21436H9.8042C9.98682 4.62891 10.6528 4.23682 11.4639 4.23682C12.7852 4.23682 13.6069 5.18213 13.6069 6.71289V7.59912C13.6069 9.14062 12.7798 10.0806 11.437 10.0806ZM9.74512 7.62061C9.74512 8.49072 10.3037 9.09766 11.104 9.09766C11.9204 9.09766 12.3877 8.49609 12.3877 7.44873V6.91162C12.3877 5.84814 11.9097 5.21973 11.0825 5.21973C10.2607 5.21973 9.74512 5.82666 9.74512 6.79346V7.62061Z" fill="currentColor"/><path d="M5.88867 9.26416C5.57715 9.79053 5.00781 10.0806 4.3042 10.0806C3.19775 10.0806 2.45117 9.38232 2.45117 8.35107C2.45117 7.30371 3.21387 6.66455 4.48145 6.65918H5.89941V6.1543C5.89941 5.51514 5.50732 5.18213 4.78223 5.18213C4.33105 5.18213 4.01953 5.34326 3.69189 5.67627C3.54688 5.81592 3.40723 5.86963 3.20312 5.86963C2.93994 5.86963 2.76807 5.69238 2.76807 5.43457C2.76807 5.10693 2.99365 4.78467 3.47168 4.52686C3.81543 4.33887 4.2666 4.23682 4.85742 4.23682C6.2915 4.23682 7.0918 4.92432 7.0918 6.15967V9.40918C7.0918 9.81738 6.88232 10.0537 6.51172 10.0537C6.18408 10.0537 5.97461 9.85498 5.94775 9.5166V9.26416H5.88867ZM3.64893 8.29199C3.64893 8.81836 4.0625 9.17285 4.6748 9.17285C5.36768 9.17285 5.89941 8.7002 5.89941 8.08789V7.47559H4.64795C4.01416 7.47559 3.64893 7.771 3.64893 8.29199Z" fill="currentColor"/></svg>