<svg width="24" height="24" viewBox="0 0 16 16" fill="currentColor" xmlns="http://www.w3.org/2000/svg"><path fill-rule="evenodd" clip-rule="evenodd" d="M1.33325 8C1.33325 4.3181 4.31802 1.33334 7.99992 1.33334C11.6818 1.33334 14.6666 4.3181 14.6666 8C14.6666 11.6819 11.6818 14.6667 7.99992 14.6667C4.31802 14.6667 1.33325 11.6819 1.33325 8ZM10.6666 8.6666C11.0348 8.6666 11.3333 8.36814 11.3333 7.99994C11.3333 7.63174 11.0348 7.33327 10.6666 7.33327L8.66658 7.33334V5.33342C8.66658 4.96523 8.36812 4.66675 7.99992 4.66675C7.63172 4.66675 7.33325 4.96523 7.33325 5.33342V7.33334L5.33323 7.3334C4.96504 7.3334 4.66657 7.63194 4.66658 8.00007C4.6666 8.36827 4.96508 8.66674 5.33327 8.66674L7.33325 8.66667V10.6667C7.33325 11.0349 7.63172 11.3333 7.99992 11.3333C8.36812 11.3333 8.66658 11.0349 8.66658 10.6667V8.66667L10.6666 8.6666Z" fill="currentColor"/></svg>