<svg width="24" height="24" viewBox="0 0 16 16" fill="currentColor" xmlns="http://www.w3.org/2000/svg"><path d="M3.33301 8.70801C3.67806 8.70801 3.95781 8.988 3.95801 9.33301V10.708H5.33301C5.67806 10.708 5.95781 10.988 5.95801 11.333C5.95801 11.6782 5.67819 11.958 5.33301 11.958H3.95801V13.333C3.95801 13.6782 3.67819 13.958 3.33301 13.958C2.98794 13.9579 2.70801 13.6781 2.70801 13.333V11.958H1.33301C0.987942 11.9579 0.708008 11.6781 0.708008 11.333C0.708206 10.9881 0.988064 10.7081 1.33301 10.708H2.70801V9.33301C2.70821 8.98808 2.98806 8.70814 3.33301 8.70801ZM5.95312 2.04199C6.60779 2.042 7.21883 2.36937 7.58203 2.91406L8.12402 3.72656L8.17773 3.79688C8.31128 3.95129 8.5068 4.04199 8.71387 4.04199H12C13.4498 4.04199 14.625 5.21725 14.625 6.66699V10.667C14.6248 12.1166 13.4497 13.292 12 13.292H8C7.65494 13.292 7.3752 13.012 7.375 12.667C7.375 12.3218 7.65482 12.042 8 12.042H12C12.7593 12.042 13.3748 11.4262 13.375 10.667V6.66699C13.375 5.9076 12.7594 5.29199 12 5.29199H8.71387C8.05922 5.29199 7.4472 4.96461 7.08398 4.41992L6.54199 3.60742C6.41064 3.4105 6.18988 3.292 5.95312 3.29199H4C3.24061 3.29199 2.625 3.9076 2.625 4.66699V6.66699C2.6248 7.012 2.34506 7.29199 2 7.29199C1.65494 7.29199 1.3752 7.012 1.375 6.66699V4.66699C1.375 3.21725 2.55026 2.04199 4 2.04199H5.95312Z" fill="currentColor"/></svg>