<svg width="24" height="24" viewBox="0 0 14 14" fill="none" xmlns="http://www.w3.org/2000/svg"><rect x=".5" y=".5" width="13" height="13" rx="3.5" fill="#00AA62" fill-opacity=".12"/><rect x=".5" y=".5" width="13" height="13" rx="3.5" stroke="#00AA62"/><path fill-rule="evenodd" clip-rule="evenodd" d="M6.58268 3.66602C6.35257 3.66602 6.16602 3.85257 6.16602 4.08268V6.16602H4.08268C3.85257 6.16602 3.66602 6.35257 3.66602 6.58268V7.41602C3.66602 7.64614 3.85257 7.83268 4.08268 7.83268H6.16602V9.91602C6.16602 10.1461 6.35257 10.3327 6.58268 10.3327H7.41602C7.64613 10.3327 7.83268 10.1461 7.83268 9.91602V7.83268H9.91602C10.1461 7.83268 10.3327 7.64614 10.3327 7.41602V6.58268C10.3327 6.35257 10.1461 6.16602 9.91602 6.16602H7.83268V4.08268C7.83268 3.85257 7.64613 3.66602 7.41602 3.66602H6.58268Z" fill="#00AA62"/></svg>