<svg width="24" height="24" viewBox="0 0 16 16" fill="currentColor" xmlns="http://www.w3.org/2000/svg"><path d="M7.83789 1.375C8.53398 1.375 9.20207 1.65135 9.69434 2.14355L12.5225 4.97266C13.0145 5.46484 13.2909 6.13212 13.291 6.82812V12C13.291 13.4498 12.1158 14.625 10.666 14.625H10C9.65493 14.6249 9.375 14.3451 9.375 14C9.375 13.6549 9.65493 13.3751 10 13.375H10.666C11.4254 13.375 12.041 12.7594 12.041 12V6.82812C12.041 6.75963 12.0344 6.69192 12.0244 6.625H9.33398C8.6206 6.625 8.04199 6.04636 8.04199 5.33301V2.6416C7.97483 2.63155 7.9066 2.625 7.83789 2.625H5.33301C4.57373 2.62513 3.95801 3.24069 3.95801 4V7.66699C3.95783 8.01202 3.67808 8.29199 3.33301 8.29199C2.98805 8.29186 2.70818 8.01194 2.70801 7.66699V4C2.70801 2.55034 3.88338 1.37513 5.33301 1.375H7.83789ZM4.66699 9.04199C5.01206 9.04212 5.29199 9.3219 5.29199 9.66699V11.042H6.66699C7.01206 11.0421 7.29199 11.3219 7.29199 11.667C7.29179 12.0119 7.01194 12.2919 6.66699 12.292H5.29199V13.667C5.29179 14.0119 5.01194 14.2919 4.66699 14.292C4.32194 14.292 4.04219 14.012 4.04199 13.667V12.292H2.66699C2.32194 12.292 2.04219 12.012 2.04199 11.667C2.04199 11.3218 2.32181 11.042 2.66699 11.042H4.04199V9.66699C4.04199 9.32181 4.32181 9.04199 4.66699 9.04199ZM9.29199 5.33301C9.29199 5.35602 9.31097 5.375 9.33398 5.375H11.1572L9.29199 3.50879V5.33301Z" fill="currentColor"/></svg>