<svg width="24" height="24" viewBox="0 0 16 16" fill="currentColor" xmlns="http://www.w3.org/2000/svg"><path d="M13.375 8.6665V11.8335C13.375 12.3167 12.9832 12.7085 12.5 12.7085H3.5C3.01675 12.7085 2.625 12.3167 2.625 11.8335V5.50049C2.625 5.01724 3.01675 4.62549 3.5 4.62549H7.33301C7.67808 4.62549 7.95783 4.34552 7.95801 4.00049C7.95801 3.65531 7.67819 3.37549 7.33301 3.37549H3.5C2.3264 3.37549 1.375 4.32688 1.375 5.50049V11.8335C1.375 13.0071 2.3264 13.9585 3.5 13.9585H12.5C13.6736 13.9585 14.625 13.0071 14.625 11.8335V8.6665C14.6248 8.32148 14.3451 8.0415 14 8.0415C13.6549 8.0415 13.3752 8.32148 13.375 8.6665Z" fill="currentColor"/><path d="M12.0417 2V3.375H10.6667C10.3216 3.375 10.0417 3.65482 10.0417 4C10.0417 4.34518 10.3216 4.625 10.6667 4.625H12.0417V6C12.0417 6.34518 12.3216 6.625 12.6667 6.625C13.0119 6.625 13.2917 6.34518 13.2917 6V4.625H14.6667C15.0119 4.625 15.2917 4.34518 15.2917 4C15.2917 3.65482 15.0119 3.375 14.6667 3.375H13.2917V2C13.2917 1.65482 13.0119 1.375 12.6667 1.375C12.3216 1.375 12.0417 1.65482 12.0417 2Z" fill="currentColor"/><path d="M4.70864 6.5751C4.94344 6.32224 5.3385 6.30727 5.59145 6.54189L6.35317 7.24892C6.78981 7.65444 6.78981 8.34537 6.35317 8.75088L5.59145 9.45791C5.3385 9.69253 4.94344 9.67756 4.70864 9.42471C4.47402 9.17175 4.48899 8.77669 4.74184 8.54189L5.32485 7.9999L4.74184 7.45791C4.48899 7.22311 4.47402 6.82805 4.70864 6.5751ZM9.16665 8.3749C9.51183 8.3749 9.79165 8.65472 9.79165 8.9999C9.79165 9.34508 9.51183 9.6249 9.16665 9.6249H7.93618C7.591 9.6249 7.31118 9.34508 7.31118 8.9999C7.31118 8.65472 7.591 8.3749 7.93618 8.3749H9.16665Z" fill="currentColor"/></svg>