<svg width="24" height="24" viewBox="0 0 20 20" fill="currentColor" xmlns="http://www.w3.org/2000/svg"><path fill-rule="evenodd" clip-rule="evenodd" d="M4.37165 4.35985C4.03975 4.68511 4.03975 5.24566 4.35782 5.564L5.79602 7.01729C6.121 7.34947 6.68107 7.34947 6.99913 7.03112C7.33102 6.69895 7.33102 6.14531 7.01296 5.82005L5.57476 4.37369C5.24978 4.04843 4.68971 4.03459 4.37165 4.35985ZM15.3656 16.9757C15.7804 17.3979 16.4857 17.391 16.8936 16.9757C17.3017 16.5535 17.3017 15.8685 16.8936 15.4463L10.3319 8.83043C9.91702 8.41521 9.21174 8.41521 8.80379 8.83043C8.38893 9.25258 8.39584 9.9377 8.80379 10.3529L15.3656 16.9757ZM4.34399 15.6193C4.02593 15.301 4.03285 14.7404 4.35782 14.4152L5.80294 12.9758C6.12792 12.6574 6.68798 12.6643 7.01296 12.9896C7.33102 13.3148 7.3241 13.8685 6.99913 14.1937L5.55401 15.6401C5.22903 15.9585 4.66897 15.9515 4.34399 15.6193ZM12.9801 5.82005C12.662 6.14531 12.662 6.69895 12.994 7.03112C13.312 7.34947 13.872 7.34947 14.197 7.01729L15.6421 5.57092C15.9671 5.25259 15.9602 4.69204 15.6284 4.35985C15.3103 4.03459 14.7502 4.04843 14.4252 4.37369L12.9801 5.82005ZM9.99999 2C10.4633 2 10.8505 2.39446 10.8505 2.85813V4.96885C10.8505 5.43251 10.4633 5.82005 9.99999 5.82005C9.53672 5.82005 9.1426 5.43251 9.1426 4.96885V2.85813C9.1426 2.39446 9.53672 2 9.99999 2ZM2 9.99998C2 9.53631 2.38721 9.14877 2.85047 9.14877H4.95937C5.42264 9.14877 5.81676 9.53631 5.81676 9.99998C5.81676 10.4636 5.42264 10.8512 4.95937 10.8512H2.85047C2.38721 10.8512 2 10.4636 2 9.99998ZM18 9.99998C18 10.4636 17.6058 10.8512 17.1426 10.8512H15.0406C14.5773 10.8512 14.1832 10.4636 14.1832 9.99998C14.1832 9.53631 14.5773 9.14877 15.0406 9.14877H17.1426C17.6058 9.14877 18 9.53631 18 9.99998ZM9.99999 14.1799C10.4633 14.1799 10.8505 14.5744 10.8505 15.0381V17.1418C10.8505 17.6055 10.4633 18 9.99999 18C9.53672 18 9.1426 17.6055 9.1426 17.1418V15.0381C9.1426 14.5744 9.53672 14.1799 9.99999 14.1799Z" fill="currentColor"/><defs><linearGradient id="svg_4921c0e2d1__paint0_linear_4009_151015" x1="1.172" y1="30.571" x2="17.861" y2="32.097" gradientUnits="userSpaceOnUse"><stop stop-color="#4891FF"/><stop offset=".271" stop-color="#94BFFF"/><stop offset=".479" stop-color="#FFC69D"/><stop offset=".656" stop-color="#FF8A4F"/><stop offset=".844" stop-color="#C25EFF"/></linearGradient></defs></svg>