<svg width="24" height="24" viewBox="0 0 16 16" fill="currentColor" xmlns="http://www.w3.org/2000/svg"><path d="M10 13.5752C10.3449 13.5754 10.6249 13.8552 10.625 14.2002C10.6248 14.5451 10.3449 14.825 10 14.8252H6C5.65508 14.8251 5.37524 14.5451 5.375 14.2002C5.37513 13.8552 5.65502 13.5753 6 13.5752H10ZM8 0.708008C8.34495 0.708183 8.62487 0.98805 8.625 1.33301C8.625 1.67808 8.34503 1.95783 8 1.95801C5.76804 1.95814 3.95814 3.76804 3.95801 6C3.95813 7.57215 4.85634 8.93595 6.16992 9.60449C6.43938 9.74172 6.62491 10.022 6.625 10.3438V11.375H9.375V10.3438C9.37509 10.0219 9.56054 9.74169 9.83008 9.60449L10.0713 9.4707C11.2522 8.76427 12.0409 7.47386 12.041 6C12.0411 5.65512 12.3212 5.37531 12.666 5.375C13.0111 5.375 13.2909 5.65493 13.291 6C13.2909 7.96734 12.216 9.68039 10.625 10.5918V11.3994C10.625 12.076 10.076 12.625 9.39941 12.625H6.59961C5.9232 12.6248 5.375 12.0759 5.375 11.3994V10.5918C3.78391 9.68042 2.70813 7.96742 2.70801 6C2.70814 3.07769 5.07769 0.70814 8 0.708008ZM11.2354 0.609375C11.3708 0.609375 11.4923 0.693025 11.541 0.819336L11.9336 1.83887C11.9907 1.98735 12.1083 2.10499 12.2568 2.16211L13.2754 2.55371C13.4018 2.60234 13.4853 2.72392 13.4854 2.85938C13.4854 2.99494 13.4019 3.11638 13.2754 3.16504L12.2568 3.55762C12.1083 3.61471 11.9907 3.7323 11.9336 3.88086L11.541 4.89941C11.4924 5.02592 11.3709 5.10938 11.2354 5.10938C11.0999 5.10927 10.9783 5.02584 10.9297 4.89941L10.5381 3.88086C10.481 3.73235 10.3633 3.61473 10.2148 3.55762L9.19531 3.16504C9.069 3.11629 8.98535 2.99481 8.98535 2.85938C8.98545 2.72399 9.06898 2.6024 9.19531 2.55371L10.2148 2.16211C10.3634 2.10497 10.481 1.98742 10.5381 1.83887L10.9297 0.819336C10.9784 0.693009 11.1 0.609475 11.2354 0.609375Z" fill="currentColor"/></svg>