<svg width="24" height="24" viewBox="0 0 16 16" fill="currentColor" xmlns="http://www.w3.org/2000/svg"><path d="M12.5909 1.56333C12.5761 1.43238 12.4654 1.33339 12.3336 1.33325C12.2018 1.33312 12.0909 1.43188 12.0758 1.56281C12.0055 2.17233 11.8245 2.59048 11.5409 2.8741C11.2572 3.15772 10.8391 3.33873 10.2295 3.40903C10.0986 3.42413 9.99987 3.53506 10 3.66685C10.0001 3.79865 10.0991 3.90937 10.2301 3.9242C10.8293 3.99207 11.257 4.17305 11.5478 4.45861C11.8371 4.74263 12.0215 5.16019 12.0751 5.7636C12.087 5.89748 12.1992 6.00007 12.3336 5.99992C12.468 5.99977 12.5801 5.89693 12.5916 5.76302C12.643 5.16981 12.8273 4.74284 13.1184 4.45168C13.4096 4.16053 13.8365 3.97623 14.4297 3.92488C14.5637 3.91329 14.6665 3.80129 14.6667 3.66688C14.6668 3.53247 14.5642 3.42024 14.4303 3.40835C13.8269 3.35475 13.4094 3.1703 13.1253 2.88105C12.8398 2.59022 12.6588 2.16255 12.5909 1.56333Z" fill="currentColor"/><path d="M7.99565 3.25838C7.95752 2.92164 7.67285 2.6671 7.33392 2.66675C6.99505 2.6664 6.70979 2.92036 6.67099 3.25703C6.4902 4.82437 6.02475 5.89961 5.29543 6.62893C4.56612 7.35821 3.49088 7.82368 1.92353 8.00448C1.58687 8.04328 1.33291 8.32855 1.33325 8.66742C1.3336 9.00635 1.58815 9.29101 1.92489 9.32915C3.46573 9.50368 4.56545 9.96908 5.31331 10.7034C6.05709 11.4337 6.53137 12.5074 6.66919 14.0591C6.69979 14.4033 6.98839 14.6671 7.33399 14.6667C7.67965 14.6663 7.96765 14.4019 7.99745 14.0575C8.12945 12.5321 8.60339 11.4343 9.35205 10.6855C10.1008 9.93688 11.1987 9.46295 12.7241 9.33095C13.0684 9.30115 13.3329 9.01315 13.3333 8.66748C13.3337 8.32188 13.0699 8.03328 12.7256 8.00268C11.1739 7.86488 10.1003 7.39061 9.36992 6.6468C8.63559 5.89895 8.17019 4.79922 7.99565 3.25838Z" fill="currentColor"/></svg>