<svg width="24" height="24" viewBox="0 0 16 16" fill="currentColor" xmlns="http://www.w3.org/2000/svg"><path d="M9.55786 2.89111C10.5383 1.91085 12.1282 1.91098 13.1086 2.89111C14.0889 3.87155 14.0889 5.4615 13.1086 6.44189L6.3606 13.189C5.86833 13.6812 5.20031 13.9585 4.50415 13.9585H2.66626C2.32141 13.9583 2.04151 13.6783 2.04126 13.3335V11.4946C2.04137 10.7986 2.31767 10.1304 2.80981 9.63818L9.55786 2.89111ZM12.1633 10.105C12.2334 9.96502 12.433 9.96506 12.5032 10.105L12.9387 10.9761C12.9571 11.0128 12.987 11.0426 13.0237 11.061L13.8948 11.4966C14.035 11.5666 14.0349 11.7663 13.8948 11.8364L13.0237 12.272C12.987 12.2903 12.9571 12.3203 12.9387 12.3569L12.5032 13.228C12.4331 13.3682 12.2334 13.3682 12.1633 13.228L11.7278 12.3569C11.7094 12.3203 11.6795 12.2903 11.6428 12.272L10.7717 11.8364C10.6317 11.7663 10.6316 11.5666 10.7717 11.4966L11.6428 11.061C11.6796 11.0426 11.7094 11.0128 11.7278 10.9761L12.1633 10.105ZM12.2239 3.7749C11.7315 3.28318 10.9338 3.28288 10.4417 3.7749L3.6936 10.5229C3.43616 10.7807 3.29137 11.1303 3.29126 11.4946V12.7085H4.50415C4.86876 12.7085 5.21894 12.563 5.47681 12.3052L12.2239 5.55811C12.7162 5.0658 12.7162 4.2672 12.2239 3.7749ZM2.82935 3.43896C2.89943 3.2988 3.10008 3.2988 3.17017 3.43896L3.60571 4.30908C3.62411 4.34589 3.65387 4.37564 3.69067 4.39404L4.56177 4.82959C4.70171 4.89971 4.70168 5.10026 4.56177 5.17041L3.69067 5.60596C3.65387 5.62436 3.62411 5.65411 3.60571 5.69092L3.17017 6.56201C3.10001 6.7019 2.89947 6.70194 2.82935 6.56201L2.3938 5.69092C2.37539 5.65411 2.34564 5.62436 2.30884 5.60596L1.43872 5.17041C1.29855 5.10032 1.29855 4.89968 1.43872 4.82959L2.30884 4.39404C2.34564 4.37564 2.37539 4.34589 2.3938 4.30908L2.82935 3.43896ZM5.82349 1.44189C5.89619 1.29705 6.10322 1.29717 6.17603 1.44189L6.49634 2.08252C6.5154 2.12051 6.54623 2.15137 6.58423 2.17041L7.22388 2.49072C7.36921 2.56337 7.36921 2.77062 7.22388 2.84326L6.58423 3.1626C6.54608 3.18167 6.51541 3.21332 6.49634 3.25146L6.17603 3.89111C6.10332 4.03627 5.89611 4.03636 5.82349 3.89111L5.50415 3.25146C5.48508 3.21332 5.45343 3.18167 5.41528 3.1626L4.77563 2.84326C4.63038 2.77063 4.63046 2.56342 4.77563 2.49072L5.41528 2.17041C5.45343 2.15134 5.48508 2.12066 5.50415 2.08252L5.82349 1.44189Z" fill="currentColor"/></svg>