<svg width="24" height="24" viewBox="0 0 16 16" fill="currentColor" xmlns="http://www.w3.org/2000/svg"><path d="M1.40088 7.99951C1.40114 7.66837 1.66928 7.3999 2.00049 7.3999L4.77002 7.3999L4.77002 3.3335C4.77002 2.78121 5.21773 2.3335 5.77002 2.3335C6.3223 2.3335 6.77002 2.78121 6.77002 3.3335L6.77002 7.3999L9.43701 7.3999L9.43701 5.3335C9.43701 4.78121 9.88473 4.3335 10.437 4.3335C10.9892 4.33363 11.437 4.78129 11.437 5.3335L11.437 7.3999L14.0005 7.3999C14.3315 7.40017 14.5998 7.66853 14.6001 7.99951C14.6001 8.33072 14.3316 8.59886 14.0005 8.59912L11.437 8.59912L11.437 10.6665C11.437 11.2187 10.9892 11.6664 10.437 11.6665C9.88473 11.6665 9.43701 11.2188 9.43701 10.6665L9.43701 8.59912L6.77002 8.59912L6.77002 12.6665C6.77002 13.2188 6.32231 13.6665 5.77002 13.6665C5.21774 13.6665 4.77002 13.2188 4.77002 12.6665L4.77002 8.59912L2.00049 8.59912C1.66912 8.59912 1.40088 8.33088 1.40088 7.99951Z" fill="currentColor"/></svg>