<svg width="24" height="24" viewBox="0 0 16 16" fill="currentColor" xmlns="http://www.w3.org/2000/svg"><path d="M13 1.40039C12.6686 1.40039 12.4004 1.66863 12.4004 2V14C12.4004 14.3314 12.6686 14.5996 13 14.5996C13.3314 14.5996 13.5996 14.3314 13.5996 14V2C13.5996 1.66863 13.3314 1.40039 13 1.40039ZM6 9.16699C5.44772 9.16699 5 9.61471 5 10.167C5.00026 10.7191 5.44788 11.167 6 11.167H10C10.5521 11.167 10.9997 10.7191 11 10.167C11 9.61471 10.5523 9.16699 10 9.16699H6ZM2.66699 4.5C2.11471 4.5 1.66699 4.94772 1.66699 5.5C1.66699 6.05228 2.11471 6.5 2.66699 6.5H10C10.5521 6.4998 11 6.05216 11 5.5C11 4.94784 10.5521 4.5002 10 4.5H2.66699Z" fill="currentColor"/></svg>