<svg width="24" height="24" viewBox="0 0 16 16" fill="currentColor" xmlns="http://www.w3.org/2000/svg"><path d="M1.40039 3C1.40039 3.33137 1.66863 3.59961 2 3.59961L14 3.59961C14.3314 3.59961 14.5996 3.33137 14.5996 3C14.5996 2.66863 14.3314 2.40039 14 2.40039L2 2.40039C1.66863 2.40039 1.40039 2.66863 1.40039 3ZM9.43652 10C9.43652 10.5522 9.8843 10.9999 10.4365 11C10.9888 11 11.4365 10.5523 11.4365 10L11.4365 6C11.4365 5.44772 10.9888 5 10.4365 5C9.8843 5.00007 9.43652 5.44776 9.43652 6L9.43652 10ZM4.77051 13.334C4.77077 13.886 5.21839 14.334 5.77051 14.334C6.32241 14.3337 6.77024 13.8859 6.77051 13.334L6.77051 6.00098C6.77051 5.44885 6.32257 5.00124 5.77051 5.00098C5.21822 5.00098 4.77051 5.44869 4.77051 6.00098L4.77051 13.334Z" fill="currentColor"/></svg>