<svg width="24" height="24" viewBox="0 0 16 16" fill="currentColor" xmlns="http://www.w3.org/2000/svg"><path d="M3 1.40039C3.33137 1.40039 3.59961 1.66863 3.59961 2V14C3.59961 14.3314 3.33137 14.5996 3 14.5996C2.66863 14.5996 2.40039 14.3314 2.40039 14V2C2.40039 1.66863 2.66863 1.40039 3 1.40039ZM10 9.16699C10.5523 9.16699 11 9.61471 11 10.167C10.9997 10.7191 10.5521 11.167 10 11.167H6C5.44788 11.167 5.00026 10.7191 5 10.167C5 9.61471 5.44772 9.16699 6 9.16699H10ZM13.333 4.5C13.8853 4.5 14.333 4.94772 14.333 5.5C14.333 6.05228 13.8853 6.5 13.333 6.5H6C5.44783 6.49987 5 6.0522 5 5.5C5 4.9478 5.44783 4.50013 6 4.5H13.333Z" fill="currentColor"/></svg>