<svg width="24" height="24" viewBox="0 0 16 16" fill="currentColor" xmlns="http://www.w3.org/2000/svg"><path d="M8.00049 1.40039C8.33163 1.40065 8.6001 1.66879 8.6001 2V4.5H12.6665C13.2188 4.5 13.6665 4.94772 13.6665 5.5C13.6665 6.05228 13.2188 6.5 12.6665 6.5H8.6001V9.16699H10.6665C11.2188 9.16699 11.6665 9.61471 11.6665 10.167C11.6662 10.7191 11.2186 11.167 10.6665 11.167H8.6001V14C8.6001 14.3312 8.33163 14.5993 8.00049 14.5996C7.66912 14.5996 7.40088 14.3314 7.40088 14V11.167H5.3335C4.78137 11.167 4.33376 10.7191 4.3335 10.167C4.3335 9.61471 4.78121 9.16699 5.3335 9.16699H7.40088V6.5H3.3335C2.78121 6.5 2.3335 6.05228 2.3335 5.5C2.3335 4.94772 2.78121 4.5 3.3335 4.5H7.40088V2C7.40088 1.66863 7.66912 1.40039 8.00049 1.40039Z" fill="currentColor"/></svg>