<svg width="24" height="24" viewBox="0 0 16 16" fill="currentColor" xmlns="http://www.w3.org/2000/svg"><path d="M1.3999 13C1.3999 12.6688 1.66837 12.4007 1.99951 12.4004L13.9995 12.4004C14.3309 12.4004 14.5991 12.6686 14.5991 13C14.5991 13.3312 14.3316 13.5993 14.0005 13.5996L2.00049 13.5996C1.66912 13.5996 1.3999 13.3314 1.3999 13ZM9.43701 6C9.43701 5.44772 9.88473 5 10.437 5C10.9892 5.00013 11.437 5.4478 11.437 6L11.437 10C11.437 10.5522 10.9892 10.9999 10.437 11C9.88473 11 9.43701 10.5523 9.43701 10L9.43701 6ZM4.77002 2.66602C4.77028 2.11396 5.2179 1.66602 5.77002 1.66602C6.32214 1.66602 6.76976 2.11396 6.77002 2.66602L6.77002 9.99902C6.77002 10.5513 6.3223 10.999 5.77002 10.999C5.21774 10.999 4.77002 10.5513 4.77002 9.99902L4.77002 2.66602Z" fill="currentColor"/></svg>