<svg width="24" height="24" viewBox="0 0 18 18" fill="currentColor" xmlns="http://www.w3.org/2000/svg"><g clip-path="url(#svg_c4ca4238a0__clip0_4889_43627)"><path d="M3.44733 4.2644C3.5318 4.21606 3.62498 4.18484 3.72152 4.17253C3.81806 4.16022 3.91608 4.16706 4.00998 4.19265C4.10388 4.21824 4.19182 4.26208 4.26877 4.32167C4.34571 4.38127 4.41016 4.45544 4.45843 4.53995L5.70064 6.714C6.7396 6.25386 7.86357 6.0169 8.99986 6.01845C10.0598 6.01845 11.0724 6.22067 12.0013 6.58881L13.1717 4.53995C13.2691 4.36933 13.4303 4.2444 13.6199 4.19266C13.8094 4.14091 14.0118 4.16658 14.1824 4.26403C14.353 4.36147 14.4779 4.5227 14.5297 4.71225C14.5814 4.90179 14.5558 5.10413 14.4583 5.27476L13.3243 7.25918C14.378 7.91887 15.2668 8.81095 15.9226 9.86709C16.5784 10.9232 16.9839 12.1154 17.1079 13.3524C17.1182 13.4554 17.1067 13.5593 17.0743 13.6576C17.042 13.7558 16.9894 13.8462 16.9199 13.9229C16.8505 13.9996 16.7658 14.0609 16.6712 14.1029C16.5766 14.1448 16.4743 14.1665 16.3709 14.1665H1.63032C1.52686 14.1665 1.42456 14.1448 1.32999 14.1029C1.23543 14.0609 1.1507 13.9996 1.08127 13.9229C1.01183 13.8462 0.959234 13.7558 0.926858 13.6576C0.894481 13.5593 0.883046 13.4554 0.893287 13.3524C1.01165 12.1695 1.38757 11.0268 1.99465 10.0046C2.60172 8.98237 3.42522 8.10548 4.40732 7.43547L3.17178 5.27476C3.07439 5.10422 3.04871 4.90199 3.10039 4.71253C3.15206 4.52307 3.27685 4.36188 3.44733 4.2644ZM5.66731 11.5739C5.76459 11.574 5.86092 11.5548 5.95081 11.5176C6.04069 11.4804 6.12236 11.4258 6.19116 11.357C6.25995 11.2882 6.31452 11.2066 6.35176 11.1167C6.38899 11.0268 6.40815 10.9305 6.40815 10.8332C6.40815 10.7359 6.38899 10.6396 6.35176 10.5497C6.31452 10.4598 6.25995 10.3782 6.19116 10.3094C6.12236 10.2406 6.04069 10.186 5.95081 10.1488C5.86092 10.1116 5.76459 10.0925 5.66731 10.0925C5.47087 10.0925 5.28249 10.1706 5.1436 10.3095C5.00471 10.4484 4.92669 10.6368 4.92669 10.8332C4.92669 11.0296 5.00471 11.218 5.1436 11.3569C5.28249 11.4959 5.47087 11.5739 5.66731 11.5739ZM13.0746 10.8332C13.0746 10.6368 12.9966 10.4483 12.8577 10.3094C12.7188 10.1705 12.5303 10.0925 12.3339 10.0925C12.1374 10.0925 11.949 10.1705 11.8101 10.3094C11.6712 10.4483 11.5932 10.6368 11.5932 10.8332C11.5932 11.0297 11.6712 11.2181 11.8101 11.357C11.949 11.4959 12.1374 11.5739 12.3339 11.5739C12.5303 11.5739 12.7188 11.4959 12.8577 11.357C12.9966 11.2181 13.0746 11.0297 13.0746 10.8332Z" fill="currentColor"/></g><defs><clipPath id="svg_c4ca4238a0__clip0_4889_43627"><path fill="currentColor" transform="translate(1 1)" d="M0 0H16V16H0z"/></clipPath></defs></svg>