<svg width="24" height="24" viewBox="0 0 18 18" fill="currentColor" xmlns="http://www.w3.org/2000/svg"><path d="M15.0026 5.3686C14.4878 5.6838 14.0614 6.12446 13.7632 6.64934C13.4651 7.17422 13.305 7.76617 13.2979 8.36977C13.2999 9.04913 13.5012 9.71297 13.8768 10.2791C14.2524 10.8452 14.7858 11.2886 15.4109 11.5546C15.1644 12.3498 14.7997 13.1034 14.3289 13.7901C13.6552 14.7599 12.9508 15.7295 11.879 15.7295C10.8072 15.7295 10.5316 15.1069 9.2964 15.1069C8.09188 15.1069 7.66312 15.75 6.68316 15.75C5.7032 15.75 5.01935 14.8517 4.2333 13.7493C3.19499 12.2049 2.62435 10.3937 2.58984 8.53305C2.58984 5.4707 4.58041 3.84771 6.54024 3.84771C7.58149 3.84771 8.44917 4.53156 9.10248 4.53156C9.72515 4.53156 10.6949 3.80679 11.879 3.80679C12.4878 3.79108 13.0911 3.92531 13.6358 4.19767C14.1805 4.47002 14.6499 4.87214 15.0026 5.3686ZM11.3176 2.51045C11.8396 1.89644 12.135 1.12192 12.1547 0.316277C12.1555 0.210069 12.1453 0.104063 12.124 0C11.2274 0.0875826 10.3983 0.514913 9.80679 1.19434C9.2798 1.78388 8.9732 2.53772 8.9391 3.32773C8.9395 3.4238 8.94977 3.51959 8.96974 3.61356C9.04043 3.62692 9.11219 3.63377 9.18412 3.63402C9.59733 3.60114 9.99954 3.48458 10.3663 3.29143C10.7331 3.09828 11.0567 2.83257 11.3176 2.51045Z" fill="currentColor"/></svg>