<svg width="24" height="24" viewBox="0 0 16 16" fill="currentColor" xmlns="http://www.w3.org/2000/svg"><path d="M9.33276 8.70767L13.3337 8.70865C13.6787 8.70891 13.9587 8.98863 13.9587 9.33365C13.9586 9.67852 13.6786 9.95838 13.3337 9.95865H10.8425L13.2751 12.3913C13.5192 12.6353 13.5192 13.032 13.2751 13.276C13.031 13.5197 12.6343 13.52 12.3904 13.276L9.95874 10.8444V13.3336C9.95858 13.6785 9.67859 13.9584 9.33374 13.9586C8.98866 13.9586 8.70891 13.6787 8.70874 13.3336L8.70776 9.33365C8.70769 9.17354 8.76851 9.01333 8.89038 8.89127C9.01231 8.76934 9.17274 8.70778 9.33276 8.70767ZM6.66675 2.04166C7.01193 2.04166 7.29175 2.32148 7.29175 2.66666V6.66666C7.29175 6.82682 7.23115 6.987 7.10913 7.10904C6.9871 7.23107 6.8269 7.29164 6.66675 7.29166H2.66675C2.32157 7.29166 2.04175 7.01183 2.04175 6.66666C2.04175 6.32148 2.32157 6.04166 2.66675 6.04166H5.15698L2.72437 3.60904C2.48029 3.36496 2.48029 2.96835 2.72437 2.72427C2.96845 2.48023 3.36506 2.48021 3.60913 2.72427L6.04175 5.15689V2.66666C6.04175 2.32148 6.32157 2.04166 6.66675 2.04166Z" fill="currentColor"/></svg>