<svg width="24" height="24" viewBox="0 0 16 16" fill="currentColor" xmlns="http://www.w3.org/2000/svg"><path d="M14 2.70834C14.3452 2.70834 14.625 2.98817 14.625 3.33334V12.6664C14.625 13.0115 14.3452 13.2914 14 13.2914C13.6548 13.2914 13.375 13.0115 13.375 12.6664V3.33334C13.375 2.98817 13.6548 2.70834 14 2.70834ZM8.39062 4.72397C8.6346 4.48 9.03129 4.48021 9.27539 4.72397L11.4014 6.85092C12.0357 7.4855 12.0359 8.51428 11.4014 9.14877L9.27539 11.2747C9.03132 11.5188 8.63471 11.5188 8.39062 11.2747C8.14725 11.0307 8.14692 10.6348 8.39062 10.391L10.1572 8.62534H2C1.65493 8.62534 1.37518 8.34536 1.375 8.00034C1.375 7.65516 1.65482 7.37534 2 7.37534H10.1582L8.39062 5.60873C8.14687 5.36463 8.14665 4.96794 8.39062 4.72397Z" fill="currentColor"/></svg>