<svg width="24" height="24" viewBox="0 0 16 16" fill="currentColor" xmlns="http://www.w3.org/2000/svg"><path d="M9.33276 7.29233L13.3337 7.29135C13.6787 7.29109 13.9587 7.01137 13.9587 6.66635C13.9586 6.32148 13.6786 6.04162 13.3337 6.04135L10.8425 6.04135L13.2751 3.60873C13.5192 3.36466 13.5192 2.96805 13.2751 2.72397C13.031 2.48026 12.6343 2.48001 12.3904 2.72397L9.95874 5.15561L9.95874 2.66635C9.95858 2.32148 9.67859 2.04161 9.33374 2.04135C8.98866 2.04135 8.70891 2.32131 8.70874 2.66635L8.70776 6.66635C8.70769 6.82646 8.76851 6.98667 8.89038 7.10873C9.01231 7.23066 9.17274 7.29222 9.33276 7.29233ZM6.66675 13.9583C7.01193 13.9583 7.29175 13.6785 7.29175 13.3333L7.29175 9.33334C7.29175 9.17318 7.23115 9.013 7.10913 8.89096C6.9871 8.76893 6.8269 8.70836 6.66675 8.70834H2.66675C2.32157 8.70834 2.04175 8.98817 2.04175 9.33334C2.04175 9.67852 2.32157 9.95834 2.66675 9.95834H5.15698L2.72437 12.391C2.48029 12.635 2.48029 13.0316 2.72437 13.2757C2.96845 13.5198 3.36506 13.5198 3.60913 13.2757L6.04175 10.8431V13.3333C6.04175 13.6785 6.32157 13.9583 6.66675 13.9583Z" fill="currentColor"/></svg>