<svg width="24" height="24" viewBox="0 0 16 16" fill="currentColor" xmlns="http://www.w3.org/2000/svg"><path d="M2 2.70834C2.34518 2.70834 2.625 2.98817 2.625 3.33334V12.6664C2.625 13.0115 2.34518 13.2914 2 13.2914C1.65482 13.2914 1.375 13.0115 1.375 12.6664V3.33334C1.375 2.98817 1.65482 2.70834 2 2.70834ZM6.72461 4.72397C6.96857 4.48043 7.36442 4.48046 7.6084 4.72397C7.85247 4.96805 7.85248 5.36466 7.6084 5.60873L5.84082 7.37534H14C14.345 7.37551 14.625 7.65527 14.625 8.00034C14.6248 8.34525 14.3449 8.62516 14 8.62534H5.8418L7.6084 10.391C7.85233 10.635 7.85222 11.0307 7.6084 11.2747C7.36434 11.5188 6.96868 11.5188 6.72461 11.2747L4.59766 9.14877C3.96363 8.51428 3.96361 7.48537 4.59766 6.85092L6.72461 4.72397Z" fill="currentColor"/></svg>