<svg width="24" height="24" viewBox="0 0 16 16" fill="currentColor" xmlns="http://www.w3.org/2000/svg"><path d="M6.22437 8.89127C6.46844 8.64719 6.86505 8.64719 7.10913 8.89127C7.35304 9.13536 7.35315 9.53201 7.10913 9.77603L4.17651 12.7086H6.66675C7.01193 12.7086 7.29175 12.9885 7.29175 13.3336C7.29158 13.6787 7.01182 13.9586 6.66675 13.9586H2.66675C2.32167 13.9586 2.04191 13.6787 2.04175 13.3336V9.33365C2.04175 8.98847 2.32157 8.70865 2.66675 8.70865C3.01193 8.70865 3.29175 8.98847 3.29175 9.33365V11.8239L6.22437 8.89127ZM13.3337 2.04166C13.6787 2.04192 13.9587 2.32164 13.9587 2.66666V6.66666C13.9587 7.01167 13.6787 7.29139 13.3337 7.29166C12.9886 7.29166 12.7087 7.01183 12.7087 6.66666V4.17545L9.77515 7.10904C9.53105 7.3529 9.13439 7.35305 8.89038 7.10904C8.6466 6.86501 8.64659 6.46829 8.89038 6.22427L11.823 3.29166H9.33374C8.98856 3.29166 8.70874 3.01183 8.70874 2.66666C8.70874 2.32148 8.98856 2.04166 9.33374 2.04166H13.3337Z" fill="currentColor"/></svg>