<svg width="24" height="24" viewBox="0 0 40 40" fill="none" xmlns="http://www.w3.org/2000/svg"><path d="M36 29V14C36 11.2386 33.7614 9 31 9H18.2426C17.447 9 16.6839 8.68393 16.1213 8.12132L14.8787 6.87868C14.3161 6.31607 13.5557 6 12.7601 6H7.9999C5.79076 6 4 7.79086 4 10V29C4 31.7614 6.23858 34 9 34H31C33.7614 34 36 31.7614 36 29Z" fill="#CB8710"/><path d="M9.00016 12C6.23867 12 4.00007 14.2387 4.00016 17.0002L4.00053 29.0002C4.00062 31.7615 6.23917 34 9.00053 34H31C33.7614 34 36 31.7614 36 29V17C36 14.2386 33.7614 12 31 12H9.00016Z" fill="#FFB700"/></svg>