<svg width="24" height="24" viewBox="0 0 40 40" fill="none" xmlns="http://www.w3.org/2000/svg"><path d="M12.1043 4C9.28527 4 7.00004 6.28527 7.00009 9.10426L7.00047 30.8959C7.00052 33.7148 9.28572 36 12.1046 36H27.8958C30.7148 36 33 33.7148 33 30.8958V13L24 4H12.1043Z" fill="#99CEFF"/><g clip-path="url(#svg_287f6f529c__clip0_12597_285)"><path d="M32.9987 13C30.0514 13 27.9183 13 25.9996 13C24.8951 13 24 12.1046 23.9999 11.0001L23.9995 4L32.9987 13Z" fill="#1071CB"/></g><path d="M26.5957 25.1626C24.7104 25.1626 23.5547 23.8926 23.5547 21.8271V21.8184C23.5547 19.7837 24.7192 18.4961 26.5649 18.4961C27.7495 18.4961 28.7364 19.0663 29.1757 20.0852C29.3007 20.3749 29.0611 20.667 28.7456 20.667H28.447C28.2087 20.667 28.0134 20.4903 27.8895 20.2867C27.6222 19.8477 27.0849 19.6211 26.5649 19.6211C25.541 19.6211 24.9082 20.4561 24.9082 21.8052V21.814C24.9082 23.1895 25.5718 24.0376 26.6177 24.0376C27.4878 24.0376 28.0854 23.5059 28.1118 22.7061C28.1142 22.6412 28.0623 22.5874 27.9975 22.5874H27.2285C26.9615 22.5874 26.7451 22.371 26.7451 22.104C26.7451 21.837 26.9615 21.6206 27.2285 21.6206H28.9082C29.1843 21.6206 29.4082 21.8445 29.4082 22.1206V22.4248C29.4082 24.1079 28.3271 25.1626 26.5957 25.1626Z" fill="#00284D"/><path d="M17.4194 25C17.1433 25 16.9194 24.7761 16.9194 24.5V19.1587C16.9194 18.8825 17.1433 18.6587 17.4194 18.6587H17.7717C17.932 18.6587 18.0825 18.7355 18.1766 18.8653L20.9397 22.678C20.9484 22.6901 20.9624 22.6973 20.9774 22.6973C21.0031 22.6973 21.0239 22.6764 21.0239 22.6507V19.1587C21.0239 18.8825 21.2478 18.6587 21.5239 18.6587H21.7939C22.0701 18.6587 22.2939 18.8825 22.2939 19.1587V24.5C22.2939 24.7761 22.0701 25 21.7939 25H21.4507C21.2903 25 21.1396 24.9231 21.0456 24.7931L18.2737 20.9631C18.2649 20.951 18.2509 20.9438 18.236 20.9438C18.2103 20.9438 18.1895 20.9647 18.1895 20.9904V24.5C18.1895 24.7761 17.9656 25 17.6895 25H17.4194Z" fill="#00284D"/><path d="M11.3555 24.9995C11.0793 24.9995 10.8555 24.7757 10.8555 24.4995V19.1582C10.8555 18.8821 11.0793 18.6582 11.3555 18.6582H13.4702C14.8062 18.6582 15.6982 19.5195 15.6982 20.8247V20.8335C15.6982 22.1387 14.8062 23 13.4702 23H12.1826V24.4995C12.1826 24.7757 11.9588 24.9995 11.6826 24.9995H11.3555ZM13.145 19.7085H12.1826V21.9629H13.145C13.9053 21.9629 14.3535 21.5586 14.3535 20.8379V20.8291C14.3535 20.1084 13.9053 19.7085 13.145 19.7085Z" fill="#00284D"/><defs><clipPath id="svg_287f6f529c__clip0_12597_285"><path fill="#fff" transform="translate(24 4)" d="M0 0H9V9H0z"/></clipPath></defs></svg>