<svg width="24" height="24" viewBox="0 0 40 40" fill="none" xmlns="http://www.w3.org/2000/svg"><path d="M12.0001 4C9.23863 4 7.00004 6.23863 7.00009 9.00009L7.00047 31.0001C7.00052 33.7615 9.23908 36 12.0005 36H28C30.7614 36 33 33.7614 33 31V13L24 4H12.0001Z" fill="#9EECD5"/><g clip-path="url(#svg_96aea249b9__clip0_12597_303)"><path d="M32.9987 13L25.9999 13C24.8954 13 24 12.1046 23.9999 11.0001L23.9995 4L32.9987 13Z" fill="#05994F"/></g><path d="M23.3335 19.3333L25.5288 21.5286C25.7891 21.7889 25.7891 22.2111 25.5288 22.4714L23.3335 24.6667" stroke="#212B2B" stroke-width="2" stroke-linecap="round" stroke-linejoin="round"/><path d="M16.6664 24.6667L14.4711 22.4714C14.2108 22.2111 14.2108 21.7889 14.4711 21.5286L16.6664 19.3333" stroke="#212B2B" stroke-width="2" stroke-linecap="round" stroke-linejoin="round"/><defs><clipPath id="svg_96aea249b9__clip0_12597_303"><path fill="#fff" transform="translate(24 4)" d="M0 0H9V9H0z"/></clipPath></defs></svg>