<svg width="24" height="24" viewBox="0 0 40 40" fill="none" xmlns="http://www.w3.org/2000/svg"><path d="M12.0001 4C9.23863 4 7.00004 6.23863 7.00009 9.00009L7.00047 31.0001C7.00052 33.7615 9.23908 36 12.0005 36H28C30.7614 36 33 33.7614 33 31V13L24 4H12.0001Z" fill="#F8886D"/><g clip-path="url(#svg_410b46805e__clip0_12597_356)"><path d="M32.9993 13L26.0006 13C24.896 13 24.0006 12.1046 24.0006 11.0001L24.0002 4L32.9993 13Z" fill="#C63B18"/></g><path d="M17 17H20.5C21.8807 17 23 18.1193 23 19.5V19.5C23 20.8807 21.8807 22 20.5 22H17V17Z" stroke="#4D0F00" stroke-width="2" stroke-linecap="round" stroke-linejoin="round"/><path d="M17 17V27" stroke="#4D0F00" stroke-width="2" stroke-linecap="round" stroke-linejoin="round"/><defs><clipPath id="svg_410b46805e__clip0_12597_356"><path fill="#fff" transform="translate(24 4)" d="M0 0H9V9H0z"/></clipPath></defs></svg>