<svg width="24" height="24" viewBox="0 0 40 40" fill="none" xmlns="http://www.w3.org/2000/svg"><path d="M12.0001 4C9.23863 4 7.00004 6.23863 7.00009 9.00009L7.00047 31.0001C7.00052 33.7615 9.23908 36 12.0005 36H28C30.7614 36 33 33.7614 33 31V13L24 4H12.0001Z" fill="#99CEFF"/><g clip-path="url(#svg_c48d112dba__clip0_12597_340)"><path d="M32.9993 13L26.0006 13C24.896 13 24.0006 12.1046 24.0006 11.0001L24.0002 4L32.9993 13Z" fill="#1071CB"/></g><path d="M24.5 18L24.5 25.4624C24.5 25.9466 23.8804 26.1481 23.5956 25.7565L20.4044 21.3685C20.2047 21.094 19.7953 21.094 19.5956 21.3685L16.4044 25.7565C16.1196 26.1481 15.5 25.9466 15.5 25.4624L15.5 18" stroke="#00284D" stroke-width="2" stroke-linecap="round" stroke-linejoin="round"/><defs><clipPath id="svg_c48d112dba__clip0_12597_340"><path fill="#fff" transform="translate(24 4)" d="M0 0H9V9H0z"/></clipPath></defs></svg>