<svg width="24" height="24" viewBox="0 0 40 40" fill="none" xmlns="http://www.w3.org/2000/svg"><path d="M12.1043 4C9.28527 4 7.00004 6.28527 7.00009 9.10426L7.00047 30.8959C7.00052 33.7148 9.28572 36 12.1046 36H27.8958C30.7148 36 33 33.7148 33 30.8958V13L24 4H12.1043Z" fill="#A3C5FF"/><g clip-path="url(#svg_3bdb962c3b__clip0_12597_375)"><path d="M32.9992 13C30.0519 13 27.9188 13 26.0001 13C24.8956 13 24.0005 12.1046 24.0004 11.0001L24 4L32.9992 13Z" fill="#226EF2"/></g><g clip-path="url(#svg_3bdb962c3b__clip1_12597_375)"><path d="M25.2744 26.9179C25.5366 26.918 25.749 27.1304 25.749 27.3925C25.749 27.6546 25.5365 27.8671 25.2744 27.8672H23.1953C22.9332 27.8671 22.7208 27.6547 22.7207 27.3925C22.7207 27.1304 22.9331 26.918 23.1953 26.9179H25.2744ZM18.2021 16.6172C18.9226 16.6172 19.5683 16.9353 20.0098 17.4365C20.4513 16.9355 21.0971 16.6172 21.8174 16.6172H25.1299C25.9613 16.6173 26.6355 17.2916 26.6357 18.123V21.6474C26.6357 21.847 26.474 22.0088 26.2744 22.0088H25.793C25.5934 22.0088 25.4317 21.847 25.4316 21.6474V18.123C25.4314 17.957 25.296 17.8224 25.1299 17.8222H21.8174C21.1521 17.8224 20.6113 18.362 20.6113 19.0273V25.3955C20.9318 25.2175 21.2778 25.1128 21.627 25.0713C21.7299 25.059 21.8174 25.1424 21.8174 25.2461V26.0986C21.8173 26.1921 21.7453 26.269 21.6533 26.2861C21.4669 26.3206 21.2941 26.3857 21.1406 26.4804C20.8873 26.6371 20.6811 26.8614 20.5479 27.1279C20.4457 27.3315 20.2376 27.4598 20.0098 27.4599C19.7818 27.4598 19.5728 27.3317 19.4707 27.1279C19.3375 26.8615 19.1331 26.6371 18.8799 26.4804C18.639 26.3316 18.3495 26.2559 18.0361 26.2558H14.8887C14.0574 26.2555 13.3832 25.5812 13.3828 24.75V18.123C13.383 17.2917 14.0574 16.6175 14.8887 16.6172H18.2021ZM26.6709 24.8086C26.933 24.8086 27.1454 25.0211 27.1455 25.2832C27.1455 25.5454 26.9331 25.7578 26.6709 25.7578H23.1953C22.9331 25.7578 22.7207 25.5454 22.7207 25.2832C22.7208 25.0211 22.9332 24.8086 23.1953 24.8086H26.6709ZM14.8887 17.8222C14.7228 17.8226 14.5881 17.9571 14.5879 18.123V24.75C14.5882 24.9158 14.7228 25.0514 14.8887 25.0517H18.0361C18.5037 25.0518 18.9779 25.1571 19.4072 25.3955V19.0273C19.4072 18.362 18.8674 17.8224 18.2021 17.8222H14.8887ZM26.6709 22.7002C26.9331 22.7002 27.1455 22.9136 27.1455 23.1758C27.1453 23.4377 26.9329 23.6504 26.6709 23.6504H23.1953C22.9333 23.6503 22.7209 23.4377 22.7207 23.1758C22.7207 22.9136 22.9331 22.7002 23.1953 22.7002H26.6709Z" fill="#001C4D"/></g><defs><clipPath id="svg_3bdb962c3b__clip0_12597_375"><path fill="#fff" transform="translate(24 4)" d="M0 0H9V9H0z"/></clipPath><clipPath id="svg_3bdb962c3b__clip1_12597_375"><path fill="#fff" transform="translate(12.5 14.5)" d="M0 0H15V15H0z"/></clipPath></defs></svg>