<svg width="24" height="24" viewBox="0 0 40 40" fill="none" xmlns="http://www.w3.org/2000/svg"><path d="M12.0001 4C9.23863 4 7.00004 6.23863 7.00009 9.00009L7.00047 31.0001C7.00052 33.7615 9.23908 36 12.0005 36H28C30.7614 36 33 33.7614 33 31V13L24 4H12.0001Z" fill="#99CEFF"/><g clip-path="url(#svg_c4dc45af57__clip0_12597_324)"><path d="M32.9993 13L26.0006 13C24.896 13 24.0006 12.1046 24.0006 11.0001L24.0002 4L32.9993 13Z" fill="#1071CB"/></g><g clip-path="url(#svg_c4dc45af57__clip1_12597_324)" stroke="#00284D" stroke-width="2" stroke-linecap="round" stroke-linejoin="round"><path d="M24.8896 18.9199V25.0792"/><path d="M24.8849 25.0791L22.5752 23.1543"/><path d="M24.8905 25.0791L27.2002 23.1543"/><path d="M12.7998 25.0792V20.206C12.7998 19.7077 13.3886 19.4433 13.761 19.7743L15.8807 21.6585C16.0995 21.853 16.4293 21.853 16.6481 21.6585L18.7678 19.7743C19.1402 19.4433 19.729 19.7077 19.729 20.206V25.0792"/></g><defs><clipPath id="svg_c4dc45af57__clip0_12597_324"><path fill="#fff" transform="translate(24 4)" d="M0 0H9V9H0z"/></clipPath><clipPath id="svg_c4dc45af57__clip1_12597_324"><path fill="#fff" transform="translate(12 14)" d="M0 0H16V16H0z"/></clipPath></defs></svg>