<svg width="24" height="24" viewBox="0 0 40 40" fill="none" xmlns="http://www.w3.org/2000/svg"><path d="M12.0001 4C9.23863 4 7.00004 6.23863 7.00009 9.00009L7.00047 31.0001C7.00052 33.7615 9.23908 36 12.0005 36H28C30.7614 36 33 33.7614 33 31V13L24 4H12.0001Z" fill="#FFC864"/><g clip-path="url(#svg_8027c5122c__clip0_12597_294)"><path d="M32.9987 13C30.7358 13 28.1879 13 25.9997 13C24.8951 13 24 12.1046 23.9999 11.0001L23.9995 4L32.9987 13Z" fill="#CB8710"/></g><path d="M25.8447 26.1626C23.9595 26.1626 22.8037 24.8926 22.8037 22.8271V22.8184C22.8037 20.7837 23.9683 19.4961 25.814 19.4961C26.9986 19.4961 27.9854 20.0663 28.4248 21.0852C28.5497 21.3749 28.3101 21.667 27.9946 21.667H27.696C27.4577 21.667 27.2624 21.4903 27.1385 21.2867C26.8713 20.8477 26.3339 20.6211 25.814 20.6211C24.79 20.6211 24.1572 21.4561 24.1572 22.8052V22.814C24.1572 24.1895 24.8208 25.0376 25.8667 25.0376C26.7368 25.0376 27.3345 24.5059 27.3608 23.7061C27.3632 23.6412 27.3114 23.5874 27.2465 23.5874H26.4775C26.2106 23.5874 25.9941 23.371 25.9941 23.104C25.9941 22.837 26.2106 22.6206 26.4775 22.6206H27.853C28.2972 22.6206 28.6572 22.9807 28.6572 23.4248C28.6572 25.1079 27.5762 26.1626 25.8447 26.1626Z" fill="#4D3000"/><path d="M17.6841 26C17.3176 26 17.0205 25.7029 17.0205 25.3364V20.6587C17.0205 20.1064 17.4682 19.6587 18.0205 19.6587H19.6353C20.9712 19.6587 21.8633 20.52 21.8633 21.8252V21.834C21.8633 23.1392 20.9712 24.0005 19.6353 24.0005H18.3477V25.3364C18.3477 25.7029 18.0506 26 17.6841 26ZM19.3101 20.709H18.3477V22.9634H19.3101C20.0703 22.9634 20.5186 22.5591 20.5186 21.8384V21.8296C20.5186 21.1089 20.0703 20.709 19.3101 20.709Z" fill="#4D3000"/><path d="M13.3115 26.1626C12.2956 26.1626 11.4477 25.5933 11.2272 24.6547C11.1641 24.3859 11.3952 24.1587 11.6714 24.1587H11.959C12.2351 24.1587 12.4435 24.4 12.5883 24.6352C12.7314 24.8674 12.9832 25.0156 13.2939 25.0156C13.8564 25.0156 14.1509 24.6772 14.1509 24.04V20.3223C14.1509 19.9558 14.448 19.6587 14.8145 19.6587C15.1809 19.6587 15.478 19.9558 15.478 20.3223V24.0488C15.478 25.3848 14.6826 26.1626 13.3115 26.1626Z" fill="#4D3000"/><defs><clipPath id="svg_8027c5122c__clip0_12597_294"><path fill="#fff" transform="translate(24 4)" d="M0 0H9V9H0z"/></clipPath></defs></svg>