<svg width="24" height="24" viewBox="0 0 40 40" fill="none" xmlns="http://www.w3.org/2000/svg"><path d="M12.0001 4C9.23863 4 7.00004 6.23863 7.00009 9.00009L7.00047 31.0001C7.00052 33.7615 9.23908 36 12.0005 36H28C30.7614 36 33 33.7614 33 31V13L24 4H12.0001Z" fill="#FFC864"/><g clip-path="url(#svg_390411c790__clip0_12597_318)"><path d="M32.9993 13L26.0006 13C24.896 13 24.0006 12.1046 24.0006 11.0001L24.0002 4L32.9993 13Z" fill="#CB8710"/></g><path d="M14.6666 25.333V23.333C14.6664 23.0108 14.4381 22.742 14.1342 22.6801L13.8664 22.6533C13.5625 22.5913 13.3342 22.3225 13.334 22.0004C13.334 21.678 13.5623 21.4083 13.8664 21.3464L14.1342 21.3196C14.4382 21.2576 14.6666 20.989 14.6666 20.6667V18.6667C14.6666 17.1939 15.8612 16.0004 17.334 16.0004C17.702 16.0006 18.0003 16.2986 18.0003 16.6667C18.0003 17.0347 17.702 17.3328 17.334 17.333C16.5976 17.333 16.0003 17.9303 16.0003 18.6667V20.6667C16.0003 21.1794 15.8053 21.6453 15.488 21.9993C15.8056 22.3532 16.0002 22.8199 16.0003 23.333V25.333C16.0003 26.0694 16.5976 26.6667 17.334 26.6667C17.7019 26.6669 18.0001 26.9651 18.0003 27.333C18.0003 27.701 17.702 28.0002 17.334 28.0004C15.8612 28.0004 14.6666 26.8058 14.6666 25.333ZM24.0003 25.333V23.333C24.0004 22.8202 24.1941 22.3532 24.5114 21.9993C24.1945 21.6454 24.0003 21.1792 24.0003 20.6667V18.6667C24.0003 17.9303 23.403 17.333 22.6666 17.333C22.2986 17.3328 22.0003 17.0347 22.0003 16.6667C22.0003 16.2986 22.2986 16.0006 22.6666 16.0004C24.1394 16.0004 25.334 17.1939 25.334 18.6667V20.6667C25.334 20.989 25.5624 21.2576 25.8664 21.3196L26.1342 21.3464C26.4383 21.4083 26.6666 21.678 26.6666 22.0004C26.6664 22.3225 26.4381 22.5913 26.1342 22.6533L25.8664 22.6801C25.5624 22.742 25.3342 23.0108 25.334 23.333V25.333C25.334 26.8058 24.1394 28.0004 22.6666 28.0004C22.2986 28.0002 22.0003 27.701 22.0003 27.333C22.0005 26.9651 22.2987 26.6669 22.6666 26.6667C23.403 26.6667 24.0003 26.0694 24.0003 25.333Z" fill="#4D3000"/><defs><clipPath id="svg_390411c790__clip0_12597_318"><path fill="#fff" transform="translate(24 4)" d="M0 0H9V9H0z"/></clipPath></defs></svg>