<svg width="24" height="24" viewBox="0 0 40 40" fill="none" xmlns="http://www.w3.org/2000/svg"><path d="M12.0001 4C9.23863 4 7.00004 6.23863 7.00009 9.00009L7.00047 31.0001C7.00052 33.7615 9.23908 36 12.0005 36H28C30.7614 36 33 33.7614 33 31V13L24 4H12.0001Z" fill="#FF6464"/><g clip-path="url(#svg_6e8948a8d9__clip0_12597_334)"><path d="M32.9993 13L26.0006 13C24.896 13 24.0006 12.1046 24.0006 11.0001L24.0002 4L32.9993 13Z" fill="#CB1010"/></g><path d="M25.0855 24.4523C24.0329 24.3743 23.0193 23.9845 22.2006 23.2828C20.6022 23.6336 19.0817 24.1404 17.5613 24.7642C16.3528 26.9084 15.2222 28 14.2475 28C14.0526 28 13.8187 27.961 13.6628 27.8441C13.2339 27.6491 13 27.2203 13 26.7914C13 26.4406 13.078 25.4659 16.7816 23.8675C17.6393 22.3081 18.302 20.7097 18.8478 19.0333C18.38 18.0977 17.3664 15.7975 18.0681 14.628C18.302 14.1991 18.7699 13.9652 19.2767 14.0042C19.6665 14.0042 20.0564 14.1991 20.2903 14.511C20.7971 15.2128 20.7581 16.6942 20.0954 18.8774C20.7191 20.047 21.5378 21.0996 22.5125 21.9962C23.3312 21.8403 24.1499 21.7233 24.9685 21.7233C26.8009 21.7623 27.0738 22.62 27.0348 23.1268C27.0348 24.4523 25.7483 24.4523 25.0855 24.4523ZM14.1696 26.8694L14.2865 26.8304C14.8323 26.6355 15.2612 26.2457 15.573 25.7388C14.9883 25.9728 14.5204 26.3626 14.1696 26.8694ZM19.3546 15.1738H19.2377C19.1987 15.1738 19.1207 15.1738 19.0817 15.2128C18.9258 15.8755 19.0428 16.5772 19.3157 17.201C19.5496 16.5383 19.5496 15.8365 19.3546 15.1738ZM19.6275 20.8267L19.5886 20.9046L19.5496 20.8657C19.1987 21.7623 18.8088 22.659 18.38 23.5167L18.458 23.4777V23.5557C19.3157 23.2438 20.2513 22.9709 21.109 22.7759L21.07 22.737H21.187C20.6022 22.1522 20.0564 21.4894 19.6275 20.8267ZM24.9296 22.8929C24.5787 22.8929 24.2668 22.8929 23.9159 22.9709C24.3058 23.1658 24.6957 23.2438 25.0855 23.2828C25.3584 23.3217 25.6313 23.2828 25.8652 23.2048C25.8652 23.0878 25.7093 22.8929 24.9296 22.8929Z" fill="#fff"/><defs><clipPath id="svg_6e8948a8d9__clip0_12597_334"><path fill="#fff" transform="translate(24 4)" d="M0 0H9V9H0z"/></clipPath></defs></svg>