<svg width="24" height="24" viewBox="0 0 40 40" fill="none" xmlns="http://www.w3.org/2000/svg"><path d="M12.1043 4C9.28527 4 7.00004 6.28527 7.00009 9.10426L7.00047 30.8959C7.00052 33.7148 9.28572 36 12.1046 36H27.8958C30.7148 36 33 33.7148 33 30.8958V13L24 4H12.1043Z" fill="#AAB7FF"/><path d="M17.002 14.8721C18.7278 14.8721 20.127 16.2712 20.127 17.9971V24.9971C20.127 26.723 18.7278 28.1221 17.002 28.1221C15.2761 28.1221 13.877 26.723 13.877 24.9971V17.9971C13.877 16.2712 15.2761 14.8721 17.002 14.8721ZM25.0312 22.6338C25.2419 22.3604 25.6348 22.3098 25.9082 22.5205C26.6483 23.0909 27.127 23.9883 27.127 24.9971C27.1269 26.7229 25.7278 28.1221 24.002 28.1221H21C20.6549 28.1221 20.375 27.8422 20.375 27.4971C20.375 27.1519 20.6548 26.8721 21 26.8721H24.002C25.0375 26.8721 25.8769 26.0326 25.877 24.9971C25.877 24.3925 25.5916 23.8546 25.1455 23.5107C24.8721 23.3 24.8205 22.9072 25.0312 22.6338ZM17.002 16.1221C15.9664 16.1221 15.127 16.9615 15.127 17.9971V24.9971C15.127 26.0326 15.9664 26.8721 17.002 26.8721C18.0375 26.8721 18.877 26.0326 18.877 24.9971V17.9971C18.877 16.9615 18.0375 16.1221 17.002 16.1221ZM17.002 24.2471C17.4162 24.2471 17.752 24.5829 17.752 24.9971C17.752 25.4113 17.4162 25.7471 17.002 25.7471C16.5877 25.7471 16.252 25.4113 16.252 24.9971C16.252 24.5829 16.5877 24.2471 17.002 24.2471ZM21.9072 16.8936C22.731 16.8736 23.5639 17.1781 24.1934 17.8076C25.4137 19.0279 25.4136 21.0071 24.1934 22.2275L22.3633 24.0576C22.1193 24.3015 21.7236 24.3013 21.4795 24.0576C21.2355 23.8136 21.2355 23.4179 21.4795 23.1738L23.3086 21.3438C24.0408 20.6115 24.0408 19.4246 23.3086 18.6924C22.9307 18.3145 22.4327 18.1305 21.9365 18.1426C21.5919 18.1507 21.3065 17.8788 21.2979 17.5342C21.2894 17.1891 21.5622 16.902 21.9072 16.8936Z" fill="#1A1759"/><path d="M32.9992 13C30.0519 13 27.9188 13 26.0001 13C24.8956 13 24.0005 12.1046 24.0004 11.0001L24 4L32.9992 13Z" fill="#4C37E6"/></svg>