<svg width="24" height="24" viewBox="0 0 40 40" fill="none" xmlns="http://www.w3.org/2000/svg"><path d="M12.1043 4C9.28527 4 7.00004 6.28527 7.00009 9.10426L7.00047 30.8959C7.00052 33.7148 9.28572 36 12.1046 36H27.8958C30.7148 36 33 33.7148 33 30.8958V13L24 4H12.1043Z" fill="#A3C5FF"/><path d="M25.375 18.5771C25.375 17.7528 24.7374 17.125 24 17.125H16C15.2626 17.125 14.625 17.7528 14.625 18.5771V23.4229C14.625 24.2472 15.2626 24.875 16 24.875H24C24.7374 24.875 25.375 24.2472 25.375 23.4229V18.5771ZM19.0674 19.0498C19.2867 18.9469 19.546 18.98 19.7324 19.1348L21.3994 20.5195C21.5423 20.6383 21.625 20.8142 21.625 21C21.625 21.1858 21.5423 21.3617 21.3994 21.4805L19.7324 22.8652C19.546 23.02 19.2867 23.0531 19.0674 22.9502C18.8483 22.8472 18.7081 22.6269 18.708 22.3848V19.6152C18.7081 19.3731 18.8483 19.1528 19.0674 19.0498ZM19.958 21.0527L20.0215 21L19.958 20.9463V21.0527ZM26.625 23.4229C26.625 24.8927 25.4718 26.125 24 26.125H16C14.5282 26.125 13.375 24.8927 13.375 23.4229V18.5771C13.375 17.1074 14.5282 15.875 16 15.875H24C25.4718 15.875 26.625 17.1074 26.625 18.5771V23.4229Z" fill="#001C4D"/><g clip-path="url(#svg_9f6a693cdf__clip0_12597_381)"><path d="M32.9992 13C30.0519 13 27.9188 13 26.0001 13C24.8956 13 24.0005 12.1046 24.0004 11.0001L24 4L32.9992 13Z" fill="#226EF2"/></g><defs><clipPath id="svg_9f6a693cdf__clip0_12597_381"><path fill="#fff" transform="translate(24 4)" d="M0 0H9V9H0z"/></clipPath></defs></svg>