<svg width="24" height="24" viewBox="0 0 40 40" fill="none" xmlns="http://www.w3.org/2000/svg"><path d="M11.0001 6C8.23864 6 6.00005 8.23864 6.00011 11.0001L6.00049 29.0001C6.00055 31.7615 8.23911 34 11.0005 34H29C31.7614 34 34 31.7614 34 29V11C34 8.23858 31.7614 6 29 6L11.0001 6Z" fill="#B0B5BA"/><path d="M15.4004 23.001H12V19.6006H15.4004V23.001ZM18.8008 19.6006H15.4004V16.2002H18.8008V19.6006ZM15.3994 16.2002H12V12.8008H15.3994V16.2002ZM18.8008 12.8018H15.4004V9.40137H18.8008V12.8018ZM15.4004 9.40039H12V6H15.4004V9.40039Z" fill="#21262B"/></svg>