<svg width="24" height="24" viewBox="0 0 40 40" fill="none" xmlns="http://www.w3.org/2000/svg"><path d="M12.1043 4C9.28527 4 7.00004 6.28527 7.00009 9.10426L7.00047 30.8959C7.00052 33.7148 9.28572 36 12.1046 36H27.8958C30.7148 36 33 33.7148 33 30.8958V13L24 4H12.1043Z" fill="#B8C3FF"/><g clip-path="url(#svg_d8a7e654ba__clip0_12597_406)"><path d="M32.9992 13C30.0519 13 27.9188 13 26.0001 13C24.8956 13 24.0005 12.1046 24.0004 11.0001L24 4L32.9992 13Z" fill="#4C37E6"/></g><path d="M20 15.373C23.6598 15.373 26.627 18.3402 26.627 22C26.627 22.4108 26.5886 22.8135 26.5166 23.2041C26.3485 24.1146 25.519 24.6269 24.7148 24.627H21.333C20.943 24.6271 20.6271 24.943 20.627 25.333V26.667C20.6268 27.6998 19.7456 28.7363 18.5391 28.4648C15.5824 27.7993 13.373 25.1584 13.373 22C13.373 18.3402 16.3402 15.373 20 15.373ZM20 16.627C17.0324 16.627 14.627 19.0324 14.627 22C14.627 24.5596 16.4171 26.7026 18.8145 27.2422C18.9534 27.2735 19.0771 27.2353 19.1807 27.1387C19.2911 27.0354 19.373 26.8658 19.373 26.667V25.333C19.3732 24.2508 20.2508 23.3732 21.333 23.373H24.7148C25.0405 23.373 25.2472 23.177 25.2842 22.9766C25.3425 22.6602 25.373 22.3339 25.373 22C25.373 19.0324 22.9676 16.627 20 16.627ZM16.6992 21.9336C17.1962 21.9336 17.5996 22.336 17.5996 22.833C17.5996 23.3301 17.1963 23.7334 16.6992 23.7334C16.2023 23.7332 15.7998 23.33 15.7998 22.833C15.7999 22.3361 16.2024 21.9338 16.6992 21.9336ZM23.5 20.2002C23.997 20.2002 24.4003 20.6026 24.4004 21.0996C24.4004 21.5967 23.9971 22 23.5 22C23.0031 21.9998 22.6006 21.5966 22.6006 21.0996C22.6006 20.6027 23.0031 20.2004 23.5 20.2002ZM17.5 18.5332C17.9971 18.5332 18.4004 18.9365 18.4004 19.4336C18.4002 19.9305 17.9969 20.333 17.5 20.333C17.0032 20.3328 16.6008 19.9304 16.6006 19.4336C16.6006 18.9367 17.0031 18.5334 17.5 18.5332ZM20.9004 17.7334C21.3973 17.7336 21.7998 18.1369 21.7998 18.6338C21.7996 19.1305 21.3971 19.533 20.9004 19.5332C20.4035 19.5332 20.0002 19.1307 20 18.6338C20 18.1367 20.4033 17.7334 20.9004 17.7334Z" fill="#1A1759"/><defs><clipPath id="svg_d8a7e654ba__clip0_12597_406"><path fill="#fff" transform="translate(24 4)" d="M0 0H9V9H0z"/></clipPath></defs></svg>