<svg width="24" height="24" viewBox="0 0 40 40" fill="none" xmlns="http://www.w3.org/2000/svg"><path d="M12.1043 4C9.28527 4 7.00004 6.28527 7.00009 9.10426L7.00047 30.8959C7.00052 33.7148 9.28572 36 12.1046 36H27.8958C30.7148 36 33 33.7148 33 30.8958V13L24 4H12.1043Z" fill="#9EECD5"/><path d="M23.5889 15.6192C24.6107 15.374 25.5928 16.1485 25.5928 17.1993V25.4268C25.5925 26.3929 24.8089 27.1758 23.8428 27.1758H22.625C21.6761 27.1758 20.9065 26.4069 20.9062 25.4581C20.9062 24.509 21.676 23.7393 22.625 23.7393H24.3428V19.2589L17.7832 20.8116V25.6055C17.7833 25.6087 17.7842 25.6121 17.7842 25.6153V26.6778C17.7839 27.6438 17.0003 28.4268 16.0342 28.4268H15.1289C14.1801 28.4268 13.4104 27.6578 13.4102 26.709C13.4102 25.76 14.1799 24.9903 15.1289 24.9903H16.5332V18.5938C16.5332 17.8424 17.0487 17.1891 17.7793 17.0137L23.5889 15.6192ZM15.1289 26.2403C14.8702 26.2403 14.6602 26.4504 14.6602 26.709C14.6604 26.9675 14.8704 27.1768 15.1289 27.1768H16.0342C16.3099 27.1768 16.5339 26.9535 16.5342 26.6778V26.5518H16.5332V26.2403H15.1289ZM22.625 24.9893C22.3663 24.9893 22.1562 25.1994 22.1562 25.4581C22.1565 25.7165 22.3665 25.9258 22.625 25.9258H23.8428C24.1185 25.9258 24.3425 25.7025 24.3428 25.4268V24.9893H22.625ZM23.8809 16.834L18.0703 18.2286C17.9019 18.2692 17.7832 18.4205 17.7832 18.5938V19.5274L24.3428 17.9737V17.1993C24.3428 16.9569 24.1165 16.7778 23.8809 16.834Z" fill="#212B2B"/><g clip-path="url(#svg_d63812cef2__clip0_12597_387)"><path d="M32.9992 13C30.0519 13 27.9188 13 26.0001 13C24.8956 13 24.0005 12.1046 24.0004 11.0001L24 4L32.9992 13Z" fill="#05994F"/></g><defs><clipPath id="svg_d63812cef2__clip0_12597_387"><path fill="#fff" transform="translate(24 4)" d="M0 0H9V9H0z"/></clipPath></defs></svg>