<svg width="24" height="24" viewBox="0 0 40 40" fill="none" xmlns="http://www.w3.org/2000/svg"><path d="M11.0001 6C8.23864 6 6.00005 8.23864 6.00011 11.0001L6.00049 29.0001C6.00055 31.7615 8.23911 34 11.0005 34H29C31.7614 34 34 31.7614 34 29V11C34 8.23858 31.7614 6 29 6L11.0001 6Z" fill="#CED6E0"/><rect x="10" y="10" width="20" height="20" rx="10" fill="#fff"/><path d="M16.074 24.5376C15.686 24.7043 15.2935 24.3118 15.4601 23.9238L17.9287 18.176C17.9759 18.0659 18.0636 17.9782 18.1737 17.931L23.9215 15.4624C24.3094 15.2958 24.7019 15.6883 24.5353 16.0763L22.0668 21.8241C22.0195 21.9341 21.9318 22.0218 21.8218 22.0691L16.074 24.5376Z" fill="#BCC5D1"/><path d="M23.9231 15.4618L18.3208 17.8678C18.1689 17.933 18.1309 18.1309 18.2478 18.2478L21.751 21.751C21.8678 21.8678 22.0657 21.8298 22.1309 21.678L24.537 16.0756C24.7036 15.6877 24.3111 15.2952 23.9231 15.4618Z" fill="#EA574C"/></svg>