<svg width="24" height="24" viewBox="0 0 40 40" fill="none" xmlns="http://www.w3.org/2000/svg"><path d="M12.0001 4C9.23863 4 7.00004 6.23863 7.00009 9.00009L7.00047 31.0001C7.00052 33.7615 9.23908 36 12.0005 36H28C30.7614 36 33 33.7614 33 31V13L24 4H12.0001Z" fill="#CED6E0"/><g clip-path="url(#svg_af2f27bed2__clip0_12597_417)"><path d="M32.9993 13L26.0006 13C24.896 13 24.0006 12.1046 24.0006 11.0001L24.0002 4L32.9993 13Z" fill="#88919E"/></g><path d="M19.5859 15.625C19.9311 15.625 20.2109 15.9048 20.2109 16.25V27.75C20.2109 28.0952 19.9311 28.375 19.5859 28.375C19.2408 28.375 18.9609 28.0952 18.9609 27.75V27.375H15.8008C14.9033 27.375 14.1758 26.6475 14.1758 25.75V18.25C14.1758 17.3525 14.9033 16.625 15.8008 16.625H18.9609V16.25C18.9609 15.9048 19.2408 15.625 19.5859 15.625ZM24.1992 16.625C25.0967 16.625 25.8242 17.3525 25.8242 18.25V25.75C25.8242 26.6475 25.0967 27.375 24.1992 27.375H21.5C21.1548 27.375 20.875 27.0952 20.875 26.75C20.875 26.4048 21.1548 26.125 21.5 26.125H24.1992C24.4063 26.125 24.5742 25.9571 24.5742 25.75V18.25C24.5742 18.0429 24.4063 17.875 24.1992 17.875H21.5C21.1548 17.875 20.875 17.5952 20.875 17.25C20.875 16.9048 21.1548 16.625 21.5 16.625H24.1992ZM15.8008 17.875C15.5937 17.875 15.4258 18.0429 15.4258 18.25V25.75C15.4258 25.9571 15.5937 26.125 15.8008 26.125H18.9609V23.875H17.1992C16.854 23.875 16.5742 23.5952 16.5742 23.25C16.5742 22.9048 16.854 22.625 17.1992 22.625H18.9609V20.875H17.1992C16.854 20.875 16.5742 20.5952 16.5742 20.25C16.5742 19.9048 16.854 19.625 17.1992 19.625H18.9609V17.875H15.8008ZM23.0996 22.625C23.4448 22.625 23.7246 22.9048 23.7246 23.25C23.7246 23.5952 23.4448 23.875 23.0996 23.875H21.5C21.1548 23.875 20.875 23.5952 20.875 23.25C20.875 22.9048 21.1548 22.625 21.5 22.625H23.0996ZM23.0996 19.625C23.4448 19.625 23.7246 19.9048 23.7246 20.25C23.7246 20.5952 23.4448 20.875 23.0996 20.875H21.5C21.1548 20.875 20.875 20.5952 20.875 20.25C20.875 19.9048 21.1548 19.625 21.5 19.625H23.0996Z" fill="#262626"/><defs><clipPath id="svg_af2f27bed2__clip0_12597_417"><path fill="#fff" transform="translate(24 4)" d="M0 0H9V9H0z"/></clipPath></defs></svg>