<svg width="24" height="24" viewBox="0 0 40 40" fill="none" xmlns="http://www.w3.org/2000/svg"><path d="M12.0001 4C9.23863 4 7.00004 6.23863 7.00009 9.00009L7.00047 31.0001C7.00052 33.7615 9.23908 36 12.0005 36H28C30.7614 36 33 33.7614 33 31V13L24 4H12.0001Z" fill="#FFC864"/><g clip-path="url(#svg_326a673377__clip0_12874_25140)"><path d="M32.9992 13C30.7363 13 28.1884 13 26.0002 13C24.8956 13 24.0005 12.1046 24.0004 11.0001L24 4L32.9992 13Z" fill="#CB8710"/></g><g clip-path="url(#svg_326a673377__clip1_12874_25140)"><path d="M25.25 18.3636C25.25 17.5353 24.4647 16.7502 23.6364 16.75H16.3636C15.5352 16.75 14.75 17.5352 14.75 18.3636V23.2619L15.066 22.98C16.1842 21.8617 17.997 21.9424 19.1153 23.0605L23.1922 27.25H23.6364C24.4646 27.2498 25.2498 26.4646 25.25 25.6364V18.3636ZM22.7 20.182C22.7 19.7553 22.2447 19.3 21.818 19.3C21.3912 19.3 20.93 19.7553 20.93 20.182C20.9302 20.6087 21.3913 21.07 21.818 21.07C22.2446 21.07 22.6998 20.6087 22.7 20.182ZM14.75 25.6364C14.7502 26.4647 15.5353 27.25 16.3636 27.25H21.37L18.26 23.92C17.6742 23.3344 16.5057 23.3343 15.92 23.92L14.75 25.1911V25.6364ZM23.9539 20.182C23.9537 21.3618 22.9977 22.318 21.818 22.318C20.6382 22.318 19.6822 21.3618 19.682 20.182C19.682 19.0022 20.6381 18.045 21.818 18.045C22.9978 18.045 23.9539 19.0022 23.9539 20.182ZM26.5 25.6364C26.4998 27.2177 25.2177 28.4998 23.6364 28.5H16.3636C14.7822 28.5 13.5002 27.2178 13.5 25.6364V18.3636C13.5 16.7821 14.7821 15.5 16.3636 15.5H23.6364C25.2178 15.5002 26.5 16.7822 26.5 18.3636V25.6364Z" fill="#4D3000" fill-opacity=".95"/></g><defs><clipPath id="svg_326a673377__clip0_12874_25140"><path fill="#fff" transform="translate(24 4)" d="M0 0H9V9H0z"/></clipPath><clipPath id="svg_326a673377__clip1_12874_25140"><path fill="#fff" transform="translate(12 14)" d="M0 0H16V16H0z"/></clipPath></defs></svg>