<svg width="24" height="24" viewBox="0 0 40 40" fill="none" xmlns="http://www.w3.org/2000/svg"><path d="M12.1043 4C9.28527 4 7.00004 6.28527 7.00009 9.10426L7.00047 30.8959C7.00052 33.7148 9.28572 36 12.1046 36H27.8958C30.7148 36 33 33.7148 33 30.8958V13L24 4H12.1043Z" fill="#D6D6D6"/><g clip-path="url(#svg_2e0813aeaf__clip0_12597_398)"><path d="M32.9992 13C30.0519 13 27.9188 13 26.0001 13C24.8956 13 24.0005 12.1046 24.0004 11.0001L24 4L32.9992 13Z" fill="#686868"/></g><path d="M13 19H23" stroke="#686868" stroke-width="2" stroke-linecap="round"/><path d="M13 23.5H23" stroke="#686868" stroke-width="2" stroke-linecap="round"/><path d="M13 28H19" stroke="#686868" stroke-width="2" stroke-linecap="round"/><defs><clipPath id="svg_2e0813aeaf__clip0_12597_398"><path fill="#fff" transform="translate(24 4)" d="M0 0H9V9H0z"/></clipPath></defs></svg>