<svg width="24" height="24" viewBox="0 0 40 40" fill="none" xmlns="http://www.w3.org/2000/svg"><path d="M12.0001 4C9.23863 4 7.00004 6.23863 7.00009 9.00009L7.00047 31.0001C7.00052 33.7615 9.23908 36 12.0005 36H28C30.7614 36 33 33.7614 33 31V13L24 4H12.0001Z" fill="#9EECD5"/><g clip-path="url(#svg_8d6f9f0bc0__clip0_12597_346)"><path d="M32.9993 13L26.0006 13C24.896 13 24.0006 12.1046 24.0006 11.0001L24.0002 4L32.9993 13Z" fill="#198B52"/></g><rect x="15" y="17" width="10" height="10" rx="2" stroke="#004221" stroke-width="2" stroke-linecap="round"/><path d="M15 22H25" stroke="#004221" stroke-width="2" stroke-linecap="round"/><path d="M20.0059 17.0049L20.0059 27.0049" stroke="#004221" stroke-width="2" stroke-linecap="round"/><defs><clipPath id="svg_8d6f9f0bc0__clip0_12597_346"><path fill="#fff" transform="translate(24 4)" d="M0 0H9V9H0z"/></clipPath></defs></svg>