<svg width="24" height="24" viewBox="0 0 16 16" fill="currentColor" xmlns="http://www.w3.org/2000/svg"><path d="M4.79004 7.59277C5.02623 5.91216 6.44694 4.57453 8.10547 4.80762C8.72727 4.89505 9.25646 5.18498 9.66211 5.60254L9.66602 5.57715C9.71563 5.23555 10.0334 4.99824 10.375 5.04785C10.7165 5.09755 10.9529 5.4153 10.9033 5.75684L10.5596 8.11914L10.5605 8.12012C10.4372 8.98303 11.0616 9.77344 11.9297 9.85254C12.445 9.89937 12.7673 9.70744 12.9893 9.40234C13.2348 9.06469 13.375 8.55374 13.375 8C13.375 5.03147 10.9686 2.625 8 2.625C5.03147 2.625 2.625 5.03147 2.625 8C2.625 10.9686 5.03147 13.375 8 13.375C9.03889 13.375 10.007 13.0805 10.8281 12.5713C11.1215 12.3894 11.5075 12.4801 11.6895 12.7734C11.8711 13.0667 11.7805 13.4519 11.4873 13.6338C10.4741 14.2622 9.27839 14.625 8 14.625C4.34112 14.625 1.375 11.6589 1.375 8C1.375 4.34112 4.34112 1.375 8 1.375C11.6589 1.375 14.625 4.34112 14.625 8C14.625 8.73039 14.4456 9.52506 14 10.1377C13.5308 10.7826 12.7893 11.1861 11.8164 11.0977C11.0054 11.0238 10.313 10.6074 9.85938 10.0088C9.24136 10.8318 8.27568 11.3335 7.20898 11.1836C5.55064 10.9504 4.55387 9.2733 4.79004 7.59277ZM7.93164 6.04492C7.10688 5.92901 6.19104 6.6093 6.02832 7.7666C5.86568 8.92385 6.55815 9.83018 7.38281 9.94629C8.20758 10.0622 9.1235 9.38197 9.28613 8.22461C9.4488 7.06736 8.75629 6.16098 7.93164 6.04492Z" fill="currentColor"/></svg>