<svg width="24" height="24" viewBox="0 0 16 16" fill="currentColor" xmlns="http://www.w3.org/2000/svg"><path d="M9.65272 6.16938C9.8968 5.92531 10.2934 5.92531 10.5375 6.16938C10.7816 6.41346 10.7816 6.81007 10.5375 7.05415L8.04335 9.54731C7.64302 9.94764 6.99342 9.94769 6.59315 9.54731L5.49159 8.44575C5.24767 8.20163 5.2485 7.80596 5.49256 7.56196C5.73668 7.31805 6.13235 7.3179 6.37635 7.56196L7.31776 8.50337L9.65272 6.16938Z" fill="currentColor"/><path d="M12.8289 5.6541C12.8289 5.38615 12.6859 5.13769 12.4539 5.00371L8.3894 2.65801C8.15736 2.52407 7.87143 2.52405 7.6394 2.65801L3.57593 5.00371C3.34388 5.13769 3.20093 5.38615 3.20093 5.6541V10.3465C3.20094 10.6144 3.34389 10.8619 3.57593 10.9959L7.6394 13.3426C7.87136 13.4765 8.1574 13.4764 8.3894 13.3426L12.4539 10.9959C12.6858 10.8619 12.8288 10.6144 12.8289 10.3465V5.6541ZM14.0789 10.3465L14.074 10.4793C14.03 11.1421 13.6591 11.7439 13.0789 12.0789L9.0144 14.4246C8.39561 14.7818 7.63319 14.7819 7.0144 14.4246L2.95093 12.0789C2.37067 11.7439 1.99885 11.1421 1.95483 10.4793L1.95093 10.3465V5.6541C1.95093 4.98413 2.28575 4.36151 2.83765 3.99199L2.95093 3.92168L7.0144 1.575C7.63312 1.21779 8.39565 1.21789 9.0144 1.575L13.0789 3.92168C13.6976 4.27896 14.0789 4.93962 14.0789 5.6541V10.3465Z" fill="currentColor"/></svg>