<svg width="24" height="24" viewBox="0 0 16 16" fill="currentColor" xmlns="http://www.w3.org/2000/svg"><path d="M8.0752 4.7002C8.57178 4.7002 8.83545 4.92871 9.02441 5.49121L10.5361 9.82422C10.5976 10.0131 10.6289 10.1583 10.6289 10.2812C10.6288 10.5974 10.4044 10.7996 10.0664 10.7998C9.74561 10.7998 9.56104 10.6323 9.44238 10.2236L9.10352 9.2041H6.99902L6.66504 10.2236C6.54206 10.6365 6.3659 10.7996 6.0498 10.7998C5.72461 10.7998 5.5 10.6016 5.5 10.3027C5.50004 10.1842 5.53087 10.0481 5.60547 9.82422L7.11719 5.49121C7.30615 4.93311 7.57422 4.7002 8.0752 4.7002ZM7.2627 8.32129H8.84473L8.08398 5.89551H8.02734L7.2627 8.32129Z" fill="currentColor"/><path d="M13.375 8C13.375 5.03147 10.9686 2.625 8 2.625C5.03147 2.625 2.625 5.03147 2.625 8C2.625 10.9686 5.03147 13.375 8 13.375C10.9686 13.375 13.375 10.9686 13.375 8ZM14.625 8C14.625 11.6589 11.6589 14.625 8 14.625C4.34112 14.625 1.375 11.6589 1.375 8C1.375 4.34112 4.34112 1.375 8 1.375C11.6589 1.375 14.625 4.34112 14.625 8Z" fill="currentColor"/></svg>