<svg width="24" height="24" viewBox="0 0 16 16" fill="currentColor" xmlns="http://www.w3.org/2000/svg"><path d="M13.373 8C13.373 5.03239 10.9676 2.62695 8 2.62695C5.03239 2.62695 2.62695 5.03239 2.62695 8C2.62695 10.9676 5.03239 13.373 8 13.373C10.9676 13.373 13.373 10.9676 13.373 8ZM7.37305 5.33333C7.37305 4.98723 7.6539 4.70638 8 4.70638C8.3461 4.70638 8.62695 4.98723 8.62695 5.33333V7.74023L10.11 9.22331C10.3548 9.46804 10.3548 9.8653 10.11 10.11C9.8653 10.3548 9.46804 10.3548 9.22331 10.11L7.55664 8.44336C7.43912 8.32584 7.37305 8.1662 7.37305 8V5.33333ZM14.627 8C14.627 11.6598 11.6598 14.627 8 14.627C4.3402 14.627 1.37305 11.6598 1.37305 8C1.37305 4.34019 4.34019 1.37305 8 1.37305C11.6598 1.37305 14.627 4.3402 14.627 8Z" fill="currentColor"/><path d="M2.99887 1.05728C3.24354 0.812617 3.64031 0.812292 3.88506 1.05682C4.12979 1.30155 4.12979 1.69874 3.88506 1.94346L1.94328 3.88525C1.69855 4.12997 1.30136 4.12997 1.05663 3.88525C0.812106 3.6405 0.812431 3.24372 1.05709 2.99906L2.99887 1.05728Z" fill="currentColor"/><path d="M13.163 1.05728C12.9183 0.812617 12.5216 0.812292 12.2768 1.05682C12.0321 1.30155 12.0321 1.69874 12.2768 1.94346L14.2186 3.88525C14.4633 4.12997 14.8605 4.12997 15.1052 3.88525C15.3498 3.6405 15.3494 3.24372 15.1048 2.99906L13.163 1.05728Z" fill="currentColor"/></svg>