<svg xmlns="http://www.w3.org/2000/svg" width="24" height="24" fill="none" viewBox="0 0 16 16"><path fill="#31353a" d="M4.55 6.7q0 .3.06.47l.16.38.04.12q0 .08-.1.16l-.33.22-.14.05q-.08 0-.15-.07l-.2-.25-.16-.31q-.61.72-1.54.73-.67 0-1.06-.38T.74 6.8q0-.68.48-1.09.48-.4 1.3-.41.26 0 .55.04l.6.12v-.39q0-.6-.24-.84Q3.18 4 2.57 4 2.3 4 2 4.07a4 4 0 0 0-.57.18l-.18.06-.09.02q-.1 0-.1-.16V3.9q0-.13.03-.18a.4.4 0 0 1 .15-.11q.27-.15.66-.24.39-.1.82-.1.94 0 1.38.43.44.42.44 1.29zm-2.14.8q.26 0 .54-.09.3-.1.5-.34a1 1 0 0 0 .18-.33 2 2 0 0 0 .06-.46v-.22l-.49-.1-.5-.02q-.52 0-.78.2-.26.22-.26.61 0 .37.2.56.19.2.55.2m4.23.56q-.15 0-.2-.05t-.11-.2L5.09 3.75l-.05-.21q0-.14.13-.14h.51q.15 0 .21.06t.1.2l.89 3.49.82-3.49q.04-.16.1-.2a.4.4 0 0 1 .21-.06h.42q.15 0 .21.06.07.05.1.2l.84 3.53.9-3.53.11-.2a.3.3 0 0 1 .2-.06h.5q.13 0 .13.14l-.01.08-.04.13-1.27 4.07q-.05.16-.1.2a.3.3 0 0 1-.2.06h-.46q-.15 0-.21-.05t-.1-.21l-.82-3.4-.8 3.39q-.05.16-.1.21-.07.05-.22.05zm6.76.15a4 4 0 0 1-1.41-.3q-.14-.08-.17-.16l-.03-.14v-.27q0-.17.12-.17l.1.02.13.05q.27.12.58.19.31.06.63.06.5 0 .76-.17a.6.6 0 0 0 .28-.5.5.5 0 0 0-.14-.37q-.15-.15-.54-.28l-.76-.23a1.6 1.6 0 0 1-.84-.54 1.3 1.3 0 0 1-.12-1.35q.14-.25.38-.43a2 2 0 0 1 .54-.27q.32-.1.67-.1a3 3 0 0 1 .7.09l.3.08q.13.05.21.1l.16.13q.05.06.05.17v.25q0 .16-.12.17l-.2-.07a2.4 2.4 0 0 0-1.01-.2q-.45 0-.7.14c-.25.14-.25.26-.25.47q0 .23.16.38.15.15.58.29l.74.23q.57.19.82.5.24.34.24.75 0 .34-.13.6a1.4 1.4 0 0 1-.39.47 2 2 0 0 1-.58.3 3 3 0 0 1-.76.1"/><path fill="#f90" d="M14.4 10.77a11.4 11.4 0 0 1-6.41 1.96A11.6 11.6 0 0 1 .16 9.75C0 9.6.14 9.4.34 9.52a15.6 15.6 0 0 0 13.8.86c.3-.14.54.18.26.4"/><path fill="#f90" d="M15.12 9.95c-.22-.28-1.46-.13-2.03-.06-.17.01-.2-.13-.04-.24.99-.7 2.62-.5 2.8-.27.2.24-.05 1.87-.97 2.65-.15.12-.28.05-.22-.1.21-.52.68-1.7.46-1.98"/></svg>