<svg width="24" height="24" viewBox="0 0 16 16" fill="currentColor" xmlns="http://www.w3.org/2000/svg"><path d="M11.666 14.2344C13.0835 14.2344 14.2334 13.0835 14.2334 11.666V4.33301C14.2331 2.9157 13.0834 1.76758 11.666 1.76758H4.33301C2.91559 1.76771 1.7666 2.91654 1.7666 4.33398V11.667C1.76687 13.0842 2.91575 14.2342 4.33301 14.2344H11.666ZM4.16309 13.3252C3.32269 13.24 2.66626 12.5298 2.66602 11.667V4.33398L2.6748 4.16406C2.75426 3.37936 3.37843 2.75537 4.16309 2.67578L4.33301 2.66699H11.666L11.8369 2.67578C12.6773 2.7612 13.333 3.47109 13.333 4.33398V11.667C13.3328 12.5297 12.6771 13.2398 11.8369 13.3252L11.666 13.334H4.33301L4.16309 13.3252ZM6.55762 4.69043C6.93243 4.69035 7.23633 4.38655 7.23633 4.01172C7.23622 3.63698 6.93237 3.33309 6.55762 3.33301C6.1828 3.33301 5.87901 3.63693 5.87891 4.01172C5.87891 4.3866 6.18273 4.69043 6.55762 4.69043ZM9.48145 4.69043C9.85617 4.69025 10.1602 4.38649 10.1602 4.01172C10.1601 3.63704 9.85611 3.33319 9.48145 3.33301C9.10663 3.33301 8.80284 3.63693 8.80273 4.01172C8.80273 4.3866 9.10656 4.69043 9.48145 4.69043ZM4.01172 4.41895C4.23665 4.41895 4.41895 4.23665 4.41895 4.01172C4.41882 3.7869 4.23657 3.60449 4.01172 3.60449C3.78701 3.60466 3.60462 3.787 3.60449 4.01172C3.60449 4.23655 3.78693 4.41878 4.01172 4.41895ZM12.0117 4.41895C12.2366 4.41895 12.4189 4.23665 12.4189 4.01172C12.4188 3.78688 12.2366 3.60449 12.0117 3.60449C11.787 3.60466 11.6046 3.78699 11.6045 4.01172C11.6045 4.23655 11.7869 4.41878 12.0117 4.41895ZM6.55762 7.5752C7.00741 7.57511 7.37207 7.21055 7.37207 6.76074C7.37194 6.31105 7.00732 5.94637 6.55762 5.94629C6.10784 5.94629 5.7433 6.311 5.74316 6.76074C5.74316 7.2106 6.10776 7.5752 6.55762 7.5752ZM9.48145 7.5752C9.93115 7.57501 10.2959 7.21049 10.2959 6.76074C10.2958 6.31109 9.93108 5.94647 9.48145 5.94629C9.03165 5.94629 8.6671 6.31097 8.66699 6.76074C8.66699 7.2106 9.03159 7.5752 9.48145 7.5752ZM4.01172 7.43945C4.3866 7.43945 4.69043 7.13562 4.69043 6.76074C4.69032 6.38596 4.38653 6.08203 4.01172 6.08203C3.63704 6.08219 3.33312 6.38606 3.33301 6.76074C3.33301 7.13553 3.63697 7.43929 4.01172 7.43945ZM12.0117 7.43945C12.3866 7.43945 12.6904 7.13562 12.6904 6.76074C12.6903 6.38596 12.3865 6.08203 12.0117 6.08203C11.637 6.08219 11.3331 6.38606 11.333 6.76074C11.333 7.13553 11.637 7.43929 12.0117 7.43945ZM6.55762 10.1211C7.00734 10.121 7.37196 9.75635 7.37207 9.30664C7.37207 8.85683 7.00741 8.49227 6.55762 8.49219C6.10776 8.49219 5.74316 8.85678 5.74316 9.30664C5.74328 9.75641 6.10783 10.1211 6.55762 10.1211ZM9.48145 10.1211C9.93106 10.1209 10.2958 9.75627 10.2959 9.30664C10.2959 8.85689 9.93115 8.49237 9.48145 8.49219C9.03159 8.49219 8.66699 8.85678 8.66699 9.30664C8.66713 9.75638 9.03167 10.1211 9.48145 10.1211ZM4.01172 9.98535C4.38652 9.98535 4.6903 9.68142 4.69043 9.30664C4.69043 8.93176 4.3866 8.62793 4.01172 8.62793C3.63697 8.62809 3.33301 8.93186 3.33301 9.30664C3.33313 9.68132 3.63705 9.98519 4.01172 9.98535ZM12.0117 9.98535C12.3865 9.98535 12.6903 9.68142 12.6904 9.30664C12.6904 8.93176 12.3866 8.62793 12.0117 8.62793C11.637 8.62809 11.333 8.93186 11.333 9.30664C11.3331 9.68132 11.6371 9.98519 12.0117 9.98535ZM6.55762 12.666C6.93243 12.6659 7.23633 12.3621 7.23633 11.9873C7.23612 11.6126 6.9323 11.3087 6.55762 11.3086C6.18286 11.3086 5.87911 11.6126 5.87891 11.9873C5.87891 12.3622 6.18273 12.666 6.55762 12.666ZM9.48145 12.666C9.85617 12.6658 10.1602 12.3621 10.1602 11.9873C10.16 11.6127 9.85605 11.3088 9.48145 11.3086C9.10669 11.3086 8.80294 11.6126 8.80273 11.9873C8.80273 12.3622 9.10656 12.666 9.48145 12.666ZM4.01172 12.3945C4.23665 12.3945 4.41895 12.2122 4.41895 11.9873C4.41872 11.7626 4.23651 11.5801 4.01172 11.5801C3.78707 11.5802 3.60471 11.7627 3.60449 11.9873C3.60449 12.2121 3.78693 12.3944 4.01172 12.3945ZM12.0117 12.3945C12.2366 12.3945 12.4189 12.2122 12.4189 11.9873C12.4187 11.7626 12.2365 11.5801 12.0117 11.5801C11.7871 11.5803 11.6047 11.7627 11.6045 11.9873C11.6045 12.2121 11.787 12.3943 12.0117 12.3945Z" fill="currentColor"/></svg>