<svg width="24" height="24" viewBox="0 0 16 16" fill="currentColor" xmlns="http://www.w3.org/2000/svg"><path d="M13.375 8C13.375 6.74046 12.9415 5.58347 12.2158 4.66699L4.66699 12.2158C5.58347 12.9415 6.74046 13.375 8 13.375C10.9686 13.375 13.375 10.9686 13.375 8ZM2.625 8C2.625 9.25906 3.05802 10.4157 3.7832 11.332L11.332 3.7832C10.4157 3.05802 9.25906 2.625 8 2.625C5.03147 2.625 2.625 5.03147 2.625 8ZM14.625 8C14.625 11.6589 11.6589 14.625 8 14.625C6.17072 14.625 4.51363 13.8827 3.31543 12.6846C2.11723 11.4864 1.375 9.82928 1.375 8C1.375 4.34112 4.34112 1.375 8 1.375C9.82928 1.375 11.4864 2.11723 12.6846 3.31543C13.8827 4.51363 14.625 6.17072 14.625 8Z" fill="currentColor"/></svg>