<svg width="24" height="24" viewBox="0 0 16 16" fill="currentColor" xmlns="http://www.w3.org/2000/svg"><path d="M14 11.375C14.3452 11.375 14.625 11.6548 14.625 12C14.625 12.3452 14.3452 12.625 14 12.625H2C1.65482 12.625 1.375 12.3452 1.375 12C1.375 11.6548 1.65482 11.375 2 11.375H14ZM8.66699 7.375C9.01202 7.37518 9.29199 7.65493 9.29199 8C9.29199 8.34507 9.01202 8.62482 8.66699 8.625H2C1.65482 8.625 1.375 8.34518 1.375 8C1.375 7.65482 1.65482 7.375 2 7.375H8.66699ZM14 3.375C14.3452 3.375 14.625 3.65482 14.625 4C14.625 4.34518 14.3452 4.625 14 4.625H2C1.65482 4.625 1.375 4.34518 1.375 4C1.375 3.65482 1.65482 3.375 2 3.375H14Z" fill="currentColor"/></svg>