<svg width="24" height="24" viewBox="0 0 16 16" fill="currentColor" xmlns="http://www.w3.org/2000/svg"><path d="M8 3.23828C8.5259 3.23828 8.95201 2.812 8.95215 2.28613C8.95215 1.76015 8.52598 1.33301 8 1.33301C7.47407 1.33307 7.04785 1.76018 7.04785 2.28613C7.04799 2.81196 7.47415 3.23822 8 3.23828ZM3.61914 5.23828C4.14498 5.23821 4.57115 4.81195 4.57129 4.28613C4.57129 3.76019 4.14506 3.33308 3.61914 3.33301C3.09316 3.33301 2.66699 3.76015 2.66699 4.28613C2.66713 4.812 3.09324 5.23828 3.61914 5.23828ZM12.2861 5.23828C12.8119 5.23808 13.2381 4.81187 13.2383 4.28613C13.2383 3.76027 12.8119 3.33321 12.2861 3.33301C11.7601 3.33301 11.333 3.76015 11.333 4.28613C11.3331 4.812 11.7602 5.23828 12.2861 5.23828ZM8 11.8838C10.1445 11.8836 11.8838 10.1446 11.8838 8C11.8836 5.85557 10.1444 4.11739 8 4.11719C5.85555 4.11736 4.11736 5.85555 4.11719 8C4.11719 10.1446 5.85544 11.8836 8 11.8838ZM8 10.7832C6.46296 10.783 5.2168 9.53708 5.2168 8C5.21697 6.46307 6.46307 5.21697 8 5.2168C9.53692 5.21699 10.783 6.46308 10.7832 8C10.7832 9.53707 9.53702 10.783 8 10.7832ZM2.28613 9.23828C2.81186 9.23808 3.23814 8.81187 3.23828 8.28613C3.23828 7.76027 2.81194 7.33321 2.28613 7.33301C1.76015 7.33301 1.33301 7.76015 1.33301 8.28613C1.33315 8.812 1.76023 9.23828 2.28613 9.23828ZM13.7139 9.23828C14.2398 9.23828 14.6669 8.812 14.667 8.28613C14.667 7.76015 14.2399 7.33301 13.7139 7.33301C13.188 7.3332 12.7617 7.76027 12.7617 8.28613C12.7619 8.81188 13.1881 9.23809 13.7139 9.23828ZM3.61914 12.7617C4.14506 12.7616 4.57129 12.3355 4.57129 11.8096C4.57116 11.2837 4.14499 10.8575 3.61914 10.8574C3.09323 10.8574 2.66712 11.2837 2.66699 11.8096C2.66699 12.3356 3.09316 12.7617 3.61914 12.7617ZM12.2861 12.7617C12.8119 12.7615 13.2383 12.3354 13.2383 11.8096C13.2382 11.2838 12.8119 10.8576 12.2861 10.8574C11.7602 10.8574 11.3331 11.2837 11.333 11.8096C11.333 12.3356 11.7601 12.7617 12.2861 12.7617ZM8 14.667C8.5259 14.667 8.95201 14.2407 8.95215 13.7148C8.95215 13.1889 8.52598 12.7617 8 12.7617C7.47407 12.7618 7.04785 13.1889 7.04785 13.7148C7.04799 14.2407 7.47415 14.6669 8 14.667Z" fill="currentColor"/></svg>