<svg width="24" height="24" viewBox="0 0 16 16" fill="currentColor" xmlns="http://www.w3.org/2000/svg"><path d="M8.66699 2.0415C10.4848 2.04168 11.958 3.51566 11.958 5.3335C11.9579 6.29626 11.5437 7.16141 10.8848 7.76318C11.9204 8.31784 12.625 9.41068 12.625 10.6675C12.6246 12.485 11.1506 13.9585 9.33301 13.9585H6C4.55042 13.9585 3.37526 12.7831 3.375 11.3335V4.6665C3.375 3.21676 4.55026 2.0415 6 2.0415H8.66699ZM4.625 11.3335C4.62526 12.0927 5.24077 12.7085 6 12.7085H9.33301C10.4603 12.7085 11.3746 11.7947 11.375 10.6675C11.375 9.53992 10.4606 8.62549 9.33301 8.62549L8.04199 8.62451H6C5.49508 8.62451 5.02528 8.479 4.625 8.23193V11.3335ZM6 3.2915C5.24061 3.2915 4.625 3.90712 4.625 4.6665V5.99951C4.625 6.75893 5.2406 7.37451 6 7.37451H8.66699C9.79429 7.37434 10.7078 6.46079 10.708 5.3335C10.708 4.20603 9.7944 3.29168 8.66699 3.2915H6Z" fill="currentColor"/></svg>