<svg width="24" height="24" viewBox="0 0 16 16" fill="currentColor" xmlns="http://www.w3.org/2000/svg"><path d="M13.375 8C13.375 5.03147 10.9686 2.625 8 2.625C5.03147 2.625 2.625 5.03147 2.625 8C2.625 10.9686 5.03147 13.375 8 13.375C10.9686 13.375 13.375 10.9686 13.375 8ZM7.375 11.667V11.2168C6.83464 11.0871 6.35761 10.7919 6.0498 10.3662C5.84756 10.0865 5.91071 9.69541 6.19043 9.49316C6.47008 9.29128 6.86031 9.35432 7.0625 9.63379C7.21628 9.84647 7.55302 10.042 8 10.042H8.12207C8.76717 10.0418 9.04194 9.64519 9.04199 9.43066C9.04199 9.27812 8.92747 9.04424 8.58008 8.90527L6.95508 8.25488C6.25569 7.97498 5.70801 7.35304 5.70801 6.56934V6.51855C5.70801 5.55637 6.50218 4.91502 7.375 4.75098V4.33301C7.37518 3.98798 7.65493 3.70801 8 3.70801C8.34507 3.70801 8.62482 3.98798 8.625 4.33301V4.78223C9.16545 4.91188 9.64236 5.20801 9.9502 5.63379C10.1524 5.91352 10.0893 6.3046 9.80957 6.50684C9.52992 6.70873 9.13969 6.64568 8.9375 6.36621C8.78375 6.15355 8.44698 5.95801 8 5.95801H7.81445C7.20434 5.95815 6.95801 6.33214 6.95801 6.51855V6.56934C6.95801 6.72189 7.07253 6.95576 7.41992 7.09473L9.04492 7.74512C9.74429 8.02502 10.292 8.64695 10.292 9.43066C10.292 10.3989 9.50607 11.0524 8.625 11.2363V11.667C8.62482 12.012 8.34507 12.292 8 12.292C7.65493 12.292 7.37518 12.012 7.375 11.667ZM14.625 8C14.625 11.6589 11.6589 14.625 8 14.625C4.34112 14.625 1.375 11.6589 1.375 8C1.375 4.34112 4.34112 1.375 8 1.375C11.6589 1.375 14.625 4.34112 14.625 8Z" fill="currentColor"/></svg>