<svg width="24" height="24" viewBox="0 0 16 16" fill="currentColor" xmlns="http://www.w3.org/2000/svg"><path d="M13.3335 3.2168C13.637 3.21662 13.8831 2.97047 13.8833 2.66699C13.8833 2.36334 13.6371 2.11736 13.3335 2.11719H2.6665C2.36275 2.11719 2.1167 2.36324 2.1167 2.66699C2.1169 2.97058 2.36287 3.2168 2.6665 3.2168H13.3335ZM12.6665 8.5498C13.3385 8.5498 13.8833 8.00495 13.8833 7.33301V6C13.8833 5.32805 13.3384 4.7832 12.6665 4.7832H3.3335C2.66155 4.7832 2.1167 5.32805 2.1167 6V7.33301C2.1167 8.00496 2.66155 8.5498 3.3335 8.5498H12.6665ZM3.3335 7.4502C3.26906 7.4502 3.21631 7.39744 3.21631 7.33301V6C3.21631 5.93557 3.26906 5.88379 3.3335 5.88379H12.6665C12.7309 5.88379 12.7827 5.93557 12.7827 6V7.33301C12.7827 7.39744 12.7309 7.4502 12.6665 7.4502H3.3335ZM12.6665 14.5498C13.3385 14.5498 13.8833 14.005 13.8833 13.333V11.333C13.8831 10.6612 13.3383 10.1162 12.6665 10.1162H3.3335C2.66166 10.1162 2.11688 10.6612 2.1167 11.333V13.333C2.1167 14.005 2.66155 14.5498 3.3335 14.5498H12.6665ZM3.3335 13.4502C3.26906 13.4502 3.21631 13.3974 3.21631 13.333V11.333C3.21648 11.2687 3.26917 11.2168 3.3335 11.2168H12.6665C12.7308 11.2168 12.7825 11.2687 12.7827 11.333V13.333C12.7827 13.3974 12.7309 13.4502 12.6665 13.4502H3.3335Z" fill="currentColor"/></svg>