<svg width="24" height="24" viewBox="0 0 16 16" fill="currentColor" xmlns="http://www.w3.org/2000/svg"><path d="M2.70801 11.3336V9.33362C2.70801 8.9424 2.39121 8.62463 2 8.62463C1.65482 8.62463 1.375 8.34481 1.375 7.99963C1.37518 7.65461 1.65493 7.37463 2 7.37463C2.39121 7.37463 2.70801 7.05784 2.70801 6.66663V4.66663C2.70801 3.21699 3.88341 2.0418 5.33301 2.04163C5.67819 2.04163 5.95801 2.32145 5.95801 2.66663C5.95801 3.0118 5.67819 3.29163 5.33301 3.29163C4.57377 3.2918 3.95801 3.90735 3.95801 4.66663V6.66663C3.95801 7.18254 3.75671 7.64985 3.43066 7.99963C3.7569 8.34945 3.95801 8.81754 3.95801 9.33362V11.3336C3.95818 12.0928 4.57387 12.7084 5.33301 12.7086C5.67819 12.7086 5.95801 12.9884 5.95801 13.3336C5.95783 13.6786 5.67808 13.9586 5.33301 13.9586C3.88353 13.9584 2.70818 12.7831 2.70801 11.3336ZM12.042 11.3336V9.33362C12.042 8.81778 12.2424 8.3494 12.5684 7.99963C12.2426 7.6499 12.042 7.1823 12.042 6.66663V4.66663C12.042 3.90734 11.4263 3.2918 10.667 3.29163C10.3218 3.29163 10.042 3.0118 10.042 2.66663C10.042 2.32145 10.3218 2.04163 10.667 2.04163C12.1166 2.0418 13.292 3.217 13.292 4.66663V6.66663C13.292 7.05785 13.6088 7.37463 14 7.37463C14.3451 7.37463 14.6248 7.65461 14.625 7.99963C14.625 8.34481 14.3452 8.62463 14 8.62463C13.6088 8.62463 13.292 8.9424 13.292 9.33362V11.3336C13.2918 12.7831 12.1165 13.9584 10.667 13.9586C10.3219 13.9586 10.0422 13.6786 10.042 13.3336C10.042 12.9884 10.3218 12.7086 10.667 12.7086C11.4262 12.7084 12.0418 12.0928 12.042 11.3336Z" fill="currentColor"/></svg>