<svg width="24" height="24" viewBox="0 0 16 16" fill="currentColor" xmlns="http://www.w3.org/2000/svg"><path d="M9.33301 1.375C10.7284 1.375 11.9171 2.24403 12.3965 3.46875C13.6771 3.79415 14.6249 4.95126 14.625 6.33301C14.625 6.95109 14.4345 7.52543 14.1104 8C14.4345 8.47457 14.625 9.04891 14.625 9.66699C14.6249 10.7971 13.99 11.7755 13.0605 12.2734C12.545 13.6466 11.2213 14.6249 9.66699 14.625C9.06635 14.625 8.49965 14.4761 8 14.2168C7.50035 14.4761 6.93362 14.625 6.33301 14.625C4.77854 14.6249 3.45392 13.6468 2.93848 12.2734C2.00942 11.7753 1.37512 10.7967 1.375 9.66699C1.375 9.0489 1.56551 8.47456 1.88965 8C1.56551 7.52544 1.375 6.9511 1.375 6.33301C1.37515 4.9516 2.32235 3.79448 3.60254 3.46875C4.08182 2.24385 5.27145 1.375 6.66699 1.375C7.14089 1.37505 7.59185 1.4771 8 1.6582C8.40815 1.4771 8.85911 1.37505 9.33301 1.375ZM6.66699 2.625C5.7128 2.625 4.90959 3.28012 4.68652 4.16602C4.62265 4.41973 4.40759 4.60675 4.14746 4.63477C3.2918 4.72695 2.62516 5.45261 2.625 6.33301C2.625 6.81112 2.82051 7.24288 3.1377 7.55371C3.25765 7.67126 3.3252 7.83205 3.3252 8C3.3252 8.16795 3.25765 8.32874 3.1377 8.44629C2.82051 8.75712 2.625 9.18888 2.625 9.66699C2.62513 10.38 3.06227 10.9924 3.68555 11.248C3.8626 11.3206 3.99714 11.4703 4.0498 11.6543C4.33397 12.6481 5.24931 13.3749 6.33301 13.375C6.70765 13.375 7.06063 13.2876 7.375 13.1338V11.333C7.3748 10.5738 6.7593 9.95801 6 9.95801C5.65482 9.95801 5.375 9.67819 5.375 9.33301C5.3752 8.988 5.65494 8.70801 6 8.70801C6.50468 8.70801 6.97486 8.85278 7.375 9.09961V2.75195C7.15471 2.67059 6.91658 2.62504 6.66699 2.625ZM9.33301 2.625C9.08342 2.62504 8.84529 2.67059 8.625 2.75195V4.66699L8.63184 4.80762C8.70242 5.50079 9.28818 6.04199 10 6.04199C10.3452 6.04199 10.625 6.32181 10.625 6.66699C10.6248 7.012 10.3451 7.29199 10 7.29199C9.49514 7.29199 9.02524 7.14641 8.625 6.89941V13.1338C8.9394 13.2876 9.29237 13.375 9.66699 13.375C10.7507 13.3749 11.666 12.6481 11.9502 11.6543C12.0029 11.4703 12.1374 11.3206 12.3145 11.248C12.9377 10.9924 13.3749 10.38 13.375 9.66699C13.375 9.18887 13.1795 8.75711 12.8623 8.44629C12.7424 8.32874 12.6748 8.16795 12.6748 8C12.6748 7.83205 12.7424 7.67126 12.8623 7.55371C13.1795 7.24289 13.375 6.81113 13.375 6.33301C13.3748 5.4526 12.7082 4.72694 11.8525 4.63477C11.5924 4.60674 11.3774 4.41972 11.3135 4.16602C11.0904 3.28012 10.2872 2.625 9.33301 2.625Z" fill="currentColor"/></svg>