<svg width="24" height="24" viewBox="0 0 16 16" fill="currentColor" xmlns="http://www.w3.org/2000/svg"><path d="M11.666 2.04163C12.7475 2.04163 13.6248 2.91823 13.625 3.99963C13.625 4.86257 13.0662 5.59404 12.291 5.8551V6.00061C12.2907 7.45013 11.1156 8.62561 9.66602 8.62561H6.33301C5.57372 8.62574 4.95801 9.24128 4.95801 10.0006V10.1451C5.73294 10.4061 6.29185 11.1369 6.29199 11.9996C6.29199 13.0812 5.41457 13.9586 4.33301 13.9586C3.2516 13.9584 2.375 13.0811 2.375 11.9996C2.37514 11.1371 2.93343 10.4062 3.70801 10.1451V5.85413C2.93348 5.59281 2.375 4.86225 2.375 3.99963C2.37518 2.91833 3.25171 2.0418 4.33301 2.04163C5.41446 2.04163 6.29182 2.91823 6.29199 3.99963C6.29199 4.86238 5.73289 5.59291 4.95801 5.85413V7.76721C5.35819 7.52025 5.82824 7.37566 6.33301 7.37561H9.66602C10.4252 7.37561 11.0407 6.75977 11.041 6.00061V5.85413C10.2666 5.59274 9.70801 4.86217 9.70801 3.99963C9.70818 2.91842 10.5848 2.04193 11.666 2.04163ZM4.33301 11.2916C3.94206 11.2918 3.62518 11.6087 3.625 11.9996C3.625 12.3907 3.94196 12.7084 4.33301 12.7086C4.72421 12.7086 5.04199 12.3908 5.04199 11.9996C5.04182 11.6086 4.7241 11.2916 4.33301 11.2916ZM4.33301 3.29163C3.94206 3.2918 3.62518 3.60869 3.625 3.99963C3.625 4.39073 3.94196 4.70844 4.33301 4.70862C4.72421 4.70862 5.04199 4.39084 5.04199 3.99963C5.04182 3.60858 4.7241 3.29163 4.33301 3.29163ZM11.666 3.29163C11.2752 3.29193 10.9582 3.60877 10.958 3.99963C10.958 4.39065 11.2751 4.70831 11.666 4.70862C12.0572 4.70862 12.375 4.39084 12.375 3.99963C12.3748 3.60858 12.0571 3.29163 11.666 3.29163Z" fill="currentColor"/></svg>