<svg width="24" height="24" viewBox="0 0 16 16" fill="currentColor" xmlns="http://www.w3.org/2000/svg"><path d="M8 1.375C11.6589 1.375 14.625 4.34112 14.625 8C14.625 11.6589 11.6589 14.625 8 14.625C4.34112 14.625 1.375 11.6589 1.375 8C1.375 4.34112 4.34112 1.375 8 1.375ZM8 2.625C5.03147 2.625 2.625 5.03147 2.625 8C2.625 10.9686 5.03147 13.375 8 13.375C10.9686 13.375 13.375 10.9686 13.375 8C13.375 5.03147 10.9686 2.625 8 2.625ZM9.60547 5.2168C10.3207 5.02175 10.9771 5.67818 10.7822 6.39355L10.0361 9.12988C9.93085 9.51575 9.65396 9.82775 9.29102 9.98047L9.12988 10.0361L6.39355 10.7822C5.67818 10.9771 5.02175 10.3207 5.2168 9.60547L5.96289 6.86914C6.08329 6.42823 6.42823 6.08329 6.86914 5.96289L9.60547 5.2168ZM7.19824 7.16895C7.18423 7.17287 7.17287 7.18423 7.16895 7.19824L6.55664 9.44141L8.80078 8.83008C8.81506 8.82618 8.82618 8.81506 8.83008 8.80078L9.44141 6.55664L7.19824 7.16895Z" fill="currentColor"/></svg>