<svg width="24" height="24" viewBox="0 0 16 16" fill="currentColor" xmlns="http://www.w3.org/2000/svg"><path d="M4 9.375C5.08133 9.37513 5.95881 10.2517 5.95898 11.333C5.95898 12.4145 5.08144 13.2919 4 13.292C2.9186 13.2918 2.04199 12.4145 2.04199 11.333C2.04217 10.2517 2.91871 9.37518 4 9.375ZM4 10.625C3.60905 10.6252 3.29217 10.942 3.29199 11.333C3.29199 11.7241 3.60894 12.0418 4 12.042C4.3911 12.0419 4.70898 11.7241 4.70898 11.333C4.70881 10.942 4.39099 10.6251 4 10.625ZM13.334 10.709C13.6789 10.7093 13.959 10.989 13.959 11.334C13.9587 11.6787 13.6787 11.9587 13.334 11.959H8.66699C8.32198 11.959 8.04226 11.6789 8.04199 11.334C8.04199 10.9888 8.32181 10.709 8.66699 10.709H13.334ZM4 2.70801C5.08134 2.70814 5.95881 3.58567 5.95898 4.66699C5.95872 5.74824 5.08128 6.62584 4 6.62598C2.91875 6.6258 2.04226 5.74822 2.04199 4.66699C2.04217 3.58569 2.9187 2.70818 4 2.70801ZM4 3.95898C3.60906 3.95916 3.29217 4.27605 3.29199 4.66699C3.29226 5.05786 3.60911 5.3758 4 5.37598C4.39093 5.37584 4.70872 5.05789 4.70898 4.66699C4.70881 4.27602 4.39098 3.95912 4 3.95898ZM13.334 4.04199C13.6789 4.0423 13.959 4.322 13.959 4.66699C13.9587 5.01176 13.6787 5.29168 13.334 5.29199H8.66699C8.32198 5.29199 8.04226 5.01195 8.04199 4.66699C8.04199 4.32181 8.32181 4.04199 8.66699 4.04199H13.334Z" fill="currentColor"/></svg>