<svg width="24" height="24" viewBox="0 0 28 28" fill="none" xmlns="http://www.w3.org/2000/svg"><path fill="#51BDEA" d="M0 0H28V28H0z"/><path fill-rule="evenodd" clip-rule="evenodd" d="M15.0085 4.57728C14.3897 4.22001 13.6273 4.22001 13.0085 4.57728L6.05225 8.59346C5.43344 8.95073 5.05225 9.61098 5.05225 10.3255V18.3579C5.05225 19.0724 5.43344 19.7327 6.05225 20.0899L13.0085 24.1061C13.6273 24.4634 14.3897 24.4634 15.0085 24.1061L21.9647 20.0899C22.5835 19.7327 22.9647 19.0724 22.9647 18.3579V10.3255C22.9647 9.61098 22.5835 8.95073 21.9647 8.59346L15.0085 4.57728ZM14.2272 8.80108C13.4808 8.78564 12.7387 8.91933 12.0446 9.19432C11.3504 9.46931 10.7181 9.88008 10.1847 10.4025C9.65134 10.925 9.22759 11.5487 8.9383 12.237C8.64901 12.9253 8.5 13.6644 8.5 14.4111C8.5 15.1577 8.64901 15.8968 8.9383 16.5852C9.22759 17.2735 9.65134 17.8971 10.1847 18.4196C10.7181 18.9421 11.3504 19.3528 12.0446 19.6278C12.7387 19.9028 13.4808 20.0365 14.2272 20.0211C15.695 19.9907 17.0924 19.3863 18.1197 18.3376C18.4616 17.9886 18.7533 17.5997 18.9905 17.1819L16.6568 15.8376C16.536 16.0437 16.3891 16.234 16.2195 16.4037C15.9579 16.6654 15.6473 16.8729 15.3055 17.0145C14.9636 17.1561 14.5972 17.2288 14.2272 17.2287C13.8571 17.229 13.4906 17.1563 13.1486 17.0148C12.8066 16.8734 12.4959 16.6658 12.2342 16.4041C11.9725 16.1424 11.765 15.8317 11.6235 15.4897C11.482 15.1477 11.4093 14.7812 11.4096 14.4111C11.4095 14.0411 11.4823 13.6747 11.6238 13.3328C11.7654 12.991 11.9729 12.6804 12.2346 12.4188C12.4963 12.1572 12.807 11.9498 13.1489 11.8084C13.4908 11.667 13.8572 11.5944 14.2272 11.5947C14.5971 11.5945 14.9634 11.6673 15.3052 11.8087C15.647 11.9502 15.9575 12.1577 16.2191 12.4192C16.3889 12.5891 16.5359 12.7795 16.6569 12.9858L18.9916 11.6421C18.7542 11.2236 18.4621 10.8341 18.1197 10.4846C17.0924 9.43583 15.695 8.83144 14.2272 8.80108Z" fill="#0E2F4E"/></svg>