<svg width="24" height="24" viewBox="0 0 16 16" fill="currentColor" xmlns="http://www.w3.org/2000/svg"><path d="M10.667 1.375C11.0121 1.37513 11.292 1.6549 11.292 2V2.70801H11.334C12.7834 2.70832 13.9589 3.88357 13.959 5.33301V11.333C13.959 12.7826 12.7835 13.9577 11.334 13.958H4.66699C3.21725 13.958 2.04199 12.7828 2.04199 11.333V5.33301C2.04212 3.88338 3.21733 2.70801 4.66699 2.70801H4.70801V2C4.70801 1.6549 4.98794 1.37513 5.33301 1.375C5.67819 1.375 5.95801 1.65482 5.95801 2V2.70801H10.042V2C10.042 1.65482 10.3218 1.375 10.667 1.375ZM3.29199 11.333C3.29199 12.0924 3.9076 12.708 4.66699 12.708H11.334C12.0931 12.7077 12.709 12.0922 12.709 11.333V7.29199H3.29199V11.333ZM4.66699 3.95801C3.90768 3.95801 3.29212 4.57373 3.29199 5.33301V6.04199H12.709V5.33301C12.7089 4.57391 12.0931 3.95832 11.334 3.95801H4.66699Z" fill="currentColor"/></svg>