<svg width="24" height="24" viewBox="0 0 16 16" fill="currentColor" xmlns="http://www.w3.org/2000/svg"><path d="M8.59668 2.04199C9.4742 2.04213 10.2935 2.4808 10.7803 3.21094L10.9395 3.4502C11.186 3.81989 11.6015 4.04199 12.0459 4.04199C13.4702 4.04201 14.625 5.1967 14.625 6.62109V11.334C14.6247 12.7835 13.4496 13.959 12 13.959H4C2.55045 13.959 1.37531 12.7835 1.375 11.334V6.62109C1.37504 5.19671 2.52972 4.04203 3.9541 4.04199C4.39844 4.04199 4.81402 3.81987 5.06055 3.4502L5.21973 3.21094C5.70651 2.4808 6.5258 2.04213 7.40332 2.04199H8.59668ZM7.40332 3.29199C6.94373 3.29213 6.51471 3.52192 6.25977 3.9043L6.10059 4.14355C5.62222 4.86097 4.81639 5.29199 3.9541 5.29199C3.22007 5.29203 2.62504 5.88706 2.625 6.62109V11.334C2.62531 12.0931 3.24079 12.709 4 12.709H12C12.7592 12.709 13.3747 12.0931 13.375 11.334V6.62109C13.375 5.88706 12.7799 5.29201 12.0459 5.29199C11.1836 5.29199 10.3778 4.86095 9.89941 4.14355L9.74023 3.9043C9.48529 3.52192 9.05627 3.29213 8.59668 3.29199H7.40332ZM8 6.04199C9.44978 6.04199 10.625 7.21721 10.625 8.66699C10.6249 10.1167 9.4497 11.292 8 11.292C6.5503 11.292 5.37513 10.1167 5.375 8.66699C5.375 7.21721 6.55022 6.04199 8 6.04199ZM8 7.29199C7.24058 7.29199 6.625 7.90757 6.625 8.66699C6.62513 9.4263 7.24066 10.042 8 10.042C8.75934 10.042 9.37487 9.4263 9.375 8.66699C9.375 7.90757 8.75942 7.29199 8 7.29199Z" fill="currentColor"/></svg>