<svg width="24" height="24" viewBox="0 0 16 16" fill="currentColor" xmlns="http://www.w3.org/2000/svg"><path d="M12.001 2.04199C13.4507 2.04199 14.626 3.21724 14.626 4.66699V10C14.6258 11.4496 13.4506 12.625 12.001 12.625H8.17383L4.98926 14.5361C4.79623 14.6518 4.5552 14.6548 4.35938 14.5439C4.16377 14.433 4.0431 14.2249 4.04297 14V12.625H4.00098C2.55147 12.6249 1.37617 11.4495 1.37598 10V4.66699C1.37598 3.21733 2.55134 2.04212 4.00098 2.04199H12.001ZM4.00098 3.29199C3.2417 3.29212 2.62598 3.90768 2.62598 4.66699V10C2.62617 10.7592 3.24182 11.3749 4.00098 11.375H4.66797C5.01289 11.3752 5.29279 11.6551 5.29297 12V12.8965L7.67969 11.4648L7.75488 11.4258C7.8323 11.3926 7.91617 11.375 8.00098 11.375H12.001C12.7602 11.375 13.3758 10.7592 13.376 10V4.66699C13.376 3.90761 12.7603 3.29199 12.001 3.29199H4.00098ZM6.22461 5.35742C6.46856 5.11373 6.86436 5.11387 7.1084 5.35742C7.35241 5.60144 7.35229 5.99809 7.1084 6.24219L5.91406 7.4375H5.91309C5.89735 7.45373 5.89714 7.47999 5.91309 7.49609H5.91406L7.1084 8.69141C7.35241 8.93542 7.35229 9.3311 7.1084 9.5752C6.8643 9.819 6.4686 9.81918 6.22461 9.5752L5.0293 8.37988C4.52504 7.87546 4.52492 7.05709 5.0293 6.55273L6.22461 5.35742ZM8.8916 5.35742C9.13562 5.11384 9.53142 5.11376 9.77539 5.35742L10.9707 6.55273C11.4751 7.05708 11.4749 7.87546 10.9707 8.37988L9.77539 9.5752C9.53132 9.81914 9.13565 9.81919 8.8916 9.5752C8.64757 9.33115 8.64764 8.93549 8.8916 8.69141L10.0869 7.49609C10.1029 7.47991 10.1028 7.45371 10.0869 7.4375L8.8916 6.24219C8.64753 5.99811 8.64753 5.6015 8.8916 5.35742Z" fill="currentColor"/></svg>