<svg width="24" height="24" viewBox="0 0 16 16" fill="currentColor" xmlns="http://www.w3.org/2000/svg"><path d="M7.99976 2.04199C10.0361 2.04199 11.7761 2.56795 13.0183 3.60352C14.274 4.65044 14.9587 6.16695 14.9587 8C14.9587 9.83314 14.2741 11.3505 13.0183 12.3975C11.7761 13.4329 10.0359 13.959 7.99976 13.959C6.91584 13.959 5.70019 13.8565 4.60913 13.3779C4.4233 13.4829 4.16225 13.6135 3.85034 13.7217C3.2215 13.9398 2.31002 14.0926 1.39917 13.6611C1.22923 13.5806 1.10415 13.4277 1.05933 13.2451C1.01463 13.0624 1.05511 12.8687 1.1687 12.7188C1.6313 12.1086 1.77888 11.6323 1.82007 11.3242C1.86114 11.0164 1.79999 10.842 1.79565 10.8301C1.79537 10.8294 1.79511 10.8282 1.79468 10.8271C1.79341 10.8241 1.79202 10.8206 1.78979 10.8154C1.78769 10.8105 1.78408 10.8032 1.78101 10.7959V10.7949C1.7302 10.6731 1.55006 10.2318 1.38159 9.70605C1.21954 9.20025 1.0418 8.53717 1.04175 8C1.04183 6.16696 1.72648 4.65043 2.98218 3.60352C4.22429 2.56811 5.96366 2.04205 7.99976 2.04199ZM7.99976 3.29199C6.16593 3.29205 4.73879 3.7658 3.78198 4.56348C2.83893 5.34977 2.29183 6.50016 2.29175 8C2.29181 8.32561 2.41235 8.82685 2.57202 9.3252C2.72514 9.80302 2.89009 10.2074 2.93433 10.3135L2.96948 10.3994V10.4004C3.07886 10.6991 3.26023 11.5327 2.66577 12.6846C2.93225 12.682 3.19637 12.6259 3.44116 12.541C3.6708 12.4613 3.86614 12.3634 4.00366 12.2852C4.07184 12.2463 4.12512 12.2126 4.15894 12.1904C4.17546 12.1796 4.18716 12.1708 4.19409 12.166C4.19663 12.1642 4.19881 12.1629 4.19995 12.1621C4.39249 12.0214 4.64898 12.0033 4.86011 12.1143C5.75647 12.5852 6.86158 12.709 7.99976 12.709C9.83366 12.709 11.2607 12.2342 12.2175 11.4365C13.1607 10.6502 13.7087 9.49997 13.7087 8C13.7087 6.50013 13.1606 5.34977 12.2175 4.56348C11.2607 3.76593 9.83354 3.29199 7.99976 3.29199ZM4.99976 7.16699C5.45989 7.16699 5.83356 7.53995 5.83374 8C5.83361 8.46008 5.45992 8.83398 4.99976 8.83398C4.53974 8.83381 4.16688 8.45997 4.16675 8C4.16692 7.54007 4.53977 7.16717 4.99976 7.16699ZM7.99976 7.16699C8.45985 7.16699 8.83356 7.53995 8.83374 8C8.83361 8.46009 8.45988 8.83398 7.99976 8.83398C7.53979 8.83381 7.16688 8.45998 7.16675 8C7.16692 7.54006 7.53981 7.16717 7.99976 7.16699ZM10.9998 7.16699C11.4599 7.16699 11.8336 7.53995 11.8337 8C11.8336 8.46009 11.4599 8.83398 10.9998 8.83398C10.5398 8.83381 10.1669 8.45998 10.1667 8C10.1669 7.54006 10.5398 7.16717 10.9998 7.16699Z" fill="currentColor"/></svg>