<svg width="24" height="24" viewBox="0 0 16 16" fill="currentColor" xmlns="http://www.w3.org/2000/svg"><path d="M13.4075 8C13.4075 5.03147 11.001 2.625 8.03247 2.625C5.06394 2.625 2.65747 5.03147 2.65747 8C2.65747 8.80228 2.83281 9.56195 3.14673 10.2441C3.27815 10.5296 3.31735 10.8695 3.21509 11.1982L2.68384 12.9043C2.59508 13.19 2.86044 13.4592 3.14771 13.375L4.9397 12.8496C5.25595 12.757 5.58045 12.7939 5.85571 12.916L6.10767 13.0205C6.70456 13.2495 7.35325 13.375 8.03247 13.375C11.001 13.375 13.4075 10.9686 13.4075 8ZM14.6575 8C14.6575 11.6589 11.6914 14.625 8.03247 14.625C7.07843 14.625 6.17002 14.4228 5.34888 14.0586C5.31747 14.0447 5.29702 14.0481 5.29126 14.0498L3.49927 14.5752C2.25469 14.9399 1.10501 13.7708 1.49048 12.5322L2.02075 10.8271L2.02271 10.8066C2.02189 10.7965 2.01843 10.7828 2.01099 10.7666C1.62323 9.9239 1.40747 8.98625 1.40747 8C1.40747 4.34112 4.37359 1.375 8.03247 1.375C11.6914 1.375 14.6575 4.34112 14.6575 8Z" fill="currentColor"/><path d="M8.02539 5.25C8.37034 5.25026 8.64941 5.52998 8.64941 5.875V7.40039H10.125C10.4702 7.40039 10.75 7.68021 10.75 8.02539C10.7498 8.3704 10.4701 8.65039 10.125 8.65039H8.64941V10.125C8.64941 10.4702 8.36959 10.75 8.02441 10.75C7.67946 10.7497 7.39941 10.47 7.39941 10.125V8.65039H5.875C5.52994 8.65039 5.2502 8.3704 5.25 8.02539C5.25 7.68021 5.52982 7.40039 5.875 7.40039H7.39941V5.875C7.39941 5.52982 7.68021 5.25 8.02539 5.25Z" fill="currentColor"/></svg>