<svg width="24" height="24" viewBox="0 0 16 16" fill="currentColor" xmlns="http://www.w3.org/2000/svg"><g clip-path="url(#svg_6f128817e3__clip0_12347_24531)" fill="currentColor"><path d="M2.37305 10V6C2.37305 5.6539 2.6539 5.37305 3 5.37305C3.3461 5.37305 3.62695 5.6539 3.62695 6V10C3.62695 10.3461 3.3461 10.627 3 10.627C2.6539 10.627 2.37305 10.3461 2.37305 10Z"/><path d="M12.373 8.66659V7.33325C12.373 6.98715 12.6539 6.7063 13 6.7063C13.3461 6.7063 13.627 6.98715 13.627 7.33325V8.66659C13.627 9.01268 13.3461 9.29354 13 9.29354C12.6539 9.29354 12.373 9.01268 12.373 8.66659Z"/><path d="M9.03979 10.6666V5.33325C9.03979 4.98715 9.32065 4.7063 9.66675 4.7063C10.0128 4.7063 10.2937 4.98715 10.2937 5.33325V10.6666C10.2937 11.0127 10.0128 11.2935 9.66675 11.2935C9.32065 11.2935 9.03979 11.0127 9.03979 10.6666Z"/><path d="M5.7063 13.3334V2.66675C5.7063 2.32065 5.98715 2.03979 6.33325 2.03979C6.67935 2.03979 6.96021 2.32065 6.96021 2.66675V13.3334C6.96021 13.6795 6.67935 13.9604 6.33325 13.9604C5.98715 13.9604 5.7063 13.6795 5.7063 13.3334Z"/></g><defs><clipPath id="svg_6f128817e3__clip0_12347_24531"><path fill="currentColor" d="M0 0H16V16H0z"/></clipPath></defs></svg>