<svg width="24" height="24" viewBox="0 0 16 16" fill="currentColor" xmlns="http://www.w3.org/2000/svg"><path d="M8.03223 1.375C11.6911 1.375 14.6572 4.34112 14.6572 8C14.6572 11.6589 11.6911 14.625 8.03223 14.625C7.07828 14.625 6.1697 14.4227 5.34863 14.0586C5.31734 14.0448 5.29677 14.0481 5.29102 14.0498L3.49902 14.5752C2.25455 14.9397 1.10485 13.7707 1.49023 12.5322L2.02051 10.8271L2.02246 10.8066C2.02165 10.7966 2.01818 10.7828 2.01074 10.7666C1.62301 9.92392 1.40723 8.98621 1.40723 8C1.40723 4.3412 4.37345 1.37513 8.03223 1.375ZM8.02539 5.125C7.61143 5.125 7.27441 5.46053 7.27441 5.875V7.27539H5.875C5.46079 7.27539 5.125 7.61118 5.125 8.02539L5.12891 8.10254C5.16769 8.4803 5.48687 8.77539 5.875 8.77539H7.27441V10.125C7.27441 10.5391 7.61059 10.8747 8.02441 10.875C8.43863 10.875 8.77441 10.5392 8.77441 10.125V8.77539H10.125C10.5392 8.77539 10.8748 8.43931 10.875 8.02539C10.875 7.61118 10.5392 7.27539 10.125 7.27539H8.77441V5.875C8.77441 5.48711 8.48032 5.16776 8.10254 5.12891L8.02539 5.125Z" fill="currentColor"/></svg>