<svg width="24" height="24" viewBox="0 0 16 16" fill="currentColor" xmlns="http://www.w3.org/2000/svg"><path d="M13.375 8C13.375 5.03147 10.9686 2.625 8 2.625C5.03147 2.625 2.625 5.03147 2.625 8C2.625 10.9686 5.03147 13.375 8 13.375C10.9686 13.375 13.375 10.9686 13.375 8ZM9.5166 5.9375C9.73517 5.67058 10.1284 5.63123 10.3955 5.84961C10.6627 6.06819 10.702 6.46234 10.4834 6.72949L7.4834 10.3955C7.37161 10.5321 7.20756 10.6152 7.03125 10.624C6.85489 10.6328 6.68248 10.5672 6.55762 10.4424L5.22461 9.1084C4.98069 8.86431 4.98059 8.46863 5.22461 8.22461C5.46863 7.98059 5.86431 7.98069 6.1084 8.22461L6.9541 9.06934L9.5166 5.9375ZM14.625 8C14.625 11.6589 11.6589 14.625 8 14.625C4.34112 14.625 1.375 11.6589 1.375 8C1.375 4.34112 4.34112 1.375 8 1.375C11.6589 1.375 14.625 4.34112 14.625 8Z" fill="currentColor"/></svg>