<svg width="24" height="24" viewBox="0 0 16 16" fill="currentColor" xmlns="http://www.w3.org/2000/svg"><path d="M9.52271 4.89059C9.27876 4.64705 8.88291 4.64713 8.63892 4.89059C8.39489 5.13463 8.39497 5.53127 8.63892 5.77536L10.5989 7.73434C10.745 7.88062 10.7447 8.11817 10.5989 8.26462L8.63892 10.2246C8.39496 10.4686 8.395 10.8643 8.63892 11.1084C8.88297 11.3523 9.27865 11.3523 9.52271 11.1084L11.4827 9.14841C12.1166 8.51381 12.1169 7.48499 11.4827 6.85056L9.52271 4.89059ZM4.85571 4.89059C4.61173 4.64712 4.21587 4.64706 3.97192 4.89059C3.72794 5.13459 3.7281 5.53127 3.97192 5.77536L5.93188 7.73434C6.07801 7.88066 6.07782 8.11819 5.93188 8.26462L3.97192 10.2246C3.72799 10.4686 3.72813 10.8643 3.97192 11.1084C4.21599 11.3523 4.61167 11.3524 4.85571 11.1084L6.81567 9.14841C7.44977 8.51382 7.44995 7.48503 6.81567 6.85056L4.85571 4.89059Z" fill="currentColor"/></svg>