<svg width="24" height="24" viewBox="0 0 16 16" fill="currentColor" xmlns="http://www.w3.org/2000/svg"><path d="M6.22461 4.89059C6.46856 4.64705 6.86441 4.64713 7.1084 4.89059C7.35243 5.13463 7.35234 5.53127 7.1084 5.77536L5.14844 7.73434C5.00236 7.88062 5.00263 8.11817 5.14844 8.26462L7.1084 10.2246C7.35235 10.4686 7.35231 10.8643 7.1084 11.1084C6.86434 11.3523 6.46867 11.3523 6.22461 11.1084L4.26465 9.14841C3.63068 8.51381 3.63042 7.48499 4.26465 6.85056L6.22461 4.89059ZM10.8916 4.89059C11.1356 4.64712 11.5314 4.64706 11.7754 4.89059C12.0194 5.13459 12.0192 5.53127 11.7754 5.77536L9.81543 7.73434C9.66931 7.88066 9.66949 8.11819 9.81543 8.26462L11.7754 10.2246C12.0193 10.4686 12.0192 10.8643 11.7754 11.1084C11.5313 11.3523 11.1356 11.3524 10.8916 11.1084L8.93164 9.14841C8.29755 8.51382 8.29736 7.48503 8.93164 6.85056L10.8916 4.89059Z" fill="currentColor"/></svg>