<svg width="24" height="24" viewBox="0 0 16 16" fill="currentColor" xmlns="http://www.w3.org/2000/svg"><path d="M11.1094 6.22455C11.353 6.46851 11.3529 6.86434 11.1094 7.10834C10.8653 7.35238 10.4687 7.3523 10.2246 7.10834L8.26562 5.14838C8.11933 5.00228 7.88179 5.00251 7.73535 5.14838L5.77539 7.10834C5.53135 7.3523 5.13566 7.35227 4.8916 7.10834C4.64764 6.86428 4.64763 6.4686 4.8916 6.22455L6.85156 4.26459C7.48616 3.63057 8.51496 3.63034 9.14941 4.26459L11.1094 6.22455ZM11.1094 10.8915C11.3529 11.1356 11.353 11.5314 11.1094 11.7753C10.8654 12.0193 10.4687 12.0191 10.2246 11.7753L8.26562 9.81537C8.11927 9.66921 7.88177 9.66932 7.73535 9.81537L5.77539 11.7753C5.53141 12.0193 5.13569 12.0191 4.8916 11.7753C4.64765 11.5313 4.64761 11.1356 4.8916 10.8915L6.85156 8.93158C7.48614 8.29737 8.5149 8.29726 9.14941 8.93158L11.1094 10.8915Z" fill="currentColor"/></svg>