<svg width="24" height="24" viewBox="0 0 16 16" fill="currentColor" xmlns="http://www.w3.org/2000/svg"><path d="M12.2998 2.79981L13.5 2.79981L13.5 4L12.2998 4L12.2998 2.79981ZM9.10059 2.79981L10.3008 2.79981L10.3008 4L9.10059 4L9.10059 2.79981ZM5.90137 2.79981L7.10156 2.79981L7.10156 4L5.90137 4L5.90137 2.79981ZM2.69824 2.79981L3.89844 2.79981L3.89844 4L2.69824 4L2.69824 2.79981ZM7.57715 12.4248L4.48633 9.33398L5.33496 8.48535L5.75879 8.91016L7.40039 10.5508L7.40039 6L8.59961 6L8.59961 10.5547L10.2441 8.91016L10.668 8.48535L11.5166 9.33399L11.0918 9.75781L8.42578 12.4248L8.00098 12.8496L7.57715 12.4248Z" fill="currentColor"/></svg>