<svg width="24" height="24" viewBox="0 0 16 16" fill="currentColor" xmlns="http://www.w3.org/2000/svg"><path d="M14.4043 8.33301L13.9795 8.75684L12.625 10.1104L13.9795 11.4639L14.4043 11.8887L13.5557 12.7373L13.1309 12.3125L11.7773 10.958L10.4238 12.3125L10 12.7373L9.15137 11.8887L9.57617 11.4639L10.9287 10.1104L9.57617 8.75684L9.15137 8.33301L10 7.48438L10.4238 7.90918L11.7773 9.26172L13.1309 7.90918L13.5557 7.48438L14.4043 8.33301ZM7.93359 12.5996H1.40039V11.4004H7.93359V12.5996ZM7.93359 8.59961H1.40039V7.40039H7.93359V8.59961ZM14.5996 4.59961H1.40039V3.40039H14.5996V4.59961Z" fill="currentColor"/></svg>