<svg width="24" height="24" viewBox="0 0 16 16" fill="currentColor" xmlns="http://www.w3.org/2000/svg"><path fill-rule="evenodd" clip-rule="evenodd" d="M8.00004 14.6666C11.6819 14.6666 14.6667 11.6818 14.6667 7.99992C14.6667 4.31802 11.6819 1.33325 8.00004 1.33325C4.31814 1.33325 1.33337 4.31802 1.33337 7.99992C1.33337 11.6818 4.31814 14.6666 8.00004 14.6666ZM8.66671 5.33325C8.66671 4.96507 8.36824 4.66658 8.00004 4.66658C7.63184 4.66658 7.33337 4.96507 7.33337 5.33325V7.99992C7.33337 8.17672 7.40364 8.34632 7.52864 8.47132L9.19531 10.138C9.45564 10.3983 9.87777 10.3983 10.1381 10.138C10.3984 9.87765 10.3984 9.45552 10.1381 9.19518L8.66671 7.72378V5.33325Z" fill="currentColor"/></svg>