<svg width="24" height="24" viewBox="0 0 16 16" fill="currentColor" xmlns="http://www.w3.org/2000/svg"><path d="M10.2248 4.70231C10.4689 4.45862 10.8646 4.45851 11.1086 4.70231C11.3527 4.94639 11.3527 5.343 11.1086 5.58708L8.88399 7.81071L11.1086 10.0363C11.3525 10.2804 11.3526 10.6761 11.1086 10.9201C10.8646 11.1641 10.4689 11.164 10.2248 10.9201L7.99922 8.69548L5.77559 10.9201C5.53151 11.1642 5.1349 11.1642 4.89082 10.9201C4.64702 10.6761 4.64712 10.2803 4.89082 10.0363L7.11543 7.81071L4.89082 5.58708C4.64674 5.343 4.64674 4.94639 4.89082 4.70231C5.1349 4.45824 5.53151 4.45824 5.77559 4.70231L7.99922 6.92692L10.2248 4.70231Z" fill="currentColor"/></svg>