<svg width="24" height="24" viewBox="0 0 16 16" fill="currentColor" xmlns="http://www.w3.org/2000/svg"><path d="M11.1956 3.86166C11.4559 3.60169 11.8778 3.60158 12.138 3.86166C12.3984 4.12201 12.3984 4.54467 12.138 4.80502L8.9427 7.99935L12.138 11.1956C12.3982 11.456 12.3983 11.8777 12.138 12.138C11.8777 12.3983 11.456 12.3982 11.1956 12.138L7.99934 8.94271L4.805 12.138C4.54465 12.3984 4.12199 12.3984 3.86164 12.138C3.60157 11.8778 3.60167 11.456 3.86164 11.1956L7.05696 7.99935L3.86164 4.80502C3.60129 4.54467 3.60129 4.12201 3.86164 3.86166C4.12199 3.60131 4.54465 3.60131 4.805 3.86166L7.99934 7.05697L11.1956 3.86166Z" fill="currentColor"/></svg>