<svg width="24" height="24" viewBox="0 0 16 16" fill="currentColor" xmlns="http://www.w3.org/2000/svg"><path d="M10.0417 6.93335C10.0417 6.6433 10.0411 6.46323 10.03 6.32788C10.0196 6.19978 10.0029 6.16701 10.0007 6.16284C9.96477 6.09243 9.90713 6.03566 9.83667 5.99976C9.83224 5.9975 9.80004 5.9799 9.67261 5.96948C9.53728 5.95843 9.35719 5.95874 9.06714 5.95874H4.26636C3.97631 5.95874 3.79622 5.95843 3.66089 5.96948C3.53346 5.9799 3.50126 5.9975 3.49683 5.99976C3.42637 6.03566 3.36873 6.09243 3.33277 6.16284C3.33064 6.16701 3.31394 6.19978 3.30347 6.32788C3.29244 6.46323 3.29175 6.6433 3.29175 6.93335V11.7332C3.29175 12.0235 3.29241 12.2042 3.30347 12.3396C3.31394 12.4675 3.33065 12.4995 3.33277 12.5037C3.36872 12.5742 3.42629 12.6318 3.49683 12.6677C3.50218 12.6704 3.53573 12.6868 3.66089 12.697C3.79622 12.7081 3.97629 12.7087 4.26636 12.7087H9.06714C9.35721 12.7087 9.53728 12.7081 9.67261 12.697C9.79777 12.6868 9.83132 12.6704 9.83667 12.6677C9.90721 12.6318 9.96478 12.5742 10.0007 12.5037C10.0029 12.4995 10.0196 12.4675 10.03 12.3396C10.0411 12.2042 10.0417 12.0235 10.0417 11.7332V6.93335ZM11.2917 10.0417H11.7332C12.0235 10.0417 12.2042 10.0411 12.3396 10.03C12.4675 10.0196 12.4995 10.0029 12.5037 10.0007C12.5742 9.96478 12.6318 9.90721 12.6677 9.83667C12.6704 9.83132 12.6868 9.79777 12.697 9.67261C12.7081 9.53728 12.7087 9.35721 12.7087 9.06714V4.26636C12.7087 3.97629 12.7081 3.79622 12.697 3.66089C12.6868 3.53573 12.6704 3.50218 12.6677 3.49683C12.6318 3.42629 12.5742 3.36872 12.5037 3.33277C12.4995 3.33065 12.4675 3.31394 12.3396 3.30347C12.2042 3.29241 12.0235 3.29175 11.7332 3.29175H6.93335C6.6433 3.29175 6.46323 3.29244 6.32788 3.30347C6.19978 3.31394 6.16701 3.33064 6.16284 3.33277C6.09243 3.36873 6.03566 3.42637 5.99976 3.49683C5.9975 3.50126 5.9799 3.53346 5.96948 3.66089C5.95843 3.79622 5.95874 3.97631 5.95874 4.26636V4.70874H9.06714C9.33658 4.70874 9.57621 4.70821 9.77417 4.72437C9.97946 4.74114 10.1944 4.77877 10.4041 4.8855C10.7098 5.04129 10.9592 5.28971 11.115 5.59546C11.2218 5.80508 11.2593 6.02005 11.2761 6.22534C11.2923 6.42343 11.2917 6.66367 11.2917 6.93335V10.0417ZM13.9587 9.06714C13.9587 9.33656 13.9593 9.57622 13.9431 9.77417C13.9263 9.9795 13.8878 10.1944 13.781 10.4041C13.6252 10.7098 13.3768 10.9592 13.071 11.115C12.8614 11.2218 12.6465 11.2593 12.4412 11.2761C12.2431 11.2923 12.0029 11.2917 11.7332 11.2917H11.2917V11.7332C11.2917 12.0029 11.2923 12.2431 11.2761 12.4412C11.2593 12.6465 11.2218 12.8614 11.115 13.071C10.9592 13.3768 10.7098 13.6252 10.4041 13.781C10.1944 13.8878 9.9795 13.9263 9.77417 13.9431C9.57622 13.9593 9.33656 13.9587 9.06714 13.9587H4.26636C3.99694 13.9587 3.75728 13.9593 3.55933 13.9431C3.354 13.9263 3.13912 13.8878 2.92945 13.781C2.62368 13.6252 2.3743 13.3768 2.21851 13.071C2.11173 12.8614 2.07415 12.6465 2.05738 12.4412C2.04119 12.2431 2.04175 12.0029 2.04175 11.7332V6.93335C2.04175 6.66367 2.04119 6.42343 2.05738 6.22534C2.07417 6.02005 2.1117 5.80508 2.21851 5.59546C2.3743 5.28971 2.62369 5.04129 2.92945 4.8855C3.13908 4.77877 3.35404 4.74114 3.55933 4.72437C3.75729 4.70821 3.99692 4.70874 4.26636 4.70874H4.70874V4.26636C4.70874 3.99692 4.70821 3.75729 4.72437 3.55933C4.74114 3.35404 4.77877 3.13908 4.8855 2.92945C5.04129 2.62369 5.28971 2.3743 5.59546 2.21851C5.80508 2.1117 6.02005 2.07417 6.22534 2.05738C6.42343 2.04119 6.66367 2.04175 6.93335 2.04175H11.7332C12.0029 2.04175 12.2431 2.04119 12.4412 2.05738C12.6465 2.07415 12.8614 2.11173 13.071 2.21851C13.3768 2.3743 13.6252 2.62368 13.781 2.92945C13.8878 3.13912 13.9263 3.354 13.9431 3.55933C13.9593 3.75728 13.9587 3.99694 13.9587 4.26636V9.06714Z" fill="currentColor"/><path d="M7.40326 10.9532L6.66715 10.2171L5.93035 10.9539C5.68635 11.1979 5.29056 11.1978 5.04646 10.9539C4.80239 10.7099 4.80239 10.3141 5.04646 10.0701L5.78326 9.33325L5.04646 8.59645C4.80239 8.35237 4.80239 7.95665 5.04646 7.71257C5.29056 7.46872 5.68635 7.46857 5.93035 7.71257L6.66715 8.44937L7.40326 7.71326C7.64733 7.46918 8.04306 7.46918 8.28714 7.71326C8.53099 7.95736 8.53114 8.35314 8.28714 8.59714L7.55103 9.33325L8.28714 10.0694C8.53114 10.3134 8.53099 10.7091 8.28714 10.9532C8.04306 11.1973 7.64733 11.1973 7.40326 10.9532Z" fill="currentColor"/></svg>