<svg width="24" height="24" viewBox="0 0 16 16" fill="currentColor" xmlns="http://www.w3.org/2000/svg"><path d="M7.65625 7.47754C7.89862 7.31787 8.22798 7.34464 8.44141 7.55762L10.1084 9.22461C10.3524 9.46863 10.3523 9.86431 10.1084 10.1084C9.86432 10.3524 9.46867 10.3525 9.22461 10.1084L8.625 9.50879V12.667C8.62482 13.0119 8.34492 13.2918 8 13.292C7.65502 13.2919 7.37518 13.012 7.375 12.667V9.50879L6.77539 10.1084C6.53131 10.3524 6.13469 10.3525 5.89062 10.1084C5.64709 9.86435 5.64692 9.46855 5.89062 9.22461L7.55762 7.55762L7.65625 7.47754ZM8 2.70801C10.3602 2.70817 12.3058 4.47678 12.5879 6.76074C14.125 7.03808 15.2909 8.383 15.291 10C15.2908 11.8177 13.8177 13.2908 12 13.291H10.666C10.3211 13.2907 10.041 13.011 10.041 12.666C10.0413 12.3213 10.3213 12.0413 10.666 12.041H12C13.1273 12.0408 14.0408 11.1273 14.041 10C14.0409 8.87267 13.1273 7.95818 12 7.95801C11.6549 7.95788 11.375 7.6781 11.375 7.33301C11.3749 5.46927 9.86373 3.95818 8 3.95801C6.52218 3.95811 5.26398 4.90869 4.80762 6.2334C4.73069 6.45657 4.53468 6.61771 4.30078 6.64941C2.97854 6.82777 1.95813 7.96182 1.95801 9.33301C1.95801 10.8286 3.17051 12.0407 4.66602 12.041H5.33301C5.678 12.041 5.9577 12.3211 5.95801 12.666C5.95801 13.0112 5.67819 13.291 5.33301 13.291H4.66602C2.48015 13.2907 0.708008 11.5189 0.708008 9.33301C0.708121 7.45807 2.01149 5.88797 3.76172 5.47852C4.47617 3.84826 6.10453 2.70811 8 2.70801Z" fill="currentColor"/></svg>