<svg width="24" height="24" viewBox="0 0 20 20" fill="currentColor" xmlns="http://www.w3.org/2000/svg"><path d="M10 4.72949C11.7273 4.72961 13.2307 5.68276 14.0166 7.09082C13.6064 7.171 13.214 7.29968 12.8467 7.47168C12.2398 6.54333 11.1918 5.92882 10 5.92871C8.51129 5.92889 7.24392 6.8873 6.78418 8.22168L6.66406 8.57129L6.29688 8.62012C4.96254 8.80019 3.93282 9.94535 3.93262 11.3291C3.93262 12.8384 5.15678 14.0621 6.66602 14.0625H10.5146C10.7374 14.5046 11.0269 14.9083 11.3691 15.2627H6.66602C4.49404 15.2623 2.7334 13.5012 2.7334 11.3291C2.73359 9.4622 4.03375 7.89898 5.77832 7.49609C6.48619 5.86835 8.11029 4.72966 10 4.72949Z" fill="currentColor"/><path d="M15.0004 7.90625C17.2624 7.90625 19.0946 9.73839 19.0946 12.0004C19.0944 12.8582 18.8251 13.6944 18.3248 14.3912C17.8245 15.088 17.1182 15.6104 16.3054 15.8848C16.1007 15.9257 16.024 15.7978 16.024 15.6903C16.024 15.5521 16.0291 15.112 16.0291 14.5644C16.0291 14.1806 15.9011 13.9349 15.7527 13.807C16.6637 13.7046 17.6207 13.3566 17.6207 11.7855C17.6207 11.3351 17.462 10.9718 17.201 10.6852C17.242 10.5828 17.3853 10.1632 17.1601 9.60021C17.1601 9.60021 16.8172 9.48762 16.0342 10.0199C15.7067 9.92774 15.3587 9.88168 15.0107 9.88168C14.6626 9.88168 14.3146 9.92774 13.9871 10.0199C13.2041 9.49274 12.8612 9.60021 12.8612 9.60021C12.636 10.1632 12.7793 10.5828 12.8203 10.6852C12.5593 10.9718 12.4006 11.3402 12.4006 11.7855C12.4006 13.3515 13.3525 13.7046 14.2635 13.807C14.1458 13.9093 14.0383 14.0884 14.0025 14.3546C13.767 14.462 13.1785 14.636 12.81 14.0168C12.7333 13.894 12.503 13.592 12.1806 13.5971C11.8377 13.6023 12.0424 13.7916 12.1857 13.8684C12.3597 13.9656 12.5593 14.329 12.6053 14.4467C12.6872 14.677 12.9533 15.1171 13.982 14.9277C13.982 15.2706 13.9871 15.593 13.9871 15.6903C13.9871 15.7978 13.9103 15.9206 13.7056 15.8848C12.8902 15.6133 12.1809 15.092 11.6785 14.3948C11.176 13.6976 10.9058 12.8598 10.9063 12.0004C10.9063 9.73839 12.7384 7.90625 15.0004 7.90625Z" fill="currentColor"/></svg>