<svg width="24" height="24" viewBox="0 0 16 16" fill="currentColor" xmlns="http://www.w3.org/2000/svg"><g clip-path="url(#svg_2b5647815c__svg_51a016bff5__clip0_11073_152)"><path d="M0.706543 9.33325C0.706543 7.45755 2.01038 5.88692 3.76123 5.47713C4.47617 3.84669 6.10425 2.7063 8.00016 2.7063C10.3613 2.7063 12.3077 4.47553 12.59 6.76033C14.1273 7.03841 15.2938 8.3825 15.2938 9.99992C15.2938 11.8187 13.819 13.2935 12.0002 13.2935H4.66683C2.47978 13.2935 0.706543 11.5203 0.706543 9.33325ZM1.96045 9.33325C1.96045 10.8281 3.17198 12.0396 4.66683 12.0396H12.0002C13.1268 12.0396 14.0399 11.1266 14.0399 9.99992C14.0399 8.87328 13.1268 7.9602 12.0002 7.9602C11.6541 7.9602 11.3732 7.67935 11.3732 7.33325C11.3732 5.47021 9.8632 3.9602 8.00016 3.9602C6.52291 3.9602 5.26618 4.91009 4.81006 6.23429C4.73288 6.45821 4.53567 6.61932 4.30094 6.65096C2.97937 6.82915 1.96045 7.96275 1.96045 9.33325Z" fill="currentColor"/></g><defs><clipPath id="svg_2b5647815c__svg_51a016bff5__clip0_11073_152"><path fill="currentColor" d="M0 0H16V16H0z"/></clipPath></defs></svg>