<svg width="24" height="24" viewBox="0 0 12 12" fill="currentColor" xmlns="http://www.w3.org/2000/svg"><path d="M5.4502 1.80957C6.74502 1.80975 7.87036 2.52488 8.45996 3.58008C8.15282 3.64024 7.85905 3.7374 7.58398 3.86621C7.12881 3.17025 6.34378 2.71013 5.4502 2.70996C4.33346 2.70996 3.38287 3.42871 3.03809 4.42969L2.94824 4.69141L2.67285 4.72852C1.67187 4.86347 0.899414 5.72172 0.899414 6.75977C0.899414 7.89179 1.81726 8.80931 2.94922 8.80957H5.83594C6.00308 9.14122 6.21978 9.44415 6.47656 9.70996H2.94922C1.3202 9.7097 1.93276e-07 8.38884 0 6.75977C0 5.35937 0.975542 4.18687 2.28418 3.88477C2.81517 2.66399 4.03287 1.80957 5.4502 1.80957Z" fill="currentColor"/><path d="M8.93 4.02344C10.6265 4.02344 12.0006 5.39754 12.0006 7.09406C12.0005 7.73744 11.7985 8.36456 11.4233 8.88716C11.048 9.40976 10.5183 9.80153 9.90876 10.0073C9.75523 10.038 9.69765 9.94207 9.69765 9.86146C9.69765 9.75783 9.70149 9.42774 9.70149 9.01704C9.70149 8.72917 9.60554 8.54493 9.49423 8.44897C10.1774 8.37221 10.8952 8.11121 10.8952 6.93285C10.8952 6.59509 10.7762 6.32257 10.5805 6.10762C10.6112 6.03086 10.7186 5.71612 10.5498 5.29391C10.5498 5.29391 10.2926 5.20947 9.70533 5.60865C9.45968 5.53956 9.19868 5.50501 8.93768 5.50501C8.67667 5.50501 8.41567 5.53956 8.17002 5.60865C7.58276 5.2133 7.3256 5.29391 7.3256 5.29391C7.15671 5.71612 7.26419 6.03086 7.29489 6.10762C7.09914 6.32257 6.98015 6.59892 6.98015 6.93285C6.98015 8.10737 7.69407 8.37221 8.37729 8.44897C8.28901 8.52574 8.2084 8.66008 8.18153 8.85967C8.00497 8.94027 7.56357 9.07078 7.28722 8.60634C7.22964 8.51423 7.05692 8.28777 6.81511 8.29161C6.55794 8.29544 6.71147 8.43746 6.81895 8.49503C6.94945 8.56796 7.09914 8.84048 7.13368 8.92876C7.1951 9.10148 7.39469 9.43157 8.16618 9.28956C8.16618 9.54672 8.17002 9.78853 8.17002 9.86146C8.17002 9.94207 8.11245 10.0342 7.95891 10.0073C7.34734 9.80375 6.81539 9.41277 6.43853 8.88985C6.06167 8.36694 5.85904 7.73863 5.85938 7.09406C5.85938 5.39754 7.23348 4.02344 8.93 4.02344Z" fill="currentColor"/></svg>