<svg width="24" height="24" viewBox="0 0 16 16" fill="currentColor" xmlns="http://www.w3.org/2000/svg"><path d="M10.2102 9.24023C10.4457 8.98823 10.8408 8.97476 11.093 9.20996C11.345 9.4455 11.3596 9.84152 11.1243 10.0938L8.01294 13.4268C7.89483 13.5533 7.72897 13.6249 7.55591 13.625C7.38282 13.625 7.21706 13.5532 7.09888 13.4268L5.54321 11.7598C5.30803 11.5075 5.32153 11.1124 5.57349 10.877C5.82583 10.6414 6.22176 10.6549 6.45728 10.9072L7.55591 12.084L10.2102 9.24023ZM8.00024 2.70801C10.3605 2.70817 12.3061 4.47677 12.5881 6.76074C14.1253 7.03808 15.2911 8.38299 15.2913 10C15.2911 11.8177 13.8179 13.2908 12.0002 13.291H10.6663C10.3212 13.2908 10.0413 13.0111 10.0413 12.666C10.0416 12.3212 10.3214 12.0412 10.6663 12.041H12.0002C13.1275 12.0408 14.0411 11.1273 14.0413 10C14.0411 8.87266 13.1276 7.95818 12.0002 7.95801C11.6551 7.95801 11.3752 7.67819 11.3752 7.33301C11.3751 5.46927 9.86397 3.95818 8.00024 3.95801C6.52234 3.95801 5.26427 4.90866 4.80786 6.2334C4.73093 6.45656 4.53491 6.6177 4.30103 6.64941C2.97869 6.82768 1.95837 7.96175 1.95825 9.33301C1.95825 10.8287 3.17064 12.0408 4.66626 12.041C5.01125 12.041 5.29095 12.3211 5.29126 12.666C5.29126 13.0112 5.01144 13.291 4.66626 13.291C2.48028 13.2908 0.708252 11.519 0.708252 9.33301C0.708365 7.45801 2.01164 5.88791 3.76196 5.47852C4.47647 3.84823 6.1047 2.70801 8.00024 2.70801Z" fill="currentColor"/></svg>