<svg width="24" height="24" viewBox="0 0 32 32" fill="currentColor" xmlns="http://www.w3.org/2000/svg"><path d="M30.4644 18.5547C30.3656 18.4546 30.3101 18.3196 30.3101 18.1789V15.5166C30.3094 14.8494 30.0482 14.2097 29.5839 13.7379C29.1197 13.2661 28.4903 13.0007 27.8337 12.9999H18.8195C18.1627 13.0003 17.5329 13.2655 17.0683 13.7374C16.6038 14.2092 16.3424 14.8491 16.3416 15.5166V18.1859C16.3416 18.3261 16.2866 18.4606 16.1884 18.5606L15.1453 19.6227C14.9412 19.8305 14.941 20.1634 15.1447 20.3715L16.1889 21.4377C16.2868 21.5377 16.3416 21.672 16.3416 21.8118V24.4831C16.3424 25.1506 16.6038 25.7906 17.0683 26.2624C17.5329 26.7343 18.1627 26.9995 18.8195 26.9999H27.8412C28.4978 26.9991 29.1272 26.7336 29.5915 26.2618C30.0557 25.79 30.3169 25.1504 30.3177 24.4831V21.8126C30.3177 21.6723 30.3728 21.5376 30.4713 21.4375L31.5192 20.3726C31.7242 20.1642 31.7239 19.8298 31.5185 19.6218L30.4644 18.5547ZM21.9738 21.0798C22.1777 21.2879 22.1775 21.621 21.9732 21.8288L21.5693 22.2398C21.3597 22.4532 21.0159 22.4531 20.8063 22.2397L18.9727 20.3719C18.7683 20.1637 18.7685 19.8301 18.9731 19.6222L20.8081 17.7574C21.0176 17.5445 21.3609 17.5445 21.5704 17.7574L21.9737 18.1673C22.1784 18.3753 22.1784 18.709 21.9738 18.9172L21.2805 19.6226C21.0762 19.8304 21.0759 20.1635 21.2799 20.3717L21.9738 21.0798ZM25.7507 22.2401C25.5411 22.4533 25.1975 22.4533 24.9879 22.2401L24.5846 21.8296C24.38 21.6215 24.3801 21.2878 24.5848 21.0798L25.2779 20.3755C25.4823 20.1678 25.4827 19.8346 25.2788 19.6264L24.5846 18.9171C24.3807 18.7089 24.3812 18.3758 24.5856 18.1681L24.9896 17.7574C25.1991 17.5445 25.5424 17.5445 25.7519 17.7574L27.5867 19.622C27.7913 19.83 27.7914 20.1637 27.5869 20.3719L25.7507 22.2401Z" fill="currentColor"/><path d="M6.07923 10.3743C2.59481 11.1898 0 14.3156 0 18.0485C0 22.401 3.52898 25.93 7.88149 25.93H13.9309C14.62 25.93 15.1786 25.3714 15.1786 24.6823C15.1786 23.9932 14.62 23.4345 13.9309 23.4345H7.88149C4.90655 23.4345 2.49544 21.0234 2.49544 18.0485C2.49544 15.321 4.52322 13.065 7.15333 12.7104C7.62047 12.6474 8.01294 12.3268 8.16654 11.8812C9.07429 9.24583 11.5753 7.35542 14.5153 7.35542C17.151 7.35542 19.4316 8.87403 20.5301 11.0841C20.8496 11.727 21.578 12.1239 22.2555 11.8862C22.8733 11.6695 23.222 11.0032 22.9613 10.4027C21.5452 7.14126 18.2976 4.85999 14.5153 4.85999C10.7421 4.85999 7.50206 7.12952 6.07923 10.3743Z" fill="currentColor"/></svg>