<svg width="24" height="24" viewBox="0 0 16 16" fill="none" xmlns="http://www.w3.org/2000/svg"><path d="M14.4975 7.47322C15.1599 7.47352 15.6967 8.01088 15.6967 8.67342V14.273C15.6967 14.9356 15.1599 15.4729 14.4975 15.4732H8.89687C8.23422 15.4731 7.6967 14.9357 7.69668 14.273V8.67342C7.6967 8.01076 8.23423 7.47332 8.89687 7.47322H14.4975ZM9.67324 10.5162L9.24844 10.94L10.0971 11.7887L11.0971 10.7887V14.2066H12.2973V10.7896L12.8725 11.3648L13.2973 11.7887L14.1459 10.94L13.7211 10.5162L12.1215 8.91561L11.6967 8.49178L9.67324 10.5162ZM9.55801 2.89119C10.5384 1.91088 12.1283 1.9109 13.1088 2.89119C14.089 3.87163 14.0891 5.46158 13.1088 6.44197C12.8647 6.68582 12.468 6.68598 12.224 6.44197C11.9804 6.19808 11.9806 5.80223 12.224 5.55818C12.7163 5.06588 12.7163 4.26728 12.224 3.77498C11.7317 3.2831 10.934 3.28291 10.4418 3.77498L3.69375 10.523C3.43635 10.7808 3.29146 11.1304 3.2914 11.4947V12.7086H4.50429C4.86884 12.7086 5.2191 12.563 5.47695 12.3053L5.85097 11.9322L6.0375 11.7447C6.28152 11.5009 6.67726 11.5009 6.92129 11.7447C7.1653 11.9887 7.16517 12.3844 6.92129 12.6285L6.73476 12.816L6.36074 13.189C5.86849 13.6812 5.2004 13.9586 4.50429 13.9586H2.6664C2.32158 13.9584 2.04171 13.6784 2.0414 13.3336V11.4947C2.04146 10.7987 2.31786 10.1305 2.80996 9.63826L9.55801 2.89119ZM2.82949 3.43904C2.89958 3.29888 3.10022 3.29888 3.17031 3.43904L3.60586 4.30916C3.62426 4.34597 3.65401 4.37669 3.69082 4.3951L4.56191 4.82967C4.70185 4.89978 4.70178 5.10031 4.56191 5.17049L3.69082 5.60604C3.65401 5.62443 3.62426 5.65419 3.60586 5.691L3.17031 6.56209C3.10018 6.70206 2.8996 6.70209 2.82949 6.56209L2.39394 5.691C2.37553 5.65421 2.34577 5.62443 2.30898 5.60604L1.43887 5.17049C1.2987 5.1004 1.2987 4.89975 1.43887 4.82967L2.30898 4.3951C2.34579 4.37669 2.37554 4.34597 2.39394 4.30916L2.82949 3.43904ZM5.82363 1.44295C5.89628 1.29766 6.10352 1.29766 6.17617 1.44295L6.49648 2.0826C6.51554 2.12061 6.54636 2.15144 6.58437 2.17049L7.22402 2.4908C7.36935 2.56345 7.36935 2.77069 7.22402 2.84334L6.58437 3.16268C6.54623 3.18175 6.51556 3.2134 6.49648 3.25154L6.17617 3.89119C6.10349 4.03641 5.89627 4.03646 5.82363 3.89119L5.50429 3.25154C5.48522 3.2134 5.45357 3.18175 5.41543 3.16268L4.77578 2.84334C4.63051 2.7707 4.63055 2.56347 4.77578 2.4908L5.41543 2.17049C5.45357 2.15142 5.48522 2.12074 5.50429 2.0826L5.82363 1.44295Z" fill="#BFA5FF"/></svg>