<svg width="24" height="24" viewBox="0 0 16 16" fill="currentColor" xmlns="http://www.w3.org/2000/svg"><path d="M9.55811 2.89111C10.5385 1.9108 12.1284 1.91082 13.1089 2.89111C14.0891 3.87155 14.0892 5.4615 13.1089 6.44189C12.8648 6.68574 12.4681 6.6859 12.2241 6.44189C11.9805 6.198 11.9807 5.80216 12.2241 5.55811C12.7164 5.0658 12.7164 4.2672 12.2241 3.7749C11.7318 3.28302 10.9341 3.28283 10.4419 3.7749L3.69385 10.5229C3.43645 10.7807 3.29156 11.1303 3.2915 11.4946V12.7085H4.50439C4.86894 12.7085 5.2192 12.5629 5.47705 12.3052L5.85107 11.9321L6.0376 11.7446C6.28162 11.5008 6.67736 11.5008 6.92139 11.7446C7.1654 11.9886 7.16527 12.3843 6.92139 12.6284L6.73486 12.8159L6.36084 13.189C5.86859 13.6811 5.20049 13.9585 4.50439 13.9585H2.6665C2.32168 13.9583 2.04181 13.6783 2.0415 13.3335V11.4946C2.04156 10.7986 2.31795 10.1304 2.81006 9.63818L9.55811 2.89111ZM2.82959 3.43896C2.89968 3.2988 3.10032 3.2988 3.17041 3.43896L3.60596 4.30908C3.62436 4.34589 3.65411 4.37661 3.69092 4.39502L4.56201 4.82959C4.70195 4.8997 4.70188 5.10023 4.56201 5.17041L3.69092 5.60596C3.65411 5.62436 3.62436 5.65411 3.60596 5.69092L3.17041 6.56201C3.10028 6.70198 2.8997 6.70201 2.82959 6.56201L2.39404 5.69092C2.37563 5.65413 2.34587 5.62435 2.30908 5.60596L1.43896 5.17041C1.2988 5.10032 1.2988 4.89968 1.43896 4.82959L2.30908 4.39502C2.34589 4.37661 2.37564 4.34589 2.39404 4.30908L2.82959 3.43896ZM5.82373 1.44287C5.89638 1.29758 6.10362 1.29758 6.17627 1.44287L6.49658 2.08252C6.51564 2.12053 6.54646 2.15136 6.58447 2.17041L7.22412 2.49072C7.36945 2.56337 7.36945 2.77062 7.22412 2.84326L6.58447 3.1626C6.54633 3.18167 6.51566 3.21332 6.49658 3.25146L6.17627 3.89111C6.10359 4.03634 5.89637 4.03638 5.82373 3.89111L5.50439 3.25146C5.48532 3.21332 5.45367 3.18167 5.41553 3.1626L4.77588 2.84326C4.63061 2.77062 4.63065 2.5634 4.77588 2.49072L5.41553 2.17041C5.45367 2.15134 5.48532 2.12067 5.50439 2.08252L5.82373 1.44287Z" fill="currentColor"/></svg>