<svg width="24" height="24" viewBox="0 0 8 8" fill="none" xmlns="http://www.w3.org/2000/svg"><g clip-path="url(#svg_cd5086c4e1__clip0_2135_95)"><path d="M7.20945 3.82109C7.20945 5.58841 5.77676 7.02109 4.00945 7.02109C2.24214 7.02109 0.809448 5.58841 0.809448 3.82109C0.809448 2.05378 2.24214 0.621094 4.00945 0.621094C5.77676 0.621094 7.20945 2.05378 7.20945 3.82109ZM2.08945 3.82109C2.08945 4.88148 2.94906 5.74109 4.00945 5.74109C5.06984 5.74109 5.92945 4.88148 5.92945 3.82109C5.92945 2.76071 5.06984 1.90109 4.00945 1.90109C2.94906 1.90109 2.08945 2.76071 2.08945 3.82109Z" fill="#3579FF" fill-opacity=".28"/><g filter="url(#svg_cd5086c4e1__filter0_d_2135_95)"><path fill-rule="evenodd" clip-rule="evenodd" d="M5.83555 4.41441C5.92918 4.12624 5.95328 3.82 5.90588 3.52074C5.85848 3.22147 5.74093 2.93767 5.56283 2.69255C5.38474 2.44742 5.15115 2.24792 4.88118 2.11036C4.61121 1.9728 4.31252 1.90109 4.00952 1.90109V0.621094C4.37391 0.621094 4.73456 0.683321 5.07619 0.804104C5.20801 0.850712 5.33701 0.906038 5.46229 0.969873C5.91224 1.19914 6.30155 1.53163 6.59838 1.94018C6.8952 2.34873 7.09113 2.82173 7.17012 3.3205C7.19212 3.45938 7.20488 3.59916 7.20847 3.73893C7.21776 4.10072 7.16563 4.46251 7.05332 4.80867C7.05318 4.8091 7.05304 4.80952 7.0529 4.80995L5.83555 4.41441Z" fill="#387BFF"/></g></g><defs><clipPath id="svg_cd5086c4e1__clip0_2135_95"><path fill="#fff" transform="translate(.81 .621)" d="M0 0H6.4V6.4H0z"/></clipPath><filter id="svg_cd5086c4e1__filter0_d_2135_95" x="4.01" y=".621" width="3.2" height="4.381" filterUnits="userSpaceOnUse" color-interpolation-filters="sRGB"><feFlood flood-opacity="0" result="BackgroundImageFix"/><feColorMatrix in="SourceAlpha" values="0 0 0 0 0 0 0 0 0 0 0 0 0 0 0 0 0 0 127 0" result="hardAlpha"/><feOffset dy=".192"/><feColorMatrix values="0 0 0 0 0.0784314 0 0 0 0 0.0784314 0 0 0 0 0.0784314 0 0 0 0.08 0"/><feBlend in2="BackgroundImageFix" result="effect1_dropShadow_2135_95"/><feBlend in="SourceGraphic" in2="effect1_dropShadow_2135_95" result="shape"/></filter></defs></svg>