<svg width="24" height="24" viewBox="0 0 16 16" fill="currentColor" xmlns="http://www.w3.org/2000/svg"><path d="M4.22437 4.89136C4.4683 4.64748 4.86406 4.64773 5.10815 4.89136C5.3521 5.13545 5.35219 5.53209 5.10815 5.77612L2.91382 7.97144H2.91284C2.89734 7.98769 2.89697 8.014 2.91284 8.03003H2.91382L5.10815 10.2253C5.35209 10.4694 5.35219 10.8651 5.10815 11.1091C4.86408 11.3526 4.46828 11.3529 4.22437 11.1091L2.02905 8.91382C1.52486 8.40947 1.52491 7.59105 2.02905 7.08667L4.22437 4.89136ZM10.8904 4.89136C11.1344 4.6473 11.5311 4.64733 11.7751 4.89136L13.9705 7.08667C14.4748 7.59101 14.4746 8.40941 13.9705 8.91382L11.7751 11.1091C11.531 11.3528 11.1343 11.3531 10.8904 11.1091C10.6468 10.8653 10.6471 10.4694 10.8904 10.2253L13.0857 8.03003C13.1019 8.01379 13.1019 7.98769 13.0857 7.97144L10.8904 5.77612C10.6465 5.53218 10.6467 5.13545 10.8904 4.89136Z" fill="currentColor"/></svg>