<svg width="24" height="24" viewBox="0 0 32 32" fill="currentColor" xmlns="http://www.w3.org/2000/svg"><path d="M28.1555 13.0578C28.0304 12.9311 27.9602 12.7602 27.9602 12.5821V7.91963C27.9588 6.77582 27.5111 5.67926 26.7152 4.87046C25.9194 4.06166 24.8404 3.60667 23.7148 3.60529H8.26203C7.13605 3.60598 6.05637 4.06066 5.25995 4.86953C4.46353 5.67841 4.01547 6.77537 4.01411 7.91963V12.5937C4.01411 12.7711 3.94445 12.9414 3.82014 13.068L1.79855 15.1264C1.54019 15.3895 1.53988 15.8109 1.79787 16.0744L3.82082 18.14C3.94472 18.2666 4.01411 18.4366 4.01411 18.6137V23.2909C4.01547 24.4352 4.46353 25.5322 5.25995 26.341C6.05637 27.15 7.13605 27.6046 8.26203 27.6053H23.7278C24.8532 27.604 25.9323 27.1489 26.7282 26.3401C27.524 25.5313 27.9718 24.4348 27.9731 23.2909V18.6146C27.9731 18.437 28.0429 18.2665 28.1675 18.1398L30.1986 16.0757C30.4582 15.8119 30.4578 15.3886 30.1977 15.1252L28.1555 13.0578ZM13.8339 17.6246C14.0921 17.888 14.0918 18.3097 13.8332 18.5728L12.8048 19.6193C12.5395 19.8894 12.1042 19.8893 11.839 19.6191L8.35952 16.0748C8.10081 15.8113 8.10106 15.389 8.36007 15.1258L11.8418 11.5874C12.1071 11.3179 12.5416 11.3179 12.8068 11.5874L13.8344 12.6317C14.0936 12.8951 14.0937 13.3176 13.8347 13.5811L12.3158 15.1263C12.0572 15.3893 12.0568 15.8111 12.315 16.0746L13.8339 17.6246ZM19.973 19.6196C19.7077 19.8896 19.2727 19.8895 19.0074 19.6196L17.9797 18.5738C17.7207 18.3103 17.7209 17.8879 17.98 17.6246L19.4985 16.0814C19.7572 15.8185 19.7578 15.3968 19.4997 15.1331L17.9804 13.581C17.7223 13.3174 17.7229 12.8957 17.9816 12.6327L19.0102 11.5874C19.2754 11.3179 19.71 11.3179 19.9752 11.5874L23.4567 15.1255C23.7158 15.3889 23.716 15.8113 23.457 16.0748L19.973 19.6196Z" fill="currentColor"/></svg>