<svg width="24" height="24" viewBox="0 0 16 16" fill="currentColor" xmlns="http://www.w3.org/2000/svg"><path d="M9.48514 2.06017C9.81988 2.14389 10.0237 2.48323 9.94022 2.81798L7.27323 13.485C7.1895 13.8197 6.85016 14.0236 6.51541 13.9401C6.18054 13.8563 5.97662 13.5161 6.06034 13.1813L8.72733 2.51525C8.81105 2.18038 9.15027 1.97645 9.48514 2.06017ZM3.58475 4.86583C3.84274 4.63659 4.23826 4.66061 4.46756 4.91857C4.69641 5.17648 4.6734 5.57117 4.4158 5.8004L3.09745 6.97228C2.48211 7.51925 2.4821 8.48096 3.09745 9.02794L4.4158 10.1998C4.67332 10.4291 4.69652 10.8238 4.46756 11.0817C4.23824 11.3396 3.84274 11.3627 3.58475 11.1334L2.26639 9.96154C1.09197 8.91727 1.09176 7.08183 2.26639 6.03771L3.58475 4.86583ZM11.533 4.91857C11.7623 4.66058 12.1578 4.63651 12.4158 4.86583L13.7342 6.03771C14.9086 7.0818 14.9084 8.91728 13.7342 9.96154L12.4158 11.1334C12.1578 11.3627 11.7623 11.3396 11.533 11.0817C11.3038 10.8237 11.327 10.4291 11.5848 10.1998L12.9031 9.02794C13.4799 8.5152 13.5161 7.63804 13.0115 7.0797L12.9031 6.97228L11.5848 5.8004C11.327 5.57115 11.304 5.17653 11.533 4.91857Z" fill="currentColor"/></svg>