<svg width="24" height="24" viewBox="0 0 16 16" fill="none" xmlns="http://www.w3.org/2000/svg"><g clip-path="url(#svg_7c1ccc9949__clip0_11221_16883)" fill="#2F74FF"><path d="M15.6965 11.4731C15.6965 13.6823 13.9057 15.4731 11.6965 15.4731C9.48739 15.4731 7.69653 13.6823 7.69653 11.4731C7.69653 9.26401 9.48739 7.47314 11.6965 7.47314C13.9057 7.47314 15.6965 9.26401 15.6965 11.4731ZM9.29653 11.4731C9.29653 12.7986 10.371 13.8731 11.6965 13.8731C13.022 13.8731 14.0965 12.7986 14.0965 11.4731C14.0965 10.1477 13.022 9.07314 11.6965 9.07314C10.371 9.07314 9.29653 10.1477 9.29653 11.4731Z" fill-opacity=".36"/><path fill-rule="evenodd" clip-rule="evenodd" d="M13.9791 12.2148C14.0961 11.8546 14.1262 11.4718 14.067 11.0977C14.0077 10.7236 13.8608 10.3689 13.6382 10.0625C13.4156 9.75605 13.1236 9.50668 12.7861 9.33473C12.4486 9.16278 12.0753 9.07314 11.6965 9.07314V7.47314C12.152 7.47314 12.6028 7.55093 13.0299 7.70191C13.1946 7.76017 13.3559 7.82933 13.5125 7.90912C14.0749 8.1957 14.5616 8.61132 14.9326 9.122C15.3036 9.63269 15.5485 10.2239 15.6473 10.8474C15.6748 11.021 15.6907 11.1957 15.6952 11.3704C15.7068 11.8227 15.6417 12.2749 15.5013 12.7076L15.5008 12.7092L13.9791 12.2148Z"/></g><path fill-rule="evenodd" clip-rule="evenodd" d="M9.55801 2.89119C10.5384 1.91088 12.1283 1.9109 13.1088 2.89119C14.089 3.87163 14.0891 5.46158 13.1088 6.44197C12.8647 6.68582 12.468 6.68598 12.224 6.44197C11.9804 6.19808 11.9806 5.80223 12.224 5.55818C12.7163 5.06588 12.7163 4.26728 12.224 3.77498C11.7317 3.2831 10.934 3.28291 10.4418 3.77498L3.69375 10.523C3.43635 10.7808 3.29146 11.1304 3.2914 11.4947V12.7086H4.50429C4.86884 12.7086 5.2191 12.563 5.47695 12.3053L5.85097 11.9322L6.0375 11.7447C6.28152 11.5009 6.67726 11.5009 6.92129 11.7447C7.1653 11.9887 7.16517 12.3844 6.92129 12.6285L6.73476 12.816L6.36074 13.189C5.86849 13.6812 5.2004 13.9586 4.50429 13.9586H2.6664C2.32158 13.9584 2.04171 13.6784 2.0414 13.3336V11.4947C2.04146 10.7987 2.31786 10.1305 2.80996 9.63826L9.55801 2.89119ZM2.82949 3.43904C2.89958 3.29888 3.10022 3.29888 3.17031 3.43904L3.60586 4.30916C3.62426 4.34597 3.65401 4.37669 3.69082 4.3951L4.56191 4.82967C4.70185 4.89978 4.70178 5.10031 4.56191 5.17049L3.69082 5.60604C3.65401 5.62443 3.62426 5.65419 3.60586 5.691L3.17031 6.56209C3.10018 6.70206 2.8996 6.70209 2.82949 6.56209L2.39394 5.691C2.37553 5.65421 2.34577 5.62443 2.30898 5.60604L1.43887 5.17049C1.2987 5.1004 1.2987 4.89975 1.43887 4.82967L2.30898 4.3951C2.34579 4.37669 2.37554 4.34597 2.39394 4.30916L2.82949 3.43904ZM5.82363 1.44295C5.89628 1.29766 6.10352 1.29766 6.17617 1.44295L6.49648 2.0826C6.51554 2.12061 6.54636 2.15144 6.58437 2.17049L7.22402 2.4908C7.36935 2.56345 7.36935 2.77069 7.22402 2.84334L6.58437 3.16268C6.54623 3.18175 6.51556 3.2134 6.49648 3.25154L6.17617 3.89119C6.10349 4.03641 5.89627 4.03646 5.82363 3.89119L5.50429 3.25154C5.48522 3.2134 5.45357 3.18175 5.41543 3.16268L4.77578 2.84334C4.63051 2.7707 4.63055 2.56347 4.77578 2.4908L5.41543 2.17049C5.45357 2.15142 5.48522 2.12074 5.50429 2.0826L5.82363 1.44295Z" fill="#737373"/><defs><clipPath id="svg_7c1ccc9949__clip0_11221_16883"><path fill="#fff" transform="translate(7.697 7.473)" d="M0 0H8V8H0z"/></clipPath></defs></svg>