<svg width="24" height="24" viewBox="0 0 16 16" fill="none" xmlns="http://www.w3.org/2000/svg"><path d="M14.4976 7.47311C15.1599 7.4736 15.6968 8.01093 15.6969 8.67331V14.2729C15.6969 14.9354 15.16 15.4726 14.4976 15.4731H8.89705C8.23442 15.473 7.69686 14.9356 7.69686 14.2729V8.67331C7.69692 8.01071 8.23447 7.47325 8.89705 7.47311H14.4976ZM9.55818 2.89108C10.5386 1.91103 12.1286 1.91098 13.109 2.89108C14.0889 3.87146 14.089 5.46151 13.109 6.44186C12.8649 6.68564 12.4682 6.6857 12.2242 6.44186C11.9807 6.19797 11.9809 5.80209 12.2242 5.55808C12.7162 5.06581 12.7163 4.26711 12.2242 3.77487C11.7319 3.28318 10.9342 3.28306 10.442 3.77487L3.69393 10.5229C3.43664 10.7805 3.29176 11.1304 3.29158 11.4946V12.7085H4.50447C4.86901 12.7085 5.21928 12.5629 5.47713 12.3051L5.85115 11.9321L6.03768 11.7446C6.28168 11.501 6.6775 11.501 6.92146 11.7446C7.16524 11.9886 7.16507 12.3843 6.92146 12.6284L6.73494 12.8159L6.36092 13.1889C5.86867 13.681 5.20057 13.9585 4.50447 13.9585H2.66658C2.32173 13.9584 2.04205 13.6782 2.04158 13.3335V11.4946C2.04176 10.7987 2.31815 10.1303 2.81014 9.63815L9.55818 2.89108ZM11.3824 9.87351L12.3824 10.8735H8.96443V12.0737H12.3814L11.8062 12.6489L11.3824 13.0737L12.231 13.9223L12.6549 13.4975L14.2554 11.8979L14.6793 11.4731L12.6549 9.44968L12.231 9.02487L11.3824 9.87351ZM2.82967 3.43894C2.89977 3.299 3.09932 3.29911 3.16951 3.43894L3.60506 4.31003C3.62341 4.34658 3.65347 4.37662 3.69002 4.39499L4.56111 4.83054C4.70118 4.90067 4.70125 5.10031 4.56111 5.17038L3.69002 5.60593C3.65347 5.62431 3.6234 5.65431 3.60506 5.69089L3.16951 6.56198C3.09931 6.70168 2.89983 6.70172 2.82967 6.56198L2.39412 5.69089C2.37572 5.65428 2.3458 5.62427 2.30916 5.60593L1.43807 5.17038C1.2983 5.10022 1.29833 4.90073 1.43807 4.83054L2.30916 4.39499C2.34582 4.37664 2.37571 4.34665 2.39412 4.31003L2.82967 3.43894ZM5.82381 1.44284C5.89652 1.29774 6.10371 1.29766 6.17635 1.44284L6.49666 2.08249C6.51574 2.1205 6.5465 2.15233 6.58455 2.17136L7.2242 2.49069C7.36939 2.56337 7.36939 2.77055 7.2242 2.84323L6.58455 3.16354C6.54665 3.18255 6.51571 3.21356 6.49666 3.25144L6.17635 3.89206C6.10354 4.03651 5.89665 4.03647 5.82381 3.89206L5.5035 3.25144C5.48444 3.21349 5.45357 3.18257 5.41561 3.16354L4.77596 2.84323C4.63075 2.77062 4.6309 2.56344 4.77596 2.49069L5.41561 2.17136C5.45363 2.15234 5.48441 2.12048 5.5035 2.08249L5.82381 1.44284Z" fill="#BFA5FF"/></svg>