<svg width="24" height="24" viewBox="0 0 16 16" fill="none" xmlns="http://www.w3.org/2000/svg"><g clip-path="url(#svg_7c1ccc9949__clip0_12680_188)"><path d="M15.6965 11.4731C15.6965 13.6823 13.9057 15.4731 11.6965 15.4731C9.48739 15.4731 7.69653 13.6823 7.69653 11.4731C7.69653 9.26401 9.48739 7.47314 11.6965 7.47314C13.9057 7.47314 15.6965 9.26401 15.6965 11.4731ZM9.29653 11.4731C9.29653 12.7986 10.371 13.8731 11.6965 13.8731C13.022 13.8731 14.0965 12.7986 14.0965 11.4731C14.0965 10.1477 13.022 9.07314 11.6965 9.07314C10.371 9.07314 9.29653 10.1477 9.29653 11.4731Z" fill="#3579FF" fill-opacity=".36"/><path fill-rule="evenodd" clip-rule="evenodd" d="M13.9791 12.2148C14.0961 11.8546 14.1262 11.4718 14.067 11.0977C14.0077 10.7236 13.8608 10.3689 13.6382 10.0625C13.4156 9.75605 13.1236 9.50668 12.7861 9.33473C12.4486 9.16278 12.0753 9.07314 11.6965 9.07314V7.47314C12.152 7.47314 12.6028 7.55093 13.0299 7.70191C13.1946 7.76017 13.3559 7.82933 13.5125 7.90912C14.0749 8.1957 14.5616 8.61132 14.9326 9.122C15.3036 9.63269 15.5485 10.2239 15.6473 10.8474C15.6748 11.021 15.6907 11.1957 15.6952 11.3704C15.7068 11.8227 15.6417 12.2749 15.5013 12.7076L15.5008 12.7092L13.9791 12.2148Z" fill="#387BFF"/></g><path d="M9.55854 2.8906C10.539 1.91054 12.1289 1.91049 13.1093 2.8906C14.0895 3.87096 14.0894 5.46097 13.1093 6.44138C12.8652 6.68545 12.4686 6.68546 12.2246 6.44138C11.9809 6.1974 11.981 5.80158 12.2246 5.55759C12.7166 5.06527 12.7168 4.26661 12.2246 3.77438C11.7323 3.28269 10.9345 3.28257 10.4423 3.77438L3.69428 10.5224C3.43685 10.7801 3.29212 11.1298 3.29194 11.4941V12.708H4.50483C4.86949 12.708 5.21961 12.5625 5.47749 12.3047L5.85151 11.9316L6.03803 11.7441C6.28204 11.5006 6.67786 11.5005 6.92182 11.7441C7.16576 11.988 7.16548 12.3838 6.92182 12.6279L6.7353 12.8154L6.36128 13.1884C5.869 13.6807 5.20104 13.958 4.50483 13.958H2.66694C2.32192 13.958 2.04219 13.6779 2.04194 13.333V11.4941C2.04212 10.7981 2.31835 10.1298 2.81049 9.63767L9.55854 2.8906ZM2.83003 3.43845C2.90012 3.29851 3.09967 3.29862 3.16987 3.43845L3.60542 4.30954C3.62376 4.34623 3.65373 4.37608 3.69038 4.3945L4.56147 4.83005C4.70164 4.90014 4.70164 5.09981 4.56147 5.16989L3.69038 5.60544C3.65372 5.62381 3.62379 5.65375 3.60542 5.6904L3.16987 6.56149C3.09978 6.70165 2.90011 6.70165 2.83003 6.56149L2.39448 5.6904C2.37606 5.65376 2.3462 5.62378 2.30952 5.60544L1.43842 5.16989C1.29858 5.0997 1.29846 4.90014 1.43842 4.83005L2.30952 4.3945C2.3463 4.3761 2.37608 4.34632 2.39448 4.30954L2.83003 3.43845ZM5.82417 1.44235C5.89688 1.29725 6.10407 1.29717 6.17671 1.44235L6.49702 2.082C6.51609 2.12015 6.54676 2.1518 6.58491 2.17087L7.22456 2.4902C7.36985 2.56283 7.36978 2.77005 7.22456 2.84274L6.58491 3.16306C6.54691 3.18206 6.51611 3.213 6.49702 3.25095L6.17671 3.89157C6.10401 4.03648 5.89694 4.0364 5.82417 3.89157L5.50385 3.25095C5.48478 3.21297 5.45397 3.18208 5.41596 3.16306L4.77631 2.84274C4.63103 2.7701 4.63103 2.56285 4.77631 2.4902L5.41596 2.17087C5.45411 2.1518 5.48478 2.12015 5.50385 2.082L5.82417 1.44235Z" fill="#737373"/><defs><clipPath id="svg_7c1ccc9949__clip0_12680_188"><path fill="#fff" transform="translate(7.697 7.473)" d="M0 0H8V8H0z"/></clipPath></defs></svg>