<svg width="24" height="24" viewBox="0 0 16 16" fill="currentColor" xmlns="http://www.w3.org/2000/svg"><path d="M3.81738 8.70801C5.3496 8.70835 6.59166 9.95113 6.5918 11.4834C6.59172 12.0144 6.43851 12.509 6.17969 12.9307L7.11621 13.8984C7.35599 14.1464 7.34927 14.5422 7.10156 14.7822C6.85352 15.0222 6.45779 15.0156 6.21777 14.7676L5.30273 13.8223C4.87298 14.0958 4.36451 14.2577 3.81738 14.2578C2.28492 14.2578 1.0422 13.0158 1.04199 11.4834C1.04212 9.95092 2.28487 8.70801 3.81738 8.70801ZM7.83789 1.375C8.53398 1.375 9.20207 1.65135 9.69434 2.14355L12.5225 4.97266C13.0145 5.46484 13.2909 6.13212 13.291 6.82812V12C13.291 13.4498 12.1158 14.625 10.666 14.625H10C9.65493 14.6249 9.375 14.3451 9.375 14C9.375 13.6549 9.65493 13.3751 10 13.375H10.666C11.4254 13.375 12.041 12.7594 12.041 12V6.82812C12.041 6.75963 12.0344 6.69192 12.0244 6.625H9.33398C8.6206 6.625 8.04199 6.04636 8.04199 5.33301V2.6416C7.97483 2.63155 7.9066 2.625 7.83789 2.625H5.33301C4.57373 2.62513 3.95801 3.24069 3.95801 4V6.66699C3.95783 7.01202 3.67808 7.29199 3.33301 7.29199C2.98805 7.29186 2.70818 7.01194 2.70801 6.66699V4C2.70801 2.55034 3.88338 1.37513 5.33301 1.375H7.83789ZM3.81738 9.95801C2.97523 9.95801 2.29212 10.6413 2.29199 11.4834C2.2922 12.3255 2.97528 13.0078 3.81738 13.0078C4.24395 13.0076 4.62884 12.8329 4.90625 12.5498C5.17607 12.2742 5.34169 11.8988 5.3418 11.4834C5.34167 10.6415 4.65925 9.95835 3.81738 9.95801ZM9.29199 5.33301C9.29199 5.35602 9.31097 5.375 9.33398 5.375H11.1572L9.29199 3.50879V5.33301Z" fill="currentColor"/></svg>