<svg width="24" height="24" viewBox="0 0 16 16" fill="none" xmlns="http://www.w3.org/2000/svg"><path d="M14.4978 7.47314C15.1601 7.47363 15.697 8.01096 15.697 8.67334V14.2729C15.697 14.9354 15.1601 15.4727 14.4978 15.4731H8.89722C8.23459 15.473 7.69604 14.9356 7.69604 14.2729V8.67334C7.69611 8.01074 8.23463 7.47328 8.89722 7.47314H14.4978ZM9.55835 2.89111C10.5388 1.91101 12.1287 1.91089 13.1091 2.89111C14.0892 3.87149 14.0892 5.4615 13.1091 6.44189C12.865 6.68572 12.4684 6.68584 12.2244 6.44189C11.9807 6.198 11.981 5.80216 12.2244 5.55811C12.7164 5.06581 12.7166 4.26714 12.2244 3.7749C11.7321 3.28309 10.9344 3.28304 10.4421 3.7749L3.69409 10.5229C3.43673 10.7806 3.29185 11.1303 3.29175 11.4946V12.7085H4.50464C4.86909 12.7084 5.2195 12.5628 5.47729 12.3052L5.85132 11.9321L6.03784 11.7446C6.28188 11.501 6.67767 11.5009 6.92163 11.7446C7.16552 11.9886 7.16528 12.3843 6.92163 12.6284L6.73511 12.8159L6.36108 13.189C5.8689 13.681 5.20064 13.9584 4.50464 13.9585H2.66675C2.32192 13.9583 2.04205 13.6783 2.04175 13.3335V11.4946C2.04185 10.7987 2.31824 10.1304 2.8103 9.63818L9.55835 2.89111ZM11.3826 9.87354L12.3826 10.8735H8.9646V12.0737H12.3816L11.8064 12.6489L11.3826 13.0737L12.2312 13.9224L12.655 13.4976L14.2556 11.8979L14.6794 11.4731L12.655 9.44971L12.2312 9.0249L11.3826 9.87354ZM2.82983 3.43896C2.90002 3.29904 3.1006 3.29889 3.17065 3.43896L3.6062 4.30908C3.6246 4.34589 3.65436 4.37661 3.69116 4.39502L4.56226 4.82959C4.70195 4.89972 4.7018 5.10013 4.56226 5.17041L3.69116 5.60596C3.65443 5.62432 3.62461 5.65422 3.6062 5.69092L3.17065 6.56201C3.10052 6.70198 2.89994 6.70201 2.82983 6.56201L2.39429 5.69092C2.3759 5.65419 2.34604 5.62435 2.30933 5.60596L1.43921 5.17041C1.29904 5.10032 1.29904 4.89968 1.43921 4.82959L2.30933 4.39502C2.34601 4.3766 2.37593 4.3458 2.39429 4.30908L2.82983 3.43896ZM5.82397 1.44287C5.89672 1.29782 6.1039 1.29768 6.17651 1.44287L6.49683 2.08252C6.51588 2.12053 6.5467 2.15136 6.58472 2.17041L7.22437 2.49072C7.36946 2.56339 7.36937 2.77052 7.22437 2.84326L6.58472 3.1626C6.54665 3.18163 6.51591 3.21342 6.49683 3.25146L6.17651 3.89111C6.10384 4.03634 5.89661 4.03638 5.82397 3.89111L5.50464 3.25146C5.48559 3.21338 5.45385 3.18168 5.41577 3.1626L4.77612 2.84326C4.63086 2.77062 4.63089 2.5634 4.77612 2.49072L5.41577 2.17041C5.45379 2.15133 5.48561 2.12057 5.50464 2.08252L5.82397 1.44287Z" fill="#9570FF"/></svg>