<svg width="24" height="24" viewBox="0 0 16 16" fill="none" xmlns="http://www.w3.org/2000/svg"><path d="M9.55844 2.89147C10.5389 1.91112 12.1288 1.91106 13.1092 2.89147C14.0892 3.87194 14.0894 5.46196 13.1092 6.44226C12.8652 6.68612 12.4685 6.68602 12.2245 6.44226C11.9806 6.19833 11.9809 5.80255 12.2245 5.55847C12.7167 5.06626 12.7165 4.26759 12.2245 3.77526C11.7321 3.28326 10.9345 3.28315 10.4422 3.77526L3.69418 10.5233C3.43671 10.7811 3.29189 11.1306 3.29184 11.495V12.7089H4.50473C4.86927 12.7088 5.21956 12.5633 5.47738 12.3055L5.85141 11.9325L6.03793 11.745C6.28199 11.5011 6.6777 11.5011 6.92172 11.745C7.16545 11.989 7.16551 12.3848 6.92172 12.6288L6.7352 12.8163L6.36117 13.1893C5.86895 13.6815 5.20082 13.9588 4.50473 13.9589H2.66684C2.32194 13.9589 2.04229 13.6786 2.04184 13.3339V11.495C2.04189 10.7989 2.31821 10.1308 2.81039 9.63854L9.55844 2.89147ZM2.82992 3.43835C2.90003 3.29853 3.09953 3.29867 3.16977 3.43835L3.60531 4.30944C3.62364 4.3461 3.65368 4.37598 3.69027 4.3944L4.56137 4.82995C4.70153 4.90004 4.70153 5.10068 4.56137 5.17077L3.69027 5.60534C3.65355 5.62375 3.62368 5.65453 3.60531 5.69128L3.16977 6.5614C3.09968 6.70155 2.90001 6.70155 2.82992 6.5614L2.39437 5.69128C2.37597 5.65447 2.34622 5.62374 2.30941 5.60534L1.43832 5.17077C1.29819 5.1007 1.29827 4.90009 1.43832 4.82995L2.30941 4.3944C2.3462 4.376 2.37597 4.34624 2.39437 4.30944L2.82992 3.43835ZM5.82406 1.44226C5.89685 1.29733 6.10398 1.29715 6.1766 1.44226L6.49594 2.08288C6.51502 2.12092 6.54673 2.15174 6.5848 2.17077L7.22445 2.49011C7.36979 2.56275 7.36979 2.77098 7.22445 2.84362L6.5848 3.16296C6.54673 3.182 6.51502 3.2128 6.49594 3.25085L6.1766 3.89147C6.10397 4.03656 5.89685 4.03638 5.82406 3.89147L5.50375 3.25085C5.48469 3.21291 5.45382 3.18198 5.41586 3.16296L4.77523 2.84362C4.63013 2.77094 4.63014 2.5628 4.77523 2.49011L5.41586 2.17077C5.45382 2.15175 5.48469 2.12081 5.50375 2.08288L5.82406 1.44226Z" fill="#E5E5E5"/><path d="M14.4968 7.47314C15.1594 7.47328 15.697 8.0107 15.697 8.67334V14.2729C15.697 14.9356 15.1595 15.473 14.4968 15.4731H8.89722C8.23448 15.4731 7.69702 14.9357 7.69702 14.2729V8.67334C7.69705 8.01062 8.23449 7.47314 8.89722 7.47314H14.4968ZM9.4978 12.0728H13.8972V10.8735H9.4978V12.0728Z" fill="#F65A5A"/></svg>