<svg width="24" height="24" viewBox="0 0 16 16" fill="none" xmlns="http://www.w3.org/2000/svg"><path d="M9.55854 2.8906C10.539 1.91054 12.1289 1.91049 13.1093 2.8906C14.0895 3.87096 14.0894 5.46097 13.1093 6.44138C12.8652 6.68545 12.4686 6.68546 12.2246 6.44138C11.9809 6.1974 11.981 5.80158 12.2246 5.55759C12.7166 5.06527 12.7168 4.26661 12.2246 3.77438C11.7323 3.28269 10.9345 3.28257 10.4423 3.77438L3.69428 10.5224C3.43685 10.7801 3.29212 11.1298 3.29194 11.4941V12.708H4.50483C4.86949 12.708 5.21961 12.5625 5.47749 12.3047L5.85151 11.9316L6.03803 11.7441C6.28204 11.5006 6.67786 11.5005 6.92182 11.7441C7.16576 11.988 7.16548 12.3838 6.92182 12.6279L6.7353 12.8154L6.36128 13.1884C5.869 13.6807 5.20104 13.958 4.50483 13.958H2.66694C2.32192 13.958 2.04219 13.6779 2.04194 13.333V11.4941C2.04212 10.7981 2.31835 10.1298 2.81049 9.63767L9.55854 2.8906ZM2.83003 3.43845C2.90012 3.29851 3.09967 3.29862 3.16987 3.43845L3.60542 4.30954C3.62376 4.34623 3.65373 4.37608 3.69038 4.3945L4.56147 4.83005C4.70164 4.90014 4.70164 5.09981 4.56147 5.16989L3.69038 5.60544C3.65372 5.62381 3.62379 5.65375 3.60542 5.6904L3.16987 6.56149C3.09978 6.70165 2.90011 6.70165 2.83003 6.56149L2.39448 5.6904C2.37606 5.65376 2.3462 5.62378 2.30952 5.60544L1.43842 5.16989C1.29858 5.0997 1.29846 4.90014 1.43842 4.83005L2.30952 4.3945C2.3463 4.3761 2.37608 4.34632 2.39448 4.30954L2.83003 3.43845ZM5.82417 1.44235C5.89688 1.29725 6.10407 1.29717 6.17671 1.44235L6.49702 2.082C6.51609 2.12015 6.54676 2.1518 6.58491 2.17087L7.22456 2.4902C7.36985 2.56283 7.36978 2.77005 7.22456 2.84274L6.58491 3.16306C6.54691 3.18206 6.51611 3.213 6.49702 3.25095L6.17671 3.89157C6.10401 4.03648 5.89694 4.0364 5.82417 3.89157L5.50385 3.25095C5.48478 3.21297 5.45397 3.18208 5.41596 3.16306L4.77631 2.84274C4.63103 2.7701 4.63103 2.56285 4.77631 2.4902L5.41596 2.17087C5.45411 2.1518 5.48478 2.12015 5.50385 2.082L5.82417 1.44235Z" fill="#E5E5E5"/><path d="M14.4968 7.47314C15.1593 7.47341 15.697 8.01078 15.697 8.67334V14.2729C15.697 14.9355 15.1593 15.4729 14.4968 15.4731H8.89722C8.2345 15.4731 7.69604 14.9357 7.69604 14.2729V8.67334C7.69607 8.01064 8.23451 7.47317 8.89722 7.47314H14.4968ZM9.4978 14.5815H13.8972V13.3823H9.4978V14.5815ZM11.0974 9.96436H9.4978V11.1646H11.0974V12.7642H12.2976V11.1646H13.8972V9.96436H12.2976V8.36475H11.0974V9.96436Z" fill="#DCB364"/></svg>