<svg width="24" height="24" viewBox="0 0 16 16" fill="none" xmlns="http://www.w3.org/2000/svg"><path fill-rule="evenodd" clip-rule="evenodd" d="M9.55813 2.89119C10.5386 1.91087 12.1285 1.91087 13.1089 2.89119C14.0891 3.87163 14.0892 5.46158 13.1089 6.44197C12.8648 6.68597 12.4682 6.68603 12.2241 6.44197C11.9804 6.19803 11.9806 5.80223 12.2241 5.55818C12.7165 5.06588 12.7165 4.26728 12.2241 3.77498C11.7318 3.28307 10.9341 3.2829 10.4419 3.77498L3.69387 10.523C3.43638 10.7808 3.29159 11.1303 3.29153 11.4947V12.7086H4.50442C4.86904 12.7086 5.21921 12.5631 5.47707 12.3053L5.8511 11.9322L6.03762 11.7447C6.28165 11.5009 6.67738 11.5009 6.92141 11.7447C7.16542 11.9887 7.16529 12.3844 6.92141 12.6285L6.73489 12.816L6.36086 13.189C5.8686 13.6813 5.20059 13.9586 4.50442 13.9586H2.66653C2.32158 13.9585 2.04177 13.6785 2.04153 13.3336V11.4947C2.04159 10.7986 2.31789 10.1305 2.81008 9.63826L9.55813 2.89119ZM2.82961 3.43904C2.8997 3.29888 3.10035 3.29888 3.17043 3.43904L3.60598 4.31014C3.6244 4.34674 3.65428 4.37677 3.69094 4.3951L4.56203 4.83064C4.70168 4.90088 4.70181 5.10036 4.56203 5.17049L3.69094 5.60604C3.65416 5.62442 3.62438 5.65422 3.60598 5.691L3.17043 6.56209C3.10031 6.70217 2.89969 6.70222 2.82961 6.56209L2.39504 5.691C2.37664 5.65419 2.34591 5.62444 2.3091 5.60604L1.43899 5.17049C1.29882 5.1004 1.29882 4.90073 1.43899 4.83064L2.3091 4.3951C2.34586 4.37672 2.37663 4.34688 2.39504 4.31014L2.82961 3.43904ZM5.82375 1.44295C5.8964 1.29766 6.10365 1.29766 6.17629 1.44295L6.4966 2.0826C6.51567 2.12065 6.54643 2.15144 6.5845 2.17049L7.22414 2.4908C7.36948 2.56345 7.36948 2.77069 7.22414 2.84334L6.5845 3.16365C6.54642 3.18273 6.51566 3.21345 6.4966 3.25154L6.17629 3.89119C6.10365 4.03648 5.8964 4.03648 5.82375 3.89119L5.50344 3.25154C5.48439 3.21345 5.45364 3.18273 5.41555 3.16365L4.7759 2.84334C4.63061 2.77069 4.63061 2.56345 4.7759 2.4908L5.41555 2.17049C5.45362 2.15144 5.48437 2.12065 5.50344 2.0826L5.82375 1.44295Z" fill="#262626"/><path d="M14.4968 7.47314C15.1594 7.47328 15.697 8.0107 15.697 8.67334V14.2729C15.697 14.9356 15.1595 15.473 14.4968 15.4731H8.89722C8.23448 15.4731 7.69702 14.9357 7.69702 14.2729V8.67334C7.69705 8.01062 8.23449 7.47314 8.89722 7.47314H14.4968ZM9.4978 12.0728H13.8972V10.8735H9.4978V12.0728Z" fill="#E8463A"/></svg>