<svg width="24" height="24" viewBox="0 0 16 16" fill="currentColor" xmlns="http://www.w3.org/2000/svg"><path d="M6.73462 2.02002V13.811H5.14966C3.4229 13.811 2.02279 12.4108 2.02271 10.6841V5.14697C2.02271 3.42016 3.42285 2.02002 5.14966 2.02002H6.73462ZM3.27661 10.6841C3.2767 11.7186 4.1151 12.5571 5.14966 12.5571H5.48169V3.27393H5.14966C4.11504 3.27393 3.27661 4.11236 3.27661 5.14697V10.6841Z" fill="currentColor"/><path d="M12.769 5.14697C12.769 4.1124 11.9306 3.27399 10.896 3.27393H6.73486V12.5571H10.896C11.9305 12.5571 12.769 11.7186 12.769 10.6841V5.14697ZM14.0229 10.6841C14.0229 12.4108 12.6227 13.811 10.896 13.811H5.48096V2.02002H10.896C12.6228 2.02009 14.0229 3.4202 14.0229 5.14697V10.6841Z" fill="currentColor"/><path d="M8.59184 8.30125C8.40949 8.14187 8.40949 7.85828 8.59184 7.6989L10.2507 6.24902C10.5094 6.02292 10.9139 6.20663 10.9139 6.55019V9.44995C10.9139 9.79351 10.5094 9.97722 10.2507 9.75113L8.59184 8.30125Z" fill="currentColor"/></svg>