<svg width="24" height="24" viewBox="0 0 16 16" fill="currentColor" xmlns="http://www.w3.org/2000/svg"><path d="M13.5 11.875C13.8452 11.875 14.125 12.1548 14.125 12.5C14.125 12.8452 13.8452 13.125 13.5 13.125H2.5C2.15482 13.125 1.875 12.8452 1.875 12.5C1.875 12.1548 2.15482 11.875 2.5 11.875H13.5ZM2 6.49316C2 6.18535 2.33299 5.99283 2.59961 6.14648L5.40039 7.76367C5.66652 7.91776 5.66666 8.30208 5.40039 8.45605L2.59961 10.0732C2.33308 10.2267 2.00013 10.0342 2 9.72656V6.49316ZM13.5 7.375C13.8452 7.375 14.125 7.65482 14.125 8C14.125 8.34518 13.8452 8.625 13.5 8.625H8.5C8.15482 8.625 7.875 8.34518 7.875 8C7.875 7.65482 8.15482 7.375 8.5 7.375H13.5ZM13.5 2.875C13.8452 2.875 14.125 3.15482 14.125 3.5C14.125 3.84518 13.8452 4.125 13.5 4.125H2.5C2.15482 4.125 1.875 3.84518 1.875 3.5C1.875 3.15482 2.15482 2.875 2.5 2.875H13.5Z" fill="currentColor"/></svg>