<svg width="24" height="24" viewBox="0 0 16 16" fill="currentColor" xmlns="http://www.w3.org/2000/svg"><path d="M9.57617 2.90909C10.5468 1.93875 12.1202 1.93875 13.0908 2.90909C14.0614 3.87973 14.0613 5.45403 13.0908 6.42471L11.1816 8.33292L11.7578 8.90909C11.9919 9.14342 11.992 9.5235 11.7578 9.75772C11.5236 9.99195 11.1435 9.99177 10.9092 9.75772L10.333 9.18155L5.95312 13.5624C5.71572 13.7998 5.39349 13.9334 5.05762 13.9335H3.33398C2.63448 13.9335 2.06745 13.3664 2.06738 12.6669V10.9433C2.06741 10.6074 2.2009 10.2843 2.43848 10.0468L6.81836 5.66592L6.24316 5.09073C6.00885 4.85641 6.00885 4.47739 6.24316 4.24307C6.47748 4.00878 6.85651 4.00877 7.09082 4.24307L7.66602 4.81827L9.57617 2.90909ZM3.28613 10.8954C3.27371 10.9078 3.26663 10.9256 3.2666 10.9433V12.6669C3.26667 12.7037 3.2972 12.7333 3.33398 12.7333H5.05762C5.07509 12.7332 5.09203 12.7262 5.10449 12.7138L9.48438 8.33292L7.66602 6.51456L3.28613 10.8954Z" fill="currentColor"/></svg>