<svg width="24" height="24" viewBox="0 0 16 16" fill="currentColor" xmlns="http://www.w3.org/2000/svg"><path d="M6.5 8.43506C6.84518 8.43506 7.125 8.71488 7.125 9.06006C7.125 9.40524 6.84518 9.68506 6.5 9.68506H3C2.24061 9.68506 1.625 10.3007 1.625 11.0601C1.625 11.8195 2.24061 12.4351 3 12.4351H13C13.7594 12.4351 14.375 11.8195 14.375 11.0601C14.375 10.3007 13.7594 9.68506 13 9.68506H9.5C9.15482 9.68506 8.875 9.40524 8.875 9.06006C8.875 8.71488 9.15482 8.43506 9.5 8.43506H13C14.4497 8.43506 15.625 9.61031 15.625 11.0601C15.625 12.5098 14.4497 13.6851 13 13.6851H3C1.55025 13.6851 0.375 12.5098 0.375 11.0601C0.375 9.61031 1.55025 8.43506 3 8.43506H6.5ZM4 2.31494C5.44979 2.31494 6.625 3.4902 6.625 4.93994C6.625 6.38972 5.44978 7.56494 4 7.56494C2.55022 7.56494 1.375 6.38972 1.375 4.93994C1.375 3.4902 2.55022 2.31494 4 2.31494ZM12 2.31494C13.4498 2.31494 14.625 3.4902 14.625 4.93994C14.625 6.38972 13.4498 7.56494 12 7.56494C10.5502 7.56494 9.375 6.38972 9.375 4.93994C9.375 3.4902 10.5502 2.31494 12 2.31494ZM4 3.56494C3.24058 3.56494 2.625 4.18055 2.625 4.93994C2.625 5.69936 3.24058 6.31494 4 6.31494C4.75942 6.31494 5.375 5.69936 5.375 4.93994C5.375 4.18055 4.75942 3.56494 4 3.56494ZM12 3.56494C11.2406 3.56494 10.625 4.18055 10.625 4.93994C10.625 5.69936 11.2406 6.31494 12 6.31494C12.7594 6.31494 13.375 5.69936 13.375 4.93994C13.375 4.18055 12.7594 3.56494 12 3.56494Z" fill="currentColor"/></svg>