<svg width="24" height="24" viewBox="0 0 16 16" fill="currentColor" xmlns="http://www.w3.org/2000/svg"><path d="M7.33301 11.3755C7.67819 11.3755 7.95801 11.6553 7.95801 12.0005C7.95774 12.3454 7.67802 12.6255 7.33301 12.6255H2C1.65498 12.6255 1.37526 12.3454 1.375 12.0005C1.375 11.6553 1.65482 11.3755 2 11.3755H7.33301ZM11.6562 9.47803C11.8988 9.31807 12.2289 9.34463 12.4424 9.55811L14.4424 11.5581C14.6862 11.8022 14.6864 12.1989 14.4424 12.4429C14.1984 12.6867 13.8017 12.6867 13.5576 12.4429L12 10.8853L10.4424 12.4429C10.1984 12.6867 9.80165 12.6867 9.55762 12.4429C9.3136 12.1989 9.31372 11.8022 9.55762 11.5581L11.5576 9.55811L11.6562 9.47803ZM7.33301 7.37549C7.67819 7.37549 7.95801 7.65531 7.95801 8.00049C7.95774 8.34544 7.67802 8.62549 7.33301 8.62549H2C1.65498 8.62549 1.37526 8.34544 1.375 8.00049C1.375 7.65531 1.65482 7.37549 2 7.37549H7.33301ZM13.5576 3.55713C13.8016 3.31336 14.1984 3.31333 14.4424 3.55713C14.6864 3.80113 14.6862 4.1978 14.4424 4.44189L12.4424 6.44189C12.1983 6.68597 11.8017 6.68597 11.5576 6.44189L9.55762 4.44189C9.31374 4.1978 9.31361 3.80114 9.55762 3.55713C9.80165 3.31336 10.1984 3.31333 10.4424 3.55713L12 5.11475L13.5576 3.55713ZM7.33301 3.37549C7.67819 3.37549 7.95801 3.65531 7.95801 4.00049C7.95774 4.34544 7.67802 4.62549 7.33301 4.62549H2C1.65498 4.62549 1.37526 4.34544 1.375 4.00049C1.375 3.65531 1.65482 3.37549 2 3.37549H7.33301Z" fill="currentColor"/></svg>