<svg width="24" height="24" viewBox="0 0 16 16" fill="currentColor" xmlns="http://www.w3.org/2000/svg"><path d="M7.33398 2.04199C8.78351 2.0423 9.95898 3.21744 9.95898 4.66699V4.70801H11.333C12.7827 4.70801 13.9579 5.88338 13.958 7.33301V12.042H14.666C15.0112 12.042 15.291 12.3218 15.291 12.667C15.2909 13.0121 15.0111 13.292 14.666 13.292H1.33301C0.988023 13.2919 0.70814 13.012 0.708008 12.667C0.708008 12.3219 0.987942 12.0421 1.33301 12.042H2.04199V4.66699C2.04199 3.21725 3.21725 2.04199 4.66699 2.04199H7.33398ZM4.66699 3.29199C3.9076 3.29199 3.29199 3.9076 3.29199 4.66699V12.042H8.70898V5.3418C8.70895 5.33895 8.70801 5.33586 8.70801 5.33301C8.70801 5.32974 8.70893 5.32649 8.70898 5.32324V4.66699C8.70898 3.90779 8.09314 3.2923 7.33398 3.29199H4.66699ZM9.95898 12.042H12.708V7.33301C12.7079 6.57372 12.0923 5.95801 11.333 5.95801H9.95898V12.042ZM6.66602 8.04199C7.01119 8.04199 7.29102 8.32181 7.29102 8.66699C7.29088 9.01206 7.01111 9.29199 6.66602 9.29199H5.33301C4.98802 9.29186 4.70814 9.01198 4.70801 8.66699C4.70801 8.3219 4.98794 8.04212 5.33301 8.04199H6.66602ZM6.66602 5.375C7.01119 5.375 7.29102 5.65482 7.29102 6C7.29102 6.34518 7.01119 6.625 6.66602 6.625H5.33301C4.98794 6.62487 4.70801 6.3451 4.70801 6C4.70801 5.6549 4.98794 5.37513 5.33301 5.375H6.66602Z" fill="currentColor"/></svg>