<svg width="24" height="24" viewBox="0 0 16 16" fill="currentColor" xmlns="http://www.w3.org/2000/svg"><path d="M1.33496 10.3V5.80005C1.33496 5.43278 1.63273 5.13501 2 5.13501C2.36727 5.13501 2.66504 5.43278 2.66504 5.80005V10.3C2.66504 10.6673 2.36727 10.9651 2 10.9651C1.63273 10.9651 1.33496 10.6673 1.33496 10.3Z" fill="currentColor"/><path d="M13.335 10.3V4.59985C13.3349 4.24931 13.0507 3.96519 12.7002 3.96509H7C6.63273 3.96509 6.33496 3.66732 6.33496 3.30005C6.33496 2.93278 6.63273 2.63501 7 2.63501H12.7002C13.7853 2.63512 14.6649 3.51477 14.665 4.59985V10.3C14.665 10.6673 14.3673 10.9651 14 10.9651C13.6327 10.9651 13.335 10.6673 13.335 10.3Z" fill="currentColor"/><path d="M2.47133 1.52851C2.21097 1.26817 1.78887 1.26817 1.52851 1.52851C1.26817 1.78887 1.26817 2.21097 1.52851 2.47133L2.47133 1.52851ZM13.5285 14.4713C13.7889 14.7317 14.211 14.7317 14.4713 14.4713C14.7317 14.211 14.7317 13.7889 14.4713 13.5285L13.5285 14.4713ZM1.52851 2.47133L13.5285 14.4713L14.4713 13.5285L2.47133 1.52851L1.52851 2.47133Z" fill="currentColor"/><path d="M0.666748 12.3333C0.666748 12.1493 0.815988 12 1.00008 12H5.8427C5.9462 12 6.04827 12.0241 6.14085 12.0704L6.52598 12.2629C6.61855 12.3093 6.72061 12.3333 6.82415 12.3333H9.17601C9.27955 12.3333 9.38161 12.3093 9.47415 12.2629L9.85935 12.0704C9.95188 12.0241 10.0539 12 10.1575 12H15.0001C15.1841 12 15.3334 12.1493 15.3334 12.3333V12.6667C15.3334 13.0349 15.0349 13.3333 14.6667 13.3333H1.33341C0.965228 13.3333 0.666748 13.0349 0.666748 12.6667V12.3333Z" fill="currentColor"/></svg>