<svg width="24" height="24" viewBox="0 0 16 16" fill="currentColor" xmlns="http://www.w3.org/2000/svg"><path d="M14.5015 7.60571C14.8466 7.60571 15.1265 7.88553 15.1265 8.23071C15.1265 8.57589 14.8466 8.85571 14.5015 8.85571H10.7935C10.4483 8.85571 10.1685 8.57589 10.1685 8.23071C10.1685 7.88553 10.4483 7.60571 10.7935 7.60571H14.5015Z" fill="currentColor"/><path d="M14.5015 9.98657C14.8466 9.98657 15.1265 10.2664 15.1265 10.6116C15.1265 10.9568 14.8466 11.2366 14.5015 11.2366H10.7935C10.4483 11.2366 10.1685 10.9568 10.1685 10.6116C10.1685 10.2664 10.4483 9.98657 10.7935 9.98657H14.5015Z" fill="currentColor"/><path d="M12.9224 12.344C13.2675 12.344 13.5474 12.6238 13.5474 12.969C13.5474 13.3142 13.2675 13.594 12.9224 13.594H10.7935C10.4483 13.594 10.1685 13.3142 10.1685 12.969C10.1685 12.6238 10.4483 12.344 10.7935 12.344H12.9224Z" fill="currentColor"/><path d="M7.15356 5.29907C7.49874 5.29907 7.77856 5.57889 7.77856 5.92407C7.77856 6.26925 7.49874 6.54907 7.15356 6.54907H5.43677C5.09159 6.54907 4.81177 6.26925 4.81177 5.92407C4.81177 5.57889 5.09159 5.29907 5.43677 5.29907H7.15356Z" fill="currentColor"/><path d="M7.15356 7.97437C7.49874 7.97437 7.77856 8.25419 7.77856 8.59937C7.77856 8.94454 7.49874 9.22437 7.15356 9.22437H5.43677C5.09159 9.22437 4.81177 8.94454 4.81177 8.59937C4.81177 8.25419 5.09159 7.97437 5.43677 7.97437H7.15356Z" fill="currentColor"/><path d="M1.49829 13.594C1.15311 13.594 0.873291 13.3142 0.873291 12.969C0.873291 12.6238 1.15311 12.344 1.49829 12.344H8.57349C8.91866 12.344 9.19849 12.6238 9.19849 12.969C9.19849 13.3142 8.91866 13.594 8.57349 13.594L1.49829 13.594Z" fill="currentColor"/><path d="M14.5016 4.57251C14.8468 4.57251 15.1266 4.85233 15.1266 5.19751C15.1266 5.54269 14.8468 5.82251 14.5016 5.82251H10.2106C9.86539 5.82251 9.58557 5.54269 9.58557 5.19751C9.58557 4.85233 9.86539 4.57251 10.2106 4.57251H14.5016Z" fill="currentColor"/><path d="M9.19702 5.99731V3.63989C9.19702 3.43279 9.02913 3.26489 8.82202 3.26489H3.82983C3.62273 3.26489 3.45483 3.43279 3.45483 3.63989V12.6008C3.45483 12.946 3.17501 13.2258 2.82983 13.2258C2.48466 13.2258 2.20483 12.946 2.20483 12.6008V3.63989C2.20483 2.74243 2.93237 2.01489 3.82983 2.01489H8.82202C9.71948 2.01489 10.447 2.74243 10.447 3.63989V5.99731C10.447 6.34244 10.1672 6.62231 9.82202 6.62231C9.4769 6.62229 9.19709 6.34242 9.19702 5.99731Z" fill="currentColor"/></svg>