<svg width="24" height="24" viewBox="0 0 16 16" fill="currentColor" xmlns="http://www.w3.org/2000/svg"><path d="M0.666748 12.3333C0.666748 12.1493 0.815988 12 1.00008 12H5.8427C5.9462 12 6.04827 12.0241 6.14085 12.0704L6.52598 12.2629C6.61855 12.3093 6.72061 12.3333 6.82415 12.3333H9.17601C9.27955 12.3333 9.38161 12.3093 9.47415 12.2629L9.85935 12.0704C9.95188 12.0241 10.0539 12 10.1575 12H15.0001C15.1841 12 15.3334 12.1493 15.3334 12.3333V12.6667C15.3334 13.0349 15.0349 13.3333 14.6667 13.3333H1.33341C0.965228 13.3333 0.666748 13.0349 0.666748 12.6667V12.3333Z" fill="currentColor"/><path fill-rule="evenodd" clip-rule="evenodd" d="M1.33325 4.66675C1.33325 3.56218 2.22869 2.66675 3.33325 2.66675H12.6666C13.7712 2.66675 14.6666 3.56218 14.6666 4.66675V10.3334C14.6666 10.7016 14.3681 11.0001 13.9999 11.0001C13.6317 11.0001 13.3333 10.7016 13.3333 10.3334V4.66675C13.3333 4.29856 13.0348 4.00008 12.6666 4.00008H3.33325C2.96507 4.00008 2.66659 4.29856 2.66659 4.66675V10.3334C2.66659 10.7016 2.36811 11.0001 1.99992 11.0001C1.63173 11.0001 1.33325 10.7016 1.33325 10.3334V4.66675Z" fill="currentColor"/></svg>