<svg width="24" height="24" viewBox="0 0 20 20" fill="currentColor" xmlns="http://www.w3.org/2000/svg"><path d="M16.0801 5.41718C16.0801 4.72696 15.5202 4.1674 14.8301 4.16718C14.1397 4.16718 13.5801 4.72682 13.5801 5.41718C13.5803 6.10734 14.1399 6.66718 14.8301 6.66718C15.5201 6.66696 16.0799 6.10721 16.0801 5.41718ZM17.7463 5.41718C17.7461 7.02768 16.4406 8.33322 14.8301 8.33344C13.2194 8.33344 11.9128 7.02782 11.9126 5.41718C11.9126 3.80634 13.2192 2.49969 14.8301 2.49969C16.4407 2.49991 17.7463 3.80648 17.7463 5.41718Z" fill="currentColor"/><path d="M6.41748 14.5837C6.41748 13.8935 5.85765 13.334 5.16748 13.3337C4.47712 13.3337 3.91748 13.8934 3.91748 14.5837C3.9177 15.2739 4.47726 15.8337 5.16748 15.8337C5.85751 15.8335 6.41726 15.2738 6.41748 14.5837ZM8.08374 14.5837C8.08352 16.1942 6.77799 17.4998 5.16748 17.5C3.55679 17.5 2.25022 16.1944 2.25 14.5837C2.25 12.9729 3.55665 11.6663 5.16748 11.6663C6.77812 11.6665 8.08374 12.973 8.08374 14.5837Z" fill="currentColor"/><path d="M12.5004 4.58295V6.25043H8.28902C7.43701 6.25043 7.13407 7.37741 7.87154 7.80438L12.9643 10.7536C15.1759 12.0344 14.2676 15.4163 11.7119 15.4167H7.50044V13.7504H11.7119C12.5636 13.75 12.8664 12.6221 12.1293 12.1953L7.03657 9.24725C4.82447 7.96649 5.73279 4.58295 8.28902 4.58295H12.5004Z" fill="currentColor"/></svg>