<svg width="24" height="24" viewBox="0 0 16 16" fill="currentColor" xmlns="http://www.w3.org/2000/svg"><path d="M7.59375 12.8457L3.48047 12.8457C3.27336 12.8457 3.10547 12.6778 3.10547 12.4707L3.10547 3.47559C3.10547 3.26848 3.27336 3.10059 3.48047 3.10059L12.6016 3.10059C12.8087 3.10059 12.9766 3.26848 12.9766 3.47559L12.9766 7.58887C12.9766 7.93395 13.2565 8.2138 13.6016 8.21387C13.9467 8.21387 14.2265 7.93399 14.2266 7.58887L14.2266 3.47559C14.2266 2.57812 13.499 1.85059 12.6016 1.85059L3.48047 1.85059C2.58301 1.85059 1.85547 2.57812 1.85547 3.47559L1.85547 12.4707C1.85547 13.3682 2.58301 14.0957 3.48047 14.0957L7.59375 14.0957C7.93893 14.0957 8.21875 13.8159 8.21875 13.4707C8.21875 13.1255 7.93893 12.8457 7.59375 12.8457Z" fill="currentColor"/><path d="M9.02316 6.89639C9.36813 6.89663 9.64816 7.17636 9.64816 7.52139C9.64803 7.86629 9.36804 8.14614 9.02316 8.14639H7.56222C7.21713 8.14639 6.93736 7.86645 6.93722 7.52139C6.93722 7.17621 7.21705 6.89639 7.56222 6.89639H9.02316ZM4.3757 4.72256C4.6105 4.4697 5.00556 4.45473 5.25851 4.68935L6.2214 5.58291C6.65812 5.98843 6.65812 6.68032 6.2214 7.08584L5.25851 7.97939C5.00555 8.21389 4.61046 8.199 4.3757 7.94619C4.14095 7.69324 4.156 7.29822 4.4089 7.06338L5.19308 6.33389L4.4089 5.60537C4.15605 5.37057 4.14108 4.97551 4.3757 4.72256Z" fill="currentColor"/><path d="M12.938 11.541C12.938 10.7581 12.3029 10.1232 11.52 10.123C10.737 10.123 10.1021 10.758 10.1021 11.541C10.1022 12.3239 10.7371 12.959 11.52 12.959V14.209L11.2466 14.1943C9.99125 14.0666 8.99319 13.0689 8.86572 11.8135L8.85205 11.541C8.85205 10.0677 10.0467 8.87305 11.52 8.87305L11.7925 8.88672C13.1377 9.0233 14.188 10.1597 14.188 11.541L14.1733 11.8135C14.0367 13.1586 12.9012 14.2089 11.52 14.209V12.959C12.3028 12.9589 12.9379 12.3238 12.938 11.541Z" fill="currentColor"/><path d="M12.5488 12.6135C12.7929 12.3694 13.1895 12.3694 13.4335 12.6135L14.6503 13.8312C14.8944 14.0753 14.8944 14.471 14.6503 14.715C14.4062 14.9591 14.0106 14.9591 13.7665 14.715L12.5488 13.4982C12.3047 13.2542 12.3047 12.8575 12.5488 12.6135Z" fill="currentColor"/></svg>