<svg width="24" height="24" viewBox="0 0 16 16" fill="currentColor" xmlns="http://www.w3.org/2000/svg"><path d="M12.7087 5.3335C12.7087 4.94229 12.391 4.62451 11.9998 4.62451H11.2917V6.7085H12.7087V5.3335ZM2.62769 11.3335C2.62786 12.0928 3.24339 12.7085 4.00269 12.7085H12.0027C12.762 12.7085 13.3775 12.0928 13.3777 11.3335V8.00244C13.3777 7.97813 13.358 7.95867 13.3337 7.9585H8.83081C8.13475 7.95843 7.46754 7.68115 6.97534 7.18896L6.14624 6.36084C5.88846 6.10316 5.53904 5.95858 5.17456 5.9585H2.66675C2.64518 5.9585 2.62769 5.97599 2.62769 5.99756V11.3335ZM13.9587 6.86963C14.3574 7.0902 14.6277 7.51456 14.6277 8.00244V11.3335C14.6275 12.7831 13.4524 13.9585 12.0027 13.9585H4.00269C2.55305 13.9585 1.37786 12.7831 1.37769 11.3335V5.99756C1.37769 5.51242 1.64572 5.08961 2.04175 4.86963V3.99951C2.04192 2.91821 2.91845 2.04168 3.99976 2.0415H9.33374C10.1963 2.04165 10.9272 2.59994 11.1882 3.37451H11.9998C13.0813 3.37451 13.9587 4.25194 13.9587 5.3335V6.86963ZM3.29175 4.7085H5.17456C5.87056 4.70858 6.53783 4.98495 7.03003 5.47705L7.85913 6.30518C8.11693 6.56296 8.46629 6.70843 8.83081 6.7085H10.0417V3.99951C10.0416 3.60856 9.7247 3.29168 9.33374 3.2915H3.99976C3.60881 3.29168 3.29192 3.60857 3.29175 3.99951V4.7085Z" fill="currentColor"/></svg>