<svg width="24" height="24" viewBox="0 0 16 16" fill="currentColor" xmlns="http://www.w3.org/2000/svg"><path d="M10.0415 8.53288C10.0415 7.96275 10.0408 7.57225 10.0161 7.27019C9.99201 6.97565 9.94869 6.81974 9.89209 6.70866C9.76027 6.45 9.54919 6.23987 9.29053 6.10808C9.17939 6.05151 9.02362 6.00715 8.729 5.98308C8.42689 5.95841 8.03654 5.95866 7.46631 5.95866H5.8667C5.29648 5.95866 4.90612 5.95841 4.604 5.98308C4.30934 6.00715 4.15358 6.05151 4.04248 6.10808C3.78381 6.23987 3.57275 6.45001 3.44092 6.70866C3.38432 6.81975 3.34099 6.97565 3.3169 7.27019C3.29222 7.57225 3.2915 7.96275 3.2915 8.53288V10.1335C3.2915 10.7038 3.29221 11.094 3.3169 11.3962C3.34098 11.6908 3.38433 11.8466 3.44092 11.9577C3.57274 12.2164 3.78375 12.4265 4.04248 12.5583C4.15359 12.6149 4.30922 12.6592 4.604 12.6833C4.90612 12.7079 5.29646 12.7087 5.8667 12.7087H7.46631C8.03656 12.7087 8.42689 12.7079 8.729 12.6833C9.02374 12.6592 9.17938 12.6149 9.29053 12.5583C9.54924 12.4265 9.76028 12.2164 9.89209 11.9577C9.94868 11.8466 9.99203 11.6908 10.0161 11.3962C10.0408 11.094 10.0415 10.7038 10.0415 10.1335V8.53288ZM11.2915 10.0339C11.4927 10.0281 11.5996 10.0187 11.689 9.9948C12.1634 9.86766 12.5345 9.4966 12.6616 9.02214C12.703 8.86735 12.7085 8.65918 12.7085 7.99968V5.86687C12.7085 5.29663 12.7078 4.90629 12.6831 4.60417C12.659 4.30939 12.6147 4.15376 12.5581 4.04265C12.4263 3.78392 12.2162 3.5729 11.9575 3.44108C11.8464 3.38449 11.6906 3.34114 11.396 3.31706C11.0939 3.29238 10.7036 3.29167 10.1333 3.29167H7.99951C7.33953 3.29167 7.13185 3.29707 6.97705 3.33855C6.50268 3.46574 6.13249 3.83677 6.00537 4.3112C5.98148 4.40053 5.97112 4.5074 5.96533 4.70866H7.46631C8.01586 4.70866 8.46578 4.70818 8.83057 4.73796C9.20269 4.76836 9.54123 4.83348 9.85791 4.9948C10.3518 5.24642 10.7537 5.64749 11.0054 6.14128C11.1667 6.45793 11.2318 6.79655 11.2622 7.16862C11.292 7.53338 11.2915 7.98334 11.2915 8.53288V10.0339ZM13.9585 7.99968C13.9585 8.57945 13.9634 8.99253 13.8687 9.34636C13.6259 10.252 12.9179 10.9591 12.0122 11.2018C11.7964 11.2596 11.5589 11.2786 11.2749 11.2858C11.2713 11.3594 11.2677 11.4301 11.2622 11.4977C11.2356 11.8233 11.182 12.123 11.061 12.405L11.0054 12.5251C10.7537 13.019 10.3519 13.4209 9.85791 13.6725C9.54131 13.8338 9.20258 13.899 8.83057 13.9294C8.46579 13.9591 8.01583 13.9587 7.46631 13.9587H5.8667C5.31719 13.9587 4.86722 13.9591 4.50244 13.9294C4.13044 13.899 3.79169 13.8338 3.4751 13.6725C3.04293 13.4523 2.68142 13.1169 2.4292 12.7057L2.32764 12.5251C2.16628 12.2084 2.10121 11.8699 2.0708 11.4977C2.041 11.1329 2.0415 10.6831 2.0415 10.1335V8.53288C2.0415 7.98334 2.041 7.53338 2.0708 7.16862C2.10122 6.79655 2.16631 6.45792 2.32764 6.14128C2.57931 5.64748 2.98126 5.24642 3.4751 4.9948C3.79177 4.83347 4.13033 4.76836 4.50244 4.73796C4.56983 4.73246 4.6401 4.72792 4.71338 4.72429C4.72063 4.44044 4.73957 4.20266 4.79736 3.98698C5.04014 3.08123 5.74806 2.37423 6.65381 2.13151C7.00759 2.03672 7.41992 2.04167 7.99951 2.04167H10.1333C10.6829 2.04167 11.1328 2.04117 11.4976 2.07097C11.8697 2.10137 12.2082 2.16645 12.5249 2.3278L12.7056 2.42937C13.1168 2.68159 13.4522 3.04309 13.6724 3.47526C13.8336 3.79186 13.8988 4.1306 13.9292 4.50261C13.959 4.86739 13.9585 5.31736 13.9585 5.86687V7.99968Z" fill="currentColor"/></svg>