<svg width="24" height="24" viewBox="0 0 16 16" fill="currentColor" xmlns="http://www.w3.org/2000/svg"><path d="M11.334 13.9331L10.667 13.9331C10.3356 13.9331 10.0674 13.6649 10.0674 13.3335C10.0674 13.0021 10.3356 12.7339 10.667 12.7339L11.334 12.7339C12.107 12.7337 12.7334 12.1066 12.7334 11.3335L12.7334 10.0005C12.7334 9.66912 13.0026 9.3999 13.334 9.3999C13.6652 9.40008 13.9336 9.66923 13.9336 10.0005L13.9336 11.3335C13.9336 12.7693 12.7698 13.9329 11.334 13.9331ZM11.334 3.26709L10.667 3.26709C10.3356 3.26709 10.0674 2.99787 10.0674 2.6665C10.0676 2.33528 10.3357 2.06689 10.667 2.06689L11.334 2.06689C12.7697 2.06707 13.9334 3.23082 13.9336 4.6665L13.9336 6.00049C13.9334 6.3316 13.6651 6.59992 13.334 6.6001C13.0027 6.6001 12.7336 6.33171 12.7334 6.00049L12.7334 4.6665C12.7332 3.89356 12.1069 3.26727 11.334 3.26709ZM5.33398 13.9331L4.66699 13.9331C3.23105 13.9331 2.06738 12.7694 2.06738 11.3335L2.06738 10.0005C2.06738 9.66912 2.33562 9.3999 2.66699 9.3999C2.99836 9.3999 3.2666 9.66912 3.2666 10.0005L3.2666 11.3335C3.2666 12.1067 3.89379 12.7339 4.66699 12.7339L5.33398 12.7339C5.66521 12.7341 5.93359 13.0022 5.93359 13.3335C5.93359 13.6648 5.66521 13.9329 5.33398 13.9331ZM5.33398 3.26709L4.66699 3.26709C3.8939 3.26709 3.26678 3.89346 3.2666 4.6665L3.2666 6.00049C3.26643 6.33171 2.99825 6.6001 2.66699 6.6001C2.33573 6.6001 2.06756 6.33171 2.06738 6.00049L2.06738 4.6665C2.06756 3.23071 3.23116 2.06689 4.66699 2.06689L5.33398 2.06689C5.6651 2.06707 5.93342 2.33539 5.93359 2.6665C5.93359 2.99777 5.66521 3.26691 5.33398 3.26709Z" fill="currentColor"/></svg>