<svg width="24" height="24" viewBox="0 0 28 28" fill="none" xmlns="http://www.w3.org/2000/svg"><path fill="#51BDEA" d="M0 0H28V28H0z"/><path fill-rule="evenodd" clip-rule="evenodd" d="M15.0085 4.57728C14.3897 4.22001 13.6273 4.22001 13.0085 4.57728L6.05225 8.59346C5.43344 8.95073 5.05225 9.61098 5.05225 10.3255V18.3579C5.05225 19.0724 5.43344 19.7327 6.05225 20.0899L13.0085 24.1061C13.6273 24.4634 14.3897 24.4634 15.0085 24.1061L21.9647 20.0899C22.5835 19.7327 22.9647 19.0724 22.9647 18.3579V10.3255C22.9647 9.61098 22.5835 8.95073 21.9647 8.59346L15.0085 4.57728ZM11.7992 9.19445C12.4933 8.91945 13.2354 8.78576 13.9819 8.8012C15.4497 8.83156 16.8471 9.43595 17.8744 10.4847C18.2167 10.8342 18.5088 11.2237 18.7462 11.6422L16.4115 12.9859C16.2906 12.7796 16.1435 12.5892 15.9737 12.4194C15.7122 12.1578 15.4016 11.9503 15.0599 11.8089C14.7181 11.6674 14.3518 11.5946 13.9819 11.5948C13.6119 11.5945 13.2454 11.6671 12.9035 11.8085C12.5616 11.9499 12.2509 12.1574 11.9893 12.4189C11.7276 12.6805 11.52 12.9911 11.3785 13.3329C11.2369 13.6748 11.1641 14.0412 11.1643 14.4112C11.164 14.7813 11.2366 15.1478 11.3781 15.4898C11.5196 15.8318 11.7271 16.1425 11.9888 16.4042C12.2505 16.6659 12.5613 16.8735 12.9033 17.015C13.2452 17.1565 13.6118 17.2291 13.9819 17.2288C14.3519 17.229 14.7183 17.1562 15.0601 17.0146C15.402 16.8731 15.7126 16.6655 15.9742 16.4038C16.1438 16.2341 16.2906 16.0438 16.4115 15.8377L18.7452 17.1821C18.508 17.5998 18.2162 17.9887 17.8744 18.3377C16.8471 19.3864 15.4497 19.9908 13.9819 20.0212C13.2354 20.0366 12.4933 19.9029 11.7992 19.628C11.105 19.353 10.4727 18.9422 9.93936 18.4197C9.40598 17.8973 8.98223 17.2736 8.69294 16.5853C8.40365 15.897 8.25464 15.1578 8.25464 14.4112C8.25464 13.6646 8.40365 12.9254 8.69294 12.2371C8.98223 11.5488 9.40598 10.9251 9.93936 10.4027C10.4727 9.8802 11.105 9.46944 11.7992 9.19445ZM19.5919 14.068V14.7088H18.9511V15.3508H18.3103V14.7088H17.6683V14.068H18.3103V13.4272H18.9511V14.068H19.5919ZM21.9511 14.0908V14.7316H21.3103V15.3736H20.6683V14.7316H20.0275V14.0908H20.6683V13.45H21.3103V14.0908H21.9511Z" fill="#0E2F4E"/></svg>