<svg width="24" height="24" viewBox="0 0 16 16" fill="currentColor" xmlns="http://www.w3.org/2000/svg"><g clip-path="url(#svg_2b55387dd0__svg_8bd2a323ea__clip0_11192_14589)"><path d="M9.33301 0.708008C9.6781 0.708008 9.95788 0.987942 9.95801 1.33301V2.04199H11.334C12.7835 2.0423 13.959 3.21744 13.959 4.66699V6.04199H14.666C15.0112 6.04199 15.291 6.32181 15.291 6.66699C15.2909 7.01206 15.0111 7.29199 14.666 7.29199H13.959V8.70801H14.666C15.0111 8.70801 15.2909 8.98794 15.291 9.33301C15.291 9.67819 15.0112 9.95801 14.666 9.95801H13.959V11.334C13.9587 12.7833 12.7833 13.9587 11.334 13.959H9.95801V14.666C9.95801 15.0112 9.67819 15.291 9.33301 15.291C8.98794 15.2909 8.70801 15.0111 8.70801 14.666V13.959H7.29199V14.666C7.29199 15.0111 7.01206 15.2909 6.66699 15.291C6.32181 15.291 6.04199 15.0112 6.04199 14.666V13.959H4.66699C3.21744 13.959 2.0423 12.7835 2.04199 11.334V9.95801H1.33301C0.987942 9.95788 0.708008 9.6781 0.708008 9.33301C0.70814 8.98802 0.988023 8.70814 1.33301 8.70801H2.04199V7.29199H1.33301C0.988023 7.29186 0.70814 7.01198 0.708008 6.66699C0.708008 6.3219 0.987942 6.04212 1.33301 6.04199H2.04199V4.66699C2.04199 3.21725 3.21725 2.04199 4.66699 2.04199H6.04199V1.33301C6.04212 0.987942 6.3219 0.708008 6.66699 0.708008C7.01198 0.70814 7.29186 0.988023 7.29199 1.33301V2.04199H8.70801V1.33301C8.70814 0.988023 8.98802 0.70814 9.33301 0.708008ZM4.66699 3.29199C3.9076 3.29199 3.29199 3.9076 3.29199 4.66699V11.334C3.2923 12.0931 3.90779 12.709 4.66699 12.709H6.65723C6.6604 12.7089 6.66381 12.708 6.66699 12.708C6.67026 12.708 6.67351 12.7089 6.67676 12.709H9.32324C9.3265 12.7089 9.32974 12.708 9.33301 12.708C9.33619 12.708 9.3396 12.7089 9.34277 12.709H11.334C12.093 12.7087 12.7087 12.093 12.709 11.334V9.3418C12.7089 9.33895 12.708 9.33586 12.708 9.33301C12.708 9.32974 12.7089 9.3265 12.709 9.32324V6.67578C12.7089 6.67285 12.708 6.66993 12.708 6.66699C12.708 6.66381 12.7089 6.6604 12.709 6.65723V4.66699C12.709 3.90779 12.0931 3.2923 11.334 3.29199H4.66699ZM10 5.375C10.3452 5.375 10.625 5.65482 10.625 6V10C10.625 10.3452 10.3452 10.625 10 10.625H6C5.65482 10.625 5.375 10.3452 5.375 10V6C5.375 5.65482 5.65482 5.375 6 5.375H10ZM6.625 9.375H9.375V6.625H6.625V9.375Z" fill="currentColor"/></g><defs><clipPath id="svg_2b55387dd0__svg_8bd2a323ea__clip0_11192_14589"><path fill="currentColor" d="M0 0H16V16H0z"/></clipPath></defs></svg>