<svg width="24" height="24" viewBox="0 0 16 16" fill="currentColor" xmlns="http://www.w3.org/2000/svg"><path fill-rule="evenodd" clip-rule="evenodd" d="M7.45403 1.07566C7.81381 0.999185 8.18605 0.9992 8.54583 1.07566C8.97539 1.167 9.36588 1.40095 9.91204 1.71629L12.4863 3.20164C12.9646 3.47779 13.3287 3.68224 13.6093 3.94773L13.7245 4.06492L13.8974 4.27879C14.0589 4.50108 14.1852 4.74786 14.2704 5.01023C14.4062 5.42791 14.3984 5.88355 14.3984 6.51414V9.48582C14.3984 10.1163 14.4061 10.5721 14.2704 10.9897C14.1568 11.3394 13.9704 11.6618 13.7245 11.935C13.4307 12.2612 13.0324 12.483 12.4863 12.7983L9.91204 14.2846C9.36604 14.5999 8.97531 14.834 8.54583 14.9253C8.1861 15.0017 7.81376 15.0017 7.45403 14.9253C7.02456 14.8339 6.63391 14.5999 6.08782 14.2846L3.51361 12.7983C2.9675 12.483 2.56915 12.2613 2.27532 11.935C2.02946 11.6618 1.84405 11.3394 1.7304 10.9897C1.59476 10.5721 1.60149 10.1165 1.6015 9.48582V6.51414C1.60149 5.88358 1.5948 5.42783 1.7304 5.01023C1.84405 4.66064 2.0294 4.33814 2.27532 4.06492C2.56917 3.73857 2.96744 3.51696 3.51361 3.20164L6.08782 1.71629C6.63389 1.40101 7.02459 1.16706 7.45403 1.07566ZM2.86321 5.75535C2.85381 5.92229 2.8515 6.15594 2.8515 6.51414V9.48582C2.8515 10.2008 2.85885 10.4192 2.91888 10.604C2.97842 10.7871 3.07609 10.9559 3.20501 11.0991C3.33498 11.2433 3.51982 11.359 4.13861 11.7163L6.71282 13.2016C7.02264 13.3805 7.22575 13.4953 7.37493 13.5708V8.36082L2.86321 5.75535ZM8.62493 8.36082V13.5708C8.77409 13.4953 8.97717 13.3806 9.28704 13.2016L11.8613 11.7163C12.4797 11.3592 12.6648 11.2432 12.7949 11.0991L12.8857 10.9868C12.9702 10.8704 13.0364 10.7412 13.081 10.604C13.141 10.4193 13.1484 10.2008 13.1484 9.48582V6.51414C13.1484 6.15519 13.1461 5.92136 13.1367 5.75437L8.62493 8.36082ZM8.28607 2.29832C8.09764 2.25828 7.90222 2.25827 7.7138 2.29832C7.52398 2.33879 7.33123 2.44128 6.71282 2.79832L4.13861 4.28465C3.82838 4.46376 3.62702 4.58166 3.48724 4.67332L7.99993 7.27781L12.5117 4.67234C12.3719 4.58077 12.1706 4.46325 11.8613 4.28465L9.28704 2.79832C8.66833 2.4411 8.47599 2.33874 8.28607 2.29832Z" fill="currentColor"/></svg>