<svg width="24" height="24" viewBox="0 0 16 16" fill="currentColor" xmlns="http://www.w3.org/2000/svg"><path d="M8.13013 7.37207C8.47612 7.3722 8.7561 7.65301 8.7561 7.99902C8.7561 8.34504 8.47612 8.62585 8.13013 8.62598L1.32642 8.62598C0.980317 8.62598 0.699463 8.34512 0.699463 7.99902C0.699463 7.65292 0.980318 7.37207 1.32642 7.37207L8.13013 7.37207Z" fill="currentColor"/><path d="M14.4324 4.54296C14.6771 4.29838 15.0737 4.29897 15.3183 4.54365C15.563 4.78833 15.5636 5.18487 15.319 5.42961L13.4684 7.28024C13.2237 7.52497 12.8265 7.52497 12.5818 7.28024C12.337 7.03551 12.337 6.63832 12.5818 6.39359L14.4324 4.54296Z" fill="currentColor"/><path d="M14.4324 11.5293C14.6771 11.7739 15.0737 11.7733 15.3183 11.5286C15.563 11.2839 15.5636 10.8874 15.319 10.6427L13.4684 8.79203C13.2237 8.5473 12.8265 8.5473 12.5818 8.79203C12.337 9.03676 12.337 9.43395 12.5818 9.67867L14.4324 11.5293Z" fill="currentColor"/><path d="M10.4436 2.36719C10.4437 2.0212 10.7245 1.74121 11.0706 1.74121C11.4166 1.74121 11.6974 2.0212 11.6975 2.36719L11.6975 13.5967C11.6975 13.9428 11.4167 14.2236 11.0706 14.2236C10.7245 14.2236 10.4436 13.9428 10.4436 13.5967L10.4436 2.36719Z" fill="currentColor"/><path d="M5.85469 4.7104C6.09942 4.46567 6.49668 4.46567 6.74141 4.7104L9.55879 7.52876C9.80352 7.77349 9.80352 8.16977 9.55879 8.4145L6.74141 11.2329C6.49668 11.4776 6.09942 11.4776 5.85469 11.2329C5.60996 10.9881 5.60996 10.5909 5.85469 10.3461L8.22969 7.97114L5.85469 5.59712C5.60996 5.35239 5.60996 4.95513 5.85469 4.7104Z" fill="currentColor"/></svg>