<svg width="24" height="24" viewBox="0 0 16 16" fill="currentColor" xmlns="http://www.w3.org/2000/svg"><g clip-path="url(#svg_e3ed55e3ab__clip0_2001_70100)" fill="currentColor"><path opacity=".2" d="M6.49966 12.4996C6.49966 14.1563 5.15667 15.4993 3.50002 15.4993C1.84337 15.4993 0.500389 14.1563 0.500389 12.4996C0.500389 10.843 1.84337 9.5 3.50002 9.5C5.15667 9.5 6.49966 10.843 6.49966 12.4996ZM1.70024 12.4996C1.70024 13.4936 2.50603 14.2994 3.50002 14.2994C4.49401 14.2994 5.2998 13.4936 5.2998 12.4996C5.2998 11.5056 4.49401 10.6999 3.50002 10.6999C2.50603 10.6999 1.70024 11.5056 1.70024 12.4996Z"/><path fill-rule="evenodd" clip-rule="evenodd" d="M5.21166 13.0558C5.29943 12.7857 5.32202 12.4986 5.27759 12.2181C5.23316 11.9376 5.12297 11.6715 4.95602 11.4417C4.78908 11.212 4.57012 11.025 4.31705 10.896C4.06399 10.7671 3.78399 10.6999 3.49997 10.6999V9.5C3.84154 9.5 4.17961 9.55833 4.49985 9.67155C4.62342 9.71524 4.74434 9.7671 4.86177 9.82694C5.28355 10.0418 5.64848 10.3535 5.92672 10.7365C6.20497 11.1195 6.38862 11.5628 6.46267 12.0304C6.48329 12.1606 6.49525 12.2916 6.49862 12.4226C6.50732 12.7618 6.45846 13.1009 6.35318 13.4254L6.35279 13.4266L5.21166 13.0558Z"/></g><defs><clipPath id="svg_e3ed55e3ab__clip0_2001_70100"><path fill="currentColor" transform="translate(.5 9.5)" d="M0 0H5.999V5.999H0z"/></clipPath></defs></svg>