<svg width="24" height="24" viewBox="0 0 16 16" fill="currentColor" xmlns="http://www.w3.org/2000/svg"><path d="M0.500397 10.3993C0.500565 9.90246 0.903558 9.50002 1.40043 9.5L5.59963 9.5C6.09652 9.5 6.4995 9.90245 6.49966 10.3993L6.49966 14.5992C6.4996 15.0962 6.09658 15.4993 5.59963 15.4993L1.40043 15.4993C0.903497 15.4992 0.500466 15.0962 0.500397 14.5992L0.500397 10.3993ZM4.01413 12.9493L3.26422 13.6992L3.90062 14.3356L4.21845 14.017L5.73657 12.4996L5.41874 12.1811L4.21845 10.9815L3.90062 10.6629L3.26422 11.2993L3.58205 11.6179L4.0134 12.0492L1.45096 12.0492L1.45096 12.9493L4.01413 12.9493Z" fill="currentColor"/></svg>