<svg width="24" height="24" viewBox="0 0 16 16" fill="currentColor" xmlns="http://www.w3.org/2000/svg"><path fill-rule="evenodd" clip-rule="evenodd" d="M3.99992 2C2.52716 2 1.33325 3.19391 1.33325 4.66667C1.33325 6.13943 2.52716 7.33333 3.99992 7.33333C4.68329 7.33333 5.30661 7.07627 5.77849 6.6536L7.79812 8L5.77849 9.3464C5.30662 8.92373 4.68329 8.66667 3.99992 8.66667C2.52716 8.66667 1.33325 9.8606 1.33325 11.3333C1.33325 12.8061 2.52716 14 3.99992 14C5.47268 14 6.66659 12.8061 6.66659 11.3333C6.66659 11.0257 6.61451 10.7303 6.51869 10.4554L14.9245 4.85157C14.516 4.23886 13.6881 4.0733 13.0755 4.48177L8.99992 7.1988L6.51869 5.5446C6.61451 5.26968 6.66659 4.97425 6.66659 4.66667C6.66659 3.19391 5.47268 2 3.99992 2ZM2.66659 4.66667C2.66659 3.93029 3.26354 3.33333 3.99992 3.33333C4.7363 3.33333 5.33325 3.93029 5.33325 4.66667C5.33325 5.40305 4.7363 6 3.99992 6C3.26354 6 2.66659 5.40305 2.66659 4.66667ZM2.66659 11.3333C2.66659 10.5969 3.26354 10 3.99992 10C4.7363 10 5.33325 10.5969 5.33325 11.3333C5.33325 12.0697 4.7363 12.6667 3.99992 12.6667C3.26354 12.6667 2.66659 12.0697 2.66659 11.3333Z" fill="currentColor"/><path d="M13.0754 11.5185L9.60083 9.20215L10.8027 8.40088L14.9244 11.1487C14.516 11.7614 13.6881 11.927 13.0754 11.5185Z" fill="currentColor"/></svg>