<svg width="24" height="24" viewBox="0 0 16 16" fill="currentColor" xmlns="http://www.w3.org/2000/svg"><path fill-rule="evenodd" clip-rule="evenodd" d="M11.3329 5.02311C11.3331 5.01541 11.3333 5.00768 11.3333 4.99992V4.66659C11.3333 2.82564 9.84085 1.33325 7.99992 1.33325C6.15897 1.33325 4.66658 2.82564 4.66658 4.66659V4.99992C4.66658 5.00768 4.66672 5.01541 4.66698 5.02311C4.51837 5.10904 4.37882 5.2089 4.25013 5.3209L2.37615 4.70038C2.02662 4.58464 1.64945 4.77417 1.53371 5.12369C1.41797 5.47322 1.6075 5.85039 1.95703 5.96613L3.47635 6.46921C3.38359 6.74019 3.33325 7.03085 3.33325 7.33325V7.99992H1.99992C1.63173 7.99992 1.33325 8.29839 1.33325 8.66659C1.33325 9.03479 1.63173 9.33325 1.99992 9.33325H3.33325V9.99992C3.33325 10.2864 3.35906 10.5668 3.40847 10.8389L1.93876 11.3734C1.59273 11.4992 1.41423 11.8817 1.54006 12.2277C1.66589 12.5738 2.04839 12.7523 2.39441 12.6265L3.83304 12.1033C4.50656 13.4349 5.79964 14.4 7.33325 14.6193V8.66659C7.33325 8.29839 7.63172 7.99992 7.99992 7.99992C8.36812 7.99992 8.66658 8.29839 8.66658 8.66659V14.6193C10.2002 14.4 11.4933 13.4349 12.1668 12.1033L13.6055 12.6265C13.9515 12.7523 14.334 12.5738 14.4598 12.2277C14.5856 11.8817 14.4071 11.4992 14.0611 11.3734L12.5914 10.8389C12.6408 10.5668 12.6666 10.2864 12.6666 9.99992V9.33325H13.9999C14.3681 9.33325 14.6666 9.03479 14.6666 8.66659C14.6666 8.29839 14.3681 7.99992 13.9999 7.99992H12.6666V7.33325C12.6666 7.01892 12.6122 6.71725 12.5123 6.43721L14.0293 5.97044C14.3812 5.86216 14.5787 5.48911 14.4705 5.13719C14.3622 4.78529 13.9891 4.58779 13.6372 4.69607L11.7118 5.28851C11.5937 5.18957 11.467 5.10067 11.3329 5.02311ZM7.99992 2.66659C6.89532 2.66659 5.99992 3.56202 5.99992 4.66659H9.99992C9.99992 3.56202 9.10452 2.66659 7.99992 2.66659Z" fill="currentColor"/></svg>