<svg width="24" height="24" viewBox="0 0 16 16" fill="currentColor" xmlns="http://www.w3.org/2000/svg"><path d="M7.375 8.66699C7.375 8.32181 7.65482 8.04199 8 8.04199C8.34518 8.04199 8.625 8.32181 8.625 8.66699V13.3164C10.1903 13.0232 11.375 11.6504 11.375 10V7.33301C11.3748 6.57376 10.7593 5.95801 10 5.95801H6C5.24072 5.95801 4.62518 6.57377 4.625 7.33301V10C4.625 11.6504 5.80972 13.0232 7.375 13.3164V8.66699ZM10.042 4.66699C10.042 3.53941 9.12756 2.625 8 2.625C6.87242 2.625 5.95801 3.53941 5.95801 4.66699V4.70996C5.97199 4.70974 5.98597 4.70801 6 4.70801H10C10.014 4.70801 10.028 4.70974 10.042 4.70996V4.66699ZM11.292 5C11.292 5.01584 11.2883 5.03133 11.2871 5.04688C11.4342 5.12986 11.5725 5.22618 11.7002 5.33496L13.6494 4.73633C13.9793 4.63483 14.3291 4.81957 14.4307 5.14941C14.5321 5.47919 14.3472 5.82899 14.0176 5.93066L12.4551 6.41113C12.563 6.69826 12.625 7.00819 12.625 7.33301V8.04199H14C14.3452 8.04199 14.625 8.32181 14.625 8.66699C14.6248 9.01202 14.3451 9.29199 14 9.29199H12.625V10C12.625 10.2959 12.5951 10.5848 12.542 10.8652L14.0469 11.4131C14.3712 11.5311 14.5388 11.8895 14.4209 12.2139C14.3029 12.5381 13.9444 12.7047 13.6201 12.5869L12.1445 12.0508C11.3885 13.5758 9.8175 14.625 8 14.625C6.18234 14.625 4.61047 13.576 3.85449 12.0508L2.37988 12.5869C2.0556 12.7047 1.69711 12.5381 1.5791 12.2139C1.46115 11.8895 1.6288 11.5311 1.95312 11.4131L3.45703 10.8652C3.40396 10.5849 3.375 10.2958 3.375 10V9.29199H2C1.65493 9.29199 1.37518 9.01202 1.375 8.66699C1.375 8.32181 1.65482 8.04199 2 8.04199H3.375V7.33301C3.37504 7.02074 3.43214 6.72212 3.53223 6.44434L1.96973 5.92676C1.6423 5.8181 1.46478 5.46427 1.57324 5.13672C1.68179 4.8091 2.03564 4.63174 2.36328 4.74023L4.2627 5.36816C4.40055 5.2462 4.55054 5.13798 4.71191 5.04688C4.71076 5.03136 4.70801 5.01581 4.70801 5V4.66699C4.70801 2.84905 6.18206 1.375 8 1.375C9.81791 1.375 11.292 2.84905 11.292 4.66699V5Z" fill="currentColor"/></svg>