<svg xmlns="http://www.w3.org/2000/svg" width="24" height="24" fill="none" viewBox="0 0 16 16"><path fill="#5370fe" d="M15.323 3.306c-.158-.077-.227.07-.319.146-.032.024-.059.056-.085.085-.232.247-.503.41-.856.39-.517-.029-.958.133-1.349.528-.082-.487-.358-.778-.777-.965-.22-.097-.441-.193-.595-.405-.107-.15-.136-.318-.19-.482-.034-.1-.069-.202-.183-.218-.124-.02-.173.084-.222.172-.195.356-.27.749-.263 1.147.017.895.395 1.608 1.146 2.115.085.058.107.116.08.2-.05.175-.112.345-.165.52-.035.112-.086.135-.206.087a3.5 3.5 0 0 1-1.082-.735c-.534-.516-1.016-1.086-1.618-1.532a7 7 0 0 0-.43-.294c-.614-.596.081-1.086.242-1.144.168-.061.058-.27-.486-.267-.543.002-1.04.184-1.674.426a2 2 0 0 1-.29.086 6 6 0 0 0-1.797-.064C3.029 3.233 2.09 3.79 1.4 4.737.57 5.877.376 7.172.615 8.522c.251 1.424.978 2.602 2.095 3.524C3.868 13 5.2 13.469 6.723 13.38c.923-.054 1.952-.178 3.112-1.16.293.146.6.204 1.11.248.393.036.77-.02 1.063-.08.458-.098.426-.522.26-.6-1.342-.625-1.048-.37-1.316-.577.683-.807 1.711-1.646 2.114-4.365.031-.216.004-.352 0-.526-.002-.106.022-.148.143-.16.338-.035.665-.135.963-.296.87-.476 1.222-1.256 1.305-2.192.012-.144-.002-.29-.154-.366M7.74 11.732c-1.302-1.023-1.933-1.36-2.194-1.346-.244.014-.2.293-.146.475.056.18.129.303.23.46.072.105.12.26-.07.377-.42.259-1.148-.088-1.182-.104-.848-.5-1.558-1.16-2.058-2.062a6.3 6.3 0 0 1-.81-2.792c-.012-.241.058-.326.298-.37.314-.06.636-.068.953-.024 1.329.195 2.46.789 3.408 1.73.541.535.95 1.176 1.373 1.801.448.665.93 1.298 1.545 1.817.217.182.39.32.556.422-.5.056-1.334.068-1.904-.383m.623-4.014a.19.19 0 0 1 .26-.18.19.19 0 0 1 .124.18.19.19 0 0 1-.193.192.19.19 0 0 1-.19-.192m1.939.995c-.125.05-.249.094-.368.1a.78.78 0 0 1-.497-.159c-.17-.143-.293-.223-.344-.472a1.1 1.1 0 0 1 .01-.367c.043-.204-.005-.335-.15-.453-.116-.097-.265-.124-.428-.124a.35.35 0 0 1-.158-.049.16.16 0 0 1-.071-.223.7.7 0 0 1 .12-.13c.221-.127.477-.086.714.01.219.089.385.253.623.487.244.28.288.359.428.57.11.164.209.334.277.528.042.121-.012.22-.156.282"/></svg>