<svg width="25.5" height="24" viewBox="0 0 17 16" fill="none" xmlns="http://www.w3.org/2000/svg"><path d="M8.6386 3.12979C9.13221 3.12758 9.23255 3.31631 9.08 3.37198C8.93381 3.42467 8.30212 3.8707 8.86028 4.41299C8.99341 4.49702 9.1233 4.58605 9.24993 4.6796C9.79719 5.08523 10.2361 5.60307 10.7216 6.07218C10.913 6.26459 11.1299 6.42894 11.3632 6.56535C10.8399 6.65025 10.3441 6.81668 9.8886 7.0507C9.82668 7.00657 9.76499 6.96853 9.69622 6.94035C9.48163 6.85428 9.24842 6.81645 9.0468 6.93058C9.02869 6.94416 8.95343 7.01905 8.93743 7.04972C8.88875 7.14481 8.93965 7.22217 9.00188 7.25285C9.04561 7.27893 9.09558 7.29384 9.14641 7.29679C9.23781 7.29681 9.32362 7.30808 9.40129 7.33586C8.74577 7.77256 8.19955 8.36018 7.81145 9.04875C7.56722 8.69952 7.30975 8.35968 7.0048 8.05754C6.14246 7.20264 5.11502 6.6621 3.90713 6.48527C3.61906 6.44524 3.3256 6.45306 3.03994 6.50773C2.82282 6.54739 2.75919 6.62442 2.77041 6.84269C2.81234 7.74649 3.06718 8.59339 3.50577 9.38274C3.95962 10.2026 4.60476 10.8023 5.37589 11.2568C5.40706 11.2721 6.06973 11.5872 6.45109 11.3515C6.62382 11.2456 6.58008 11.1043 6.51554 11.0097C6.42261 10.8663 6.3556 10.7539 6.3046 10.5907C6.25591 10.4253 6.2164 10.1727 6.43839 10.1591C6.5781 10.1516 6.83413 10.2556 7.26359 10.5322C7.20217 10.8453 7.16985 11.1688 7.16984 11.4999C7.16984 11.9804 7.23866 12.4449 7.36515 12.8847C6.04137 12.9296 4.87659 12.5064 3.86026 11.6679C2.84547 10.8305 2.18438 9.75885 1.95596 8.46476C1.73893 7.23739 1.91715 6.0592 2.6708 5.02335C3.29807 4.16169 4.15067 3.656 5.21866 3.53702C5.76299 3.47387 6.31395 3.49317 6.85246 3.59463C6.94212 3.57578 7.03058 3.55027 7.11613 3.51748C7.69228 3.29711 8.14455 3.13205 8.6386 3.12979ZM11.3691 2.88467C11.4726 2.89995 11.504 2.99238 11.5351 3.08291C11.5838 3.23251 11.6105 3.3858 11.7079 3.52237C11.8479 3.71427 12.0496 3.80218 12.249 3.89053C12.6298 4.06053 12.8806 4.32436 12.956 4.76749C13.3107 4.40831 13.7119 4.26095 14.1816 4.28702C14.5028 4.30452 14.7491 4.15745 14.9599 3.93252C14.9842 3.90651 15.0082 3.87745 15.0371 3.85538C15.1209 3.78682 15.1832 3.65238 15.3271 3.72256C15.4648 3.79113 15.4781 3.92524 15.4667 4.05557C15.3913 4.90643 15.072 5.61547 14.2812 6.04777C14.0097 6.19369 13.7118 6.28549 13.4052 6.3173C13.2951 6.32812 13.2731 6.3666 13.2753 6.46281C13.2768 6.51966 13.2799 6.57208 13.2831 6.62492C12.9251 6.54351 12.5525 6.49992 12.1699 6.49992C12.0933 6.49992 12.0171 6.50236 11.9413 6.50577C11.9759 6.40048 12.0117 6.29583 12.0429 6.18937C12.0671 6.11251 12.0472 6.05936 11.9697 6.00675C11.2869 5.54606 10.9439 4.89759 10.9286 4.08389C10.9219 3.72263 10.9898 3.36583 11.1669 3.0419C11.2111 2.96258 11.2558 2.86716 11.3691 2.88467Z" fill="#D1D3DB"/><path fill-rule="evenodd" clip-rule="evenodd" d="M12.1699 15.25C14.241 15.25 15.9199 13.5711 15.9199 11.5C15.9199 9.42893 14.241 7.75 12.1699 7.75C10.0989 7.75 8.41992 9.42893 8.41992 11.5C8.41992 13.5711 10.0989 15.25 12.1699 15.25ZM13.2949 10.75C13.2949 11.3713 12.7912 11.875 12.1699 11.875C11.5486 11.875 11.0449 11.3713 11.0449 10.75C11.0449 10.1287 11.5486 9.625 12.1699 9.625C12.7912 9.625 13.2949 10.1287 13.2949 10.75ZM12.17 14.5C11.3306 14.5 10.5717 14.1553 10.0272 13.5996C10.5266 13.0019 11.2718 12.625 12.17 12.625C13.0682 12.625 13.8134 13.0019 14.3128 13.5996C13.7683 14.1553 13.0094 14.5 12.17 14.5Z" fill="#82D99F"/></svg>