<svg width="24" height="24" viewBox="0 0 16 16" fill="none" xmlns="http://www.w3.org/2000/svg"><path d="M7.9688 3.12979C8.46241 3.12758 8.56275 3.31631 8.4102 3.37198C8.26401 3.42467 7.63232 3.8707 8.19048 4.41299C8.32361 4.49702 8.45351 4.58605 8.58013 4.6796C9.12739 5.08523 9.56632 5.60307 10.0518 6.07218C10.2432 6.26459 10.4601 6.42894 10.6934 6.56535C10.1701 6.65025 9.6743 6.81668 9.2188 7.0507C9.15688 7.00657 9.09519 6.96853 9.02642 6.94035C8.81183 6.85428 8.57862 6.81645 8.377 6.93058C8.35889 6.94416 8.28363 7.01905 8.26763 7.04972C8.21895 7.14481 8.26985 7.22217 8.33208 7.25285C8.37581 7.27893 8.42578 7.29384 8.47661 7.29679C8.56801 7.29681 8.65382 7.30808 8.73149 7.33586C8.07597 7.77256 7.52975 8.36018 7.14165 9.04875C6.89742 8.69952 6.63995 8.35968 6.335 8.05754C5.47266 7.20264 4.44523 6.6621 3.23733 6.48527C2.94926 6.44524 2.6558 6.45306 2.37014 6.50773C2.15302 6.54739 2.08939 6.62442 2.10061 6.84269C2.14254 7.74649 2.39738 8.59339 2.83597 9.38274C3.28982 10.2026 3.93496 10.8023 4.70609 11.2568C4.73726 11.2721 5.39993 11.5872 5.78129 11.3515C5.95402 11.2456 5.91028 11.1043 5.84574 11.0097C5.75281 10.8663 5.6858 10.7539 5.6348 10.5907C5.58611 10.4253 5.5466 10.1727 5.76859 10.1591C5.9083 10.1516 6.16433 10.2556 6.59379 10.5322C6.53237 10.8453 6.50005 11.1688 6.50004 11.4999C6.50004 11.9804 6.56886 12.4449 6.69536 12.8847C5.37157 12.9296 4.20679 12.5064 3.19046 11.6679C2.17567 10.8305 1.51458 9.75885 1.28616 8.46476C1.06913 7.23739 1.24735 6.0592 2.001 5.02335C2.62827 4.16169 3.48087 3.656 4.54886 3.53702C5.09319 3.47387 5.64415 3.49317 6.18266 3.59463C6.27232 3.57578 6.36078 3.55027 6.44633 3.51748C7.02248 3.29711 7.47475 3.13205 7.9688 3.12979ZM10.6993 2.88467C10.8028 2.89995 10.8342 2.99238 10.8653 3.08291C10.914 3.23251 10.9407 3.3858 11.0381 3.52237C11.1781 3.71427 11.3798 3.80218 11.5792 3.89053C11.96 4.06053 12.2108 4.32436 12.2862 4.76749C12.6409 4.40831 13.0421 4.26095 13.5118 4.28702C13.833 4.30452 14.0793 4.15745 14.2901 3.93252C14.3144 3.90651 14.3384 3.87745 14.3673 3.85538C14.4511 3.78682 14.5134 3.65238 14.6573 3.72256C14.795 3.79113 14.8083 3.92524 14.7969 4.05557C14.7215 4.90643 14.4022 5.61547 13.6114 6.04777C13.3399 6.19369 13.042 6.28549 12.7354 6.3173C12.6253 6.32812 12.6033 6.3666 12.6055 6.46281C12.607 6.51966 12.6101 6.57208 12.6133 6.62492C12.2553 6.54351 11.8827 6.49992 11.5001 6.49992C11.4235 6.49992 11.3473 6.50236 11.2715 6.50577C11.3061 6.40048 11.3419 6.29583 11.3731 6.18937C11.3973 6.11251 11.3774 6.05936 11.2999 6.00675C10.6171 5.54606 10.2741 4.89759 10.2588 4.08389C10.2521 3.72263 10.32 3.36583 10.4971 3.0419C10.5413 2.96258 10.586 2.86716 10.6993 2.88467Z" fill="#26292C"/><path fill-rule="evenodd" clip-rule="evenodd" d="M11.5 15.25C13.5711 15.25 15.25 13.5711 15.25 11.5C15.25 9.42893 13.5711 7.75 11.5 7.75C9.42893 7.75 7.75 9.42893 7.75 11.5C7.75 13.5711 9.42893 15.25 11.5 15.25ZM12.625 10.75C12.625 11.3713 12.1213 11.875 11.5 11.875C10.8787 11.875 10.375 11.3713 10.375 10.75C10.375 10.1287 10.8787 9.625 11.5 9.625C12.1213 9.625 12.625 10.1287 12.625 10.75ZM11.5001 14.5C10.6607 14.5 9.9018 14.1553 9.3573 13.5996C9.8567 13.0019 10.6018 12.625 11.5001 12.625C12.3983 12.625 13.1435 13.0019 13.6429 13.5996C13.0983 14.1553 12.3395 14.5 11.5001 14.5Z" fill="#4DA621"/></svg>