<svg width="24" height="24" viewBox="0 0 16 16" fill="currentColor" xmlns="http://www.w3.org/2000/svg"><path d="M14.6572 3.72246C14.5133 3.65219 14.451 3.78649 14.3671 3.85506C14.3382 3.87715 14.3138 3.90605 14.2895 3.93212C14.0787 4.15708 13.8327 4.30441 13.5114 4.28685C13.0417 4.26078 12.6405 4.40811 12.2858 4.76737C12.2104 4.32425 11.9599 4.06018 11.5792 3.89019C11.3797 3.80179 11.178 3.71396 11.038 3.52186C10.9405 3.3853 10.9139 3.23287 10.8652 3.08327C10.834 2.99261 10.8028 2.90024 10.6991 2.88494C10.5858 2.86737 10.5416 2.96201 10.4974 3.04134C10.32 3.36546 10.2515 3.72246 10.2583 4.08398C10.2736 4.8977 10.617 5.54595 11.2998 6.00665C11.3774 6.05934 11.3973 6.11261 11.3729 6.18968C11.3264 6.34834 11.2709 6.50247 11.2222 6.6617C11.191 6.76313 11.1445 6.78466 11.0357 6.74103C10.6681 6.58304 10.3342 6.35606 10.052 6.07238C9.56639 5.60319 9.1278 5.08526 8.58041 4.67954C8.45358 4.58582 8.32335 4.4968 8.18998 4.41264C7.63183 3.87035 8.26365 3.42496 8.40985 3.37226C8.56284 3.31673 8.46255 3.12747 7.96842 3.12974C7.4743 3.132 7.02211 3.2969 6.44582 3.51733C6.36018 3.55014 6.27207 3.5761 6.18232 3.59496C5.64379 3.49349 5.09301 3.474 4.54866 3.53716C3.48051 3.65616 2.62769 4.16162 2.00041 5.0235C1.24675 6.05934 1.06939 7.23685 1.28642 8.46423C1.51478 9.75847 2.1755 10.83 3.19038 11.6675C4.24323 12.5362 5.4553 12.9618 6.83851 12.8802C7.67829 12.832 8.61384 12.7192 9.66839 11.8262C9.93472 11.9588 10.2135 12.0115 10.677 12.0512C11.034 12.0846 11.3774 12.0342 11.6432 11.9786C12.0597 11.8902 12.0308 11.5043 11.8806 11.4341C10.6595 10.8651 10.9275 11.0969 10.6833 10.9093C11.3043 10.175 12.2393 9.41224 12.6054 6.94106C12.6337 6.74443 12.6093 6.6209 12.6054 6.46224C12.6031 6.36591 12.6252 6.32794 12.7357 6.31717C13.0423 6.28537 13.3397 6.19393 13.6112 6.04801C14.4022 5.61565 14.7218 4.9062 14.7972 4.05508C14.8085 3.92475 14.7949 3.79102 14.6572 3.72246ZM7.76273 11.3825C6.57898 10.4521 6.00496 10.1455 5.7681 10.1585C5.54597 10.1721 5.5862 10.4254 5.63493 10.5909C5.68593 10.7541 5.75223 10.8663 5.84516 11.0096C5.90976 11.1043 5.95396 11.2454 5.78113 11.3513C5.39977 11.5871 4.73735 11.272 4.70619 11.2567C3.93497 10.8023 3.28955 10.2027 2.83566 9.38278C2.39707 8.59343 2.14207 7.74684 2.10014 6.84303C2.0888 6.6243 2.15284 6.54724 2.37043 6.50757C2.65609 6.4529 2.94878 6.44544 3.23685 6.48547C4.44496 6.66227 5.47287 7.20229 6.33532 8.05737C6.82718 8.5447 7.19947 9.12665 7.5831 9.69557C7.99109 10.2996 8.42968 10.8753 8.9884 11.3468C9.1856 11.5123 9.34256 11.6381 9.49329 11.7304C9.03883 11.7814 8.28065 11.7928 7.76273 11.3825ZM8.32938 7.73325C8.32928 7.7051 8.33604 7.67735 8.34906 7.65239C8.36209 7.62744 8.381 7.60603 8.40415 7.59002C8.4273 7.57401 8.454 7.56388 8.48195 7.5605C8.50989 7.55711 8.53824 7.56059 8.56454 7.57061C8.59807 7.58264 8.627 7.60483 8.64732 7.63408C8.66763 7.66334 8.67832 7.6982 8.67787 7.73381C8.67795 7.75682 8.67345 7.77962 8.66463 7.80087C8.6558 7.82212 8.64284 7.84141 8.62649 7.8576C8.61014 7.87379 8.59073 7.88656 8.56939 7.89518C8.54806 7.90379 8.52522 7.90808 8.50221 7.90777C8.47938 7.90785 8.45675 7.90338 8.43567 7.8946C8.41459 7.88583 8.39546 7.87294 8.37942 7.85669C8.36338 7.84044 8.35074 7.82115 8.34225 7.79995C8.33375 7.77876 8.329 7.75608 8.32938 7.73325ZM10.0917 8.63763C9.97835 8.68353 9.86558 8.72319 9.75735 8.72829C9.59452 8.73397 9.43475 8.68311 9.30516 8.58436C9.1499 8.45403 9.03883 8.3815 8.99237 8.15484C8.97635 8.04407 8.97941 7.93138 9.00143 7.82164C9.0411 7.63635 8.9969 7.51735 8.866 7.40968C8.76004 7.32129 8.62461 7.29692 8.47614 7.29692C8.42531 7.29397 8.37594 7.27881 8.33221 7.25272C8.26988 7.22212 8.21888 7.14506 8.26762 7.04986C8.28348 7.01926 8.35828 6.94446 8.37641 6.93086C8.57814 6.8164 8.81104 6.8538 9.0258 6.93993C9.22526 7.02153 9.37599 7.17112 9.59302 7.38305C9.81458 7.63861 9.85482 7.70945 9.98118 7.90097C10.0809 8.05114 10.1716 8.20527 10.2333 8.3815C10.2713 8.492 10.2226 8.58209 10.0917 8.63763Z" fill="currentColor"/></svg>