<svg width="25.5" height="24" viewBox="0 0 17 16" fill="none" xmlns="http://www.w3.org/2000/svg"><path d="M14.6035 4.64941V7.13184C14.2302 6.92342 13.8277 6.761 13.4033 6.65332V6.02539L12.5332 6.51367C12.4132 6.50506 12.2921 6.5 12.1699 6.5C10.4732 6.5 8.97425 7.34541 8.07031 8.6377V8.34961L3.93652 6.02441V10.6494L7.27539 12.5264C7.41377 13.1896 7.68389 13.8044 8.05664 14.3428L2.7373 11.3506V4.64941L8.37598 1.47754L8.66992 1.31152L14.6035 4.64941ZM4.56055 4.99902L8.66992 7.31055L12.7793 5L8.66992 2.6875L4.56055 4.99902Z" fill="#D1D3DB"/><path fill-rule="evenodd" clip-rule="evenodd" d="M12.1699 15.25C14.241 15.25 15.9199 13.5711 15.9199 11.5C15.9199 9.42893 14.241 7.75 12.1699 7.75C10.0989 7.75 8.41992 9.42893 8.41992 11.5C8.41992 13.5711 10.0989 15.25 12.1699 15.25ZM13.2949 10.75C13.2949 11.3713 12.7912 11.875 12.1699 11.875C11.5486 11.875 11.0449 11.3713 11.0449 10.75C11.0449 10.1287 11.5486 9.625 12.1699 9.625C12.7912 9.625 13.2949 10.1287 13.2949 10.75ZM12.17 14.5C11.3306 14.5 10.5717 14.1553 10.0272 13.5996C10.5266 13.0019 11.2718 12.625 12.17 12.625C13.0682 12.625 13.8134 13.0019 14.3128 13.5996C13.7683 14.1553 13.0094 14.5 12.17 14.5Z" fill="#82D99F"/></svg>