<svg width="24" height="24" viewBox="0 0 16 16" fill="none" xmlns="http://www.w3.org/2000/svg"><path d="M13.9336 4.64941V7.13184C13.5603 6.92342 13.1578 6.761 12.7334 6.65332V6.02539L11.8633 6.51367C11.7433 6.50506 11.6222 6.5 11.5 6.5C9.80327 6.5 8.30433 7.34541 7.40039 8.6377V8.34961L3.2666 6.02441V10.6494L6.60547 12.5264C6.74385 13.1896 7.01397 13.8044 7.38672 14.3428L2.06738 11.3506V4.64941L7.70605 1.47754L8 1.31152L13.9336 4.64941ZM3.89062 4.99902L8 7.31055L12.1094 5L8 2.6875L3.89062 4.99902Z" fill="#26292C"/><path fill-rule="evenodd" clip-rule="evenodd" d="M11.5 15.25C13.5711 15.25 15.25 13.5711 15.25 11.5C15.25 9.42893 13.5711 7.75 11.5 7.75C9.42893 7.75 7.75 9.42893 7.75 11.5C7.75 13.5711 9.42893 15.25 11.5 15.25ZM12.625 10.75C12.625 11.3713 12.1213 11.875 11.5 11.875C10.8787 11.875 10.375 11.3713 10.375 10.75C10.375 10.1287 10.8787 9.625 11.5 9.625C12.1213 9.625 12.625 10.1287 12.625 10.75ZM11.5001 14.5C10.6607 14.5 9.9018 14.1553 9.3573 13.5996C9.8567 13.0019 10.6018 12.625 11.5001 12.625C12.3983 12.625 13.1435 13.0019 13.6429 13.5996C13.0983 14.1553 12.3395 14.5 11.5001 14.5Z" fill="#4DA621"/></svg>