<svg width="24" height="24" viewBox="0 0 16 16" fill="currentColor" xmlns="http://www.w3.org/2000/svg"><path d="M12.7093 3.71037C13.0536 3.73412 13.314 4.03204 13.2903 4.37639L12.7522 12.1811C12.6571 13.5573 11.5126 14.6254 10.1331 14.6254H5.8665C4.4871 14.6253 3.34345 13.5572 3.24833 12.1811L2.71025 4.37639C2.6865 4.03203 2.94597 3.73412 3.29033 3.71037C3.63469 3.68662 3.93259 3.94609 3.95634 4.29045L4.49541 12.0951C4.54535 12.8158 5.14411 13.3753 5.8665 13.3754H10.1331C10.8556 13.3754 11.4552 12.8159 11.5052 12.0951L12.0433 4.29045C12.067 3.9462 12.365 3.68681 12.7093 3.71037Z" fill="currentColor"/><path d="M6.04175 10.6664V7.33337C6.04175 6.9882 6.32157 6.70837 6.66675 6.70837C7.01193 6.70837 7.29175 6.9882 7.29175 7.33337V10.6664C7.29175 11.0116 7.01193 11.2914 6.66675 11.2914C6.32157 11.2914 6.04175 11.0116 6.04175 10.6664Z" fill="currentColor"/><path d="M8.70825 10.6664V7.33337C8.70825 6.9882 8.98807 6.70837 9.33325 6.70837C9.67843 6.70837 9.95825 6.9882 9.95825 7.33337V10.6664C9.95825 11.0116 9.67843 11.2914 9.33325 11.2914C8.98807 11.2914 8.70825 11.0116 8.70825 10.6664Z" fill="currentColor"/><path d="M13.6663 3.375C14.0114 3.375 14.2913 3.65482 14.2913 4C14.2913 4.34518 14.0114 4.625 13.6663 4.625H2.33325C1.98807 4.625 1.70825 4.34518 1.70825 4C1.70825 3.65482 1.98807 3.375 2.33325 3.375H13.6663Z" fill="currentColor"/><path d="M7.99982 1.04163C9.60636 1.04163 10.9429 2.19191 11.2332 3.7135C11.2979 4.05257 11.0752 4.38028 10.7361 4.44495C10.3972 4.50933 10.0703 4.28677 10.0057 3.94788C9.82576 3.00456 8.9952 2.29163 7.99982 2.29163C7.00455 2.29174 6.17482 3.00466 5.99493 3.94788C5.93027 4.28694 5.60255 4.50961 5.26349 4.44495C4.92445 4.38026 4.70176 4.05255 4.76642 3.7135C5.05664 2.19193 6.39335 1.04174 7.99982 1.04163Z" fill="currentColor"/></svg>