<svg width="24" height="24" viewBox="0 0 16 16" fill="currentColor" xmlns="http://www.w3.org/2000/svg"><path fill-rule="evenodd" clip-rule="evenodd" d="M8.42126 2.29491C9.82199 1.50115 11.6323 1.16244 14.0474 1.33495C14.3782 1.35857 14.6413 1.62168 14.6649 1.95242C14.8374 4.36755 14.4987 6.17784 13.7049 7.5786C12.9794 8.859 11.9119 9.72927 10.6666 10.4044V11.0801C10.6666 11.8585 10.3264 12.5981 9.73539 13.1047L8.10046 14.5061C7.93219 14.6503 7.70333 14.7015 7.48966 14.6427C7.27606 14.5839 7.10566 14.4228 7.03486 14.2129L7.03326 14.2083L7.02693 14.1899C7.02113 14.1731 7.01219 14.1477 7.00026 14.1143C6.97639 14.0476 6.94059 13.9497 6.89393 13.8282C6.80039 13.5845 6.66407 13.2481 6.49359 12.878C6.14285 12.1166 5.6831 11.2926 5.19519 10.8047C4.70728 10.3167 3.88327 9.857 3.12184 9.50627C2.75173 9.3358 2.41533 9.19947 2.17168 9.10594C2.05009 9.05927 1.95221 9.0234 1.88552 8.99953C1.85219 8.9876 1.82669 8.97867 1.80997 8.97287L1.79159 8.96653L1.78756 8.9652C1.57763 8.8944 1.41597 8.7238 1.35717 8.5102C1.29836 8.29653 1.34955 8.06767 1.49375 7.8994L2.89511 6.26448C3.40173 5.67342 4.14133 5.33325 4.91979 5.33325H5.59543C6.27058 4.0879 7.14079 3.02048 8.42126 2.29491ZM10.3333 6.99993C11.0697 6.99993 11.6666 6.40297 11.6666 5.66659C11.6666 4.93021 11.0697 4.33325 10.3333 4.33325C9.59686 4.33325 8.99993 4.93021 8.99993 5.66659C8.99993 6.40297 9.59686 6.99993 10.3333 6.99993Z" fill="currentColor"/><path d="M3.47149 11.1953C3.73184 11.4556 3.73184 11.8777 3.47149 12.138L1.80482 13.8047C1.54447 14.065 1.12236 14.065 0.862009 13.8047C0.601661 13.5444 0.601661 13.1223 0.862009 12.8619L2.52868 11.1953C2.78903 10.9349 3.21114 10.9349 3.47149 11.1953Z" fill="currentColor"/><path d="M4.80482 13.4713C5.06517 13.211 5.06517 12.7888 4.80482 12.5285C4.54447 12.2682 4.12236 12.2682 3.86201 12.5285L2.86201 13.5285C2.60166 13.7888 2.60166 14.211 2.86201 14.4713C3.12236 14.7316 3.54447 14.7316 3.80482 14.4713L4.80482 13.4713Z" fill="currentColor"/></svg>