<svg width="24" height="24" viewBox="0 0 16 16" fill="currentColor" xmlns="http://www.w3.org/2000/svg"><path d="M3.89082 12.5583C4.1349 12.3142 4.53151 12.3142 4.77559 12.5583C5.01926 12.8023 5.01942 13.1981 4.77559 13.442L3.77559 14.442C3.53151 14.6861 3.1349 14.6861 2.89082 14.442C2.64699 14.1981 2.64715 13.8023 2.89082 13.5583L3.89082 12.5583ZM9.3752 9.99966C9.37529 9.76319 9.5085 9.54697 9.71992 9.44107C10.988 8.80702 11.9553 8.04661 12.5813 6.94204C13.1571 5.92588 13.4786 4.55387 13.4045 2.59439C11.4455 2.52044 10.0738 2.84287 9.05781 3.41861C7.95333 4.04451 7.19281 5.01102 6.55879 6.27896C6.45297 6.4906 6.2368 6.62454 6.0002 6.62466H4.92012C4.5188 6.62466 4.1374 6.8005 3.87617 7.10513L3.05098 8.06704C3.23666 8.14389 3.44407 8.23214 3.66231 8.33267C4.44517 8.69328 5.4487 9.23138 6.1086 9.89126C6.76846 10.5512 7.30658 11.5547 7.66719 12.3376C7.7675 12.5553 7.8551 12.7625 7.93184 12.9479L8.89473 12.1237L9.00313 12.0211C9.24094 11.7676 9.3752 11.431 9.3752 11.0797V9.99966ZM2.55781 11.2243C2.80181 10.9804 3.19755 10.9805 3.4416 11.2243C3.68564 11.4683 3.68555 11.864 3.4416 12.1081L1.77559 13.7751C1.53151 14.0191 1.1349 14.0191 0.890822 13.7751C0.647102 13.531 0.647037 13.1353 0.890822 12.8913L2.55781 11.2243ZM10.7082 5.66665C10.7082 5.45955 10.5403 5.29165 10.3332 5.29165C10.1261 5.29165 9.95821 5.45955 9.95821 5.66665C9.95823 5.87374 10.1261 6.04165 10.3332 6.04165C10.5403 6.04165 10.7082 5.87374 10.7082 5.66665ZM10.6252 11.0797C10.6252 11.846 10.2899 12.5742 9.70821 13.0729L8.07344 14.4743C7.91571 14.6095 7.70049 14.6573 7.5002 14.6022C7.30029 14.547 7.14077 14.3964 7.07442 14.1999V14.1989C7.07416 14.1981 7.07311 14.1969 7.07246 14.195C7.07114 14.1911 7.06948 14.1847 7.0666 14.1764C7.06076 14.1596 7.05124 14.1337 7.03926 14.1002C7.01529 14.0333 6.9796 13.935 6.93281 13.8131C6.83905 13.569 6.7023 13.2319 6.53145 12.861C6.1804 12.0989 5.71825 11.2685 5.22481 10.7751C4.73134 10.2816 3.901 9.81947 3.13887 9.46841C2.76794 9.29756 2.43092 9.16082 2.18672 9.06704C2.06492 9.02027 1.96657 8.98457 1.89961 8.9606C1.86614 8.94862 1.84029 8.9391 1.82344 8.93326C1.81511 8.93037 1.80876 8.92872 1.80488 8.9274C1.80294 8.92673 1.80176 8.92571 1.80098 8.92544C1.60411 8.85912 1.45279 8.69898 1.39766 8.49868C1.34266 8.29848 1.39046 8.08407 1.52559 7.92642L2.92695 6.29165C3.42565 5.70992 4.15385 5.37466 4.92012 5.37466H5.62324C6.29753 4.12504 7.16307 3.05522 8.4416 2.33072C9.83288 1.54236 11.6343 1.20452 14.0441 1.37661C14.3542 1.39876 14.6011 1.64564 14.6232 1.95572C14.7953 4.36558 14.4566 6.16698 13.6682 7.55826C12.9437 8.83645 11.8745 9.70145 10.6252 10.3756V11.0797ZM11.9582 5.66665C11.9582 6.56411 11.2306 7.29165 10.3332 7.29165C9.43578 7.29165 8.70823 6.56411 8.70821 5.66665C8.70821 4.76918 9.43577 4.04165 10.3332 4.04165C11.2306 4.04165 11.9582 4.76918 11.9582 5.66665Z" fill="currentColor"/></svg>