<svg width="24" height="24" viewBox="0 0 16 16" fill="currentColor" xmlns="http://www.w3.org/2000/svg"><path d="M4.00122 2.70801C4.34625 2.70808 4.62609 2.98799 4.62622 3.33301V11.1562L5.55786 10.2246C5.80186 9.98069 6.19756 9.98076 6.44165 10.2246C6.68571 10.4685 6.6864 10.8642 6.44263 11.1084L4.4436 13.1084C4.32646 13.2256 4.16693 13.2909 4.00122 13.291C3.83563 13.291 3.67698 13.2254 3.55981 13.1084L1.55884 11.1084C1.31482 10.8645 1.31407 10.4688 1.55786 10.2246C1.80186 9.98069 2.19756 9.98076 2.44165 10.2246L3.37622 11.1582V3.33301C3.37635 2.98797 3.65617 2.70806 4.00122 2.70801ZM13.3342 10.708C13.679 10.7084 13.9591 10.9882 13.9592 11.333C13.9592 11.6779 13.679 11.9576 13.3342 11.958H10.6672C10.3221 11.958 10.0422 11.6782 10.0422 11.333C10.0424 10.9879 10.3221 10.708 10.6672 10.708H13.3342ZM13.3333 7.375C13.6784 7.375 13.9583 7.65482 13.9583 8C13.9583 8.34518 13.6784 8.625 13.3333 8.625H9.33325C8.98808 8.62499 8.70825 8.34517 8.70825 8C8.70825 7.65483 8.98808 7.37501 9.33325 7.375H13.3333ZM13.3333 4.04199C13.6783 4.04212 13.9583 4.32189 13.9583 4.66699C13.9581 5.01198 13.6782 5.29187 13.3333 5.29199H8.00024C7.65515 5.29199 7.37538 5.01206 7.37524 4.66699C7.37524 4.32181 7.65507 4.04199 8.00024 4.04199H13.3333Z" fill="currentColor"/></svg>