<svg width="24" height="24" viewBox="0 0 16 16" fill="currentColor" xmlns="http://www.w3.org/2000/svg"><path d="M6.39575 1.34009C8.81655 1.46277 10.7644 3.37321 10.9475 5.77759H12.4446C13.6718 5.77763 14.6661 6.77307 14.6663 8.00024V12.4446L14.6643 12.5588C14.6047 13.7329 13.6334 14.6662 12.4446 14.6663H8.00024C6.77307 14.6661 5.77763 13.6718 5.77759 12.4446V10.9465C3.37312 10.7635 1.46277 8.81662 1.34009 6.39575L1.33325 6.14868C1.33325 3.48953 3.48953 1.33325 6.14868 1.33325L6.39575 1.34009ZM8.00024 7.03149C7.46531 7.03161 7.03161 7.46531 7.03149 8.00024V12.4446C7.03154 12.9796 7.46527 13.4132 8.00024 13.4133H12.4446C12.9796 13.4133 13.4133 12.9796 13.4133 12.4446V8.00024C13.4132 7.46527 12.9796 7.03154 12.4446 7.03149H8.00024ZM6.14868 2.58618C4.18173 2.58618 2.58618 4.18173 2.58618 6.14868C2.58649 7.99017 3.98501 9.50527 5.77759 9.69067V8.00024C5.7777 6.77312 6.77312 5.7777 8.00024 5.77759H9.69067C9.50527 3.98501 7.99017 2.58649 6.14868 2.58618Z" fill="currentColor"/></svg>