<svg width="24" height="24" viewBox="0 0 16 16" fill="currentColor" xmlns="http://www.w3.org/2000/svg"><path d="M8 1.37305C11.6598 1.37305 14.627 4.3402 14.627 8C14.627 8.4108 14.5886 8.81354 14.5166 9.2041C14.3485 10.1146 13.519 10.6269 12.7148 10.627H9.33301C8.94296 10.6271 8.62713 10.943 8.62695 11.333V12.667C8.62677 13.6998 7.74555 14.7363 6.53906 14.4648C3.58235 13.7993 1.37305 11.1584 1.37305 8C1.37305 4.3402 4.34019 1.37305 8 1.37305ZM8 2.62695C5.03239 2.62695 2.62695 5.03239 2.62695 8C2.62695 10.5596 4.41708 12.7026 6.81445 13.2422C6.95341 13.2735 7.07713 13.2353 7.18066 13.1387C7.29113 13.0354 7.37296 12.8658 7.37305 12.667V11.333C7.37322 10.2508 8.25077 9.37322 9.33301 9.37305H12.7148C13.0405 9.373 13.2472 9.17696 13.2842 8.97656C13.3425 8.66019 13.373 8.33387 13.373 8C13.373 5.03239 10.9676 2.62695 8 2.62695ZM4.69922 7.93359C5.19624 7.93359 5.59956 8.336 5.59961 8.83301C5.59961 9.33006 5.19627 9.7334 4.69922 9.7334C4.20232 9.73321 3.7998 9.32995 3.7998 8.83301C3.79986 8.33611 4.20235 7.93378 4.69922 7.93359ZM11.5 6.2002C11.997 6.2002 12.4003 6.6026 12.4004 7.09961C12.4004 7.59667 11.9971 8 11.5 8C11.0031 7.99982 10.6006 7.59655 10.6006 7.09961C10.6006 6.60271 11.0031 6.20038 11.5 6.2002ZM5.5 4.5332C5.99706 4.5332 6.40039 4.93654 6.40039 5.43359C6.40018 5.93047 5.99693 6.33301 5.5 6.33301C5.00323 6.33282 4.6008 5.93036 4.60059 5.43359C4.60059 4.93665 5.0031 4.53339 5.5 4.5332ZM8.90039 3.7334C9.39727 3.73361 9.7998 4.13686 9.7998 4.63379C9.79959 5.13054 9.39714 5.53299 8.90039 5.5332C8.40346 5.5332 8.00021 5.13067 8 4.63379C8 4.13673 8.40333 3.7334 8.90039 3.7334Z" fill="currentColor"/></svg>