<svg width="24" height="24" viewBox="0 0 16 16" fill="currentColor" xmlns="http://www.w3.org/2000/svg"><path d="M8.37297 10.6668V5.66683C8.37297 5.27655 8.05687 4.96045 7.66659 4.96045H6.33325C5.98715 4.96045 5.7063 4.67959 5.7063 4.3335C5.7063 3.9874 5.98715 3.70654 6.33325 3.70654H7.66659C8.74906 3.70654 9.62687 4.58435 9.62687 5.66683V10.6668C9.62687 11.0571 9.94297 11.3732 10.3333 11.3732H12.6666C13.0127 11.3732 13.2935 11.6541 13.2935 12.0002C13.2935 12.3463 13.0127 12.6271 12.6666 12.6271H10.3333C9.25077 12.6271 8.37297 11.7493 8.37297 10.6668Z" fill="currentColor"/><path d="M11.5566 9.89009C11.8013 9.64536 12.1986 9.64536 12.4433 9.89009L14.0156 11.463C14.3121 11.7598 14.3121 12.2405 14.0156 12.5372L12.4433 14.1101C12.1986 14.3549 11.8013 14.3549 11.5566 14.1101C11.3119 13.8654 11.3119 13.4682 11.5566 13.2234L12.7799 12.0001L11.5566 10.7768C11.3119 10.5321 11.3119 10.1348 11.5566 9.89009Z" fill="currentColor"/><path d="M5.08016 4.33333C5.08016 3.73687 4.59655 3.25326 4.00008 3.25326C3.40361 3.25326 2.92 3.73687 2.92 4.33333C2.92 4.9298 3.40361 5.41341 4.00008 5.41341V6.66667C2.71142 6.66667 1.66675 5.622 1.66675 4.33333C1.66675 3.04467 2.71142 2 4.00008 2C5.28875 2 6.33341 3.04467 6.33341 4.33333C6.33341 5.622 5.28875 6.66667 4.00008 6.66667V5.41341C4.59655 5.41341 5.08016 4.9298 5.08016 4.33333Z" fill="currentColor"/></svg>