<svg width="24" height="24" viewBox="0 0 16 16" fill="currentColor" xmlns="http://www.w3.org/2000/svg"><path d="M7.5 4C7.5 3.2268 6.87283 2.59961 6.09961 2.59961H4.09961C3.32641 2.59961 2.69922 3.2268 2.69922 4V11C2.69922 12.3255 3.77413 13.4004 5.09961 13.4004C6.42509 13.4004 7.5 12.3255 7.5 11V4ZM8.69922 11C8.69922 12.9882 7.08783 14.5996 5.09961 14.5996C3.11139 14.5996 1.5 12.9882 1.5 11V4C1.5 2.56406 2.66367 1.40039 4.09961 1.40039H6.09961C7.53559 1.40039 8.69922 2.56407 8.69922 4V11Z" fill="currentColor"/><path d="M7.91311 2.23256C8.0788 1.94558 8.44645 1.84714 8.73342 2.01283L10.7656 3.18568C12.0091 3.90366 12.4346 5.49396 11.7168 6.73744L8.21682 12.7999C8.05116 13.0868 7.68442 13.1852 7.39749 13.0197C7.11059 12.854 7.01228 12.4873 7.17776 12.2003L10.6778 6.13783C11.0643 5.46823 10.8346 4.61233 10.1651 4.22572L8.13284 3.05189C7.84604 2.88622 7.74765 2.51945 7.91311 2.23256Z" fill="currentColor"/><path d="M11.9188 4.8136C12.2058 4.64793 12.5725 4.74636 12.7381 5.03333L13.912 7.06555C14.6299 8.30917 14.2035 9.89943 12.9598 10.6173L7.06627 14.0197C6.77937 14.1851 6.41261 14.0867 6.24694 13.7999C6.08129 13.513 6.17973 13.1463 6.46666 12.9806L12.3602 9.57825C13.0298 9.19172 13.2595 8.33486 12.8729 7.66516L11.6991 5.63294C11.5335 5.34599 11.6319 4.97926 11.9188 4.8136Z" fill="currentColor"/><path d="M6.09961 11C6.09961 11.5523 5.6519 12 5.09961 12C4.54732 12 4.09961 11.5523 4.09961 11C4.09961 10.4477 4.54732 10 5.09961 10C5.6519 10 6.09961 10.4477 6.09961 11Z" fill="currentColor"/></svg>