<svg width="24" height="24" viewBox="0 0 16 16" fill="currentColor" xmlns="http://www.w3.org/2000/svg"><path d="M2.22363 11.2393C2.69399 11.2872 3.06136 11.684 3.06152 12.167C3.06139 12.6822 2.64315 13.1004 2.12793 13.1006C1.64502 13.1003 1.24809 12.733 1.2002 12.2627L1.19531 12.167L1.2002 12.0723C1.24784 11.6017 1.64484 11.2347 2.12793 11.2344L2.22363 11.2393ZM14.8047 12.7666H4.44531V11.5664H14.8047V12.7666ZM2.22363 7.07227C2.69399 7.12022 3.06136 7.51702 3.06152 8C3.06139 8.51523 2.64315 8.9334 2.12793 8.93359C1.64502 8.93331 1.24809 8.56604 1.2002 8.0957L1.19531 8L1.2002 7.90527C1.24784 7.43468 1.64484 7.06767 2.12793 7.06738L2.22363 7.07227ZM14.8047 8.59961H4.44531V7.39941H14.8047V8.59961ZM2.22363 2.90527C2.69399 2.95322 3.06136 3.35003 3.06152 3.83301C3.06139 4.34824 2.64315 4.7664 2.12793 4.7666C1.64502 4.76631 1.24809 4.39905 1.2002 3.92871L1.19531 3.83301L1.2002 3.73828C1.24784 3.26769 1.64484 2.90068 2.12793 2.90039L2.22363 2.90527ZM14.8047 4.43262H4.44531V3.2334H14.8047V4.43262Z" fill="currentColor"/></svg>