<svg width="24" height="24" viewBox="0 0 16 16" fill="currentColor" xmlns="http://www.w3.org/2000/svg"><path d="M6.62012 14.5828V14.0349H3.64355C2.74614 14.0349 2.01862 13.3073 2.01855 12.4099V3.60718C2.0186 2.70975 2.74612 1.98218 3.64355 1.98218H6.62012V1.41772C6.62012 1.07258 6.89998 0.792778 7.24512 0.792725C7.5903 0.792725 7.87012 1.07255 7.87012 1.41772V14.5828C7.86996 14.9278 7.5902 15.2078 7.24512 15.2078C6.90008 15.2077 6.62027 14.9278 6.62012 14.5828ZM3.26855 12.4099C3.26862 12.617 3.43649 12.7849 3.64355 12.7849H6.62012V11.2234H4.97949C4.63439 11.2234 4.35462 10.9435 4.35449 10.5984C4.35449 10.2532 4.63431 9.97339 4.97949 9.97339H6.62012V8.6228H4.97949C4.63431 8.6228 4.35449 8.34298 4.35449 7.9978C4.35468 7.65278 4.63443 7.3728 4.97949 7.3728H6.62012V6.02319H4.97949C4.63433 6.02319 4.35452 5.74335 4.35449 5.39819C4.3545 5.05302 4.63431 4.77319 4.97949 4.77319H6.62012V3.23218H3.64355C3.43647 3.23218 3.2686 3.40011 3.26855 3.60718V12.4099Z" fill="currentColor"/><path d="M13.9814 12.4099V3.60718C13.9814 2.70972 13.2539 1.98218 12.3564 1.98218H9.47461C9.12947 1.98222 8.84961 2.26203 8.84961 2.60718C8.84961 2.95233 9.12947 3.23214 9.47461 3.23218H12.3564C12.5636 3.23218 12.7314 3.40007 12.7314 3.60718V12.4099C12.7313 12.6169 12.5635 12.7849 12.3564 12.7849H9.47461C9.12947 12.785 8.84961 13.0648 8.84961 13.4099C8.84972 13.755 9.12953 14.0349 9.47461 14.0349H12.3564C13.2538 14.0349 13.9813 13.3073 13.9814 12.4099ZM9.47461 7.3728C9.12955 7.37284 8.84975 7.65277 8.84961 7.9978C8.84961 8.34296 9.12947 8.62276 9.47461 8.6228H11.0205C11.3657 8.6228 11.6455 8.34298 11.6455 7.9978C11.6454 7.65275 11.3656 7.3728 11.0205 7.3728H9.47461ZM9.47461 4.77319C9.12946 4.77323 8.84961 5.05304 8.84961 5.39819C8.84967 5.7433 9.1295 6.02315 9.47461 6.02319H11.0205C11.3656 6.02319 11.6454 5.74331 11.6455 5.39819C11.6455 5.05302 11.3657 4.77319 11.0205 4.77319H9.47461Z" fill="currentColor"/></svg>