<svg width="24" height="24" viewBox="0 0 16 16" fill="currentColor" xmlns="http://www.w3.org/2000/svg"><path d="M11.3096 2.54688C11.6261 2.56912 11.9333 2.66805 12.2041 2.83594C12.5131 3.02755 12.7627 3.30158 12.9248 3.62695L14.084 5.93848C14.2203 6.21065 14.291 6.51101 14.291 6.81543V11.5C14.291 12.0192 14.0849 12.5176 13.7178 12.8848C13.3505 13.2519 12.8523 13.459 12.333 13.459H3.66602C3.14684 13.4588 2.64837 13.2519 2.28125 12.8848C1.91425 12.5176 1.70807 12.0191 1.70801 11.5V6.81543C1.70806 6.51099 1.77965 6.21066 1.91602 5.93848L3.07422 3.62695C3.23632 3.30162 3.48603 3.02756 3.79492 2.83594C4.10448 2.64397 4.46192 2.54223 4.82617 2.54199H11.1738L11.3096 2.54688ZM2.95801 11.5C2.95807 11.6876 3.03246 11.8682 3.16504 12.001C3.29774 12.1337 3.47836 12.2088 3.66602 12.209H12.333C12.5208 12.209 12.7012 12.1337 12.834 12.001C12.9667 11.8682 13.041 11.6877 13.041 11.5V7.13379H2.95801V11.5ZM8.67383 8.82031C9.08785 8.82054 9.42383 9.15624 9.42383 9.57031C9.4237 9.98428 9.08777 10.3201 8.67383 10.3203H8.66699C8.25286 10.3203 7.91712 9.98441 7.91699 9.57031C7.91699 9.1561 8.25278 8.82031 8.66699 8.82031H8.67383ZM11.0068 8.82031C11.421 8.8204 11.7568 9.15616 11.7568 9.57031C11.7567 9.98436 11.4209 10.3202 11.0068 10.3203H11C10.5859 10.3203 10.2501 9.98441 10.25 9.57031C10.25 9.1561 10.5858 8.82031 11 8.82031H11.0068ZM4.72852 3.79883C4.63154 3.81249 4.53795 3.84648 4.4541 3.89844C4.34224 3.96788 4.25097 4.06763 4.19238 4.18555L4.19141 4.1875L3.34082 5.88379H12.6582L11.8076 4.1875L11.8066 4.18555C11.748 4.06762 11.6578 3.96788 11.5459 3.89844C11.4618 3.84632 11.3678 3.81244 11.2705 3.79883L11.1729 3.79199H4.82715L4.72852 3.79883Z" fill="currentColor"/></svg>