<svg width="24" height="24" viewBox="0 0 16 16" fill="currentColor" xmlns="http://www.w3.org/2000/svg"><path d="M14.0414 4.6665C14.0412 4.27545 13.7245 3.9585 13.3334 3.9585H10.0004C9.28843 3.9585 8.70263 4.49954 8.6322 5.19287L8.62537 5.3335V12.4517C9.10959 12.1669 9.65106 12.0415 10.1849 12.0415H13.3334C13.7246 12.0415 14.0414 11.7247 14.0414 11.3335V4.6665ZM1.95837 11.3335C1.95837 11.7246 2.27532 12.0413 2.66638 12.0415H5.8158C6.34988 12.0416 6.89104 12.1675 7.37537 12.4526V5.3335C7.37537 4.57421 6.75963 3.95867 6.00037 3.9585H2.66638C2.27544 3.95867 1.95855 4.27556 1.95837 4.6665V11.3335ZM15.2914 11.3335C15.2914 12.4151 14.415 13.2915 13.3334 13.2915H10.1849C9.8312 13.2915 9.50309 13.3769 9.22888 13.5464C8.94185 13.7238 8.7099 13.9779 8.55896 14.2798C8.45312 14.4914 8.23692 14.6254 8.00037 14.6255C7.76363 14.6255 7.54667 14.4915 7.4408 14.2798C7.28983 13.9779 7.05798 13.7238 6.77087 13.5464C6.49679 13.377 6.16935 13.2916 5.8158 13.2915H2.66638C1.58498 13.2913 0.708374 12.415 0.708374 11.3335V4.6665C0.70855 3.5852 1.58508 2.70867 2.66638 2.7085H6.00037C6.80156 2.70859 7.51797 3.06838 7.99939 3.63428C8.48088 3.06793 9.19874 2.7085 10.0004 2.7085H13.3334C14.4148 2.7085 15.2912 3.5851 15.2914 4.6665V11.3335Z" fill="currentColor"/></svg>