<svg width="24" height="24" viewBox="0 0 16 16" fill="none" xmlns="http://www.w3.org/2000/svg"><g clip-path="url(#svg_6de424483e__clip0_11192_14693)"><path d="M14.0413 8.3335V4.6665C14.0411 4.27545 13.7244 3.9585 13.3333 3.9585H10.0002C9.28831 3.9585 8.70251 4.49954 8.63208 5.19287L8.62524 5.3335V12.4526C8.77156 12.3666 8.92278 12.2938 9.07837 12.2358C9.40177 12.1154 9.76152 12.2797 9.88208 12.603C10.0025 12.9264 9.83826 13.2862 9.51489 13.4067C9.41487 13.444 9.31901 13.4906 9.22876 13.5464C8.94173 13.7238 8.70977 13.9779 8.55884 14.2798C8.45299 14.4914 8.2368 14.6254 8.00024 14.6255C7.76351 14.6255 7.54654 14.4915 7.44067 14.2798C7.28971 13.9779 7.05786 13.7238 6.77075 13.5464C6.49667 13.377 6.16923 13.2916 5.81567 13.2915H2.66626C1.58486 13.2913 0.708252 12.415 0.708252 11.3335V4.6665C0.708428 3.5852 1.58496 2.70867 2.66626 2.7085H6.00024C6.80143 2.70859 7.51785 3.06838 7.99927 3.63428C8.48076 3.06793 9.19862 2.7085 10.0002 2.7085H13.3333C14.4147 2.7085 15.2911 3.5851 15.2913 4.6665V8.3335C15.2913 8.67867 15.0114 8.9585 14.6663 8.9585C14.3212 8.95832 14.0413 8.67857 14.0413 8.3335ZM1.95825 11.3335C1.95825 11.7246 2.2752 12.0413 2.66626 12.0415H5.81567C6.34976 12.0416 6.89092 12.1675 7.37524 12.4526V5.3335C7.37524 4.57421 6.75951 3.95867 6.00024 3.9585H2.66626C2.27532 3.95867 1.95843 4.27556 1.95825 4.6665V11.3335Z" fill="#262626"/><path d="M14.2859 12.5947C14.2859 12.1214 13.9018 11.7375 13.4285 11.7373C12.955 11.7373 12.571 12.1213 12.571 12.5947C12.5712 13.068 12.9551 13.4521 13.4285 13.4521V15.166L13.1648 15.1533C11.9545 15.0303 10.9928 14.0677 10.8699 12.8574L10.8562 12.5947C10.8562 11.1743 12.008 10.0225 13.4285 10.0225L13.6912 10.0361C14.988 10.1679 15.9998 11.2631 15.9998 12.5947L15.9871 12.8574C15.8553 14.1542 14.7599 15.1658 13.4285 15.166V13.4521C13.9017 13.452 14.2857 13.0679 14.2859 12.5947Z" fill="#2F74FF" fill-opacity=".36"/><path d="M11.9531 14.7012C12.2856 14.934 12.6684 15.0848 13.0704 15.1413C13.4723 15.1977 13.8819 15.1583 14.2656 15.0262C14.6494 14.894 14.9964 14.6729 15.2784 14.381C15.5603 14.089 15.7692 13.7345 15.8878 13.3463C16.0065 12.9582 16.0316 12.5475 15.9612 12.1478C15.8907 11.7481 15.7266 11.3707 15.4823 11.0466C15.2381 10.7224 14.9206 10.4607 14.5558 10.2828C14.191 10.1048 13.7892 10.0158 13.3834 10.0229L13.4134 11.7373C13.5486 11.7349 13.6825 11.7646 13.8041 11.8239C13.9257 11.8832 14.0315 11.9704 14.1129 12.0785C14.1943 12.1865 14.249 12.3123 14.2725 12.4455C14.296 12.5787 14.2876 12.7156 14.2481 12.845C14.2085 12.9744 14.1389 13.0925 14.0449 13.1898C13.951 13.2872 13.8353 13.3608 13.7074 13.4049C13.5795 13.4489 13.443 13.4621 13.309 13.4432C13.1751 13.4244 13.0474 13.3742 12.9366 13.2966L11.9531 14.7012Z" fill="#2F74FF"/></g><defs><clipPath id="svg_6de424483e__clip0_11192_14693"><path fill="#fff" d="M0 0H16V16H0z"/></clipPath></defs></svg>