<svg width="24" height="24" viewBox="0 0 16 16" fill="currentColor" xmlns="http://www.w3.org/2000/svg"><path d="M14.3989 8.6543C14.3987 8.5835 14.3409 8.52637 14.27 8.52637H12.5112C12.2794 8.52646 12.0854 8.69057 12.0405 8.90918L12.0308 9.00684V12.3877C12.2212 12.3281 12.4168 12.3008 12.6089 12.3008H14.27C14.341 12.3008 14.3989 12.2428 14.3989 12.1719V8.6543ZM8.51416 12.1719C8.51416 12.2427 8.57129 12.3006 8.64209 12.3008H10.3032C10.4952 12.3008 10.6911 12.3282 10.8813 12.3877V9.00684C10.8813 8.74163 10.6661 8.52637 10.4009 8.52637H8.64209C8.57141 8.52655 8.51434 8.58362 8.51416 8.6543V12.1719ZM15.5483 12.1719C15.5483 12.878 14.9761 13.4502 14.27 13.4502H12.6089C12.4616 13.4502 12.3347 13.4856 12.2339 13.5479C12.1212 13.6175 12.0295 13.7174 11.9702 13.8359C11.8728 14.0306 11.6742 14.1542 11.4565 14.1543C11.2387 14.1543 11.0393 14.0307 10.9419 13.8359C10.8826 13.7175 10.7918 13.6175 10.6792 13.5479C10.5783 13.4855 10.4507 13.4502 10.3032 13.4502H8.64209C7.93618 13.45 7.36377 12.8779 7.36377 12.1719V8.6543C7.36395 7.94849 7.93628 7.37616 8.64209 7.37598H10.4009C10.8034 7.37598 11.1712 7.52292 11.4556 7.76465C11.74 7.52255 12.1085 7.37603 12.5112 7.37598H14.27C14.976 7.37598 15.5482 7.94838 15.5483 8.6543V12.1719Z" fill="currentColor"/><path d="M6.78174 5.19531C7.11311 5.19531 7.38232 5.46355 7.38232 5.79492C7.38232 6.12629 7.11311 6.39453 6.78174 6.39453H5.06494C4.73357 6.39453 4.46533 6.12629 4.46533 5.79492C4.46533 5.46355 4.73357 5.19531 5.06494 5.19531H6.78174Z" fill="currentColor"/><path d="M5.95459 7.87109C6.28575 7.87134 6.5542 8.13948 6.5542 8.4707C6.5542 8.80192 6.28575 9.07007 5.95459 9.07031H5.06494C4.73357 9.07031 4.46533 8.80207 4.46533 8.4707C4.46533 8.13933 4.73357 7.87109 5.06494 7.87109H5.95459Z" fill="currentColor"/><path d="M1.12646 13.4648C0.781287 13.4648 0.501465 13.185 0.501465 12.8398C0.501465 12.4947 0.781287 12.2148 1.12646 12.2148H5.92334C6.26852 12.2148 6.54834 12.4947 6.54834 12.8398C6.54834 13.185 6.26852 13.4648 5.92334 13.4648H1.12646Z" fill="currentColor"/><path d="M8.8252 5.86816V3.51074C8.82519 3.30364 8.6573 3.13574 8.4502 3.13574H3.45801C3.2509 3.13574 3.08301 3.30364 3.08301 3.51074V12.4717C3.08301 12.8169 2.80319 13.0967 2.45801 13.0967C2.11283 13.0967 1.83301 12.8169 1.83301 12.4717V3.51074C1.83301 2.61328 2.56054 1.88574 3.45801 1.88574H8.4502C9.34766 1.88574 10.0752 2.61328 10.0752 3.51074V5.86816C10.0751 6.21329 9.79533 6.49316 9.4502 6.49316C9.10508 6.49314 8.82526 6.21327 8.8252 5.86816Z" fill="currentColor"/></svg>