<svg width="24" height="24" viewBox="0 0 16 16" fill="currentColor" xmlns="http://www.w3.org/2000/svg"><path d="M12.9268 8.5498C13.2244 8.5498 13.4658 8.79126 13.4658 9.08887C13.4659 9.32645 13.6247 9.53082 13.8379 9.63574C13.9673 9.69935 14.0903 9.77416 14.2051 9.8584C14.3248 9.94624 14.4857 9.96619 14.6152 9.89355L14.6357 9.88184C14.9684 9.69466 15.3915 9.81022 15.5859 10.1387C15.7847 10.4745 15.6702 10.9112 15.3301 11.1025C15.2026 11.1739 15.1399 11.3208 15.1582 11.4658C15.17 11.5591 15.1767 11.6541 15.1768 11.75C15.1767 11.7914 15.1752 11.8331 15.1729 11.874C15.1595 12.1138 15.2586 12.3557 15.4678 12.4736C15.7322 12.6225 15.8225 12.9596 15.668 13.2207L15.585 13.3623C15.3905 13.6909 14.9685 13.8044 14.6357 13.6172L14.6152 13.6045C14.4858 13.5312 14.325 13.5517 14.2051 13.6396C14.0906 13.7236 13.9679 13.7979 13.8389 13.8613C13.6252 13.9665 13.466 14.1711 13.4658 14.4092C13.4658 14.7075 13.2241 14.9502 12.9258 14.9502H12.5742C12.2759 14.9502 12.0342 14.7075 12.0342 14.4092C12.034 14.1711 11.8749 13.9663 11.6611 13.8613C11.5314 13.7977 11.408 13.7231 11.293 13.6387C11.1736 13.5511 11.0134 13.5313 10.8848 13.6045L10.8643 13.6172C10.5315 13.8044 10.1095 13.6908 9.91504 13.3623L9.83203 13.2207C9.67749 12.9596 9.76783 12.6225 10.0322 12.4736C10.2414 12.3557 10.3405 12.1138 10.3271 11.874C10.3248 11.8331 10.3233 11.7914 10.3232 11.75C10.3233 11.6541 10.33 11.5591 10.3418 11.4658C10.3601 11.3208 10.2974 11.1739 10.1699 11.1025C9.82986 10.9112 9.71344 10.4774 9.91211 10.1416L9.98438 10.0205C10.1407 9.75634 10.4796 9.66484 10.7471 9.81543C10.9586 9.93444 11.2192 9.90004 11.4238 9.76953C11.5001 9.72087 11.5792 9.67595 11.6611 9.63574C11.8746 9.53108 12.0341 9.32658 12.0342 9.08887C12.0342 8.79126 12.2756 8.5498 12.5732 8.5498H12.9268ZM6 2.70801C6.80119 2.7081 7.5176 3.06887 7.99902 3.63477C8.48046 3.06847 9.19847 2.70808 10 2.70801H13.333C14.4145 2.70801 15.2908 3.58559 15.291 4.66699V8.33398C15.2908 8.67894 15.011 8.95898 14.666 8.95898C14.3213 8.95868 14.0413 8.67875 14.041 8.33398V4.66699C14.0408 4.27593 13.7241 3.95898 13.333 3.95898H10C9.28817 3.95911 8.70226 4.50011 8.63184 5.19336L8.625 5.33398V12.457C8.91055 12.3158 9.2607 12.4102 9.43164 12.6865C9.6129 12.9801 9.52206 13.3655 9.22852 13.5469C8.94167 13.7243 8.70946 13.9785 8.55859 14.2803C8.45266 14.4916 8.23638 14.6259 8 14.626C7.76347 14.6259 7.54632 14.4918 7.44043 14.2803C7.28947 13.9784 7.0576 13.7243 6.77051 13.5469C6.49643 13.3775 6.16898 13.2921 5.81543 13.292H2.66602C1.58489 13.2917 0.708272 12.4152 0.708008 11.334V4.66699C0.708184 3.58577 1.58483 2.70832 2.66602 2.70801H6ZM12.751 10.7793C12.4298 10.7793 12.1426 10.9279 11.96 11.1602L11.8877 11.2646C11.8036 11.4065 11.7559 11.5724 11.7559 11.75C11.756 11.9273 11.8038 12.0918 11.8877 12.2334L11.96 12.3379C12.1426 12.5705 12.4295 12.7197 12.751 12.7197C13.1179 12.7194 13.4393 12.5249 13.6123 12.2334L13.6689 12.124C13.718 12.0097 13.745 11.8831 13.7451 11.75C13.7451 11.6167 13.7181 11.4895 13.6689 11.375L13.6123 11.2646C13.4392 10.9735 13.1177 10.7796 12.751 10.7793ZM2.66602 3.95898C2.27518 3.95929 1.95818 4.27613 1.95801 4.66699V11.334C1.95827 11.7248 2.27523 12.0417 2.66602 12.042H5.81543C6.34952 12.0421 6.89068 12.168 7.375 12.4531V5.33398C7.375 4.5747 6.75927 3.95916 6 3.95898H2.66602Z" fill="currentColor"/></svg>