<svg width="24" height="24" viewBox="0 0 16 16" fill="none" xmlns="http://www.w3.org/2000/svg"><g clip-path="url(#svg_432fb5abb9__clip0_11192_14648)"><path d="M14.0414 8.3335V4.6665C14.0412 4.27545 13.7245 3.9585 13.3334 3.9585H10.0004C9.28843 3.9585 8.70263 4.49954 8.6322 5.19287L8.62537 5.3335V12.4526C8.77168 12.3666 8.9229 12.2938 9.07849 12.2358C9.40189 12.1154 9.76164 12.2797 9.8822 12.603C10.0027 12.9264 9.83839 13.2862 9.51501 13.4067C9.41499 13.444 9.31913 13.4906 9.22888 13.5464C8.94185 13.7238 8.7099 13.9779 8.55896 14.2798C8.45311 14.4914 8.23692 14.6254 8.00037 14.6255C7.76363 14.6255 7.54667 14.4915 7.4408 14.2798C7.28983 13.9779 7.05798 13.7238 6.77087 13.5464C6.49679 13.377 6.16935 13.2916 5.8158 13.2915H2.66638C1.58498 13.2913 0.708374 12.415 0.708374 11.3335V4.6665C0.70855 3.5852 1.58508 2.70867 2.66638 2.7085H6.00037C6.80156 2.70859 7.51797 3.06838 7.99939 3.63428C8.48088 3.06793 9.19874 2.7085 10.0004 2.7085H13.3334C14.4149 2.7085 15.2912 3.5851 15.2914 4.6665V8.3335C15.2914 8.67867 15.0116 8.9585 14.6664 8.9585C14.3214 8.95832 14.0414 8.67857 14.0414 8.3335ZM1.95837 11.3335C1.95837 11.7246 2.27532 12.0413 2.66638 12.0415H5.8158C6.34988 12.0416 6.89104 12.1675 7.37537 12.4526V5.3335C7.37537 4.57421 6.75963 3.95867 6.00037 3.9585H2.66638C2.27544 3.95867 1.95855 4.27556 1.95837 4.6665V11.3335Z" fill="#262626"/><path d="M16 12.5944C16 14.0148 14.8485 15.1663 13.4281 15.1663C12.0077 15.1663 10.8562 14.0148 10.8562 12.5944C10.8562 11.1739 12.0077 10.0225 13.4281 10.0225C14.8485 10.0225 16 11.1739 16 12.5944Z" fill="#E8463A"/></g><defs><clipPath id="svg_432fb5abb9__clip0_11192_14648"><path fill="#fff" d="M0 0H16V16H0z"/></clipPath></defs></svg>