<svg width="24" height="24" viewBox="0 0 16 16" fill="currentColor" xmlns="http://www.w3.org/2000/svg"><path d="M14.0413 8.3335V4.6665C14.0411 4.27545 13.7244 3.9585 13.3333 3.9585H10.0002C9.28831 3.9585 8.70251 4.49954 8.63208 5.19287L8.62524 5.3335V12.4526C8.77156 12.3666 8.92278 12.2938 9.07837 12.2358C9.40177 12.1154 9.76152 12.2797 9.88208 12.603C10.0025 12.9264 9.83826 13.2862 9.51489 13.4067C9.41487 13.444 9.31901 13.4906 9.22876 13.5464C8.94173 13.7238 8.70977 13.9779 8.55884 14.2798C8.45299 14.4914 8.2368 14.6254 8.00024 14.6255C7.76351 14.6255 7.54654 14.4915 7.44067 14.2798C7.28971 13.9779 7.05786 13.7238 6.77075 13.5464C6.49667 13.377 6.16923 13.2916 5.81567 13.2915H2.66626C1.58486 13.2913 0.708252 12.415 0.708252 11.3335V4.6665C0.708428 3.5852 1.58496 2.70867 2.66626 2.7085H6.00024C6.80143 2.70859 7.51785 3.06838 7.99927 3.63428C8.48076 3.06793 9.19862 2.7085 10.0002 2.7085H13.3333C14.4147 2.7085 15.2911 3.5851 15.2913 4.6665V8.3335C15.2913 8.67867 15.0114 8.9585 14.6663 8.9585C14.3212 8.95832 14.0413 8.67857 14.0413 8.3335ZM1.95825 11.3335C1.95825 11.7246 2.2752 12.0413 2.66626 12.0415H5.81567C6.34976 12.0416 6.89092 12.1675 7.37524 12.4526V5.3335C7.37524 4.57421 6.75951 3.95867 6.00024 3.9585H2.66626C2.27532 3.95867 1.95843 4.27556 1.95825 4.6665V11.3335Z" fill="currentColor"/></svg>