<svg width="24" height="24" viewBox="0 0 20 20" fill="currentColor" xmlns="http://www.w3.org/2000/svg"><path d="M19.1687 2.16797V3.66699H0.834961V2.16797H19.1687Z" fill="currentColor"/><path d="M3.66699 2.91406V12.7896H16.3342V2.91406H17.8345V14.2886H2.16797V2.91406H3.66699Z" fill="currentColor"/><path d="M15.0012 5.84033L15.4797 6.41895L10.6873 10.3765L10.1624 10.811L8.27881 8.92749L5.67871 11.0088L5.20996 10.4241L4.74121 9.83813L8.39111 6.91821L8.86475 7.39307L10.2576 8.78589L14.5239 5.26172L15.0012 5.84033Z" fill="currentColor"/><path d="M10.6545 13.3333H10.7485V13.4175L15.0869 17.3616L14.0774 18.4712L9.9978 14.7627L5.91943 18.4712L5.41528 17.917L4.91113 17.3616L9.24829 13.4175V13.3333H9.34229L9.49365 13.1953L9.61938 13.3333L10.5032 13.1953L10.6545 13.3333Z" fill="currentColor"/></svg>