<svg width="24" height="24" viewBox="0 0 16 16" fill="currentColor" xmlns="http://www.w3.org/2000/svg"><path d="M3.33374 11.3747C4.04685 11.3749 4.62459 11.9535 4.62476 12.6667C4.62458 13.3798 4.04684 13.9575 3.33374 13.9577C2.62049 13.9577 2.04192 13.3799 2.04175 12.6667C2.04191 11.9534 2.62049 11.3747 3.33374 11.3747ZM8.00073 11.3747C8.71363 11.3751 9.29158 11.9537 9.29175 12.6667C9.29157 13.3796 8.71363 13.9573 8.00073 13.9577C7.28746 13.9577 6.70892 13.3799 6.70874 12.6667C6.70891 11.9534 7.28746 11.3747 8.00073 11.3747ZM12.6667 11.3747C13.3799 11.3749 13.9576 11.9536 13.9578 12.6667C13.9576 13.3798 13.3799 13.9575 12.6667 13.9577C11.9536 13.9576 11.3749 13.3798 11.3748 12.6667C11.3749 11.9535 11.9536 11.3748 12.6667 11.3747ZM3.33374 12.6247C3.31083 12.6247 3.29191 12.6438 3.29175 12.6667C3.29192 12.6896 3.31083 12.7077 3.33374 12.7077C3.3565 12.7075 3.37458 12.6894 3.37476 12.6667C3.3746 12.6439 3.35651 12.6249 3.33374 12.6247ZM8.00073 12.6247C7.97781 12.6247 7.95891 12.6438 7.95874 12.6667C7.95891 12.6896 7.97782 12.7077 8.00073 12.7077C8.02326 12.7073 8.04157 12.6893 8.04175 12.6667C8.04159 12.6441 8.02328 12.6251 8.00073 12.6247ZM12.6667 12.6247C12.6439 12.6248 12.6249 12.6439 12.6248 12.6667C12.6249 12.6895 12.6439 12.7076 12.6667 12.7077C12.6895 12.7075 12.7076 12.6894 12.7078 12.6667C12.7076 12.6439 12.6895 12.6249 12.6667 12.6247ZM3.33374 6.70868C4.04695 6.70886 4.62476 7.28739 4.62476 8.00067C4.62438 8.71363 4.04672 9.29151 3.33374 9.29169C2.62061 9.29169 2.04212 8.71374 2.04175 8.00067C2.04175 7.28729 2.62038 6.70868 3.33374 6.70868ZM8.00073 6.70868C8.71374 6.70912 9.29175 7.28756 9.29175 8.00067C9.29137 8.71346 8.71351 9.29125 8.00073 9.29169C7.28759 9.29169 6.70911 8.71373 6.70874 8.00067C6.70874 7.28729 7.28735 6.70868 8.00073 6.70868ZM12.6667 6.70868C13.38 6.70886 13.9578 7.2874 13.9578 8.00067C13.9574 8.71362 13.3797 9.29151 12.6667 9.29169C11.9537 9.29156 11.3751 8.71365 11.3748 8.00067C11.3748 7.28737 11.9535 6.70881 12.6667 6.70868ZM3.33374 7.95868C3.31072 7.95868 3.29175 7.97766 3.29175 8.00067C3.29212 8.02336 3.31095 8.04169 3.33374 8.04169C3.35637 8.04151 3.37439 8.02325 3.37476 8.00067C3.37476 7.97777 3.35661 7.95886 3.33374 7.95868ZM8.00073 7.95868C7.97771 7.95868 7.95874 7.97765 7.95874 8.00067C7.95912 8.02337 7.97794 8.04169 8.00073 8.04169C8.02315 8.04127 8.04139 8.0231 8.04175 8.00067C8.04175 7.97792 8.02337 7.95912 8.00073 7.95868ZM12.6667 7.95868C12.6438 7.95881 12.6248 7.97773 12.6248 8.00067C12.6251 8.02329 12.6441 8.04156 12.6667 8.04169C12.6894 8.04151 12.7074 8.02326 12.7078 8.00067C12.7078 7.97776 12.6896 7.95885 12.6667 7.95868ZM3.33374 2.04169C4.04696 2.04186 4.62476 2.62042 4.62476 3.33368C4.62458 4.04679 4.04685 4.62452 3.33374 4.62469C2.62048 4.62469 2.04192 4.04689 2.04175 3.33368C2.04175 2.62031 2.62038 2.04169 3.33374 2.04169ZM8.00073 2.04169C8.71374 2.04213 9.29175 2.62059 9.29175 3.33368C9.29157 4.04661 8.71364 4.62426 8.00073 4.62469C7.28746 4.62469 6.70892 4.04689 6.70874 3.33368C6.70874 2.62032 7.28735 2.04169 8.00073 2.04169ZM12.6667 2.04169C13.38 2.04186 13.9578 2.62043 13.9578 3.33368C13.9576 4.04678 13.3799 4.62452 12.6667 4.62469C11.9536 4.62456 11.3749 4.0468 11.3748 3.33368C11.3748 2.6204 11.9535 2.04182 12.6667 2.04169ZM3.33374 3.29169C3.31073 3.29169 3.29175 3.31067 3.29175 3.33368C3.29192 3.35654 3.31084 3.37469 3.33374 3.37469C3.35649 3.37452 3.37458 3.35643 3.37476 3.33368C3.37476 3.31078 3.3566 3.29186 3.33374 3.29169ZM8.00073 3.29169C7.97772 3.29169 7.95874 3.31066 7.95874 3.33368C7.95892 3.35654 7.97783 3.37469 8.00073 3.37469C8.02326 3.37427 8.04157 3.35627 8.04175 3.33368C8.04175 3.31093 8.02337 3.29212 8.00073 3.29169ZM12.6667 3.29169C12.6438 3.29182 12.6248 3.31074 12.6248 3.33368C12.6249 3.35646 12.644 3.37457 12.6667 3.37469C12.6895 3.37452 12.7076 3.35643 12.7078 3.33368C12.7078 3.31077 12.6896 3.29186 12.6667 3.29169Z" fill="currentColor"/></svg>