<svg width="24" height="24" viewBox="0 0 16 16" fill="currentColor" xmlns="http://www.w3.org/2000/svg"><path d="M6 2.70801C6.80119 2.70811 7.5176 3.06887 7.99902 3.63477C8.48046 3.06848 9.19847 2.70808 10 2.70801H13.333C14.4145 2.70801 15.2908 3.58559 15.291 4.66699V11.334C15.2908 12.4153 14.4144 13.292 13.333 13.292H10.1846C9.83093 13.292 9.50266 13.3775 9.22852 13.5469C8.94167 13.7243 8.70946 13.9785 8.55859 14.2803C8.45266 14.4916 8.23638 14.6259 8 14.626C7.76347 14.6259 7.54632 14.4918 7.44043 14.2803C7.28947 13.9784 7.0576 13.7243 6.77051 13.5469C6.49643 13.3775 6.16898 13.2921 5.81543 13.292H2.66602C1.58489 13.2917 0.708272 12.4152 0.708008 11.334V4.66699C0.708184 3.58577 1.58483 2.70832 2.66602 2.70801H6ZM2.66602 3.95898C2.27518 3.95929 1.95818 4.27613 1.95801 4.66699V11.334C1.95827 11.7248 2.27523 12.0417 2.66602 12.042H5.81543C6.34952 12.0421 6.89068 12.168 7.375 12.4531V5.33398C7.375 4.5747 6.75927 3.95916 6 3.95898H2.66602ZM10 3.95898C9.28817 3.95911 8.70226 4.50011 8.63184 5.19336L8.625 5.33398V12.4521C9.10915 12.1674 9.65077 12.042 10.1846 12.042H13.333C13.7241 12.042 14.0408 11.725 14.041 11.334V4.66699C14.0408 4.27593 13.7241 3.95898 13.333 3.95898H10ZM5.42676 8.90039C5.75798 8.90057 6.02637 9.16971 6.02637 9.50098C6.02584 9.83179 5.75765 10.1004 5.42676 10.1006H3.75977C3.42872 10.1006 3.16068 9.8319 3.16016 9.50098C3.16016 9.16961 3.42839 8.90039 3.75977 8.90039H5.42676ZM12.2363 8.90039C12.5677 8.90039 12.8369 9.16961 12.8369 9.50098C12.8364 9.8319 12.5674 10.1006 12.2363 10.1006H10.5703C10.2393 10.1006 9.97025 9.8319 9.96973 9.50098C9.96973 9.16961 10.2389 8.90039 10.5703 8.90039H12.2363ZM5.42676 5.80078C5.75798 5.80096 6.02637 6.06913 6.02637 6.40039C6.0261 6.73143 5.75782 6.99982 5.42676 7H3.75977C3.42856 7 3.16042 6.73154 3.16016 6.40039C3.16016 6.06902 3.42839 5.80078 3.75977 5.80078H5.42676ZM12.2363 5.80078C12.5677 5.80078 12.8369 6.06902 12.8369 6.40039C12.8366 6.73154 12.5675 7 12.2363 7H10.5703C10.2391 7 9.96999 6.73154 9.96973 6.40039C9.96973 6.06902 10.2389 5.80078 10.5703 5.80078H12.2363Z" fill="currentColor"/></svg>