<svg width="25.5" height="24" viewBox="0 0 17 16" fill="none" xmlns="http://www.w3.org/2000/svg"><path d="M9.96492 2.37191C9.21623 1.72375 8.26814 1.33496 7.23619 1.33496C6.20424 1.33496 5.28837 1.71097 4.54523 2.33859C3.57104 3.16226 2.92454 4.42138 2.854 5.84767V10.958C3.37165 9.48616 4.57411 7.48669 6.38475 6.34421C6.66245 6.16759 6.95404 6.01374 7.25619 5.88377C8.30202 5.43889 9.41007 5.36613 10.4476 5.49165C10.3243 3.91984 10.0488 2.71349 9.96437 2.37191H9.96492Z" fill="#D1D3DB"/><path opacity=".5" d="M11.6324 4.09075C11.4316 3.88899 11.2317 3.68644 11.0325 3.48313C10.9203 3.36483 10.8115 3.25042 10.707 3.13767L9.96667 2.37231C10.0505 2.71389 10.3266 3.91969 10.4493 5.49205C12.2755 5.71144 13.8845 6.54622 14.5571 7.0472C13.8318 6.33906 12.6271 5.11049 11.6324 4.09075Z" fill="#D1D3DB"/><path opacity=".5" d="M6.38574 6.34277C6.03898 6.72806 5.1826 7.8504 4.99805 9.70508L4.96973 10.0859C4.88211 11.9868 5.82385 13.1984 7.43945 13.1211C7.5783 13.5264 7.76749 13.908 8 14.2588C7.82281 14.3264 7.64198 14.3945 7.45801 14.457C7.06562 14.5953 6.65238 14.6656 6.23633 14.665C4.3681 14.665 2.85473 13.2839 2.85449 11.5801V10.958C3.37269 9.48617 4.5751 7.48581 6.38574 6.34277Z" fill="#D1D3DB"/><path d="M10.4482 5.49121C12.2743 5.71117 13.8834 6.54548 14.5566 7.0459V7.04785C14.5666 7.07151 14.5742 7.09604 14.583 7.12012C13.8675 6.72508 13.045 6.5 12.1699 6.5C11.5864 6.5 11.0265 6.60047 10.5059 6.78418C10.5009 6.33425 10.4801 5.90034 10.4482 5.49121Z" fill="#D1D3DB"/><path fill-rule="evenodd" clip-rule="evenodd" d="M12.1699 15.25C14.241 15.25 15.9199 13.5711 15.9199 11.5C15.9199 9.42893 14.241 7.75 12.1699 7.75C10.0989 7.75 8.41992 9.42893 8.41992 11.5C8.41992 13.5711 10.0989 15.25 12.1699 15.25ZM13.2949 10.75C13.2949 11.3713 12.7912 11.875 12.1699 11.875C11.5486 11.875 11.0449 11.3713 11.0449 10.75C11.0449 10.1287 11.5486 9.625 12.1699 9.625C12.7912 9.625 13.2949 10.1287 13.2949 10.75ZM12.17 14.5C11.3306 14.5 10.5717 14.1553 10.0272 13.5996C10.5266 13.0019 11.2718 12.625 12.17 12.625C13.0682 12.625 13.8134 13.0019 14.3128 13.5996C13.7683 14.1553 13.0094 14.5 12.17 14.5Z" fill="#82D99F"/></svg>