<svg width="24" height="24" viewBox="0 0 16 16" fill="currentColor" xmlns="http://www.w3.org/2000/svg"><path d="M11.1094 9.77545C11.353 9.53149 11.3529 9.13566 11.1094 8.89166C10.8653 8.64762 10.4687 8.6477 10.2246 8.89166L8.26562 10.8516C8.11933 10.9977 7.88179 10.9975 7.73535 10.8516L5.77539 8.89166C5.53135 8.6477 5.13566 8.64773 4.8916 8.89166C4.64764 9.13572 4.64763 9.5314 4.8916 9.77545L6.85156 11.7354C7.48616 12.3694 8.51496 12.3697 9.14941 11.7354L11.1094 9.77545ZM11.1094 5.10846C11.3529 4.86443 11.353 4.4686 11.1094 4.22467C10.8654 3.98069 10.4687 3.98088 10.2246 4.22467L8.26562 6.18463C8.11927 6.33079 7.88177 6.33068 7.73535 6.18463L5.77539 4.22467C5.53141 3.98075 5.13569 3.98091 4.8916 4.22467C4.64765 4.46874 4.64761 4.86441 4.8916 5.10846L6.85156 7.06842C7.48614 7.70263 8.5149 7.70274 9.14941 7.06842L11.1094 5.10846Z" fill="currentColor"/></svg>