<svg width="24" height="24" viewBox="0 0 16 16" fill="none" xmlns="http://www.w3.org/2000/svg"><path opacity=".5" d="M4.30013 10.0862C4.39566 8.00338 5.34597 6.75427 5.71587 6.34326C3.90523 7.4863 2.70277 9.48577 2.18457 10.9576V11.5797C2.18457 13.2837 3.69806 14.665 5.56646 14.665C5.98264 14.6655 6.39587 14.5951 6.78837 14.4567C6.98443 14.39 7.17715 14.319 7.36544 14.2467C7.87253 13.7474 8.28186 13.1859 8.61122 12.585C5.90249 13.9352 4.18238 12.625 4.29957 10.0856L4.30013 10.0862Z" fill="#D1D3DB"/><path d="M13.8865 7.04636C13.2134 6.54594 11.6044 5.71115 9.77818 5.49121C9.94203 7.59733 9.82983 10.3599 8.61182 12.5855C8.2801 13.1975 7.86016 13.7574 7.36548 14.2473C9.45604 13.443 11.1123 12.3272 12.1398 11.3486C13.706 9.8584 14.0021 8.47265 14.0065 7.64954C14.0079 7.44278 13.9671 7.23791 13.8865 7.04747V7.04636Z" fill="#D1D3DB"/><path d="M9.295 2.37191C8.54631 1.72375 7.59822 1.33496 6.56627 1.33496C5.53432 1.33496 4.61845 1.71097 3.87531 2.33859C2.90112 3.16226 2.25462 4.42138 2.18408 5.84767V10.958C2.70172 9.48616 3.90419 7.48669 5.71483 6.34421C5.99253 6.16759 6.28412 6.01374 6.58626 5.88377C7.6321 5.43889 8.74014 5.36613 9.77765 5.49165C9.65435 3.91984 9.37887 2.71349 9.29444 2.37191H9.295Z" fill="#D1D3DB"/><path opacity=".5" d="M10.9624 4.09075C10.7617 3.88899 10.5618 3.68644 10.3626 3.48313C10.2504 3.36483 10.1415 3.25042 10.0371 3.13767L9.29675 2.37231C9.38062 2.71389 9.65666 3.91969 9.7794 5.49205C11.6056 5.71144 13.2146 6.54622 13.8872 7.0472C13.1619 6.33906 11.9572 5.11049 10.9624 4.09075Z" fill="#D1D3DB"/></svg>