<svg xmlns="http://www.w3.org/2000/svg" width="24" height="24" fill="none" viewBox="0 0 16 16"><g clip-path="url(#svg_89fb3bf272__a)"><path fill="#1e37fc" d="M4.285 10.086C4.38 8.003 5.33 6.754 5.7 6.343c-1.81 1.143-3.013 3.143-3.53 4.615v.622c0 1.704 1.513 3.085 3.382 3.085.416 0 .83-.07 1.222-.208q.295-.101.577-.21a7.2 7.2 0 0 0 1.246-1.662c-2.71 1.35-4.43.04-4.312-2.5z"/><path fill="#37e1be" d="M13.87 7.046c-.672-.5-2.281-1.335-4.108-1.555.164 2.106.052 4.869-1.166 7.095a7.1 7.1 0 0 1-1.246 1.661c2.09-.804 3.746-1.92 4.774-2.898 1.566-1.49 1.862-2.876 1.867-3.7a1.5 1.5 0 0 0-.12-.602"/><path fill="#a569ff" d="M9.279 2.372A4.15 4.15 0 0 0 6.55 1.335c-1.032 0-1.948.376-2.69 1.004-.975.823-1.621 2.082-1.692 3.509v5.11c.518-1.472 1.72-3.471 3.53-4.614q.418-.264.872-.46c1.046-.445 2.154-.518 3.192-.392a20 20 0 0 0-.484-3.12z"/><path fill="#1e37fc" d="m10.947 4.09-.6-.607q-.169-.177-.325-.346l-.74-.765c.083.342.36 1.547.482 3.12 1.826.22 3.435 1.054 4.108 1.555-.726-.708-1.93-1.937-2.925-2.956"/></g><defs><clipPath id="svg_89fb3bf272__a"><path fill="#fff" d="M1.335 1.335h13.33v13.33H1.335z"/></clipPath></defs></svg>