<svg width="24" height="24" viewBox="0 0 16 16" fill="none" xmlns="http://www.w3.org/2000/svg"><path d="M9.295 2.37191C8.54631 1.72375 7.59822 1.33496 6.56627 1.33496C5.53432 1.33496 4.61845 1.71097 3.87531 2.33859C2.90112 3.16226 2.25462 4.42138 2.18408 5.84767V10.958C2.70172 9.48616 3.90419 7.48669 5.71483 6.34421C5.99253 6.16759 6.28412 6.01374 6.58626 5.88377C7.6321 5.43889 8.74014 5.36613 9.77765 5.49165C9.65435 3.91984 9.37887 2.71349 9.29444 2.37191H9.295Z" fill="#26292C"/><path opacity=".5" d="M10.9626 4.09075C10.7618 3.88899 10.5619 3.68644 10.3627 3.48313C10.2505 3.36483 10.1417 3.25042 10.0372 3.13767L9.29688 2.37231C9.38074 2.71389 9.65678 3.91969 9.77953 5.49205C11.6057 5.71144 13.2147 6.54622 13.8873 7.0472C13.162 6.33906 11.9573 5.11049 10.9626 4.09075Z" fill="#26292C"/><path opacity=".5" d="M5.71582 6.34277C5.36906 6.72806 4.51268 7.8504 4.32812 9.70508L4.2998 10.0859C4.21219 11.9868 5.15393 13.1984 6.76953 13.1211C6.90838 13.5264 7.09756 13.908 7.33008 14.2588C7.15289 14.3264 6.97206 14.3945 6.78809 14.457C6.39569 14.5953 5.98246 14.6656 5.56641 14.665C3.69818 14.665 2.18481 13.2839 2.18457 11.5801V10.958C2.70277 9.48617 3.90518 7.48581 5.71582 6.34277Z" fill="#26292C"/><path d="M9.77832 5.49121C11.6044 5.71117 13.2135 6.54548 13.8867 7.0459V7.04785C13.8967 7.07151 13.9043 7.09604 13.9131 7.12012C13.1976 6.72508 12.3751 6.5 11.5 6.5C10.9165 6.5 10.3566 6.60047 9.83594 6.78418C9.83103 6.33425 9.81015 5.90034 9.77832 5.49121Z" fill="#26292C"/><path fill-rule="evenodd" clip-rule="evenodd" d="M11.5 15.25C13.5711 15.25 15.25 13.5711 15.25 11.5C15.25 9.42893 13.5711 7.75 11.5 7.75C9.42893 7.75 7.75 9.42893 7.75 11.5C7.75 13.5711 9.42893 15.25 11.5 15.25ZM12.625 10.75C12.625 11.3713 12.1213 11.875 11.5 11.875C10.8787 11.875 10.375 11.3713 10.375 10.75C10.375 10.1287 10.8787 9.625 11.5 9.625C12.1213 9.625 12.625 10.1287 12.625 10.75ZM11.5001 14.5C10.6607 14.5 9.9018 14.1553 9.3573 13.5996C9.8567 13.0019 10.6018 12.625 11.5001 12.625C12.3983 12.625 13.1435 13.0019 13.6429 13.5996C13.0983 14.1553 12.3395 14.5 11.5001 14.5Z" fill="#4DA621"/></svg>