<svg width="24" height="24" viewBox="0 0 16 16" fill="currentColor" xmlns="http://www.w3.org/2000/svg"><path d="M2.04175 11.3337V9.99969C2.04192 9.65467 2.32168 9.37469 2.66675 9.37469C3.01182 9.37469 3.29157 9.65467 3.29175 9.99969V11.3337C3.29192 12.0929 3.90746 12.7087 4.66675 12.7087H11.3337C12.0929 12.7085 12.7086 12.0928 12.7087 11.3337V9.99969C12.7089 9.65467 12.9887 9.37469 13.3337 9.37469C13.6787 9.37487 13.9586 9.65477 13.9587 9.99969V11.3337C13.9586 12.7832 12.7833 13.9585 11.3337 13.9587H4.66675C3.21712 13.9587 2.04192 12.7833 2.04175 11.3337ZM7.37476 2.66669C7.37476 2.32162 7.65473 2.04186 7.99976 2.04169C8.34493 2.04169 8.62476 2.32151 8.62476 2.66669V8.1579L9.89136 6.8913C10.1354 6.64727 10.5311 6.64738 10.7751 6.8913C11.0192 7.13537 11.0192 7.53101 10.7751 7.77509L8.44214 10.1091C8.19816 10.3529 7.8024 10.3528 7.55835 10.1091L5.22437 7.77509C4.98067 7.53104 4.98056 7.13528 5.22437 6.8913C5.46844 6.64722 5.86505 6.64722 6.10913 6.8913L7.37476 8.15692V2.66669Z" fill="currentColor"/></svg>