<svg width="24" height="24" viewBox="0 0 16 16" fill="currentColor" xmlns="http://www.w3.org/2000/svg"><path d="M13.375 8C13.375 5.03147 10.9686 2.625 8 2.625C5.03147 2.625 2.625 5.03147 2.625 8C2.625 10.9686 5.03147 13.375 8 13.375C10.9686 13.375 13.375 10.9686 13.375 8ZM10 10.042C10.3452 10.042 10.625 10.3218 10.625 10.667C10.6248 11.012 10.3451 11.292 10 11.292H6C5.65493 11.292 5.37518 11.012 5.375 10.667C5.375 10.3218 5.65482 10.042 6 10.042H10ZM7.375 5.33301C7.37518 4.98798 7.65493 4.70801 8 4.70801C8.34507 4.70801 8.62482 4.98798 8.625 5.33301V7.15723L8.8916 6.8916C9.13568 6.64752 9.53131 6.64752 9.77539 6.8916C10.0193 7.13569 10.0194 7.53137 9.77539 7.77539L8.44238 9.1084C8.19831 9.35248 7.80169 9.35248 7.55762 9.1084L6.22461 7.77539C5.98059 7.53137 5.98069 7.13569 6.22461 6.8916C6.46869 6.64752 6.86432 6.64752 7.1084 6.8916L7.375 7.15723V5.33301ZM14.625 8C14.625 11.6589 11.6589 14.625 8 14.625C4.34112 14.625 1.375 11.6589 1.375 8C1.375 4.34112 4.34112 1.375 8 1.375C11.6589 1.375 14.625 4.34112 14.625 8Z" fill="currentColor"/></svg>