<svg width="24" height="24" viewBox="0 0 16 16" fill="currentColor" xmlns="http://www.w3.org/2000/svg"><path d="M6 11.375C6.71321 11.3752 7.29102 11.9537 7.29102 12.667C7.29084 13.3801 6.7131 13.9578 6 13.958C5.28686 13.9579 4.70818 13.3801 4.70801 12.667C4.70801 11.9537 5.28676 11.3751 6 11.375ZM10 11.375C10.7132 11.3752 11.291 11.9537 11.291 12.667C11.2908 13.3801 10.7131 13.9578 10 13.958C9.28684 13.9579 8.70818 13.3801 8.70801 12.667C8.70801 11.9537 9.28673 11.3751 10 11.375ZM6 12.625C5.97709 12.6251 5.95801 12.6441 5.95801 12.667C5.95818 12.6898 5.9772 12.7079 6 12.708C6.02276 12.7078 6.04084 12.6897 6.04102 12.667C6.04102 12.6441 6.02287 12.6252 6 12.625ZM10 12.625C9.97709 12.6251 9.95801 12.6441 9.95801 12.667C9.95818 12.6898 9.9772 12.7079 10 12.708C10.0228 12.7078 10.0408 12.6898 10.041 12.667C10.041 12.6441 10.0229 12.6252 10 12.625ZM6 6.70801C6.71313 6.70818 7.29088 7.28683 7.29102 8C7.29084 8.71313 6.7131 9.29084 6 9.29102C5.28686 9.29088 4.70818 8.71316 4.70801 8C4.70814 7.28681 5.28684 6.70814 6 6.70801ZM10 6.70801C10.7131 6.70818 11.2909 7.28684 11.291 8C11.2908 8.71312 10.7131 9.29084 10 9.29102C9.28684 9.29088 8.70818 8.71315 8.70801 8C8.70814 7.28682 9.28682 6.70814 10 6.70801ZM6 7.95801C5.97717 7.95814 5.95814 7.97718 5.95801 8C5.95818 8.02278 5.9772 8.04089 6 8.04102C6.02276 8.04084 6.04084 8.02275 6.04102 8C6.04089 7.97721 6.02279 7.95818 6 7.95801ZM10 7.95801C9.97717 7.95814 9.95814 7.97717 9.95801 8C9.95818 8.02279 9.9772 8.04089 10 8.04102C10.0228 8.04084 10.0408 8.02276 10.041 8C10.0409 7.9772 10.0228 7.95818 10 7.95801ZM6 2.04199C6.71322 2.04217 7.29102 2.62073 7.29102 3.33398C7.29071 4.04698 6.71303 4.62482 6 4.625C5.28694 4.62487 4.70832 4.04701 4.70801 3.33398C4.70801 2.6207 5.28675 2.04212 6 2.04199ZM10 2.04199C10.7132 2.04217 11.291 2.62074 11.291 3.33398C11.2907 4.04697 10.713 4.62482 10 4.625C9.28692 4.62487 8.70832 4.047 8.70801 3.33398C8.70801 2.62071 9.28673 2.04212 10 2.04199ZM6 3.29199C5.9771 3.29213 5.95801 3.31106 5.95801 3.33398C5.95831 3.35665 5.97729 3.37487 6 3.375C6.02267 3.37483 6.04071 3.35662 6.04102 3.33398C6.04102 3.31108 6.02286 3.29217 6 3.29199ZM10 3.29199C9.9771 3.29213 9.95801 3.31105 9.95801 3.33398C9.95831 3.35666 9.97728 3.37487 10 3.375C10.0227 3.37483 10.0407 3.35662 10.041 3.33398C10.041 3.31108 10.0229 3.29217 10 3.29199Z" fill="currentColor"/></svg>