<svg width="24" height="24" viewBox="0 0 16 16" fill="currentColor" xmlns="http://www.w3.org/2000/svg"><path d="M9.72461 2.39185C10.7971 1.31933 12.5359 1.31933 13.6084 2.39185C14.6806 3.46437 14.6808 5.20321 13.6084 6.27563L12.4463 7.43677C12.4447 7.43836 12.444 7.44105 12.4424 7.44263C12.4408 7.44426 12.4382 7.44492 12.4365 7.44653L5.63672 14.2473C5.39461 14.4891 5.06596 14.6252 4.72363 14.6252H2C1.65497 14.6252 1.37524 14.3452 1.375 14.0002V11.2766C1.375 10.9342 1.51077 10.6048 1.75293 10.3625L9.72461 2.39185ZM2.63672 11.2473C2.62935 11.255 2.625 11.2658 2.625 11.2766V13.3752H4.72363C4.73452 13.3752 4.74509 13.3703 4.75293 13.3625L11.1152 7.00024L8.99902 4.88403L2.63672 11.2473ZM12.7246 3.27563C12.1403 2.6913 11.1927 2.6913 10.6084 3.27563L9.88379 3.99927L12 6.11548L12.7246 5.39185C13.3089 4.80757 13.3087 3.86 12.7246 3.27563Z" fill="currentColor"/></svg>