<svg width="24" height="24" viewBox="0 0 16 16" fill="currentColor" xmlns="http://www.w3.org/2000/svg"><path d="M10.8906 3.55786C11.871 2.57751 13.4609 2.5777 14.4414 3.55786C15.4219 4.53832 15.4219 6.12816 14.4414 7.10864L9.02734 12.5227C8.53509 13.0149 7.86701 13.2913 7.1709 13.2913H5.33301C4.98794 13.2911 4.70801 13.0114 4.70801 12.6663V10.8284C4.70805 10.1322 4.98439 9.46415 5.47656 8.97192L10.8906 3.55786ZM13.5576 4.44165C13.0654 3.94973 12.2676 3.94971 11.7754 4.44165L6.36035 9.85571C6.10259 10.1135 5.95805 10.4638 5.95801 10.8284V12.0413H7.1709C7.53547 12.0413 7.8857 11.8967 8.14355 11.6389L13.5576 6.22485C14.0499 5.73252 14.0499 4.93395 13.5576 4.44165ZM4 6.04126C4.34488 6.04144 4.62475 6.3214 4.625 6.66626C4.625 7.01133 4.34503 7.29108 4 7.29126H1.33301C0.987942 7.29113 0.708008 7.01136 0.708008 6.66626C0.708255 6.32137 0.988094 6.04139 1.33301 6.04126H4ZM6 3.37524C6.34503 3.37542 6.625 3.65517 6.625 4.00024C6.62485 4.34519 6.34494 4.62507 6 4.62524H1.33301C0.988034 4.62511 0.708156 4.34521 0.708008 4.00024C0.708008 3.65515 0.987942 3.37538 1.33301 3.37524H6Z" fill="currentColor"/></svg>