<svg width="24" height="24" viewBox="0 0 16 16" fill="currentColor" xmlns="http://www.w3.org/2000/svg"><path d="M14.2793 6.22534L9.17383 8.77905C8.43497 9.14838 7.56504 9.14836 6.82617 8.77905V8.77808L1.7207 6.22534L2.2793 5.10815L7.38477 7.66089C7.77188 7.85444 8.22812 7.85444 8.61523 7.66089L13.7207 5.10815L14.2793 6.22534Z" fill="currentColor"/><path d="M13.375 5.25C13.375 4.49061 12.7594 3.875 12 3.875H4C3.24061 3.875 2.625 4.49061 2.625 5.25V10.75C2.625 11.5094 3.24061 12.125 4 12.125H12C12.7594 12.125 13.375 11.5094 13.375 10.75V5.25ZM14.625 10.75C14.625 12.1997 13.4497 13.375 12 13.375H4C2.55025 13.375 1.375 12.1997 1.375 10.75V5.25C1.375 3.80025 2.55025 2.625 4 2.625H12C13.4497 2.625 14.625 3.80025 14.625 5.25V10.75Z" fill="currentColor"/></svg>