<svg width="24" height="24" viewBox="0 0 16 16" fill="currentColor" xmlns="http://www.w3.org/2000/svg"><path d="M8 1.375C11.1595 1.375 14.625 3.93197 14.625 8C14.625 12.0648 11.216 14.625 8 14.625C7.6526 14.625 7.30449 14.5955 6.95996 14.5381C6.61948 14.4813 6.38858 14.1588 6.44531 13.8184C6.50222 13.4781 6.82468 13.248 7.16504 13.3047C7.44382 13.3511 7.7233 13.375 8 13.375C10.629 13.375 13.375 11.2755 13.375 8C13.375 4.7278 10.5796 2.625 8 2.625C7.7261 2.625 7.44774 2.64872 7.16895 2.69629C6.82869 2.75436 6.50534 2.5258 6.44727 2.18555C6.38936 1.84555 6.61812 1.52315 6.95801 1.46484C7.30376 1.40583 7.65297 1.375 8 1.375ZM2.7666 11.0225C3.04423 10.8174 3.43554 10.8767 3.64062 11.1543C3.97853 11.6119 4.38664 12.0081 4.84082 12.334C5.12116 12.5353 5.1856 12.9257 4.98438 13.2061C4.78318 13.4863 4.39268 13.5505 4.1123 13.3496C3.55682 12.951 3.0544 12.4634 2.63574 11.8965C2.43078 11.6189 2.48905 11.2275 2.7666 11.0225ZM5.67969 6.38672C5.92364 6.14289 6.3194 6.14308 6.56348 6.38672C6.80747 6.63079 6.8075 7.02743 6.56348 7.27148L5.83496 8L6.56348 8.72852C6.80747 8.97259 6.8075 9.36825 6.56348 9.6123C6.31942 9.85627 5.92374 9.85628 5.67969 9.6123L4.93359 8.86621C4.45521 8.38783 4.45523 7.61218 4.93359 7.13379L5.67969 6.38672ZM9.33887 6.3877C9.58295 6.14367 9.9786 6.14364 10.2227 6.3877L10.9688 7.13379C11.4471 7.61218 11.4471 8.38784 10.9688 8.86621L10.2227 9.6123C9.9786 9.85636 9.58295 9.8563 9.33887 9.6123C9.09481 9.36823 9.0948 8.97258 9.33887 8.72852L10.0674 8L9.33887 7.27148C9.09479 7.02741 9.09479 6.63177 9.33887 6.3877ZM2.16504 6.44434C2.50607 6.49661 2.74048 6.81524 2.68848 7.15625C2.64707 7.42641 2.625 7.70811 2.625 8C2.625 8.29276 2.64658 8.57485 2.6875 8.8457C2.73908 9.187 2.50437 9.50602 2.16309 9.55762C1.82178 9.6092 1.50275 9.37353 1.45117 9.03223C1.40083 8.69892 1.375 8.35444 1.375 8C1.375 7.64546 1.40205 7.30111 1.45312 6.96777C1.50541 6.62665 1.82392 6.39216 2.16504 6.44434ZM4.11914 2.66211C4.39932 2.46049 4.79057 2.52354 4.99219 2.80371C5.1938 3.08389 5.12978 3.47514 4.84961 3.67676C4.39612 4.00312 3.9876 4.39885 3.64844 4.85547C3.44259 5.13247 3.0505 5.19017 2.77344 4.98438C2.49646 4.77852 2.43874 4.38643 2.64453 4.10938C3.06388 3.54484 3.5663 3.06 4.11914 2.66211Z" fill="currentColor"/></svg>