<svg width="24" height="24" viewBox="0 0 16 16" fill="currentColor" xmlns="http://www.w3.org/2000/svg"><path d="M13.375 8C13.375 5.03147 10.9686 2.625 8 2.625C5.03147 2.625 2.625 5.03147 2.625 8C2.625 10.9686 5.03147 13.375 8 13.375C10.9686 13.375 13.375 10.9686 13.375 8ZM9.55762 5.55762C9.80169 5.31354 10.1983 5.31354 10.4424 5.55762C10.6865 5.80169 10.6865 6.19831 10.4424 6.44238L8.88477 8L10.4424 9.55762C10.6865 9.80169 10.6865 10.1983 10.4424 10.4424C10.1983 10.6865 9.80169 10.6865 9.55762 10.4424L8 8.88477L6.44238 10.4424C6.19831 10.6865 5.80169 10.6865 5.55762 10.4424C5.31354 10.1983 5.31354 9.80169 5.55762 9.55762L7.11523 8L5.55762 6.44238C5.31354 6.19831 5.31354 5.80169 5.55762 5.55762C5.80169 5.31354 6.19831 5.31354 6.44238 5.55762L8 7.11523L9.55762 5.55762ZM14.625 8C14.625 11.6589 11.6589 14.625 8 14.625C4.34112 14.625 1.375 11.6589 1.375 8C1.375 4.34112 4.34112 1.375 8 1.375C11.6589 1.375 14.625 4.34112 14.625 8Z" fill="currentColor"/></svg>