<svg width="24" height="24" viewBox="0 0 16 16" fill="currentColor" xmlns="http://www.w3.org/2000/svg"><path fill-rule="evenodd" clip-rule="evenodd" d="M1.33325 8C1.33325 4.3181 4.31802 1.33334 7.99992 1.33334C11.6818 1.33334 14.6666 4.3181 14.6666 8C14.6666 11.6819 11.6818 14.6667 7.99992 14.6667C4.31802 14.6667 1.33325 11.6819 1.33325 8ZM6.47133 5.5286C6.21097 5.26825 5.78886 5.26825 5.52851 5.5286C5.26816 5.78895 5.26816 6.21106 5.52851 6.47141L7.05712 8L5.52851 9.5286C5.26816 9.78894 5.26816 10.2111 5.52851 10.4714C5.78886 10.7317 6.21097 10.7317 6.47133 10.4714L7.99992 8.9428L9.52852 10.4714C9.78885 10.7317 10.211 10.7317 10.4713 10.4714C10.7317 10.2111 10.7317 9.78894 10.4713 9.5286L8.94272 8L10.4713 6.47141C10.7317 6.21106 10.7317 5.78895 10.4713 5.5286C10.211 5.26825 9.78885 5.26825 9.52852 5.5286L7.99992 7.0572L6.47133 5.5286Z" fill="currentColor"/></svg>