<svg width="24" height="24" viewBox="0 0 16 16" fill="currentColor" xmlns="http://www.w3.org/2000/svg"><path d="M9.26538 2.02002V13.811H10.8503C12.5771 13.811 13.9772 12.4108 13.9773 10.6841V5.14697C13.9773 3.42016 12.5772 2.02002 10.8503 2.02002H9.26538ZM12.7234 10.6841C12.7233 11.7186 11.8849 12.5571 10.8503 12.5571H10.5183V3.27393H10.8503C11.885 3.27393 12.7234 4.11236 12.7234 5.14697V10.6841Z" fill="currentColor"/><path d="M3.23096 5.14697C3.23096 4.1124 4.06945 3.27399 5.104 3.27393H9.26514V12.5571H5.104C4.0695 12.5571 3.23104 11.7186 3.23096 10.6841V5.14697ZM1.97705 10.6841C1.97714 12.4108 3.3773 13.811 5.104 13.811H10.519V2.02002H5.104C3.37725 2.02009 1.97705 3.4202 1.97705 5.14697V10.6841Z" fill="currentColor"/><path d="M7.40816 8.30125C7.59051 8.14187 7.59051 7.85828 7.40816 7.6989L5.74931 6.24902C5.49063 6.02292 5.08607 6.20663 5.08607 6.55019V9.44995C5.08607 9.79351 5.49063 9.97722 5.74931 9.75113L7.40816 8.30125Z" fill="currentColor"/></svg>