<svg width="24" height="24" viewBox="0 0 16 16" fill="currentColor" xmlns="http://www.w3.org/2000/svg"><path d="M8.89038 8.89127C9.13443 8.64721 9.53106 8.64726 9.77515 8.89127L12.7087 11.8249V9.33365C12.7087 8.98847 12.9886 8.70865 13.3337 8.70865C13.6787 8.70891 13.9587 8.98863 13.9587 9.33365V13.3336C13.9586 13.6785 13.6786 13.9584 13.3337 13.9586H9.33374C8.98866 13.9586 8.70891 13.6787 8.70874 13.3336C8.70874 12.9885 8.98856 12.7086 9.33374 12.7086H11.823L8.89038 9.77603C8.6465 9.53207 8.64669 9.13535 8.89038 8.89127ZM6.66675 2.04166C7.01193 2.04166 7.29175 2.32148 7.29175 2.66666C7.29175 3.01183 7.01193 3.29166 6.66675 3.29166H4.17651L7.10913 6.22427C7.35318 6.46834 7.35317 6.86496 7.10913 7.10904C6.86506 7.35311 6.46844 7.3531 6.22437 7.10904L3.29175 4.17642V6.66666C3.29175 7.01183 3.01193 7.29166 2.66675 7.29166C2.32157 7.29166 2.04175 7.01183 2.04175 6.66666V2.66666C2.04175 2.32148 2.32157 2.04166 2.66675 2.04166H6.66675Z" fill="currentColor"/></svg>