<svg width="24" height="24" viewBox="0 0 16 16" fill="currentColor" xmlns="http://www.w3.org/2000/svg"><path d="M2.625 6.66699C2.625 5.9076 3.24058 5.29199 4 5.29199H9.33301C10.0924 5.29199 10.708 5.9076 10.708 6.66699V12C10.708 12.7594 10.0924 13.375 9.33301 13.375H4C3.24058 13.375 2.625 12.7594 2.625 12V6.66699ZM7.29199 11.333V9.95801H8.66699C9.01202 9.95783 9.29199 9.67808 9.29199 9.33301C9.29182 8.98809 9.01191 8.70818 8.66699 8.70801H7.29199V7.33301C7.29182 6.98809 7.01191 6.70818 6.66699 6.70801C6.32192 6.70801 6.04217 6.98798 6.04199 7.33301V8.70801H4.66699C4.32192 8.70801 4.04217 8.98798 4.04199 9.33301C4.04199 9.67819 4.32181 9.95801 4.66699 9.95801H6.04199V11.333C6.04199 11.6782 6.32181 11.958 6.66699 11.958C7.01202 11.9578 7.29199 11.6781 7.29199 11.333ZM5.29199 4C5.29199 3.2406 5.90758 2.625 6.66699 2.625H12C12.7594 2.625 13.375 3.24061 13.375 4V9.33301C13.375 10.0924 12.7594 10.708 12 10.708H11.958V6.66699C11.958 5.21725 10.7828 4.04199 9.33301 4.04199H5.29199V4ZM4.04199 4.04199H4C2.55021 4.04199 1.375 5.21725 1.375 6.66699V12C1.375 13.4498 2.55022 14.625 4 14.625H9.33301C10.7827 14.625 11.958 13.4498 11.958 12V11.958H12C13.4497 11.958 14.625 10.7828 14.625 9.33301V4C14.625 2.55026 13.4497 1.375 12 1.375H6.66699C5.21721 1.375 4.04199 2.55026 4.04199 4V4.04199Z" fill="currentColor"/></svg>