<svg width="24" height="24" viewBox="0 0 16 16" fill="currentColor" xmlns="http://www.w3.org/2000/svg"><path d="M2.5 11.875C2.15482 11.875 1.875 12.1548 1.875 12.5C1.875 12.8452 2.15482 13.125 2.5 13.125H13.5C13.8452 13.125 14.125 12.8452 14.125 12.5C14.125 12.1548 13.8452 11.875 13.5 11.875H2.5ZM14 6.49316C14 6.18535 13.667 5.99283 13.4004 6.14648L10.5996 7.76367C10.3335 7.91776 10.3333 8.30208 10.5996 8.45605L13.4004 10.0732C13.6669 10.2267 13.9999 10.0342 14 9.72656V6.49316ZM2.5 7.375C2.15482 7.375 1.875 7.65482 1.875 8C1.875 8.34518 2.15482 8.625 2.5 8.625H7.5C7.84518 8.625 8.125 8.34518 8.125 8C8.125 7.65482 7.84518 7.375 7.5 7.375H2.5ZM2.5 2.875C2.15482 2.875 1.875 3.15482 1.875 3.5C1.875 3.84518 2.15482 4.125 2.5 4.125H13.5C13.8452 4.125 14.125 3.84518 14.125 3.5C14.125 3.15482 13.8452 2.875 13.5 2.875H2.5Z" fill="currentColor"/></svg>