<svg width="24" height="24" viewBox="0 0 16 16" fill="currentColor" xmlns="http://www.w3.org/2000/svg"><path d="M4.21373 3.95188C4.88772 3.81334 5.60801 3.84952 6.27623 4.14608C6.94982 4.44507 7.52748 4.99015 7.93917 5.7934L6.87109 6.34027C6.57124 5.75535 6.1866 5.41948 5.78962 5.24318C5.38709 5.06453 4.92746 5.03025 4.45591 5.1271C3.48951 5.32575 2.58146 6.04895 2.22154 6.90277C1.75432 8.0113 1.82631 8.97813 2.16462 9.63938C2.49935 10.2936 3.10935 10.6907 3.85993 10.6907C5.54968 10.6905 6.49931 9.66911 6.88449 8.76103H4.35435V7.56014H7.8577C7.95007 7.08321 8.12189 6.61111 8.37556 6.1684C9.46891 4.2603 11.7952 3.37915 13.6244 4.42733C15.4534 5.47557 15.8694 7.92782 14.7762 9.83581C13.6829 11.7439 11.3566 12.6251 9.52734 11.5769C8.67985 11.0913 8.13582 10.304 7.90457 9.40947C7.31606 10.6329 6.02433 11.8903 3.85993 11.8905C2.63593 11.8905 1.62582 11.2205 1.09654 10.1863C0.570926 9.1589 0.534242 7.81518 1.11551 6.43626C1.64008 5.19186 2.88884 4.22428 4.21373 3.95188ZM13.0273 5.46862C11.8968 4.82088 10.2564 5.30036 9.41685 6.7655C8.57759 8.23057 8.99404 9.88786 10.1244 10.5356C11.2549 11.1831 12.8955 10.7037 13.7349 9.23871C14.5741 7.77366 14.1577 6.11633 13.0273 5.46862Z" fill="currentColor"/></svg>