<svg width="24" height="24" viewBox="0 0 16 16" fill="currentColor" xmlns="http://www.w3.org/2000/svg"><path d="M11.8343 13.1844C9.95933 13.1844 8.67362 12.3741 8.29862 11.2491C8.25174 11.1018 8.21826 10.9411 8.21826 10.7804C8.21826 10.3451 8.48612 10.0638 8.8946 10.0638C9.23612 10.0638 9.4571 10.2179 9.60442 10.5795C9.90576 11.4835 10.783 11.9054 11.9013 11.9054C13.1267 11.9054 14.004 11.2759 14.004 10.4121C14.004 9.66205 13.495 9.1933 12.2026 8.91205L11.1446 8.69107C9.21603 8.28259 8.3388 7.38526 8.3388 5.99241C8.3388 4.33839 9.79192 3.2 11.8477 3.2C13.5151 3.2 14.8276 3.98348 15.2026 5.27589C15.2361 5.36964 15.2562 5.48348 15.2562 5.6241C15.2562 6.0125 14.9817 6.26696 14.5933 6.26696C14.2317 6.26696 14.0107 6.09955 13.8567 5.75134C13.5285 4.86071 12.7919 4.47901 11.8276 4.47901C10.6959 4.47901 9.85889 5.02812 9.85889 5.91205C9.85889 6.61518 10.3611 7.08393 11.6134 7.35178L12.6647 7.57277C14.6937 8.00134 15.5241 8.8116 15.5241 10.2179C15.5241 12.0393 14.091 13.1844 11.8343 13.1844Z" fill="currentColor"/><path d="M4.15974 13.1308C3.69099 13.1308 3.40974 12.8362 3.40974 12.354V4.65982H1.0392C0.624023 4.65982 0.342773 4.40536 0.342773 4.01027C0.342773 3.61518 0.624023 3.36072 1.0392 3.36072H7.27358C7.68876 3.36072 7.97001 3.61518 7.97001 4.01027C7.97001 4.40536 7.68876 4.65982 7.27358 4.65982H4.90974V12.354C4.90974 12.8362 4.62179 13.1308 4.15974 13.1308Z" fill="currentColor"/></svg>