<svg width="24" height="24" viewBox="0 0 16 16" fill="currentColor" xmlns="http://www.w3.org/2000/svg"><path d="M13.7365 8.00014C13.7365 7.96465 13.7154 7.83785 13.4641 7.63742C13.2187 7.44171 12.8266 7.23847 12.2889 7.05706C11.2192 6.69624 9.70236 6.46331 7.99986 6.46331C6.29765 6.46332 4.78161 6.69634 3.71191 7.05706C3.17399 7.2385 2.78105 7.44166 2.53557 7.63742C2.2844 7.83781 2.26437 7.96466 2.26437 8.00014C2.26442 8.03582 2.2846 8.16267 2.53557 8.36287C2.78105 8.55862 3.17399 8.76178 3.71191 8.94322C4.78161 9.30393 6.29769 9.53697 7.99986 9.53697C9.70236 9.53697 11.2192 9.30405 12.2889 8.94322C12.8267 8.76181 13.2187 8.55859 13.4641 8.36287C13.7152 8.16263 13.7364 8.03583 13.7365 8.00014ZM14.9362 8.00014C14.9362 8.55473 14.6017 8.99067 14.2119 9.30148C13.8162 9.61696 13.2802 9.87414 12.6717 10.0794C11.4483 10.492 9.79661 10.7368 7.99986 10.7368C6.2031 10.7367 4.55141 10.492 3.32799 10.0794C2.71948 9.87413 2.18353 9.61698 1.78781 9.30148C1.39806 8.99067 1.06353 8.55473 1.06348 8.00014C1.06348 7.44549 1.39803 7.00964 1.78781 6.6988C2.18356 6.38325 2.71939 6.12507 3.32799 5.91979C4.55139 5.50716 6.2032 5.26243 7.99986 5.26242C9.79648 5.26242 11.4483 5.50718 12.6717 5.91979C13.2803 6.12505 13.8162 6.38328 14.2119 6.6988C14.6017 7.00964 14.9362 7.44549 14.9362 8.00014Z" fill="currentColor"/><path d="M10.8686 3.0321C10.8378 3.01435 10.7175 2.9692 10.4183 3.08657C10.1261 3.20125 9.75402 3.43919 9.32806 3.81417C8.48071 4.56018 7.52058 5.75732 6.66933 7.23173C5.81823 8.70589 5.26201 10.1353 5.03956 11.2421C4.92773 11.7986 4.9072 12.2405 4.95399 12.551C5.00195 12.8687 5.10178 12.9495 5.13252 12.9672C5.16344 12.985 5.28338 13.031 5.58225 12.9137C5.87451 12.799 6.24693 12.5603 6.67302 12.1852C7.52025 11.4391 8.48011 10.2427 9.3312 8.76856C10.1824 7.29415 10.7391 5.86408 10.9615 4.75725C11.0733 4.20083 11.0933 3.7597 11.0465 3.4493C10.9986 3.13176 10.8994 3.04998 10.8686 3.0321ZM11.4685 1.99306C11.9487 2.2704 12.159 2.77808 12.2333 3.27102C12.3086 3.77147 12.2634 4.36422 12.1369 4.9938C11.8825 6.25966 11.2686 7.81242 10.3702 9.36845C9.47185 10.9245 8.43409 12.2325 7.465 13.0857C6.98299 13.5101 6.49232 13.8457 6.02123 14.0306C5.55719 14.2127 5.01239 14.2845 4.53207 14.0072C4.05173 13.7299 3.84155 13.2222 3.76724 12.7293C3.69184 12.2288 3.73616 11.6356 3.86268 11.0059C4.11705 9.74011 4.731 8.18723 5.62932 6.63128C6.52764 5.07536 7.56553 3.7672 8.53456 2.914C9.0166 2.48961 9.50817 2.15464 9.9793 1.96968C10.4434 1.78754 10.9881 1.71573 11.4685 1.99306Z" fill="currentColor"/><path d="M5.1321 3.03183C5.10136 3.04958 5.00209 3.13123 4.95413 3.44903C4.90735 3.75942 4.92738 4.2006 5.03914 4.75698C5.26153 5.86382 5.81822 7.29389 6.66947 8.76829C7.52058 10.2424 8.4804 11.4389 9.32764 12.1849C9.75374 12.56 10.1262 12.7987 10.4184 12.9134C10.7175 13.0308 10.8374 12.9847 10.8681 12.967C10.899 12.9491 10.9988 12.8682 11.0467 12.5507C11.0935 12.2403 11.0729 11.7984 10.9611 11.2418C10.7386 10.1351 10.1824 8.70558 9.33134 7.23146C8.48009 5.75706 7.51996 4.55991 6.6726 3.8139C6.24661 3.4389 5.8746 3.20099 5.58239 3.08631C5.28345 2.96901 5.16303 3.01403 5.1321 3.03183ZM4.53221 1.99279C5.01253 1.71555 5.55733 1.78729 6.02137 1.96941C6.49245 2.15438 6.98315 2.48995 7.46514 2.9143C8.43423 3.76749 9.472 5.07554 10.3704 6.63157C11.2687 8.18761 11.8827 9.74037 12.137 11.0062C12.2635 11.6358 12.3088 12.2285 12.2334 12.729C12.1591 13.2219 11.9489 13.7296 11.4686 14.007C10.9883 14.2843 10.4435 14.2125 9.97944 14.0303C9.50828 13.8454 9.01677 13.5104 8.5347 13.086C7.56565 12.2328 6.5278 10.9247 5.62946 9.36874C4.73115 7.81282 4.1172 6.2599 3.86282 4.99409C3.73631 4.36444 3.692 3.77124 3.76738 3.27075C3.84169 2.77778 4.05187 2.27012 4.53221 1.99279Z" fill="currentColor"/></svg>