<svg width="24" height="24" viewBox="0 0 16 16" fill="currentColor" xmlns="http://www.w3.org/2000/svg"><path d="M1.33496 8C1.33496 4.31907 4.31907 1.33496 8 1.33496L8.34277 1.34375C11.8644 1.52222 14.665 4.43407 14.665 8L14.6562 8.34277L14.6318 8.6709C14.2954 12.0367 11.4544 14.665 8 14.665L7.65723 14.6562C4.35561 14.489 1.68767 11.9191 1.36719 8.66016L1.34375 8.34277L1.33496 8ZM2.59277 8.30176C2.74333 11.0512 4.948 13.2553 7.69727 13.4062L8.01562 13.4141C10.8977 13.4059 13.2505 11.1462 13.4062 8.30176L13.4141 7.9834C13.4054 5.10172 11.146 2.74851 8.30176 2.59277L7.9834 2.58496C5.00595 2.59388 2.59388 5.00595 2.58496 7.9834L2.59277 8.30176ZM7.51172 4.68262V7.13574H7.58691C7.69202 6.88696 7.85504 6.69068 8.07617 6.54688C8.29753 6.40299 8.57194 6.33105 8.89844 6.33105C9.23857 6.33109 9.52337 6.3987 9.75293 6.53418C9.98535 6.66699 10.1613 6.86068 10.2803 7.11523C10.402 7.36979 10.4629 7.6797 10.4629 8.04492V11H9.25098V8.31836C9.25091 7.99487 9.18336 7.74992 9.04785 7.58398C8.91227 7.41797 8.69987 7.33496 8.41211 7.33496C8.22691 7.33503 8.06614 7.37816 7.93066 7.46387C7.79809 7.54681 7.69475 7.6645 7.62012 7.81641C7.54818 7.96859 7.51172 8.14893 7.51172 8.35645V11H6.2998L6.2998 4.68262H7.51172Z" fill="currentColor"/></svg>