<svg width="24" height="24" viewBox="0 0 16 16" fill="currentColor" xmlns="http://www.w3.org/2000/svg"><path d="M14.0664 8.00031C14.0664 7.5953 13.738 7.26691 13.333 7.26691C12.928 7.26691 12.5996 7.5953 12.5996 8.00031C12.5998 8.40516 12.9281 8.7337 13.333 8.7337C13.7379 8.7337 14.0662 8.40516 14.0664 8.00031ZM4.50293 8.59991C4.31186 9.18522 3.85019 9.64666 3.26465 9.83722C4.00194 11.7269 5.84448 13.0667 8 13.0667C10.1552 13.0666 11.996 11.7266 12.7334 9.83722C12.1484 9.64642 11.687 9.18488 11.4961 8.59991H4.50293ZM8 2.93292C5.84459 2.93292 4.00201 4.27285 3.26465 6.16241C3.85014 6.35292 4.31179 6.81452 4.50293 7.39972H11.4961C11.6871 6.81486 12.1484 6.35317 12.7334 6.16241C11.996 4.27318 10.1551 2.93306 8 2.93292ZM1.93262 8.00031C1.93279 8.40506 2.26126 8.73353 2.66602 8.7337C3.07092 8.7337 3.39924 8.40516 3.39941 8.00031C3.39941 7.5953 3.07102 7.26691 2.66602 7.26691C2.26116 7.26708 1.93262 7.5954 1.93262 8.00031ZM15.2666 8.00031C15.2665 8.82873 14.7441 9.53286 14.0117 9.80792C13.2339 12.3876 10.8376 14.2668 8 14.2669C5.16184 14.2669 2.7638 12.3874 1.98633 9.80695C1.25475 9.5315 0.733535 8.82818 0.733398 8.00031C0.733398 7.17245 1.2539 6.46731 1.98535 6.19171C2.76312 3.61177 5.16218 1.7337 8 1.7337C10.8374 1.73385 13.2338 3.61219 14.0117 6.19171C14.7442 6.46678 15.2666 7.1717 15.2666 8.00031Z" fill="currentColor"/></svg>