<svg width="24" height="24" viewBox="0 0 16 16" fill="currentColor" xmlns="http://www.w3.org/2000/svg"><path d="M2.66609 11.333V9.33299C2.66591 9.01082 2.43761 8.74205 2.13372 8.68008L1.86586 8.6533C1.56197 8.59133 1.33367 8.32255 1.3335 8.0004C1.3335 7.67805 1.56182 7.40835 1.86586 7.34638L2.13372 7.31959C2.4377 7.25757 2.66609 6.989 2.66609 6.66669V4.66669C2.66609 3.19393 3.86074 2.0004 5.3335 2.0004C5.70151 2.0006 5.99979 2.29863 5.99979 2.66669C5.99979 3.03476 5.70151 3.33278 5.3335 3.33299C4.59712 3.33299 3.99979 3.93031 3.99979 4.66669V6.66669C3.99979 7.17946 3.80478 7.64532 3.48751 7.99928C3.80515 8.35326 3.9997 8.81996 3.99979 9.33299V11.333C3.99979 12.0694 4.59711 12.6667 5.3335 12.6667C5.70139 12.6669 5.99959 12.9651 5.99979 13.333C5.99979 13.7011 5.70151 14.0002 5.3335 14.0004C3.86075 14.0004 2.66609 12.8058 2.66609 11.333ZM11.9998 11.333V9.33299C11.9999 8.82023 12.1936 8.35319 12.511 7.99928C12.194 7.64538 11.9998 7.17919 11.9998 6.66669V4.66669C11.9998 3.93031 11.4025 3.33299 10.6661 3.33299C10.2981 3.33279 9.99979 3.03476 9.99979 2.66669C9.99979 2.29863 10.2981 2.0006 10.6661 2.0004C12.1389 2.0004 13.3335 3.19394 13.3335 4.66669V6.66669C13.3335 6.98901 13.5619 7.25758 13.8659 7.31959L14.1337 7.34638C14.4378 7.40835 14.6661 7.67805 14.6661 8.0004C14.6659 8.32255 14.4376 8.59133 14.1337 8.6533L13.8659 8.68008C13.562 8.74205 13.3337 9.01081 13.3335 9.33299V11.333C13.3335 12.8058 12.1389 14.0004 10.6661 14.0004C10.2981 14.0002 9.99979 13.7011 9.99979 13.333C9.99999 12.9651 10.2982 12.6669 10.6661 12.6667C11.4025 12.6667 11.9998 12.0694 11.9998 11.333Z" fill="currentColor"/></svg>