<svg width="24" height="24" viewBox="0 0 16 16" fill="currentColor" xmlns="http://www.w3.org/2000/svg"><path d="M12.4644 11.5497V10.8354H11.7501C11.4819 10.8354 11.2646 10.6181 11.2646 10.3499C11.2648 10.0817 11.482 9.86439 11.7501 9.86439H12.4644V9.1501C12.4644 8.88192 12.6818 8.66473 12.9499 8.66461C13.2182 8.66461 13.4354 8.88185 13.4354 9.1501V9.86439H14.1497C14.4179 9.86439 14.6362 10.0817 14.6363 10.3499C14.6363 10.6181 14.4179 10.8354 14.1497 10.8354H13.4354V11.5497C13.4354 11.8179 13.2182 12.0363 12.9499 12.0363C12.6818 12.0361 12.4644 11.8178 12.4644 11.5497Z" fill="currentColor"/><path d="M12.4644 6.84974V6.13545H11.7501C11.4819 6.13545 11.2646 5.91821 11.2646 5.64996C11.2648 5.38181 11.482 5.16447 11.7501 5.16447H12.4644V4.45018C12.4644 4.182 12.6818 3.96481 12.9499 3.96469C13.2182 3.96469 13.4354 4.18193 13.4354 4.45018V5.16447H14.1497C14.4179 5.16447 14.6362 5.38181 14.6363 5.64996C14.6363 5.91821 14.4179 6.13545 14.1497 6.13545H13.4354V6.84974C13.4354 7.11799 13.2182 7.33634 12.9499 7.33634C12.6818 7.33622 12.4644 7.11791 12.4644 6.84974Z" fill="currentColor"/><path d="M1.94385 9.83053V6.16982C1.94385 5.13899 2.49429 4.18647 3.38693 3.67094L6.55769 1.84058C7.45049 1.32514 8.54992 1.32517 9.44273 1.84058L11.0287 2.75576C11.3153 2.92158 11.413 3.28815 11.2474 3.57495C11.0817 3.86175 10.7151 3.96039 10.4282 3.79482L8.8434 2.87964C8.32184 2.57852 7.67858 2.57852 7.15702 2.87964L3.98737 4.71C3.46581 5.01112 3.14474 5.56757 3.14474 6.16982V9.83053C3.14483 10.4327 3.46588 10.9893 3.98737 11.2904L7.15702 13.1207C7.67858 13.4218 8.32184 13.4218 8.8434 13.1207L10.4282 12.2055C10.7152 12.0398 11.0817 12.1384 11.2474 12.4254C11.4129 12.7123 11.3154 13.0789 11.0287 13.2446L9.44273 14.1598C8.55002 14.675 7.45039 14.6751 6.55769 14.1598L3.38693 12.3294C2.49425 11.814 1.94393 10.8613 1.94385 9.83053Z" fill="currentColor"/><path d="M5.55957 7.99996C5.55958 7.28724 5.78175 6.6955 6.16783 6.25331C6.54863 5.81736 7.05638 5.56394 7.57185 5.45867C8.56171 5.2567 9.768 5.57933 10.3464 6.49327L9.8397 6.81469L9.33189 7.13501C9.09027 6.75355 8.45633 6.50238 7.8118 6.63389C7.51036 6.69546 7.25263 6.83644 7.07185 7.04349C6.89619 7.24474 6.76047 7.5465 6.76046 7.99996C6.76046 8.45343 6.89621 8.7552 7.07185 8.95644C7.25262 9.16347 7.51035 9.30448 7.8118 9.36603C8.4563 9.4975 9.09024 9.24637 9.33189 8.86492L10.3464 9.50554C9.76822 10.4196 8.56289 10.743 7.57296 10.5413C7.05729 10.4361 6.54877 10.1827 6.16783 9.74661C5.78173 9.30442 5.55957 8.71271 5.55957 7.99996Z" fill="currentColor"/></svg>