<svg width="24" height="24" viewBox="0 0 16 16" fill="currentColor" xmlns="http://www.w3.org/2000/svg"><path d="M8.11523 1.375C8.63434 1.37518 9.1329 1.58119 9.5 1.94824L12.7188 5.16797C13.0857 5.53519 13.292 6.03358 13.292 6.55273V12C13.292 13.4496 12.1165 14.6247 10.667 14.625H5.33398C3.88425 14.625 2.70801 13.4498 2.70801 12V4C2.70801 2.55026 3.88424 1.375 5.33398 1.375H8.11523ZM5.33398 2.625C4.5746 2.625 3.95898 3.24061 3.95898 4V12C3.95898 12.7594 4.57459 13.375 5.33398 13.375H10.667C11.4262 13.3747 12.042 12.7593 12.042 12V6.625H10C8.91857 6.62482 8.04199 5.74746 8.04199 4.66602V2.625H5.33398ZM9.29199 4.66602C9.29199 5.05712 9.60893 5.37482 10 5.375H11.1582L9.29199 3.50781V4.66602Z" fill="currentColor"/></svg>