<svg width="24" height="24" viewBox="0 0 16 16" fill="currentColor" xmlns="http://www.w3.org/2000/svg"><path d="M3.16634 11.6667C3.16634 11.1372 2.98162 10.8734 2.7946 10.7282C2.5853 10.5658 2.3036 10.5 2.06217 10.5H1.83301V12.8333H2.06217C2.3036 12.8333 2.5853 12.7676 2.7946 12.6051C2.98162 12.46 3.16634 12.1961 3.16634 11.6667ZM4.16634 11.6667C4.16634 12.4705 3.8649 13.04 3.40788 13.3949C2.97309 13.7324 2.45266 13.8333 2.06217 13.8333H0.833008V9.5H2.06217C2.45266 9.5 2.97309 9.60096 3.40788 9.93848C3.8649 10.2933 4.16634 10.8628 4.16634 11.6667Z" fill="currentColor"/><path d="M5.49967 11.1667C5.49967 10.7985 5.79815 10.5 6.16634 10.5C6.53453 10.5 6.83301 10.7985 6.83301 11.1667V12.1667C6.83301 12.5349 6.53453 12.8333 6.16634 12.8333C5.79815 12.8333 5.49967 12.5349 5.49967 12.1667V11.1667ZM4.49967 12.1667C4.49967 13.0871 5.24587 13.8333 6.16634 13.8333C7.08682 13.8333 7.83301 13.0871 7.83301 12.1667V11.1667C7.83301 10.2462 7.08682 9.5 6.16634 9.5C5.24587 9.5 4.49967 10.2462 4.49967 11.1667V12.1667Z" fill="currentColor"/><path d="M10.583 12.1667C10.583 12.5349 10.2845 12.8333 9.91634 12.8333C9.54815 12.8333 9.24968 12.5349 9.24967 12.1667V11.1667C9.24967 10.7985 9.54815 10.5 9.91634 10.5C10.2845 10.5 10.583 10.7985 10.583 11.1667H11.583C11.583 10.2462 10.8368 9.50001 9.91634 9.5C8.99587 9.5 8.24967 10.2462 8.24967 11.1667V12.1667C8.24968 13.0871 8.99586 13.8333 9.91634 13.8333C10.8368 13.8333 11.583 13.0871 11.583 12.1667H10.583Z" fill="currentColor"/><path d="M13.8897 11.6663L15.0783 13.75H13.9656L13.3339 12.6418L12.7022 13.75H11.5884L12.777 11.6663L11.5895 9.58374H12.7033L13.3339 10.6898L13.9645 9.58374H15.0783L13.8897 11.6663Z" fill="currentColor"/><path d="M2.729 7.21313V3.95644C2.729 2.99389 3.50975 2.21313 4.47231 2.21313H9.48235C9.92928 2.21317 10.3593 2.38512 10.6832 2.69305L12.6408 4.55465C12.9868 4.88366 13.1821 5.34061 13.1821 5.81805V7.21313C13.1821 7.54444 12.9141 7.81347 12.5828 7.81358C12.2514 7.81358 11.9824 7.54451 11.9824 7.21313V5.81805C11.9824 5.66933 11.9216 5.52655 11.8138 5.42407L9.85624 3.56358C9.75536 3.46766 9.62155 3.41407 9.48235 3.41403H4.47231C4.1725 3.41403 3.9299 3.65663 3.9299 3.95644V7.21313C3.9299 7.54451 3.66082 7.81358 3.32945 7.81358C2.99808 7.81358 2.729 7.54451 2.729 7.21313Z" fill="currentColor"/><path d="M8.67725 4.81585V2.84375H9.87814V4.81585C9.87814 5.11566 10.1207 5.35938 10.4205 5.35938H12.5221V6.55915H10.4205C9.458 6.55915 8.67725 5.7784 8.67725 4.81585Z" fill="currentColor"/></svg>