<svg width="24" height="24" viewBox="0 0 16 16" fill="currentColor" xmlns="http://www.w3.org/2000/svg"><path d="M8 1.375C8.58386 1.375 9.12929 1.66661 9.45312 2.15234L9.7041 2.5293C9.93056 2.86888 10.3434 3.03299 10.7412 2.94141L10.9893 2.88379C11.585 2.74631 12.2093 2.92608 12.6416 3.3584C13.0739 3.7907 13.2537 4.41501 13.1162 5.01074L13.0586 5.25879C12.967 5.65656 13.1311 6.06946 13.4707 6.2959L13.8477 6.54688C14.3334 6.87071 14.625 7.41615 14.625 8C14.625 8.58385 14.3334 9.12929 13.8477 9.45312L13.4707 9.7041C13.1311 9.93055 12.967 10.3434 13.0586 10.7412L13.1162 10.9893L13.1523 11.2139C13.2042 11.7384 13.0198 12.2634 12.6416 12.6416C12.2093 13.0739 11.585 13.2537 10.9893 13.1162L10.7412 13.0586C10.3434 12.967 9.93055 13.1311 9.7041 13.4707L9.45312 13.8477C9.12929 14.3334 8.58385 14.625 8 14.625C7.41615 14.625 6.87071 14.3334 6.54688 13.8477L6.2959 13.4707C6.06946 13.1311 5.65656 12.967 5.25879 13.0586L5.01074 13.1162C4.41501 13.2537 3.7907 13.0739 3.3584 12.6416C2.92608 12.2093 2.74631 11.585 2.88379 10.9893L2.94141 10.7412C3.03299 10.3434 2.86888 9.93056 2.5293 9.7041L2.15234 9.45312C1.6666 9.12929 1.375 8.58386 1.375 8C1.375 7.41614 1.6666 6.87071 2.15234 6.54688L2.5293 6.2959C2.86887 6.06945 3.03299 5.65655 2.94141 5.25879L2.88379 5.01074C2.74631 4.41501 2.92608 3.79072 3.3584 3.3584C3.79072 2.92608 4.41502 2.74631 5.01074 2.88379L5.25879 2.94141C5.65655 3.03299 6.06945 2.86887 6.2959 2.5293L6.54688 2.15234C6.87071 1.6666 7.41614 1.375 8 1.375ZM8 2.625C7.83413 2.625 7.67895 2.70766 7.58691 2.8457L7.33594 3.22266C6.82102 3.99493 5.88197 4.36778 4.97754 4.15918L4.72949 4.10254C4.55371 4.06197 4.36975 4.11463 4.24219 4.24219C4.11463 4.36975 4.06197 4.5537 4.10254 4.72949L4.15918 4.97754C4.36778 5.88197 3.99493 6.82102 3.22266 7.33594L2.8457 7.58691C2.70766 7.67895 2.625 7.83413 2.625 8C2.625 8.16587 2.70766 8.32105 2.8457 8.41309L3.22266 8.66406C3.99493 9.17898 4.36779 10.118 4.15918 11.0225L4.10254 11.2705C4.06198 11.4463 4.11463 11.6303 4.24219 11.7578C4.36977 11.8854 4.55371 11.938 4.72949 11.8975L4.97754 11.8408C5.88195 11.6322 6.82101 12.005 7.33594 12.7773L7.58691 13.1543C7.67894 13.2923 7.83412 13.375 8 13.375C8.16588 13.375 8.32106 13.2923 8.41309 13.1543L8.66406 12.7773C9.17899 12.005 10.118 11.6322 11.0225 11.8408L11.2695 11.8975C11.4453 11.938 11.6302 11.8854 11.7578 11.7578C11.8854 11.6302 11.938 11.4463 11.8975 11.2705V11.2695L11.8408 11.0225C11.6322 10.118 12.005 9.17899 12.7773 8.66406L13.1543 8.41309C13.2923 8.32106 13.375 8.16588 13.375 8C13.375 7.83412 13.2923 7.67894 13.1543 7.58691L12.7773 7.33594C12.005 6.82101 11.6322 5.88195 11.8408 4.97754L11.8975 4.72949C11.938 4.55372 11.8854 4.36977 11.7578 4.24219C11.6303 4.11463 11.4463 4.06198 11.2705 4.10254L11.0225 4.15918C10.118 4.36779 9.17898 3.99493 8.66406 3.22266L8.41309 2.8457C8.32105 2.70767 8.16587 2.625 8 2.625ZM8 5.375C9.44978 5.375 10.625 6.55022 10.625 8C10.625 9.44978 9.44978 10.625 8 10.625C6.55022 10.625 5.375 9.44978 5.375 8C5.375 6.55022 6.55022 5.375 8 5.375ZM8 6.625C7.24058 6.625 6.625 7.24058 6.625 8C6.625 8.75942 7.24058 9.375 8 9.375C8.75942 9.375 9.375 8.75942 9.375 8C9.375 7.24058 8.75942 6.625 8 6.625Z" fill="currentColor"/></svg>