<svg width="24" height="24" viewBox="0 0 16 16" fill="currentColor" xmlns="http://www.w3.org/2000/svg"><path d="M7.74657 8.375C8.09175 8.375 8.37157 8.65482 8.37157 9C8.37157 9.34518 8.09175 9.625 7.74657 9.625H4.72801C3.89579 9.625 3.22025 10.2996 3.2202 11.1318V11.1533L3.16942 12.6533C3.16219 12.8653 3.3323 13.041 3.54442 13.041H7.66063C8.00567 13.0411 8.28557 13.321 8.28563 13.666C8.28563 14.0111 8.0057 14.2909 7.66063 14.291H3.54442C2.62526 14.291 1.88811 13.529 1.91942 12.6104L1.97118 11.1104C1.98277 9.59768 3.21261 8.375 4.72801 8.375H7.74657ZM9.90672 4.53125C9.90651 3.47853 9.0532 2.62518 8.00047 2.625C6.94759 2.625 6.09347 3.47842 6.09325 4.53125C6.09325 5.58427 6.94746 6.43848 8.00047 6.43848C9.05334 6.4383 9.90672 5.58416 9.90672 4.53125ZM11.1567 4.53125C11.1567 6.27451 9.74369 7.6883 8.00047 7.68848C6.2571 7.68848 4.84325 6.27462 4.84325 4.53125C4.84347 2.78806 6.25724 1.375 8.00047 1.375C9.74356 1.37518 11.1565 2.78817 11.1567 4.53125Z" fill="currentColor"/><path d="M12.4521 13.0411C12.7973 13.0411 13.0771 13.3209 13.0771 13.6661C13.0771 14.0113 12.7973 14.2911 12.4521 14.2911H10.1514C9.80619 14.2911 9.52637 14.0113 9.52637 13.6661C9.52637 13.3209 9.80619 13.0411 10.1514 13.0411H12.4521ZM13.998 10.7071C14.3432 10.7071 14.623 10.987 14.623 11.3321C14.623 11.6773 14.3432 11.9571 13.998 11.9571H10.1514C9.80619 11.9571 9.52637 11.6773 9.52637 11.3321C9.52637 10.987 9.80619 10.7071 10.1514 10.7071H13.998ZM13.998 8.37413C14.3432 8.37413 14.623 8.65395 14.623 8.99913C14.623 9.34431 14.3432 9.62413 13.998 9.62413H10.1514C9.80619 9.62413 9.52637 9.34431 9.52637 8.99913C9.52637 8.65395 9.80619 8.37413 10.1514 8.37413H13.998Z" fill="currentColor"/></svg>