<svg width="24" height="24" viewBox="0 0 16 16" fill="currentColor" xmlns="http://www.w3.org/2000/svg"><path d="M2.89616 10.9999C2.89616 10.7447 2.79697 10.6243 2.68164 10.5491C2.54173 10.4578 2.34361 10.4166 2.16699 10.4166H1.75033V11.5833H2.16699C2.34361 11.5833 2.54173 11.542 2.68164 11.4508C2.79697 11.3755 2.89616 11.2551 2.89616 10.9999ZM3.72949 10.9999C3.72949 11.5446 3.48142 11.9242 3.13672 12.149C2.81658 12.3577 2.44174 12.4166 2.16699 12.4166H1.75033V13.7499H0.916992V9.58325H2.16699C2.44174 9.58325 2.81658 9.6421 3.13672 9.85083C3.48142 10.0756 3.72949 10.4552 3.72949 10.9999Z" fill="currentColor"/><path d="M9.66699 12.5V11.5166H8.01237V12.3499H8.83366V12.5C8.83366 12.8682 8.53518 13.1667 8.16699 13.1667C7.7988 13.1667 7.50033 12.8682 7.50033 12.5V11C7.50033 10.6318 7.7988 10.3333 8.16699 10.3333C8.53518 10.3333 8.83366 10.6318 8.83366 11V11.0166H9.66699V11C9.66699 10.1716 8.99542 9.5 8.16699 9.5C7.33856 9.5 6.66699 10.1716 6.66699 11V12.5C6.66699 13.3284 7.33857 14 8.16699 14C8.99542 14 9.66699 13.3284 9.66699 12.5Z" fill="currentColor"/><path d="M14.4167 10.7513C14.4166 10.5205 14.2292 10.3333 13.9984 10.3333C13.7675 10.3334 13.5805 10.5205 13.5804 10.7513V10.8184C13.5804 11.0372 13.7268 11.2289 13.9378 11.2865L14.4277 11.4199C14.9624 11.5655 15.3333 12.0511 15.3333 12.6051C15.3333 13.2834 14.7834 13.8333 14.1051 13.8333H13.9954C13.6392 13.8333 13.2976 13.6911 13.0465 13.4385L12.6211 13.0104L13.2122 12.4229L13.6377 12.8512C13.7324 12.9465 13.8612 13 13.9954 13H14.1051C14.3232 12.9999 14.4999 12.8232 14.5 12.6051C14.5 12.427 14.3806 12.2708 14.2087 12.224L13.7191 12.0905C13.1452 11.9342 12.7471 11.4131 12.7471 10.8184V10.7513C12.7471 10.0602 13.3073 9.50002 13.9984 9.5C14.6895 9.5 15.2499 10.0602 15.25 10.7513V10.8711H14.4167V10.7513Z" fill="currentColor"/><path d="M12.3717 9.58325V10.4166H10.8333V11.2499H12.3717V12.0833H10.8333V12.9166H12.5V13.7499H10V9.58325H12.3717Z" fill="currentColor"/><path d="M6.74184 13.7497H5.89251L5.56885 12.7497H4.36684L4.04318 13.7497H3.19385L4.53983 9.58337H5.39474L6.74184 13.7497ZM4.63581 11.9171H5.29987L4.96729 10.8903L4.63581 11.9171Z" fill="currentColor"/><path d="M2.78027 7.27346V3.79689C2.78027 2.83434 3.56102 2.05359 4.52358 2.05359H9.50684C9.96895 2.05368 10.4122 2.23798 10.739 2.56475L12.7088 4.53462C13.0356 4.86139 13.2199 5.30464 13.22 5.76676V7.27346C13.22 7.60483 12.9509 7.8739 12.6196 7.8739C12.2882 7.8739 12.0191 7.60483 12.0191 7.27346V5.76676C12.019 5.6229 11.9624 5.48456 11.8606 5.38283L9.89076 3.41296C9.78904 3.31124 9.65069 3.25457 9.50684 3.25448H4.52358C4.22377 3.25448 3.98117 3.49708 3.98117 3.79689V7.27346C3.98117 7.60483 3.71209 7.8739 3.38072 7.8739C3.04935 7.8739 2.78027 7.60483 2.78027 7.27346Z" fill="currentColor"/><path d="M8.71924 4.81219V2.71509H9.92013V4.81219C9.92013 5.112 10.1627 5.35571 10.4625 5.35571H12.5596V6.55549H10.4625C9.49999 6.55549 8.71924 5.77474 8.71924 4.81219Z" fill="currentColor"/></svg>