<svg width="24" height="24" viewBox="0 0 16 16" fill="currentColor" xmlns="http://www.w3.org/2000/svg"><path d="M8.34273 1.34375C11.8643 1.5222 14.665 4.43402 14.665 7.99996L14.6562 8.34273L14.6318 8.67086C14.2953 12.0367 11.4544 14.6649 7.99996 14.665L7.65719 14.6562C4.35556 14.4889 1.68765 11.9191 1.36719 8.66011L1.34375 8.34273L1.33496 7.99996C1.33496 4.31903 4.31903 1.33496 7.99996 1.33496L8.34273 1.34375ZM7.98336 2.58495C5.00591 2.59387 2.59387 5.00591 2.58495 7.98336L2.59277 8.30172C2.7433 11.0511 4.94795 13.2552 7.69723 13.4062L8.01559 13.414C10.8977 13.4058 13.2504 11.1462 13.4062 8.30172L13.414 7.98336C13.4054 5.10167 11.146 2.74849 8.30172 2.59277L7.98336 2.58495Z" fill="currentColor"/><path d="M6.46474 5.08398C6.53535 5.08398 6.60199 5.11661 6.64529 5.17239L12.5903 12.8301C12.2549 13.149 11.8868 13.4337 11.4907 13.6777L6.68563 7.46764C6.61895 7.38147 6.48096 7.42862 6.48096 7.53758V10.6845C6.48096 10.8108 6.37862 10.9131 6.25239 10.9131H5.31207C5.18583 10.9131 5.0835 10.8108 5.0835 10.6845L5.0835 5.31256C5.0835 5.18632 5.18583 5.08398 5.31207 5.08398H6.46474ZM10.7612 5.08398C10.8874 5.08398 10.9897 5.18632 10.9897 5.31256V7.74506C10.9897 7.8713 10.8874 7.97363 10.7612 7.97363H9.82965C9.70341 7.97363 9.60107 7.8713 9.60107 7.74506V5.31256C9.60107 5.18632 9.70341 5.08398 9.82965 5.08398H10.7612Z" fill="currentColor"/></svg>