<svg width="24" height="24" viewBox="0 0 16 16" fill="currentColor" xmlns="http://www.w3.org/2000/svg"><path d="M7.39997 14.351V13.1959C7.39998 13.1888 7.40084 13.1817 7.40109 13.1747C6.41033 13.032 5.53724 12.5408 5.0127 11.8153C4.81905 11.5469 4.8795 11.1723 5.14774 10.9783C5.41621 10.7841 5.79171 10.8438 5.98591 11.1122C6.35606 11.6241 7.09504 12.0196 8.00042 12.0196H8.21024C9.48864 12.0196 10.2871 11.2113 10.2872 10.4783C10.2872 9.97033 9.92219 9.41506 9.18457 9.12001L6.36984 7.9939C5.29411 7.5636 4.5127 6.63576 4.5127 5.5218V5.43363C4.51292 3.94214 5.88878 2.90659 7.39997 2.79189V1.64903C7.39997 1.31766 7.66905 1.04858 8.00042 1.04858C8.33159 1.04882 8.59975 1.3178 8.59975 1.64903V2.80416C8.59974 2.81091 8.59774 2.81756 8.59752 2.82425C9.5889 2.96665 10.4622 3.45895 10.987 4.18474C11.1809 4.45324 11.1204 4.82772 10.852 5.0218C10.5836 5.21584 10.2092 5.15595 10.0149 4.88787C9.64484 4.37605 8.9056 3.98175 8.00042 3.98162H7.67899C6.46165 3.98172 5.71386 4.74939 5.71359 5.43363V5.5218C5.71359 6.0297 6.07765 6.58499 6.81515 6.88006L9.62988 8.00617C10.7056 8.43646 11.487 9.36431 11.487 10.4783C11.4869 11.983 10.1269 13.04 8.59975 13.1959V14.351C8.59975 14.6823 8.33159 14.9513 8.00042 14.9515C7.66905 14.9515 7.39997 14.6824 7.39997 14.351Z" fill="currentColor"/></svg>