<svg width="24" height="24" viewBox="0 0 16 16" fill="currentColor" xmlns="http://www.w3.org/2000/svg"><path d="M7.80313 10.7302C7.8915 10.8805 8.10878 10.8805 8.19715 10.7302L13.031 2.51268C13.072 2.44286 13.147 2.39999 13.228 2.39999H14.4495C14.6254 2.39999 14.7354 2.59029 14.6476 2.74267L8.29722 13.7649C8.16532 13.9939 7.83496 13.9939 7.70306 13.7649L1.3527 2.74267C1.26491 2.59029 1.37489 2.39999 1.55076 2.39999H2.77231C2.85331 2.39999 2.92826 2.44286 2.96932 2.51268L7.80313 10.7302Z" fill="currentColor"/><path d="M7.80475 4.79585C7.89182 4.9482 8.11099 4.94967 8.2001 4.7985L9.54766 2.51249C9.58876 2.44278 9.66365 2.39999 9.74457 2.39999H11.1887C11.3654 2.39999 11.4753 2.59209 11.3857 2.74446L8.29565 7.997C8.16308 8.22234 7.8372 8.22234 7.70463 7.997L4.61462 2.74446C4.52498 2.59209 4.63484 2.39999 4.81163 2.39999H6.30278C6.38479 2.39999 6.46052 2.44394 6.50122 2.51514L7.80475 4.79585Z" fill="currentColor"/></svg>