<svg width="24" height="24" viewBox="0 0 16 16" fill="currentColor" xmlns="http://www.w3.org/2000/svg"><path d="M13.5769 9.68856V9.21647H12.972V9.68856C12.9719 9.94078 12.7678 10.1449 12.5156 10.145C12.2632 10.145 12.0581 9.9409 12.058 9.68856V9.21647H11.587C11.3346 9.21647 11.1295 9.01239 11.1294 8.75999C11.1294 8.50752 11.3345 8.3024 11.587 8.3024H12.058V7.69749H11.587C11.3346 7.69749 11.1295 7.49342 11.1294 7.24102C11.1294 6.98855 11.3345 6.78343 11.587 6.78343H12.058V6.31245C12.058 6.05997 12.2631 5.85486 12.5156 5.85486C12.7679 5.85504 12.972 6.06009 12.972 6.31245V6.78343H13.5769V6.31245C13.5769 6.05998 13.7821 5.85487 14.0345 5.85486C14.287 5.85486 14.4921 6.05997 14.4921 6.31245V6.78343H14.9631C15.2154 6.7836 15.4196 6.98865 15.4196 7.24102C15.4195 7.49332 15.2154 7.69733 14.9631 7.69749H14.4921V8.3024H14.9631C15.2154 8.30257 15.4196 8.50762 15.4196 8.75999C15.4195 9.01229 15.2154 9.2163 14.9631 9.21647H14.4921V9.68856C14.492 9.9409 14.2869 10.145 14.0345 10.145C13.7822 10.145 13.5771 9.94089 13.5769 9.68856ZM12.972 8.3024H13.5769V7.69749H12.972V8.3024Z" fill="currentColor"/><path d="M1.94385 9.8305V6.16979C1.94385 5.13896 2.49429 4.18644 3.38693 3.67091L6.55769 1.84055C7.45049 1.32511 8.54992 1.32514 9.44273 1.84055L13.0744 3.93653C13.3611 4.10215 13.4595 4.46888 13.2943 4.75573C13.1286 5.0427 12.761 5.14128 12.474 4.97559L8.8434 2.87961C8.32184 2.57849 7.67858 2.57849 7.15702 2.87961L3.98737 4.70997C3.46581 5.01109 3.14474 5.56754 3.14474 6.16979V9.8305C3.14483 10.4327 3.46588 10.9892 3.98737 11.2903L7.15702 13.1207C7.67858 13.4218 8.32184 13.4218 8.8434 13.1207L12.474 11.0236C12.761 10.8579 13.1286 10.9565 13.2943 11.2435C13.46 11.5304 13.3614 11.8981 13.0744 12.0638L12.3925 12.4566L9.44273 14.1597C8.55002 14.675 7.45039 14.675 6.55769 14.1597L3.38693 12.3294C2.49425 11.8139 1.94393 10.8613 1.94385 9.8305Z" fill="currentColor"/><path d="M5.55957 7.99996C5.55958 7.28724 5.78175 6.6955 6.16783 6.25331C6.54863 5.81736 7.05638 5.56394 7.57185 5.45867C8.56171 5.2567 9.768 5.57933 10.3464 6.49327L9.8397 6.81469L9.33189 7.13501C9.09027 6.75355 8.45633 6.50238 7.8118 6.63389C7.51036 6.69546 7.25263 6.83644 7.07185 7.04349C6.89619 7.24474 6.76047 7.5465 6.76046 7.99996C6.76046 8.45343 6.89621 8.7552 7.07185 8.95644C7.25262 9.16347 7.51035 9.30448 7.8118 9.36603C8.4563 9.4975 9.09024 9.24637 9.33189 8.86492L10.3464 9.50554C9.76822 10.4196 8.56289 10.743 7.57296 10.5413C7.05729 10.4361 6.54877 10.1827 6.16783 9.74661C5.78173 9.30442 5.55957 8.71271 5.55957 7.99996Z" fill="currentColor"/></svg>