<svg width="24" height="24" viewBox="0 0 16 16" fill="currentColor" xmlns="http://www.w3.org/2000/svg"><path d="M10.8906 4.89096C11.1347 4.64688 11.5313 4.64688 11.7753 4.89096L13.9707 7.08627C14.475 7.59062 14.4748 8.40901 13.9707 8.91342L11.7753 11.1087C11.5313 11.3528 11.1347 11.3528 10.8906 11.1087C10.6468 10.8648 10.6469 10.469 10.8906 10.2249L13.0859 8.02963C13.1021 8.01339 13.1021 7.9873 13.0859 7.97104L10.8906 5.77572C10.6465 5.53165 10.6465 5.13504 10.8906 4.89096Z" fill="currentColor"/><path d="M4.22443 4.89096C4.46837 4.64708 4.86413 4.64734 5.10822 4.89096C5.3523 5.13504 5.3523 5.53165 5.10822 5.77573L2.91389 7.97104H2.91291C2.89717 7.98728 2.89696 8.01353 2.91291 8.02963H2.91389L5.10822 10.2249C5.3523 10.469 5.3523 10.8647 5.10822 11.1087C4.86412 11.3525 4.46842 11.3527 4.22443 11.1087L2.02912 8.91342C1.52485 8.409 1.52474 7.59063 2.02912 7.08627L4.22443 4.89096Z" fill="currentColor"/></svg>