<svg width="24" height="24" viewBox="0 0 16 16" fill="currentColor" xmlns="http://www.w3.org/2000/svg"><path d="M14.3022 5.71428V5.30245C14.3022 4.33989 13.5215 3.55914 12.5589 3.55914H10.6058V4.76004H12.5589C12.8588 4.76004 13.1014 5.00263 13.1014 5.30245V5.71428C13.1014 6.64527 12.3471 7.39954 11.4161 7.39954H10.6058V8.60044H11.4161C13.0098 8.60044 14.3022 7.30801 14.3022 5.71428Z" fill="currentColor"/><path d="M8.10151 9.91405V11.1138H5.82804V9.91405H8.10151ZM11.5301 7.68525C11.5301 9.5788 9.99509 11.1138 8.10151 11.1138V9.91405C9.33233 9.91405 10.3303 8.91606 10.3303 7.68525V3.93302H3.59921V7.68525C3.59921 8.91606 4.59721 9.91405 5.82804 9.91405V11.1138L5.6517 11.1094C3.84007 11.0176 2.39941 9.51966 2.39941 7.68525V3.8761C2.39941 3.24492 2.9111 2.73325 3.54229 2.73325H10.3873C11.0185 2.73325 11.5301 3.24492 11.5301 3.8761V7.68525Z" fill="currentColor"/><path d="M10.3417 12.5078C10.673 12.5078 10.9421 12.7769 10.9421 13.1083C10.9421 13.4396 10.673 13.7087 10.3417 13.7087L3.67759 13.7087C3.34622 13.7087 3.07715 13.4396 3.07715 13.1083C3.07715 12.7769 3.34622 12.5078 3.67759 12.5078L10.3417 12.5078Z" fill="currentColor"/></svg>