<svg width="24" height="24" viewBox="0 0 16 16" fill="currentColor" xmlns="http://www.w3.org/2000/svg"><path d="M8.34273 1.34375C11.8643 1.5222 14.665 4.43402 14.665 7.99996L14.6562 8.34273L14.6318 8.67086C14.2953 12.0367 11.4544 14.6649 7.99996 14.665L7.65719 14.6562C4.35556 14.4889 1.68765 11.9191 1.36719 8.66011L1.34375 8.34273L1.33496 7.99996C1.33496 4.31903 4.31903 1.33496 7.99996 1.33496L8.34273 1.34375ZM7.98336 2.58495C5.00591 2.59387 2.59387 5.00591 2.58495 7.98336L2.59277 8.30172C2.7433 11.0511 4.94795 13.2552 7.69723 13.4062L8.01559 13.414C10.8977 13.4058 13.2504 11.1462 13.4062 8.30172L13.414 7.98336C13.4054 5.10167 11.146 2.74849 8.30172 2.59277L7.98336 2.58495Z" fill="currentColor"/><path d="M7.31934 11L5.44922 5.62402H6.97754L8.09082 9.66699H8.17871L9.28223 5.62402H10.7812L8.9209 11H7.31934Z" fill="currentColor"/></svg>