<svg width="24" height="24" viewBox="0 0 16 16" fill="currentColor" xmlns="http://www.w3.org/2000/svg"><path d="M3.90472 11.3945L5.96275 14.0832H4.4594L3.08329 12.2841L2.68485 12.7171L2.66476 12.6981V14.0832H1.46387V9.41687H2.66476V10.9693L4.0978 9.41687H5.73172L3.90472 11.3945Z" fill="currentColor"/><path d="M13.2806 12.1999L13.2794 14.0838H12.0785L12.0808 12.201L10.2236 9.41638H11.6656L12.6801 10.9376L13.6935 9.41638H15.1355L13.2806 12.1999Z" fill="currentColor"/><path d="M9.94608 9.35474V10.5556H7.4338V11.1505H9.94608V12.3503H7.4338V12.9451H10.013V14.1449H6.23291V9.35474H9.94608Z" fill="currentColor"/><path d="M2.88428 7.34816V3.8716C2.88428 2.90905 3.66503 2.1283 4.62758 2.1283H9.61084C10.073 2.12838 10.5162 2.31269 10.843 2.63946L12.8128 4.60932C13.1396 4.93609 13.3239 5.37935 13.324 5.84147V7.34816C13.324 7.67953 13.0549 7.94861 12.7236 7.94861C12.3922 7.94861 12.1231 7.67953 12.1231 7.34816V5.84147C12.123 5.69761 12.0664 5.55926 11.9646 5.45754L9.99477 3.48767C9.89304 3.38594 9.7547 3.32928 9.61084 3.32919H4.62758C4.32777 3.32919 4.08517 3.57179 4.08517 3.8716V7.34816C4.08517 7.67953 3.81609 7.94861 3.48472 7.94861C3.15335 7.94861 2.88428 7.67953 2.88428 7.34816Z" fill="currentColor"/><path d="M8.82373 4.88702V2.78992H10.0246V4.88702C10.0246 5.18683 10.2672 5.43054 10.567 5.43054H12.6641V6.63032H10.567C9.60448 6.63032 8.82373 5.84957 8.82373 4.88702Z" fill="currentColor"/></svg>