<svg width="24" height="24" viewBox="0 0 16 16" fill="currentColor" xmlns="http://www.w3.org/2000/svg"><path d="M11.3675 13.1844C9.49254 13.1844 8.20682 12.3741 7.83182 11.2491C7.78495 11.1018 7.75146 10.9411 7.75146 10.7804C7.75146 10.3451 8.01932 10.0638 8.4278 10.0638C8.76932 10.0638 8.9903 10.2179 9.13763 10.5795C9.43896 11.4835 10.3162 11.9054 11.4345 11.9054C12.6599 11.9054 13.5372 11.2759 13.5372 10.4121C13.5372 9.66205 13.0283 9.1933 11.7358 8.91205L10.6778 8.69107C8.74923 8.28259 7.872 7.38526 7.872 5.99241C7.872 4.33839 9.32513 3.2 11.3809 3.2C13.0483 3.2 14.3608 3.98348 14.7358 5.27589C14.7693 5.36964 14.7894 5.48348 14.7894 5.6241C14.7894 6.0125 14.5149 6.26696 14.1265 6.26696C13.7649 6.26696 13.5439 6.09955 13.3899 5.75134C13.0617 4.86071 12.3251 4.47901 11.3608 4.47901C10.2291 4.47901 9.39209 5.02812 9.39209 5.91205C9.39209 6.61518 9.89432 7.08393 11.1466 7.35178L12.1979 7.57277C14.2269 8.00134 15.0573 8.8116 15.0573 10.2179C15.0573 12.0393 13.6242 13.1844 11.3675 13.1844Z" fill="currentColor"/><path d="M3.81362 13.1844C2.49442 13.1844 1.44978 12.5348 1.05469 11.4835C0.967634 11.2424 0.914062 11.0482 0.914062 10.7804C0.914062 10.325 1.18862 10.0437 1.61719 10.0437C1.99888 10.0437 2.22656 10.2379 2.3471 10.6799C2.55469 11.4299 3.07031 11.8451 3.80022 11.8451C4.7846 11.8451 5.32031 11.2491 5.32031 10.1509V4.03036C5.32031 3.54821 5.60156 3.25357 6.07031 3.25357C6.53237 3.25357 6.82031 3.54821 6.82031 4.03036V10.1576C6.82031 12.0728 5.69531 13.1844 3.81362 13.1844Z" fill="currentColor"/></svg>