<svg width="24" height="24" viewBox="0 0 16 16" fill="currentColor" xmlns="http://www.w3.org/2000/svg"><path d="M5.04199 3.99963C5.04182 3.60858 4.7241 3.29163 4.33301 3.29163C3.94206 3.2918 3.62518 3.60869 3.625 3.99963C3.625 4.39073 3.94196 4.70844 4.33301 4.70862C4.72421 4.70862 5.04199 4.39084 5.04199 3.99963ZM6.29199 3.99963C6.29199 5.08119 5.41457 5.95862 4.33301 5.95862C3.2516 5.95844 2.375 5.08108 2.375 3.99963C2.37518 2.91833 3.25171 2.0418 4.33301 2.04163C5.41446 2.04163 6.29182 2.91823 6.29199 3.99963Z" fill="currentColor"/><path d="M5.04199 11.9996C5.04182 11.6086 4.7241 11.2916 4.33301 11.2916C3.94206 11.2918 3.62518 11.6087 3.625 11.9996C3.625 12.3907 3.94196 12.7084 4.33301 12.7086C4.72421 12.7086 5.04199 12.3908 5.04199 11.9996ZM6.29199 11.9996C6.29199 13.0812 5.41457 13.9586 4.33301 13.9586C3.2516 13.9584 2.375 13.0811 2.375 11.9996C2.37518 10.9183 3.25171 10.0418 4.33301 10.0416C5.41446 10.0416 6.29182 10.9182 6.29199 11.9996Z" fill="currentColor"/><path d="M12.3755 3.99963C12.3753 3.60858 12.0576 3.29163 11.6665 3.29163C11.2756 3.2918 10.9587 3.60869 10.9585 3.99963C10.9585 4.39073 11.2755 4.70844 11.6665 4.70862C12.0577 4.70862 12.3755 4.39084 12.3755 3.99963ZM13.6255 3.99963C13.6255 5.08119 12.7481 5.95862 11.6665 5.95862C10.5851 5.95844 9.7085 5.08108 9.7085 3.99963C9.70867 2.91833 10.5852 2.0418 11.6665 2.04163C12.748 2.04163 13.6253 2.91823 13.6255 3.99963Z" fill="currentColor"/><path d="M3.7085 10.6664V5.33337C3.7085 4.9882 3.98832 4.70837 4.3335 4.70837C4.67867 4.70837 4.9585 4.9882 4.9585 5.33337V10.6664C4.9585 11.0116 4.67867 11.2914 4.3335 11.2914C3.98832 11.2914 3.7085 11.0116 3.7085 10.6664Z" fill="currentColor"/><path d="M3.7085 10.6664V10.0004C3.7085 8.55058 4.88376 7.37537 6.3335 7.37537H9.6665C10.4258 7.37537 11.0413 6.75964 11.0415 6.00037V5.33337C11.0415 4.9883 11.3215 4.70855 11.6665 4.70837C12.0117 4.70837 12.2915 4.9882 12.2915 5.33337V6.00037C12.2913 7.44999 11.1162 8.62537 9.6665 8.62537H6.3335C5.5741 8.62537 4.9585 9.24095 4.9585 10.0004V10.6664C4.9585 11.0116 4.67867 11.2914 4.3335 11.2914C3.98832 11.2914 3.7085 11.0116 3.7085 10.6664Z" fill="currentColor"/></svg>