<svg width="24" height="24" viewBox="0 0 16 16" fill="currentColor" xmlns="http://www.w3.org/2000/svg"><path d="M12.7085 4.66669C12.7085 3.9074 12.0928 3.29186 11.3335 3.29169H4.6665C3.90712 3.29169 3.2915 3.9073 3.2915 4.66669V9.15692L3.47705 8.97235C4.50213 7.94725 6.16384 7.94734 7.18896 8.97235L10.9263 12.7087H11.3335C12.0927 12.7085 12.7083 12.0928 12.7085 11.3337V4.66669ZM10.3745 6.33368C10.3745 5.94247 10.0577 5.62469 9.6665 5.62469C9.27529 5.62469 8.9585 5.94247 8.9585 6.33368C8.95867 6.72475 9.27539 7.04169 9.6665 7.04169C10.0576 7.04169 10.3743 6.72475 10.3745 6.33368ZM3.2915 11.3337C3.29168 12.0929 3.90722 12.7087 4.6665 12.7087H9.15771L6.30518 9.85614C5.76821 9.31929 4.89777 9.3192 4.36084 9.85614L3.2915 10.9255V11.3337ZM11.6245 6.33368C11.6243 7.41511 10.748 8.29169 9.6665 8.29169C8.58503 8.29169 7.70867 7.41511 7.7085 6.33368C7.7085 5.25213 8.58492 4.37469 9.6665 4.37469C10.7481 4.37469 11.6245 5.25213 11.6245 6.33368ZM13.9585 11.3337C13.9583 12.7832 12.783 13.9585 11.3335 13.9587H4.6665C3.21687 13.9587 2.04168 12.7833 2.0415 11.3337V4.66669C2.0415 3.21694 3.21676 2.04169 4.6665 2.04169H11.3335C12.7831 2.04186 13.9585 3.21706 13.9585 4.66669V11.3337Z" fill="currentColor"/></svg>