<svg width="24" height="24" viewBox="0 0 16 16" fill="currentColor" xmlns="http://www.w3.org/2000/svg"><path d="M4.66706 4.06628C5.9955 4.06641 7.16767 4.72704 7.87912 5.73369H13.118C13.6472 5.73386 14.1478 5.97442 14.4784 6.38771L14.897 6.91115C15.4062 7.54767 15.4062 8.45208 14.897 9.08861L14.4784 9.61316C14.1478 10.0263 13.6471 10.267 13.118 10.2672H12.3579C12.0027 10.2672 11.6553 10.1584 11.3635 9.95579L10.9762 9.68682C10.7901 9.55761 10.5429 9.55761 10.3568 9.68682L9.96952 9.95579C9.67769 10.1584 9.33034 10.2672 8.9751 10.2672H7.87912C7.16764 11.2735 5.99528 11.9333 4.66706 11.9335C2.49487 11.9335 0.733111 10.1726 0.73291 8.00044C0.73291 5.82812 2.49474 4.06628 4.66706 4.06628ZM1.9338 8.00044C1.934 9.50984 3.15761 10.7337 4.66706 10.7337C5.67772 10.7336 6.56074 10.1848 7.03425 9.36651L7.20836 9.06628H8.9751C9.08572 9.06628 9.19448 9.03337 9.28537 8.9703L9.67264 8.70021C10.2701 8.2855 11.0628 8.28562 11.6604 8.70021L12.0488 8.9703C12.1395 9.03315 12.2475 9.06628 12.3579 9.06628H13.118C13.2825 9.06612 13.438 8.99162 13.5409 8.86316L13.9606 8.33972C14.1191 8.14154 14.119 7.8594 13.9606 7.66115L13.5409 7.1366C13.438 7.00827 13.2824 6.93364 13.118 6.93347H7.20836L7.03425 6.63436C6.56079 5.8159 5.67787 5.26731 4.66706 5.26718C3.15748 5.26718 1.9338 6.49086 1.9338 8.00044Z" fill="currentColor"/><path d="M5.03363 8.00009C5.03363 8.20259 4.86946 8.36676 4.66696 8.36676C4.46446 8.36676 4.30029 8.20259 4.30029 8.00009C4.30029 7.79759 4.46446 7.63342 4.66696 7.63342C4.86946 7.63342 5.03363 7.79759 5.03363 8.00009Z" fill="currentColor"/><path d="M4.66734 7.76622C4.53848 7.76622 4.43297 7.87173 4.43297 8.00059L4.43855 8.04747C4.46046 8.15358 4.55473 8.23385 4.66734 8.23385C4.77972 8.23361 4.87313 8.15341 4.89502 8.04747L4.9006 8.00059L4.89502 7.9526C4.87624 7.86184 4.80498 7.79055 4.71422 7.7718L4.66734 7.76622ZM5.63386 8.00059C5.63358 8.53406 5.2008 8.96683 4.66734 8.96711C4.1668 8.96711 3.75475 8.5863 3.70529 8.09881L3.69971 8.00059L3.70529 7.90126C3.75478 7.41381 4.16683 7.03296 4.66734 7.03296L4.76556 7.03854C5.25304 7.088 5.63386 7.50006 5.63386 8.00059Z" fill="currentColor"/></svg>