<svg width="24" height="24" viewBox="0 0 16 16" fill="currentColor" xmlns="http://www.w3.org/2000/svg"><path d="M14.1996 13.5223C14.1282 14.1371 13.5735 14.5853 12.9575 14.5257L12.8246 14.5056L3.25432 12.4509C2.51342 12.2918 1.9708 11.6675 1.90611 10.9241L1.89941 10.7746V5.33705C1.89941 4.58264 2.39128 3.92295 3.10031 3.70089L3.2454 3.66295L12.8191 1.55469C13.5322 1.39767 14.2075 1.94053 14.2075 2.67076V13.3884L14.1996 13.5223ZM3.09919 10.7746C3.09921 11.0168 3.26864 11.2257 3.50544 11.2768L13.0077 13.3158V2.74107L3.50321 4.83482C3.26744 4.88674 3.09919 5.09563 3.09919 5.33705V10.7746Z" fill="currentColor"/><path d="M7.35791 12.3348V3.78908C7.35791 3.4577 7.62699 3.18863 7.95836 3.18863C8.28973 3.18863 8.5588 3.4577 8.5588 3.78908V12.3348C8.5588 12.6662 8.28973 12.9353 7.95836 12.9353C7.62699 12.9353 7.35791 12.6662 7.35791 12.3348Z" fill="currentColor"/><path d="M3.0129 7.45535L12.9147 7.45535C13.2461 7.45535 13.5151 7.72443 13.5151 8.0558C13.5151 8.38717 13.2461 8.65625 12.9147 8.65625H3.0129C2.6816 8.65617 2.41357 8.38712 2.41357 8.0558C2.41357 7.72447 2.6816 7.45543 3.0129 7.45535Z" fill="currentColor"/></svg>