<svg width="24" height="24" viewBox="0 0 16 16" fill="currentColor" xmlns="http://www.w3.org/2000/svg"><path d="M2.84375 10.9498C2.84372 10.84 2.81963 10.7741 2.79576 10.7333C2.77095 10.6908 2.73203 10.6516 2.67411 10.6161C2.54749 10.5386 2.35985 10.5001 2.18638 10.5H1.84375V11.3996H2.18638C2.35994 11.3995 2.54749 11.361 2.67411 11.2835C2.73203 11.248 2.77095 11.2087 2.79576 11.1663C2.81958 11.1254 2.84375 11.0594 2.84375 10.9498ZM3.84375 10.9498C3.84375 11.5176 3.56572 11.9103 3.19754 12.1362C2.8596 12.3433 2.46868 12.3995 2.18638 12.3996H1.84375V13.6663H0.84375V9.5H2.18638C2.46868 9.50007 2.8596 9.55622 3.19754 9.76339C3.56577 9.98917 3.84368 10.382 3.84375 10.9498Z" fill="currentColor"/><path d="M6.33301 10.9498C6.33297 10.84 6.30889 10.7741 6.28502 10.7333C6.2602 10.6908 6.22129 10.6516 6.16337 10.6161C6.03675 10.5386 5.84911 10.5001 5.67564 10.5H5.33301V11.3996H5.67564C5.8492 11.3995 6.03674 11.361 6.16337 11.2835C6.22129 11.248 6.2602 11.2087 6.28502 11.1663C6.30884 11.1254 6.33301 11.0594 6.33301 10.9498ZM7.33301 10.9498C7.33301 11.5176 7.05498 11.9103 6.6868 12.1362C6.34885 12.3433 5.95794 12.3995 5.67564 12.3996H5.33301V13.6663H4.33301V9.5H5.67564C5.95794 9.50007 6.34885 9.55622 6.6868 9.76339C7.05503 9.98917 7.33294 10.382 7.33301 10.9498Z" fill="currentColor"/><path d="M8.91671 10.5833H7.58301V9.58325H11.2493V10.5833H9.91671V13.7495H8.91671V10.5833Z" fill="currentColor"/><path d="M13.8891 11.6667L15.0777 13.7504H13.965L13.3333 12.6422L12.7016 13.7504H11.5889L12.7764 11.6667L11.5889 9.58301H12.7016L13.3333 10.6913L13.9661 9.58301H15.0777L13.8891 11.6667Z" fill="currentColor"/><path d="M2.78027 7.27346V3.79689C2.78027 2.83434 3.56102 2.05359 4.52358 2.05359H9.50684C9.96895 2.05368 10.4122 2.23798 10.739 2.56475L12.7088 4.53462C13.0356 4.86139 13.2199 5.30464 13.22 5.76676V7.27346C13.22 7.60483 12.9509 7.8739 12.6196 7.8739C12.2882 7.8739 12.0191 7.60483 12.0191 7.27346V5.76676C12.019 5.6229 11.9624 5.48456 11.8606 5.38283L9.89076 3.41296C9.78904 3.31124 9.65069 3.25457 9.50684 3.25448H4.52358C4.22377 3.25448 3.98117 3.49708 3.98117 3.79689V7.27346C3.98117 7.60483 3.71209 7.8739 3.38072 7.8739C3.04935 7.8739 2.78027 7.60483 2.78027 7.27346Z" fill="currentColor"/><path d="M8.71924 4.81219V2.71509H9.92013V4.81219C9.92013 5.112 10.1627 5.35571 10.4625 5.35571H12.5596V6.55549H10.4625C9.49999 6.55549 8.71924 5.77474 8.71924 4.81219Z" fill="currentColor"/></svg>