<svg width="24" height="24" viewBox="0 0 16 16" fill="currentColor" xmlns="http://www.w3.org/2000/svg"><path d="M4.23382 11C4.23382 10.7791 4.05406 10.6004 3.83315 10.6004H3.2673V11.3995H3.83315C4.05406 11.3995 4.23382 11.2209 4.23382 11ZM5.43359 11C5.43359 11.8836 4.7168 12.6004 3.83315 12.6004H3.2673V13.933H2.06641V9.39954H3.83315C4.7168 9.39954 5.43359 10.1163 5.43359 11Z" fill="currentColor"/><path d="M8.73382 11.6663C8.73372 11.1974 8.55345 10.9668 8.351 10.8292C8.11451 10.6686 7.78695 10.6005 7.50056 10.6004H7.2673V12.7332H7.50056C7.78695 12.7332 8.11451 12.664 8.351 12.5033C8.55337 12.3657 8.73382 12.1351 8.73382 11.6663ZM9.93359 11.6663C9.93359 12.5304 9.55865 13.1342 9.02511 13.4966C8.52574 13.8358 7.93626 13.933 7.50056 13.933H6.06641V9.39954H7.50056C7.93626 9.39959 8.52574 9.49784 9.02511 9.83704C9.55848 10.1994 9.93349 10.8025 9.93359 11.6663Z" fill="currentColor"/><path d="M10.7334 9.39954H13.9343V10.6004H11.9343V13.933H10.7334V9.39954Z" fill="currentColor"/><path d="M13.2669 11.3995V12.6004H10.7334V11.3995H13.2669Z" fill="currentColor"/><path d="M2.78027 7.34822V3.87166C2.78027 2.90911 3.56102 2.12836 4.52358 2.12836H9.50684C9.96895 2.12844 10.4122 2.31275 10.739 2.63952L12.7088 4.60938C13.0356 4.93615 13.2199 5.37941 13.22 5.84153V7.34822C13.22 7.67959 12.9509 7.94867 12.6196 7.94867C12.2882 7.94867 12.0191 7.67959 12.0191 7.34822V5.84153C12.019 5.69767 11.9624 5.55933 11.8606 5.4576L9.89076 3.48773C9.78904 3.386 9.65069 3.32934 9.50684 3.32925H4.52358C4.22377 3.32925 3.98117 3.57185 3.98117 3.87166V7.34822C3.98117 7.67959 3.71209 7.94867 3.38072 7.94867C3.04935 7.94867 2.78027 7.67959 2.78027 7.34822Z" fill="currentColor"/><path d="M8.71924 4.88702V2.78992H9.92013V4.88702C9.92013 5.18683 10.1627 5.43054 10.4625 5.43054H12.5596V6.63032H10.4625C9.49999 6.63032 8.71924 5.84957 8.71924 4.88702Z" fill="currentColor"/></svg>