<svg width="24" height="24" viewBox="0 0 16 16" fill="currentColor" xmlns="http://www.w3.org/2000/svg"><path d="M8 2.70801C10.5191 2.70815 12.9754 4.10362 14.6758 6.76465C15.1562 7.51647 15.156 8.4825 14.6758 9.23438C12.9754 11.8956 10.5192 13.2908 8 13.291C5.48072 13.291 3.02367 11.8957 1.32324 9.23438C0.843152 8.48253 0.84292 7.51639 1.32324 6.76465C3.02367 4.10342 5.48078 2.70808 8 2.70801ZM8 3.95801C5.97492 3.95808 3.88656 5.0751 2.37695 7.4375C2.15879 7.77894 2.15892 8.22002 2.37695 8.56152C3.88658 10.9242 5.9748 12.041 8 12.041C10.0251 12.0408 12.1135 10.9241 13.623 8.56152C13.841 8.22008 13.8411 7.77888 13.623 7.4375C12.1135 5.07508 10.025 3.95815 8 3.95801ZM8 5.375C9.44967 5.37512 10.625 6.5503 10.625 8C10.625 9.4497 9.44967 10.6249 8 10.625C6.55022 10.625 5.375 9.44978 5.375 8C5.375 6.55022 6.55022 5.375 8 5.375ZM8 6.625C7.24058 6.625 6.625 7.24058 6.625 8C6.625 8.75942 7.24058 9.375 8 9.375C8.75932 9.37488 9.375 8.75935 9.375 8C9.375 7.24065 8.75932 6.62512 8 6.625Z" fill="currentColor"/></svg>