<svg width="24" height="24" viewBox="0 0 16 16" fill="currentColor" xmlns="http://www.w3.org/2000/svg"><path d="M1.375 10.6667V4.66666C1.375 3.21691 2.55026 2.04166 4 2.04166H5.95312C6.60779 2.04167 7.21883 2.36904 7.58203 2.91373L8.12402 3.72623L8.17773 3.79654C8.31129 3.95108 8.50671 4.04166 8.71387 4.04166H12C13.4498 4.04166 14.625 5.21692 14.625 6.66666V10.6667C14.625 12.1164 13.4498 13.2917 12 13.2917H4C2.55026 13.2917 1.375 12.1164 1.375 10.6667ZM2.625 10.6667C2.625 11.4261 3.2406 12.0417 4 12.0417H12C12.7594 12.0417 13.375 11.4261 13.375 10.6667V6.66666C13.375 5.90726 12.7594 5.29166 12 5.29166H8.71387C8.05911 5.29166 7.44718 4.96443 7.08398 4.41959L6.54199 3.60709C6.41064 3.41017 6.18988 3.29167 5.95312 3.29166H4C3.24061 3.29166 2.625 3.90727 2.625 4.66666V10.6667Z" fill="currentColor"/></svg>