<svg width="24" height="24" viewBox="0 0 16 16" fill="currentColor" xmlns="http://www.w3.org/2000/svg"><path d="M13.3994 7.99998C13.3994 5.01764 10.9822 2.60043 7.99986 2.60043C5.01752 2.60043 2.60031 5.01764 2.60031 7.99998C2.60031 10.9823 5.01752 13.3995 7.99986 13.3995C10.9822 13.3995 13.3994 10.9823 13.3994 7.99998ZM14.6003 7.99998C14.6003 11.6451 11.6449 14.6004 7.99986 14.6004C4.35478 14.6004 1.39941 11.6451 1.39941 7.99998C1.39941 4.3549 4.35478 1.39954 7.99986 1.39954C11.6449 1.39954 14.6003 4.3549 14.6003 7.99998Z" fill="currentColor"/><path d="M8.01733 10.443C7.61733 10.443 7.26876 10.3687 6.97161 10.2201C6.68018 10.0715 6.45161 9.86011 6.2859 9.58582C6.1259 9.30582 6.0459 8.98011 6.0459 8.60868V7.39154C6.0459 7.01439 6.1259 6.68868 6.2859 6.41439C6.45161 6.14011 6.68018 5.92868 6.97161 5.78011C7.26876 5.63154 7.61733 5.55725 8.01733 5.55725C8.59447 5.55725 9.05733 5.70868 9.4059 6.01154C9.70013 6.26718 9.87629 6.60019 9.93437 7.01055C9.95248 7.13847 9.84743 7.24582 9.71824 7.24582H9.17402C9.05369 7.24582 8.95756 7.15119 8.92613 7.03504C8.88326 6.87667 8.80319 6.74693 8.6859 6.64582C8.52018 6.50297 8.29733 6.43154 8.01733 6.43154C7.71447 6.43154 7.47447 6.51439 7.29733 6.68011C7.1259 6.84582 7.04018 7.08297 7.04018 7.39154V8.60868C7.04018 8.91154 7.1259 9.14868 7.29733 9.32011C7.47447 9.48582 7.71447 9.56868 8.01733 9.56868C8.29733 9.56868 8.52018 9.49725 8.6859 9.35439C8.80319 9.25328 8.88326 9.12354 8.92613 8.96518C8.95756 8.84902 9.05369 8.75439 9.17402 8.75439H9.71824C9.84743 8.75439 9.95248 8.86175 9.93437 8.98966C9.87629 9.40003 9.70013 9.73303 9.4059 9.98868C9.05733 10.2915 8.59447 10.443 8.01733 10.443Z" fill="currentColor"/><path d="M7.04039 8.60854V7.39202C7.04039 7.08352 7.12573 6.84568 7.29708 6.67997C7.47414 6.51433 7.7143 6.43116 8.01695 6.43108C8.29668 6.43108 8.51981 6.50279 8.68548 6.64537C8.80276 6.74648 8.88369 6.87652 8.92655 7.03488C8.95016 7.12213 9.01003 7.1971 9.0895 7.22907L9.17432 7.24581H9.71784L9.76583 7.24135C9.87209 7.21894 9.95019 7.12214 9.93436 7.01032C9.88349 6.65115 9.74205 6.3514 9.51025 6.11077L9.40646 6.01144C9.05789 5.70858 8.59409 5.5572 8.01695 5.5572C7.61714 5.55725 7.26822 5.6319 6.97119 5.78041C6.68002 5.92897 6.45154 6.14022 6.28592 6.41434C6.12593 6.68862 6.04597 7.01489 6.04597 7.39202V8.60854C6.04597 8.97997 6.12592 9.30622 6.28592 9.58622C6.45156 9.86024 6.68004 10.0716 6.97119 10.2201C7.19397 10.3315 7.44617 10.401 7.72677 10.4289L8.01695 10.4434C8.52208 10.4434 8.94026 10.3271 9.2703 10.0951L9.40646 9.98912C9.70067 9.73348 9.87628 9.39947 9.93436 8.98912C9.9499 8.87753 9.87189 8.78163 9.76583 8.75921L9.71784 8.75474V8.63979C9.90754 8.63979 10.0761 8.80054 10.0471 9.00586C9.98537 9.44142 9.7975 9.80023 9.48124 10.0751C9.10706 10.4002 8.61452 10.5572 8.01695 10.5572C7.6032 10.5571 7.23666 10.4806 6.92097 10.3228L6.91985 10.3217C6.60992 10.1637 6.36467 9.93821 6.18771 9.64537L6.18659 9.64202C6.01547 9.34237 5.93213 8.99662 5.93213 8.60854V7.39202C5.93213 6.99846 6.01575 6.6511 6.18771 6.35631V6.35519C6.36468 6.06227 6.60985 5.83577 6.91985 5.67773H6.92097C7.2367 5.51995 7.60313 5.44341 8.01695 5.44336C8.61452 5.44336 9.10706 5.6004 9.48124 5.9255C9.79744 6.20037 9.98543 6.5591 10.0471 6.9947C10.0761 7.19995 9.9075 7.35965 9.71784 7.35965H9.17432C8.98916 7.35965 8.85722 7.21681 8.81606 7.06501C8.77883 6.92745 8.71059 6.81768 8.61182 6.73242C8.47211 6.61199 8.27742 6.54604 8.01695 6.54604C7.73577 6.54612 7.52617 6.62245 7.37521 6.76367C7.23309 6.90198 7.15423 7.10591 7.15423 7.39202V8.60854C7.15423 8.88907 7.23361 9.09417 7.37856 9.23912C7.5293 9.37861 7.73758 9.45444 8.01695 9.45452V9.56836C7.75207 9.56829 7.53496 9.50551 7.36628 9.37863L7.29708 9.32059C7.1686 9.19211 7.0882 9.02624 7.05601 8.82394L7.04039 8.60854ZM9.17432 8.75474L9.0895 8.77148C9.01011 8.80349 8.95015 8.87848 8.92655 8.96568L8.88749 9.0784C8.84138 9.18655 8.77351 9.27818 8.68548 9.35407C8.51978 9.49684 8.29687 9.56836 8.01695 9.56836V9.45452C8.27742 9.45452 8.47211 9.38857 8.61182 9.26814C8.71066 9.1829 8.77879 9.07311 8.81606 8.93555C8.85716 8.78367 8.98907 8.63979 9.17432 8.63979V8.75474ZM9.71784 8.63979V8.75474H9.17432V8.63979H9.71784Z" fill="currentColor"/></svg>