<svg width="24" height="24" viewBox="0 0 16 16" fill="currentColor" xmlns="http://www.w3.org/2000/svg"><path d="M11.4111 2.04654C11.7535 2.08934 11.9967 2.40145 11.9541 2.74381L11.708 4.70865H13.334C13.679 4.70883 13.959 4.98858 13.959 5.33365C13.9588 5.67857 13.6789 5.95848 13.334 5.95865H11.5518L11.041 10.0417H13.334C13.679 10.0418 13.959 10.3216 13.959 10.6667C13.959 11.0117 13.679 11.2915 13.334 11.2917H10.8848L10.6201 13.4108C10.5773 13.7533 10.2653 13.9965 9.92285 13.9538C9.58034 13.911 9.33707 13.598 9.37988 13.2555L9.62598 11.2917H5.55176L5.28711 13.4108C5.24431 13.7532 4.9322 13.9963 4.58984 13.9538C4.24733 13.911 4.00406 13.598 4.04688 13.2555L4.29199 11.2917H2.66699C2.32181 11.2917 2.04199 11.0118 2.04199 10.6667C2.04199 10.3215 2.32181 10.0417 2.66699 10.0417H4.44824L4.95898 5.95865H2.66699C2.32192 5.95865 2.04217 5.67868 2.04199 5.33365C2.04199 4.98847 2.32181 4.70865 2.66699 4.70865H5.11523L5.37988 2.58951C5.4227 2.247 5.73561 2.00373 6.07812 2.04654C6.42038 2.08948 6.66273 2.40152 6.62012 2.74381L6.375 4.70865H10.4492L10.7139 2.58951C10.7567 2.24701 11.0686 2.00375 11.4111 2.04654ZM5.70801 10.0417H9.78223L10.293 5.95865H6.21875L5.70801 10.0417Z" fill="currentColor"/></svg>