<svg width="24" height="24" viewBox="0 0 16 16" fill="none" xmlns="http://www.w3.org/2000/svg"><path d="M4.83301 9.58325H5.83301V12.7499H7.49967V13.7499H4.83301V9.58325Z" fill="#008040"/><path d="M3.2221 11.6663L4.41071 13.75H3.29799L2.66629 12.6418L2.0346 13.75H0.921875L2.10938 11.6663L0.922991 9.58374H2.03571L2.66629 10.6898L3.29688 9.58374H4.41071L3.2221 11.6663Z" fill="#008040"/><path d="M13.5555 11.6663L14.7441 13.75H13.6313L12.9997 12.6418L12.368 13.75H11.2563L12.4438 11.6663L11.2563 9.58374H12.368L12.9997 10.6909L13.6313 9.58374H14.7441L13.5555 11.6663Z" fill="#008040"/><path d="M8.9292 12.6462C9.07652 12.7672 9.26133 12.8333 9.45199 12.8333H9.74333C9.88496 12.8332 9.99975 12.7185 9.99984 12.5768C9.99984 12.4566 9.91635 12.3523 9.79899 12.3262L8.98584 12.1455C8.38338 12.0116 7.95466 11.4772 7.95459 10.86C7.95459 10.109 8.56357 9.5 9.31462 9.5H9.49333C10.2715 9.5 10.9025 10.131 10.9025 10.9092H9.90251C9.90251 10.6832 9.71926 10.5 9.49333 10.5H9.31462C9.11586 10.5 8.95459 10.6613 8.95459 10.86C8.95466 11.0085 9.05775 11.137 9.20264 11.1693L10.0158 11.3499C10.5907 11.4777 10.9998 11.9878 10.9998 12.5768C10.9998 13.2707 10.4372 13.8332 9.74333 13.8333H9.45199C9.02982 13.8333 8.62065 13.6869 8.29443 13.4189L7.84912 13.0531L8.48389 12.2803L8.9292 12.6462Z" fill="#008040"/><path d="M2.78027 7.27346V3.79689C2.78027 2.83434 3.56102 2.05359 4.52358 2.05359H9.50684C9.96895 2.05368 10.4122 2.23798 10.739 2.56475L12.7088 4.53462C13.0356 4.86139 13.2199 5.30464 13.22 5.76676V7.27346C13.22 7.60483 12.9509 7.8739 12.6196 7.8739C12.2882 7.8739 12.0191 7.60483 12.0191 7.27346V5.76676C12.019 5.6229 11.9624 5.48456 11.8606 5.38283L9.89076 3.41296C9.78904 3.31124 9.65069 3.25457 9.50684 3.25448H4.52358C4.22377 3.25448 3.98117 3.49708 3.98117 3.79689V7.27346C3.98117 7.60483 3.71209 7.8739 3.38072 7.8739C3.04935 7.8739 2.78027 7.60483 2.78027 7.27346Z" fill="#008040"/><path d="M8.71924 4.81219V2.71509H9.92013V4.81219C9.92013 5.112 10.1627 5.35571 10.4625 5.35571H12.5596V6.55549H10.4625C9.49999 6.55549 8.71924 5.77474 8.71924 4.81219Z" fill="#008040"/></svg>