<svg width="24" height="24" viewBox="0 0 16 16" fill="currentColor" xmlns="http://www.w3.org/2000/svg"><path d="M1.33496 8C1.33496 4.31907 4.31907 1.33496 8 1.33496L8.34277 1.34375C11.8644 1.52222 14.665 4.43407 14.665 8L14.6562 8.34277L14.6318 8.6709C14.2954 12.0367 11.4544 14.665 8 14.665L7.65723 14.6562C4.35561 14.489 1.68767 11.9191 1.36719 8.66016L1.34375 8.34277L1.33496 8ZM2.59277 8.30176C2.74333 11.0512 4.948 13.2553 7.69727 13.4062L8.01562 13.4141C10.8977 13.4059 13.2505 11.1462 13.4062 8.30176L13.4141 7.9834C13.4054 5.10172 11.146 2.74851 8.30176 2.59277L7.9834 2.58496C5.00595 2.59388 2.59388 5.00595 2.58496 7.9834L2.59277 8.30176ZM6.63965 5.42969V5.91992H6.66016C6.76677 5.76002 6.89347 5.63024 7.04004 5.53027C7.19337 5.42361 7.38678 5.37012 7.62012 5.37012C7.84012 5.37012 8.02326 5.42361 8.16992 5.53027C8.31659 5.63694 8.43694 5.75322 8.53027 5.87988C8.65691 5.73994 8.79691 5.6195 8.9502 5.51953C9.10346 5.41968 9.3168 5.37015 9.58984 5.37012C9.71651 5.37012 9.84714 5.39376 9.98047 5.44043C10.1136 5.48045 10.2333 5.5505 10.3398 5.65039C10.4465 5.75038 10.5339 5.88006 10.6006 6.04004C10.6672 6.19334 10.7002 6.38379 10.7002 6.61035V10.5H9.67969V6.99023C9.67969 6.80357 9.63647 6.65647 9.5498 6.5498C9.46315 6.44332 9.33955 6.38965 9.17969 6.38965C8.98659 6.38974 8.85355 6.4504 8.78027 6.57031C8.70702 6.69028 8.66994 6.86335 8.66992 7.08984V10.5H7.65039L7.65039 6.99023C7.65039 6.80361 7.60713 6.65647 7.52051 6.5498C7.43389 6.4432 7.31026 6.38971 7.15039 6.38965C6.95706 6.38965 6.82333 6.45031 6.75 6.57031C6.6768 6.69028 6.63966 6.86343 6.63965 7.08984L6.63965 10.5H5.62012L5.62012 5.42969H6.63965Z" fill="currentColor"/></svg>