<svg width="24" height="24" viewBox="0 0 16 16" fill="currentColor" xmlns="http://www.w3.org/2000/svg"><path d="M14.041 4.66626C14.0408 4.2752 13.7241 3.95825 13.333 3.95825H10C9.28806 3.95825 8.70227 4.49929 8.63184 5.19263L8.625 5.33325V12.4514C9.10922 12.1666 9.65069 12.0413 10.1846 12.0413H13.333C13.7242 12.0413 14.041 11.7245 14.041 11.3333V4.66626ZM1.95801 11.3333C1.95801 11.7244 2.27496 12.0411 2.66602 12.0413H5.81543C6.34952 12.0413 6.89068 12.1673 7.375 12.4524V5.33325C7.375 4.57397 6.75927 3.95843 6 3.95825H2.66602C2.27507 3.95843 1.95818 4.27532 1.95801 4.66626V11.3333ZM15.291 11.3333C15.291 12.4148 14.4146 13.2913 13.333 13.2913H10.1846C9.83083 13.2913 9.50272 13.3767 9.22852 13.5461C8.94149 13.7236 8.70953 13.9777 8.55859 14.2795C8.45275 14.4911 8.23656 14.6251 8 14.6252C7.76327 14.6252 7.5463 14.4913 7.44043 14.2795C7.28946 13.9776 7.05762 13.7236 6.77051 13.5461C6.49643 13.3768 6.16898 13.2913 5.81543 13.2913H2.66602C1.58461 13.2911 0.708008 12.4147 0.708008 11.3333V4.66626C0.708184 3.58496 1.58472 2.70843 2.66602 2.70825H6C6.80119 2.70835 7.5176 3.06813 7.99902 3.63403C8.48051 3.06769 9.19837 2.70825 10 2.70825H13.333C14.4145 2.70825 15.2908 3.58486 15.291 4.66626V11.3333Z" fill="currentColor"/></svg>