<svg width="24" height="24" viewBox="0 0 16 16" fill="currentColor" xmlns="http://www.w3.org/2000/svg"><path d="M13.375 8.00031C13.375 5.24905 11.0027 2.95831 8 2.95831C4.99733 2.95831 2.625 5.24905 2.625 8.00031C2.62519 10.735 4.96922 13.0122 7.94629 13.0394C7.93411 13.0166 7.92208 12.9915 7.9082 12.9661C7.76534 12.7049 7.52996 12.3077 7.3916 11.8978C7.24841 11.4734 7.17035 10.9291 7.44141 10.387C7.87114 9.52786 8.69692 9.3553 9.40039 9.36554C9.7534 9.3707 10.1221 9.4206 10.4678 9.47491C10.8299 9.53181 11.1521 9.591 11.4834 9.63409C12.168 9.72312 12.6115 9.69519 12.8838 9.5257C13.0942 9.39449 13.3749 9.05785 13.375 8.00031ZM5 7.20831C5.52916 7.20831 5.95783 7.6372 5.95801 8.16632C5.95801 8.69559 5.52927 9.12531 5 9.12531C4.50393 9.12531 4.09611 8.74803 4.04688 8.26495L4.04199 8.16632L4.04688 8.06866C4.09596 7.58543 4.50381 7.20831 5 7.20831ZM10.4316 5.38019C10.9147 5.42942 11.292 5.83724 11.292 6.33331C11.292 6.86259 10.8623 7.29132 10.333 7.29132C9.80388 7.29114 9.375 6.86248 9.375 6.33331C9.375 5.80415 9.80388 5.37548 10.333 5.37531L10.4316 5.38019ZM7.09766 4.38019C7.58104 4.42913 7.95801 4.83702 7.95801 5.33331C7.95801 5.86259 7.52927 6.29132 7 6.29132C6.5037 6.29132 6.09581 5.91436 6.04688 5.43097L6.04199 5.33331L6.04688 5.23566C6.09581 4.75227 6.5037 4.37531 7 4.37531L7.09766 4.38019ZM14.625 8.00031C14.6249 9.24362 14.2904 10.1226 13.5439 10.5872C12.8592 11.0134 12.0033 10.9619 11.3223 10.8734C10.971 10.8277 10.5933 10.7595 10.2734 10.7093C9.9373 10.6565 9.64151 10.6193 9.38184 10.6155C8.85965 10.6079 8.66638 10.731 8.55859 10.9466C8.49655 11.0711 8.48748 11.2355 8.57617 11.4984C8.66974 11.7755 8.82894 12.0447 9.00488 12.3665C9.08479 12.5127 9.17463 12.6821 9.2373 12.848C9.29505 13.0008 9.36789 13.2454 9.31348 13.511C9.24687 13.8357 9.02385 14.0531 8.76074 14.1663C8.53249 14.2645 8.2655 14.2913 8 14.2913C4.37536 14.2913 1.37519 11.5081 1.375 8.00031C1.375 4.49234 4.37525 1.70831 8 1.70831C11.6247 1.70831 14.625 4.49234 14.625 8.00031Z" fill="currentColor"/></svg>