<svg width="24" height="24" viewBox="0 0 16 16" fill="currentColor" xmlns="http://www.w3.org/2000/svg"><path d="M5.76904 10.6999V5.29993H6.74727V7.58596H9.24951V5.29993H10.2304V10.6999H9.24951V8.40598H6.74727V10.6999H5.76904Z" fill="currentColor"/><path d="M6.74756 5.29993H5.76904V10.7003H6.74756V8.40637H9.24951V10.7003H10.23V5.29993H9.24951V7.58606H6.74756V5.29993ZM10.3433 10.7003C10.3431 10.7623 10.292 10.8126 10.23 10.8126H9.24951C9.18751 10.8126 9.13742 10.7623 9.13721 10.7003V8.51868H6.85986V10.7003C6.85965 10.7622 6.80943 10.8125 6.74756 10.8126H5.76904C5.70704 10.8126 5.65695 10.7623 5.65674 10.7003V5.29993C5.65674 5.23779 5.70691 5.18762 5.76904 5.18762H6.74756C6.80956 5.18778 6.85986 5.23789 6.85986 5.29993V7.47375H9.13721V5.29993C9.13721 5.23779 9.18738 5.18762 9.24951 5.18762H10.23C10.2921 5.18762 10.3433 5.23779 10.3433 5.29993V10.7003Z" fill="currentColor"/><path d="M12.8562 6.16983C12.8562 5.56778 12.5348 5.0112 12.0135 4.71001L8.84277 2.87965C8.32129 2.57857 7.67903 2.57866 7.15751 2.87965L3.98675 4.71001C3.46528 5.01116 3.14411 5.56765 3.14411 6.16983V9.83055C3.1442 10.4327 3.46525 10.9893 3.98675 11.2904L7.15751 13.1207C7.67896 13.4216 8.32137 13.4217 8.84277 13.1207L12.0135 11.2904C12.5348 10.9892 12.8561 10.4326 12.8562 9.83055V6.16983ZM14.0559 9.83055C14.0559 10.8614 13.5056 11.814 12.6129 12.3294L9.44322 14.1598C8.55038 14.6753 7.4499 14.6753 6.55706 14.1598L3.3863 12.3294C2.49375 11.8139 1.94442 10.8613 1.94434 9.83055V6.16983C1.94434 5.13909 2.49379 4.18651 3.3863 3.67095L6.55706 1.84059C7.4499 1.32511 8.55038 1.32511 9.44322 1.84059L12.6129 3.67095C13.5057 4.18644 14.0559 5.13889 14.0559 6.16983V9.83055Z" fill="currentColor"/></svg>