<svg width="24" height="24" viewBox="0 0 16 16" fill="currentColor" xmlns="http://www.w3.org/2000/svg"><path d="M7.11344 1.79308C7.66035 1.46997 8.34 1.4699 8.88688 1.79308L9.73063 2.29196C9.79922 2.33246 9.87567 2.35807 9.95496 2.36562L10.9304 2.45714C11.5632 2.51699 12.1132 2.9173 12.3657 3.50067L12.7552 4.3991C12.7869 4.47236 12.8337 4.53827 12.8936 4.59107L13.6291 5.23839C14.1057 5.65879 14.3157 6.30565 14.1771 6.92589L13.9628 7.88125C13.9454 7.95901 13.9455 8.04008 13.9628 8.11785L14.1771 9.07433C14.3156 9.69457 14.1057 10.3415 13.6291 10.7618L12.8936 11.4091C12.8337 11.462 12.7869 11.5279 12.7552 11.6011L12.3657 12.4996C12.1132 13.0829 11.5632 13.4832 10.9304 13.5431L9.95496 13.6346C9.87564 13.6422 9.79924 13.6677 9.73063 13.7083L8.88688 14.206C8.3398 14.5295 7.66055 14.5294 7.11344 14.206L6.26969 13.7083C6.20093 13.6676 6.12377 13.6421 6.04425 13.6346L5.06992 13.5431C4.43709 13.4832 3.88713 13.0829 3.63465 12.4996L3.24514 11.6011C3.21341 11.5278 3.16555 11.462 3.10563 11.4091L2.37126 10.7618C1.89452 10.3415 1.68469 9.69463 1.82326 9.07433L2.03643 8.11785C2.05376 8.04002 2.05383 7.95907 2.03643 7.88125L1.82326 6.92589C1.68465 6.3056 1.89456 5.65879 2.37126 5.23839L3.10563 4.59107C3.16555 4.53824 3.21341 4.47241 3.24514 4.3991L3.63465 3.50067C3.88713 2.9173 4.43708 2.51699 5.06992 2.45714L6.04425 2.36562C6.12374 2.3581 6.20096 2.33258 6.26969 2.29196L7.11344 1.79308ZM8.27639 2.82656C8.106 2.72581 7.89434 2.72585 7.72393 2.82656L6.88018 3.32544C6.65966 3.45573 6.41308 3.53565 6.15809 3.55982L5.18264 3.65245C4.98556 3.67112 4.81373 3.79555 4.7351 3.97723L4.3467 4.87567C4.24489 5.1109 4.09248 5.32105 3.90027 5.49062L3.16478 6.13906C3.01675 6.26989 2.95113 6.47076 2.99402 6.66361L3.20831 7.62009C3.26419 7.87031 3.26422 8.12991 3.20831 8.38013L2.99402 9.33549C2.95088 9.52855 3.01654 9.73021 3.16478 9.86116L3.90027 10.5096C4.09244 10.6792 4.24491 10.8894 4.3467 11.1246L4.7351 12.023C4.81373 12.2047 4.98556 12.3291 5.18264 12.3478L6.15809 12.4404C6.41311 12.4646 6.65965 12.5445 6.88018 12.6748L7.72393 13.1737C7.8943 13.2743 8.10604 13.2744 8.27639 13.1737L9.11902 12.6748C9.33975 12.5443 9.58695 12.4646 9.84224 12.4404L10.8177 12.3478C11.0146 12.329 11.1855 12.2046 11.2641 12.023L11.6536 11.1246C11.7554 10.8893 11.9078 10.6792 12.1001 10.5096L12.8344 9.86116C12.9829 9.73022 13.0484 9.52871 13.0052 9.33549L12.792 8.38013C12.7361 8.12988 12.7361 7.87034 12.792 7.62009L13.0052 6.66361C13.0482 6.47049 12.9828 6.26992 12.8344 6.13906L12.1001 5.49062C11.9078 5.32103 11.7555 5.11095 11.6536 4.87567L11.2641 3.97723C11.1855 3.79562 11.0147 3.67119 10.8177 3.65245L9.84224 3.55982C9.58695 3.53565 9.33976 3.45597 9.11902 3.32544L8.27639 2.82656Z" fill="currentColor"/><path d="M6.18799 5.30002V10.7H7.16621V8.72248H8.16163L9.22285 10.7H10.3145L9.14647 8.56217C9.18161 8.548 9.21586 8.53288 9.24922 8.51682C9.53398 8.37795 9.74932 8.18195 9.89522 7.92883C10.0429 7.67394 10.1167 7.37336 10.1167 7.02707C10.1167 6.68254 10.0438 6.38107 9.89785 6.12267C9.75371 5.86252 9.54014 5.66037 9.25713 5.51623C8.97588 5.37209 8.62783 5.30002 8.21299 5.30002H6.18799ZM7.16621 7.91037V6.1174H8.0627C8.30703 6.1174 8.50654 6.15344 8.66123 6.22551C8.81592 6.29582 8.93105 6.39953 9.00664 6.53664C9.08223 6.67199 9.12002 6.83547 9.12002 7.02707C9.12002 7.21867 9.08223 7.38039 9.00664 7.51223C8.93281 7.6423 8.81855 7.74162 8.66387 7.81017C8.50918 7.87697 8.31055 7.91037 8.06797 7.91037H7.16621Z" fill="currentColor"/><path d="M7.1656 10.6996V8.723H8.16113L9.22252 10.6996H10.314L9.14662 8.56229L9.2493 8.51653C9.46275 8.4124 9.63733 8.27639 9.77274 8.10805L9.89551 7.92836C10.043 7.67358 10.1165 7.37263 10.1165 7.02657C10.1164 6.68224 10.0436 6.38083 9.89774 6.12255C9.78954 5.9273 9.64221 5.76473 9.45578 5.63483L9.25711 5.51653C8.97586 5.37239 8.62732 5.30001 8.21247 5.30001V5.18729C8.63979 5.18729 9.00715 5.26166 9.30845 5.41608L9.52051 5.54331C9.71993 5.6824 9.87911 5.85708 9.99595 6.06787L10.0986 6.28327C10.1864 6.50766 10.2292 6.75604 10.2292 7.02657C10.2292 7.34395 10.17 7.62985 10.0484 7.88037L9.99261 7.98528C9.83539 8.25794 9.6036 8.46706 9.30287 8.61474L10.4134 10.646L10.5038 10.8123H9.15555L9.12319 10.7531L8.09417 8.83461H7.27832V10.8123H6.0752V5.18729H8.21247V5.30001H6.18792V10.6996H7.1656ZM9.00711 7.02657C9.00705 6.84997 8.97306 6.70625 8.9089 6.5913H8.90778C8.8449 6.47724 8.74889 6.38911 8.61426 6.32791H8.61314C8.4784 6.2652 8.29713 6.22973 8.06292 6.2297H7.27832V7.79778H8.06738V7.9105H7.1656V6.11697H8.06292L8.23703 6.12367C8.40362 6.13715 8.54503 6.17116 8.66113 6.22523C8.81582 6.29555 8.93153 6.39951 9.00711 6.53662C9.08255 6.67181 9.11977 6.83529 9.11984 7.02657C9.11984 7.218 9.08257 7.38029 9.00711 7.51206L8.9435 7.60358C8.87295 7.6897 8.77947 7.7586 8.66336 7.81005C8.54739 7.86008 8.40682 7.8913 8.24149 7.9038L8.06738 7.9105V7.79778C8.3005 7.79778 8.48294 7.76588 8.61872 7.70738L8.71247 7.65827C8.79918 7.60425 8.86358 7.53611 8.9089 7.45626L8.95131 7.36697C8.98787 7.27222 9.00711 7.15918 9.00711 7.02657Z" fill="currentColor"/></svg>