<svg width="24" height="24" viewBox="0 0 16 16" fill="none" xmlns="http://www.w3.org/2000/svg"><path d="M14.4199 6.70226L14.4032 6.65226L12.6366 2.04421C12.6033 1.95255 12.5366 1.87756 12.4533 1.82756C12.37 1.77756 12.2783 1.75256 12.1783 1.75256C12.0783 1.75256 11.9867 1.79423 11.9117 1.85256C11.8367 1.91089 11.7784 1.99422 11.7534 2.09421L10.5618 5.74398H5.73706L4.54546 2.09421C4.52046 2.00255 4.46213 1.91922 4.38714 1.85256C4.31214 1.79423 4.22048 1.75256 4.12049 1.75256C4.02049 1.75256 3.92883 1.76923 3.8455 1.82756C3.76218 1.87756 3.69551 1.95255 3.66218 2.04421L1.89562 6.65226L1.87896 6.70226C1.35399 8.06884 1.80396 9.61041 2.97056 10.4937H2.98722C2.98722 10.502 5.67873 12.5186 5.67873 12.5186L7.01198 13.5268L7.82026 14.1351C8.01192 14.2851 8.2869 14.2851 8.47855 14.1351L9.28684 13.5268L10.6201 12.5186L13.3283 10.4937C14.4949 9.61041 14.9365 8.06884 14.4115 6.70226H14.4199Z" fill="#E24329"/><path d="M14.4201 6.70222L14.4035 6.65222C13.5285 6.83554 12.7202 7.20219 12.0286 7.71882C12.0203 7.71882 9.92873 9.31039 8.14551 10.652C9.46209 11.6519 10.612 12.5185 10.612 12.5185L13.3202 10.4937C14.4868 9.61037 14.9284 8.0688 14.4035 6.70222H14.4201Z" fill="#FC6D26"/><path d="M5.6709 12.5185L7.00415 13.5268L7.81243 14.1351C8.00409 14.2851 8.27907 14.2851 8.47073 14.1351L9.27901 13.5268L10.6123 12.5185C10.6123 12.5185 9.46233 11.6519 8.14575 10.652C6.82083 11.6519 5.6709 12.5185 5.6709 12.5185Z" fill="#FCA326"/><path d="M4.26218 7.71882C3.57055 7.20219 2.76227 6.82721 1.88732 6.65222L1.87066 6.70222C1.34569 8.0688 1.79566 9.61037 2.96226 10.4937H2.97892C2.97892 10.502 5.67043 12.5185 5.67043 12.5185C5.67043 12.5185 6.82036 11.6519 8.14527 10.652C6.37038 9.31039 4.27884 7.72716 4.26218 7.71882Z" fill="#FC6D26"/></svg>