<svg width="24" height="24" viewBox="0 0 16 16" fill="currentColor" xmlns="http://www.w3.org/2000/svg"><path d="M5.55957 7.99999C5.55958 7.28727 5.78175 6.69553 6.16783 6.25334C6.54863 5.81739 7.05638 5.56397 7.57185 5.4587C8.56171 5.25673 9.768 5.57936 10.3464 6.4933L9.8397 6.81472L9.33189 7.13504C9.09027 6.75358 8.45633 6.50242 7.8118 6.63392C7.51036 6.6955 7.25263 6.83647 7.07185 7.04352C6.89619 7.24477 6.76047 7.54653 6.76046 7.99999C6.76046 8.45346 6.89621 8.75523 7.07185 8.95647C7.25262 9.1635 7.51035 9.30451 7.8118 9.36606C8.4563 9.49753 9.09024 9.2464 9.33189 8.86495L10.3464 9.50557C9.76822 10.4197 8.56289 10.743 7.57296 10.5413C7.05729 10.4361 6.54877 10.1828 6.16783 9.74664C5.78173 9.30446 5.55957 8.71274 5.55957 7.99999Z" fill="currentColor"/><path d="M12.8562 6.1698C12.8562 5.56775 12.5348 5.01117 12.0135 4.70998L8.84277 2.87962C8.32129 2.57854 7.67903 2.57863 7.15751 2.87962L3.98675 4.70998C3.46528 5.01113 3.14411 5.56762 3.14411 6.1698V9.83052C3.1442 10.4327 3.46525 10.9893 3.98675 11.2903L7.15751 13.1207C7.67896 13.4216 8.32137 13.4217 8.84277 13.1207L12.0135 11.2903C12.5348 10.9892 12.8561 10.4326 12.8562 9.83052V6.1698ZM14.0559 9.83052C14.0559 10.8614 13.5056 11.814 12.6129 12.3294L9.44322 14.1598C8.55038 14.6752 7.4499 14.6752 6.55706 14.1598L3.3863 12.3294C2.49375 11.8139 1.94442 10.8612 1.94434 9.83052V6.1698C1.94434 5.13906 2.49379 4.18648 3.3863 3.67092L6.55706 1.84056C7.4499 1.32508 8.55038 1.32508 9.44322 1.84056L12.6129 3.67092C13.5057 4.18641 14.0559 5.13886 14.0559 6.1698V9.83052Z" fill="currentColor"/></svg>