<svg width="24" height="24" viewBox="0 0 16 16" fill="currentColor" xmlns="http://www.w3.org/2000/svg"><path d="M13.3896 10.3772C13.3896 11.3027 12.6393 12.053 11.7139 12.053H4.28613C3.36066 12.053 2.61035 11.3027 2.61035 10.3772V5.61548C2.61048 4.69011 3.36074 3.9397 4.28613 3.9397H11.7139C12.6393 3.9397 13.3895 4.69011 13.3896 5.61548V10.3772ZM14.6104 5.61548C14.6102 4.01633 13.313 2.71997 11.7139 2.71997H4.28613C2.68695 2.71997 1.38977 4.01633 1.38965 5.61548V10.3772C1.38965 11.9765 2.68687 13.2737 4.28613 13.2737H11.7139C13.3131 13.2737 14.6104 11.9765 14.6104 10.3772V5.61548Z" fill="currentColor"/><path d="M4.56831 5.56502C4.80653 5.3268 5.19337 5.3268 5.43159 5.56502L6.59761 6.73201C6.83583 6.97023 6.83583 7.35609 6.59761 7.59431L5.43159 8.76131C5.19337 8.99953 4.80653 8.99953 4.56831 8.76131C4.33036 8.52318 4.33047 8.13719 4.56831 7.899L5.30366 7.16267L4.56831 6.4283C4.33009 6.19008 4.33009 5.80324 4.56831 5.56502ZM9.33296 7.72029C9.66975 7.72029 9.94314 7.99292 9.94331 8.32967C9.94331 8.66656 9.66986 8.94002 9.33296 8.94002H7.99995C7.66306 8.94002 7.3896 8.66656 7.3896 8.32967C7.38978 7.99292 7.66317 7.72029 7.99995 7.72029H9.33296Z" fill="currentColor"/></svg>