<svg width="24" height="24" viewBox="0 0 16 16" fill="currentColor" xmlns="http://www.w3.org/2000/svg"><path d="M12.709 4.66663C12.709 3.90734 12.0933 3.2918 11.334 3.29163H4.66699C3.9076 3.29163 3.29199 3.90724 3.29199 4.66663V11.3336C3.29217 12.0929 3.90771 12.7086 4.66699 12.7086H11.334C12.0931 12.7084 12.7088 12.0928 12.709 11.3336V4.66663ZM8.66699 8.70862C9.01217 8.70862 9.29199 8.98844 9.29199 9.33362C9.29182 9.67865 9.01206 9.95862 8.66699 9.95862H6C5.65508 9.95844 5.37518 9.67854 5.375 9.33362C5.375 8.98855 5.65497 8.70879 6 8.70862H8.66699ZM10 6.04163C10.3452 6.04163 10.625 6.32145 10.625 6.66663C10.625 7.0118 10.3452 7.29163 10 7.29163H6C5.65497 7.29145 5.375 7.0117 5.375 6.66663C5.375 6.32156 5.65497 6.0418 6 6.04163H10ZM13.959 11.3336C13.9588 12.7831 12.7835 13.9584 11.334 13.9586H4.66699C3.21736 13.9586 2.04217 12.7833 2.04199 11.3336V4.66663C2.04199 3.21688 3.21725 2.04163 4.66699 2.04163H11.334C12.7836 2.0418 13.959 3.217 13.959 4.66663V11.3336Z" fill="currentColor"/></svg>