<svg width="24" height="24" viewBox="0 0 16 16" fill="currentColor" xmlns="http://www.w3.org/2000/svg"><path d="M13.3896 5.33337C13.3896 4.56569 12.7677 3.94373 12 3.94373H4C3.23233 3.94373 2.61035 4.5657 2.61035 5.33337V10.6664C2.61035 11.4341 3.23232 12.057 4 12.057H12C12.7677 12.057 13.3896 11.4341 13.3896 10.6664V5.33337ZM14.6104 10.6664C14.6104 12.1079 13.4415 13.2767 12 13.2767H4C2.55855 13.2767 1.38965 12.1079 1.38965 10.6664V5.33337C1.38965 3.89191 2.55854 2.72302 4 2.72302H12C13.4415 2.72302 14.6104 3.89192 14.6104 5.33337V10.6664Z" fill="currentColor"/><path d="M10.0566 6.66663C10.0566 6.32973 10.3301 6.05627 10.667 6.05627C11.0039 6.05627 11.2773 6.32973 11.2773 6.66663V8.02991C11.5361 7.81541 11.9204 7.85078 12.1357 8.10901C12.3514 8.36776 12.3163 8.75268 12.0576 8.96838L11.0576 9.80237C10.8758 9.95378 10.6225 9.98574 10.4082 9.88538C10.1941 9.78499 10.0568 9.57012 10.0566 9.33362V6.66663Z" fill="currentColor"/><path d="M9.19803 8.10935C9.41371 7.85054 9.7986 7.81555 10.0574 8.03122L11.0574 8.86423C11.3162 9.07985 11.351 9.4648 11.1355 9.72361C10.9199 9.98241 10.535 10.0174 10.2762 9.80173L9.27616 8.96872C9.01735 8.75305 8.98236 8.36816 9.19803 8.10935Z" fill="currentColor"/><path d="M7.05664 9.33361V8.02501L6.57227 8.45568C6.34115 8.66112 5.99284 8.66112 5.76172 8.45568L5.27734 8.02501V9.33361C5.27717 9.67035 5.00378 9.94298 4.66699 9.94298C4.33021 9.94298 4.05682 9.67035 4.05664 9.33361V6.66661C4.05664 6.42641 4.19788 6.20838 4.41699 6.10997C4.6361 6.01158 4.89273 6.05102 5.07227 6.21056L6.16699 7.18322L7.26172 6.21056C7.44125 6.05102 7.69788 6.01158 7.91699 6.10997C8.13611 6.20838 8.27734 6.42641 8.27734 6.66661V9.33361C8.27717 9.67035 8.00378 9.94298 7.66699 9.94298C7.33021 9.94298 7.05682 9.67035 7.05664 9.33361Z" fill="currentColor"/></svg>