<svg width="24" height="24" viewBox="0 0 16 16" fill="currentColor" xmlns="http://www.w3.org/2000/svg"><path d="M1.33496 8C1.33496 4.31907 4.31907 1.33496 8 1.33496L8.34277 1.34375C11.8644 1.52222 14.665 4.43407 14.665 8L14.6562 8.34277L14.6318 8.6709C14.2954 12.0367 11.4544 14.665 8 14.665L7.65723 14.6562C4.35561 14.489 1.68767 11.9191 1.36719 8.66016L1.34375 8.34277L1.33496 8ZM2.59277 8.30176C2.74333 11.0512 4.948 13.2553 7.69727 13.4062L8.01562 13.4141C10.8977 13.4059 13.2505 11.1462 13.4062 8.30176L13.4141 7.9834C13.4054 5.10172 11.146 2.74851 8.30176 2.59277L7.9834 2.58496C5.00595 2.59388 2.59388 5.00595 2.58496 7.9834L2.59277 8.30176ZM7.4834 5.0791V5.82617H7.5625C7.81299 5.30762 8.32715 5 9.0127 5C10.2211 5 10.9774 5.94902 10.9775 7.49121V7.5C10.9775 9.05566 10.2388 9.99219 9.0127 9.99219C8.34912 9.99219 7.80859 9.6709 7.5625 9.14355H7.4834V11.5215H6.2002L6.2002 5.0791H7.4834ZM7.4707 7.5C7.4707 8.3877 7.90088 8.92871 8.57324 8.92871C9.25 8.92871 9.67188 8.3877 9.67188 7.5V7.49121C9.67172 6.60381 9.25427 6.06348 8.57324 6.06348C7.89661 6.06348 7.47086 6.60381 7.4707 7.49121V7.5Z" fill="currentColor"/></svg>