<svg width="24" height="24" viewBox="0 0 14 14" fill="currentColor" xmlns="http://www.w3.org/2000/svg"><path d="M11.7246 4.95866V4.91667C11.7246 4.10205 11.0646 3.44206 10.25 3.44206H3.75C2.93538 3.44206 2.27539 4.10205 2.27539 4.91667V6.47527H6.71875C7.00853 6.47534 7.24299 6.70993 7.24316 6.99968C7.24316 7.28958 7.00864 7.525 6.71875 7.52507H2.27539V9.08366C2.27557 9.89813 2.93549 10.5583 3.75 10.5583H6.71875C7.00864 10.5583 7.24316 10.7938 7.24316 11.0837C7.24299 11.3734 7.00853 11.608 6.71875 11.6081H3.75C2.35559 11.6081 1.22479 10.478 1.22461 9.08366V4.91667C1.22461 3.52215 2.35548 2.39128 3.75 2.39128H10.25C11.6445 2.39128 12.7754 3.52215 12.7754 4.91667V4.95866C12.7752 5.24846 12.5398 5.48308 12.25 5.48308C11.9602 5.48308 11.7248 5.24846 11.7246 4.95866Z" fill="currentColor"/><path d="M4.08333 4.95834C4.08333 5.11942 3.95275 5.25001 3.79167 5.25001C3.63058 5.25001 3.5 5.11942 3.5 4.95834C3.5 4.79726 3.63058 4.66667 3.79167 4.66667C3.95275 4.66667 4.08333 4.79726 4.08333 4.95834Z" fill="currentColor"/><path d="M4.08333 9.04167C4.08333 9.20276 3.95275 9.33334 3.79167 9.33334C3.63058 9.33334 3.5 9.20276 3.5 9.04167C3.5 8.88059 3.63058 8.75001 3.79167 8.75001C3.95275 8.75001 4.08333 8.88059 4.08333 9.04167Z" fill="currentColor"/><path d="M3.79199 8.83366C3.67693 8.83366 3.58301 8.92661 3.58301 9.04167C3.58301 9.15673 3.67693 9.24968 3.79199 9.24968C3.9069 9.2495 4 9.15662 4 9.04167C4 8.94111 3.92876 8.85712 3.83398 8.83757L3.79199 8.83366ZM3.79199 4.74968C3.67693 4.74968 3.58301 4.8436 3.58301 4.95866L3.58789 5.00066C3.60746 5.0954 3.69145 5.16667 3.79199 5.16667C3.89244 5.16652 3.97659 5.09536 3.99609 5.00066L4 4.95866L3.99609 4.91667C3.97959 4.83525 3.9153 4.77136 3.83398 4.75456L3.79199 4.74968ZM4.58301 9.04167C4.58301 9.47879 4.22907 9.83349 3.79199 9.83366C3.35477 9.83366 3 9.4789 3 9.04167C3 8.60445 3.35477 8.24968 3.79199 8.24968L3.87305 8.25456C4.27202 8.29532 4.58301 8.63194 4.58301 9.04167ZM4.58301 4.95866C4.58283 5.39563 4.22896 5.7495 3.79199 5.74968C3.38224 5.74968 3.04464 5.43872 3.00391 5.03972L3 4.95866L3.00391 4.87761C3.04434 4.4783 3.38201 4.16667 3.79199 4.16667L3.87305 4.17058C4.27205 4.21131 4.58301 4.54891 4.58301 4.95866Z" fill="currentColor"/><path d="M10.896 10.5586C11.1859 10.5587 11.4204 10.7941 11.4204 11.084C11.4202 11.3737 11.1858 11.6083 10.896 11.6084H8.88232C8.5925 11.6084 8.35713 11.3738 8.35693 11.084C8.35693 10.794 8.59237 10.5586 8.88232 10.5586H10.896ZM12.2485 8.51659C12.5382 8.51675 12.7728 8.75132 12.7729 9.04101C12.7729 9.33086 12.5384 9.56625 12.2485 9.5664H8.88232C8.59237 9.5664 8.35693 9.33096 8.35693 9.04101C8.35713 8.75123 8.5925 8.51659 8.88232 8.51659H12.2485ZM12.2485 6.4746C12.5384 6.47476 12.7729 6.71014 12.7729 6.99999C12.7729 7.28985 12.5384 7.52523 12.2485 7.52538H8.88232C8.59237 7.52538 8.35693 7.28994 8.35693 6.99999C8.35693 6.71004 8.59237 6.4746 8.88232 6.4746H12.2485Z" fill="currentColor"/></svg>