<svg width="24" height="24" viewBox="0 0 16 16" fill="currentColor" xmlns="http://www.w3.org/2000/svg"><path d="M13.3994 7.99998C13.3994 5.01764 10.9822 2.60043 7.99986 2.60043C5.01752 2.60043 2.60031 5.01764 2.60031 7.99998C2.60031 10.9823 5.01752 13.3995 7.99986 13.3995C10.9822 13.3995 13.3994 10.9823 13.3994 7.99998ZM14.6003 7.99998C14.6003 11.6451 11.6449 14.6004 7.99986 14.6004C4.35478 14.6004 1.39941 11.6451 1.39941 7.99998C1.39941 4.3549 4.35478 1.39954 7.99986 1.39954C11.6449 1.39954 14.6003 4.3549 14.6003 7.99998Z" fill="currentColor"/><path d="M7.56908 11.1285C7.44285 11.1285 7.34051 11.0261 7.34051 10.8999V7.82848H6.53717C6.41093 7.82848 6.30859 7.72615 6.30859 7.59991V7.14848C6.30859 7.02224 6.41093 6.91991 6.53717 6.91991H7.34051V6.18277C7.34051 5.78277 7.47194 5.46562 7.7348 5.23134C7.99765 4.99134 8.35194 4.87134 8.79765 4.87134H9.35928C9.48552 4.87134 9.58785 4.97367 9.58785 5.09991V5.52562C9.58785 5.65186 9.48552 5.75419 9.35928 5.75419H8.8148C8.66623 5.75419 8.54908 5.79419 8.46337 5.87419C8.37765 5.94848 8.3348 6.05705 8.3348 6.19991V6.91991H9.35928C9.48552 6.91991 9.58785 7.02224 9.58785 7.14848V7.59991C9.58785 7.72615 9.48552 7.82848 9.35928 7.82848H8.3348V10.8999C8.3348 11.0261 8.23246 11.1285 8.10623 11.1285H7.56908Z" fill="currentColor"/><path d="M7.22607 10.9004V7.94284H6.53746C6.34818 7.94284 6.19494 7.78945 6.19482 7.6002V7.14819C6.19502 6.959 6.34822 6.80556 6.53746 6.80556V6.92051L6.4917 6.92498C6.38744 6.9461 6.30883 7.03774 6.30866 7.14819V7.6002L6.31313 7.64596C6.33139 7.73543 6.40219 7.80527 6.4917 7.82342L6.53746 7.829H7.34103V10.9004L7.34549 10.9462C7.36685 11.0501 7.45851 11.1279 7.56871 11.1281H8.10665L8.15241 11.1236C8.24157 11.1054 8.31154 11.0353 8.32987 10.9462L8.33433 10.9004V7.829H9.35889L9.40576 7.82342C9.49486 7.80501 9.565 7.73513 9.58322 7.64596L9.58768 7.6002V7.14819C9.58751 7.03804 9.5096 6.94642 9.40576 6.92498L9.35889 6.92051V6.80556C9.54812 6.80556 9.70244 6.959 9.70264 7.14819V7.6002C9.70252 7.78945 9.54817 7.94284 9.35889 7.94284H8.44929V10.9004C8.44905 11.0895 8.2957 11.2429 8.10665 11.2431H7.56871C7.37971 11.2428 7.22631 11.0894 7.22607 10.9004ZM8.33433 6.19953C8.3344 6.09257 8.35872 6.00462 8.40688 5.93614L8.4638 5.87476C8.52808 5.81476 8.60971 5.77704 8.70933 5.76203L8.81536 5.75422H9.35889C9.48512 5.75422 9.58768 5.65166 9.58768 5.52543V5.1002C9.58768 4.97397 9.48512 4.87141 9.35889 4.87141V4.75757C9.54824 4.75757 9.70264 4.91085 9.70264 5.1002V5.52543C9.70264 5.71478 9.54824 5.86806 9.35889 5.86806H8.81536C8.68805 5.86806 8.60123 5.90225 8.54192 5.95735L8.53857 5.96069C8.48422 6.0078 8.44938 6.08081 8.44929 6.19953V6.80556H9.35889V6.92051H8.33433V6.19953ZM7.22607 6.18279C7.22608 5.75514 7.36849 5.40499 7.65911 5.14596C7.94778 4.88303 8.33153 4.75761 8.7975 4.75757V4.87141C8.35189 4.87145 7.99782 4.99194 7.735 5.2319C7.47227 5.46616 7.34104 5.7829 7.34103 6.18279V6.92051H6.53746V6.80556H7.22607V6.18279ZM9.35889 4.75757V4.87141H8.7975V4.75757H9.35889Z" fill="currentColor"/></svg>