<svg width="24" height="24" viewBox="0 0 16 16" fill="currentColor" xmlns="http://www.w3.org/2000/svg"><path d="M5.99976 9.375C6.34493 9.375 6.62476 9.65482 6.62476 10C6.62476 10.3452 6.34493 10.625 5.99976 10.625H5.33374C4.98856 10.625 4.70874 10.3452 4.70874 10C4.70874 9.65482 4.98856 9.375 5.33374 9.375H5.99976ZM7.33374 6.70801C7.67866 6.70818 7.95856 6.98809 7.95874 7.33301C7.95874 7.67808 7.67877 7.95783 7.33374 7.95801H5.33374C4.98856 7.95801 4.70874 7.67819 4.70874 7.33301C4.70892 6.98798 4.98867 6.70801 5.33374 6.70801H7.33374ZM12.0417 7.33301V3C12.0417 2.79289 11.8739 2.625 11.6667 2.625H3.66675C3.45964 2.625 3.29175 2.79289 3.29175 3V13C3.29175 13.2071 3.45964 13.375 3.66675 13.375H6.66675C7.01193 13.375 7.29175 13.6548 7.29175 14C7.29175 14.3452 7.01193 14.625 6.66675 14.625H3.66675C2.76929 14.625 2.04175 13.8975 2.04175 13V3C2.04175 2.10254 2.76929 1.375 3.66675 1.375H11.6667C12.5642 1.375 13.2917 2.10254 13.2917 3V7.33301C13.2917 7.67819 13.0119 7.95801 12.6667 7.95801C12.3216 7.95801 12.0417 7.67819 12.0417 7.33301ZM9.99976 4.04199C10.3449 4.04199 10.6248 4.32181 10.6248 4.66699C10.6246 5.01202 10.3448 5.29199 9.99976 5.29199H5.33374C4.98867 5.29199 4.70892 5.01202 4.70874 4.66699C4.70874 4.32181 4.98856 4.04199 5.33374 4.04199H9.99976Z" fill="currentColor"/><path d="M10.6957 11.4412C10.7731 11.4025 10.8359 11.3397 10.8746 11.2623L11.4572 10.0971C11.6046 9.80231 12.0253 9.80231 12.1727 10.0971L12.7553 11.2623C12.794 11.3397 12.8568 11.4025 12.9342 11.4412L14.0994 12.0238C14.3942 12.1712 14.3942 12.592 14.0994 12.7394L12.9342 13.322C12.8568 13.3607 12.794 13.4234 12.7553 13.5008L12.1727 14.666C12.0253 14.9609 11.6046 14.9609 11.4572 14.666L10.8746 13.5008C10.8359 13.4234 10.7731 13.3607 10.6957 13.322L9.53048 12.7394C9.23566 12.592 9.23566 12.1712 9.53048 12.0238L10.6957 11.4412Z" fill="currentColor"/></svg>