<svg width="24" height="24" viewBox="0 0 16 16" fill="currentColor" xmlns="http://www.w3.org/2000/svg"><path d="M8.62179 1.99771C10.1573 1.998 11.4054 3.20963 11.4722 4.72874C12.981 4.80859 14.1809 6.05503 14.1809 7.58365V8.50552L14.1653 8.79793C14.0196 10.2341 12.8115 11.3556 11.3394 11.366C11.4293 11.588 11.4801 11.8305 11.4801 12.0848C11.4799 13.1435 10.6214 14.0019 9.56264 14.0022H7.00237C5.48592 14.0019 4.24996 12.814 4.16755 11.318C2.83259 11.0758 1.81934 9.91023 1.81934 8.50552V7.58365L1.83496 7.29124C1.96934 5.96662 3.00724 4.91109 4.32268 4.74659C4.21776 4.50622 4.15975 4.24097 4.15974 3.962C4.15974 2.8774 5.03943 1.99771 6.12402 1.99771H8.62179ZM11.4655 6.06579C11.319 7.50673 10.1013 8.63136 8.62179 8.63164H7.00237C6.09537 8.63191 5.36063 9.36743 5.36063 10.2745V11.1595C5.36069 12.0666 6.09541 12.8021 7.00237 12.8024H9.56264C9.95862 12.8021 10.2801 12.4808 10.2803 12.0848C10.2803 11.6886 9.95869 11.3674 9.56264 11.3671H7.82045V10.1674H11.3193C12.2364 10.1671 12.9799 9.42262 12.9801 8.50552V7.58365C12.9801 6.71798 12.3177 6.00704 11.4722 5.92963L11.4655 6.06579ZM6.12402 3.1986C5.70217 3.19861 5.36063 3.54014 5.36063 3.962C5.36067 4.37275 5.68405 4.70476 6.09054 4.72204H8.17983V5.92182H7.82045V5.92628H6.12402C6.09425 5.92628 6.06419 5.92313 6.03474 5.92182H4.68094C3.76356 5.92182 3.02029 6.66628 3.02023 7.58365V8.50552C3.02023 9.24404 3.50223 9.86883 4.16867 10.0848C4.26639 8.60349 5.49643 7.43212 7.00237 7.43186H8.62179C9.5373 7.43156 10.2801 6.68892 10.2803 5.77338V4.85597C10.28 3.94052 9.53723 3.19891 8.62179 3.1986H6.12402Z" fill="currentColor"/></svg>