<svg width="24" height="24" viewBox="0 0 16 16" fill="currentColor" xmlns="http://www.w3.org/2000/svg"><path d="M7.66113 11.4688C8.41852 11.4688 9.03223 12.0834 9.03223 12.8408C9.03201 13.598 8.41839 14.2119 7.66113 14.2119C6.90385 14.2119 6.29025 13.5981 6.29004 12.8408C6.29004 12.0834 6.90372 11.4688 7.66113 11.4688ZM9.58301 1.5C9.7212 1.50001 9.82778 1.6218 9.80957 1.75879L8.71191 10.0146C8.69667 10.1281 8.59983 10.2129 8.48535 10.2129H7.18164C7.04973 10.2129 6.94477 10.1014 6.95312 9.96973L7.48047 1.71387C7.48821 1.59359 7.58844 1.5 7.70898 1.5H9.58301Z" fill="currentColor"/></svg>