<svg width="24" height="24" viewBox="0 0 16 16" fill="currentColor" xmlns="http://www.w3.org/2000/svg"><path d="M11.953 7.89954C12.4979 7.8998 12.9457 8.40534 12.8079 8.97766C12.1182 11.8398 9.7389 14.1004 5.99984 14.1004C4.34278 14.1004 3.19204 13.2951 2.46747 12.2243C1.75959 11.1781 1.45608 9.88287 1.4072 8.81248C1.38351 8.2935 1.80558 7.89954 2.28555 7.89954H11.953ZM2.63153 9.10043C2.71664 9.93121 2.97841 10.8367 3.46189 11.5513C3.99622 12.341 4.79649 12.8995 5.99984 12.8995C8.98066 12.8995 10.8487 11.2489 11.5277 9.10043H2.63153Z" fill="currentColor"/><path d="M11.5228 5.39856C11.6854 5.1783 11.9983 5.13198 12.1891 5.3284C12.7785 5.93524 13.0026 6.93089 12.9619 7.72886C13.5084 7.29729 14.3159 7.08966 15.2887 7.39538C15.6016 7.49372 15.7159 7.86649 15.5171 8.12733C14.2567 9.78049 12.3267 9.70196 12.2393 8.96734C12.1589 8.95436 12.0724 8.92015 11.9813 8.85747C10.8943 8.10992 10.4782 6.81711 11.5228 5.39856Z" fill="currentColor"/><path d="M4.10031 5.64954H8.14941V3.10043H4.10031V5.64954ZM9.35031 5.67855C9.35031 6.32552 8.82539 6.85043 8.17843 6.85043H4.07129C3.42433 6.85043 2.89941 6.32552 2.89941 5.67855V3.07141C2.89941 2.42445 3.42433 1.89954 4.07129 1.89954H8.17843C8.82539 1.89954 9.35031 2.42445 9.35031 3.07141V5.67855Z" fill="currentColor"/></svg>