<svg width="24" height="24" viewBox="0 0 16 16" fill="none" xmlns="http://www.w3.org/2000/svg"><path d="M8.49967 11.9166V9.58325H9.49967V11.9166C9.49967 12.9291 8.67886 13.7499 7.66634 13.7499H7.59961C6.62396 13.7499 5.83304 12.959 5.83301 11.9833V9.58325H6.83301V11.9833C6.83304 12.4067 7.17624 12.7499 7.59961 12.7499H7.66634C8.12658 12.7499 8.49967 12.3768 8.49967 11.9166Z" fill="#008040"/><path d="M4.83245 13.7495H3.63044L2.16504 11.1792V13.7495H1.16504V9.58325H2.36705L3.83245 12.1536V9.58325H4.83245V13.7495Z" fill="#008040"/><path d="M14.6656 13.7495H13.6656V11.2384L12.4993 13.3779L11.333 11.2384V13.7495H10.333V9.58325H11.5696L12.4993 11.2886L13.429 9.58325H14.6656V13.7495Z" fill="#008040"/><path d="M2.78027 7.27346V3.79689C2.78027 2.83434 3.56102 2.05359 4.52358 2.05359H9.50684C9.96895 2.05368 10.4122 2.23798 10.739 2.56475L12.7088 4.53462C13.0356 4.86139 13.2199 5.30464 13.22 5.76676V7.27346C13.22 7.60483 12.9509 7.8739 12.6196 7.8739C12.2882 7.8739 12.0191 7.60483 12.0191 7.27346V5.76676C12.019 5.6229 11.9624 5.48456 11.8606 5.38283L9.89076 3.41296C9.78904 3.31124 9.65069 3.25457 9.50684 3.25448H4.52358C4.22377 3.25448 3.98117 3.49708 3.98117 3.79689V7.27346C3.98117 7.60483 3.71209 7.8739 3.38072 7.8739C3.04935 7.8739 2.78027 7.60483 2.78027 7.27346Z" fill="#008040"/><path d="M8.71924 4.81219V2.71509H9.92013V4.81219C9.92013 5.112 10.1627 5.35571 10.4625 5.35571H12.5596V6.55549H10.4625C9.49999 6.55549 8.71924 5.77474 8.71924 4.81219Z" fill="#008040"/></svg>