<svg width="24" height="24" viewBox="0 0 16 16" fill="currentColor" xmlns="http://www.w3.org/2000/svg"><path d="M6.33333 3.86654C6.33326 3.53523 6.0644 3.26693 5.73307 3.26693H3.86654C3.53527 3.267 3.267 3.53527 3.26693 3.86654V5.73307C3.26693 6.0644 3.53523 6.33326 3.86654 6.33333H5.73307C6.06444 6.33333 6.33333 6.06444 6.33333 5.73307V3.86654ZM7.5332 5.73307C7.5332 6.72718 6.72719 7.5332 5.73307 7.5332H3.86654C2.87249 7.53313 2.06641 6.72714 2.06641 5.73307V3.86654C2.06648 2.87253 2.87253 2.06648 3.86654 2.06641H5.73307C6.72714 2.06641 7.53313 2.87248 7.5332 3.86654V5.73307Z" fill="currentColor"/><path d="M6.33333 10.2667C6.33326 9.93537 6.0644 9.66707 5.73307 9.66707H3.86654C3.53527 9.66714 3.267 9.93542 3.26693 10.2667V12.1332C3.26693 12.4645 3.53523 12.7334 3.86654 12.7335H5.73307C6.06444 12.7335 6.33333 12.4646 6.33333 12.1332V10.2667ZM7.5332 12.1332C7.5332 13.1273 6.72719 13.9333 5.73307 13.9333H3.86654C2.87249 13.9333 2.06641 13.1273 2.06641 12.1332V10.2667C2.06648 9.27267 2.87253 8.46662 3.86654 8.46655H5.73307C6.72714 8.46655 7.53313 9.27263 7.5332 10.2667V12.1332Z" fill="currentColor"/><path d="M12.7335 3.86654C12.7334 3.53523 12.4645 3.26693 12.1332 3.26693H10.2667C9.93542 3.267 9.66714 3.53527 9.66707 3.86654V5.73307C9.66707 6.0644 9.93537 6.33326 10.2667 6.33333H12.1332C12.4646 6.33333 12.7335 6.06444 12.7335 5.73307V3.86654ZM13.9333 5.73307C13.9333 6.72718 13.1273 7.5332 12.1332 7.5332H10.2667C9.27263 7.53313 8.46655 6.72714 8.46655 5.73307V3.86654C8.46662 2.87253 9.27267 2.06648 10.2667 2.06641H12.1332C13.1273 2.06641 13.9333 2.87248 13.9333 3.86654V5.73307Z" fill="currentColor"/><path d="M12.7335 10.2667C12.7334 9.93537 12.4645 9.66707 12.1332 9.66707H10.2667C9.93542 9.66714 9.66714 9.93542 9.66707 10.2667V12.1332C9.66707 12.4645 9.93537 12.7334 10.2667 12.7335H12.1332C12.4646 12.7335 12.7335 12.4646 12.7335 12.1332V10.2667ZM13.9333 12.1332C13.9333 13.1273 13.1273 13.9333 12.1332 13.9333H10.2667C9.27263 13.9333 8.46655 13.1273 8.46655 12.1332V10.2667C8.46662 9.27267 9.27267 8.46662 10.2667 8.46655H12.1332C13.1273 8.46655 13.9333 9.27263 13.9333 10.2667V12.1332Z" fill="currentColor"/></svg>