<svg width="24" height="24" viewBox="0 0 16 16" fill="currentColor" xmlns="http://www.w3.org/2000/svg"><path d="M8.00024 2.70801C10.5193 2.70815 12.9757 4.10358 14.676 6.76465C15.1564 7.51649 15.1563 8.48249 14.676 9.23438C12.9757 11.8956 10.5194 13.2908 8.00024 13.291C5.48097 13.291 3.02391 11.8957 1.32349 9.23438C0.843361 8.48252 0.843152 7.51641 1.32349 6.76465C3.02391 4.10338 5.48101 2.70809 8.00024 2.70801ZM8.00024 3.95801C5.97515 3.95809 3.8868 5.07506 2.3772 7.4375C2.15902 7.77896 2.15913 8.22002 2.3772 8.56152C3.88682 10.9242 5.97505 12.041 8.00024 12.041C10.0254 12.0408 12.1137 10.9241 13.6233 8.56152C13.8413 8.22007 13.8414 7.7789 13.6233 7.4375C12.1137 5.07505 10.0253 3.95815 8.00024 3.95801ZM8.00024 5.375C9.44993 5.37511 10.6252 6.55029 10.6252 8C10.6252 9.44971 9.44993 10.6249 8.00024 10.625C6.55047 10.625 5.37524 9.44978 5.37524 8C5.37524 6.55022 6.55047 5.375 8.00024 5.375ZM8.00024 6.625C7.24082 6.625 6.62524 7.24058 6.62524 8C6.62524 8.75942 7.24082 9.375 8.00024 9.375C8.75957 9.37489 9.37524 8.75935 9.37524 8C9.37524 7.24065 8.75957 6.62511 8.00024 6.625Z" fill="currentColor"/></svg>