<svg width="24" height="24" viewBox="0 0 16 16" fill="currentColor" xmlns="http://www.w3.org/2000/svg"><path d="M1.52856 1.52832C1.78884 1.26816 2.21061 1.26826 2.47095 1.52832L14.4709 13.5283C14.7313 13.7887 14.7313 14.2113 14.4709 14.4717C14.2107 14.7316 13.7888 14.7316 13.5286 14.4717L11.4358 12.3789C7.98363 14.2968 3.83319 13.1648 1.32251 9.23438C0.842455 8.4828 0.842222 7.51986 1.32251 6.76758C1.93811 5.80367 2.65299 5.00577 3.43579 4.37891L1.52856 2.47168C1.26822 2.21133 1.26822 1.78867 1.52856 1.52832ZM4.32642 5.26953C3.6173 5.81527 2.95291 6.53588 2.37524 7.44043C2.15749 7.78179 2.15788 8.21969 2.37622 8.56152C4.50024 11.8865 7.77446 12.7722 10.509 11.4521L9.35278 10.2959C8.95567 10.5302 8.49335 10.6669 8.00024 10.667C6.52752 10.667 5.33331 9.47275 5.33325 8C5.33325 7.50657 5.4678 7.04283 5.70239 6.64551L4.32642 5.26953ZM7.07642 2.77051C9.89849 2.38452 12.7657 3.77417 14.677 6.7666C15.1571 7.51837 15.1581 8.48043 14.678 9.23242C14.4703 9.55763 14.2508 9.86397 14.0217 10.1514C13.8067 10.4212 13.4137 10.4658 13.1438 10.251C12.874 10.0358 12.8291 9.64196 13.0442 9.37207C13.2453 9.11976 13.4393 8.84912 13.6243 8.55957C13.8423 8.21808 13.8424 7.78113 13.6243 7.43945C11.93 4.78663 9.50685 3.70067 7.24634 4.00977C6.90441 4.05645 6.58901 3.81655 6.54224 3.47461C6.49571 3.13288 6.73474 2.81744 7.07642 2.77051ZM6.71313 7.65625C6.68399 7.76582 6.66626 7.88071 6.66626 8C6.66632 8.73635 7.26388 9.33301 8.00024 9.33301C8.11904 9.33298 8.23288 9.31409 8.34204 9.28516L6.71313 7.65625Z" fill="currentColor"/></svg>