<svg width="24" height="24" viewBox="0 0 48 48" fill="currentColor" xmlns="http://www.w3.org/2000/svg"><path d="M40.9004 24C40.9004 14.6664 33.3336 7.09961 24 7.09961C14.6664 7.09961 7.09961 14.6664 7.09961 24C7.09961 26.6206 7.6955 29.098 8.75684 31.3076L8.98926 31.791L7.53223 39.0107L14.2402 37.8135L14.7715 38.1602C17.4239 39.8926 20.5919 40.9004 24 40.9004C33.3336 40.9004 40.9004 33.3336 40.9004 24ZM44.0996 24C44.0996 35.1009 35.1009 44.0996 24 44.0996C20.183 44.0996 16.6112 43.0336 13.5693 41.1836L3.4668 42.9883L5.6416 32.1973C4.52148 29.6922 3.90039 26.9166 3.90039 24C3.90039 12.8991 12.8991 3.90039 24 3.90039C35.1009 3.90039 44.0996 12.8991 44.0996 24Z" fill="currentColor"/><path d="M18.3438 26.2395L17.0833 27.5L16.0811 28.5022L18.3438 26.2395ZM16.0811 28.5022C20.5 33.5 28 33 31.9199 28.5022L29.6572 26.2395C26.5 29.5 21.5 29.5 18.3438 26.2395L17.0833 27.5L16.0811 28.5022Z" fill="currentColor"/></svg>