<svg width="24" height="24" viewBox="0 0 16 16" fill="currentColor" xmlns="http://www.w3.org/2000/svg"><path d="M9.26658 0.600512C9.44391 0.401742 9.73104 0.343665 9.97165 0.457934C10.2123 0.572272 10.3487 0.83161 10.3066 1.09465L9.56052 5.75286H14C14.2364 5.75286 14.4511 5.89158 14.5478 6.10735C14.6445 6.32315 14.6047 6.57542 14.4472 6.75188L6.73337 15.3993C6.55603 15.5981 6.26891 15.6562 6.02829 15.5419C5.78769 15.4276 5.65127 15.1682 5.69333 14.9052L6.43943 10.247H1.99997C1.76353 10.247 1.54882 10.1083 1.45212 9.8925C1.35545 9.6767 1.39529 9.42443 1.55271 9.24797L9.26658 0.600512ZM3.33982 9.0468H7.14255C7.31826 9.0468 7.48559 9.12404 7.59958 9.25774C7.71351 9.39143 7.7631 9.56867 7.73533 9.74211L7.20115 13.0712L12.6601 6.95305H8.8574C8.68169 6.95305 8.51436 6.87582 8.40036 6.74211C8.28643 6.60842 8.23685 6.43118 8.26462 6.25774L8.79783 2.92766L3.33982 9.0468Z" fill="currentColor"/></svg>