<svg width="24" height="24" viewBox="0 0 16 16" fill="currentColor" xmlns="http://www.w3.org/2000/svg"><path d="M9.26679 0.601C9.44413 0.40223 9.73126 0.344153 9.97187 0.458422C10.2123 0.572843 10.3489 0.832222 10.3068 1.09514L9.56074 5.75334H14.0002C14.2365 5.75343 14.4514 5.89214 14.548 6.10784C14.6445 6.32355 14.6048 6.57602 14.4475 6.75237L6.73359 15.3998C6.55633 15.5984 6.26901 15.6564 6.02851 15.5424C5.78801 15.4281 5.65166 15.1686 5.69355 14.9057L6.43964 10.2475H2.00019C1.7639 10.2475 1.54912 10.1085 1.45234 9.89299C1.35568 9.67723 1.39558 9.42491 1.55292 9.24846L9.26679 0.601Z" fill="currentColor"/></svg>