<svg width="24" height="24" viewBox="0 0 16 16" fill="currentColor" xmlns="http://www.w3.org/2000/svg"><g clip-path="url(#svg_1d39b697bd__clip0_13121_533)" fill="currentColor"><path d="M11.9749 7.56445V3.98633C11.9749 3.22798 11.3601 2.61348 10.6018 2.61328H4.63208C3.87361 2.61328 3.25903 3.22786 3.25903 3.98633V12.002C3.25903 12.7604 3.87361 13.376 4.63208 13.376H7.02271C7.3687 13.376 7.64948 13.656 7.64966 14.002C7.64966 14.3481 7.3688 14.6289 7.02271 14.6289H4.63208C3.18141 14.6289 2.00513 13.4526 2.00513 12.002V3.98633C2.00513 2.53566 3.18141 1.35938 4.63208 1.35938H10.6018C12.0523 1.35957 13.2278 2.53578 13.2278 3.98633V7.56445C13.2278 7.91043 12.9477 8.19121 12.6018 8.19141C12.2557 8.19141 11.9749 7.91055 11.9749 7.56445Z"/><path d="M10.1057 4.0249C10.4517 4.02498 10.7327 4.3058 10.7327 4.65186C10.7327 4.99791 10.4517 5.27873 10.1057 5.27881H5.36841C5.02231 5.27881 4.74146 4.99795 4.74146 4.65186C4.74146 4.30576 5.02231 4.0249 5.36841 4.0249H10.1057Z"/><path d="M7.73657 6.74023C8.08267 6.74023 8.36353 7.02109 8.36353 7.36719C8.36353 7.71329 8.08267 7.99414 7.73657 7.99414H5.36841C5.02231 7.99414 4.74146 7.71329 4.74146 7.36719C4.74146 7.02109 5.02231 6.74023 5.36841 6.74023H7.73657Z"/><path d="M6.35181 9.37158C6.6977 9.37182 6.97778 9.65259 6.97778 9.99854C6.97778 10.3445 6.6977 10.6252 6.35181 10.6255H5.36841C5.02231 10.6255 4.74146 10.3446 4.74146 9.99854C4.74146 9.65244 5.02231 9.37158 5.36841 9.37158H6.35181Z"/><path d="M14.5328 12.4182L11.9723 14.8626C11.6697 15.1514 11.2673 15.3123 10.8491 15.3124L9.36125 15.3124C8.86407 15.3124 8.45496 14.9346 8.40596 14.4504L8.40133 14.3522L8.40107 12.7863C8.40113 12.3419 8.5835 11.9168 8.90496 11.6099L11.4458 9.1844C12.0955 8.56431 13.1243 8.58825 13.7446 9.23775L14.5855 10.1186C15.2058 10.7684 15.1825 11.7978 14.5328 12.4182ZM13.667 11.5112C13.816 11.3688 13.8216 11.1328 13.6792 10.9838L12.8384 10.1029C12.696 9.95409 12.46 9.94855 12.3109 10.0907L9.77012 12.5162C9.69638 12.5866 9.65408 12.6844 9.65403 12.7864L9.65416 14.0607L10.8491 14.0595C10.945 14.0594 11.0371 14.0218 11.1064 13.9556L13.667 11.5112Z"/></g><defs><clipPath id="svg_1d39b697bd__clip0_13121_533"><path fill="currentColor" d="M0 0H16V16H0z"/></clipPath></defs></svg>