<svg width="24" height="24" viewBox="0 0 16 16" fill="none" xmlns="http://www.w3.org/2000/svg"><path d="M13.556 5.48535C13.6276 5.48577 13.6992 5.48996 13.7703 5.49791C14.3197 5.57042 14.8564 5.71863 15.3652 5.93832C15.5131 6.0046 15.5497 6.0583 15.4223 6.19194C15.0579 6.5824 14.7565 7.02721 14.5289 7.51038C14.2832 8.02733 14.0148 8.53344 13.7634 9.04816C13.5772 9.4334 13.3178 9.77874 12.9997 10.0649C12.2137 10.7761 11.2974 11.076 10.252 10.9309C9.05246 10.7647 7.91626 10.3597 6.84293 9.82558C6.7761 9.79247 6.72868 9.76847 6.68926 9.74447C6.67775 9.73723 6.66833 9.7271 6.66194 9.7151C6.65556 9.70309 6.65243 9.68961 6.65287 9.67602C6.65336 9.66243 6.65739 9.6492 6.66457 9.63766C6.67176 9.62611 6.68184 9.61665 6.69382 9.61022L6.7681 9.57021C7.63751 9.10583 8.36299 8.45863 9.06215 7.77827C9.35749 7.49266 9.64082 7.19277 9.93901 6.90944C10.595 6.28828 11.4056 5.85431 12.2862 5.65271C12.4793 5.60643 12.6741 5.56874 12.8683 5.52705H12.8775L13.291 5.48877" fill="#133C9A"/><path d="M5.15329 13.8785C5.02134 13.871 4.69632 13.8265 4.65745 13.8213C3.81846 13.7173 3.00175 13.4785 2.23884 13.1141C1.79673 12.9074 1.37115 12.6635 0.944424 12.4258C0.663952 12.2693 0.536563 12.026 0.539424 11.6958C0.548591 10.4745 0.548591 9.25301 0.539424 8.03131C0.534869 7.24528 0.512007 6.45928 0.500007 5.67381C0.499671 5.60453 0.510668 5.53565 0.532563 5.46992C0.57998 5.32825 0.677674 5.31964 0.77423 5.41278C0.885619 5.52017 0.974147 5.65039 1.0844 5.7555C2.07148 6.72773 3.1174 7.61828 4.29015 8.35178C4.94975 8.77455 5.63675 9.15297 6.34659 9.48453C7.48621 10.0021 8.65437 10.4585 9.87854 10.7481C10.9599 11.004 12.0115 10.8429 12.8878 10.1563C13.1552 9.92781 13.2877 9.76042 13.6047 9.33828C13.4633 9.71366 13.2795 10.0717 13.0569 10.4054C12.853 10.7264 12.3937 11.1548 12.0435 11.4907C11.5117 12.0048 10.8165 12.4218 10.1642 12.7737C9.45298 13.157 8.71379 13.4632 7.92379 13.6305C7.51879 13.7316 6.93382 13.8476 6.73218 13.859C6.69676 13.8562 6.57623 13.8836 6.51454 13.8785C5.99415 13.9179 5.67312 13.9327 5.15329 13.8785V13.8785Z" fill="#3370FF"/><path d="M2.91797 2.1118C2.95428 2.10922 2.99074 2.10922 3.02705 2.1118C5.264 2.1118 7.48269 2.14777 9.71678 2.14777C9.72067 2.14777 9.72447 2.14897 9.72764 2.15122C9.9344 2.33186 10.1267 2.52838 10.3029 2.739C10.8073 3.24055 11.1831 4.10997 11.4402 4.64008C11.5682 5.00625 11.7612 5.35641 11.8526 5.76425V5.77169C11.6247 5.84553 11.4024 5.93603 11.1877 6.04247C10.5416 6.37036 10.248 6.60969 9.71164 7.13808C9.41975 7.42369 9.17011 7.68133 8.78225 8.04692C8.66058 8.16117 8.35097 8.4508 8.34583 8.44164C8.243 8.25997 6.50416 4.8583 3.01105 2.18205" fill="#00D6B9"/></svg>