<svg width="24" height="24" viewBox="0 0 16 16" fill="none" xmlns="http://www.w3.org/2000/svg"><g clip-path="url(#svg_70f6b0af24__clip0_12756_24415)"><g clip-path="url(#svg_70f6b0af24__clip1_12756_24415)"><path d="M7.99902 7.99985C7.99902 6.68874 9.06569 5.62207 10.3768 5.62207C11.6879 5.62207 12.7546 6.68874 12.7546 7.99985C12.7546 9.31096 11.6879 10.3776 10.3768 10.3776C9.06569 10.3776 7.99902 9.31096 7.99902 7.99985Z" fill="#1ABCFE"/><path d="M3.26294 12.7332C3.26294 11.4221 4.32961 10.3555 5.64072 10.3555H7.99627V12.7332C7.99627 14.0444 6.92961 15.111 5.61849 15.111C4.30738 15.111 3.26294 14.0444 3.26294 12.7332Z" fill="#0ACF83"/><path d="M7.99902 0.888672V5.62201H10.3768C11.6879 5.62201 12.7546 4.55534 12.7546 3.24423C12.7546 1.93312 11.6879 0.888672 10.3768 0.888672H7.99902Z" fill="#FF7262"/><path d="M3.26294 3.26645C3.26294 4.57756 4.32961 5.64423 5.64072 5.64423H7.99627V0.888672H5.61849C4.30738 0.888672 3.26294 1.95534 3.26294 3.26645Z" fill="#F24E1E"/><path d="M3.26294 7.99985C3.26294 9.31096 4.32961 10.3776 5.64072 10.3776H7.99627V5.62207H5.61849C4.30738 5.62207 3.26294 6.68874 3.26294 7.99985Z" fill="#A259FF"/></g></g><defs><clipPath id="svg_70f6b0af24__clip0_12756_24415"><path fill="#fff" d="M0 0H16V16H0z"/></clipPath><clipPath id="svg_70f6b0af24__clip1_12756_24415"><path fill="#fff" transform="translate(.889 .889)" d="M0 0H14.222V14.222H0z"/></clipPath></defs></svg>