<svg width="24" height="24" viewBox="0 0 16 16" fill="currentColor" xmlns="http://www.w3.org/2000/svg"><path d="M8.11426 1.375C8.63348 1.37505 9.13182 1.58115 9.49902 1.94824L12.7178 5.16797C13.0849 5.53522 13.291 6.03347 13.291 6.55273V12C13.291 13.4498 12.1158 14.625 10.666 14.625C10.3211 14.6247 10.041 14.345 10.041 14C10.041 13.655 10.3211 13.3753 10.666 13.375C11.4254 13.375 12.041 12.7594 12.041 12V6.625H10C8.91857 6.62482 8.04199 5.74746 8.04199 4.66602V2.625H5.33301C4.57373 2.62513 3.95801 3.24069 3.95801 4V12C3.95801 12.7593 4.57372 13.3749 5.33301 13.375C5.67819 13.375 5.95801 13.6548 5.95801 14C5.95801 14.3452 5.67819 14.625 5.33301 14.625C3.88338 14.6249 2.70801 13.4497 2.70801 12V4C2.70801 2.55034 3.88338 1.37513 5.33301 1.375H8.11426ZM8.01367 9.37598C8.08632 9.37748 8.15782 9.39187 8.22559 9.41797C8.23319 9.42092 8.24054 9.42448 8.24805 9.42773C8.27917 9.44115 8.30906 9.45706 8.33789 9.47559C8.34047 9.47725 8.34314 9.47876 8.3457 9.48047C8.37975 9.50307 8.41274 9.52797 8.44238 9.55762L10.1084 11.2246C10.3525 11.4687 10.3525 11.8643 10.1084 12.1084C9.86432 12.3525 9.46869 12.3525 9.22461 12.1084L8.625 11.5098V14C8.625 14.3452 8.34518 14.625 8 14.625C7.65482 14.625 7.375 14.3452 7.375 14V11.5088L6.77539 12.1094C6.5313 12.3533 6.13464 12.3534 5.89062 12.1094C5.64661 11.8654 5.64674 11.4687 5.89062 11.2246L7.55762 9.55859C7.56164 9.55457 7.56621 9.55076 7.57031 9.54688C7.5936 9.52481 7.6188 9.50474 7.64551 9.48633C7.65073 9.48272 7.65583 9.47901 7.66113 9.47559C7.69241 9.4554 7.72553 9.43745 7.76074 9.42285V9.42188C7.76836 9.41873 7.77647 9.41689 7.78418 9.41406C7.81121 9.4041 7.83854 9.39573 7.86621 9.38965C7.87784 9.38712 7.88964 9.38565 7.90137 9.38379C7.92671 9.37971 7.9521 9.3779 7.97754 9.37695C7.9896 9.37653 8.00161 9.37571 8.01367 9.37598ZM9.29199 4.66602C9.29199 5.05712 9.60893 5.37482 10 5.375H11.1572L9.29199 3.50879V4.66602Z" fill="currentColor"/></svg>