<svg width="24" height="24" viewBox="0 0 16 16" fill="currentColor" xmlns="http://www.w3.org/2000/svg"><path d="M8.11426 1.375C8.63348 1.37505 9.13182 1.58115 9.49902 1.94824L12.7178 5.16797C13.0849 5.53522 13.291 6.03347 13.291 6.55273V12C13.291 13.4498 12.1158 14.625 10.666 14.625H5.33301C3.88338 14.6249 2.70801 13.4497 2.70801 12V4C2.70801 2.55034 3.88338 1.37513 5.33301 1.375H8.11426ZM5.33301 2.625C4.57373 2.62513 3.95801 3.24069 3.95801 4V12C3.95801 12.7593 4.57372 13.3749 5.33301 13.375H10.666C11.4254 13.375 12.041 12.7594 12.041 12V6.625H10C8.91857 6.62482 8.04199 5.74746 8.04199 4.66602V2.625H5.33301ZM9.29199 4.66602C9.29199 5.05712 9.60893 5.37482 10 5.375H11.1572L9.29199 3.50879V4.66602Z" fill="currentColor"/></svg>