<svg width="24" height="24" viewBox="0 0 16 16" fill="none" xmlns="http://www.w3.org/2000/svg"><path d="M12 11.1995C12 11.6413 11.6418 11.9995 11.2 11.9995L4.8 11.9995C4.35817 11.9995 4 11.6413 4 11.1995L4 4.79951C4 4.35768 4.35817 3.99951 4.8 3.99951L11.2 3.99951C11.6418 3.99951 12 4.35768 12 4.79951L12 11.1995Z" fill="#C2C2C2"/><path d="M4.4502 11.1997C4.4503 11.3929 4.60666 11.5492 4.7998 11.5493L11.2002 11.5493C11.3933 11.5492 11.5497 11.3929 11.5498 11.1997L11.5498 4.79932C11.5497 4.60617 11.3933 4.44981 11.2002 4.44971L4.7998 4.44971C4.60666 4.44981 4.4503 4.60617 4.4502 4.79932L4.4502 11.1997ZM3.5498 4.79932C3.54991 4.10911 4.1096 3.54942 4.7998 3.54932L11.2002 3.54932C11.8904 3.54942 12.4501 4.10912 12.4502 4.79932L12.4502 11.1997C12.4501 11.8899 11.8904 12.4496 11.2002 12.4497L4.7998 12.4497C4.1096 12.4496 3.54991 11.8899 3.5498 11.1997L3.5498 4.79932Z" fill="#262626"/><path d="M14.2339 4.33301L14.2339 11.666C14.2339 13.0835 13.084 14.2334 11.6665 14.2334L11.6665 13.333L11.8374 13.3242C12.6777 13.2388 13.3335 12.5289 13.3335 11.666L13.3335 4.33301C13.3335 3.47011 12.6778 2.76022 11.8374 2.6748L11.6665 2.66602L4.3335 2.66602L4.16357 2.67481C3.37878 2.75427 2.75476 3.37829 2.67529 4.16309L2.6665 4.33301L2.6665 11.666C2.6665 12.5291 3.32293 13.2391 4.16357 13.3242L4.3335 13.333L4.3335 14.2334C2.91597 14.2334 1.76709 13.0835 1.76709 11.666L1.76709 4.33301C1.76709 2.91548 2.91596 1.7666 4.3335 1.7666L11.6665 1.7666C13.084 1.7666 14.2339 2.91547 14.2339 4.33301ZM4.3335 14.2334L4.3335 13.333L11.6665 13.333L11.6665 14.2334L4.3335 14.2334Z" fill="#262626"/></svg>