<svg width="24" height="24" viewBox="0 0 16 16" fill="currentColor" xmlns="http://www.w3.org/2000/svg"><path d="M11.666 14.2344C13.0835 14.2344 14.2334 13.0835 14.2334 11.666V4.33301C14.2331 2.9157 13.0834 1.76758 11.666 1.76758H4.33301C2.91559 1.76771 1.7666 2.91654 1.7666 4.33398V11.667C1.76687 13.0842 2.91575 14.2342 4.33301 14.2344H11.666ZM4.16309 13.3252C3.32269 13.24 2.66626 12.5298 2.66602 11.667V4.33398L2.6748 4.16406C2.75426 3.37936 3.37843 2.75537 4.16309 2.67578L4.33301 2.66699H11.666L11.8369 2.67578C12.6773 2.7612 13.333 3.47109 13.333 4.33398V11.667C13.3328 12.5297 12.6771 13.2398 11.8369 13.3252L11.666 13.334H4.33301L4.16309 13.3252ZM4.5 5.48047C5.04124 5.48047 5.48047 5.04124 5.48047 4.5C5.48023 3.95897 5.04109 3.52051 4.5 3.52051C3.95892 3.52052 3.52075 3.95897 3.52051 4.5C3.52051 5.04123 3.95877 5.48046 4.5 5.48047ZM9.72656 5.2002C10.1131 5.20016 10.4268 4.88657 10.4268 4.5C10.4265 4.11363 10.113 3.80082 9.72656 3.80078C9.34011 3.80078 9.02661 4.11361 9.02637 4.5C9.02637 4.8866 9.33996 5.2002 9.72656 5.2002ZM7.25293 7.02051C7.71678 7.02051 8.09265 6.64448 8.09277 6.18066C8.09277 5.71674 7.71685 5.34082 7.25293 5.34082C6.78916 5.34099 6.41309 5.71685 6.41309 6.18066C6.4132 6.64438 6.78923 7.02034 7.25293 7.02051ZM11.9199 6.74023C12.2291 6.74023 12.4804 6.48985 12.4805 6.18066C12.4805 5.87138 12.2292 5.62012 11.9199 5.62012C11.6107 5.62015 11.3604 5.87141 11.3604 6.18066C11.3605 6.48983 11.6107 6.7402 11.9199 6.74023ZM4.5 8.84082C5.04124 8.84082 5.48047 8.40159 5.48047 7.86035C5.48041 7.31916 5.04121 6.88086 4.5 6.88086C3.9588 6.88087 3.52056 7.31917 3.52051 7.86035C3.52051 8.40158 3.95877 8.84081 4.5 8.84082ZM9.72656 8.56055C10.1131 8.56051 10.4268 8.24693 10.4268 7.86035C10.4267 7.47382 10.1131 7.1602 9.72656 7.16016C9.34 7.16016 9.02642 7.4738 9.02637 7.86035C9.02637 8.24695 9.33996 8.56055 9.72656 8.56055ZM7.25293 10.5146C7.71685 10.5146 8.09277 10.1387 8.09277 9.6748C8.09275 9.2109 7.71684 8.83496 7.25293 8.83496C6.78917 8.83513 6.4131 9.21101 6.41309 9.6748C6.41309 10.1386 6.78916 10.5145 7.25293 10.5146ZM11.9199 10.2373C12.2292 10.2373 12.4804 9.98697 12.4805 9.67773C12.4805 9.36845 12.2292 9.11719 11.9199 9.11719C11.6107 9.11722 11.3604 9.36848 11.3604 9.67773C11.3604 9.98695 11.6107 10.2373 11.9199 10.2373ZM4.5 12.4688C5.04123 12.4688 5.48046 12.0305 5.48047 11.4893C5.48047 10.948 5.04124 10.5088 4.5 10.5088C3.95877 10.5088 3.52051 10.948 3.52051 11.4893C3.52052 12.0305 3.95878 12.4687 4.5 12.4688ZM9.72656 12.1895C10.1131 12.1894 10.4267 11.8758 10.4268 11.4893C10.4268 11.1027 10.1131 10.7891 9.72656 10.7891C9.33996 10.7891 9.02637 11.1027 9.02637 11.4893C9.02638 11.8758 9.33997 12.1895 9.72656 12.1895Z" fill="currentColor"/></svg>