<svg width="24" height="24" viewBox="0 0 16 16" fill="currentColor" xmlns="http://www.w3.org/2000/svg"><path d="M8.70874 12.8717V10.1617C8.70874 9.46557 8.98503 8.79757 9.47729 8.3053L12.3396 5.44397C12.5759 5.20758 12.7087 4.88663 12.7087 4.55237C12.7087 3.8562 12.1441 3.29172 11.448 3.29163H4.55249C3.85627 3.29163 3.29175 3.85615 3.29175 4.55237C3.29178 4.88666 3.4245 5.20758 3.66089 5.44397L6.52319 8.3053C7.01547 8.79758 7.29175 9.4656 7.29175 10.1617V13.3717C7.2918 13.3815 7.29383 13.3868 7.29565 13.3903C7.29815 13.3949 7.30253 13.4012 7.30933 13.4059C7.31616 13.4106 7.32367 13.413 7.32886 13.4137C7.33278 13.4142 7.33896 13.4143 7.34839 13.4108L8.6814 12.9108V12.9098C8.69737 12.9038 8.70857 12.8889 8.70874 12.8717ZM13.9587 4.55237C13.9587 5.21817 13.6941 5.85696 13.2234 6.32776L10.3611 9.18909C10.1032 9.44695 9.95874 9.79711 9.95874 10.1617V12.8717C9.95857 13.4099 9.62399 13.8917 9.11987 14.0807L7.78687 14.5807C6.94257 14.8973 6.04202 14.2733 6.04175 13.3717V10.1617C6.04175 9.79711 5.89725 9.44694 5.6394 9.18909L2.7771 6.32776C2.30629 5.85695 2.04178 5.21818 2.04175 4.55237C2.04175 3.16579 3.16591 2.04163 4.55249 2.04163H11.448C12.8345 2.04172 13.9587 3.16586 13.9587 4.55237Z" fill="currentColor"/></svg>