<svg width="24" height="24" viewBox="0 0 16 16" fill="currentColor" xmlns="http://www.w3.org/2000/svg"><path d="M7.64233 0.93457C8.21083 0.329146 9.29065 0.711895 9.29077 1.60059V5.375H13.0437C13.8088 5.37526 14.265 6.22745 13.8406 6.86426L8.46362 14.9307C7.93747 15.7193 6.70776 15.3463 6.70776 14.3984V10.625H2.95581C2.19069 10.6247 1.73389 9.77142 2.15796 9.13477L7.53589 1.06934L7.64233 0.93457ZM3.49976 9.375H6.99976C7.52885 9.37511 7.95768 9.8039 7.95776 10.333V13.4355L12.4978 6.625H8.99976C8.47074 6.62477 8.04077 6.19518 8.04077 5.66602V2.56445L3.49976 9.375Z" fill="currentColor"/></svg>