<svg width="24" height="24" viewBox="0 0 16 16" fill="currentColor" xmlns="http://www.w3.org/2000/svg"><path d="M7.96214 13.394L8.09984 13.188C8.29132 12.9008 8.67984 12.8237 8.96703 13.0151C9.25396 13.2067 9.33124 13.5942 9.13988 13.8813L8.468 14.8901C7.94188 15.6789 6.71214 15.3058 6.71214 14.3579V10.5845H2.96019C2.19478 10.5845 1.73809 9.73101 2.16234 9.09423L7.54027 1.0288L7.64672 0.894032C8.21525 0.288572 9.29515 0.671246 9.29515 1.56005V5.33446H13.0481C13.8132 5.33472 14.2694 6.18692 13.845 6.82372L13.1731 7.83251C12.9816 8.11958 12.593 8.1968 12.3059 8.00536C12.019 7.81384 11.9418 7.42621 12.133 7.13915L12.5022 6.58446H9.00414C8.47493 6.58446 8.04515 6.15478 8.04515 5.62548V2.52391L3.50414 9.33446H7.00414C7.53329 9.33457 7.96214 9.7633 7.96214 10.2925V13.394Z" fill="currentColor"/><path d="M13.1143 8.83496C13.4815 8.83496 13.7793 9.13273 13.7793 9.5C13.7793 9.86727 13.4815 10.165 13.1143 10.165H9.61426C9.24699 10.165 8.94922 9.86727 8.94922 9.5C8.94922 9.13273 9.24699 8.83496 9.61426 8.83496H13.1143Z" fill="currentColor"/><path d="M11.1143 10.835C11.4815 10.835 11.7793 11.1327 11.7793 11.5C11.7793 11.8673 11.4815 12.165 11.1143 12.165H9.61426C9.24699 12.165 8.94922 11.8673 8.94922 11.5C8.94922 11.1327 9.24699 10.835 9.61426 10.835H11.1143Z" fill="currentColor"/></svg>