<svg width="24" height="24" viewBox="0 0 16 16" fill="currentColor" xmlns="http://www.w3.org/2000/svg"><path d="M1.375 10.6666V4.66663C1.375 3.21688 2.55026 2.04163 4 2.04163H5.95312C6.60779 2.04164 7.21883 2.36901 7.58203 2.9137L8.12402 3.7262L8.17773 3.79651C8.31129 3.95105 8.50671 4.04163 8.71387 4.04163H12C13.4498 4.04163 14.625 5.21689 14.625 6.66663V10.6666C14.625 12.1164 13.4498 13.2916 12 13.2916H4C2.55026 13.2916 1.375 12.1164 1.375 10.6666ZM2.625 10.6666C2.625 11.426 3.2406 12.0416 4 12.0416H12C12.7594 12.0416 13.375 11.426 13.375 10.6666V6.66663C13.375 5.90723 12.7594 5.29163 12 5.29163H8.71387C8.05911 5.29163 7.44718 4.9644 7.08398 4.41956L6.54199 3.60706C6.41064 3.41014 6.18988 3.29164 5.95312 3.29163H4C3.24061 3.29163 2.625 3.90724 2.625 4.66663V10.6666Z" fill="currentColor"/></svg>