<svg width="24" height="24" viewBox="0 0 16 16" fill="currentColor" xmlns="http://www.w3.org/2000/svg"><path d="M5.59668 2.04199C6.47419 2.04212 7.29349 2.4808 7.78027 3.21094L8.12402 3.72656L8.17773 3.79688C8.31128 3.95129 8.5068 4.04199 8.71387 4.04199H12C13.0815 4.04199 13.9578 4.9186 13.958 6V6.72559C14.7222 6.84204 15.2328 7.61868 14.9932 8.38574L13.8887 11.918C13.633 12.7352 12.8759 13.292 12.0195 13.292H2.96094C2.08538 13.292 1.3752 12.5815 1.375 11.7061V4.66699C1.375 3.21725 2.55026 2.04199 4 2.04199H5.59668ZM6.31445 7.95801C6.00475 7.95801 5.7302 8.15958 5.6377 8.45508L4.51758 12.042H12.0195C12.3293 12.042 12.6038 11.8405 12.6963 11.5449L13.7998 8.0127C13.8026 8.00367 13.8024 7.99724 13.8018 7.99316C13.8008 7.98812 13.7974 7.98172 13.793 7.97559C13.7884 7.96944 13.7829 7.9653 13.7783 7.96289C13.7746 7.961 13.7694 7.95898 13.7598 7.95898H13.333C13.3297 7.95898 13.3265 7.95806 13.3232 7.95801H6.31445ZM4 3.29199C3.24061 3.29199 2.625 3.9076 2.625 4.66699V11.7061C2.6252 11.8912 2.77579 12.041 2.96094 12.041C3.1077 12.041 3.23748 11.9457 3.28125 11.8057L4.44531 8.08203C4.70098 7.26484 5.45812 6.70801 6.31445 6.70801H12.708V6C12.7078 5.60894 12.3911 5.29199 12 5.29199H8.71387C8.05922 5.29199 7.4472 4.96461 7.08398 4.41992L6.74023 3.9043C6.48528 3.52191 6.05625 3.29212 5.59668 3.29199H4Z" fill="currentColor"/></svg>