<svg width="24" height="24" viewBox="0 0 16 16" fill="currentColor" xmlns="http://www.w3.org/2000/svg"><path d="M12.9507 11.1641C12.5967 11.7622 11.9497 12.0918 11.1501 12.0918C9.89282 12.0918 9.04443 11.2983 9.04443 10.1265C9.04443 8.93628 9.91113 8.20996 11.3516 8.20386H12.9629V7.63013C12.9629 6.90381 12.5173 6.52539 11.6934 6.52539C11.1807 6.52539 10.8267 6.7085 10.4543 7.08691C10.2896 7.24561 10.1309 7.30664 9.89893 7.30664C9.59985 7.30664 9.40454 7.10522 9.40454 6.81226C9.40454 6.43994 9.66089 6.07373 10.2041 5.78076C10.5947 5.56714 11.1074 5.45117 11.7788 5.45117C13.4084 5.45117 14.3179 6.23242 14.3179 7.63623V11.3289C14.3179 11.7927 14.0798 12.0613 13.6587 12.0613C13.2864 12.0613 13.0483 11.8354 13.0178 11.4509V11.1641H12.9507ZM10.4055 10.0593C10.4055 10.6575 10.8755 11.0603 11.5713 11.0603C12.3586 11.0603 12.9629 10.5232 12.9629 9.82739V9.13159H11.5408C10.8206 9.13159 10.4055 9.46729 10.4055 10.0593Z" fill="currentColor"/><path d="M1.94604 12.0732C1.56152 12.0732 1.29907 11.8474 1.29907 11.4934C1.29907 11.3469 1.33569 11.1882 1.41504 10.9563L3.70386 4.48047C3.91748 3.87012 4.21655 3.60156 4.77197 3.60156C5.32739 3.60156 5.62646 3.86401 5.83398 4.48047L8.1228 10.9563C8.18994 11.1577 8.22656 11.3225 8.22656 11.4751C8.22656 11.8413 7.96411 12.0732 7.56738 12.0732C7.19507 12.0732 6.97534 11.884 6.83496 11.4141L6.26123 9.69287H3.24609L2.67236 11.4141C2.52588 11.8901 2.31836 12.0732 1.94604 12.0732ZM3.57568 8.63086H5.93164L4.79028 5.10913H4.72314L3.57568 8.63086Z" fill="currentColor"/></svg>