<svg width="24" height="24" viewBox="0 0 16 16" fill="currentColor" xmlns="http://www.w3.org/2000/svg"><path d="M4.66699 3.375C5.01206 3.37513 5.29199 3.6549 5.29199 4C5.29199 4.3451 5.01206 4.62487 4.66699 4.625C4.20313 4.625 3.80675 4.96041 3.73047 5.41797L3.57129 6.375H4.33398C4.6789 6.37531 4.95898 6.65501 4.95898 7C4.95898 7.34499 4.6789 7.62469 4.33398 7.625H3.3623L2.83594 10.7871C2.65923 11.8473 1.74183 12.6249 0.666992 12.625C0.321814 12.625 0.0419922 12.3452 0.0419922 12C0.0419922 11.6548 0.321814 11.375 0.666992 11.375C1.13076 11.3749 1.52726 11.0395 1.60352 10.582L2.0957 7.625H1.66699C1.32181 7.625 1.04199 7.34518 1.04199 7C1.04199 6.65482 1.32181 6.375 1.66699 6.375H2.30469L2.49805 5.21289C2.67479 4.15261 3.59207 3.375 4.66699 3.375ZM14.4414 4.08398C14.7633 3.95965 15.1255 4.11961 15.25 4.44141C16.1948 6.88543 16.1947 9.11458 15.25 11.5586C15.1255 11.8803 14.7632 12.0412 14.4414 11.917C14.1196 11.7925 13.9597 11.4303 14.084 11.1084C14.9167 8.95431 14.9166 7.04663 14.084 4.89258C13.9595 4.57068 14.1196 4.20851 14.4414 4.08398ZM6.75098 4.44141C6.87549 4.11977 7.23683 3.95984 7.55859 4.08398C7.88032 4.20858 8.04142 4.57074 7.91699 4.89258C7.08421 7.04679 7.08418 8.95418 7.91699 11.1084C8.04109 11.4302 7.88024 11.7925 7.55859 11.917C7.23685 12.0411 6.87547 11.8802 6.75098 11.5586C5.80614 9.11444 5.80608 6.88558 6.75098 4.44141ZM11.8457 5.94238C12.0613 5.67336 12.4542 5.62957 12.7236 5.84473C12.9931 6.06029 13.0367 6.45411 12.8213 6.72363L11.7998 7.99902L12.8213 9.27637C13.0368 9.54581 12.9929 9.93864 12.7236 10.1543C12.4541 10.3697 12.0613 10.3261 11.8457 10.0566L11 9L10.1553 10.0566C9.93965 10.3262 9.54591 10.3699 9.27637 10.1543C9.0071 9.93874 8.96348 9.54584 9.17871 9.27637L10.1992 7.99902L9.17871 6.72363C8.96311 6.45409 9.00684 6.06035 9.27637 5.84473C9.54589 5.62935 9.93971 5.67296 10.1553 5.94238L11 6.99902L11.8457 5.94238Z" fill="currentColor"/></svg>