<svg width="24" height="24" viewBox="0 0 16 16" fill="currentColor" xmlns="http://www.w3.org/2000/svg"><path d="M7.88135 12.2881C8.09694 12.0381 8.47528 12.0108 8.7251 12.2266C8.97562 12.4431 9.00479 12.8234 8.78857 13.0742L8.78271 13.0801C8.78018 13.083 8.77682 13.0875 8.77295 13.0918C8.76507 13.1006 8.75379 13.112 8.74072 13.126C8.714 13.1546 8.67634 13.1945 8.62939 13.2402C8.53599 13.3313 8.4011 13.4527 8.23584 13.5752C7.92207 13.8077 7.41526 14.1052 6.82275 14.1055C6.24835 14.1054 5.75411 13.8309 5.42139 13.6543C5.03271 13.448 4.80968 13.3431 4.59326 13.3428C4.05756 13.3428 3.7135 13.6244 3.43604 13.918C3.20846 14.1585 2.8283 14.1685 2.5874 13.9414C2.34668 13.7141 2.33546 13.3342 2.56299 13.0938C2.91576 12.7204 3.55789 12.1426 4.59326 12.1426C5.16187 12.1429 5.65493 12.4201 5.98389 12.5947C6.36886 12.799 6.59767 12.9052 6.82275 12.9053C7.02985 12.905 7.27936 12.7904 7.521 12.6113C7.63299 12.5283 7.72662 12.4441 7.7915 12.3809C7.82348 12.3497 7.84848 12.324 7.86377 12.3076C7.87113 12.2997 7.87654 12.2932 7.87939 12.29L7.88135 12.2881ZM8.271 2.04102C10.7907 2.04109 12.8335 4.08481 12.8335 6.60449C12.8334 7.63843 12.4886 8.59135 11.9087 9.35645L14.5542 12.002C14.7982 12.2459 14.7979 12.6426 14.5542 12.8867C14.3101 13.1308 13.9135 13.1308 13.6694 12.8867L11.0239 10.2412C10.2587 10.8213 9.30524 11.167 8.271 11.167C5.75159 11.1669 3.70883 9.12386 3.7085 6.60449C3.7085 4.08485 5.75138 2.04115 8.271 2.04102ZM8.271 3.29199C6.44174 3.29212 4.9585 4.7752 4.9585 6.60449C4.95883 8.4335 6.44194 9.91686 8.271 9.91699C10.1001 9.91692 11.5832 8.43354 11.5835 6.60449C11.5835 4.77517 10.1003 3.29206 8.271 3.29199Z" fill="currentColor"/></svg>