<svg width="24" height="24" viewBox="0 0 16 16" fill="currentColor" xmlns="http://www.w3.org/2000/svg"><path d="M11.2002 6.14941C12.0561 6.1492 12.75 5.45552 12.75 4.59961V3C12.7498 2.14426 12.0559 1.44943 11.2002 1.44922H4.7998C3.94389 1.44922 3.2502 2.14413 3.25 3V4.59961C3.25 5.45565 3.94376 6.14941 4.7998 6.14941H11.2002ZM4.7998 5.0498C4.55128 5.0498 4.34961 4.84814 4.34961 4.59961V3C4.34981 2.75164 4.5514 2.5498 4.7998 2.5498H11.2002C11.4484 2.55002 11.6492 2.75177 11.6494 3V4.59961C11.6494 4.84801 11.4485 5.04959 11.2002 5.0498H4.7998ZM14 8.5498C14.3038 8.5498 14.5498 8.30376 14.5498 8C14.5498 7.69624 14.3038 7.4502 14 7.4502H2C1.69624 7.4502 1.4502 7.69624 1.4502 8C1.4502 8.30376 1.69624 8.5498 2 8.5498H14ZM11.2002 14.5498C12.0561 14.5496 12.75 13.8559 12.75 13V11.4004C12.75 10.5445 12.0561 9.84982 11.2002 9.84961H4.7998C3.94376 9.84961 3.25 10.5443 3.25 11.4004V13C3.25 13.856 3.94376 14.5498 4.7998 14.5498H11.2002ZM4.7998 13.4502C4.55128 13.4502 4.34961 13.2485 4.34961 13V11.4004C4.34961 11.1519 4.55128 10.9502 4.7998 10.9502H11.2002C11.4485 10.9504 11.6494 11.152 11.6494 11.4004V13C11.6494 13.2484 11.4485 13.45 11.2002 13.4502H4.7998Z" fill="currentColor"/></svg>