<svg width="24" height="24" viewBox="0 0 16 16" fill="currentColor" xmlns="http://www.w3.org/2000/svg"><path d="M12.0417 8.62305C12.0279 8.62334 12.0137 8.625 11.9998 8.625H8.62476V12.708H10.6667C11.4262 12.708 12.0417 12.0924 12.0417 11.333V8.62305ZM3.95874 11.333C3.95874 12.0924 4.57434 12.708 5.33374 12.708H7.37476V8.625H3.99976C3.98604 8.625 3.97239 8.62333 3.95874 8.62305V11.333ZM12.7087 6.66699C12.7087 6.27578 12.391 5.95801 11.9998 5.95801H8.62476V7.375H11.9998C12.1298 7.375 12.2507 7.34019 12.3542 7.28027C12.5673 7.15684 12.7086 6.92806 12.7087 6.66699ZM3.29175 6.66699C3.29187 6.92816 3.4331 7.15688 3.64624 7.28027C3.74968 7.34012 3.86983 7.37494 3.99976 7.375H7.37476V5.95801H3.99976C3.6087 5.95818 3.29175 6.2759 3.29175 6.66699ZM10.7087 3.11133C10.7087 2.84291 10.4909 2.62507 10.2224 2.625C9.39557 2.625 8.7155 3.25335 8.63354 4.05859L8.62476 4.22266V4.70801H9.11108C9.9931 4.70801 10.7086 3.99335 10.7087 3.11133ZM5.29175 3.11133C5.29186 3.99336 6.00738 4.70801 6.8894 4.70801H7.37476V4.22266C7.37476 3.34061 6.66009 2.62512 5.77808 2.625C5.5096 2.625 5.29175 2.84285 5.29175 3.11133ZM11.9587 3.11133C11.9587 3.70314 11.7776 4.25264 11.4685 4.70801H11.9998C13.0813 4.70801 13.9587 5.58544 13.9587 6.66699C13.9586 7.25388 13.6994 7.77941 13.2917 8.1377V11.333C13.2917 12.7828 12.1165 13.958 10.6667 13.958H5.33374C3.884 13.958 2.70874 12.7828 2.70874 11.333V8.1377C2.30095 7.7794 2.04184 7.25397 2.04175 6.66699C2.04175 5.58554 2.91835 4.70818 3.99976 4.70801H4.53198C4.22284 4.25261 4.04179 3.7032 4.04175 3.11133C4.04175 2.1525 4.81924 1.375 5.77808 1.375C6.67739 1.37507 7.47801 1.79314 7.99976 2.44434C8.52153 1.7929 9.32287 1.375 10.2224 1.375C11.1812 1.37507 11.9587 2.15253 11.9587 3.11133Z" fill="currentColor"/></svg>