<svg xmlns="http://www.w3.org/2000/svg" width="24" height="24" fill="none" viewBox="0 0 16 16"><g clip-path="url(#svg_33840d6270__a)"><path fill="#c71d23" d="M8 15A7 7 0 1 1 8 1a7 7 0 0 1 0 14m3.54-7.78H7.57a.35.35 0 0 0-.35.35v.86c0 .2.16.35.35.35h2.42c.19 0 .34.15.34.34v.18a1.04 1.04 0 0 1-1.03 1.03H6a.35.35 0 0 1-.34-.34V6.7A1.04 1.04 0 0 1 6.7 5.67h4.84a.35.35 0 0 0 .35-.35v-.86a.35.35 0 0 0-.35-.35H6.7a2.6 2.6 0 0 0-2.59 2.6v4.83c0 .2.16.35.35.35h5.1a2.33 2.33 0 0 0 2.33-2.33v-2a.35.35 0 0 0-.35-.34"/></g><defs><clipPath id="svg_33840d6270__a"><path fill="#fff" d="M1 1h14v14H1z"/></clipPath></defs></svg>