<svg width="24" height="24" viewBox="0 0 16 16" fill="currentColor" xmlns="http://www.w3.org/2000/svg"><path d="M7.99992 1.30029C11.6833 1.30029 14.6666 4.28363 14.6666 7.96696C14.6662 9.36379 14.2278 10.7253 13.4131 11.86C12.5984 12.9946 11.4484 13.8452 10.1249 14.292C9.79158 14.3586 9.66658 14.1503 9.66658 13.9753C9.66658 13.7503 9.67492 13.0336 9.67492 12.142C9.67492 11.517 9.46659 11.117 9.22492 10.9086C10.7083 10.742 12.2666 10.1753 12.2666 7.61696C12.2666 6.88363 12.0083 6.29196 11.5833 5.82529C11.6499 5.65863 11.8833 4.97529 11.5166 4.05863C11.5166 4.05863 10.9583 3.87529 9.68325 4.74196C9.14992 4.59196 8.58325 4.51696 8.01659 4.51696C7.44992 4.51696 6.88325 4.59196 6.34992 4.74196C5.07492 3.88363 4.51659 4.05863 4.51659 4.05863C4.14992 4.97529 4.38325 5.65863 4.44992 5.82529C4.02492 6.29196 3.76659 6.89196 3.76659 7.61696C3.76659 10.167 5.31659 10.742 6.79992 10.9086C6.60825 11.0753 6.43325 11.367 6.37492 11.8003C5.99159 11.9753 5.03325 12.2586 4.43325 11.2503C4.30825 11.0503 3.93325 10.5586 3.40825 10.567C2.84992 10.5753 3.18325 10.8836 3.41659 11.0086C3.69992 11.167 4.02492 11.7586 4.09992 11.9503C4.23325 12.3253 4.66659 13.042 6.34159 12.7336C6.34159 13.292 6.34992 13.817 6.34992 13.9753C6.34992 14.1503 6.22492 14.3503 5.89159 14.292C4.56378 13.85 3.40886 13.0011 2.59066 11.8658C1.77246 10.7305 1.33252 9.36638 1.33325 7.96696C1.33325 4.28363 4.31659 1.30029 7.99992 1.30029Z" fill="currentColor"/></svg>