<svg width="24" height="24" viewBox="0 0 16 16" fill="currentColor" xmlns="http://www.w3.org/2000/svg"><path d="M12.0005 4.70825C13.0854 4.70844 14.0466 5.2343 14.646 6.04419C14.6528 6.04397 14.6596 6.04224 14.6665 6.04224H15.3335C15.6785 6.04241 15.9585 6.32217 15.9585 6.66724C15.9582 7.01208 15.6784 7.29206 15.3335 7.29224H15.2144C15.2643 7.52033 15.2915 7.75715 15.2915 8.00024C15.2913 9.81782 13.818 11.291 12.0005 11.2913C10.1827 11.2913 8.70867 9.81801 8.7085 8.00024C8.7085 7.59301 8.78225 7.20304 8.91748 6.84302C8.6419 6.70382 8.33031 6.62526 7.99951 6.62524C7.66867 6.62531 7.35723 6.70386 7.08154 6.84302C7.21677 7.20309 7.2915 7.59294 7.2915 8.00024C7.29133 9.81781 5.81806 11.291 4.00049 11.2913C2.18265 11.2913 0.708672 9.818 0.708496 8.00024C0.708496 7.75712 0.735618 7.52036 0.785645 7.29224H0.666504C0.321489 7.29224 0.0417676 7.01219 0.0415039 6.66724C0.0415039 6.32206 0.321326 6.04224 0.666504 6.04224H1.3335C1.34005 6.04224 1.34652 6.04399 1.35303 6.04419C1.95274 5.23396 2.91521 4.70825 4.00049 4.70825C4.96089 4.70841 5.82473 5.12031 6.42627 5.77661C6.89416 5.52148 7.43021 5.37532 7.99951 5.37524C8.56861 5.37527 9.10501 5.52086 9.57275 5.77563C10.1746 5.11928 11.0399 4.70825 12.0005 4.70825ZM4.00049 5.95825C2.87291 5.95825 1.9585 6.87266 1.9585 8.00024C1.95867 9.12765 2.87302 10.0413 4.00049 10.0413C5.1277 10.041 6.04133 9.12746 6.0415 8.00024C6.0415 6.87285 5.12781 5.95856 4.00049 5.95825ZM12.0005 5.95825C10.8729 5.95825 9.9585 6.87267 9.9585 8.00024C9.95867 9.12765 10.873 10.0413 12.0005 10.0413C13.1277 10.041 14.0413 9.12746 14.0415 8.00024C14.0415 6.87286 13.1278 5.95856 12.0005 5.95825Z" fill="currentColor"/></svg>