<svg width="24" height="24" viewBox="0 0 24 24" fill="none" xmlns="http://www.w3.org/2000/svg"><path d="M10.8491 8.61445C11.7187 8.45756 12.5511 8.55998 13.3003 9.06855C13.7905 9.39212 14.1426 9.8362 14.3736 10.3723C14.4291 10.456 14.3915 10.5023 14.2808 10.5305C13.6983 10.6785 13.3007 10.7887 12.7271 10.9367C12.5882 10.9737 12.5793 10.9828 12.4585 10.8439C12.3202 10.6871 12.2181 10.5854 12.0239 10.4934C11.4412 10.2068 10.8763 10.2891 10.3491 10.632C9.72048 11.0384 9.39707 11.6399 9.40578 12.3889C9.41544 13.1286 9.92436 13.7396 10.6548 13.841C11.2841 13.9242 11.811 13.7027 12.2271 13.2307C12.3103 13.1289 12.3842 13.018 12.4771 12.8889H10.6919C10.4976 12.8888 10.4518 12.7684 10.5161 12.6115C10.6361 12.3242 10.8582 11.8434 10.9878 11.6027C11.0077 11.5582 11.0405 11.5206 11.0816 11.4943C11.1227 11.4681 11.1705 11.4546 11.2193 11.4553H14.1968C14.3306 11.0318 14.547 10.6316 14.8364 10.2531C15.5109 9.36492 16.3256 8.902 17.4263 8.70722C18.3696 8.54105 19.2582 8.63379 20.063 9.17988C20.7936 9.67963 21.2469 10.3549 21.3677 11.2424C21.5247 12.4912 21.1633 13.5094 20.3032 14.3791C19.6928 14.9987 18.9433 15.3872 18.0825 15.5627C17.8332 15.6089 17.5838 15.6184 17.3433 15.6457L17.0308 15.6281C16.3111 15.5621 15.6523 15.3177 15.0855 14.8322C14.6295 14.4375 14.3172 13.9516 14.1616 13.3869C14.0531 13.6064 13.9237 13.8169 13.772 14.0168C13.1064 14.8956 12.2368 15.4419 11.1363 15.59C10.2295 15.71 9.38709 15.5347 8.64699 14.9797C7.9629 14.4614 7.57462 13.7766 7.47317 12.926C7.35243 11.9175 7.64785 11.0111 8.25832 10.215C8.91512 9.3546 9.78547 8.80923 10.8491 8.61445ZM19.5171 11.6027C19.3504 10.6873 18.5079 10.169 17.6294 10.3723C16.7691 10.5663 16.2145 11.1134 16.0113 11.9826C15.8443 12.7041 16.196 13.4344 16.8618 13.7307C17.3705 13.9524 17.8795 13.9249 18.3696 13.675C19.1007 13.2955 19.4986 12.7039 19.5445 11.9084C19.5352 11.7881 19.5352 11.6949 19.5171 11.6027ZM6.72317 12.0568C6.76019 12.0568 6.77883 12.0843 6.77883 12.1213L6.76027 12.343C6.76027 12.38 6.72302 12.4074 6.69484 12.4074L4.67922 12.3986C4.64265 12.3986 4.6325 12.3703 4.6509 12.343L4.78078 12.1115C4.79927 12.0839 4.8362 12.057 4.87258 12.0568H6.72317ZM6.92629 11.2053C6.96291 11.2053 6.98144 11.234 6.97219 11.2609L6.89895 11.4826C6.88969 11.52 6.85199 11.5383 6.81496 11.5383L2.43996 11.5471C2.40316 11.547 2.39415 11.5285 2.41262 11.5012L2.60695 11.2512C2.62559 11.2232 2.67127 11.2053 2.70852 11.2053H6.92629ZM7.40774 10.3537C7.44453 10.3538 7.45386 10.3821 7.43606 10.4094L7.27883 10.6496C7.25995 10.6777 7.21384 10.7052 7.18606 10.7053L3.83742 10.6965C3.8004 10.6965 3.79099 10.6774 3.8091 10.6496L4.00344 10.4006C4.02152 10.3728 4.068 10.3538 4.105 10.3537H7.40774Z" fill="#00ACD7"/></svg>