<svg width="16" height="16" viewBox="0 0 16 16" fill="none" xmlns="http://www.w3.org/2000/svg">
  <path d="M4.12 8c0-.43.07-.85.2-1.24L2.03 5.05A6.6 6.6 0 0 0 2.03 10.95l2.29-1.72A3.9 3.9 0 0 1 4.12 8Z" fill="#FBBC05"/>
  <path d="M8.15 4.06c.96 0 1.83.33 2.51.88L12.65 3A6.56 6.56 0 0 0 2.03 5.05l2.3 1.71a4.02 4.02 0 0 1 3.82-2.7Z" fill="#EA4335"/>
  <path d="M8.15 11.94a4.02 4.02 0 0 1-3.83-2.7l-2.29 1.72a6.56 6.56 0 0 0 10.57 2.05l-2.18-1.65c-.62.38-1.39.58-2.27.58Z" fill="#34A853"/>
  <path d="M14.66 8c0-.39-.06-.82-.15-1.21H8.15v2.58h3.66a3.13 3.13 0 0 1-1.39 1.99l2.18 1.65c1.25-1.14 2.06-2.83 2.06-5.01Z" fill="#4285F4"/>
</svg>
