<svg xmlns="http://www.w3.org/2000/svg" width="24" height="24" fill="currentColor" viewBox="0 0 16 16"><g clip-path="url(#svg_220ac0149c__a)"><path fill="currentColor" d="M4.17 4.058a5.71 5.71 0 0 1 6.21-1.25c.456.17.853.41 1.164.635L9.82 4.24c-1.604-.674-3.44-.216-4.562.907-1.469 1.47-1.802 3.984-.206 5.685l.16.163-4.853 4.34c.308-.425.69-.826 1.071-1.226 1.075-1.13 2.141-2.251 1.49-3.834a5.77 5.77 0 0 1 1.25-6.217M15.527.824c-1.597 2.202-2.377 3.279-1.751 5.973l-.004-.004a5.69 5.69 0 0 1-1.52 5.36c-1.88 1.883-4.886 2.302-7.362.607l1.726-.8c1.58.621 3.31.349 4.552-.895a4.18 4.18 0 0 0 .897-4.564c-.118-.286-.474-.358-.723-.174L6.26 10.083l7.278-7.32v.007L15.64.666z"/></g><defs><clipPath id="svg_220ac0149c__a"><path fill="currentColor" d="M0 0h16v16H0z"/></clipPath></defs></svg>