<svg width="24" height="24" viewBox="0 0 16 16" fill="currentColor" xmlns="http://www.w3.org/2000/svg"><path d="M1.33337 12.6665V3.33317C1.33337 2.96498 1.63185 2.6665 2.00004 2.6665C2.36823 2.6665 2.66671 2.96498 2.66671 3.33317V12.6665C2.66671 13.0347 2.36823 13.3332 2.00004 13.3332C1.63185 13.3332 1.33337 13.0347 1.33337 12.6665Z" fill="currentColor"/><path d="M8 12.6665V3.33317C8 2.96498 8.29848 2.6665 8.66667 2.6665C9.03486 2.6665 9.33333 2.96498 9.33333 3.33317V12.6665C9.33333 13.0347 9.03486 13.3332 8.66667 13.3332C8.29848 13.3332 8 13.0347 8 12.6665Z" fill="currentColor"/><path d="M8.66671 7.3335C9.0349 7.3335 9.33337 7.63197 9.33337 8.00016C9.33337 8.36835 9.0349 8.66683 8.66671 8.66683H2.00004C1.63185 8.66683 1.33337 8.36835 1.33337 8.00016C1.33337 7.63197 1.63185 7.3335 2.00004 7.3335H8.66671Z" fill="currentColor"/><path d="M11.7696 13.3333C11.3366 13.3333 11.1224 13.0918 11.1224 12.7454C11.1224 12.4857 11.2227 12.3125 11.5007 12.0573L13.4603 10.1842C14.2715 9.40495 14.4812 9.08594 14.4812 8.61198C14.4812 8.06966 14.0619 7.68229 13.474 7.68229C12.9454 7.68229 12.5808 7.94661 12.3438 8.47526C12.1888 8.7487 12.0293 8.8763 11.7331 8.8763C11.364 8.8763 11.1452 8.65755 11.1452 8.31576C11.1452 8.21094 11.1635 8.11523 11.1954 8.01953C11.4187 7.29036 12.2435 6.61133 13.4877 6.61133C14.8822 6.61133 15.821 7.39518 15.821 8.52539C15.821 9.32747 15.4291 9.82878 14.3536 10.8451L12.9317 12.2122V12.2396H15.4108C15.7663 12.2396 15.9805 12.4538 15.9805 12.7865C15.9805 13.11 15.7663 13.3333 15.4108 13.3333H11.7696Z" fill="currentColor"/></svg>