<svg width="24" height="24" viewBox="0 0 16 16" fill="currentColor" xmlns="http://www.w3.org/2000/svg"><path d="M1.33325 12.6665V3.33317C1.33325 2.96498 1.63173 2.6665 1.99992 2.6665C2.36811 2.6665 2.66659 2.96498 2.66659 3.33317V12.6665C2.66659 13.0347 2.36811 13.3332 1.99992 13.3332C1.63173 13.3332 1.33325 13.0347 1.33325 12.6665Z" fill="currentColor"/><path d="M8 12.6665V3.33317C8 2.96498 8.29848 2.6665 8.66667 2.6665C9.03486 2.6665 9.33333 2.96498 9.33333 3.33317V12.6665C9.33333 13.0347 9.03486 13.3332 8.66667 13.3332C8.29848 13.3332 8 13.0347 8 12.6665Z" fill="currentColor"/><path d="M8.66659 7.3335C9.03478 7.3335 9.33325 7.63197 9.33325 8.00016C9.33325 8.36835 9.03478 8.66683 8.66659 8.66683H1.99992C1.63173 8.66683 1.33325 8.36835 1.33325 8.00016C1.33325 7.63197 1.63173 7.3335 1.99992 7.3335H8.66659Z" fill="currentColor"/><path d="M13.2382 13.4792C11.9849 13.4792 11.2148 12.9368 10.9049 12.2897C10.8319 12.1393 10.8 11.9935 10.8 11.8568C10.8 11.5013 11.0279 11.278 11.4062 11.278C11.6796 11.278 11.8528 11.3874 11.9895 11.638C12.2219 12.0983 12.5774 12.3717 13.261 12.3717C13.9355 12.3717 14.4003 11.9798 14.4003 11.4329C14.4049 10.7949 13.9355 10.4395 13.1379 10.4395H12.8508C12.5181 10.4395 12.3267 10.2435 12.3267 9.94727C12.3267 9.66016 12.5181 9.45964 12.8508 9.45964H13.1197C13.8079 9.45964 14.2545 9.08594 14.2545 8.54818C14.2545 8.01953 13.899 7.66862 13.2336 7.66862C12.6777 7.66862 12.3404 7.90104 12.1262 8.36589C11.9758 8.67578 11.8163 8.78971 11.5064 8.78971C11.1236 8.78971 10.9277 8.56641 10.9277 8.23372C10.9277 8.07878 10.9596 7.94661 11.0279 7.79167C11.3196 7.14909 12.067 6.61133 13.2291 6.61133C14.6191 6.61133 15.5579 7.29948 15.5579 8.35221C15.5579 9.1862 14.9609 9.73307 14.1861 9.89258V9.91992C15.1659 10.0111 15.7994 10.5853 15.7994 11.4922C15.7994 12.6862 14.7649 13.4792 13.2382 13.4792Z" fill="currentColor"/></svg>