<svg width="24" height="24" viewBox="0 0 16 16" fill="currentColor" xmlns="http://www.w3.org/2000/svg"><path d="M1 12.6665V3.33317C1 2.96498 1.29848 2.6665 1.66667 2.6665C2.03486 2.6665 2.33333 2.96498 2.33333 3.33317V12.6665C2.33333 13.0347 2.03486 13.3332 1.66667 13.3332C1.29848 13.3332 1 13.0347 1 12.6665Z" fill="currentColor"/><path d="M7.66992 12.6665V3.33317C7.66992 2.96498 7.9684 2.6665 8.33659 2.6665C8.70478 2.6665 9.00326 2.96498 9.00326 3.33317V12.6665C9.00326 13.0347 8.70478 13.3332 8.33659 13.3332C7.9684 13.3332 7.66992 13.0347 7.66992 12.6665Z" fill="currentColor"/><path d="M8.33333 7.3335C8.70152 7.3335 9 7.63197 9 8.00016C9 8.36835 8.70152 8.66683 8.33333 8.66683H1.66667C1.29848 8.66683 1 8.36835 1 8.00016C1 7.63197 1.29848 7.3335 1.66667 7.3335H8.33333Z" fill="currentColor"/><path d="M14.233 13.4289C13.8547 13.4289 13.5813 13.1965 13.5813 12.759V12.1255H11.1295C10.6327 12.1255 10.3 11.8156 10.3 11.3553C10.3 11.0728 10.3821 10.8175 10.5872 10.4575C11.0383 9.64632 11.6946 8.64372 12.4101 7.58187C12.8658 6.8846 13.1985 6.65674 13.7545 6.65674C14.4517 6.65674 14.8892 7.03499 14.8892 7.65023V11.0272H15.2629C15.6275 11.0272 15.828 11.255 15.828 11.5786C15.828 11.9022 15.623 12.1255 15.2629 12.1255H14.8892V12.759C14.8892 13.1965 14.6112 13.4289 14.233 13.4289ZM13.6086 11.0636V7.75505H13.5813C12.6425 9.10856 12.0364 10.0337 11.5032 11.0272V11.0636H13.6086Z" fill="currentColor"/></svg>