<svg width="24" height="24" viewBox="0 0 16 16" fill="currentColor" xmlns="http://www.w3.org/2000/svg"><path d="M1.33325 12.6665V3.33317C1.33325 2.96498 1.63173 2.6665 1.99992 2.6665C2.36811 2.6665 2.66659 2.96498 2.66659 3.33317V12.6665C2.66659 13.0347 2.36811 13.3332 1.99992 13.3332C1.63173 13.3332 1.33325 13.0347 1.33325 12.6665Z" fill="currentColor"/><path d="M8 12.6665V3.33317C8 2.96498 8.29848 2.6665 8.66667 2.6665C9.03486 2.6665 9.33333 2.96498 9.33333 3.33317V12.6665C9.33333 13.0347 9.03486 13.3332 8.66667 13.3332C8.29848 13.3332 8 13.0347 8 12.6665Z" fill="currentColor"/><path d="M8.66659 7.3335C9.03478 7.3335 9.33325 7.63197 9.33325 8.00016C9.33325 8.36835 9.03478 8.66683 8.66659 8.66683H1.99992C1.63173 8.66683 1.33325 8.36835 1.33325 8.00016C1.33325 7.63197 1.63173 7.3335 1.99992 7.3335H8.66659Z" fill="currentColor"/><path d="M13.1926 13.4793C12.149 13.4793 11.2375 12.9917 10.9094 12.2944C10.8411 12.1486 10.8 12.0073 10.8 11.8433C10.8 11.4924 11.0188 11.2827 11.3743 11.2827C11.6477 11.2827 11.8209 11.3784 11.9758 11.6245C12.2128 12.0985 12.6002 12.3856 13.1926 12.3856C13.9081 12.3856 14.4231 11.8706 14.4231 11.1597C14.4231 10.467 13.9127 9.97477 13.1972 9.97477C12.8053 9.97477 12.4771 10.1434 12.2447 10.3667C11.9758 10.6174 11.8391 10.6857 11.5338 10.6857C11.0826 10.6857 10.8684 10.3713 10.8866 10.0021C10.8866 9.98389 10.8866 9.97021 10.8912 9.94743L11.0826 7.53662C11.1282 6.98063 11.4153 6.75732 11.9485 6.75732H14.8333C15.175 6.75732 15.3984 6.97152 15.3984 7.3042C15.3984 7.63688 15.1796 7.85107 14.8333 7.85107H12.2356L12.0806 9.67855H12.108C12.3769 9.25472 12.9146 8.9904 13.5846 8.9904C14.8424 8.9904 15.7356 9.87451 15.7356 11.1278C15.7356 12.5314 14.692 13.4793 13.1926 13.4793Z" fill="currentColor"/></svg>