<svg width="24" height="24" viewBox="0 0 16 16" fill="currentColor" xmlns="http://www.w3.org/2000/svg"><path d="M11.4106 2.04651C11.753 2.08931 11.9962 2.40142 11.9536 2.74378L11.7075 4.70862H13.3335C13.6785 4.7088 13.9585 4.98855 13.9585 5.33362C13.9583 5.67854 13.6784 5.95845 13.3335 5.95862H11.5513L11.0405 10.0416H13.3335C13.6785 10.0418 13.9585 10.3216 13.9585 10.6666C13.9585 11.0117 13.6785 11.2915 13.3335 11.2916H10.8843L10.6196 13.4108C10.5768 13.7533 10.2648 13.9965 9.92236 13.9537C9.57985 13.9109 9.33658 13.598 9.37939 13.2555L9.62549 11.2916H5.55127L5.28662 13.4108C5.24382 13.7531 4.93171 13.9963 4.58936 13.9537C4.24684 13.9109 4.00357 13.598 4.04639 13.2555L4.2915 11.2916H2.6665C2.32133 11.2916 2.0415 11.0118 2.0415 10.6666C2.0415 10.3215 2.32133 10.0416 2.6665 10.0416H4.44775L4.9585 5.95862H2.6665C2.32143 5.95862 2.04168 5.67865 2.0415 5.33362C2.0415 4.98844 2.32133 4.70862 2.6665 4.70862H5.11475L5.37939 2.58948C5.42221 2.24697 5.73512 2.0037 6.07764 2.04651C6.41989 2.08945 6.66224 2.40149 6.61963 2.74378L6.37451 4.70862H10.4487L10.7134 2.58948C10.7562 2.24698 11.0681 2.00372 11.4106 2.04651ZM5.70752 10.0416H9.78174L10.2925 5.95862H6.21826L5.70752 10.0416Z" fill="currentColor"/></svg>