<svg width="24" height="24" viewBox="0 0 16 16" fill="currentColor" xmlns="http://www.w3.org/2000/svg"><path d="M4.83677 12.4246C4.47878 12.4246 4.25098 12.1903 4.25098 11.8193V3.45554C4.25098 3.08454 4.47878 2.85022 4.83677 2.85022C5.19475 2.85022 5.42256 3.08454 5.42256 3.45554V7.00283H10.5775V3.45554C10.5775 3.08454 10.8053 2.85022 11.1633 2.85022C11.5213 2.85022 11.7491 3.08454 11.7491 3.45554V11.8193C11.7491 12.1903 11.5213 12.4246 11.1633 12.4246C10.8053 12.4246 10.5775 12.1903 10.5775 11.8193V8.05725H5.42256V11.8193C5.42256 12.1903 5.19475 12.4246 4.83677 12.4246Z" fill="currentColor"/></svg>