<svg width="24" height="24" viewBox="0 0 16 16" fill="currentColor" xmlns="http://www.w3.org/2000/svg"><path fill-rule="evenodd" clip-rule="evenodd" d="M7.99992 1.33334C4.31802 1.33334 1.33325 4.31811 1.33325 8.00001C1.33325 11.6819 4.31802 14.6667 7.99992 14.6667C11.6818 14.6667 14.6666 11.6819 14.6666 8.00001C14.6666 4.31811 11.6818 1.33334 7.99992 1.33334ZM7.99992 6.00001C7.74838 6.00001 7.52832 6.13908 7.41425 6.34769C7.23759 6.67074 6.83245 6.78934 6.50943 6.61267C6.1864 6.43598 6.06777 6.03089 6.24445 5.70786C6.58301 5.08888 7.24165 4.66668 7.99992 4.66668C9.00978 4.66668 9.71118 5.33763 9.91085 6.12601C10.1117 6.91861 9.80665 7.84201 8.89432 8.29814C8.75479 8.36794 8.66658 8.51061 8.66658 8.66668C8.66658 9.03488 8.36812 9.33334 7.99992 9.33334C7.63172 9.33334 7.33325 9.03488 7.33325 8.66668C7.33325 8.00561 7.70678 7.40121 8.29805 7.10561C8.60125 6.95401 8.67912 6.69314 8.61838 6.45341C8.55658 6.20946 8.35212 6.00001 7.99992 6.00001ZM7.99992 11.3333C8.36812 11.3333 8.66658 11.0349 8.66658 10.6667C8.66658 10.2985 8.36812 10 7.99992 10C7.63172 10 7.33325 10.2985 7.33325 10.6667C7.33325 11.0349 7.63172 11.3333 7.99992 11.3333Z" fill="currentColor"/></svg>