<svg width="24" height="24" viewBox="0 0 16 16" fill="currentColor" xmlns="http://www.w3.org/2000/svg"><path d="M13.375 8C13.375 5.03147 10.9686 2.625 8 2.625C5.03147 2.625 2.625 5.03147 2.625 8C2.625 10.9686 5.03147 13.375 8 13.375C10.9686 13.375 13.375 10.9686 13.375 8ZM14.625 8C14.625 11.6589 11.6589 14.625 8 14.625C4.34112 14.625 1.375 11.6589 1.375 8C1.375 4.34112 4.34112 1.375 8 1.375C11.6589 1.375 14.625 4.34112 14.625 8Z" fill="currentColor"/><path d="M7.375 10.6735V10.6667C7.375 10.3215 7.65482 10.0417 8 10.0417C8.34518 10.0417 8.625 10.3215 8.625 10.6667V10.6735C8.62491 11.0186 8.34512 11.2985 8 11.2985C7.65488 11.2985 7.37509 11.0186 7.375 10.6735Z" fill="currentColor"/><path d="M7.37536 8.66635C7.37543 8.24488 7.51131 7.91232 7.7445 7.65463C7.94477 7.43336 8.20662 7.28772 8.34216 7.20541C8.5102 7.10337 8.58294 7.04783 8.62927 6.98764C8.6594 6.94847 8.70837 6.86936 8.70837 6.66635C8.70819 6.27541 8.39131 5.95853 8.00036 5.95834C7.739 5.95834 7.50953 6.09953 7.3861 6.31284C7.21336 6.61147 6.83131 6.7138 6.53259 6.54135C6.2338 6.36852 6.13124 5.98565 6.30407 5.68686C6.64174 5.10323 7.27475 4.70834 8.00036 4.70834C9.08168 4.70853 9.95819 5.58506 9.95837 6.66635C9.95837 7.10731 9.84035 7.46451 9.62048 7.75034C9.41683 8.01497 9.15575 8.17349 8.9906 8.27377C8.79297 8.39378 8.72097 8.43858 8.67126 8.4935C8.65456 8.51193 8.62541 8.54223 8.62536 8.66635C8.62536 9.01142 8.34538 9.29117 8.00036 9.29135C7.65518 9.29135 7.37536 9.01153 7.37536 8.66635Z" fill="currentColor"/></svg>