<svg width="24" height="24" viewBox="0 0 16 16" fill="currentColor" xmlns="http://www.w3.org/2000/svg"><path d="M13.5153 5.64526C13.7108 5.37824 14.0868 5.32035 14.3541 5.51538C14.6214 5.71095 14.6794 6.08682 14.484 6.35424C14.0892 6.89436 13.5649 7.42535 12.9127 7.89233L13.8717 9.16967C14.0702 9.4346 14.0162 9.81066 13.7516 10.0095C13.4865 10.2083 13.1096 10.1545 12.9108 9.8894L11.8795 8.51538C11.5061 8.70211 11.1035 8.86865 10.6696 9.00464L11.1471 10.7859C11.2326 11.1057 11.0431 11.4354 10.7233 11.5212C10.4034 11.6069 10.0749 11.4162 9.98891 11.0964L9.50258 9.28296C8.97409 9.37294 8.40935 9.42358 7.80825 9.42358C7.32017 9.42356 6.86137 9.39033 6.43032 9.32983L5.95766 11.0964C5.87179 11.4162 5.54318 11.6068 5.22329 11.5212C4.90331 11.4355 4.71391 11.1059 4.79946 10.7859L5.25649 9.07983C4.80302 8.94754 4.38809 8.78169 4.00942 8.5896L3.03579 9.8894C2.837 10.1545 2.46005 10.2082 2.19497 10.0095C1.9302 9.81069 1.8763 9.43466 2.07485 9.16967L2.98989 7.94897C2.35043 7.46048 1.85641 6.89537 1.49282 6.32104C1.31609 6.04124 1.39886 5.67014 1.67836 5.49292C1.95808 5.31586 2.32905 5.39914 2.50649 5.67846C3.29275 6.92059 4.89136 8.22325 7.80825 8.22339C10.7394 8.22339 12.5933 6.90669 13.5153 5.64526Z" fill="currentColor"/></svg>