<svg width="24" height="24" viewBox="0 0 16 16" fill="currentColor" xmlns="http://www.w3.org/2000/svg"><path d="M7.99902 1.375C11.6579 1.375 14.624 4.34112 14.624 8C14.624 11.6589 11.6579 14.625 7.99902 14.625C5.11375 14.6247 2.66106 12.7801 1.75195 10.208C1.63708 9.88268 1.80756 9.52622 2.13281 9.41113C2.45821 9.29619 2.81464 9.46663 2.92969 9.79199C3.66783 11.8802 5.65999 13.3747 7.99902 13.375C10.9676 13.375 13.374 10.9686 13.374 8C13.374 5.03147 10.9676 2.625 7.99902 2.625C5.98577 2.62523 4.23331 3.73445 3.3125 5.375H4.66699C5.0119 5.37518 5.29179 5.6551 5.29199 6C5.29182 6.34492 5.01191 6.62482 4.66699 6.625H2C1.65493 6.625 1.37518 6.34503 1.375 6V3.33301C1.3752 2.988 1.65494 2.70801 2 2.70801C2.34506 2.70801 2.6248 2.988 2.625 3.33301V4.12695C3.82762 2.46085 5.78594 1.3752 7.99902 1.375ZM8 4.70801C8.34506 4.70801 8.6248 4.988 8.625 5.33301V7.74023L10.4424 9.55762C10.6861 9.80154 10.6859 10.1973 10.4424 10.4414C10.1983 10.6855 9.80169 10.6855 9.55762 10.4414L7.55762 8.44141C7.4408 8.32432 7.37509 8.1654 7.375 8V5.33301C7.3752 4.988 7.65494 4.70801 8 4.70801Z" fill="currentColor"/></svg>