<svg width="24" height="24" viewBox="0 0 16 16" fill="currentColor" xmlns="http://www.w3.org/2000/svg"><path d="M7.72146 1.27382C7.92609 1.17184 8.17381 1.18939 8.36404 1.32558L14.697 5.85976C14.9777 6.0607 15.0425 6.45118 14.8416 6.73183C14.6406 7.01221 14.2501 7.07624 13.9695 6.87538L7.99978 2.60097L2.03103 6.87538C1.75053 7.0762 1.36 7.01208 1.15896 6.73183C0.958144 6.45132 1.02226 6.06079 1.30252 5.85976L7.6365 1.32558L7.72146 1.27382Z" fill="currentColor"/><path d="M2.70825 10.1333V5.17432C2.70825 4.82914 2.98807 4.54932 3.33325 4.54932C3.67843 4.54932 3.95825 4.82914 3.95825 5.17432V10.1333C3.95825 10.7036 3.95896 11.0939 3.98364 11.396C4.00771 11.6906 4.05111 11.8464 4.10767 11.9575C4.23948 12.2162 4.4505 12.4263 4.70923 12.5581C4.82034 12.6147 4.9759 12.659 5.27075 12.6831C5.57287 12.7078 5.9632 12.7085 6.53345 12.7085H9.46704C10.0372 12.7085 10.4277 12.7078 10.7297 12.6831C11.0243 12.659 11.1802 12.6147 11.2913 12.5581C11.5498 12.4263 11.7601 12.2161 11.8918 11.9575C11.9484 11.8464 11.9928 11.6907 12.0168 11.396C12.0415 11.0939 12.0413 10.7036 12.0413 10.1333V5.17432C12.0413 4.82925 12.3212 4.54949 12.6663 4.54932C13.0114 4.54932 13.2913 4.82914 13.2913 5.17432V10.1333C13.2913 10.6829 13.2918 11.1328 13.262 11.4976C13.2316 11.8697 13.1665 12.2082 13.0051 12.5249C12.7535 13.0188 12.3525 13.4207 11.8586 13.6724C11.542 13.8337 11.2034 13.8988 10.8313 13.9292C10.4665 13.959 10.0166 13.9585 9.46704 13.9585H6.53345C5.98393 13.9585 5.53397 13.959 5.16919 13.9292C4.79715 13.8988 4.45846 13.8336 4.14185 13.6724C3.64792 13.4207 3.24606 13.0189 2.99439 12.5249C2.83308 12.2082 2.76795 11.8697 2.73755 11.4976C2.70777 11.1328 2.70825 10.6829 2.70825 10.1333Z" fill="currentColor"/><path d="M8.70874 13.3335V10.6665C8.70856 10.2754 8.39087 9.9585 7.99976 9.9585C7.60879 9.95867 7.29192 10.2755 7.29175 10.6665V13.3335C7.29175 13.6787 7.01193 13.9585 6.66675 13.9585C6.32157 13.9585 6.04175 13.6787 6.04175 13.3335V10.6665C6.04192 9.58518 6.91844 8.70867 7.99976 8.7085C9.08123 8.7085 9.95856 9.58508 9.95874 10.6665V13.3335C9.95874 13.6786 9.67877 13.9583 9.33374 13.9585C8.98856 13.9585 8.70874 13.6787 8.70874 13.3335Z" fill="currentColor"/></svg>