<svg width="24" height="24" viewBox="0 0 16 16" fill="currentColor" xmlns="http://www.w3.org/2000/svg"><path d="M10 7.375C10.3452 7.375 10.625 7.65482 10.625 8C10.625 8.34518 10.3452 8.625 10 8.625H6C5.65482 8.625 5.375 8.34518 5.375 8C5.375 7.65482 5.65482 7.375 6 7.375H10Z" fill="currentColor"/><path d="M2.125 12V4C2.125 2.55025 3.30025 1.375 4.75 1.375H9.81348C10.5924 1.37507 11.3314 1.72091 11.8301 2.31934L13.2666 4.04395C13.6595 4.51555 13.8749 5.1098 13.875 5.72363V12C13.875 13.4497 12.6997 14.625 11.25 14.625H4.75C3.30025 14.625 2.125 13.4497 2.125 12ZM3.375 12C3.375 12.7594 3.99061 13.375 4.75 13.375H11.25C12.0094 13.375 12.625 12.7594 12.625 12V5.72363C12.6249 5.40218 12.5124 5.09072 12.3066 4.84375L10.8691 3.12012C10.6079 2.80669 10.2215 2.62507 9.81348 2.625H4.75C3.99061 2.625 3.375 3.24061 3.375 4V12Z" fill="currentColor"/></svg>