<svg width="24" height="24" viewBox="0 0 16 16" fill="currentColor" xmlns="http://www.w3.org/2000/svg"><path d="M12.875 4.5C12.875 3.74061 12.2594 3.125 11.5 3.125H4.5C3.74061 3.125 3.125 3.74061 3.125 4.5V11.5C3.125 12.2594 3.74061 12.875 4.5 12.875H11.5C12.2594 12.875 12.875 12.2594 12.875 11.5V4.5ZM14.125 11.5C14.125 12.9497 12.9497 14.125 11.5 14.125H4.5C3.05025 14.125 1.875 12.9497 1.875 11.5V4.5C1.875 3.05025 3.05025 1.875 4.5 1.875H11.5C12.9497 1.875 14.125 3.05025 14.125 4.5V11.5Z" fill="currentColor"/><path d="M10.125 7.25C10.4702 7.25 10.75 7.52982 10.75 7.875C10.75 8.22018 10.4702 8.5 10.125 8.5H5.875C5.52982 8.5 5.25 8.22018 5.25 7.875C5.25 7.52982 5.52982 7.25 5.875 7.25H10.125Z" fill="currentColor"/><path d="M8.75 10.125C8.75 10.4702 8.47018 10.75 8.125 10.75C7.77982 10.75 7.5 10.4702 7.5 10.125L7.5 5.875C7.5 5.52982 7.77982 5.25 8.125 5.25C8.47018 5.25 8.75 5.52982 8.75 5.875L8.75 10.125Z" fill="currentColor"/></svg>