<svg width="24" height="24" viewBox="0 0 12 12" fill="currentColor" xmlns="http://www.w3.org/2000/svg"><path d="M6.5 9.75H4.25C2.17893 9.75 0.5 8.07106 0.5 6C0.5 4.51763 1.36011 3.23616 2.6085 2.62741L3.11029 3.49655C2.1603 3.92973 1.5 4.88775 1.5 6C1.5 7.51878 2.73122 8.75 4.25 8.75H6.5V8.07849C6.5 7.93351 6.61753 7.81598 6.7625 7.81598C6.82608 7.81598 6.88751 7.83906 6.93536 7.88093L8.27423 9.05244C8.38333 9.14791 8.39439 9.31375 8.29892 9.42285C8.29125 9.43162 8.283 9.43987 8.27423 9.44755L6.93536 10.6191C6.82625 10.7145 6.66042 10.7035 6.56495 10.5944C6.52308 10.5465 6.5 10.4851 6.5 10.4215V9.75ZM5.5 3.25001V3.92152C5.5 3.9851 5.47692 4.04652 5.43505 4.09437C5.33959 4.20348 5.17375 4.21453 5.06465 4.11907L3.72578 2.94756C3.71701 2.93988 3.70876 2.93163 3.70108 2.92286C3.60562 2.81376 3.61667 2.64792 3.72578 2.55245L5.06465 1.38094C5.1125 1.33907 5.17392 1.31599 5.2375 1.31599C5.38248 1.31599 5.5 1.43352 5.5 1.57849V2.25001H7.75C9.82107 2.25001 11.5 3.92894 11.5 6.00001C11.5 7.47158 10.6524 8.74518 9.4187 9.35919L8.91728 8.4907C9.85245 8.05167 10.5 7.10146 10.5 6.00001C10.5 4.48122 9.26879 3.25001 7.75 3.25001H5.5Z" fill="currentColor"/></svg>