<svg width="24" height="24" viewBox="0 0 16 16" fill="currentColor" xmlns="http://www.w3.org/2000/svg"><path d="M7.00008 1.33337C5.52732 1.33337 4.33341 2.52728 4.33341 4.00004V4.99955C4.33341 5.8902 3.9796 6.74437 3.34981 7.37417C2.91245 7.81151 2.66675 8.40471 2.66675 9.02324V10C2.66675 10.3682 2.96523 10.6667 3.33341 10.6667H7.33342V14C7.33342 14.3682 7.63188 14.6667 8.00008 14.6667C8.36828 14.6667 8.66675 14.3682 8.66675 14V10.6667H12.6667C13.0349 10.6667 13.3334 10.3682 13.3334 10V9.02324C13.3334 8.40471 13.0877 7.81151 12.6503 7.37417C12.0205 6.74437 11.6667 5.8902 11.6667 4.99955V4.00004C11.6667 2.52728 10.4728 1.33337 9.00008 1.33337H7.00008Z" fill="currentColor"/></svg>