<svg width="24" height="24" viewBox="0 0 16 16" fill="currentColor" xmlns="http://www.w3.org/2000/svg"><path d="M8.33374 9.62598C8.03382 8.8666 8.72007 8.11445 9.47437 8.28711L9.62573 8.33398L14.2957 10.1826C14.9641 10.4473 15.0433 11.3622 14.4294 11.7373L12.7576 12.7578L11.7371 14.4297C11.3619 15.0434 10.447 14.9643 10.1824 14.2959L8.33374 9.62598ZM11.0652 13.1309L11.7234 12.0547C11.8057 11.9197 11.9195 11.806 12.0544 11.7236L13.1306 11.0654L9.71265 9.71289L11.0652 13.1309ZM7.11108 1.44922C8.84718 1.44924 10.2546 2.85667 10.2546 4.59277C10.2545 6.32875 8.84709 7.73631 7.11108 7.73633L6.78101 7.74902C5.16717 7.87345 4.12326 8.91152 3.67749 10.2939C3.60345 10.5245 3.66027 10.7328 3.81812 10.9062C3.98671 11.0913 4.2698 11.2274 4.59253 11.2275H6.51831C6.86349 11.2275 7.14331 11.5074 7.14331 11.8525C7.14292 12.1974 6.86325 12.4775 6.51831 12.4775H4.59253C3.93374 12.4774 3.31007 12.2044 2.89429 11.748C2.46835 11.2804 2.26158 10.6132 2.48804 9.91016C2.90244 8.625 3.75608 7.51558 5.01343 6.92969C4.37273 6.35424 3.96761 5.52171 3.96753 4.59277C3.96753 2.85667 5.37499 1.44924 7.11108 1.44922ZM7.11108 2.69922C6.06534 2.69924 5.21753 3.54703 5.21753 4.59277C5.21768 5.63839 6.06544 6.4863 7.11108 6.48633C8.15674 6.48631 9.00449 5.63839 9.00464 4.59277C9.00464 3.54702 8.15683 2.69924 7.11108 2.69922Z" fill="currentColor"/></svg>