<svg width="24" height="24" viewBox="0 0 16 16" fill="currentColor" xmlns="http://www.w3.org/2000/svg"><path d="M8 1.39844C11.6451 1.39844 14.5996 4.35297 14.5996 7.99805C14.5996 11.6431 11.6451 14.5977 8 14.5977C4.35492 14.5977 1.40039 11.6431 1.40039 7.99805C1.40039 4.35297 4.35492 1.39844 8 1.39844ZM8 2.59863C5.01766 2.59863 2.60059 5.01571 2.60059 7.99805C2.60059 10.9804 5.01766 13.3975 8 13.3975C10.9823 13.3975 13.3994 10.9804 13.3994 7.99805C13.3994 5.01571 10.9823 2.59863 8 2.59863ZM10.5996 7.99414L6.6416 10.4258V5.5625L10.5996 7.99414Z" fill="currentColor"/></svg>