<svg width="24" height="24" viewBox="0 0 16 16" fill="currentColor" xmlns="http://www.w3.org/2000/svg"><path d="M8.86816 9.27051C8.56813 8.51095 9.25429 7.75854 10.0088 7.93164L10.1602 7.97852L14.8301 9.82715C15.4982 10.0918 15.5772 11.0066 14.9639 11.3818L13.292 12.4023L12.2715 14.0742C11.8963 14.688 10.9814 14.6088 10.7168 13.9404L8.86816 9.27051ZM11.334 2.04199C12.7311 2.04228 13.9588 3.09258 13.959 4.5V7.55566C13.9589 7.90054 13.6788 8.18036 13.334 8.18066C12.9889 8.18066 12.7091 7.90073 12.709 7.55566V6.84766H3.29199V10.6113C3.29214 11.2285 3.8554 11.8193 4.66699 11.8193H8.44434C8.78926 11.8195 9.0691 12.0994 9.06934 12.4443C9.0692 12.7893 8.78932 13.0692 8.44434 13.0693H4.66699C3.26964 13.0693 2.04213 12.019 2.04199 10.6113V4.5C2.04218 3.09239 3.26966 2.04199 4.66699 2.04199H11.334ZM11.5996 12.7754L12.2578 11.6992C12.3402 11.5644 12.454 11.4505 12.5889 11.3682L13.665 10.71L10.2471 9.35742L11.5996 12.7754ZM4.66699 3.29199C3.85544 3.29199 3.29219 3.88286 3.29199 4.5V5.59766H12.709V4.5C12.7088 3.88299 12.1453 3.29227 11.334 3.29199H4.66699Z" fill="currentColor"/></svg>