<svg width="24" height="24" viewBox="0 0 16 16" fill="currentColor" xmlns="http://www.w3.org/2000/svg"><path fill-rule="evenodd" clip-rule="evenodd" d="M7.99992 1.33334C11.6818 1.33334 14.6666 4.3181 14.6666 8C14.6666 11.6819 11.6818 14.6667 7.99992 14.6667C4.31802 14.6667 1.33325 11.6819 1.33325 8C1.33325 4.3181 4.31802 1.33334 7.99992 1.33334ZM7.99992 9.73307C7.55812 9.73307 7.19978 10.0914 7.19978 10.5332C7.19985 10.9749 7.55812 11.3333 7.99992 11.3333C8.44172 11.3333 8.79998 10.975 8.80005 10.5332C8.80005 10.0914 8.44172 9.73307 7.99992 9.73307ZM7.99992 4.66667C7.63172 4.66667 7.33325 4.96515 7.33325 5.33334V8C7.33325 8.3682 7.63172 8.66667 7.99992 8.66667C8.36812 8.66667 8.66658 8.3682 8.66658 8V5.33334C8.66658 4.96515 8.36812 4.66667 7.99992 4.66667Z" fill="currentColor"/></svg>