<svg width="24" height="24" viewBox="0 0 20 20" fill="currentColor" xmlns="http://www.w3.org/2000/svg"><path d="M15.7002 11.5C18.0197 11.5001 19.9004 13.3807 19.9004 15.7002C19.9003 18.0196 18.0196 19.9003 15.7002 19.9004C13.3807 19.9004 11.5001 18.0197 11.5 15.7002C11.5 13.3806 13.3806 11.5 15.7002 11.5ZM10 1.75098C13.4862 1.75111 16.3124 4.57626 16.3125 8.0625C16.3125 8.77754 16.1926 9.46479 15.9736 10.1055C15.883 10.1011 15.7919 10.0996 15.7002 10.0996C15.2046 10.0996 14.7242 10.1643 14.2666 10.2852C14.614 9.6198 14.8135 8.86452 14.8135 8.0625C14.8133 5.40469 12.6578 3.25013 10 3.25C7.34208 3.25 5.18666 5.40461 5.18652 8.0625C5.18652 9.81225 6.12097 11.3451 7.52051 12.1885C7.6554 12.2697 7.79548 12.3452 7.93848 12.4131L8.36523 12.6162V13.6709H10.4805C10.2968 14.143 10.1752 14.6457 10.126 15.1699H8.36523V15.2148C8.36523 16.1173 9.09755 16.8496 10 16.8496C10.0729 16.8496 10.1444 16.8423 10.2148 16.833C10.3187 17.3383 10.4917 17.8181 10.7217 18.2637C10.4899 18.3183 10.2485 18.3486 10 18.3486C8.26912 18.3486 6.86621 16.9457 6.86621 15.2148V13.541C6.82622 13.5181 6.78455 13.4964 6.74512 13.4727C4.91424 12.3691 3.6875 10.3594 3.6875 8.0625C3.68763 4.57618 6.51365 1.75098 10 1.75098ZM15.3955 16.832C15.2667 16.832 15.1621 16.9366 15.1621 17.0654V17.6719C15.1622 17.8006 15.2667 17.9053 15.3955 17.9053H16.002C16.1307 17.9053 16.2353 17.8006 16.2354 17.6719V17.0654C16.2354 16.9366 16.1308 16.832 16.002 16.832H15.3955ZM15.3955 13.4053C15.2667 13.4053 15.1621 13.5097 15.1621 13.6387V16.0928C15.1621 16.2218 15.2667 16.3262 15.3955 16.3262H16.002C16.1308 16.3262 16.2354 16.2218 16.2354 16.0928V13.6387C16.2354 13.5097 16.1308 13.4053 16.002 13.4053H15.3955Z" fill="currentColor"/></svg>