<svg width="24" height="24" viewBox="0 0 16 16" fill="currentColor" xmlns="http://www.w3.org/2000/svg"><path d="M12.7085 4.66663C12.7085 3.90734 12.0928 3.2918 11.3335 3.29163H4.6665C3.90712 3.29163 3.2915 3.90724 3.2915 4.66663V9.15686L3.47705 8.97229C4.50213 7.94719 6.16384 7.94728 7.18896 8.97229L10.9263 12.7086H11.3335C12.0927 12.7084 12.7083 12.0928 12.7085 11.3336V4.66663ZM10.3745 6.33362C10.3745 5.94241 10.0577 5.62463 9.6665 5.62463C9.27529 5.62463 8.9585 5.94241 8.9585 6.33362C8.95867 6.72469 9.27539 7.04163 9.6665 7.04163C10.0576 7.04163 10.3743 6.72469 10.3745 6.33362ZM3.2915 11.3336C3.29168 12.0929 3.90722 12.7086 4.6665 12.7086H9.15771L6.30518 9.85608C5.76821 9.31923 4.89777 9.31914 4.36084 9.85608L3.2915 10.9254V11.3336ZM11.6245 6.33362C11.6243 7.41505 10.748 8.29163 9.6665 8.29163C8.58503 8.29163 7.70867 7.41505 7.7085 6.33362C7.7085 5.25207 8.58492 4.37463 9.6665 4.37463C10.7481 4.37463 11.6245 5.25207 11.6245 6.33362ZM13.9585 11.3336C13.9583 12.7831 12.783 13.9584 11.3335 13.9586H4.6665C3.21687 13.9586 2.04168 12.7833 2.0415 11.3336V4.66663C2.0415 3.21688 3.21676 2.04163 4.6665 2.04163H11.3335C12.7831 2.0418 13.9585 3.217 13.9585 4.66663V11.3336Z" fill="currentColor"/></svg>