<svg width="24" height="24" viewBox="0 0 16 16" fill="currentColor" xmlns="http://www.w3.org/2000/svg"><path d="M5.33301 2.70801C5.67808 2.70801 5.95784 2.98797 5.95801 3.33301C5.95801 3.67819 5.67819 3.95801 5.33301 3.95801H4C3.24071 3.95801 2.62516 4.57376 2.625 5.33301V10.666C2.625 11.4254 3.2406 12.041 4 12.041H12C12.7594 12.041 13.375 11.4254 13.375 10.666V6C13.3752 5.65496 13.6549 5.375 14 5.375C14.3451 5.375 14.6248 5.65496 14.625 6V10.666C14.625 12.1158 13.4498 13.291 12 13.291H4C2.55026 13.291 1.375 12.1158 1.375 10.666V5.33301C1.37516 3.8834 2.55036 2.70801 4 2.70801H5.33301ZM14 2.70801C14.3451 2.70803 14.6248 2.98799 14.625 3.33301C14.625 3.67817 14.3452 3.95798 14 3.95801H11.333C9.83761 3.95818 8.62534 5.17065 8.625 6.66602V8.49023L10.0576 7.05762C10.3017 6.81376 10.6984 6.81373 10.9424 7.05762C11.1861 7.30154 11.1859 7.69734 10.9424 7.94141L8.44238 10.4414C8.19831 10.6855 7.80169 10.6855 7.55762 10.4414L5.05762 7.94141C4.81405 7.69735 4.81385 7.30156 5.05762 7.05762C5.30167 6.81376 5.69835 6.81373 5.94238 7.05762L7.375 8.49023V6.66602C7.37534 4.48029 9.14726 2.70818 11.333 2.70801H14Z" fill="currentColor"/></svg>