<svg width="24" height="24" viewBox="0 0 16 16" fill="currentColor" xmlns="http://www.w3.org/2000/svg"><path d="M7.40088 1.39844H8.60107V4.59766H7.40088V1.39844Z" fill="currentColor"/><path opacity=".8" d="M5.17236 6.02148L6.021 5.17285L3.7583 2.91016L2.90967 3.75879L5.17236 6.02148Z" fill="currentColor"/><path opacity=".7" d="M4.59961 8.59863V7.39844H1.40039V8.59863H4.59961Z" fill="currentColor"/><path opacity=".6" d="M3.7583 13.0918L6.021 10.8291L5.17236 9.98047L2.90967 12.2432L3.7583 13.0918Z" fill="currentColor"/><path opacity=".5" d="M8.60107 11.4023H7.40088V14.6016H8.60107V11.4023Z" fill="currentColor"/><path opacity=".4" d="M12.667 11.8193L11.2529 10.4053L10.8291 9.98047L9.98047 10.8291L10.4043 11.2539L11.8184 12.668L12.2432 13.0918L13.0918 12.2432L12.667 11.8193Z" fill="currentColor"/><path opacity=".3" d="M14.6001 8.59863V7.39844H11.4009V8.59863H14.6001Z" fill="currentColor"/><path opacity=".2" d="M12.667 4.18262L13.0918 3.75879L12.2432 2.91016L11.8184 3.33398L10.4043 4.74805L9.98047 5.17285L10.8291 6.02148L11.2529 5.59668L12.667 4.18262Z" fill="currentColor"/></svg>