<svg width="24" height="24" viewBox="0 0 14 14" fill="currentColor" xmlns="http://www.w3.org/2000/svg"><path d="M6.26943 11.6057C6.50663 11.643 6.75055 11.6624 6.99988 11.6624V12.9924L6.69227 12.9846C6.47913 12.9738 6.26909 12.9507 6.0624 12.9182L6.26943 11.6057ZM7.73131 11.6057L7.93736 12.9182C7.63197 12.9662 7.31874 12.9924 6.99988 12.9924V11.6624C7.24942 11.6624 7.49391 11.643 7.73131 11.6057ZM3.22749 9.73957C3.51565 10.1355 3.86476 10.4846 4.26068 10.7728L3.86811 11.3099L3.86908 11.3108L3.47749 11.8469C2.96935 11.477 2.5221 11.0291 2.15232 10.5208L3.22749 9.73957ZM11.8474 10.5208C11.4774 11.0293 11.0298 11.4769 10.5213 11.8469L10.3465 11.6057L9.74006 10.7728C10.136 10.4846 10.4851 10.1355 10.7732 9.73957L11.8474 10.5208ZM1.00781 6.99939C1.00783 6.68045 1.03304 6.36737 1.08105 6.06191L2.3945 6.26894C2.35725 6.50616 2.33788 6.75005 2.33786 6.99939C2.33786 7.24894 2.3572 7.49341 2.3945 7.73082L1.08105 7.93687C1.0331 7.63152 1.00781 7.31821 1.00781 6.99939ZM12.9851 7.30798C12.9743 7.52079 12.9511 7.73049 12.9187 7.93687L12.2625 7.83434V7.83336L11.6062 7.73082C11.6435 7.49342 11.6629 7.24893 11.6629 6.99939C11.6629 6.75006 11.6435 6.50614 11.6062 6.26894L12.9187 6.06191C12.9667 6.36741 12.9929 6.68041 12.9929 6.99939L12.9851 7.30798ZM3.85834 2.67526L4.26068 3.22701C3.86473 3.51517 3.51566 3.86424 3.22749 4.26019L2.68942 3.86762V3.86859L2.15232 3.477C2.52203 2.96909 2.96958 2.52154 3.47749 2.15183L3.85834 2.67526ZM10.5213 2.15183C11.0295 2.52162 11.4775 2.96886 11.8474 3.477L11.3113 3.86859L11.3103 3.86762L10.7732 4.26019C10.4851 3.86427 10.136 3.51516 9.74006 3.22701L10.5213 2.15183ZM6.99988 1.00732C7.3187 1.00732 7.63201 1.03261 7.93736 1.08056L7.73131 2.39402C7.4939 2.35672 7.24943 2.33738 6.99988 2.33738C6.75054 2.33739 6.50664 2.35676 6.26943 2.39402L6.0624 1.08056C6.36786 1.03255 6.68094 1.00734 6.99988 1.00732Z" fill="currentColor"/></svg>