<svg width="24" height="24" viewBox="0 0 16 16" fill="currentColor" xmlns="http://www.w3.org/2000/svg"><path d="M9.5231 5.58999C10.8365 4.25131 12.9705 4.25137 14.2838 5.58999C15.5909 6.92229 15.5918 9.07797 14.2848 10.4103H14.2838C12.9705 11.7485 10.8363 11.7488 9.5231 10.4103L7.99966 8.85659L6.47622 10.4103C5.16288 11.749 3.02785 11.749 1.71451 10.4103C0.407561 9.07808 0.407768 6.92233 1.71451 5.58999C3.02785 4.25125 5.16288 4.25125 6.47622 5.58999L7.99966 7.14175L9.5231 5.58999ZM5.6188 6.42983C4.77597 5.57106 3.41477 5.57106 2.57193 6.42983C1.72273 7.29544 1.72271 8.70384 2.57193 9.56948C3.41482 10.4284 4.77592 10.4284 5.6188 9.56948L7.15787 7.99917L5.6188 6.42983ZM13.4274 6.42983C12.5846 5.57105 11.2234 5.57108 10.3805 6.42983L8.84048 7.99917L10.3805 9.56948H10.3795C11.2225 10.4286 12.5845 10.4285 13.4274 9.56948C14.2766 8.70384 14.2766 7.29544 13.4274 6.42983Z" fill="currentColor"/></svg>