<svg width="24" height="24" viewBox="0 0 16 16" fill="currentColor" xmlns="http://www.w3.org/2000/svg"><path d="M13.3958 8.125C13.3958 5.15647 10.9893 2.75 8.02075 2.75C5.05222 2.75 2.64575 5.15647 2.64575 8.125C2.64575 11.0936 5.05222 13.5 8.02075 13.5C10.9893 13.5 13.3958 11.0936 13.3958 8.125ZM7.39575 10.792V8.08301H7.35376C7.00873 8.08283 6.72876 7.80308 6.72876 7.45801C6.72894 7.11309 7.00884 6.83318 7.35376 6.83301H8.02075C8.36582 6.83301 8.64558 7.11298 8.64575 7.45801V10.792C8.64558 11.137 8.36582 11.417 8.02075 11.417C7.67568 11.417 7.39593 11.137 7.39575 10.792ZM14.6458 8.125C14.6458 11.7839 11.6797 14.75 8.02075 14.75C4.36187 14.75 1.39575 11.7839 1.39575 8.125C1.39575 4.46612 4.36187 1.5 8.02075 1.5C11.6797 1.5 14.6458 4.46612 14.6458 8.125Z" fill="currentColor"/><path d="M8 4.95833C7.72387 4.95833 7.5 5.18219 7.5 5.45833C7.5 5.73447 7.72387 5.95833 8 5.95833C8.27613 5.95833 8.5 5.73447 8.5 5.45833C8.5 5.18219 8.27613 4.95833 8 4.95833Z" fill="currentColor"/><path d="M8.30005 5.45833C8.30005 5.27424 8.15113 5.12532 7.96704 5.12532C7.78295 5.12532 7.63403 5.27424 7.63403 5.45833C7.63403 5.64242 7.78295 5.79134 7.96704 5.79134C8.15113 5.79134 8.30005 5.64242 8.30005 5.45833ZM8.63403 5.45833C8.63403 5.82652 8.33522 6.12532 7.96704 6.12532C7.59886 6.12532 7.30005 5.82652 7.30005 5.45833C7.30005 5.09014 7.59886 4.79134 7.96704 4.79134C8.33522 4.79134 8.63403 5.09014 8.63403 5.45833Z" fill="currentColor"/></svg>