<svg width="24" height="24" viewBox="0 0 16 16" fill="currentColor" xmlns="http://www.w3.org/2000/svg"><path d="M11.333 2.04102C12.7826 2.04102 13.9577 3.21649 13.958 4.66602V11.333C13.958 12.7828 12.7828 13.958 11.333 13.958H4.66602C3.21649 13.9577 2.04102 12.7826 2.04102 11.333V10.666C2.04132 10.3213 2.32129 10.0413 2.66602 10.041C3.011 10.041 3.29071 10.3211 3.29102 10.666V11.333C3.29102 12.0922 3.90686 12.7077 4.66602 12.708H10V3.29102H4.66602C3.90704 3.29132 3.29132 3.90704 3.29102 4.66602V5.33301C3.29102 5.67819 3.01119 5.95801 2.66602 5.95801C2.3211 5.9577 2.04102 5.678 2.04102 5.33301V4.66602C2.04132 3.21669 3.21669 2.04132 4.66602 2.04102H11.333ZM5.55859 5.89062C5.80267 5.64714 6.19848 5.64685 6.44238 5.89062L8.10938 7.55762C8.35307 7.80153 8.35286 8.19735 8.10938 8.44141L6.44238 10.1084C6.19836 10.3524 5.80269 10.3523 5.55859 10.1084C5.31451 9.86433 5.31452 9.46869 5.55859 9.22461L6.1582 8.625H2.66699C2.32191 8.625 2.04215 8.34505 2.04199 8C2.04206 7.65488 2.32185 7.375 2.66699 7.375H6.1582L5.55859 6.77539C5.31451 6.53132 5.31452 6.13471 5.55859 5.89062Z" fill="currentColor"/></svg>