<svg width="24" height="24" viewBox="0 0 16 16" fill="currentColor" xmlns="http://www.w3.org/2000/svg"><path d="M12.667 2.04102C13.0121 2.04115 13.292 2.3219 13.292 2.66699C13.2917 3.01186 13.0119 3.29186 12.667 3.29199H10.126L7.18359 12.709H9.33301C9.67819 12.709 9.95801 12.9888 9.95801 13.334C9.95774 13.6789 9.67802 13.959 9.33301 13.959H3.33301C2.9881 13.9589 2.70827 13.6789 2.70801 13.334C2.70801 12.9889 2.98794 12.7091 3.33301 12.709H5.87305L8.81543 3.29199H6.66699C6.32198 3.29199 6.04226 3.01195 6.04199 2.66699C6.04199 2.32181 6.32181 2.04102 6.66699 2.04102H12.667Z" fill="currentColor"/></svg>