<svg width="24" height="24" viewBox="0 0 24 24" fill="none" xmlns="http://www.w3.org/2000/svg"><path d="M14.7221 7.40649C14.3082 7.69089 13.9197 7.94994 13.4795 8.28687C13.1434 8.54499 12.5484 8.93356 12.5221 9.39911C12.4705 10.1499 13.6353 10.8483 13.0139 11.8056C12.7811 12.1679 12.3926 12.3237 11.9017 12.5565C11.8492 12.4533 12.0303 12.3491 12.1082 12.2458C12.8844 11.1327 11.3057 10.7704 11.5131 9.39911C11.7205 8.02783 13.273 7.58764 14.7221 7.40649Z" fill="#FD5A5A"/><path d="M12.419 5C12.6518 5.23277 12.833 5.67296 12.833 6.11315C12.833 7.48445 11.3838 8.26065 10.6854 9.16638C10.5297 9.37378 10.3231 9.68357 10.3231 10.0205C10.3231 10.7705 11.0994 11.5992 11.3838 12.1942C10.9182 11.8836 10.3231 11.4434 9.88296 10.9507C9.46905 10.4344 9.02887 9.63193 9.41741 8.90734C9.98621 7.84674 11.7198 7.20005 12.3411 6.06062C12.4969 5.77622 12.6255 5.33603 12.419 5Z" fill="#FD5A5A"/><path d="M9.45235 12.0838C9.59002 12.0448 9.72226 12.0077 9.83095 11.9615C9.69746 11.9502 9.56315 11.9541 9.43061 11.9733C9.36448 11.9805 9.30651 11.9868 9.26122 11.9868L9.11904 11.9977C8.40351 12.0521 6.98602 12.158 7.00957 12.7377C7.00957 13.2549 8.33013 13.3844 8.89893 13.436C10.6071 13.5402 13.0916 13.3844 13.8932 12.7893C14.0227 12.7114 14.2554 12.5566 14.2038 12.4533C12.9358 12.6861 11.099 12.8156 9.59816 12.7377C9.23586 12.7377 8.84732 12.7377 8.58828 12.5303C8.76943 12.2767 9.12899 12.1752 9.45235 12.0838ZM9.07645 13.6308C9.12355 13.5873 9.15978 13.5529 9.08008 13.5402C8.76943 13.6172 8.07109 13.7983 8.09645 14.1869C8.12273 14.4975 8.79568 14.704 9.18333 14.7819C10.7104 15.0926 12.7809 14.8598 13.8415 14.368C13.6948 14.3436 13.5653 14.2376 13.4339 14.1298C13.2872 14.0112 13.1387 13.8898 12.9621 13.8762C12.8588 13.859 12.7447 13.8989 12.6179 13.9432C12.5524 13.9671 12.4859 13.9879 12.4186 14.0057C11.4866 14.1869 9.59816 14.368 9.00218 13.773C8.97775 13.7222 9.03209 13.6724 9.07645 13.6308ZM9.54563 15.0718C9.57553 15.0401 9.60903 15.0048 9.54563 14.9894L9.39346 15.0292C8.97501 15.1361 8.57105 15.2402 8.63989 15.8172C9.75306 16.6713 12.4703 16.386 13.6088 15.714C13.4584 15.6786 13.3443 15.5717 13.2265 15.4604C13.0816 15.3245 12.9322 15.1841 12.703 15.1705C12.5925 15.1524 12.4811 15.1995 12.3706 15.2466C12.3253 15.2656 12.2819 15.2846 12.2375 15.2991C11.435 15.4803 9.83095 15.6877 9.52026 15.118C9.51032 15.1089 9.52751 15.0908 9.54563 15.0709V15.0718Z" fill="#4D87DA"/><path d="M8.18493 16.0863C8.3226 16.0781 8.44759 16.0709 8.53635 16.0501C7.94127 15.5329 6.02655 15.7657 6.0003 16.5672C5.97493 17.0337 6.56999 17.3697 7.06182 17.5255C8.58796 18.0427 11.0208 18.069 12.988 17.8616C13.8938 17.7583 16.1192 17.3697 16.015 16.3861C15.9634 16.128 15.7306 15.9468 15.4716 15.9206C15.679 16.8263 14.0224 17.1107 13.1429 17.2149C11.2282 17.4214 8.9249 17.3697 7.78641 16.9295C7.57898 16.8526 7.26832 16.6451 7.29457 16.464C7.33262 16.1407 7.80452 16.1108 8.18493 16.0872V16.0863Z" fill="#4D87DA"/><path d="M11.513 18.9747C10.1933 18.8189 8.92529 18.6377 7.86377 18.1722C10.6589 18.8452 14.7474 18.7935 16.7146 17.3697C16.7427 17.3489 16.7717 17.3217 16.7998 17.2936C16.8767 17.2212 16.9574 17.1442 17.0506 17.1632C16.6132 18.4765 15.0662 18.703 13.5808 18.9185C13.3996 18.9457 13.2185 18.972 13.04 19C13.04 18.9747 11.513 18.9747 11.513 18.9747ZM16.5072 12.9968C16.4818 11.9353 15.2392 11.7025 14.5146 12.3239C15.0843 12.1943 15.5761 12.4534 15.6793 12.841C15.8487 13.6662 15.0843 14.2839 14.559 14.7078C14.4412 14.8029 14.3362 14.8871 14.2564 14.9632C15.2392 14.9115 16.5588 14.2123 16.5072 12.9968Z" fill="#4D87DA"/></svg>