<svg width="24" height="24" viewBox="0 0 28 28" fill="none" xmlns="http://www.w3.org/2000/svg"><path fill="#51BDEA" d="M0 0H28V28H0z"/><path fill-rule="evenodd" clip-rule="evenodd" d="M15.1695 4C15.502 4.33254 15.7608 4.96138 15.7608 5.59022C15.7608 6.96327 14.7437 7.9187 13.7919 8.81294C13.3856 9.19454 12.9913 9.56499 12.6929 9.952C12.4704 10.2483 12.1754 10.6908 12.1754 11.1722C12.1754 11.9027 12.6909 12.6856 13.1478 13.3793C13.3609 13.7029 13.5613 14.0071 13.6905 14.2776C13.0255 13.8337 12.1754 13.2049 11.5465 12.501C10.9552 11.7635 10.3263 10.6171 10.8814 9.58194C11.2816 8.83577 12.0853 8.23301 12.9041 7.61897C13.7479 6.98613 14.6077 6.34131 15.0582 5.51517C15.2807 5.10888 15.4645 4.48004 15.1695 4ZM18.1812 7.62884L18.1811 7.62889C17.6908 7.96428 17.2138 8.29056 16.6846 8.69565C16.631 8.73683 16.5727 8.78033 16.5116 8.82605L16.5115 8.8261C16.0247 9.18981 15.3502 9.6938 15.3169 10.2846C15.288 10.7047 15.5257 11.1133 15.7722 11.5371C16.1552 12.1954 16.5595 12.8905 16.0195 13.7225C15.7183 14.1914 15.2344 14.4181 14.6246 14.7039C14.5612 14.7336 14.4966 14.7639 14.4306 14.7952C14.3784 14.6927 14.4874 14.5896 14.5961 14.4868L14.5961 14.4867C14.6439 14.4415 14.6916 14.3964 14.7256 14.3513C15.3206 13.498 14.947 12.9536 14.5187 12.3295C14.1488 11.7906 13.7382 11.1924 13.8755 10.2846C14.1718 8.32559 16.3896 7.69675 18.4598 7.43797C18.3662 7.5023 18.2735 7.56573 18.1812 7.62884ZM10.9422 14.1169L10.9321 14.1197L10.9301 14.1203C10.4687 14.2508 9.95613 14.3959 9.69771 14.7576C10.0678 15.0539 10.6229 15.0539 11.1404 15.0539C13.2844 15.1652 15.9085 14.9802 17.72 14.6477C17.7937 14.7952 17.4612 15.0164 17.2762 15.1277C16.131 15.9778 12.5818 16.2004 10.1415 16.0516C9.32894 15.9778 7.44242 15.7928 7.44242 15.0539C7.40887 14.2282 9.42213 14.0753 10.4471 13.9975L10.4559 13.9968L10.6591 13.9813C10.7238 13.9813 10.8066 13.9722 10.901 13.9619C11.0904 13.9346 11.2823 13.9289 11.473 13.9451C11.3204 14.0099 11.1353 14.0623 10.9422 14.1169L10.9422 14.1169ZM10.4003 16.2004C10.5142 16.2185 10.4624 16.2676 10.3951 16.3297L10.3921 16.3326C10.3293 16.3915 10.2546 16.4616 10.289 16.5329C11.1404 17.383 13.8382 17.1242 15.1697 16.8654C15.2659 16.84 15.3608 16.8102 15.4543 16.7761C15.6355 16.7127 15.7985 16.6558 15.946 16.6804C16.1959 16.6996 16.4065 16.8699 16.6142 17.0379L16.6201 17.0427C16.8078 17.1967 16.9928 17.3481 17.2024 17.383C15.6872 18.0856 12.7293 18.4181 10.5478 17.9743C9.99402 17.863 9.03264 17.568 8.99511 17.1242C8.95889 16.5691 9.95649 16.3103 10.4003 16.2004ZM11.0657 18.388L11.0654 18.3884V18.3871L11.0624 18.3903C11.0377 18.4175 11.0155 18.4419 11.0291 18.4544C11.473 19.2682 13.7645 18.9719 14.9109 18.7131C14.9657 18.6952 15.0196 18.6725 15.0751 18.6491L15.1011 18.6381C15.2589 18.5708 15.4181 18.5035 15.576 18.5294C15.9029 18.5488 16.1162 18.7488 16.323 18.9426L16.3238 18.9434C16.492 19.1026 16.6551 19.2553 16.8699 19.3057C15.2434 20.2658 11.3617 20.6734 9.77146 19.4533C9.67313 18.629 10.2502 18.4802 10.848 18.3275L11.0654 18.2706C11.1557 18.2926 11.1083 18.3428 11.0657 18.388ZM9.12204 19.8375L9.1278 19.8371H9.12781C9.3222 19.8256 9.49851 19.8152 9.62408 19.7857C8.77398 19.0469 6.03864 19.3794 6.00112 20.5245C5.96489 21.1909 6.81499 21.6709 7.51759 21.8935C9.69783 22.6323 13.1733 22.6698 15.9837 22.3735C17.2776 22.226 20.4567 21.6709 20.3079 20.2658C20.2342 19.897 19.9016 19.6382 19.5316 19.6007C19.8279 20.8946 17.4613 21.3009 16.2049 21.4497C13.4696 21.7447 10.1792 21.6709 8.55272 21.0421C8.25641 20.9321 7.8126 20.6358 7.85012 20.377C7.90447 19.9151 8.57859 19.8724 9.12204 19.8388V19.8375ZM8.66263 22.8174C10.1791 23.4824 11.9906 23.7412 13.8758 23.9638C13.8758 23.9638 16.0573 23.9638 16.0573 24C16.2382 23.9715 16.4211 23.9444 16.6045 23.9171C16.6795 23.906 16.7547 23.8948 16.8298 23.8835C18.9518 23.5756 21.1618 23.2521 21.7868 21.3759C21.6549 21.3491 21.5407 21.4565 21.4318 21.5591L21.4284 21.5623C21.3883 21.6024 21.3469 21.6412 21.3067 21.671C18.4964 23.705 12.6556 23.7787 8.66263 22.8174ZM18.1638 14.4626C19.199 13.5749 20.9742 13.9075 21.0104 15.4239C21.0842 17.1604 19.199 18.1593 17.7951 18.233C17.9034 18.1296 18.0445 18.0157 18.2028 17.8878L18.2272 17.8681C18.9777 17.2626 20.0698 16.3801 19.8278 15.2014C19.6803 14.6476 18.9777 14.2775 18.1638 14.4626Z" fill="#0E2F4E"/></svg>