<svg width="24" height="24" viewBox="0 0 14 14" fill="currentColor" xmlns="http://www.w3.org/2000/svg"><path fill-rule="evenodd" clip-rule="evenodd" d="M7.77302 9.29818C7.74593 9.27106 7.71376 9.24955 7.67835 9.23487C7.64294 9.22019 7.60499 9.21264 7.56666 9.21264C7.52833 9.21264 7.49038 9.22019 7.45497 9.23487C7.41956 9.24955 7.3874 9.27106 7.36031 9.29818L6.94789 9.7106C6.89321 9.76529 6.86249 9.83947 6.86249 9.91681C6.86249 9.99414 6.89321 10.0683 6.94789 10.123L9.62918 12.8043C9.73857 12.9137 9.88692 12.9751 10.0416 12.9751C10.1963 12.9751 10.3446 12.9137 10.454 12.8043L13.1353 10.123C13.19 10.0683 13.2207 9.99414 13.2207 9.91681C13.2207 9.83947 13.19 9.76529 13.1353 9.7106L12.7226 9.29818C12.6679 9.2435 12.5937 9.21278 12.5164 9.21278C12.4391 9.21278 12.3649 9.2435 12.3102 9.29818L10.6249 10.9834L10.6249 5.37089C10.6249 3.11572 8.79677 1.28755 6.5416 1.28755C4.28643 1.28755 2.45827 3.11572 2.45827 5.37089L2.45826 12.4351C2.45826 12.5124 2.48899 12.5866 2.54369 12.6413C2.59839 12.696 2.67258 12.7267 2.74993 12.7267L3.3216 12.7267C3.39895 12.7267 3.47314 12.696 3.52784 12.6413C3.58254 12.5866 3.61326 12.5124 3.61326 12.4351L3.61326 5.50797C3.61326 4.38039 4.78022 2.5913 6.5416 2.5913C8.30297 2.5913 9.45827 4.38039 9.45827 5.50797L9.45827 10.9831L7.77302 9.29818Z" fill="currentColor"/></svg>