<svg width="24" height="24" viewBox="0 0 16 16" fill="currentColor" xmlns="http://www.w3.org/2000/svg"><path d="M12.7085 7.99951V6.6665C12.7085 5.90711 12.0929 5.2915 11.3335 5.2915H9.3335C8.98832 5.2915 8.7085 5.01168 8.7085 4.6665C8.7085 4.32133 8.98832 4.0415 9.3335 4.0415H11.3335C12.7832 4.0415 13.9585 5.21676 13.9585 6.6665V7.99951C13.9585 9.44929 12.7833 10.6245 11.3335 10.6245H3.3335C2.98832 10.6245 2.7085 10.3447 2.7085 9.99951C2.70867 9.65448 2.98843 9.37451 3.3335 9.37451H11.3335C12.0929 9.37451 12.7085 8.75893 12.7085 7.99951Z" fill="currentColor"/><path d="M4.89131 6.89082C5.13529 6.64702 5.53105 6.64712 5.7751 6.89082C6.01918 7.1349 6.01918 7.53151 5.7751 7.77559L3.55049 9.99922L5.7751 12.2248C6.01918 12.4689 6.01918 12.8645 5.7751 13.1086C5.53101 13.3525 5.13533 13.3526 4.89131 13.1086L2.22432 10.4416C1.98062 10.1976 1.98051 9.8018 2.22432 9.55781L4.89131 6.89082Z" fill="currentColor"/></svg>