<svg width="60" height="24" viewBox="0 0 30 12" fill="currentColor" xmlns="http://www.w3.org/2000/svg"><path d="M25.7074 10.015C25.3481 10.015 25.0291 9.94167 24.7504 9.795C24.4791 9.64833 24.2664 9.443 24.1124 9.179C23.9657 8.915 23.8924 8.60333 23.8924 8.244V2.975H21.8794V1.985H24.9814V8.244C24.9814 8.486 25.0474 8.67667 25.1794 8.816C25.3187 8.95533 25.5021 9.025 25.7294 9.025H27.6324V10.015H25.7074Z" fill="currentColor"/><path d="M16.0317 10.015V3.965H17.0767V5.12H17.3407L16.9997 5.835C16.9997 5.18233 17.1427 4.691 17.4287 4.361C17.7147 4.02367 18.1364 3.855 18.6937 3.855C19.3391 3.855 19.8487 4.05667 20.2227 4.46C20.5967 4.856 20.7837 5.39867 20.7837 6.088V6.473H19.6837V6.176C19.6837 5.72133 19.5701 5.373 19.3427 5.131C19.1227 4.889 18.8111 4.768 18.4077 4.768C18.0044 4.768 17.6891 4.89267 17.4617 5.142C17.2344 5.384 17.1207 5.72867 17.1207 6.176V10.015H16.0317Z" fill="currentColor"/><path d="M12.1092 10.015C11.5739 10.015 11.1559 9.872 10.8552 9.586C10.5619 9.29267 10.4152 8.88567 10.4152 8.365V4.955H8.72119V3.965H10.4152V2.26H11.4932V3.965H13.8912V4.955H11.4932V8.365C11.4932 8.805 11.7059 9.025 12.1312 9.025H13.7812V10.015H12.1092Z" fill="currentColor"/><path d="M4.78719 10.125C4.29585 10.125 3.86685 10.0333 3.50019 9.85C3.14085 9.65933 2.86219 9.39167 2.66419 9.047C2.46619 8.695 2.36719 8.28067 2.36719 7.804V4.196C2.36719 3.712 2.46619 3.29767 2.66419 2.953C2.86219 2.60833 3.14085 2.34433 3.50019 2.161C3.86685 1.97033 4.29585 1.875 4.78719 1.875C5.27852 1.875 5.70385 1.97033 6.06319 2.161C6.42252 2.35167 6.69752 2.61933 6.88819 2.964C7.08619 3.30867 7.18519 3.71933 7.18519 4.196H6.10719C6.10719 3.76333 5.98985 3.42967 5.75519 3.195C5.52785 2.96033 5.20519 2.843 4.78719 2.843C4.36919 2.843 4.04285 2.96033 3.80819 3.195C3.57352 3.42233 3.45619 3.756 3.45619 4.196V7.804C3.45619 8.23667 3.57352 8.57033 3.80819 8.805C4.04285 9.03967 4.36919 9.157 4.78719 9.157C5.20519 9.157 5.52785 9.03967 5.75519 8.805C5.98985 8.57033 6.10719 8.23667 6.10719 7.804H7.18519C7.18519 8.27333 7.08619 8.684 6.88819 9.036C6.69752 9.38067 6.42252 9.64833 6.06319 9.839C5.70385 10.0297 5.27852 10.125 4.78719 10.125Z" fill="currentColor"/></svg>