<svg xmlns="http://www.w3.org/2000/svg" width="24" height="24" fill="currentColor" viewBox="0 0 16 16"><g clip-path="url(#svg_aacfa66c7a__a)"><path fill="currentColor" d="M3.757 3.636c.063 0 .115.063.115.141v4.505c0 .12.11.183.184.11l4.761-4.725c.021-.021.075-.031.075-.031h2.38c.11 0 .158.162.074.246L6.925 8.267c-.063.063-.058.183.015.23l3.42 2.476c.377.257.802.424 1.232.492.057.005.1.063.1.137v1.867c0 .084-.058.147-.12.141a4.66 4.66 0 0 1-2.104-.78l-3.95-2.906a.096.096 0 0 0-.124.015l-1.48 1.463a.16.16 0 0 0-.042.11v1.983c0 .079-.052.142-.115.142H2.115c-.063 0-.115-.063-.115-.142V3.777c0-.078.052-.141.115-.141zm9.733-2.193c.645 0 1.17.525 1.17 1.17a1.17 1.17 0 0 1-1.17 1.17h-1.033a.135.135 0 0 1-.136-.137V2.613c0-.645.524-1.17 1.17-1.17"/></g><defs><clipPath id="svg_aacfa66c7a__a"><path fill="currentColor" d="M2 1.2h12.66v12.66H2z"/></clipPath></defs></svg>