<svg width="24" height="24" viewBox="0 0 16 16" fill="currentColor" xmlns="http://www.w3.org/2000/svg"><path d="M9.39978 12.5996H6.59998V12.667C6.60015 13.44 7.22728 14.0664 8.00037 14.0664C8.77331 14.0662 9.3996 13.4399 9.39978 12.667V12.5996ZM12.0668 6.66699C12.0668 4.42114 10.2462 2.59979 8.00037 2.59961C5.75441 2.59961 3.93298 4.42103 3.93298 6.66699C3.9331 8.14537 4.7223 9.43982 5.90466 10.1523L6.07849 10.252C6.13727 10.2835 6.19675 10.3141 6.2572 10.3428L6.59998 10.5049V11.4004H9.39978V10.5049L9.74255 10.3428C9.86352 10.2853 9.98099 10.2211 10.0951 10.1523L10.3129 10.0127C11.3737 9.27793 12.0667 8.05296 12.0668 6.66699ZM13.267 6.66699C13.2669 8.46347 12.3667 10.0492 10.9955 10.999L10.7152 11.1807C10.6776 11.2033 10.6382 11.2234 10.6 11.2451V12.667C10.5998 14.1027 9.43605 15.2664 8.00037 15.2666C6.56453 15.2666 5.39996 14.1028 5.39978 12.667V11.2451L5.28552 11.1807C3.75771 10.2601 2.73388 8.58337 2.73376 6.66699C2.73376 3.75829 5.09167 1.40039 8.00037 1.40039C10.9089 1.40057 13.267 3.7584 13.267 6.66699Z" fill="currentColor"/></svg>