<svg width="24" height="24" viewBox="0 0 16 16" fill="currentColor" xmlns="http://www.w3.org/2000/svg"><path d="M10.417 3.27246H9.75V7.11328C9.9402 7.33876 10.1591 7.58081 10.4014 7.84668C10.6942 8.16804 11.0119 8.52127 11.3027 8.89258C11.8723 9.61992 12.4169 10.516 12.417 11.5322C12.417 13.2264 11.0428 14.6005 9.34863 14.6006H4.95117C3.25692 14.6006 1.88379 13.2265 1.88379 11.5322C1.88385 10.516 2.42746 9.61994 2.99707 8.89258C3.28791 8.52121 3.6065 8.16808 3.89941 7.84668C4.14155 7.581 4.35972 7.33862 4.5498 7.11328V3.27246H3.88379V2.07324H10.417V3.27246ZM5.46777 10.9336C4.79854 10.9157 3.85129 11.0558 3.25488 11.1611L3.12207 11.1836C3.09853 11.3012 3.08302 11.4169 3.08301 11.5322C3.08301 12.5637 3.91966 13.4004 4.95117 13.4004H9.34863C10.38 13.4003 11.2168 12.5637 11.2168 11.5322C11.2168 11.4758 11.2108 11.4193 11.2051 11.3623C10.6018 11.4675 9.58248 11.6204 8.80078 11.5996C8.04502 11.5795 7.47155 11.3972 6.96973 11.2393C6.46873 11.0816 6.03857 10.9489 5.46777 10.9336ZM5.75 7.54395L5.61816 7.70801C5.37162 8.01619 5.07354 8.33993 4.78613 8.65527C4.49228 8.9777 4.20138 9.30086 3.94141 9.63281C3.87986 9.71141 3.8205 9.78904 3.76465 9.86621C4.31373 9.78843 4.96234 9.71912 5.49902 9.7334C6.25477 9.75359 6.82825 9.93683 7.33008 10.0947C7.83123 10.2524 8.26192 10.3852 8.83301 10.4004C9.40627 10.4156 10.1828 10.3132 10.7686 10.2178C10.651 10.0274 10.5143 9.83194 10.3584 9.63281C10.0984 9.30086 9.80753 8.9777 9.51367 8.65527C9.2263 8.33996 8.92817 8.01615 8.68164 7.70801L8.5498 7.54395V3.27246H5.75V7.54395ZM13.3896 4.04883L14.7246 4.7168L13.3896 5.38379L12.7227 6.71875L12.0547 5.38379L10.7207 4.7168L12.0547 4.04883L12.7227 2.71387L13.3896 4.04883Z" fill="currentColor"/></svg>