<svg width="24" height="24" viewBox="0 0 16 16" fill="currentColor" xmlns="http://www.w3.org/2000/svg"><path d="M10.666 1.375C12.1158 1.375 13.291 2.55026 13.291 4V7.33301C13.291 7.67819 13.0112 7.95801 12.666 7.95801C12.3211 7.9577 12.041 7.678 12.041 7.33301V4C12.041 3.2406 11.4254 2.625 10.666 2.625H5.33301C4.57373 2.62513 3.95801 3.24069 3.95801 4V12C3.95801 12.7593 4.57372 13.3749 5.33301 13.375H7C7.34503 13.3752 7.625 13.6549 7.625 14C7.625 14.3451 7.34503 14.6248 7 14.625H5.33301C3.88338 14.6249 2.70801 13.4497 2.70801 12V4C2.70801 2.55034 3.88338 1.37513 5.33301 1.375H10.666ZM11.167 9.04199C12.0396 9.04209 12.8173 9.4428 13.3281 10.0674C14.4382 10.2267 15.292 11.1799 15.292 12.334C15.2916 13.5993 14.2654 14.625 13 14.625H11.167C9.62546 14.625 8.37544 13.3754 8.375 11.834C8.375 10.2922 9.62519 9.04199 11.167 9.04199ZM11.167 10.292C10.3156 10.292 9.625 10.9826 9.625 11.834C9.62544 12.685 10.3158 13.375 11.167 13.375H13C13.575 13.375 14.0416 12.9089 14.042 12.334C14.042 11.7587 13.5753 11.292 13 11.292H12.9922C12.7794 11.2919 12.5807 11.1831 12.4658 11.0039C12.191 10.5747 11.7123 10.2921 11.167 10.292ZM8 6.70898C8.34518 6.70898 8.625 6.98881 8.625 7.33398C8.62474 7.67894 8.34502 7.95898 8 7.95898H6C5.65498 7.95898 5.37526 7.67894 5.375 7.33398C5.375 6.98881 5.65482 6.70898 6 6.70898H8ZM10 4.04199C10.3452 4.04199 10.625 4.32181 10.625 4.66699C10.6247 5.01195 10.345 5.29199 10 5.29199H6C5.65498 5.29199 5.37526 5.01195 5.375 4.66699C5.375 4.32181 5.65482 4.04199 6 4.04199H10Z" fill="currentColor"/></svg>