<svg width="24" height="24" viewBox="0 0 16 16" fill="currentColor" xmlns="http://www.w3.org/2000/svg"><path d="M2.71582 3.13184C2.94557 3.13184 3.13184 2.94557 3.13184 2.71582C3.1318 2.4861 2.94555 2.2998 2.71582 2.2998C2.48618 2.29991 2.29984 2.48616 2.2998 2.71582C2.2998 2.94551 2.48616 3.13173 2.71582 3.13184ZM5.38281 3.13184C5.6125 3.13176 5.79883 2.94552 5.79883 2.71582C5.79879 2.48615 5.61248 2.29988 5.38281 2.2998C5.15308 2.2998 4.96683 2.4861 4.9668 2.71582C4.9668 2.94557 5.15306 3.13184 5.38281 3.13184ZM8.0498 3.13184C8.27934 3.13159 8.46582 2.94542 8.46582 2.71582C8.46578 2.48625 8.27932 2.30005 8.0498 2.2998C7.82008 2.2998 7.63382 2.4861 7.63379 2.71582C7.63379 2.94557 7.82005 3.13184 8.0498 3.13184ZM10.7158 3.13184C10.9456 3.13184 11.1318 2.94557 11.1318 2.71582C11.1318 2.4861 10.9455 2.2998 10.7158 2.2998C10.4862 2.29991 10.2998 2.48616 10.2998 2.71582C10.2998 2.94551 10.4862 3.13173 10.7158 3.13184ZM13.3828 3.13184C13.6125 3.13176 13.7988 2.94552 13.7988 2.71582C13.7988 2.48615 13.6125 2.29988 13.3828 2.2998C13.1531 2.2998 12.9668 2.4861 12.9668 2.71582C12.9668 2.94557 13.1531 3.13184 13.3828 3.13184ZM5.38281 6.1416C5.78707 6.14148 6.11523 5.81347 6.11523 5.40918C6.11511 5.005 5.787 4.67688 5.38281 4.67676C4.97853 4.67676 4.65051 5.00492 4.65039 5.40918C4.65039 5.81354 4.97845 6.1416 5.38281 6.1416ZM8.04883 6.1416C8.45319 6.1416 8.78125 5.81354 8.78125 5.40918C8.78113 5.00492 8.45311 4.67676 8.04883 4.67676C7.64474 4.67699 7.31751 5.00507 7.31738 5.40918C7.31738 5.8134 7.64466 6.14137 8.04883 6.1416ZM10.7158 6.1416C11.1202 6.1416 11.4482 5.81354 11.4482 5.40918C11.4481 5.00492 11.1201 4.67676 10.7158 4.67676C10.3116 4.67681 9.98352 5.00496 9.9834 5.40918C9.9834 5.81351 10.3115 6.14155 10.7158 6.1416ZM2.71582 5.8252C2.94557 5.8252 3.13184 5.63893 3.13184 5.40918C3.13167 5.17957 2.94547 4.99316 2.71582 4.99316C2.48626 4.99327 2.29997 5.17963 2.2998 5.40918C2.2998 5.63887 2.48616 5.82509 2.71582 5.8252ZM13.3828 5.8252C13.6125 5.82512 13.7988 5.63888 13.7988 5.40918C13.7987 5.17962 13.6124 4.99324 13.3828 4.99316C13.1532 4.99316 12.967 5.17957 12.9668 5.40918C12.9668 5.63893 13.1531 5.8252 13.3828 5.8252ZM8.04883 9.07422C8.60016 9.07422 9.04773 8.62747 9.04785 8.07617C9.04785 7.52477 8.60023 7.07715 8.04883 7.07715C7.49765 7.07741 7.05078 7.52493 7.05078 8.07617C7.0509 8.62732 7.49772 9.07396 8.04883 9.07422ZM5.38281 8.80762C5.78696 8.8075 6.11505 8.4803 6.11523 8.07617C6.11523 7.67188 5.78707 7.34387 5.38281 7.34375C4.97845 7.34375 4.65039 7.67181 4.65039 8.07617C4.65058 8.48037 4.97857 8.80762 5.38281 8.80762ZM10.7158 8.80859C11.1201 8.80859 11.4481 8.48045 11.4482 8.07617C11.4482 7.67181 11.1202 7.34375 10.7158 7.34375C10.3115 7.34381 9.9834 7.67185 9.9834 8.07617C9.9835 8.48042 10.3116 8.80854 10.7158 8.80859ZM2.71582 8.49219C2.94548 8.49219 3.1317 8.3058 3.13184 8.07617C3.13184 7.84642 2.94557 7.66016 2.71582 7.66016C2.48616 7.66026 2.2998 7.84648 2.2998 8.07617C2.29994 8.30574 2.48624 8.49209 2.71582 8.49219ZM13.3828 8.49219C13.6124 8.49211 13.7987 8.30576 13.7988 8.07617C13.7988 7.84647 13.6125 7.66023 13.3828 7.66016C13.1531 7.66016 12.9668 7.84642 12.9668 8.07617C12.9669 8.3058 13.1531 8.49219 13.3828 8.49219ZM5.38281 11.4746C5.78707 11.4745 6.11523 11.1465 6.11523 10.7422C6.11507 10.338 5.78697 10.0109 5.38281 10.0107C4.97855 10.0107 4.65056 10.338 4.65039 10.7422C4.65039 11.1465 4.97845 11.4746 5.38281 11.4746ZM8.04883 11.4746C8.45319 11.4746 8.78125 11.1465 8.78125 10.7422C8.78108 10.338 8.45309 10.0107 8.04883 10.0107C7.64477 10.011 7.31755 10.3381 7.31738 10.7422C7.31738 11.1464 7.64466 11.4744 8.04883 11.4746ZM10.7158 11.4746C11.1202 11.4746 11.4482 11.1465 11.4482 10.7422C11.4481 10.338 11.1201 10.0107 10.7158 10.0107C10.3116 10.0108 9.98356 10.338 9.9834 10.7422C9.9834 11.1465 10.3115 11.4746 10.7158 11.4746ZM2.71582 11.1582C2.94557 11.1582 3.13184 10.9719 3.13184 10.7422C3.13162 10.5126 2.94544 10.3262 2.71582 10.3262C2.48629 10.3263 2.30002 10.5127 2.2998 10.7422C2.2998 10.9719 2.48616 11.1581 2.71582 11.1582ZM13.3828 11.1582C13.6125 11.1581 13.7988 10.9719 13.7988 10.7422C13.7986 10.5127 13.6124 10.3262 13.3828 10.3262C13.1532 10.3262 12.967 10.5126 12.9668 10.7422C12.9668 10.9719 13.1531 11.1582 13.3828 11.1582ZM2.71582 13.8252C2.94557 13.8252 3.13184 13.6389 3.13184 13.4092C3.1318 13.1795 2.94555 12.9932 2.71582 12.9932C2.48618 12.9933 2.29984 13.1795 2.2998 13.4092C2.2998 13.6389 2.48616 13.8251 2.71582 13.8252ZM5.38281 13.8252C5.6125 13.8251 5.79883 13.6389 5.79883 13.4092C5.79879 13.1795 5.61248 12.9932 5.38281 12.9932C5.15308 12.9932 4.96683 13.1795 4.9668 13.4092C4.9668 13.6389 5.15306 13.8252 5.38281 13.8252ZM8.0498 13.8252C8.27934 13.8249 8.46582 13.6388 8.46582 13.4092C8.46578 13.1796 8.27932 12.9934 8.0498 12.9932C7.82008 12.9932 7.63382 13.1795 7.63379 13.4092C7.63379 13.6389 7.82005 13.8252 8.0498 13.8252ZM10.7158 13.8252C10.9456 13.8252 11.1318 13.6389 11.1318 13.4092C11.1318 13.1795 10.9455 12.9932 10.7158 12.9932C10.4862 12.9933 10.2998 13.1795 10.2998 13.4092C10.2998 13.6389 10.4862 13.8251 10.7158 13.8252ZM13.3828 13.8252C13.6125 13.8251 13.7988 13.6389 13.7988 13.4092C13.7988 13.1795 13.6125 12.9932 13.3828 12.9932C13.1531 12.9932 12.9668 13.1795 12.9668 13.4092C12.9668 13.6389 13.1531 13.8252 13.3828 13.8252Z" fill="currentColor"/></svg>