<svg width="24" height="24" viewBox="0 0 16 16" fill="currentColor" xmlns="http://www.w3.org/2000/svg"><path d="M2 13.8832C2.30376 13.8832 2.5498 13.6371 2.5498 13.3334V2.66638C2.54963 2.36277 2.30365 2.11658 2 2.11658C1.69635 2.11658 1.45037 2.36277 1.4502 2.66638V13.3334C1.4502 13.6371 1.69624 13.8832 2 13.8832ZM14 13.8832C14.3038 13.8832 14.5498 13.6371 14.5498 13.3334V2.66638C14.5496 2.36277 14.3036 2.11658 14 2.11658C13.6964 2.11658 13.4504 2.36277 13.4502 2.66638V13.3334C13.4502 13.6371 13.6962 13.8832 14 13.8832ZM10.2539 11.3588C10.5712 11.3588 10.7812 11.1731 10.7812 10.8802C10.7812 10.7582 10.7519 10.6263 10.6982 10.4652L8.86719 5.28455C8.70117 4.79138 8.46191 4.58142 8.01758 4.58142C7.57324 4.58142 7.33398 4.79626 7.16309 5.28455L5.33203 10.4652C5.26858 10.6507 5.23926 10.7777 5.23926 10.8949C5.23932 11.178 5.44926 11.3588 5.75684 11.3588C6.05466 11.3588 6.22071 11.2122 6.33789 10.8314L6.79688 9.45447H9.20898L9.66797 10.8314C9.78027 11.2073 9.95608 11.3588 10.2539 11.3588ZM7.06055 8.60486L7.97852 5.78748H8.03223L8.94531 8.60486H7.06055Z" fill="currentColor"/></svg>