<svg width="24" height="24" viewBox="0 0 16 16" fill="currentColor" xmlns="http://www.w3.org/2000/svg"><path d="M8 1.375C10.9224 1.37518 13.291 3.7446 13.291 6.66699C13.2909 8.59244 12.2625 10.2772 10.7275 11.2021C10.6451 11.2519 10.6252 11.3147 10.625 11.3438V12.667C10.6248 14.1165 9.44952 15.2918 8 15.292C6.55044 15.2919 5.37518 14.1165 5.375 12.667V11.3438C5.3748 11.3148 5.35479 11.2519 5.27246 11.2021C3.73756 10.2772 2.70812 8.5924 2.70801 6.66699C2.70801 3.74457 5.07761 1.37513 8 1.375ZM6.625 12.625V12.667C6.62518 13.4262 7.2408 14.0419 8 14.042C8.75916 14.0418 9.37482 13.4262 9.375 12.667V12.625H6.625ZM8 2.625C5.76796 2.62513 3.95801 4.43492 3.95801 6.66699C3.95812 8.13608 4.74202 9.42263 5.91699 10.1309C6.31509 10.3707 6.62483 10.8109 6.625 11.3438V11.375H9.375V11.3438C9.37517 10.811 9.68395 10.3708 10.082 10.1309C11.2572 9.42268 12.0409 8.13625 12.041 6.66699C12.041 4.43495 10.232 2.62518 8 2.625Z" fill="currentColor"/></svg>