<svg width="24" height="24" viewBox="0 0 16 16" fill="currentColor" xmlns="http://www.w3.org/2000/svg"><path d="M7.74414 1.375C8.94568 1.37524 9.86368 2.44751 9.67871 3.63477L9.40723 5.375H12.042C13.6327 5.375 14.8575 6.77843 14.6426 8.35449L14.1885 11.6875C14.0111 12.9881 12.9004 13.9578 11.5879 13.958H2.66699C1.95374 13.958 1.37518 13.3802 1.375 12.667V8C1.375 7.28661 1.95364 6.70801 2.66699 6.70801H4.28027L6.77441 1.7207L6.81934 1.64453C6.93489 1.47738 7.12614 1.37511 7.33301 1.375H7.74414ZM5.29199 7.48047V12.708H11.5879C12.2752 12.7078 12.8571 12.2005 12.9502 11.5195L13.4043 8.18555C13.5168 7.36012 12.8752 6.625 12.042 6.625H8.67773C8.49521 6.625 8.32186 6.54487 8.20312 6.40625C8.08438 6.26756 8.03145 6.08372 8.05957 5.90332L8.44336 3.44238C8.51029 3.01302 8.17864 2.62524 7.74414 2.625H7.71973L5.29199 7.48047ZM2.625 12.667C2.62518 12.6899 2.64408 12.708 2.66699 12.708H4.04199V7.95801H2.66699C2.64398 7.95801 2.625 7.97699 2.625 8V12.667Z" fill="currentColor"/></svg>