<svg width="24" height="24" viewBox="0 0 16 16" fill="currentColor" xmlns="http://www.w3.org/2000/svg"><path d="M13.0459 9.80469C13.391 9.80469 13.6707 10.0846 13.6709 10.4297V11.4111H14.6523C14.9974 11.4111 15.2772 11.6911 15.2773 12.0361C15.2773 12.3813 14.9975 12.6611 14.6523 12.6611H13.6709V13.6426C13.6708 13.9877 13.391 14.2676 13.0459 14.2676C12.701 14.2673 12.421 13.9875 12.4209 13.6426V12.6611H11.4395C11.0946 12.6608 10.8145 12.3811 10.8145 12.0361C10.8146 11.6913 11.0947 11.4115 11.4395 11.4111H12.4209V10.4297C12.4211 10.0848 12.7011 9.80498 13.0459 9.80469ZM3.55762 6.89062C3.80165 6.6467 4.19832 6.64674 4.44238 6.89062C4.68643 7.13467 4.68636 7.5313 4.44238 7.77539L3.52246 8.69434C2.98591 9.23125 2.9859 10.1018 3.52246 10.6387L5.36133 12.4766C5.89829 13.0135 6.76867 13.0136 7.30566 12.4766L8.22461 11.5576C8.46859 11.3138 8.86433 11.3139 9.1084 11.5576C9.35244 11.8017 9.35237 12.1973 9.1084 12.4414L8.18945 13.3604C7.16431 14.3855 5.50267 14.3855 4.47754 13.3604L2.63867 11.5225C1.61395 10.4974 1.61397 8.83562 2.63867 7.81055L3.55762 6.89062ZM9.55762 5.55762C9.8017 5.31357 10.1983 5.31355 10.4424 5.55762C10.6864 5.80169 10.6864 6.19831 10.4424 6.44238L6.44238 10.4424C6.19831 10.6865 5.8017 10.6864 5.55762 10.4424C5.31354 10.1983 5.31354 9.80169 5.55762 9.55762L9.55762 5.55762ZM7.81055 2.63867C8.83566 1.61392 10.4974 1.61383 11.5225 2.63867L13.3604 4.47754C14.3855 5.50267 14.3855 7.16431 13.3604 8.18945L12.4414 9.1084C12.1973 9.35231 11.8016 9.35243 11.5576 9.1084C11.3138 8.86436 11.3138 8.46864 11.5576 8.22461L12.4766 7.30566C13.0136 6.76867 13.0135 5.89829 12.4766 5.36133L10.6387 3.52246C10.1018 2.98577 9.23129 2.98587 8.69434 3.52246L7.77539 4.44238C7.5313 4.6863 7.13465 4.68641 6.89062 4.44238C6.64664 4.19835 6.64672 3.8017 6.89062 3.55762L7.81055 2.63867Z" fill="currentColor"/></svg>