<svg width="24" height="24" viewBox="0 0 16 16" fill="currentColor" xmlns="http://www.w3.org/2000/svg"><path d="M4.33969 6.11027C5.62511 4.82525 7.70861 4.82519 8.99399 6.11027L9.22348 6.33879V6.33976C9.7606 6.87715 10.0742 7.55549 10.162 8.25578C10.2049 8.59826 9.96148 8.9111 9.61899 8.95402C9.27658 8.99683 8.96465 8.75348 8.92173 8.41105C8.86723 7.9765 8.67278 7.55767 8.33872 7.22355L8.1102 6.99406C7.31298 6.19714 6.02074 6.1972 5.22348 6.99406L2.99399 9.22355C2.19715 10.0208 2.19709 11.3131 2.99399 12.1103L3.22348 12.3388C4.02081 13.1361 5.31289 13.1361 6.1102 12.3388L6.22446 12.2245C6.46858 11.9805 6.8652 11.9804 7.10923 12.2245C7.35325 12.4687 7.35238 12.8653 7.10825 13.1093L6.99399 13.2236C5.70864 14.5085 3.62508 14.5084 2.33969 13.2236L2.1102 12.9941C0.825021 11.7086 0.824818 9.62417 2.1102 8.33879L4.33969 6.11027Z" fill="currentColor"/><path d="M9.00565 3.44351C10.2911 2.15811 12.3754 2.1582 13.6609 3.44351L13.8885 3.67203H13.8894C15.1749 4.9575 15.1749 7.04182 13.8894 8.3273L11.6609 10.5568C10.3755 11.842 8.29105 11.8421 7.00565 10.5568L6.77713 10.3273C6.23988 9.78998 5.92643 9.1116 5.83866 8.41128C5.79576 8.06892 6.03836 7.75614 6.38065 7.71304C6.72315 7.67013 7.03598 7.91351 7.07889 8.25601C7.13336 8.69034 7.327 9.10953 7.66092 9.44351L7.88944 9.67203C8.68676 10.4693 9.97981 10.4693 10.7771 9.67203L13.0056 7.44351C13.8029 6.64622 13.8029 5.35411 13.0056 4.55679L12.7771 4.3273C11.9798 3.53014 10.6867 3.53005 9.88944 4.3273L9.77518 4.44156C9.53119 4.68565 9.13553 4.68645 8.89139 4.44253C8.64726 4.19851 8.64736 3.8019 8.89139 3.55777L9.00565 3.44351Z" fill="currentColor"/></svg>