<svg width="24" height="24" viewBox="0 0 16 16" fill="currentColor" xmlns="http://www.w3.org/2000/svg"><path d="M10 12.042C10.3452 12.042 10.625 12.3218 10.625 12.667C10.6248 13.012 10.3451 13.292 10 13.292H6C5.65494 13.292 5.3752 13.012 5.375 12.667C5.375 12.3218 5.65482 12.042 6 12.042H10ZM12 7.375C12.3452 7.375 12.625 7.65482 12.625 8C12.625 8.34518 12.3452 8.625 12 8.625H4C3.65482 8.625 3.375 8.34518 3.375 8C3.375 7.65482 3.65482 7.375 4 7.375H12ZM14 2.70801C14.3451 2.70801 14.6248 2.988 14.625 3.33301C14.625 3.67819 14.3452 3.95801 14 3.95801H2C1.65482 3.95801 1.375 3.67819 1.375 3.33301C1.3752 2.988 1.65494 2.70801 2 2.70801H14Z" fill="currentColor"/></svg>