<svg width="24" height="24" viewBox="0 0 16 16" fill="currentColor" xmlns="http://www.w3.org/2000/svg"><path d="M10 12.042C10.3452 12.042 10.625 12.3218 10.625 12.667C10.6248 13.012 10.3451 13.292 10 13.292H6C5.65494 13.292 5.3752 13.012 5.375 12.667C5.375 12.3218 5.65482 12.042 6 12.042H10ZM12 7.375C12.3452 7.375 12.625 7.65482 12.625 8C12.625 8.34518 12.3452 8.625 12 8.625H4C3.65482 8.625 3.375 8.34518 3.375 8C3.375 7.65482 3.65482 7.375 4 7.375H12ZM12.5 1.20801C12.8451 1.20801 13.1248 1.488 13.125 1.83301V2.70801H14C14.3451 2.70801 14.6248 2.988 14.625 3.33301C14.625 3.67819 14.3452 3.95801 14 3.95801H13.125V4.83301C13.125 5.17819 12.8452 5.45801 12.5 5.45801C12.1548 5.45801 11.875 5.17819 11.875 4.83301V3.95801H11C10.6548 3.95801 10.375 3.67819 10.375 3.33301C10.3752 2.988 10.6549 2.70801 11 2.70801H11.875V1.83301C11.8752 1.488 12.1549 1.20801 12.5 1.20801ZM8 2.70801C8.34506 2.70801 8.6248 2.988 8.625 3.33301C8.625 3.67819 8.34518 3.95801 8 3.95801H2C1.65482 3.95801 1.375 3.67819 1.375 3.33301C1.3752 2.988 1.65494 2.70801 2 2.70801H8Z" fill="currentColor"/></svg>