<svg width="24" height="25.5" viewBox="0 0 16 17" fill="none" xmlns="http://www.w3.org/2000/svg"><path d="M12.6624 8.24866C12.6622 5.67382 10.5743 3.58664 7.99939 3.58664C5.42468 3.58684 3.33757 5.67395 3.33738 8.24866C3.33738 10.8235 5.42456 12.9115 7.99939 12.9117V14.2417L7.69178 14.2339C4.62746 14.0788 2.17039 11.6215 2.01514 8.55725L2.00732 8.24866C2.00752 4.93942 4.69015 2.25679 7.99939 2.25659L8.30798 2.2644C11.4742 2.42482 13.9922 5.04267 13.9924 8.24866L13.9846 8.55725C13.8242 11.7235 11.2056 14.2417 7.99939 14.2417V12.9117C10.5744 12.9117 12.6624 10.8237 12.6624 8.24866Z" fill="#E0E2F2" fill-opacity=".12"/><path d="M4.56287 13.1587C5.33753 13.7011 6.22957 14.0525 7.16605 14.1841C8.10254 14.3157 9.05687 14.2238 9.95104 13.916C10.8452 13.6081 11.6538 13.0929 12.3107 12.4127C12.9677 11.7324 13.4543 10.9063 13.7308 10.0019C14.0073 9.09757 14.0658 8.1406 13.9016 7.20928C13.7374 6.27796 13.3551 5.39873 12.7859 4.64347C12.2168 3.88821 11.477 3.27837 10.627 2.86381C9.77704 2.44924 8.84101 2.24173 7.89547 2.25824L7.91869 3.58867C8.65428 3.57583 9.38246 3.73727 10.0437 4.05978C10.7049 4.38228 11.2805 4.85671 11.7232 5.44427C12.166 6.03182 12.4634 6.71582 12.5911 7.44035C12.7189 8.16487 12.6734 8.90934 12.4583 9.61289C12.2432 10.3164 11.8646 10.9591 11.3536 11.4883C10.8425 12.0175 10.2134 12.4183 9.51783 12.6578C8.82221 12.8973 8.07978 12.9688 7.35124 12.8664C6.6227 12.764 5.92874 12.4907 5.32609 12.0687L4.56287 13.1587Z" fill="#DADDE5"/></svg>