<svg width="24" height="24" viewBox="0 0 16 16" fill="currentColor" xmlns="http://www.w3.org/2000/svg"><path opacity=".32" d="M14 8C14 11.3137 11.3137 14 8 14C4.68629 14 2 11.3137 2 8C2 4.68629 4.68629 2 8 2C11.3137 2 14 4.68629 14 8ZM4.4 8C4.4 9.98823 6.01177 11.6 8 11.6C9.98823 11.6 11.6 9.98823 11.6 8C11.6 6.01177 9.98823 4.4 8 4.4C6.01177 4.4 4.4 6.01177 4.4 8Z" fill="currentColor"/><path fill-rule="evenodd" clip-rule="evenodd" d="M11.4238 9.24462C11.5993 8.69424 11.6446 8.10939 11.5557 7.53784C11.4668 6.96629 11.2463 6.42428 10.9124 5.95613C10.5786 5.48797 10.1406 5.10697 9.63433 4.84425C9.12818 4.58155 8.56813 4.44459 8 4.44459V2C8.68324 2 9.35944 2.11884 9.99998 2.34952C10.2472 2.43853 10.4891 2.5442 10.7239 2.66611C11.5676 3.10397 12.2975 3.73897 12.8541 4.51923C13.4106 5.29949 13.778 6.20285 13.9261 7.15543C13.9673 7.42065 13.9913 7.6876 13.998 7.95456C14.0154 8.64552 13.9177 9.33647 13.7071 9.99756L13.7063 10L11.4238 9.24462Z" fill="currentColor"/></svg>