<svg width="24" height="24" viewBox="0 0 16 16" fill="currentColor" xmlns="http://www.w3.org/2000/svg"><path d="M8 1.375C9.81776 1.37518 11.291 2.84916 11.291 4.66699V6.11914C12.4389 6.39965 13.291 7.43272 13.291 8.66699V12C13.2909 13.4497 12.1157 14.625 10.666 14.625H5.33301C3.88346 14.6249 2.70814 13.4496 2.70801 12V8.66699C2.70801 7.43288 3.56042 6.39982 4.70801 6.11914V4.66699C4.70801 2.84914 6.18217 1.37513 8 1.375ZM5.33301 7.29199C4.57372 7.29212 3.95801 7.90766 3.95801 8.66699V12C3.95814 12.7592 4.57381 13.3749 5.33301 13.375H10.666C11.4254 13.375 12.0409 12.7593 12.041 12V8.66699C12.041 7.90757 11.4254 7.29199 10.666 7.29199H5.33301ZM8 8.70801C8.3451 8.70801 8.62487 8.98794 8.625 9.33301V11.333C8.625 11.6782 8.34518 11.958 8 11.958C7.65482 11.958 7.375 11.6782 7.375 11.333V9.33301C7.37513 8.98794 7.6549 8.70801 8 8.70801ZM8 2.625C6.87253 2.62513 5.95801 3.53949 5.95801 4.66699V6.04199H10.041V4.66699C10.041 3.53952 9.12741 2.62518 8 2.625Z" fill="currentColor"/></svg>