<svg width="24" height="24" viewBox="0 0 16 16" fill="currentColor" xmlns="http://www.w3.org/2000/svg"><path d="M12.7087 11.3336V4.66663C12.7087 3.90734 12.093 3.2918 11.3337 3.29163H9.99976C9.65473 3.29145 9.37476 3.0117 9.37476 2.66663C9.37476 2.32156 9.65473 2.0418 9.99976 2.04163H11.3337C12.7834 2.0418 13.9587 3.217 13.9587 4.66663V11.3336C13.9586 12.7831 12.7833 13.9584 11.3337 13.9586H9.99976C9.65484 13.9584 9.37493 13.6785 9.37476 13.3336C9.37476 12.9885 9.65473 12.7088 9.99976 12.7086H11.3337C12.0929 12.7084 12.7086 12.0928 12.7087 11.3336ZM6.89136 5.22424C7.13534 4.98044 7.5311 4.98055 7.77515 5.22424L10.1091 7.55823C10.3528 7.80228 10.3529 8.19803 10.1091 8.44202L7.77515 10.775C7.53107 11.0191 7.13544 11.0191 6.89136 10.775C6.64744 10.5309 6.64733 10.1353 6.89136 9.89124L8.15796 8.62463H2.66675C2.32157 8.62463 2.04175 8.34481 2.04175 7.99963C2.04192 7.65461 2.32168 7.37463 2.66675 7.37463H8.15698L6.89136 6.10901C6.64728 5.86493 6.64728 5.46832 6.89136 5.22424Z" fill="currentColor"/></svg>