<svg width="24" height="24" viewBox="0 0 16 16" fill="currentColor" xmlns="http://www.w3.org/2000/svg"><path d="M2.04175 11.3336V4.66663C2.04175 3.21688 3.217 2.04163 4.66675 2.04163H7.49976C7.84493 2.04163 8.12476 2.32145 8.12476 2.66663C8.12476 3.0118 7.84493 3.29163 7.49976 3.29163H4.66675C3.90736 3.29163 3.29175 3.90724 3.29175 4.66663V11.3336C3.29192 12.0929 3.90746 12.7086 4.66675 12.7086H7.49976C7.84493 12.7086 8.12476 12.9884 8.12476 13.3336C8.12458 13.6786 7.84483 13.9586 7.49976 13.9586H4.66675C3.21712 13.9586 2.04192 12.7833 2.04175 11.3336ZM9.89136 4.55823C10.1354 4.31415 10.5311 4.31415 10.7751 4.55823L13.7751 7.55823C14.0192 7.80231 14.0192 8.19794 13.7751 8.44202L10.7751 11.442C10.5311 11.6859 10.1354 11.686 9.89136 11.442C9.64733 11.198 9.64744 10.8023 9.89136 10.5582L11.825 8.62463H5.83374C5.48856 8.62463 5.20874 8.34481 5.20874 7.99963C5.20892 7.65461 5.48867 7.37463 5.83374 7.37463H11.824L9.89136 5.44202C9.64733 5.19799 9.64744 4.80232 9.89136 4.55823Z" fill="currentColor"/></svg>