<svg width="24" height="24" viewBox="0 0 16 16" fill="currentColor" xmlns="http://www.w3.org/2000/svg"><path d="M2.125 5.33301C2.12518 4.25171 3.00171 3.37518 4.08301 3.375H12.417C13.4983 3.37518 14.3748 4.25171 14.375 5.33301V10.667C14.3748 11.7483 13.4983 12.6248 12.417 12.625H4.08301C3.00171 12.6248 2.12518 11.7483 2.125 10.667V5.33301ZM3.375 10.667C3.37518 11.0579 3.69206 11.3748 4.08301 11.375H12.417C12.8079 11.3748 13.1248 11.0579 13.125 10.667V5.33301C13.1248 4.94206 12.8079 4.62518 12.417 4.625H4.08301C3.69206 4.62518 3.37518 4.94206 3.375 5.33301L3.375 10.667ZM3.375 14.667C3.375 14.3218 3.65482 14.042 4 14.042H12.333C12.6782 14.042 12.958 14.3218 12.958 14.667C12.958 15.0122 12.6782 15.292 12.333 15.292H4C3.65482 15.292 3.375 15.0122 3.375 14.667ZM3.375 1.33301C3.375 0.98783 3.65482 0.708008 4 0.708008H12.333C12.6782 0.708008 12.958 0.98783 12.958 1.33301C12.958 1.67819 12.6782 1.95801 12.333 1.95801H4C3.65482 1.95801 3.375 1.67819 3.375 1.33301Z" fill="currentColor"/></svg>