<svg width="24" height="24" viewBox="0 0 16 16" fill="currentColor" xmlns="http://www.w3.org/2000/svg"><path d="M10.667 1.875C11.7483 1.87518 12.6248 2.75171 12.625 3.83301V12.167C12.6248 13.2483 11.7483 14.1248 10.667 14.125H5.33301C4.25171 14.1248 3.37518 13.2483 3.375 12.167V3.83301C3.37518 2.75171 4.25171 1.87518 5.33301 1.875H10.667ZM1.33301 3.375C1.67819 3.375 1.95801 3.65482 1.95801 4V12.333C1.95801 12.6782 1.67819 12.958 1.33301 12.958C0.987942 12.9579 0.708008 12.6781 0.708008 12.333V4C0.708008 3.6549 0.987942 3.37513 1.33301 3.375ZM14.667 3.375C15.0121 3.37513 15.292 3.6549 15.292 4V12.333C15.292 12.6781 15.0121 12.9579 14.667 12.958C14.3218 12.958 14.042 12.6782 14.042 12.333V4C14.042 3.65482 14.3218 3.375 14.667 3.375ZM5.33301 3.125C4.94206 3.12518 4.62518 3.44206 4.625 3.83301V12.167C4.62518 12.5579 4.94206 12.8748 5.33301 12.875H10.667C11.0579 12.8748 11.3748 12.5579 11.375 12.167V3.83301C11.3748 3.44206 11.0579 3.12518 10.667 3.125H5.33301Z" fill="currentColor"/></svg>