<svg width="24" height="24" viewBox="0 0 16 16" fill="currentColor" xmlns="http://www.w3.org/2000/svg"><path d="M11.1583 1.37402C11.4659 1.37402 11.7691 1.44816 12.0411 1.5918C12.3123 1.73503 12.5446 1.94229 12.7178 2.19531L14.543 4.83789L14.6524 5.01074C14.8891 5.42366 14.987 5.90394 14.9278 6.37988C14.8601 6.92374 14.5924 7.42302 14.1768 7.78027C14.0251 7.91071 13.857 8.01759 13.6788 8.10156V12.7363C13.6788 13.2375 13.4805 13.7188 13.126 14.0732C12.7716 14.4276 12.2903 14.626 11.7891 14.626H9.90437C9.90114 14.626 9.89784 14.627 9.8946 14.627C9.89134 14.627 9.88809 14.626 9.88484 14.626H6.1153C6.11207 14.626 6.10878 14.627 6.10554 14.627C6.10227 14.627 6.09903 14.626 6.09577 14.626H4.21003C3.70909 14.6258 3.22836 14.4274 2.87409 14.0732C2.51971 13.7188 2.32038 13.2375 2.32038 12.7363V8.09863C2.14254 8.01461 1.97474 7.90775 1.82331 7.77734C1.40839 7.41985 1.14056 6.9205 1.07331 6.37695C1.00608 5.83338 1.14372 5.28377 1.45905 4.83594L3.28034 2.19824C3.45322 1.94475 3.68597 1.73751 3.9571 1.59375C4.22969 1.44928 4.53336 1.37306 4.84187 1.37305L11.1583 1.37402ZM11.1573 7.67871C11.1366 7.67879 11.1166 7.68686 11.1016 7.70117L11.1007 7.70215C10.6905 8.09325 10.145 8.31152 9.5782 8.31152C9.01162 8.3114 8.46679 8.0931 8.05671 7.70215L8.05573 7.70117C8.04075 7.6869 8.02076 7.67873 8.00007 7.67871C7.9794 7.67873 7.95938 7.68694 7.94441 7.70117L7.94343 7.70215C7.5332 8.09343 6.9879 8.31152 6.42097 8.31152C5.85404 8.31149 5.30871 8.09347 4.89851 7.70215L4.89753 7.70117C4.88253 7.68683 4.86262 7.67873 4.84187 7.67871C4.82112 7.67873 4.8012 7.68684 4.7862 7.70117L4.78523 7.70215C4.45131 8.02069 4.02704 8.22255 3.57429 8.28711V12.7363C3.57429 12.9051 3.64147 13.0672 3.76081 13.1865C3.88003 13.3057 4.0415 13.3729 4.21003 13.373H5.47858V10.8418C5.47864 10.5082 5.61092 10.188 5.84675 9.95215C6.0826 9.7163 6.40287 9.58412 6.7364 9.58398H9.26277C9.59632 9.58398 9.91648 9.71639 10.1524 9.95215C10.3883 10.1881 10.5215 10.5082 10.5216 10.8418V13.373H11.7891C11.9579 13.373 12.12 13.3059 12.2393 13.1865C12.3587 13.0672 12.4259 12.9051 12.4259 12.7363V8.28906C11.9722 8.22401 11.5469 8.02098 11.213 7.70117C11.198 7.68689 11.178 7.67871 11.1573 7.67871ZM6.73347 10.8389C6.73267 10.8397 6.73156 10.8406 6.73151 10.8418V13.373H9.26765V10.8418C9.26759 10.8407 9.26741 10.8397 9.26667 10.8389C9.26574 10.838 9.26405 10.8369 9.26277 10.8369H6.7364C6.73528 10.837 6.73427 10.8381 6.73347 10.8389ZM4.84187 2.62695C4.73798 2.62697 4.63581 2.65252 4.54401 2.70117C4.45217 2.74988 4.37285 2.82019 4.31452 2.90625L4.31159 2.91016L2.48737 5.55273L2.48444 5.55762C2.34837 5.75088 2.28852 5.98808 2.31745 6.22266C2.34646 6.45716 2.46178 6.67282 2.64069 6.82715C2.81984 6.98149 3.05079 7.06361 3.28718 7.05762C3.52343 7.05151 3.749 6.95807 3.91999 6.79492C4.16819 6.55769 4.4985 6.4258 4.84187 6.42578C5.18525 6.4258 5.51554 6.55767 5.76374 6.79492L5.83308 6.85449C6.00011 6.98573 6.2068 7.05856 6.42097 7.05859C6.66576 7.05859 6.90107 6.96389 7.07819 6.79492C7.32638 6.55778 7.65679 6.4258 8.00007 6.42578C8.34313 6.42581 8.67284 6.55805 8.92097 6.79492L8.9903 6.85449C9.15726 6.98569 9.36412 7.05751 9.5782 7.05762C9.79247 7.05762 9.99997 6.98582 10.1671 6.85449L10.2354 6.79492C10.4836 6.55765 10.8139 6.42586 11.1573 6.42578C11.4958 6.42578 11.8215 6.55424 12.0684 6.78516C12.0722 6.78856 12.0765 6.79142 12.0801 6.79492C12.2509 6.95853 12.4766 7.05308 12.713 7.05957C12.7786 7.06134 12.8435 7.05445 12.9073 7.04297C12.9195 7.04006 12.9319 7.03831 12.9444 7.03613C13.0965 7.00248 13.2396 6.93303 13.3594 6.83008C13.5388 6.67593 13.6544 6.46023 13.6837 6.22559C13.7129 5.99077 13.6538 5.75308 13.5176 5.55957L13.5147 5.55469L11.6866 2.90723L11.6837 2.9043C11.6253 2.81882 11.5467 2.74854 11.4551 2.7002C11.3636 2.65196 11.2617 2.62694 11.1583 2.62695H4.84187Z" fill="currentColor"/></svg>