<svg width="24" height="24" viewBox="0 0 16 16" fill="none" xmlns="http://www.w3.org/2000/svg"><path fill-rule="evenodd" clip-rule="evenodd" d="M4.97294 9.14486C5.16439 8.95341 5.47483 8.95345 5.6663 9.14486C5.85777 9.33632 5.85777 9.64675 5.6663 9.83822L2.84404 12.6605C2.68997 12.8151 2.68986 13.0655 2.84404 13.2201C2.9985 13.3743 3.24885 13.3748 3.40361 13.221L6.22587 10.3988C6.41732 10.2073 6.72776 10.2074 6.91923 10.3988C7.1107 10.5902 7.1107 10.9007 6.91923 11.0921L4.09697 13.9144C3.55953 14.4509 2.68782 14.4504 2.15068 13.9134C1.61382 13.3761 1.61393 12.5045 2.15068 11.9671L4.97294 9.14486ZM4.69755 1.84798C5.29468 1.85016 6.01199 2.02672 6.58915 2.60384C7.05727 3.07211 7.2876 3.71016 7.34794 4.28255C7.38838 4.66662 7.35551 5.08795 7.21611 5.44075L10.6106 8.83431L9.91825 9.52669L5.93876 5.54818L6.23954 5.20345C6.31973 5.11116 6.4199 4.8182 6.37431 4.38509C6.33119 3.97622 6.16744 3.569 5.89579 3.2972C5.54874 2.95018 5.10848 2.829 4.69462 2.82747C4.63132 2.82726 4.56881 2.83037 4.50907 2.83529L4.85771 3.18392C5.36685 3.69306 5.36685 4.51853 4.85771 5.02767C4.34855 5.53658 3.52302 5.53673 3.01396 5.02767L2.6663 4.68001C2.66164 4.73867 2.65818 4.79955 2.65849 4.86165C2.66065 5.27457 2.78274 5.71536 3.13017 6.06282C3.40192 6.33443 3.81023 6.49722 4.21904 6.54036C4.65187 6.58587 4.94505 6.48576 5.0374 6.4056L5.38115 6.10579L9.36064 10.0843L8.66728 10.7777L5.27275 7.38314C4.92015 7.52212 4.49917 7.55539 4.11552 7.51497C3.54327 7.45454 2.90492 7.22415 2.43681 6.75618C1.86029 6.17963 1.68316 5.46395 1.67997 4.86751C1.67844 4.56933 1.71954 4.29099 1.78154 4.05892C1.84082 3.83729 1.92824 3.62129 2.0413 3.46712C2.2196 3.22511 2.57198 3.19884 2.78447 3.41146L3.70732 4.33431C3.83376 4.46083 4.03884 4.46079 4.16532 4.33431C4.29155 4.20784 4.2917 4.00268 4.16532 3.8763L3.2415 2.95247C3.02931 2.74029 3.05548 2.38904 3.29716 2.21126C3.4511 2.09827 3.66717 2.01012 3.88896 1.95052C4.121 1.88824 4.39925 1.84698 4.69755 1.84798ZM11.9397 2.17806C12.4001 1.718 13.1463 1.71798 13.6067 2.17806L13.886 2.45736C14.3467 2.91789 14.3467 3.66482 13.886 4.12532L12.845 5.16536C12.4987 5.51135 11.9373 5.51157 11.5911 5.16536L10.3304 6.42611C10.1392 6.6173 9.82918 6.6173 9.63798 6.42611C9.44685 6.2349 9.44681 5.9249 9.63798 5.73372L10.8987 4.47298C10.5526 4.12679 10.5527 3.56533 10.8987 3.21907L11.9397 2.17806ZM13.053 3.01107C12.8984 2.85674 12.648 2.85674 12.4935 3.01107L11.9388 3.56575C11.7842 3.72027 11.7843 3.97076 11.9388 4.12532C12.0932 4.27978 12.3437 4.28058 12.4983 4.1263L13.053 3.57161C13.2079 3.41692 13.2079 3.1657 13.053 3.01107Z" fill="#262626"/><path d="M14.7112 12.1281C14.7112 13.5485 13.5597 14.7 12.1393 14.7C10.7189 14.7 9.56738 13.5485 9.56738 12.1281C9.56738 10.7076 10.7189 9.55615 12.1393 9.55615C13.5597 9.55615 14.7112 10.7076 14.7112 12.1281Z" fill="#FEA900"/></svg>