<svg width="24" height="24" viewBox="0 0 16 16" fill="none" xmlns="http://www.w3.org/2000/svg"><path fill-rule="evenodd" clip-rule="evenodd" d="M4.97294 9.14486C5.16439 8.9534 5.47483 8.95343 5.6663 9.14486C5.85777 9.33632 5.85777 9.64675 5.6663 9.83822L2.84404 12.6605C2.68994 12.8151 2.68983 13.0655 2.84404 13.2201C2.99851 13.3743 3.24885 13.3749 3.40361 13.221L6.22587 10.3988C6.41732 10.2073 6.72776 10.2073 6.91923 10.3988C7.1107 10.5902 7.1107 10.9007 6.91923 11.0921L4.09697 13.9144C3.55953 14.4509 2.68783 14.4504 2.15068 13.9134C1.61379 13.3761 1.6139 12.5045 2.15068 11.9671L4.97294 9.14486ZM4.69755 1.84798C5.29469 1.85016 6.01199 2.0267 6.58915 2.60384C7.05727 3.07211 7.2876 3.71016 7.34794 4.28255C7.38838 4.66662 7.3555 5.08795 7.21611 5.44075L10.6106 8.83431L9.91825 9.52669L5.93876 5.54818L6.23954 5.20345C6.31973 5.11116 6.4199 4.8182 6.37431 4.38509C6.33119 3.97622 6.16744 3.569 5.89579 3.2972C5.54873 2.95016 5.10849 2.829 4.69462 2.82747C4.63131 2.82725 4.56882 2.83037 4.50907 2.83529L4.85771 3.18392C5.36685 3.69306 5.36685 4.51853 4.85771 5.02767C4.34855 5.5366 3.52303 5.53674 3.01396 5.02767L2.6663 4.68001C2.66164 4.73867 2.65818 4.79955 2.65849 4.86165C2.66065 5.27457 2.78273 5.71536 3.13017 6.06282C3.40193 6.33444 3.81022 6.49723 4.21904 6.54036C4.65191 6.58587 4.94507 6.48576 5.0374 6.4056L5.38115 6.10579L9.36064 10.0843L8.66728 10.7777L5.27275 7.38314C4.92014 7.52213 4.49918 7.5554 4.11552 7.51497C3.54326 7.45455 2.90493 7.22416 2.43681 6.75618C1.86028 6.17962 1.68316 5.46395 1.67997 4.86751C1.67844 4.56933 1.71953 4.291 1.78154 4.05892C1.84082 3.83728 1.92823 3.6213 2.0413 3.46712C2.2196 3.22511 2.57198 3.19884 2.78447 3.41146L3.70732 4.33431C3.83376 4.46083 4.03884 4.46079 4.16532 4.33431C4.29153 4.20783 4.2917 4.00267 4.16532 3.8763L3.2415 2.95247C3.02931 2.74028 3.05546 2.38903 3.29716 2.21126C3.45111 2.09826 3.66715 2.01012 3.88896 1.95052C4.12101 1.88824 4.39924 1.84698 4.69755 1.84798ZM11.9397 2.17806C12.4001 1.71801 13.1463 1.71797 13.6067 2.17806L13.886 2.45736C14.3466 2.9179 14.3467 3.66482 13.886 4.12532L12.845 5.16536C12.4987 5.51137 11.9373 5.51157 11.5911 5.16536L10.3304 6.42611C10.1392 6.6173 9.82918 6.6173 9.63798 6.42611C9.44683 6.23491 9.4468 5.92491 9.63798 5.73372L10.8987 4.47298C10.5526 4.12679 10.5527 3.56533 10.8987 3.21907L11.9397 2.17806ZM13.053 3.01107C12.8984 2.85675 12.648 2.85676 12.4935 3.01107L11.9388 3.56575C11.7842 3.72028 11.7843 3.97076 11.9388 4.12532C12.0932 4.27978 12.3437 4.2806 12.4983 4.1263L13.053 3.57161C13.2078 3.41692 13.2079 3.1657 13.053 3.01107Z" fill="#262626"/><path d="M13.0115 12.1431C13.0115 11.6697 12.6274 11.2858 12.1541 11.2856C11.6806 11.2856 11.2966 11.6696 11.2966 12.1431C11.2968 12.6164 11.6807 13.0005 12.1541 13.0005V14.7144L11.8904 14.7017C10.6801 14.5786 9.71843 13.616 9.59546 12.4058L9.58179 12.1431C9.58179 10.7226 10.7336 9.5708 12.1541 9.5708L12.4167 9.58447C13.7136 9.71624 14.7253 10.8115 14.7253 12.1431L14.7126 12.4058C14.5809 13.7025 13.4855 14.7142 12.1541 14.7144V13.0005C12.6273 13.0003 13.0113 12.6163 13.0115 12.1431Z" fill="#2F74FF" fill-opacity=".36"/><path d="M10.6786 14.2495C11.0111 14.4823 11.3939 14.6331 11.7958 14.6896C12.1978 14.7461 12.6073 14.7066 12.9911 14.5745C13.3749 14.4424 13.7219 14.2213 14.0039 13.9293C14.2858 13.6374 14.4946 13.2828 14.6133 12.8947C14.732 12.5065 14.7571 12.0958 14.6866 11.6961C14.6161 11.2964 14.4521 10.919 14.2078 10.5949C13.9635 10.2708 13.646 10.009 13.2812 9.83109C12.9164 9.65317 12.5147 9.56411 12.1089 9.57119L12.1388 11.2856C12.2741 11.2833 12.408 11.3129 12.5296 11.3723C12.6511 11.4316 12.757 11.5188 12.8384 11.6268C12.9198 11.7349 12.9745 11.8606 12.998 11.9939C13.0215 12.1271 13.0131 12.264 12.9735 12.3933C12.934 12.5227 12.8644 12.6409 12.7704 12.7382C12.6764 12.8355 12.5608 12.9092 12.4329 12.9532C12.305 12.9973 12.1684 13.0104 12.0345 12.9916C11.9005 12.9728 11.7729 12.9225 11.6621 12.8449L10.6786 14.2495Z" fill="#2F74FF"/></svg>