<svg width="24" height="24" viewBox="0 0 16 16" fill="none" xmlns="http://www.w3.org/2000/svg"><path fill-rule="evenodd" clip-rule="evenodd" d="M4.97294 9.14442C5.16433 8.95304 5.47482 8.9532 5.6663 9.14442C5.85777 9.33589 5.85777 9.64631 5.6663 9.83778L2.84404 12.66C2.68989 12.8146 2.68999 13.065 2.84404 13.2196C2.99854 13.374 3.24886 13.3745 3.40361 13.2206L6.22587 10.3983C6.41726 10.2069 6.72775 10.2071 6.91923 10.3983C7.1107 10.5898 7.1107 10.9002 6.91923 11.0917L4.09696 13.914C3.55954 14.4506 2.68787 14.45 2.15068 13.913C1.61395 13.3756 1.61385 12.504 2.15068 11.9667L4.97294 9.14442ZM4.69755 1.84754C5.29462 1.84973 6.01202 2.02643 6.58915 2.6034C7.05722 3.07162 7.28757 3.70977 7.34794 4.28211C7.3884 4.66621 7.35551 5.08748 7.21611 5.44032L10.6106 8.83387L9.91825 9.52626L5.93876 5.54774L6.23954 5.20301C6.31974 5.11072 6.41993 4.81783 6.37431 4.38465C6.33116 3.97585 6.16739 3.56852 5.89579 3.29676C5.54876 2.94988 5.10841 2.82857 4.69462 2.82704C4.63134 2.82682 4.56879 2.82994 4.50907 2.83485L4.85771 3.18348C5.36684 3.69262 5.36684 4.51809 4.85771 5.02723C4.34856 5.53629 3.52307 5.53634 3.01396 5.02723L2.6663 4.67958C2.66163 4.73824 2.65819 4.79911 2.65849 4.86122C2.66062 5.2741 2.78284 5.71491 3.13017 6.06239C3.40191 6.33397 3.81026 6.49677 4.21904 6.53993C4.65208 6.58545 4.9452 6.48534 5.03739 6.40516L5.38114 6.10536L9.36064 10.0839L8.66728 10.7772L5.27275 7.3827C4.92014 7.52171 4.49919 7.55496 4.11552 7.51454C3.54329 7.45409 2.9049 7.22369 2.43681 6.75575C1.86038 6.17917 1.68313 5.46348 1.67997 4.86708C1.67845 4.56886 1.71951 4.29056 1.78154 4.05848C1.84084 3.83679 1.92818 3.62085 2.0413 3.46669C2.2196 3.22467 2.57198 3.1984 2.78446 3.41102L3.70732 4.33485C3.83374 4.46105 4.03892 4.46112 4.16532 4.33485C4.29171 4.20846 4.29157 4.00331 4.16532 3.87684L3.2415 2.95204C3.02928 2.73982 3.05537 2.38857 3.29716 2.21083C3.45111 2.09782 3.66715 2.00968 3.88896 1.95008C4.12099 1.88781 4.39927 1.84655 4.69755 1.84754ZM11.9397 2.1786C12.4 1.71831 13.1462 1.71763 13.6067 2.17762L13.886 2.45692C14.3467 2.91741 14.3467 3.66433 13.886 4.12489L12.845 5.16493C12.4987 5.51105 11.9374 5.51118 11.5911 5.16493L10.3304 6.42665C10.1392 6.61768 9.82917 6.61757 9.63798 6.42665C9.44681 6.23548 9.44687 5.92547 9.63798 5.73426L10.8987 4.47254C10.5527 4.1263 10.5526 3.56482 10.8987 3.21864L11.9397 2.1786ZM13.053 3.01063C12.8983 2.85642 12.6479 2.85714 12.4934 3.01161L11.9388 3.56629C11.7844 3.72086 11.7843 3.97136 11.9388 4.12586C12.0933 4.28018 12.3438 4.28022 12.4983 4.12586L13.053 3.57118C13.2079 3.41648 13.2079 3.16526 13.053 3.01063Z" fill="#262626"/><path d="M14.7112 12.1281C14.7112 13.5485 13.5597 14.7 12.1393 14.7C10.7189 14.7 9.56738 13.5485 9.56738 12.1281C9.56738 10.7076 10.7189 9.55615 12.1393 9.55615C13.5597 9.55615 14.7112 10.7076 14.7112 12.1281Z" fill="#15A877"/></svg>