<svg width="24" height="24" viewBox="0 0 16 16" fill="currentColor" xmlns="http://www.w3.org/2000/svg"><path fill-rule="evenodd" clip-rule="evenodd" d="M4.77275 9.14486C4.96419 8.95341 5.27464 8.95345 5.46611 9.14486C5.65757 9.33632 5.65757 9.64675 5.46611 9.83822L2.64384 12.6605C2.48977 12.8151 2.48966 13.0655 2.64384 13.2201C2.7983 13.3743 3.04866 13.3748 3.20341 13.221L6.02568 10.3988C6.21712 10.2073 6.52756 10.2074 6.71904 10.3988C6.9105 10.5902 6.9105 10.9007 6.71904 11.0921L3.89677 13.9144C3.35933 14.4509 2.48763 14.4504 1.95048 13.9134C1.41362 13.3761 1.41373 12.5045 1.95048 11.9671L4.77275 9.14486ZM4.49736 1.84798C5.09448 1.85016 5.8118 2.02672 6.38896 2.60384C6.85708 3.07211 7.08741 3.71016 7.14775 4.28255C7.18819 4.66662 7.15531 5.08795 7.01591 5.44075L10.4104 8.83431L9.71806 9.52669L5.73857 5.54818L6.03935 5.20345C6.11954 5.11116 6.2197 4.8182 6.17411 4.38509C6.131 3.97622 5.96724 3.569 5.6956 3.2972C5.34854 2.95018 4.90829 2.829 4.49443 2.82747C4.43113 2.82726 4.36861 2.83037 4.30888 2.83529L4.65751 3.18392C5.16665 3.69306 5.16665 4.51853 4.65751 5.02767C4.14836 5.53658 3.32283 5.53673 2.81376 5.02767L2.46611 4.68001C2.46144 4.73867 2.45799 4.79955 2.45829 4.86165C2.46045 5.27457 2.58255 5.71536 2.92997 6.06282C3.20173 6.33443 3.61004 6.49722 4.01884 6.54036C4.45167 6.58587 4.74485 6.48576 4.8372 6.4056L5.18095 6.10579L9.16044 10.0843L8.46708 10.7777L5.07255 7.38314C4.71996 7.52212 4.29897 7.55539 3.91532 7.51497C3.34308 7.45454 2.70473 7.22415 2.23661 6.75618C1.6601 6.17963 1.48296 5.46395 1.47978 4.86751C1.47824 4.56933 1.51934 4.29099 1.58134 4.05892C1.64062 3.83729 1.72804 3.62129 1.84111 3.46712C2.0194 3.22511 2.37178 3.19884 2.58427 3.41146L3.50712 4.33431C3.63357 4.46083 3.83865 4.46079 3.96513 4.33431C4.09136 4.20784 4.09151 4.00268 3.96513 3.8763L3.0413 2.95247C2.82912 2.74029 2.85529 2.38904 3.09697 2.21126C3.25091 2.09827 3.46697 2.01012 3.68876 1.95052C3.92081 1.88824 4.19906 1.84698 4.49736 1.84798ZM11.7395 2.17806C12.1999 1.718 12.9461 1.71798 13.4065 2.17806L13.6858 2.45736C14.1465 2.91789 14.1465 3.66482 13.6858 4.12532L12.6448 5.16536C12.2985 5.51135 11.7371 5.51157 11.3909 5.16536L10.1302 6.42611C9.93897 6.6173 9.62898 6.6173 9.43779 6.42611C9.24665 6.2349 9.24661 5.9249 9.43779 5.73372L10.6985 4.47298C10.3524 4.12679 10.3525 3.56533 10.6985 3.21907L11.7395 2.17806ZM12.8528 3.01107C12.6982 2.85674 12.4478 2.85674 12.2933 3.01107L11.7386 3.56575C11.5841 3.72027 11.5841 3.97076 11.7386 4.12532C11.893 4.27978 12.1435 4.28058 12.2981 4.1263L12.8528 3.57161C13.0077 3.41692 13.0077 3.1657 12.8528 3.01107Z" fill="currentColor"/></svg>