<svg width="24" height="24" viewBox="0 0 16 16" fill="currentColor" xmlns="http://www.w3.org/2000/svg"><path d="M4.4976 1.84961C5.09475 1.85179 5.81203 2.0283 6.3892 2.60547C6.85732 3.07374 7.08765 3.71179 7.14799 4.28418C7.18845 4.66829 7.15557 5.08954 7.01616 5.44238L10.4244 8.84961C10.7772 8.71027 11.1985 8.67729 11.5826 8.71777C12.1549 8.77821 12.7931 9.00844 13.2613 9.47656C13.8384 10.0537 14.0149 10.771 14.0171 11.3682C14.0182 11.6664 13.9758 11.9437 13.9136 12.1758C13.854 12.3979 13.7661 12.6154 13.6529 12.7695C13.4751 13.011 13.1241 13.0375 12.9121 12.8254L11.9883 11.901C11.8618 11.7745 11.6568 11.7744 11.5303 11.9009C11.4038 12.0274 11.4038 12.2324 11.5303 12.3589L12.4544 13.283C12.6666 13.4952 12.6399 13.8467 12.398 14.0244C12.2437 14.1377 12.0272 14.2248 11.8052 14.2842C11.5732 14.3462 11.2958 14.3882 10.9976 14.3867C10.4011 14.3836 9.68566 14.2056 9.10893 13.6289C8.64068 13.1606 8.4105 12.5227 8.35014 11.9502C8.3097 11.5665 8.34298 11.1466 8.48198 10.7939L5.0728 7.38477C4.72014 7.52385 4.29933 7.55703 3.91557 7.5166C3.34326 7.45621 2.70504 7.22585 2.23686 6.75781C1.66024 6.18119 1.48318 5.46563 1.48002 4.86914C1.47848 4.57087 1.51955 4.29267 1.58158 4.06055C1.64089 3.8388 1.7282 3.62294 1.84135 3.46875C2.01965 3.22674 2.37158 3.20027 2.58407 3.41289L3.50691 4.33632C3.63336 4.46284 3.83844 4.46287 3.96492 4.33639C4.09138 4.20993 4.09138 4.00491 3.96492 3.87845L3.04082 2.95435C2.82856 2.74209 2.85529 2.39061 3.09721 2.21289C3.25122 2.09984 3.46711 2.01175 3.68901 1.95215C3.92112 1.88985 4.19919 1.84859 4.4976 1.84961ZM5.46635 9.14648C5.65782 9.33795 5.65782 9.64838 5.46635 9.83984L2.64408 12.6621C2.48977 12.8168 2.48977 13.067 2.64408 13.2217C2.79862 13.376 3.04892 13.3767 3.20366 13.2227L6.02592 10.4004C6.21739 10.2089 6.52781 10.2089 6.71928 10.4004C6.91075 10.5919 6.91075 10.9023 6.71928 11.0937L3.89701 13.916C3.35959 14.4527 2.48794 14.4521 1.95073 13.915C1.41373 13.3777 1.41373 12.5061 1.95073 11.9687L4.77299 9.14648C4.96446 8.95502 5.27488 8.95502 5.46635 9.14648ZM4.30912 2.83691L4.65776 3.18555C5.16689 3.69468 5.16689 4.52016 4.65776 5.0293C4.14862 5.53843 3.32314 5.53843 2.81401 5.0293L2.46635 4.68164C2.46168 4.74036 2.45823 4.80112 2.45854 4.86328C2.46067 5.27626 2.5827 5.71693 2.93022 6.06445C3.20203 6.33611 3.61019 6.49889 4.01908 6.54199C4.4523 6.58753 4.74537 6.48742 4.83744 6.40723L5.18119 6.10742L9.75932 10.6846L9.45854 11.0293C9.37835 11.1217 9.27814 11.4146 9.32377 11.8477C9.36693 12.2566 9.52957 12.6648 9.80131 12.9365C10.1488 13.284 10.5896 13.4041 11.0025 13.4062C11.0646 13.4066 11.1254 13.4041 11.1841 13.3994L10.8365 13.0518C10.3273 12.5426 10.3273 11.7171 10.8365 11.208C11.3456 10.6989 12.1711 10.6989 12.6802 11.208L13.0289 11.5566C13.0338 11.497 13.0378 11.4353 13.0376 11.3721C13.0361 10.9582 12.9149 10.517 12.5679 10.1699C12.2961 9.89813 11.888 9.7355 11.479 9.69238C11.0456 9.64675 10.7528 9.74693 10.6607 9.82715L10.3169 10.127L5.73881 5.5498L6.03959 5.20508C6.11979 5.11278 6.21998 4.8199 6.17436 4.38672C6.13124 3.97785 5.96749 3.57063 5.69584 3.29883C5.34878 2.95176 4.90855 2.83063 4.49467 2.8291C4.43127 2.82887 4.36895 2.83199 4.30912 2.83691ZM13.6857 2.459C14.1464 2.91953 14.1465 3.66643 13.6857 4.12698L12.6452 5.16711C12.2988 5.51332 11.7374 5.51327 11.3912 5.16699L10.1299 6.42822C9.93873 6.61942 9.62874 6.61942 9.43754 6.42822C9.24635 6.23703 9.24635 5.92704 9.43754 5.73584L10.6988 4.47461C10.3525 4.12835 10.3525 3.56696 10.6988 3.2207L11.7393 2.1802C12.1997 1.71982 12.946 1.71973 13.4065 2.17999L13.6857 2.459ZM11.7384 3.56781C11.5838 3.72236 11.5838 3.97295 11.7384 4.1275C11.8929 4.28201 12.1434 4.28206 12.298 4.12763L12.8529 3.57318C13.0077 3.41848 13.0077 3.16751 12.8528 3.01288C12.6981 2.85849 12.4476 2.8586 12.2931 3.01312L11.7384 3.56781Z" fill="currentColor"/></svg>