<svg width="24" height="24" viewBox="0 0 16 16" fill="currentColor" xmlns="http://www.w3.org/2000/svg"><path d="M8.43052 10.9006C9.93889 7.88044 14.012 7.8805 15.5204 10.9006C15.6044 11.0692 15.6046 11.2682 15.5204 11.4367C14.012 14.4571 9.93886 14.4571 8.43052 11.4367C8.34628 11.2682 8.34653 11.0692 8.43052 10.9006ZM14.1841 11.3349C14.2223 11.2815 14.2414 11.2548 14.2506 11.2183C14.258 11.1894 14.258 11.1489 14.2506 11.12C14.2414 11.0835 14.2223 11.0568 14.1841 11.0034C13.072 9.44756 10.8776 9.44731 9.76571 11.0034C9.72755 11.0568 9.70847 11.0835 9.69923 11.12C9.6919 11.1489 9.69191 11.1894 9.69923 11.2183C9.70849 11.2548 9.72757 11.2815 9.76573 11.3349C10.8776 12.8905 13.072 12.8902 14.1841 11.3349ZM11.9754 10.2707C12.4713 10.2707 12.8729 10.6733 12.8729 11.1691C12.8728 11.6649 12.4712 12.0666 11.9754 12.0666C11.4797 12.0666 11.0781 11.6648 11.078 11.1691C11.078 10.6733 11.4796 10.2707 11.9754 10.2707Z" fill="currentColor"/><path d="M13.4102 7.45215V4.375C13.4102 4.16789 13.2423 4 13.0352 4H8.63965V8.34863C8.63965 8.69368 8.35965 8.97342 8.01465 8.97363C7.66947 8.97363 7.38965 8.69381 7.38965 8.34863V4H3.03125C2.82414 4 2.65625 4.16789 2.65625 4.375V11.7188C2.65625 11.9259 2.82414 12.0938 3.03125 12.0938H7.27637C7.62155 12.0938 7.90137 12.3736 7.90137 12.7188C7.90137 13.0639 7.62155 13.3438 7.27637 13.3438H3.03125C2.13379 13.3438 1.40625 12.6162 1.40625 11.7188V4.375C1.40625 3.47754 2.13379 2.75 3.03125 2.75H13.0352C13.9326 2.75 14.6602 3.47754 14.6602 4.375V7.45215C14.6601 7.79726 14.3803 8.07715 14.0352 8.07715C13.6902 8.07692 13.4102 7.79712 13.4102 7.45215Z" fill="currentColor"/></svg>