<svg width="24" height="24" viewBox="0 0 16 16" fill="currentColor" xmlns="http://www.w3.org/2000/svg"><path d="M6.47656 1.21875C6.05151 1.26116 5.65136 1.44919 5.34668 1.75391L2.9873 4.11426C2.63893 4.46259 2.4425 4.93508 2.44238 5.42773V12.9316C2.44238 13.4244 2.63894 13.8977 2.9873 14.2461C3.33565 14.5942 3.80828 14.79 4.30078 14.79H11.6982C12.1909 14.79 12.6643 14.5944 13.0127 14.2461C13.3611 13.8977 13.5566 13.4244 13.5566 12.9316V3.06836C13.5566 2.57559 13.3611 2.10235 13.0127 1.75391C12.6643 1.40554 12.191 1.20996 11.6982 1.20996H6.66016L6.47656 1.21875ZM11.6982 2.45996C11.8594 2.45996 12.0149 2.52375 12.1289 2.6377C12.2429 2.75172 12.3066 2.90711 12.3066 3.06836V12.9316C12.3066 13.0929 12.2429 13.2483 12.1289 13.3623C12.0149 13.4762 11.8594 13.54 11.6982 13.54H4.30078C4.13981 13.54 3.98502 13.476 3.87109 13.3623C3.75715 13.2483 3.69238 13.0928 3.69238 12.9316V5.42773C3.6925 5.26667 3.75721 5.11196 3.87109 4.99805L6.23047 2.6377C6.34441 2.52372 6.49998 2.46006 6.66113 2.45996H7.27441C7.25995 2.51272 7.25 2.56765 7.25 2.625V4.875C7.25 5.22018 7.52982 5.5 7.875 5.5C8.22018 5.5 8.5 5.22018 8.5 4.875V2.625C8.5 2.56765 8.49005 2.51272 8.47559 2.45996H9.77441C9.75995 2.51272 9.75 2.56765 9.75 2.625V4.875C9.75 5.22018 10.0298 5.5 10.375 5.5C10.7202 5.5 11 5.22018 11 4.875V2.625C11 2.56765 10.9901 2.51272 10.9756 2.45996H11.6982Z" fill="currentColor"/></svg>