<svg width="24" height="24" viewBox="0 0 16 16" fill="currentColor" xmlns="http://www.w3.org/2000/svg"><path d="M7.33398 1.375C10.0246 1.37528 12.245 3.38315 12.5811 5.98242C12.6251 6.32355 12.7112 6.60636 12.8564 6.82422L13.6787 8.05762C13.9606 8.48065 13.8629 9.05024 13.4561 9.35547L12.9082 9.7666C12.7301 9.90031 12.6251 10.1103 12.625 10.333V10.667C12.6248 11.7483 11.7484 12.6249 10.667 12.625H10C9.97713 12.6252 9.95898 12.6441 9.95898 12.667V14C9.95898 14.345 9.6789 14.6247 9.33398 14.625C8.98881 14.625 8.70898 14.3452 8.70898 14V12.667C8.70898 11.9537 9.28677 11.3752 10 11.375H10.667C11.058 11.3749 11.3748 11.058 11.375 10.667V10.333C11.3751 9.71685 11.6653 9.13638 12.1582 8.7666L12.4854 8.52051L11.8164 7.51758C11.5969 7.18829 11.4713 6.82817 11.3984 6.48242L11.3418 6.14258C11.0853 4.15843 9.38808 2.62528 7.33398 2.625C5.10184 2.625 3.29199 4.43484 3.29199 6.66699C3.29207 7.71586 3.69136 8.66995 4.34668 9.38867C4.8381 9.92771 5.29189 10.6658 5.29199 11.54V14C5.29199 14.3451 5.01206 14.6249 4.66699 14.625C4.32181 14.625 4.04199 14.3452 4.04199 14V11.54C4.04189 11.1071 3.81197 10.6584 3.42285 10.2314C2.56584 9.29151 2.04207 8.03947 2.04199 6.66699C2.04199 3.74449 4.41148 1.375 7.33398 1.375ZM7.33301 4.33301C7.47353 4.33301 7.59987 4.4197 7.65039 4.55078L7.9375 5.29688C8.07298 5.64894 8.3511 5.92708 8.70312 6.0625L9.44922 6.34961C9.58022 6.40016 9.66699 6.52654 9.66699 6.66699C9.66683 6.80729 9.58007 6.93288 9.44922 6.9834L8.70312 7.27051C8.35114 7.40594 8.073 7.68418 7.9375 8.03613L7.65039 8.78223C7.5999 8.91337 7.47357 9 7.33301 9C7.19261 8.99987 7.06708 8.91321 7.0166 8.78223L6.72949 8.03613C6.59407 7.68421 6.31582 7.40599 5.96387 7.27051L5.21777 6.9834C5.08674 6.93296 5.00017 6.8074 5 6.66699C5 6.52643 5.08659 6.40008 5.21777 6.34961L5.96387 6.0625C6.31585 5.92702 6.59409 5.64889 6.72949 5.29688L7.0166 4.55078C7.06711 4.41986 7.19266 4.33314 7.33301 4.33301Z" fill="currentColor"/></svg>