<svg width="24" height="24" viewBox="0 0 16 16" fill="currentColor" xmlns="http://www.w3.org/2000/svg"><path d="M1.90015 1.90039V5.16699H3.10034V3.09961H5.56714V5.16699H6.76636V1.90039H1.90015Z" fill="currentColor"/><path d="M1.90015 14.0996V10.833H3.10034V12.9004H5.56714V10.833H6.76636V14.0996H1.90015Z" fill="currentColor"/><path d="M9.2334 1.90039V5.16699H10.4336V3.09961H12.9004V5.16699H14.0996V1.90039H9.2334Z" fill="currentColor"/><path d="M9.2334 14.0996V10.833H10.4336V12.9004H12.9004V10.833H14.0996V14.0996H9.2334Z" fill="currentColor"/><path d="M4.31836 6.5L5.65234 7.83301L4.74219 8.74219L4.31836 9.16699L5.16699 10.0156L5.59082 9.59082L7.34863 7.83301L6.92383 7.40918L5.59082 6.07617L5.16699 5.65137L4.31836 6.5Z" fill="currentColor"/><path d="M1.90039 7.23364L1.90039 8.43286L6.09961 8.43286L6.09961 7.23364L1.90039 7.23364Z" fill="currentColor"/><path d="M11.6816 6.5L10.3477 7.83301L11.2578 8.74219L11.6816 9.16699L10.833 10.0156L10.4092 9.59082L8.65137 7.83301L9.07617 7.40918L10.4092 6.07617L10.833 5.65137L11.6816 6.5Z" fill="currentColor"/><path d="M14.0996 7.23364L14.0996 8.43286L9.90039 8.43286L9.90039 7.23364L14.0996 7.23364Z" fill="currentColor"/></svg>