<svg width="24" height="24" viewBox="0 0 16 16" fill="currentColor" xmlns="http://www.w3.org/2000/svg"><path d="M7.37588 14V13.2598C5.00179 13.0269 3.56866 11.4947 2.81924 10.3398C2.63161 10.0503 2.71437 9.66342 3.00381 9.47559C3.29332 9.28796 3.68023 9.37072 3.86806 9.66016C4.56507 10.7341 5.84777 12.042 8.00088 12.042C10.154 12.0419 11.4367 10.7341 12.1337 9.66016C12.3216 9.37067 12.7084 9.28785 12.9979 9.47559C13.2874 9.6634 13.3701 10.0503 13.1825 10.3398C12.4331 11.4946 10.9998 13.0268 8.62588 13.2598V14C8.62588 14.3451 8.34601 14.6249 8.00088 14.625C7.6557 14.625 7.37588 14.3452 7.37588 14ZM10.0429 4.66699C10.0429 3.53945 9.12839 2.62506 8.00088 2.625C6.87329 2.625 5.95888 3.53941 5.95888 4.66699V7.33301C5.95888 8.46057 6.87329 9.375 8.00088 9.375C9.12838 9.37494 10.0429 8.46053 10.0429 7.33301V4.66699ZM11.2929 7.33301C11.2929 9.15088 9.81874 10.6249 8.00088 10.625C6.18293 10.625 4.70888 9.15092 4.70888 7.33301V4.66699C4.70888 2.84905 6.18293 1.375 8.00088 1.375C9.81874 1.37506 11.2929 2.84909 11.2929 4.66699V7.33301Z" fill="currentColor"/></svg>