<svg width="24" height="24" viewBox="0 0 16 16" fill="none" xmlns="http://www.w3.org/2000/svg"><path d="M5.55607 1.09074H9.89574L5.39074 14.4386C5.34444 14.5757 5.25629 14.6949 5.1387 14.7794C5.02111 14.8638 4.88 14.9092 4.73524 14.9092H1.35791C1.24822 14.9093 1.14011 14.8832 1.04252 14.8331C0.944931 14.783 0.860661 14.7105 0.796685 14.6214C0.732709 14.5323 0.690865 14.4292 0.674616 14.3208C0.658366 14.2123 0.668178 14.1015 0.703239 13.9976L4.90041 1.56141C4.94669 1.42419 5.03485 1.30495 5.15248 1.22049C5.2701 1.13602 5.41126 1.09075 5.55607 1.09074Z" fill="url(#svg_2b03a3ab02__paint0_linear_3805_72058)"/><path d="M11.8626 10.0435H4.98096C4.91698 10.0434 4.85447 10.0626 4.80156 10.0986C4.74864 10.1345 4.70779 10.1856 4.68432 10.2451C4.66085 10.3046 4.65584 10.3698 4.66996 10.4322C4.68408 10.4946 4.71666 10.5513 4.76346 10.595L9.18546 14.7223C9.31421 14.8424 9.48373 14.9092 9.6598 14.9091H13.5565L11.8626 10.0435Z" fill="#D1D3DB"/><path d="M5.55617 1.09083C5.40978 1.09026 5.26704 1.13652 5.14881 1.22285C5.03058 1.30918 4.94305 1.43105 4.899 1.57066L0.7085 13.9863C0.67108 14.0906 0.659332 14.2024 0.67425 14.3122C0.689168 14.422 0.730313 14.5266 0.794205 14.6172C0.858096 14.7077 0.942855 14.7815 1.04131 14.8324C1.13976 14.8832 1.24902 14.9096 1.35983 14.9093H4.82433C4.95337 14.8863 5.07397 14.8294 5.17382 14.7445C5.27367 14.6595 5.34919 14.5496 5.39267 14.426L6.22833 11.9632L9.21333 14.7473C9.33842 14.8508 9.49534 14.908 9.65767 14.9093H13.5398L11.8372 10.0437L6.87367 10.0448L9.9115 1.09083H5.55617Z" fill="url(#svg_2b03a3ab02__paint1_linear_3805_72058)"/><path d="M11.0996 1.56082C11.0533 1.42383 10.9653 1.30478 10.8479 1.22047C10.7304 1.13615 10.5895 1.0908 10.4449 1.09082H5.6084C5.75297 1.09083 5.8939 1.13618 6.01135 1.2205C6.12879 1.30481 6.21683 1.42384 6.26307 1.56082L10.4604 13.9975C10.4955 14.1014 10.5053 14.2122 10.4891 14.3207C10.4729 14.4292 10.431 14.5323 10.367 14.6214C10.3031 14.7106 10.2188 14.7832 10.1212 14.8333C10.0236 14.8834 9.91544 14.9095 9.80573 14.9095H14.6424C14.7521 14.9095 14.8602 14.8833 14.9578 14.8332C15.0554 14.7831 15.1396 14.7105 15.2036 14.6214C15.2675 14.5323 15.3094 14.4292 15.3256 14.3207C15.3418 14.2122 15.332 14.1014 15.2969 13.9975L11.0996 1.56082Z" fill="url(#svg_2b03a3ab02__paint2_linear_3805_72058)"/><defs><linearGradient id="svg_2b03a3ab02__paint0_linear_3805_72058" x1="7.138" y1="2.115" x2="2.631" y2="15.429" gradientUnits="userSpaceOnUse"><stop stop-color="#B1B2B7"/><stop offset="1" stop-color="#B1B2B7"/></linearGradient><linearGradient id="svg_2b03a3ab02__paint1_linear_3805_72058" x1="8.546" y1="8.32" x2="7.503" y2="8.672" gradientUnits="userSpaceOnUse"><stop stop-color="#B1B2B7"/><stop offset=".071" stop-color="#B1B2B7"/><stop offset=".321" stop-color="#B1B2B7" stop-opacity=".1"/><stop offset=".623" stop-color="#B1B2B7" stop-opacity=".05"/><stop offset="1" stop-color="#B1B2B7" stop-opacity="0"/></linearGradient><linearGradient id="svg_2b03a3ab02__paint2_linear_3805_72058" x1="7.973" y1="1.726" x2="12.92" y2="14.907" gradientUnits="userSpaceOnUse"><stop stop-color="#E3E4E8"/><stop offset="1" stop-color="#E3E4E8"/></linearGradient></defs></svg>