<svg width="24" height="24" viewBox="0 0 16 16" fill="currentColor" xmlns="http://www.w3.org/2000/svg"><path d="M7.37495 14V13.2597C5.00094 13.0268 3.56772 11.4946 2.81831 10.3398C2.63073 10.0503 2.71346 9.66336 3.00288 9.47554C3.29241 9.28784 3.67929 9.37064 3.86714 9.66011C4.56413 10.734 5.84682 12.0419 7.99995 12.0419C9.00725 12.0419 9.81611 11.7567 10.4648 11.3486L9.41792 10.3017C8.98793 10.5074 8.50747 10.625 7.99995 10.625C6.18202 10.625 4.70796 9.15087 4.70796 7.33296V5.59175L1.55757 2.44234C1.31349 2.19826 1.31349 1.80165 1.55757 1.55757C1.80165 1.31349 2.19826 1.31349 2.44234 1.55757L14.4423 13.5576C14.6864 13.8016 14.6864 14.1983 14.4423 14.4423C14.1983 14.6864 13.8016 14.6864 13.5576 14.4423L11.3662 12.25C10.6374 12.7583 9.73084 13.1517 8.62495 13.2607V14C8.62495 14.3451 8.34513 14.625 7.99995 14.625C7.65478 14.625 7.37495 14.3451 7.37495 14ZM10.0419 6.89546V4.66694C10.0419 3.53936 9.12757 2.62495 7.99995 2.62495C7.52117 2.62495 7.08236 2.78899 6.73433 3.06441C6.46381 3.2786 6.07072 3.2332 5.8564 2.96284C5.64214 2.69225 5.6874 2.2992 5.95796 2.08491C6.51898 1.64071 7.22934 1.37495 7.99995 1.37495C9.81794 1.37495 11.2919 2.84901 11.2919 4.66694V6.89546C11.2919 7.24053 11.012 7.52029 10.6669 7.52046C10.3218 7.52046 10.0419 7.24064 10.0419 6.89546ZM5.95796 7.33296C5.95796 8.46052 6.87238 9.37495 7.99995 9.37495C8.15211 9.37495 8.29998 9.35754 8.44234 9.32612L5.95796 6.84175V7.33296Z" fill="currentColor"/></svg>