<svg width="24" height="24" viewBox="0 0 16 16" fill="none" xmlns="http://www.w3.org/2000/svg"><path d="M5.55656 1.0905H9.89623L5.39123 14.4383C5.34493 14.5755 5.25678 14.6947 5.13919 14.7791C5.0216 14.8635 4.88049 14.909 4.73573 14.909H1.35839C1.24871 14.909 1.1406 14.8829 1.04301 14.8328C0.945419 14.7828 0.86115 14.7102 0.797174 14.6211C0.733197 14.532 0.691354 14.429 0.675104 14.3205C0.658855 14.212 0.668666 14.1013 0.703728 13.9973L4.90089 1.56117C4.94718 1.42395 5.03534 1.30471 5.15297 1.22024C5.27059 1.13578 5.41175 1.09051 5.55656 1.0905Z" fill="url(#svg_29f45d158b__paint0_linear_2536_30504)"/><path d="M11.8626 10.0435H4.98096C4.91698 10.0434 4.85447 10.0626 4.80156 10.0986C4.74864 10.1345 4.70779 10.1856 4.68432 10.2451C4.66085 10.3046 4.65584 10.3698 4.66996 10.4322C4.68408 10.4946 4.71666 10.5513 4.76346 10.595L9.18546 14.7223C9.31421 14.8424 9.48373 14.9092 9.6598 14.9091H13.5565L11.8626 10.0435Z" fill="#0078D4"/><path d="M5.55617 1.09083C5.40978 1.09026 5.26704 1.13652 5.14881 1.22285C5.03058 1.30918 4.94305 1.43105 4.899 1.57066L0.7085 13.9863C0.67108 14.0906 0.659332 14.2024 0.67425 14.3122C0.689168 14.422 0.730313 14.5266 0.794205 14.6172C0.858096 14.7077 0.942855 14.7815 1.04131 14.8324C1.13976 14.8832 1.24902 14.9096 1.35983 14.9093H4.82433C4.95337 14.8863 5.07397 14.8294 5.17382 14.7445C5.27367 14.6595 5.34919 14.5496 5.39267 14.426L6.22833 11.9632L9.21333 14.7473C9.33842 14.8508 9.49534 14.908 9.65767 14.9093H13.5398L11.8372 10.0437L6.87367 10.0448L9.9115 1.09083H5.55617Z" fill="url(#svg_29f45d158b__paint1_linear_2536_30504)"/><path d="M11.0991 1.56082C11.0529 1.42383 10.9648 1.30478 10.8474 1.22047C10.7299 1.13615 10.589 1.0908 10.4444 1.09082H5.60791C5.75248 1.09083 5.89341 1.13618 6.01086 1.2205C6.1283 1.30481 6.21634 1.42384 6.26258 1.56082L10.4599 13.9975C10.495 14.1014 10.5048 14.2122 10.4886 14.3207C10.4724 14.4292 10.4305 14.5323 10.3666 14.6214C10.3026 14.7106 10.2183 14.7832 10.1207 14.8333C10.0231 14.8834 9.91495 14.9095 9.80524 14.9095H14.6419C14.7516 14.9095 14.8597 14.8833 14.9573 14.8332C15.0549 14.7831 15.1391 14.7105 15.2031 14.6214C15.2671 14.5323 15.3089 14.4292 15.3251 14.3207C15.3413 14.2122 15.3315 14.1014 15.2964 13.9975L11.0991 1.56082Z" fill="url(#svg_29f45d158b__paint2_linear_2536_30504)"/><defs><linearGradient id="svg_29f45d158b__paint0_linear_2536_30504" x1="7.138" y1="2.115" x2="2.631" y2="15.429" gradientUnits="userSpaceOnUse"><stop stop-color="#114A8B"/><stop offset="1" stop-color="#0669BC"/></linearGradient><linearGradient id="svg_29f45d158b__paint1_linear_2536_30504" x1="8.546" y1="8.32" x2="7.503" y2="8.672" gradientUnits="userSpaceOnUse"><stop stop-opacity=".3"/><stop offset=".071" stop-opacity=".2"/><stop offset=".321" stop-opacity=".1"/><stop offset=".623" stop-opacity=".05"/><stop offset="1" stop-opacity="0"/></linearGradient><linearGradient id="svg_29f45d158b__paint2_linear_2536_30504" x1="7.972" y1="1.726" x2="12.92" y2="14.907" gradientUnits="userSpaceOnUse"><stop stop-color="#3CCBF4"/><stop offset="1" stop-color="#2892DF"/></linearGradient></defs></svg>