<svg xmlns="http://www.w3.org/2000/svg" width="24" height="24" fill="none" viewBox="0 0 16 16"><g clip-path="url(#svg_e1b0dd23c2__a)"><path fill="#d4367a" d="M6.485 7.435v5.152c-.348 1.744-2.663 1.294-2.673.03-.01-1.59 0-3.17 0-4.747V6.04c0-.229-.05-.41-.25-.553-.39-.292-.858.051-.868.472-.022.565-.01 1.118-.022 1.675 0 .44 0 .867.01 1.305C2.395 10.872.054 10.551 0 8.95V7.61c0-.437.858-.54.816.116-.028.325-.01.66-.021.981-.01.575.869.962 1.076.022.01-.774.01-1.55.01-2.331 0-.98.278-1.778 1.316-1.852.45-.04.75.148 1.036.473.11.115.37.48.38.877 0 .366.01.73.01 1.1 0 .73-.01 1.464-.01 2.193 0 .473.01.941.01 1.403 0 .586 0 1.18-.01 1.767-.01.762.918.752 1.067-.012 0-.9.01-1.789.01-2.689 0-2.216-.01-4.433-.01-6.648 0-.23-.032-.868.09-1.1.648-1.579 2.613-.89 2.631.417.038 2.677 0 5.385.01 8.068 0 .93-.756.73-.798.367 0-2.792 0-5.596.01-8.384-.037-.7-1.074-.605-1.134-.103-.02.576-.01 1.162-.02 1.737V7.43h.01z"/><path fill="#ed6d48" d="M9.522 7.393v3.784-8.928c.338-1.757 2.652-1.3 2.662-.034.01 1.578 0 3.168.01 4.746 0 .605 0 1.213-.01 1.82 0 .24.06.408.26.562.38.285.847-.05.868-.478.022-.554.01-1.108.01-1.675V5.892c.29-1.933 2.625-1.612 2.674-.011v4.849c0 .44-.848.544-.81-.114.023-.335 0-4.17.012-4.506.02-.565-.87-.963-1.076-.012v2.32c0 .993-.279 1.778-1.326 1.863-.988.023-1.385-.66-1.417-1.35V4.242c0-.597 0-1.18.01-1.765.01-.763-.918-.763-1.076.01v10.498c0 .228.032.867-.08 1.1-.648 1.578-2.623.888-2.641-.418v-1.243c.049-.836.756-.637.788-.284v1.475c.038.702 1.075.617 1.124.104.021-.576.021-1.15.021-1.738V7.394h-.003"/></g><defs><clipPath id="svg_e1b0dd23c2__a"><path fill="#fff" d="M0 0h16v16H0z"/></clipPath></defs></svg>