<svg width="24" height="24" viewBox="0 0 16 16" fill="currentColor" xmlns="http://www.w3.org/2000/svg"><path d="M10.666 1.375C12.1158 1.375 13.291 2.55025 13.291 4V12C13.291 13.4497 12.1158 14.625 10.666 14.625H5.33301C3.88337 14.6249 2.70801 13.4497 2.70801 12V4C2.70801 2.55033 3.88337 1.37513 5.33301 1.375H10.666ZM5.33301 2.625C4.57373 2.62513 3.95801 3.24069 3.95801 4V12C3.95801 12.7593 4.57373 13.3749 5.33301 13.375H10.666C11.4254 13.375 12.041 12.7594 12.041 12V4C12.041 3.24061 11.4254 2.625 10.666 2.625H5.33301ZM10 11.375C10.3452 11.375 10.625 11.6548 10.625 12C10.625 12.3452 10.3452 12.625 10 12.625H6C5.65482 12.625 5.375 12.3452 5.375 12C5.375 11.6548 5.65482 11.375 6 11.375H10Z" fill="currentColor"/></svg>