<svg width="24" height="24" viewBox="0 0 16 16" fill="currentColor" xmlns="http://www.w3.org/2000/svg"><path d="M12 3.99902C12 3.26264 11.4024 2.66602 10.666 2.66602H5.33301C4.59663 2.66602 4 3.26264 4 3.99902V11.999C4 12.7354 4.59663 13.332 5.33301 13.332H10.666C11.4024 13.332 12 12.7354 12 11.999V3.99902ZM13.333 11.999C13.333 13.4718 12.1388 14.666 10.666 14.666H5.33301C3.86025 14.666 2.66602 13.4718 2.66602 11.999V3.99902C2.66602 2.52626 3.86025 1.33203 5.33301 1.33203H10.666C12.1388 1.33203 13.333 2.52626 13.333 3.99902V11.999Z" fill="currentColor"/><path d="M9.99902 11.332C10.3672 11.332 10.666 11.6308 10.666 11.999C10.666 12.3672 10.3672 12.666 9.99902 12.666H5.99902C5.63083 12.666 5.33203 12.3672 5.33203 11.999C5.33203 11.6308 5.63083 11.332 5.99902 11.332H9.99902Z" fill="currentColor"/></svg>