<svg width="24" height="24" viewBox="0 0 16 16" fill="currentColor" xmlns="http://www.w3.org/2000/svg"><path d="M12.7666 10.1924V11.4424H3.2334V10.1924H12.7666ZM13.5166 9.44238V3.90039C13.5166 3.48618 13.1808 3.15039 12.7666 3.15039H3.2334C2.81919 3.15039 2.4834 3.48618 2.4834 3.90039V9.44238C2.4834 9.8566 2.81919 10.1924 3.2334 10.1924V11.4424L3.0293 11.4316C2.08774 11.3362 1.3396 10.588 1.24414 9.64648L1.2334 9.44238V3.90039C1.2334 2.79582 2.12883 1.90039 3.2334 1.90039H12.7666C13.8712 1.90039 14.7666 2.79582 14.7666 3.90039V9.44238L14.7559 9.64648C14.6604 10.588 13.9123 11.3362 12.9707 11.4316L12.7666 11.4424V10.1924C13.1808 10.1924 13.5166 9.8566 13.5166 9.44238Z" fill="currentColor"/><path d="M8.64111 8.57031C8.64109 8.91547 8.36128 9.19531 8.01611 9.19531C7.67095 9.19531 7.39114 8.91547 7.39111 8.57031L7.39111 4.8291C7.39111 4.48392 7.67094 4.2041 8.01611 4.2041C8.36129 4.2041 8.64111 4.48392 8.64111 4.8291L8.64111 8.57031Z" fill="currentColor"/><path d="M11.4529 8.57104C11.4528 8.91614 11.173 9.19604 10.8279 9.19604C10.4828 9.19604 10.203 8.91614 10.2029 8.57104L10.2029 6.16479C10.2029 5.81962 10.4827 5.53979 10.8279 5.53979C11.1731 5.53979 11.4529 5.81962 11.4529 6.16479L11.4529 8.57104Z" fill="currentColor"/><path d="M5.79126 8.57007C5.79126 8.91525 5.51144 9.19507 5.16626 9.19507C4.82108 9.19507 4.54126 8.91525 4.54126 8.57007L4.54126 7.14917C4.54126 6.80399 4.82108 6.52417 5.16626 6.52417C5.51144 6.52417 5.79126 6.80399 5.79126 7.14917L5.79126 8.57007Z" fill="currentColor"/><path d="M11.4058 12.7129C11.7509 12.7129 12.0308 12.9927 12.0308 13.3379C12.0308 13.6831 11.7509 13.9629 11.4058 13.9629H4.6167C4.27152 13.9629 3.9917 13.6831 3.9917 13.3379C3.9917 12.9927 4.27152 12.7129 4.6167 12.7129H11.4058Z" fill="currentColor"/></svg>