<svg width="24" height="24" viewBox="0 0 16 16" fill="currentColor" xmlns="http://www.w3.org/2000/svg"><path d="M12.7666 1.90039C13.8712 1.90039 14.7666 2.79582 14.7666 3.90039V9.44238C14.7666 10.547 13.8712 11.4424 12.7666 11.4424H3.2334C2.12883 11.4424 1.2334 10.547 1.2334 9.44238V3.90039C1.2334 2.79582 2.12883 1.90039 3.2334 1.90039H12.7666ZM5.16602 6.53906C4.82095 6.53919 4.54102 6.81897 4.54102 7.16406V8.59863C4.54102 8.94373 4.82095 9.2235 5.16602 9.22363C5.51119 9.22363 5.79102 8.94381 5.79102 8.59863V7.16406C5.79102 6.81888 5.51119 6.53906 5.16602 6.53906ZM8.0166 4.19727C7.67142 4.19727 7.3916 4.47709 7.3916 4.82227V8.59863C7.3916 8.94381 7.67142 9.22363 8.0166 9.22363C8.36161 9.22343 8.6416 8.94369 8.6416 8.59863V4.82227C8.6416 4.47721 8.36161 4.19746 8.0166 4.19727ZM10.8281 5.54492C10.4829 5.54492 10.2031 5.82474 10.2031 6.16992V8.59863C10.2031 8.94381 10.4829 9.22363 10.8281 9.22363C11.1732 9.2235 11.4531 8.94373 11.4531 8.59863V6.16992C11.4531 5.82483 11.1732 5.54505 10.8281 5.54492Z" fill="currentColor"/><path d="M11.4058 12.7129C11.7509 12.7129 12.0308 12.9927 12.0308 13.3379C12.0308 13.6831 11.7509 13.9629 11.4058 13.9629H4.6167C4.27152 13.9629 3.9917 13.6831 3.9917 13.3379C3.9917 12.9927 4.27152 12.7129 4.6167 12.7129H11.4058Z" fill="currentColor"/></svg>