<svg width="24" height="24" viewBox="0 0 16 16" fill="currentColor" xmlns="http://www.w3.org/2000/svg"><path d="M6.03906 4.66605C6.03912 4.04038 6.1508 3.44055 6.35059 2.88285C4.1893 3.57859 2.625 5.60633 2.625 7.99906C2.62523 10.9667 5.03134 13.3721 7.99902 13.3721C10.3919 13.372 12.4178 11.8071 13.1133 9.64554C12.5557 9.8452 11.9566 9.958 11.3311 9.95804C8.40854 9.95804 6.03906 7.58852 6.03906 4.66605ZM7.28906 4.66605C7.28906 6.89818 9.09891 8.70804 11.3311 8.70804C12.1823 8.70798 12.9704 8.44562 13.6211 7.9971C13.8201 7.85991 14.081 7.84938 14.29 7.97074C14.499 8.09212 14.619 8.32367 14.5986 8.56449C14.3112 11.958 11.4665 14.622 7.99902 14.6221C4.34099 14.6221 1.37523 11.657 1.375 7.99906C1.375 4.53147 4.03908 1.68607 7.43262 1.39847C7.6735 1.37806 7.905 1.49896 8.02637 1.70804C8.14751 1.91704 8.13707 2.17708 8 2.37601C7.55154 3.02668 7.28916 3.81486 7.28906 4.66605Z" fill="currentColor"/></svg>