<svg width="24" height="24" viewBox="0 0 16 16" fill="currentColor" xmlns="http://www.w3.org/2000/svg"><path d="M3.05273 6.77539C3.72911 6.77552 4.27821 7.32362 4.27832 8C4.27822 8.67638 3.72911 9.22545 3.05273 9.22559C2.37634 9.22548 1.82822 8.6764 1.82812 8C1.82823 7.32361 2.37634 6.7755 3.05273 6.77539ZM8 6.77539C8.67637 6.77552 9.22548 7.32362 9.22559 8C9.22549 8.67638 8.67638 9.22545 8 9.22559C7.32363 9.22545 6.77549 8.67638 6.77539 8C6.7755 7.32362 7.32363 6.77553 8 6.77539ZM12.9473 6.77539C13.6236 6.77552 14.1727 7.32362 14.1729 8C14.1728 8.67638 13.6236 9.22545 12.9473 9.22559C12.2709 9.22542 11.7228 8.67636 11.7227 8C11.7228 7.32364 12.2709 6.77556 12.9473 6.77539Z" fill="currentColor"/></svg>