<svg width="24" height="24" viewBox="0 0 16 16" fill="currentColor" xmlns="http://www.w3.org/2000/svg"><path d="M8 1.40039C11.6451 1.40039 14.5996 4.35492 14.5996 8C14.5996 11.6451 11.6451 14.5996 8 14.5996C4.35492 14.5996 1.40039 11.6451 1.40039 8C1.40039 4.35492 4.35492 1.40039 8 1.40039ZM5.39844 8.9502C5.03117 8.9502 4.7334 9.24796 4.7334 9.61523C4.73342 9.98249 5.03118 10.2803 5.39844 10.2803H10.6016C10.9688 10.2803 11.2666 9.98249 11.2666 9.61523C11.2666 9.24796 10.9688 8.9502 10.6016 8.9502H5.39844ZM5.39844 5.75C5.03117 5.75 4.7334 6.04777 4.7334 6.41504C4.73342 6.78229 5.03118 7.08008 5.39844 7.08008H10.6016C10.9688 7.08008 11.2666 6.78229 11.2666 6.41504C11.2666 6.04777 10.9688 5.75 10.6016 5.75H5.39844Z" fill="currentColor"/></svg>