<svg width="24" height="24" viewBox="0 0 16 16" fill="currentColor" xmlns="http://www.w3.org/2000/svg"><path d="M13.0957 11.4673V10.9048H11.167C10.8383 10.9048 10.5713 11.1717 10.5713 11.5005C10.5715 11.8291 10.8384 12.0952 11.167 12.0952H12.4668C12.8137 12.0951 13.0955 11.8142 13.0957 11.4673ZM14.2383 11.4673C14.238 12.4454 13.4449 13.2377 12.4668 13.2378H11.167C10.2072 13.2378 9.42889 12.4603 9.42871 11.5005C9.42871 10.5406 10.2071 9.76221 11.167 9.76221H13.667C13.9824 9.76238 14.2383 10.018 14.2383 10.3335V11.4673Z" fill="currentColor"/><path d="M4.76172 12.8003V12.2378H3.16699C2.83825 12.2378 2.57129 12.5048 2.57129 12.8335C2.57146 13.1621 2.83836 13.4282 3.16699 13.4282H4.13379C4.48057 13.428 4.76147 13.1471 4.76172 12.8003ZM5.9043 12.8003C5.90405 13.7783 5.11175 14.5706 4.13379 14.5708H3.16699C2.20718 14.5708 1.42889 13.7933 1.42871 12.8335C1.42871 11.8736 2.20707 11.0952 3.16699 11.0952H5.33301C5.6486 11.0952 5.9043 11.3509 5.9043 11.6665V12.8003Z" fill="currentColor"/><path d="M13.6663 4.0415L13.7981 4.59717L5.46509 6.5708L5.20142 5.4585L13.5354 3.48584L13.6663 4.0415Z" fill="currentColor"/><path d="M13.5334 0.777783C13.7036 0.737021 13.8834 0.775915 14.0208 0.884228C14.1582 0.992585 14.2375 1.15843 14.2375 1.33345V11.2309H13.095V2.05806L5.90454 3.78364V12.6665H4.76196V3.33345C4.76196 3.06936 4.94275 2.83959 5.19946 2.77778L13.5334 0.777783Z" fill="currentColor"/></svg>