<svg width="24" height="24" viewBox="0 0 16 16" fill="currentColor" xmlns="http://www.w3.org/2000/svg"><path d="M8 1.40039C11.4429 1.40039 14.2683 4.03641 14.5713 7.40039H14.5996V8.59961H14.5713C14.2683 11.9636 11.4429 14.5996 8 14.5996C4.55709 14.5996 1.73169 11.9636 1.42871 8.59961H1.40039V7.40039H1.42871C1.73169 4.03641 4.55709 1.40039 8 1.40039ZM6.27832 8.59961C6.33276 9.95556 6.5694 11.1517 6.90918 12.0254C7.10444 12.5274 7.32305 12.8924 7.53418 13.1221C7.74453 13.3508 7.90246 13.4003 8 13.4004C8.09758 13.4003 8.25638 13.3509 8.4668 13.1221C8.67782 12.8924 8.89566 12.5272 9.09082 12.0254C9.43058 11.1517 9.66725 9.95551 9.72168 8.59961H6.27832ZM10.9219 8.59961C10.8669 10.0782 10.6107 11.427 10.209 12.46C10.1309 12.6608 10.0441 12.8526 9.95215 13.0342C11.7911 12.3205 13.1418 10.6308 13.3662 8.59961H10.9219ZM2.63379 8.59961C2.85817 10.63 4.20804 12.3191 6.0459 13.0332C5.95411 12.8521 5.86892 12.6603 5.79102 12.46C5.38934 11.427 5.13294 10.0782 5.07812 8.59961H2.63379ZM6.0459 2.96582C4.20787 3.67987 2.85818 5.36989 2.63379 7.40039H5.07812C5.13294 5.92184 5.38934 4.57301 5.79102 3.54004C5.86903 3.33943 5.95396 3.14717 6.0459 2.96582ZM8 2.59961C7.90246 2.59972 7.74453 2.64923 7.53418 2.87793C7.32305 3.10755 7.10444 3.47256 6.90918 3.97461C6.5694 4.84834 6.33276 6.04445 6.27832 7.40039H9.72168C9.66725 6.0445 9.43058 4.84834 9.09082 3.97461C8.89566 3.47284 8.67782 3.10756 8.4668 2.87793C8.25638 2.64908 8.09758 2.59973 8 2.59961ZM9.95215 2.96484C10.0442 3.14664 10.1308 3.3389 10.209 3.54004C10.6107 4.57301 10.8669 5.92184 10.9219 7.40039H13.3662C13.1417 5.36913 11.7912 3.67844 9.95215 2.96484Z" fill="currentColor"/></svg>