<svg width="24" height="24" viewBox="0 0 16 16" fill="currentColor" xmlns="http://www.w3.org/2000/svg"><path d="M13.1855 3C13.5307 3 13.8105 3.27982 13.8105 3.625V12.375C13.8105 12.7202 13.5307 13 13.1855 13C12.8404 13 12.5605 12.7202 12.5605 12.375V3.625C12.5605 3.27982 12.8404 3 13.1855 3ZM3.04004 5.17773C3.0402 3.54628 4.85331 2.56799 6.2168 3.46387L10.5107 6.28613C11.7433 7.09613 11.7433 8.90389 10.5107 9.71387L6.2168 12.5361C4.85334 13.4319 3.04021 12.4537 3.04004 10.8223V5.17773ZM5.53027 4.50879C4.998 4.15904 4.2902 4.54085 4.29004 5.17773V10.8223C4.29021 11.4591 4.99799 11.8409 5.53027 11.4912L9.82422 8.66895C10.3054 8.35273 10.3054 7.64729 9.82422 7.33105L5.53027 4.50879Z" fill="currentColor"/></svg>