<svg width="24" height="24" viewBox="0 0 16 16" fill="currentColor" xmlns="http://www.w3.org/2000/svg"><path d="M11.7759 1.55725C11.5319 1.31338 11.1352 1.31348 10.8911 1.55725C10.6471 1.80129 10.6472 2.19793 10.8911 2.44202L11.8237 3.37463H6.99951C4.26158 3.37497 2.04188 5.59476 2.0415 8.33264C2.0415 11.0709 4.26135 13.2913 6.99951 13.2916H11.9995C12.3446 13.2916 12.6243 13.0117 12.6245 12.6666C12.6243 12.3216 12.3446 12.0416 11.9995 12.0416H6.99951C4.95171 12.0413 3.2915 10.3805 3.2915 8.33264C3.29188 6.28511 4.95194 4.62497 6.99951 4.62463H11.8237L10.8911 5.55725C10.6471 5.80129 10.6472 6.19793 10.8911 6.44202C11.1352 6.68609 11.5318 6.68609 11.7759 6.44202L13.7759 4.44202C14.0197 4.19792 14.0199 3.80124 13.7759 3.55725L11.7759 1.55725Z" fill="currentColor"/></svg>