<svg width="24" height="24" viewBox="0 0 24 24" fill="none" xmlns="http://www.w3.org/2000/svg"><path d="M12.2148 5.34961C12.4032 5.34962 12.5888 5.39761 12.7539 5.48828L17.8848 8.4502V8.45117C18.2138 8.63973 18.4237 9.00228 18.4238 9.38086V15.3037C18.4237 15.6916 18.2138 16.0459 17.8848 16.2363L12.7539 19.1982C12.5962 19.299 12.4055 19.3431 12.2207 19.3496C12.0305 19.3496 11.8477 19.2991 11.6826 19.2041L9.9707 18.1895C9.71777 18.0439 9.83809 17.992 9.92676 17.9668C10.1984 17.8824 10.4581 17.7632 10.6992 17.6123C10.7375 17.5937 10.7888 17.6005 10.8262 17.6191L12.1455 18.3984C12.1701 18.4105 12.1972 18.417 12.2246 18.417C12.252 18.417 12.2791 18.4105 12.3037 18.3984L17.4365 15.4365C17.4602 15.4218 17.4798 15.4014 17.4932 15.377C17.5066 15.3525 17.5131 15.3248 17.5127 15.2969V9.375C17.5126 9.34651 17.5048 9.3184 17.4902 9.29395C17.4756 9.26947 17.4547 9.24893 17.4297 9.23535L12.2988 6.27344C12.2742 6.26116 12.2472 6.25493 12.2197 6.25488C12.192 6.25488 12.1644 6.26104 12.1396 6.27344L7.01562 9.24121C6.96442 9.26635 6.93278 9.32217 6.93262 9.37988V15.3037C6.9336 15.3319 6.9416 15.3596 6.95605 15.3838C6.97058 15.408 6.99118 15.4282 7.01562 15.4424L8.42285 16.2539C9.18445 16.6356 9.65332 16.1842 9.65332 15.7344V9.8877C9.65312 9.86867 9.65687 9.84965 9.66406 9.83203C9.67127 9.81446 9.68187 9.79856 9.69531 9.78516C9.7089 9.77166 9.72539 9.76103 9.74316 9.75391C9.7609 9.74682 9.77974 9.74279 9.79883 9.74316H10.4453C10.4643 9.74291 10.4834 9.7468 10.501 9.75391C10.5186 9.76109 10.5353 9.77167 10.5488 9.78516C10.5622 9.79855 10.5729 9.81452 10.5801 9.83203C10.5872 9.84959 10.59 9.86875 10.5898 9.8877V15.7363C10.5898 16.7498 10.0398 17.3397 9.06934 17.3398C8.77067 17.3398 8.5371 17.3395 7.88379 17.0166L6.53906 16.2432C6.2096 16.0528 6 15.692 6 15.3047V9.38184C6.00012 8.99464 6.20317 8.64054 6.53906 8.4502L11.6758 5.48828C11.841 5.39761 12.0264 5.34961 12.2148 5.34961ZM13.5908 9.58398C15.2326 9.58398 16.045 10.1544 16.1523 11.3789C16.1542 11.3993 16.1519 11.42 16.1455 11.4395C16.1391 11.459 16.128 11.4768 16.1143 11.4922C16.089 11.5229 16.0441 11.5361 16.0068 11.5361H15.3398C15.2718 11.5361 15.214 11.4853 15.1953 11.4219C15.0375 10.711 14.6499 10.4834 13.5908 10.4834C12.4121 10.4834 12.2734 10.8959 12.2734 11.2002C12.2734 11.5744 12.4382 11.6826 14.0293 11.8916C15.6085 12.1007 16.3574 12.3997 16.3574 13.5029C16.3573 14.6191 15.4247 15.2588 13.8018 15.2588L13.8086 15.2656C11.5621 15.2656 11.0938 14.2315 11.0938 13.3691C11.0935 13.3501 11.0963 13.3311 11.1035 13.3135C11.1108 13.2957 11.1222 13.2791 11.1357 13.2656C11.1492 13.2523 11.1651 13.2414 11.1826 13.2344C11.2004 13.2273 11.2201 13.2242 11.2393 13.2246H11.9043C11.9397 13.2241 11.9743 13.2365 12.001 13.2598C12.0276 13.283 12.0445 13.3155 12.0488 13.3506C12.1506 14.0235 12.4496 14.3662 13.8066 14.3662C14.8908 14.3662 15.3485 14.1169 15.3486 13.5479C15.3486 13.2184 15.2149 12.9718 13.5352 12.8057C12.1258 12.6666 11.2578 12.3552 11.2578 11.2324C11.2581 10.1995 12.1323 9.584 13.5908 9.58398Z" fill="#689F63"/></svg>