<svg width="24" height="24" viewBox="0 0 28 28" fill="none" xmlns="http://www.w3.org/2000/svg"><g clip-path="url(#svg_671a0da0ba__clip0_24220_48257)"><path fill="#A8DD63" d="M0 0H28V28H0z"/><path fill-rule="evenodd" clip-rule="evenodd" d="M14.698 5.17802L21.306 8.99195C21.7304 9.23535 22 9.70204 22 10.1908V17.8207C22 18.3196 21.7304 18.7762 21.306 19.0216L14.698 22.8356C14.4948 22.9663 14.2494 23.0226 14.0121 23.0307C13.7667 23.0307 13.5313 22.9663 13.3181 22.8436L11.1134 21.5361C10.7875 21.349 10.9424 21.2826 11.0571 21.2504C11.4976 21.0955 11.5881 21.0634 12.0528 20.7938C12.1011 20.7697 12.1675 20.7777 12.2157 20.8019L13.9135 21.8056C13.9718 21.8378 14.0624 21.8378 14.1187 21.8056L20.7287 17.9897C20.787 17.9575 20.8273 17.8851 20.8273 17.8107V10.1828C20.8273 10.1104 20.785 10.036 20.7206 10.0038L14.1126 6.18984C14.0543 6.15766 13.9718 6.15766 13.9075 6.18984L7.30752 10.0118C7.24114 10.044 7.20091 10.1164 7.20091 10.1908V17.8187C7.20091 17.8911 7.24315 17.9575 7.30752 17.9977L9.11994 19.0438C10.1016 19.5346 10.7051 18.9532 10.7051 18.3739V10.8446C10.7051 10.74 10.7855 10.6575 10.8921 10.6575H11.7249C11.8295 10.6575 11.912 10.738 11.912 10.8446V18.3759C11.912 19.6814 11.2019 20.4418 9.95273 20.4418C9.56852 20.4418 9.26678 20.4418 8.42595 20.0254L6.69399 19.0297C6.26955 18.7843 6 18.3196 6 17.8207V10.1929C6 9.69399 6.2615 9.23736 6.69399 8.99195L13.31 5.17802C13.7264 4.94066 14.2816 4.94066 14.698 5.17802ZM13.791 15.3042C13.9217 16.1712 14.3059 16.6118 16.054 16.6118C17.45 16.6118 18.0394 16.2919 18.0394 15.5577C18.0394 15.1333 17.8684 14.8154 15.704 14.6022C13.8895 14.4232 12.7711 14.0229 12.7711 12.5766C12.7711 11.2449 13.8976 10.4523 15.7764 10.4523C17.8905 10.4523 18.9366 11.1866 19.0754 12.7636C19.0834 12.82 19.0593 12.8702 19.0271 12.9105C18.9949 12.9507 18.9366 12.9668 18.8883 12.9668H18.0293C17.9408 12.9668 17.8664 12.9024 17.8423 12.82C17.6391 11.9047 17.1402 11.611 15.7764 11.611C14.2577 11.611 14.0786 12.1421 14.0786 12.5343C14.0786 13.0171 14.2919 13.1559 16.3416 13.4254C18.3753 13.695 19.3389 14.0792 19.3389 15.4994C19.3389 16.9376 18.138 17.7624 16.0479 17.7624L16.056 17.7704C13.1634 17.7704 12.5599 16.4388 12.5599 15.3284C12.5599 15.2238 12.6404 15.1413 12.747 15.1413H13.6039C13.7004 15.1413 13.7749 15.2057 13.791 15.3042Z" fill="#203800"/><path d="M21.306 8.99195L21.206 9.16517L21.2065 9.16545L21.306 8.99195ZM14.698 5.17802L14.798 5.0048L14.7971 5.00427L14.698 5.17802ZM21.306 19.0216L21.406 19.1948L21.4061 19.1948L21.306 19.0216ZM14.698 22.8356L14.5979 22.6621L14.5898 22.6674L14.698 22.8356ZM14.0121 23.0307V23.2308L14.0188 23.2306L14.0121 23.0307ZM13.3181 22.8436L13.216 23.0156L13.2183 23.0169L13.3181 22.8436ZM11.1134 21.5361L11.2154 21.364L11.213 21.3626L11.1134 21.5361ZM11.0571 21.2504L11.1112 21.4434L11.1234 21.4391L11.0571 21.2504ZM12.0528 20.7938L11.9632 20.6146L11.9524 20.6208L12.0528 20.7938ZM12.2157 20.8019L12.3178 20.6293L12.3052 20.623L12.2157 20.8019ZM13.9135 21.8056L13.8117 21.9779L13.8169 21.9807L13.9135 21.8056ZM14.1187 21.8056L14.2179 21.9793L14.2187 21.9788L14.1187 21.8056ZM20.7287 17.9897L20.6321 17.8145L20.6287 17.8165L20.7287 17.9897ZM20.7206 10.0038L20.6205 10.1773L20.6312 10.1827L20.7206 10.0038ZM14.1126 6.18984L14.2126 6.01659L14.2093 6.01473L14.1126 6.18984ZM13.9075 6.18984L13.8179 6.01062L13.8072 6.01677L13.9075 6.18984ZM7.30752 10.0118L7.39477 10.1918L7.40139 10.1886L7.40774 10.1849L7.30752 10.0118ZM7.30752 17.9977L7.20145 18.1674L7.20755 18.171L7.30752 17.9977ZM9.11994 19.0438L9.01979 19.2173L9.0305 19.2226L9.11994 19.0438ZM8.42595 20.0254L8.32607 20.1991L8.33719 20.2046L8.42595 20.0254ZM6.69399 19.0297L6.59388 19.2028L6.59431 19.2031L6.69399 19.0297ZM6.69399 8.99195L6.7927 9.1659L6.79388 9.16522L6.69399 8.99195ZM13.31 5.17802L13.211 5.00427L13.2101 5.00475L13.31 5.17802ZM13.791 15.3042L13.9887 15.2744L13.9884 15.272L13.791 15.3042ZM15.704 14.6022L15.6843 14.8012L15.6844 14.8012L15.704 14.6022ZM19.0754 12.7636L18.8758 12.7812L18.8774 12.7919L19.0754 12.7636ZM19.0271 12.9105L19.1833 13.0354L19.1833 13.0354L19.0271 12.9105ZM17.8423 12.82L17.6466 12.8634L17.6503 12.8761L17.8423 12.82ZM16.3416 13.4254L16.3679 13.2272L16.3677 13.2271L16.3416 13.4254ZM16.0479 17.7624V17.5624H15.5651L15.9065 17.9038L16.0479 17.7624ZM16.056 17.7704V17.9704H16.5388L16.1974 17.629L16.056 17.7704ZM21.406 8.81873L14.798 5.0048L14.598 5.35124L21.206 9.16517L21.406 8.81873ZM22.2 10.1908C22.2 9.63056 21.8923 9.0976 21.4055 8.81846L21.2065 9.16545C21.5686 9.37311 21.8 9.77351 21.8 10.1908H22.2ZM22.2 17.8207V10.1908H21.8V17.8207H22.2ZM21.4061 19.1948C21.8915 18.9141 22.2 18.392 22.2 17.8207H21.8C21.8 18.2472 21.5694 18.6383 21.2059 18.8485L21.4061 19.1948ZM14.798 23.0088L21.406 19.1948L21.206 18.8484L14.598 22.6623L14.798 23.0088ZM14.0188 23.2306C14.2807 23.2217 14.5643 23.1595 14.8062 23.0037L14.5898 22.6674C14.4254 22.7732 14.2182 22.8236 14.0053 22.8308L14.0188 23.2306ZM13.2183 23.0169C13.4611 23.1567 13.7308 23.2307 14.0121 23.2307V22.8307C13.8025 22.8307 13.6015 22.7759 13.4178 22.6703L13.2183 23.0169ZM11.0114 21.7081L13.2161 23.0156L13.4201 22.6716L11.2154 21.3641L11.0114 21.7081ZM11.003 21.0579C10.9712 21.0668 10.9228 21.0817 10.8773 21.106C10.8387 21.1267 10.7564 21.178 10.7274 21.2813C10.6946 21.3985 10.752 21.4945 10.8019 21.5503C10.8525 21.607 10.9256 21.6589 11.0138 21.7095L11.213 21.3626C11.1383 21.3198 11.1085 21.2932 11.1001 21.2838C11.0967 21.2799 11.1042 21.287 11.1106 21.3051C11.118 21.326 11.1219 21.3561 11.1126 21.3891C11.104 21.4201 11.0877 21.4395 11.0784 21.4486C11.0696 21.4572 11.0638 21.4599 11.066 21.4587C11.0717 21.4557 11.0856 21.4502 11.1111 21.443L11.003 21.0579ZM11.9524 20.6208C11.5006 20.8829 11.4219 20.9102 10.9907 21.0618L11.1234 21.4391C11.5734 21.2809 11.6757 21.2438 12.1532 20.9668L11.9524 20.6208ZM12.3052 20.623C12.2206 20.5807 12.0853 20.554 11.9634 20.6149L12.1422 20.9727C12.134 20.9768 12.1276 20.9783 12.1243 20.9788C12.121 20.9794 12.1196 20.9792 12.1203 20.9792C12.1209 20.9793 12.1222 20.9795 12.1239 20.9799C12.1256 20.9804 12.1264 20.9808 12.1263 20.9807L12.3052 20.623ZM14.0153 21.6335L12.3175 20.6297L12.114 20.974L13.8117 21.9778L14.0153 21.6335ZM14.0195 21.632C14.025 21.6288 14.0275 21.6285 14.0258 21.6289C14.0243 21.6293 14.0211 21.6298 14.0168 21.6298C14.0126 21.6298 14.009 21.6293 14.0069 21.6288C14.0046 21.6282 14.0059 21.6282 14.0101 21.6305L13.8169 21.9807C13.8818 22.0166 13.9539 22.0298 14.0168 22.0298C14.0795 22.0298 14.1525 22.0167 14.2179 21.9793L14.0195 21.632ZM20.6287 17.8165L14.0187 21.6324L14.2187 21.9788L20.8287 18.1629L20.6287 17.8165ZM20.6273 17.8107C20.6273 17.8113 20.6272 17.8127 20.6267 17.8145C20.6262 17.8164 20.6255 17.8181 20.6248 17.8194C20.624 17.8207 20.6237 17.8209 20.6244 17.8201C20.6251 17.8194 20.6275 17.8171 20.6321 17.8146L20.8253 18.1648C20.9551 18.0932 21.0273 17.9488 21.0273 17.8107H20.6273ZM20.6273 10.1828V17.8107H21.0273V10.1828H20.6273ZM20.6312 10.1827C20.6275 10.1808 20.6257 10.1791 20.6251 10.1786C20.6246 10.1781 20.625 10.1784 20.6256 10.1795C20.6263 10.1806 20.6268 10.1819 20.6271 10.1829C20.6274 10.184 20.6273 10.184 20.6273 10.1828H21.0273C21.0273 10.0418 20.9484 9.89405 20.8101 9.82489L20.6312 10.1827ZM14.0127 6.36306L20.6207 10.177L20.8206 9.83055L14.2126 6.01662L14.0127 6.36306ZM13.9969 6.36873C13.9978 6.36827 13.9998 6.36745 14.0028 6.36676C14.0058 6.36607 14.0091 6.3657 14.0123 6.3657C14.0155 6.3657 14.0178 6.36608 14.0188 6.36633C14.0199 6.36658 14.0188 6.36648 14.016 6.36496L14.2093 6.01473C14.0881 5.94786 13.9357 5.95212 13.818 6.01096L13.9969 6.36873ZM7.40774 10.1849L14.0077 6.36292L13.8072 6.01677L7.20729 9.83874L7.40774 10.1849ZM7.40091 10.1908C7.40091 10.1891 7.40152 10.1872 7.40202 10.1864C7.40238 10.1857 7.40071 10.1889 7.39477 10.1918L7.22026 9.83186C7.07634 9.90164 7.00091 10.0498 7.00091 10.1908H7.40091ZM7.40091 17.8187V10.1908H7.00091V17.8187H7.40091ZM7.41352 17.8281C7.40628 17.8236 7.40253 17.819 7.40107 17.8166C7.39982 17.8145 7.40091 17.8153 7.40091 17.8187H7.00091C7.00091 17.9716 7.08914 18.0971 7.20152 18.1673L7.41352 17.8281ZM9.21991 18.8705L7.40749 17.8245L7.20755 18.171L9.01997 19.217L9.21991 18.8705ZM10.5051 18.3739C10.5051 18.5964 10.3887 18.818 10.1814 18.9365C9.97976 19.0518 9.6563 19.0883 9.20938 18.8649L9.0305 19.2226C9.56523 19.49 10.0343 19.4813 10.3799 19.2838C10.7197 19.0895 10.9051 18.7307 10.9051 18.3739H10.5051ZM10.5051 10.8446V18.3739H10.9051V10.8446H10.5051ZM10.8921 10.4575C10.6736 10.4575 10.5051 10.631 10.5051 10.8446H10.9051C10.9051 10.8443 10.9051 10.8453 10.9043 10.8472C10.9036 10.849 10.9024 10.8509 10.9006 10.8527C10.8988 10.8546 10.8967 10.8559 10.8947 10.8567C10.8926 10.8576 10.8915 10.8575 10.8921 10.8575V10.4575ZM11.7249 10.4575H10.8921V10.8575H11.7249V10.4575ZM12.112 10.8446C12.112 10.6261 11.9386 10.4575 11.7249 10.4575V10.8575C11.7252 10.8575 11.7242 10.8576 11.7223 10.8568C11.7206 10.8561 11.7186 10.8548 11.7168 10.853C11.715 10.8512 11.7136 10.8492 11.7128 10.8472C11.7119 10.8451 11.712 10.844 11.712 10.8446H12.112ZM12.112 18.3759V10.8446H11.712V18.3759H12.112ZM9.95273 20.6418C10.6186 20.6418 11.1662 20.4381 11.5462 20.0357C11.9246 19.6351 12.112 19.0636 12.112 18.3759H11.712C11.712 18.9937 11.5443 19.4552 11.2554 19.7611C10.968 20.0653 10.5361 20.2418 9.95273 20.2418V20.6418ZM8.33719 20.2046C8.76516 20.4166 9.06646 20.5279 9.31617 20.5847C9.56854 20.6422 9.75976 20.6418 9.95273 20.6418V20.2418C9.76149 20.2418 9.60974 20.2414 9.40498 20.1947C9.19756 20.1475 8.92757 20.0506 8.5147 19.8462L8.33719 20.2046ZM6.59431 19.2031L8.32627 20.1988L8.52563 19.852L6.79367 18.8563L6.59431 19.2031ZM5.8 17.8207C5.8 18.3907 6.10738 18.9215 6.59388 19.2028L6.7941 18.8565C6.43172 18.647 6.2 18.2485 6.2 17.8207H5.8ZM5.8 10.1929V17.8207H6.2V10.1929H5.8ZM6.59529 8.81801C6.09901 9.09961 5.8 9.62337 5.8 10.1929H6.2C6.2 9.76461 6.42399 9.37512 6.79269 9.1659L6.59529 8.81801ZM13.2101 5.00475L6.59411 8.81868L6.79388 9.16522L13.4099 5.35129L13.2101 5.00475ZM14.7971 5.00427C14.3193 4.73191 13.6888 4.73191 13.211 5.00427L13.4091 5.35178C13.7641 5.14941 14.244 5.14941 14.599 5.35178L14.7971 5.00427ZM16.054 16.4118C15.1864 16.4118 14.7049 16.3003 14.4262 16.1162C14.165 15.9437 14.0507 15.6854 13.9887 15.2744L13.5932 15.3341C13.662 15.79 13.8052 16.1855 14.2058 16.45C14.5889 16.703 15.1736 16.8118 16.054 16.8118V16.4118ZM17.8394 15.5577C17.8394 15.7143 17.8082 15.8356 17.7524 15.932C17.697 16.0278 17.6097 16.1123 17.476 16.1836C17.1997 16.331 16.7453 16.4118 16.054 16.4118V16.8118C16.7587 16.8118 17.297 16.7326 17.6644 16.5365C17.8525 16.4361 17.9999 16.303 18.0986 16.1323C18.197 15.9623 18.2394 15.7683 18.2394 15.5577H17.8394ZM15.6844 14.8012C16.7679 14.908 17.3168 15.0389 17.5928 15.1791C17.7245 15.246 17.7774 15.307 17.8027 15.354C17.8291 15.4032 17.8394 15.463 17.8394 15.5577H18.2394C18.2394 15.4402 18.2283 15.3011 18.1551 15.1647C18.0806 15.026 17.9555 14.9147 17.7739 14.8224C17.4233 14.6443 16.8045 14.5097 15.7236 14.4032L15.6844 14.8012ZM12.5711 12.5766C12.5711 12.9641 12.6462 13.2949 12.7987 13.574C12.9516 13.8538 13.1757 14.0693 13.4544 14.2362C14.0024 14.5644 14.7757 14.7116 15.6843 14.8012L15.7236 14.4032C14.8178 14.3138 14.1246 14.1713 13.6599 13.893C13.4321 13.7566 13.2632 13.5898 13.1497 13.3821C13.0358 13.1738 12.9711 12.9121 12.9711 12.5766H12.5711ZM15.7764 10.2523C14.8126 10.2523 14.0157 10.4551 13.4539 10.8517C12.8839 11.2541 12.5711 11.8463 12.5711 12.5766H12.9711C12.9711 11.9752 13.2216 11.5053 13.6845 11.1785C14.1557 10.8459 14.8614 10.6523 15.7764 10.6523V10.2523ZM19.2746 12.7461C19.2012 11.9127 18.8833 11.2747 18.2814 10.8528C17.6896 10.438 16.8512 10.2523 15.7764 10.2523V10.6523C16.8157 10.6523 17.5574 10.8338 18.0518 11.1804C18.5362 11.5199 18.8107 12.0375 18.8761 12.7812L19.2746 12.7461ZM19.1833 13.0354C19.2329 12.9734 19.2924 12.8685 19.2733 12.7353L18.8774 12.7919C18.8768 12.7878 18.8768 12.7837 18.8772 12.7802C18.8777 12.7768 18.8783 12.7747 18.8786 12.7741C18.8788 12.7735 18.8773 12.7775 18.8709 12.7855L19.1833 13.0354ZM18.8883 13.1668C18.9661 13.1668 19.0972 13.143 19.1833 13.0354L18.8709 12.7855C18.8773 12.7776 18.8835 12.7726 18.8877 12.7698C18.8917 12.7671 18.8944 12.7661 18.8948 12.766C18.8952 12.7658 18.8945 12.7661 18.8928 12.7664C18.8911 12.7667 18.8894 12.7668 18.8883 12.7668V13.1668ZM18.0293 13.1668H18.8883V12.7668H18.0293V13.1668ZM17.6503 12.8761C17.6959 13.0319 17.8402 13.1668 18.0293 13.1668V12.7668C18.0348 12.7668 18.0377 12.769 18.0373 12.7687C18.0364 12.7679 18.0348 12.7659 18.0342 12.7638L17.6503 12.8761ZM15.7764 11.811C16.4531 11.811 16.872 11.8858 17.1435 12.0448C17.3988 12.1944 17.5523 12.4366 17.647 12.8633L18.0375 12.7766C17.9291 12.288 17.7316 11.9258 17.3457 11.6997C16.976 11.4831 16.4636 11.411 15.7764 11.411V11.811ZM14.2786 12.5343C14.2786 12.3718 14.3134 12.2131 14.4805 12.0837C14.6624 11.9427 15.0322 11.811 15.7764 11.811V11.411C15.0019 11.411 14.5228 11.5448 14.2355 11.7675C13.9333 12.0016 13.8786 12.3046 13.8786 12.5343H14.2786ZM16.3677 13.2271C15.3346 13.0913 14.7982 12.9916 14.5183 12.8752C14.3843 12.8194 14.3362 12.7703 14.3146 12.735C14.2919 12.6979 14.2786 12.6442 14.2786 12.5343H13.8786C13.8786 12.6658 13.892 12.8105 13.9733 12.9436C14.0558 13.0785 14.1891 13.1715 14.3647 13.2445C14.7038 13.3855 15.2989 13.49 16.3156 13.6237L16.3677 13.2271ZM19.5389 15.4994C19.5389 15.1221 19.4749 14.7987 19.3348 14.5234C19.1938 14.2463 18.9823 14.031 18.7084 13.861C18.1722 13.5283 17.3821 13.3616 16.3679 13.2272L16.3154 13.6237C17.3349 13.7588 18.0434 13.919 18.4974 14.2009C18.7186 14.3381 18.8751 14.502 18.9783 14.7048C19.0824 14.9094 19.1389 15.1665 19.1389 15.4994H19.5389ZM16.0479 17.9624C17.1149 17.9624 17.9831 17.7525 18.5905 17.335C19.2075 16.9109 19.5389 16.2828 19.5389 15.4994H19.1389C19.1389 16.1542 18.8698 16.6576 18.3639 17.0054C17.8483 17.3598 17.071 17.5624 16.0479 17.5624V17.9624ZM16.1974 17.629L16.1894 17.621L15.9065 17.9038L15.9146 17.9118L16.1974 17.629ZM12.3599 15.3284C12.3599 15.9189 12.5211 16.5914 13.0878 17.1129C13.6513 17.6317 14.5828 17.9704 16.056 17.9704V17.5704C14.6366 17.5704 13.82 17.2434 13.3587 16.8186C12.9004 16.3968 12.7599 15.8483 12.7599 15.3284H12.3599ZM12.747 14.9413C12.5285 14.9413 12.3599 15.1147 12.3599 15.3284H12.7599C12.7599 15.328 12.7599 15.3291 12.7592 15.3309C12.7584 15.3327 12.7572 15.3347 12.7554 15.3365C12.7536 15.3383 12.7515 15.3397 12.7495 15.3405C12.7474 15.3414 12.7463 15.3413 12.747 15.3413V14.9413ZM13.6039 14.9413H12.747V15.3413H13.6039V14.9413ZM13.9884 15.272C13.9571 15.0806 13.8023 14.9413 13.6039 14.9413V15.3413C13.6057 15.3413 13.6052 15.3416 13.6032 15.3408C13.6011 15.3401 13.5987 15.3387 13.5964 15.3368C13.5941 15.3348 13.593 15.333 13.5926 15.3323C13.5922 15.3316 13.593 15.3327 13.5936 15.3365L13.9884 15.272Z" fill="#203800"/></g><defs><clipPath id="svg_671a0da0ba__clip0_24220_48257"><path fill="#fff" d="M0 0H28V28H0z"/></clipPath></defs></svg>