<svg width="24" height="24" viewBox="0 0 16 16" fill="currentColor" xmlns="http://www.w3.org/2000/svg"><path d="M8 2.06738C10.0323 2.06738 11.7664 2.5922 13.0029 3.62305C14.2522 4.66474 14.9335 6.17378 14.9336 8C14.9335 9.8264 14.2524 11.3362 13.0029 12.3779C11.7664 13.4087 10.0323 13.9336 8 13.9336C6.91335 13.9336 5.69748 13.8303 4.6084 13.3496C4.42295 13.4551 4.15924 13.5884 3.84277 13.6982C3.21713 13.9153 2.3127 14.0661 1.41016 13.6387L0.742188 13.3223L1.18848 12.7334C1.65347 12.1201 1.80392 11.64 1.8457 11.3271C1.88737 11.0145 1.82469 10.836 1.81934 10.8213C1.81899 10.8204 1.81812 10.8191 1.81738 10.8174C1.81601 10.8141 1.81488 10.8103 1.8125 10.8047C1.81035 10.7996 1.80775 10.7925 1.80469 10.7852C1.754 10.6636 1.57343 10.2231 1.40527 9.69824C1.24329 9.19263 1.06744 8.53285 1.06738 8C1.06746 6.17368 1.74868 4.66475 2.99805 3.62305C4.23448 2.59225 5.96781 2.06744 8 2.06738ZM8 3.2666C6.16212 3.26666 4.72912 3.74248 3.7666 4.54492C2.81735 5.33642 2.26668 6.49354 2.2666 8C2.26666 8.32973 2.38822 8.83372 2.54785 9.33203C2.70145 9.81138 2.86792 10.2173 2.91211 10.3232C2.91394 10.3275 2.93322 10.3726 2.94629 10.4082C3.05452 10.7035 3.23811 11.5444 2.62402 12.709C2.90843 12.7125 3.18991 12.6544 3.44922 12.5645C3.68096 12.484 3.87803 12.3856 4.0166 12.3066C4.0853 12.2675 4.13864 12.2334 4.17285 12.2109C4.18962 12.1999 4.20192 12.1914 4.20898 12.1865L4.21582 12.1816L4.5166 11.9619L4.84863 12.1357C5.75056 12.6098 6.86054 12.7334 8 12.7334C9.83796 12.7334 11.2718 12.2585 12.2344 11.4561C13.1837 10.6645 13.7333 9.50655 13.7334 8C13.7333 6.49364 13.1835 5.33642 12.2344 4.54492C11.2718 3.74244 9.83804 3.2666 8 3.2666ZM5 7.16699C5.46013 7.16699 5.83381 7.53991 5.83398 8C5.83385 8.46013 5.46016 8.83398 5 8.83398C4.53999 8.83381 4.16712 8.46002 4.16699 8C4.16717 7.54002 4.54002 7.16717 5 7.16699ZM8 7.16699C8.46013 7.16699 8.83381 7.53991 8.83398 8C8.83385 8.46013 8.46016 8.83398 8 8.83398C7.53999 8.83381 7.16712 8.46002 7.16699 8C7.16717 7.54002 7.54002 7.16717 8 7.16699ZM11 7.16699C11.4601 7.16699 11.8338 7.53991 11.834 8C11.8339 8.46013 11.4602 8.83398 11 8.83398C10.54 8.83381 10.1671 8.46002 10.167 8C10.1672 7.54002 10.54 7.16717 11 7.16699ZM4.93359 8.32715L5 8.33398C5.02213 8.33398 5.04351 8.3303 5.06445 8.32617C5.04364 8.33024 5.02201 8.33301 5 8.33301C4.9565 8.33297 4.91504 8.32477 4.87695 8.30957C4.89515 8.31685 4.91398 8.32317 4.93359 8.32715ZM7.93359 8.32715L8 8.33398C8.02213 8.33398 8.04351 8.3303 8.06445 8.32617C8.04364 8.33024 8.02201 8.33301 8 8.33301C7.9565 8.33297 7.91504 8.32477 7.87695 8.30957C7.89515 8.31685 7.91398 8.32317 7.93359 8.32715ZM10.9336 8.32715L11 8.33398C11.0221 8.33398 11.0435 8.3303 11.0645 8.32617C11.0436 8.33024 11.022 8.33301 11 8.33301C10.9565 8.33297 10.915 8.32477 10.877 8.30957C10.8951 8.31685 10.914 8.32317 10.9336 8.32715Z" fill="currentColor"/></svg>