<svg width="24" height="24" viewBox="0 0 16 16" fill="currentColor" xmlns="http://www.w3.org/2000/svg"><path d="M1.55713 1.55713C1.80108 1.31318 2.19778 1.31344 2.44189 1.55713L14.4419 13.5571C14.686 13.8012 14.686 14.1978 14.4419 14.4419C14.1978 14.686 13.8012 14.686 13.5571 14.4419L11.2026 12.0874C10.8617 13.5416 9.55857 14.6253 8.00049 14.6255C6.396 14.6255 5.05983 13.477 4.76807 11.9575H4.71045C3.08136 11.9575 1.84507 10.4894 2.12354 8.88428L2.58936 6.20166C2.67467 5.45732 2.90862 4.76195 3.2583 4.14307L1.55713 2.44189C1.31344 2.19778 1.31318 1.80108 1.55713 1.55713ZM6.05615 11.9575C6.32003 12.7798 7.09067 13.3755 8.00049 13.3755C8.91 13.3753 9.67914 12.7795 9.94287 11.9575H6.05615ZM4.18604 5.0708C4.00113 5.47348 3.87637 5.9113 3.82666 6.37451C3.82523 6.38787 3.82309 6.40227 3.8208 6.41553L3.35498 9.09814C3.20928 9.93877 3.85719 10.7075 4.71045 10.7075H9.82275L4.18604 5.0708ZM7.99951 1.37451C10.7832 1.37451 13.1187 3.4739 13.4155 6.2417L13.7397 9.26611C13.7765 9.60933 13.5283 9.91782 13.1851 9.95459C12.8422 9.99107 12.5346 9.74269 12.4976 9.3999L12.1733 6.37451C11.9444 4.24198 10.1443 2.62451 7.99951 2.62451C7.38018 2.62457 6.79042 2.75913 6.25928 3.00146C5.94542 3.14459 5.57456 3.00656 5.43115 2.69287C5.28831 2.37913 5.42626 2.00814 5.73975 1.86475C6.43054 1.54951 7.19737 1.37457 7.99951 1.37451Z" fill="currentColor"/></svg>