<svg width="24" height="24" viewBox="0 0 16 16" fill="currentColor" xmlns="http://www.w3.org/2000/svg"><path d="M8 1.375C10.5737 1.37513 12.6957 3.39337 12.8242 5.96387L12.9365 8.21582C12.946 8.40578 12.995 8.59239 13.0801 8.7627L13.8359 10.2734C13.9168 10.4352 13.959 10.6136 13.959 10.7939C13.959 11.4369 13.4369 11.9579 12.7939 11.958H11.2314C10.9396 13.4771 9.60416 14.6248 8 14.625C6.39581 14.6249 5.06051 13.4771 4.76855 11.958H3.20605C2.56315 11.9579 2.04199 11.4369 2.04199 10.7939C2.042 10.6133 2.0842 10.4351 2.16504 10.2734L2.91992 8.7627C3.00502 8.59245 3.05398 8.40584 3.06348 8.21582L3.17676 5.96387C3.30529 3.39342 5.42637 1.37517 8 1.375ZM6.05664 11.958C6.32066 12.7799 7.0905 13.3749 8 13.375C8.90939 13.3749 9.67848 12.7798 9.94238 11.958H6.05664ZM8 2.625C6.09246 2.62517 4.52007 4.12118 4.4248 6.02637L4.3125 8.27832C4.29436 8.64112 4.20046 8.99642 4.03809 9.32129L3.34473 10.708H12.6553L11.9619 9.32129C11.7997 8.99651 11.7066 8.64114 11.6885 8.27832L11.5762 6.02637C11.4809 4.12116 9.90758 2.62513 8 2.625Z" fill="currentColor"/></svg>