<svg width="24" height="24" viewBox="0 0 16 16" fill="currentColor" xmlns="http://www.w3.org/2000/svg"><path d="M12.7084 12C12.7084 11.8699 12.6736 11.75 12.6137 11.6465C12.4903 11.4333 12.2616 11.2921 12.0004 11.292C11.739 11.292 11.5095 11.4332 11.3861 11.6465C11.3263 11.75 11.2914 11.87 11.2914 12C11.2914 12.13 11.3263 12.25 11.3861 12.3535C11.5095 12.5668 11.739 12.708 12.0004 12.708C12.2616 12.7079 12.4903 12.5667 12.6137 12.3535C12.6736 12.25 12.7084 12.1301 12.7084 12ZM13.9584 12C13.9584 12.1322 13.9445 12.2615 13.9193 12.3867L14.0443 12.459C14.3433 12.6316 14.4454 13.0136 14.2728 13.3125C14.1002 13.6113 13.7182 13.7136 13.4193 13.541L13.2943 13.4688C13.1015 13.6388 12.8747 13.7704 12.6254 13.8545V14C12.6254 14.3451 12.3454 14.6248 12.0004 14.625C11.6552 14.625 11.3754 14.3452 11.3754 14V13.8555C11.1254 13.7713 10.8977 13.6393 10.7045 13.4688L10.5805 13.541C10.2816 13.7136 9.89956 13.6114 9.72694 13.3125C9.55438 13.0136 9.65663 12.6316 9.95546 12.459L10.0805 12.3867C10.0553 12.2615 10.0414 12.1322 10.0414 12C10.0414 11.8675 10.0552 11.7378 10.0805 11.6123L9.95546 11.541C9.65661 11.3684 9.55437 10.9864 9.72694 10.6875C9.89956 10.3887 10.2816 10.2864 10.5805 10.459L10.7045 10.5303C10.8977 10.3599 11.1255 10.2276 11.3754 10.1436V10C11.3754 9.65482 11.6552 9.375 12.0004 9.375C12.3454 9.37518 12.6254 9.65493 12.6254 10V10.1445C12.8746 10.2285 13.1015 10.3604 13.2943 10.5303L13.4193 10.459C13.7183 10.2864 14.1012 10.3886 14.2738 10.6875C14.4462 10.9864 14.3432 11.3685 14.0443 11.541L13.9193 11.6123C13.9446 11.7378 13.9584 11.8674 13.9584 12Z" fill="currentColor"/><path d="M4.7085 11.3334C4.7085 10.9882 4.98832 10.7084 5.3335 10.7084C5.67867 10.7084 5.9585 10.9882 5.9585 11.3334C5.9585 12.461 6.87291 13.3754 8.00049 13.3754C8.34552 13.3755 8.62549 13.6553 8.62549 14.0004C8.62531 14.3453 8.34541 14.6252 8.00049 14.6254C6.18255 14.6254 4.7085 13.1513 4.7085 11.3334Z" fill="currentColor"/><path d="M7.99976 1.375C10.5735 1.375 12.6955 3.39329 12.824 5.96387L12.9363 8.21582C12.9535 8.56057 12.6883 8.85483 12.3435 8.87207C11.9989 8.88919 11.7055 8.623 11.6882 8.27832L11.5759 6.02637C11.4807 4.12108 9.90745 2.625 7.99976 2.625C6.09222 2.62517 4.51982 4.12117 4.42456 6.02637L4.31226 8.27832C4.29412 8.64116 4.20025 8.99639 4.03784 9.32129L3.34448 10.708H7.7937C8.13877 10.708 8.41853 10.988 8.4187 11.333C8.4187 11.6782 8.13888 11.958 7.7937 11.958H3.20581C2.5629 11.9579 2.04175 11.4369 2.04175 10.7939C2.04176 10.6133 2.08395 10.4351 2.16479 10.2734L2.91968 8.7627C3.0048 8.59242 3.05373 8.40588 3.06323 8.21582L3.17651 5.96387C3.30504 3.39341 5.42612 1.37517 7.99976 1.375Z" fill="currentColor"/></svg>