<svg width="24" height="24" viewBox="0 0 16 16" fill="currentColor" xmlns="http://www.w3.org/2000/svg"><path d="M3.74121 9.0415C4.59753 9.04175 5.29187 9.73598 5.29199 10.5923C5.29199 11.0893 5.07708 11.4718 4.81445 11.7573C4.57678 12.0157 4.27745 12.2176 4.03809 12.3745H4.83398C5.17879 12.3748 5.4588 12.6547 5.45898 12.9995C5.45898 13.3445 5.1789 13.6242 4.83398 13.6245H2.66699C2.32181 13.6245 2.04199 13.3447 2.04199 12.9995C2.04211 12.5128 2.29468 12.16 2.54785 11.9185C2.78719 11.6902 3.09836 11.4964 3.3252 11.3481C3.58114 11.1808 3.76713 11.0491 3.89453 10.9106C4.00664 10.7887 4.04199 10.6949 4.04199 10.5923C4.04187 10.4263 3.90714 10.2917 3.74121 10.2915C3.64086 10.2915 3.51367 10.3305 3.3877 10.3931C3.33006 10.4217 3.28212 10.4503 3.25 10.4712C3.23429 10.4814 3.22205 10.4902 3.21582 10.4946L3.21191 10.4966C2.9385 10.7048 2.54777 10.654 2.33789 10.3813C2.1275 10.1078 2.17877 9.7149 2.45215 9.50439L2.77246 9.91943C2.48249 9.54245 2.45549 9.50769 2.45312 9.50439L2.45508 9.50244C2.45589 9.50185 2.45705 9.50121 2.45801 9.50049C2.46014 9.49887 2.46292 9.49678 2.46582 9.49463C2.47207 9.49 2.48067 9.48388 2.49023 9.47705C2.50959 9.46324 2.53627 9.44519 2.56836 9.42432C2.63217 9.38281 2.72191 9.32822 2.83105 9.27393C3.04019 9.16995 3.36772 9.0415 3.74121 9.0415ZM13.333 10.7085C13.6782 10.7085 13.958 10.9883 13.958 11.3335C13.958 11.6787 13.6782 11.9585 13.333 11.9585H8C7.65482 11.9585 7.375 11.6787 7.375 11.3335C7.37501 10.9883 7.65483 10.7085 8 10.7085H13.333ZM3.7207 2.44189C3.91444 2.34504 4.14485 2.35537 4.3291 2.46924C4.51296 2.58319 4.625 2.78414 4.625 3.00049V6.3335C4.62478 6.67841 4.34493 6.95836 4 6.9585C3.65511 6.95832 3.37522 6.67838 3.375 6.3335V4.01123L2.94629 4.22607C2.6378 4.38023 2.26296 4.25497 2.1084 3.94678C1.95403 3.63804 2.07896 3.26228 2.3877 3.10791L3.7207 2.44189ZM13.333 4.0415C13.6782 4.0415 13.958 4.32133 13.958 4.6665C13.958 5.01168 13.6782 5.2915 13.333 5.2915H8C7.65482 5.2915 7.375 5.01168 7.375 4.6665C7.37501 4.32133 7.65483 4.0415 8 4.0415H13.333Z" fill="currentColor"/></svg>