<svg xmlns="http://www.w3.org/2000/svg" width="24" height="24" fill="currentColor" viewBox="0 0 16 16"><path fill="currentColor" d="M4.5 1.24c-.66.4-1.07 1.85-.92 3.22l.05.54-.31.31a3.3 3.3 0 0 0-.63 3.8l.17.33-.16.4a4 4 0 0 0 .07 3.13l.18.35-.11.24a4 4 0 0 0-.23 2.2l.06.24h.94l-.05-.2a5 5 0 0 1-.05-.83c0-.6 0-.65.23-1.12.13-.27.23-.54.23-.6s-.08-.24-.2-.41c-.55-.87-.56-1.93-.04-2.98.23-.46.23-.6-.03-.92a2 2 0 0 1-.41-1.63c.15-.79.63-1.45 1.28-1.75.31-.15.45-.19.85-.19h.5l.12-.25q.43-.85 1.46-1.15c.87-.26 1.94.23 2.42 1.1l.15.27.53.03c.9.07 1.46.43 1.85 1.22.4.82.35 1.68-.13 2.31-.27.35-.27.5-.04.96.53 1.05.51 2.1-.04 2.98-.12.17-.2.36-.2.42s.1.32.23.59c.22.47.23.52.23 1.12 0 .34-.02.72-.05.82l-.05.21h.94l.07-.23a4 4 0 0 0-.23-2.21l-.12-.23.18-.36a4 4 0 0 0 .07-3.15l-.16-.4.17-.34a3.4 3.4 0 0 0-.67-3.81L12.38 5l.06-.54a4.7 4.7 0 0 0-.56-2.87q-.52-.66-1.24-.38c-.42.18-.79.8-.97 1.66-.08.41-.12.5-.2.47A3 3 0 0 0 8 3c-.55 0-.83.07-1.45.34-.08.03-.12-.06-.2-.46-.18-.86-.54-1.5-.97-1.67a1 1 0 0 0-.87.03m7.04 2.72c0-.67-.11-1.26-.31-1.65-.07-.13-.15-.25-.18-.25-.2 0-.5.89-.55 1.57-.06.75-.04.78.46.84.22.02.45.06.5.07.06.03.08-.1.08-.58m-6.05.39c.15-.22-.03-1.44-.28-1.96A1 1 0 0 0 5 2.1c-.1-.05-.32.4-.43.86-.05.22-.1.67-.1 1 0 .56.02.62.12.59l.48-.08c.2-.02.4-.07.42-.11m.26 4.45c.16-.56.64-1.02 1.34-1.3.23-.1.43-.12.98-.1.64 0 .72.02 1.1.21.79.39 1.24 1.1 1.16 1.83q-.1.9-1.07 1.35c-.36.17-.43.18-1.25.18s-.9-.01-1.25-.18c-.88-.4-1.25-1.15-1.01-1.99m4.82-1.29c-.2.12-.28.25-.28.5 0 .32.3.68.57.68.37 0 .6-.22.62-.55 0-.52-.5-.86-.91-.63m-5.7 0c-.28.14-.43.7-.25.93a.7.7 0 0 0 .53.25c.27 0 .57-.36.57-.68a1 1 0 0 0-.08-.33.64.64 0 0 0-.77-.17m4.38.93a2 2 0 0 0-.57-.34 2.6 2.6 0 0 0-1.37 0 2 2 0 0 0-.55.34c-.55.5-.6 1.07-.1 1.52.33.3.62.38 1.35.38s1-.08 1.35-.38c.48-.45.44-1.03-.11-1.52m-1.66.76c-.1-.07-.16-.38-.08-.47.07-.06.87-.03.95.04.12.1.09.27-.06.42a.5.5 0 0 0-.14.35c0 .23-.01.24-.25.24s-.25 0-.27-.25q-.03-.24-.15-.33"/></svg>