<svg width="24" height="24" viewBox="0 0 16 16" fill="currentColor" xmlns="http://www.w3.org/2000/svg"><path d="M11.6665 14.3369C13.141 14.3369 14.3364 13.1406 14.3364 11.666V4.33887C14.3359 2.8647 13.1408 1.66997 11.6665 1.66992H4.33936C2.86507 1.67014 1.66965 2.86557 1.66943 4.33984V11.667C1.66974 13.1412 2.86513 14.3367 4.33936 14.3369H11.6665ZM4.16943 13.3281C3.32732 13.2428 2.66972 12.5315 2.66943 11.667V4.33984L2.67822 4.16992C2.75787 3.38362 3.38314 2.75838 4.16943 2.67871L4.33936 2.66992H11.6665L11.8374 2.67871C12.6234 2.75866 13.248 3.38385 13.3276 4.16992L13.3364 4.33984V11.667C13.3361 12.589 12.5886 13.3369 11.6665 13.3369H4.33936L4.16943 13.3281ZM11.3364 5.87012C11.6309 5.87012 11.8694 5.6313 11.8696 5.33691C11.8696 5.04236 11.631 4.80273 11.3364 4.80273C11.0419 4.8028 10.8032 5.04241 10.8032 5.33691C10.8034 5.63126 11.0421 5.87005 11.3364 5.87012ZM9.33643 7.87012C9.63086 7.87012 9.86944 7.6313 9.86963 7.33691C9.86963 7.04236 9.63098 6.80273 9.33643 6.80273C9.04193 6.8028 8.80322 7.04241 8.80322 7.33691C8.80342 7.63126 9.04205 7.87005 9.33643 7.87012ZM11.3364 7.87012C11.6309 7.87012 11.8694 7.6313 11.8696 7.33691C11.8696 7.04236 11.631 6.80273 11.3364 6.80273C11.0419 6.8028 10.8032 7.04241 10.8032 7.33691C10.8034 7.63126 11.0421 7.87005 11.3364 7.87012ZM7.33643 9.87012C7.63086 9.87012 7.86944 9.6313 7.86963 9.33691C7.86963 9.04236 7.63098 8.80273 7.33643 8.80273C7.04193 8.8028 6.80322 9.04241 6.80322 9.33691C6.80342 9.63126 7.04205 9.87005 7.33643 9.87012ZM9.33643 9.87012C9.63086 9.87012 9.86944 9.6313 9.86963 9.33691C9.86963 9.04236 9.63098 8.80273 9.33643 8.80273C9.04193 8.8028 8.80322 9.04241 8.80322 9.33691C8.80342 9.63126 9.04205 9.87005 9.33643 9.87012ZM11.3364 9.87012C11.6309 9.87012 11.8694 9.6313 11.8696 9.33691C11.8696 9.04236 11.631 8.80273 11.3364 8.80273C11.0419 8.8028 10.8032 9.04241 10.8032 9.33691C10.8034 9.63126 11.0421 9.87005 11.3364 9.87012ZM5.33643 11.8701C5.63086 11.8701 5.86944 11.6313 5.86963 11.3369C5.86963 11.0424 5.63098 10.8027 5.33643 10.8027C5.04193 10.8028 4.80322 11.0424 4.80322 11.3369C4.80342 11.6313 5.04205 11.87 5.33643 11.8701ZM7.33643 11.8701C7.63086 11.8701 7.86944 11.6313 7.86963 11.3369C7.86963 11.0424 7.63098 10.8027 7.33643 10.8027C7.04193 10.8028 6.80322 11.0424 6.80322 11.3369C6.80342 11.6313 7.04205 11.87 7.33643 11.8701ZM9.33643 11.8701C9.63086 11.8701 9.86944 11.6313 9.86963 11.3369C9.86963 11.0424 9.63098 10.8027 9.33643 10.8027C9.04193 10.8028 8.80322 11.0424 8.80322 11.3369C8.80342 11.6313 9.04205 11.87 9.33643 11.8701ZM11.3364 11.8701C11.6309 11.8701 11.8694 11.6313 11.8696 11.3369C11.8696 11.0424 11.631 10.8027 11.3364 10.8027C11.0419 10.8028 10.8032 11.0424 10.8032 11.3369C10.8034 11.6313 11.0421 11.87 11.3364 11.8701Z" fill="currentColor"/></svg>