<svg width="24" height="24" viewBox="0 0 16 16" fill="currentColor" xmlns="http://www.w3.org/2000/svg"><path d="M3.70825 13V10C3.70825 9.65482 3.98807 9.375 4.33325 9.375C4.67843 9.375 4.95825 9.65482 4.95825 10V13C4.95825 13.2071 5.12615 13.375 5.33325 13.375H12.6663C12.8734 13.375 13.0413 13.2071 13.0413 13V6.62012C13.0276 6.62101 13.0141 6.62499 13.0002 6.625H10.6663C9.76895 6.62482 9.04126 5.89736 9.04126 5V2.66699C9.04126 2.65294 9.04425 2.63882 9.04517 2.625H8.60962C8.26444 2.625 7.98462 2.34518 7.98462 2C7.98462 1.65482 8.26444 1.375 8.60962 1.375H9.2522C9.68313 1.375 10.0969 1.54589 10.4016 1.85059L13.8157 5.26562C14.1202 5.57031 14.2912 5.98326 14.2913 6.41406V13C14.2913 13.8975 13.5637 14.625 12.6663 14.625H5.33325C4.43579 14.625 3.70825 13.8975 3.70825 13ZM10.2913 5C10.2913 5.207 10.4593 5.37482 10.6663 5.375H12.1575L10.2913 3.50781V5Z" fill="currentColor"/><path d="M1.375 5.57861C1.375 4.11161 2.56424 2.92236 4.03125 2.92236H6.38184V4.17236H4.03125C3.2546 4.17236 2.625 4.80196 2.625 5.57861C2.625 6.35526 3.2546 6.98486 4.03125 6.98486H7V8.23486H4.03125C2.56424 8.23486 1.375 7.04562 1.375 5.57861Z" fill="currentColor"/><path d="M5.05757 1.70723C5.30165 1.46315 5.69826 1.46315 5.94234 1.70723L7.26851 3.03438C7.55164 3.31751 7.55164 3.77664 7.26851 4.05977L5.94234 5.38692C5.69826 5.63099 5.30165 5.63099 5.05757 5.38692C4.81386 5.14288 4.81378 4.74712 5.05757 4.50313L6.01265 3.54707L5.05757 2.59199C4.81349 2.34792 4.81349 1.95131 5.05757 1.70723Z" fill="currentColor"/></svg>