<svg width="24" height="24" viewBox="0 0 16 16" fill="currentColor" xmlns="http://www.w3.org/2000/svg"><path d="M6.43372 6.18707V4.92072C6.43372 4.81406 6.47374 4.73404 6.56701 4.68077L9.1131 3.21449C9.4597 3.01456 9.87294 2.92128 10.2994 2.92128C11.8991 2.92128 12.9122 4.16101 12.9122 5.48062C12.9122 5.5739 12.9122 5.68056 12.8988 5.78722L10.2594 4.2409C10.0995 4.14763 9.93949 4.14763 9.77954 4.2409L6.43372 6.18707ZM12.3789 11.1192V8.09323C12.3789 7.90656 12.2989 7.77327 12.1389 7.67999L8.79314 5.73382L9.8862 5.10727C9.97948 5.05401 10.0595 5.05401 10.1528 5.10727L12.6989 6.57356C13.4321 7.00018 13.9252 7.90656 13.9252 8.7863C13.9252 9.79934 13.3255 10.7325 12.3789 11.1191V11.1192ZM5.64726 8.45321L4.5542 7.81341C4.46092 7.76015 4.42091 7.68012 4.42091 7.57347V4.6409C4.42091 3.21461 5.51397 2.13481 6.99363 2.13481C7.55354 2.13481 8.07331 2.32149 8.51331 2.65471L5.88732 4.17438C5.7274 4.26766 5.64738 4.40095 5.64738 4.58763V8.45334L5.64726 8.45321ZM8.00004 9.81284L6.43372 8.9331V7.06695L8.00004 6.1872L9.56623 7.06695V8.9331L8.00004 9.81284ZM9.00644 13.8652C8.44654 13.8652 7.92677 13.6785 7.48677 13.3454L10.1127 11.8256C10.2726 11.7324 10.3527 11.5991 10.3527 11.4124V7.5467L11.4592 8.18651C11.5524 8.23978 11.5924 8.3198 11.5924 8.42646V11.3591C11.5924 12.7853 10.4859 13.8652 9.00644 13.8652ZM5.84718 10.8927L3.30109 9.42636C2.56788 8.99974 2.07475 8.09336 2.07475 7.21362C2.07475 6.1872 2.68792 5.26744 3.63431 4.88083V7.92007C3.63431 8.10674 3.71433 8.24003 3.87425 8.33331L7.20682 10.2661L6.11376 10.8927C6.02048 10.9459 5.94046 10.9459 5.84718 10.8927ZM5.70064 13.0788C4.19434 13.0788 3.08791 11.9457 3.08791 10.546C3.08791 10.4394 3.10129 10.3327 3.11454 10.2261L5.74053 11.7457C5.90045 11.839 6.0605 11.839 6.22042 11.7457L9.56623 9.81297V11.0794C9.56623 11.186 9.52622 11.266 9.43294 11.3192L6.88685 12.7855C6.54026 12.9855 6.12701 13.0788 5.70052 13.0788H5.70064ZM9.00644 14.665C10.6194 14.665 11.9656 13.5186 12.2724 11.9989C13.7653 11.6123 14.7251 10.2127 14.7251 8.78643C14.7251 7.8533 14.3252 6.94691 13.6053 6.29373C13.672 6.01377 13.7121 5.73382 13.7121 5.45399C13.7121 3.54784 12.1657 2.12143 10.3795 2.12143C10.0196 2.12143 9.67301 2.1747 9.32641 2.29473C8.72649 1.70819 7.90001 1.33496 6.99363 1.33496C5.38068 1.33496 4.03442 2.48128 3.72771 4.00096C2.2348 4.38757 1.27502 5.78722 1.27502 7.21349C1.27502 8.14663 1.67489 9.053 2.39472 9.70619C2.32807 9.98614 2.28806 10.2661 2.28806 10.5459C2.28806 12.452 3.83437 13.8784 5.62063 13.8784C5.98047 13.8784 6.32707 13.8253 6.67367 13.7052C7.27346 14.2917 8.09994 14.665 9.00644 14.665Z" fill="currentColor"/></svg>