<svg width="24" height="24" viewBox="0 0 16 16" fill="currentColor" xmlns="http://www.w3.org/2000/svg"><path d="M6 2.04199C6.34507 2.04212 6.625 2.3219 6.625 2.66699C6.62482 3.01194 6.34495 3.29186 6 3.29199H5.86719C5.29707 3.29199 4.90659 3.29273 4.60449 3.31738C4.31 3.34144 4.15406 3.38489 4.04297 3.44141C3.78424 3.57323 3.57323 3.78424 3.44141 4.04297C3.38492 4.15405 3.34144 4.3101 3.31738 4.60449C3.29274 4.90657 3.29199 5.29713 3.29199 5.86719V10.1338C3.29199 10.7039 3.2927 11.0944 3.31738 11.3965C3.34147 11.6909 3.38484 11.8469 3.44141 11.958C3.57324 12.2166 3.78436 12.4268 4.04297 12.5586C4.15406 12.6151 4.31 12.6595 4.60449 12.6836C4.90657 12.7082 5.29712 12.709 5.86719 12.709H10.1338C10.704 12.709 11.0944 12.7083 11.3965 12.6836C11.6911 12.6595 11.8469 12.6152 11.958 12.5586C12.2165 12.4268 12.4268 12.2165 12.5586 11.958C12.6152 11.8469 12.6595 11.691 12.6836 11.3965C12.7083 11.0944 12.709 10.7039 12.709 10.1338V10C12.7092 9.65497 12.9889 9.375 13.334 9.375C13.6788 9.37531 13.9588 9.65516 13.959 10V10.1338C13.959 10.6833 13.9595 11.1333 13.9297 11.498C13.9031 11.8235 13.8494 12.1234 13.7285 12.4053L13.6729 12.5254C13.4526 12.9575 13.1172 13.3191 12.7061 13.5713L12.5254 13.6729C12.2088 13.8341 11.8701 13.8993 11.498 13.9297C11.1333 13.9595 10.6833 13.959 10.1338 13.959H5.86719C5.31781 13.959 4.86766 13.9594 4.50293 13.9297C4.13106 13.8993 3.79209 13.834 3.47559 13.6729C3.04354 13.4527 2.6819 13.1171 2.42969 12.7061L2.32812 12.5254C2.16682 12.2088 2.10171 11.8701 2.07129 11.498C2.0415 11.1333 2.04199 10.6833 2.04199 10.1338V5.86719C2.04199 5.31782 2.04154 4.86766 2.07129 4.50293C2.10168 4.13094 2.16691 3.79217 2.32812 3.47559C2.57979 2.98166 2.98166 2.57979 3.47559 2.32812C3.7922 2.16687 4.13089 2.10169 4.50293 2.07129C4.86767 2.04153 5.31777 2.04199 5.86719 2.04199H6ZM13.333 2.04199C13.6782 2.04199 13.958 2.32181 13.958 2.66699V6.66699C13.9578 7.01202 13.6781 7.29199 13.333 7.29199C12.988 7.29189 12.7082 7.01195 12.708 6.66699V4.17676L7.77539 9.10938C7.53131 9.35316 7.13462 9.35329 6.89062 9.10938C6.64664 8.86539 6.64681 8.46871 6.89062 8.22461L11.8232 3.29199H9.33301C8.98803 3.29189 8.70819 3.01195 8.70801 2.66699C8.70801 2.32188 8.98792 2.0421 9.33301 2.04199H13.333Z" fill="currentColor"/></svg>