<svg xmlns="http://www.w3.org/2000/svg" width="24" height="24" fill="none" viewBox="0 0 16 16"><path fill="#4c37e6" d="M1.412 7.816c.39 0 1.901-.337 2.683-.78.78-.442.78-.442 2.395-1.588 2.045-1.45 3.49-.965 5.86-.965"/><path fill="#4c37e6" d="M10.895 5.61q.923.045 1.454.045V3.312q-.474 0-1.343-.042-1.642-.078-2.479.06-1.41.237-2.715 1.162-1.195.849-1.48 1.038-.266.176-.815.487-.4.228-1.212.443-.693.185-.893.185v2.343q.508 0 1.497-.263 1.101-.294 1.763-.669.622-.352.955-.573.315-.21 1.542-1.08.865-.613 1.744-.76.588-.098 1.982-.032"/><path fill="#4c37e6" d="M14.64 4.497 10.635 6.81V2.186z"/><path fill="#4c37e6" d="m14.667 4.498-4.023-2.323-.02-.011v4.668zm-4.016-2.29v4.579l3.964-2.29zm-9.317 5.61c.39 0 1.901.337 2.682.78.781.442.781.442 2.396 1.588 2.044 1.45 3.49.965 5.86.965"/><path fill="#4c37e6" d="M10.928 12.364a30 30 0 0 1 1.343-.041V9.98q-.53 0-1.454.043-1.393.067-1.983-.031-.878-.147-1.743-.76-1.227-.87-1.542-1.08-.333-.222-.955-.573-.663-.375-1.764-.669-.99-.264-1.496-.264v2.343q.201 0 .893.185.81.216 1.212.443.55.311.815.488.285.188 1.48 1.037 1.305.927 2.715 1.16.837.14 2.479.062"/><path fill="#4c37e6" d="M14.564 11.137 10.56 8.825v4.623z"/><path fill="#4c37e6" d="M10.546 8.802v4.668l.02-.01 4.023-2.324zm.027 4.623 3.964-2.289-3.965-2.289v4.578"/></svg>