<svg width="25.5" height="24" viewBox="0 0 17 16" fill="none" xmlns="http://www.w3.org/2000/svg"><path d="M7.66309 1.33496C8.56945 1.33496 9.39617 1.7084 9.99609 2.29492C10.3427 2.17489 10.69 2.12109 11.0498 2.12109C12.8359 2.12131 14.3818 3.54809 14.3818 5.4541C14.3818 5.7339 14.342 6.01403 14.2754 6.29395C14.7502 6.72485 15.0844 7.2663 15.2578 7.85254C14.8305 7.45191 14.3338 7.12419 13.7861 6.89258C13.6583 6.76933 13.5193 6.66061 13.3691 6.57324L10.8223 5.10742C10.7291 5.05431 10.6489 5.05421 10.5557 5.10742L9.46289 5.7334L10.9258 6.58398C10.5737 6.64904 10.2342 6.75007 9.91211 6.88477L8.66992 6.1875L7.10352 7.06738V8.93262L7.44043 9.12207C7.318 9.34809 7.21289 9.58476 7.12598 9.83008L4.54395 8.33301C4.38423 8.23974 4.30469 8.10648 4.30469 7.91992V4.88086C3.3583 5.26747 2.74512 6.18745 2.74512 7.21387C2.74521 8.09351 3.2376 9.00016 3.9707 9.42676L6.51758 10.8926C6.6106 10.9456 6.69017 10.9456 6.7832 10.8926L6.88477 10.834C6.85575 11.0519 6.83984 11.2741 6.83984 11.5C6.83984 11.5898 6.84201 11.679 6.84668 11.7676C6.70112 11.8372 6.55569 11.831 6.41016 11.7461L3.78418 10.2266C3.77095 10.333 3.75782 10.4395 3.75781 10.5459C3.75781 11.9454 4.86405 13.0789 6.37012 13.0791C6.60862 13.0791 6.8426 13.047 7.06348 12.9863C7.14229 13.2399 7.24209 13.4843 7.3584 13.7188C7.3536 13.7141 7.34852 13.7097 7.34375 13.7051C6.99731 13.8251 6.6507 13.8789 6.29102 13.8789C4.50476 13.8789 2.95801 12.452 2.95801 10.5459C2.95801 10.266 2.99781 9.98599 3.06445 9.70605C2.34483 9.05297 1.94542 8.1468 1.94531 7.21387C1.94531 5.78765 2.90464 4.38765 4.39746 4.00098C4.70415 2.48145 6.05034 1.33518 7.66309 1.33496ZM7.66309 2.13477C6.18375 2.13499 5.09096 3.21463 5.09082 4.64062V7.57324C5.09082 7.6799 5.13133 7.76021 5.22461 7.81348L6.31738 8.45312V4.58789C6.31738 4.40121 6.3977 4.26808 6.55762 4.1748L9.18359 2.6543C8.74359 2.32108 8.22299 2.13477 7.66309 2.13477ZM10.9697 2.9209C10.5432 2.9209 10.1298 3.01491 9.7832 3.21484L7.2373 4.68066C7.14403 4.73393 7.10352 4.81424 7.10352 4.9209V6.1875L10.4492 4.24121C10.6092 4.14794 10.7698 4.14794 10.9297 4.24121L13.5684 5.78711C13.5817 5.68047 13.582 5.57373 13.582 5.48047C13.582 4.16102 12.5691 2.9211 10.9697 2.9209Z" fill="#D1D3DB"/><path fill-rule="evenodd" clip-rule="evenodd" d="M11.8398 15.25C13.9109 15.25 15.5898 13.5711 15.5898 11.5C15.5898 9.42893 13.9109 7.75 11.8398 7.75C9.76878 7.75 8.08984 9.42893 8.08984 11.5C8.08984 13.5711 9.76878 15.25 11.8398 15.25ZM12.9648 10.75C12.9648 11.3713 12.4612 11.875 11.8398 11.875C11.2185 11.875 10.7148 11.3713 10.7148 10.75C10.7148 10.1287 11.2185 9.625 11.8398 9.625C12.4612 9.625 12.9648 10.1287 12.9648 10.75ZM11.8399 14.5C11.0005 14.5 10.2416 14.1553 9.69714 13.5996C10.1965 13.0019 10.9417 12.625 11.8399 12.625C12.7382 12.625 13.4833 13.0019 13.9827 13.5996C13.4382 14.1553 12.6793 14.5 11.8399 14.5Z" fill="#82D99F"/></svg>