<svg width="24" height="24" viewBox="0 0 16 16" fill="none" xmlns="http://www.w3.org/2000/svg"><path d="M6.99316 1.33496C7.89953 1.33496 8.72625 1.7084 9.32617 2.29492C9.67277 2.17489 10.02 2.12109 10.3799 2.12109C12.166 2.12131 13.7119 3.54809 13.7119 5.4541C13.7119 5.7339 13.6721 6.01403 13.6055 6.29395C14.0803 6.72485 14.4145 7.2663 14.5879 7.85254C14.1605 7.45191 13.6638 7.12419 13.1162 6.89258C12.9884 6.76933 12.8494 6.66061 12.6992 6.57324L10.1523 5.10742C10.0592 5.05431 9.97893 5.05421 9.88574 5.10742L8.79297 5.7334L10.2559 6.58398C9.90373 6.64904 9.56429 6.75007 9.24219 6.88477L8 6.1875L6.43359 7.06738V8.93262L6.77051 9.12207C6.64808 9.34809 6.54296 9.58476 6.45605 9.83008L3.87402 8.33301C3.7143 8.23974 3.63477 8.10648 3.63477 7.91992V4.88086C2.68838 5.26747 2.0752 6.18745 2.0752 7.21387C2.07529 8.09351 2.56767 9.00016 3.30078 9.42676L5.84766 10.8926C5.94068 10.9456 6.02025 10.9456 6.11328 10.8926L6.21484 10.834C6.18583 11.0519 6.16992 11.2741 6.16992 11.5C6.16992 11.5898 6.17209 11.679 6.17676 11.7676C6.0312 11.8372 5.88577 11.831 5.74023 11.7461L3.11426 10.2266C3.10103 10.333 3.0879 10.4395 3.08789 10.5459C3.08789 11.9454 4.19413 13.0789 5.7002 13.0791C5.9387 13.0791 6.17267 13.047 6.39355 12.9863C6.47237 13.2399 6.57217 13.4843 6.68848 13.7188C6.68367 13.7141 6.6786 13.7097 6.67383 13.7051C6.32739 13.8251 5.98077 13.8789 5.62109 13.8789C3.83483 13.8789 2.28809 12.452 2.28809 10.5459C2.28809 10.266 2.32789 9.98599 2.39453 9.70605C1.6749 9.05297 1.2755 8.1468 1.27539 7.21387C1.27539 5.78765 2.23472 4.38765 3.72754 4.00098C4.03422 2.48145 5.38042 1.33518 6.99316 1.33496ZM6.99316 2.13477C5.51383 2.13499 4.42104 3.21463 4.4209 4.64062V7.57324C4.4209 7.6799 4.46141 7.76021 4.55469 7.81348L5.64746 8.45312V4.58789C5.64746 4.40121 5.72778 4.26808 5.8877 4.1748L8.51367 2.6543C8.07367 2.32108 7.55307 2.13477 6.99316 2.13477ZM10.2998 2.9209C9.87333 2.9209 9.45988 3.01491 9.11328 3.21484L6.56738 4.68066C6.47411 4.73393 6.43359 4.81424 6.43359 4.9209V6.1875L9.7793 4.24121C9.93925 4.14794 10.0998 4.14794 10.2598 4.24121L12.8984 5.78711C12.9118 5.68047 12.9121 5.57373 12.9121 5.48047C12.912 4.16102 11.8992 2.9211 10.2998 2.9209Z" fill="#26292C"/><path fill-rule="evenodd" clip-rule="evenodd" d="M11.1699 15.25C13.241 15.25 14.9199 13.5711 14.9199 11.5C14.9199 9.42893 13.241 7.75 11.1699 7.75C9.09885 7.75 7.41992 9.42893 7.41992 11.5C7.41992 13.5711 9.09885 15.25 11.1699 15.25ZM12.2949 10.75C12.2949 11.3713 11.7912 11.875 11.1699 11.875C10.5486 11.875 10.0449 11.3713 10.0449 10.75C10.0449 10.1287 10.5486 9.625 11.1699 9.625C11.7912 9.625 12.2949 10.1287 12.2949 10.75ZM11.17 14.5C10.3306 14.5 9.57172 14.1553 9.02722 13.5996C9.52662 13.0019 10.2718 12.625 11.17 12.625C12.0682 12.625 12.8134 13.0019 13.3128 13.5996C12.7683 14.1553 12.0094 14.5 11.17 14.5Z" fill="#4DA621"/></svg>