<svg width="24" height="24" viewBox="0 0 16 16" fill="currentColor" xmlns="http://www.w3.org/2000/svg"><path d="M7.43288 2.24579C7.79074 2.07123 8.20979 2.07123 8.56765 2.24579L13.8801 4.83758C14.8484 5.31002 14.8484 6.69037 13.8801 7.16278L12.1624 7.99969L13.8801 8.83758C14.8484 9.30998 14.8484 10.6904 13.8801 11.1628L8.56765 13.7546C8.20977 13.9292 7.79076 13.9292 7.43288 13.7546L2.12038 11.1628C1.15193 10.6904 1.15193 9.30993 2.12038 8.83758L3.83718 7.99969L2.12038 7.16278C1.15198 6.69038 1.15196 5.30998 2.12038 4.83758L7.43288 2.24579ZM8.56765 9.75458C8.20977 9.92918 7.79076 9.92917 7.43288 9.75458L5.26589 8.69696L2.67019 9.96454C2.66248 9.9683 2.65815 9.97086 2.65651 9.97235C2.65487 9.97387 2.65361 9.97556 2.65261 9.97723C2.65035 9.98103 2.6478 9.98887 2.64772 9.99969C2.64772 10.0107 2.65032 10.0193 2.65261 10.0231C2.6536 10.0248 2.6549 10.0265 2.65651 10.028C2.65818 10.0295 2.66257 10.0321 2.67019 10.0358L7.98269 12.6276C7.99373 12.633 8.0068 12.633 8.01784 12.6276L13.3303 10.0358C13.3381 10.032 13.3424 10.0295 13.344 10.028C13.3457 10.0265 13.3469 10.0248 13.3479 10.0231C13.3502 10.0193 13.3528 10.0108 13.3528 9.99969C13.3527 9.98889 13.3502 9.98104 13.3479 9.97723C13.3469 9.97552 13.3457 9.97389 13.344 9.97235C13.3425 9.97091 13.3382 9.96838 13.3303 9.96454L10.7337 8.69696L8.56765 9.75458ZM7.98269 3.37274L2.67019 5.96454C2.66246 5.96831 2.65815 5.97086 2.65651 5.97235C2.65486 5.97388 2.65362 5.97555 2.65261 5.97723C2.65034 5.98103 2.6478 5.98887 2.64772 5.99969C2.64772 6.01074 2.65031 6.01928 2.65261 6.02313C2.6536 6.02478 2.65489 6.02651 2.65651 6.02801C2.65818 6.02952 2.66254 6.03209 2.67019 6.03583L7.98269 8.62762C7.99373 8.63301 8.0068 8.63301 8.01784 8.62762L13.3303 6.03583C13.3382 6.03201 13.3424 6.02948 13.344 6.02801C13.3457 6.02648 13.3469 6.02482 13.3479 6.02313C13.3502 6.01928 13.3528 6.01075 13.3528 5.99969C13.3527 5.98889 13.3502 5.98105 13.3479 5.97723C13.3469 5.97552 13.3457 5.9739 13.344 5.97235C13.3425 5.97091 13.3382 5.96838 13.3303 5.96454L8.01784 3.37274C8.00677 3.36734 7.99376 3.36734 7.98269 3.37274Z" fill="currentColor"/></svg>