<svg width="24" height="24" viewBox="0 0 16 16" fill="currentColor" xmlns="http://www.w3.org/2000/svg"><path d="M13.0171 13.3335C13.0175 13.6368 13.2636 13.883 13.5669 13.8833C13.8704 13.8833 14.1163 13.6369 14.1167 13.3335L14.1167 2.6665C14.1167 2.36291 13.8714 2.11696 13.5679 2.1167C13.2641 2.1167 13.0171 2.36275 13.0171 2.6665L13.0171 13.3335ZM7.23486 9.56592C6.92201 9.56592 6.66766 9.31232 6.66748 8.99951L6.66748 6.99951C6.66768 6.68672 6.92202 6.43213 7.23486 6.43213L9.23486 6.43213C9.54733 6.43257 9.80107 6.68699 9.80127 6.99951L9.80127 8.99951C9.80109 9.31205 9.54734 9.56548 9.23486 9.56592L7.23486 9.56592ZM2.3501 13.3335C2.35047 13.6368 2.5966 13.883 2.8999 13.8833C3.20343 13.8833 3.44933 13.6369 3.44971 13.3335L3.44971 2.6665C3.44971 2.36291 3.20441 2.11696 2.90088 2.1167C2.59712 2.1167 2.3501 2.36275 2.3501 2.6665L2.3501 13.3335ZM9.23486 10.6655L9.40478 10.6577C10.1891 10.5779 10.8135 9.95382 10.8931 9.16943L10.9009 8.99951L10.9009 6.99951C10.9007 6.13684 10.2449 5.42679 9.40479 5.34131L9.23486 5.33252L7.23486 5.33252L7.06396 5.34131C6.22374 5.42673 5.56806 6.13679 5.56787 6.99951L5.56787 8.99951L5.57666 9.16943C5.65626 9.95386 6.27958 10.578 7.06396 10.6577L7.23486 10.6655L9.23486 10.6655Z" fill="currentColor"/></svg>