<svg width="24" height="24" viewBox="0 0 16 16" fill="currentColor" xmlns="http://www.w3.org/2000/svg"><path d="M6.43311 7.00061C6.43311 6.68776 6.6867 6.4334 6.99951 6.43323L8.99951 6.43323C9.31247 6.43323 9.5669 6.68765 9.5669 7.00061L9.56689 9.00061C9.56659 9.31331 9.31228 9.56702 8.99951 9.56702L6.99951 9.56702C6.68689 9.56684 6.43341 9.3132 6.43311 9.00061L6.43311 7.00061ZM2.6665 2.11682C2.3629 2.117 2.1167 2.36298 2.1167 2.66663C2.1167 2.97027 2.3629 3.21626 2.6665 3.21643L13.3335 3.21643C13.6373 3.21643 13.8833 2.97038 13.8833 2.66663C13.8833 2.36287 13.6373 2.11682 13.3335 2.11682L2.6665 2.11682ZM5.3335 9.00061L5.34131 9.17053C5.42099 9.95498 6.04511 10.5792 6.82959 10.6588L6.99951 10.6666L8.99951 10.6666C9.86242 10.6666 10.5723 10.0109 10.6577 9.17053L10.6665 9.00061L10.6665 7.00061L10.6577 6.82971C10.5723 5.98937 9.86239 5.33362 8.99951 5.33362L6.99951 5.33362L6.82959 5.34241C6.04518 5.42201 5.42102 6.04533 5.34131 6.82971L5.3335 7.00061L5.3335 9.00061Z" fill="currentColor"/></svg>