<svg width="24" height="24" viewBox="0 0 16 16" fill="currentColor" xmlns="http://www.w3.org/2000/svg"><path d="M6.43311 8.99939C6.43311 9.31224 6.6867 9.5666 6.99951 9.56677L8.99951 9.56677C9.31247 9.56677 9.5669 9.31235 9.5669 8.99939L9.56689 6.99939C9.56659 6.68669 9.31228 6.43298 8.99951 6.43298L6.99951 6.43298C6.68689 6.43316 6.43341 6.6868 6.43311 6.99939L6.43311 8.99939ZM2.6665 13.8832C2.3629 13.883 2.1167 13.637 2.1167 13.3334C2.1167 13.0297 2.3629 12.7837 2.6665 12.7836L13.3335 12.7836C13.6373 12.7836 13.8833 13.0296 13.8833 13.3334C13.8833 13.6371 13.6373 13.8832 13.3335 13.8832L2.6665 13.8832ZM5.3335 6.99939L5.34131 6.82947C5.42099 6.04502 6.04511 5.42076 6.82959 5.34119L6.99951 5.33337L8.99951 5.33337C9.86242 5.33337 10.5723 5.98909 10.6577 6.82947L10.6665 6.99939L10.6665 8.99939L10.6577 9.17029C10.5723 10.0106 9.86239 10.6664 8.99951 10.6664L6.99951 10.6664L6.82959 10.6576C6.04518 10.578 5.42102 9.95467 5.34131 9.17029L5.3335 8.99939L5.3335 6.99939Z" fill="currentColor"/></svg>