<svg width="24" height="24" viewBox="0 0 16 16" fill="currentColor" xmlns="http://www.w3.org/2000/svg"><path d="M13.3369 3.21619C13.6405 3.21601 13.8867 2.97003 13.8867 2.66638C13.8866 2.36285 13.6404 2.11675 13.3369 2.11658H2.66992C2.36625 2.11658 2.12025 2.36274 2.12012 2.66638C2.12012 2.97014 2.36617 3.21619 2.66992 3.21619H13.3369ZM9.57031 8.99939C9.57031 9.31224 9.31672 9.5666 9.00391 9.56677H7.00391C6.69094 9.56677 6.43652 9.31235 6.43652 8.99939V6.99939C6.43683 6.68669 6.69114 6.43298 7.00391 6.43298H9.00391C9.31653 6.43316 9.57 6.6868 9.57031 6.99939V8.99939ZM13.3369 13.8832C13.6405 13.883 13.8867 13.637 13.8867 13.3334C13.8867 13.0297 13.6405 12.7837 13.3369 12.7836H2.66992C2.36617 12.7836 2.12012 13.0296 2.12012 13.3334C2.12012 13.6371 2.36617 13.8832 2.66992 13.8832H13.3369ZM10.6699 6.99939L10.6621 6.82947C10.5824 6.04502 9.95831 5.42076 9.17383 5.34119L9.00391 5.33337H7.00391C6.141 5.33337 5.4311 5.98909 5.3457 6.82947L5.33691 6.99939V8.99939L5.3457 9.17029C5.43114 10.0106 6.14102 10.6664 7.00391 10.6664H9.00391L9.17383 10.6576C9.95824 10.578 10.5824 9.95467 10.6621 9.17029L10.6699 8.99939V6.99939Z" fill="currentColor"/></svg>