<svg width="24" height="24" viewBox="0 0 16 16" fill="currentColor" xmlns="http://www.w3.org/2000/svg"><path d="M8.99951 9.56702C9.31228 9.56702 9.56659 9.31331 9.56689 9.00061L9.56689 7.00061C9.56689 6.68765 9.31247 6.43323 8.99951 6.43323L6.99951 6.43323C6.6867 6.4334 6.43311 6.68776 6.43311 7.00061L6.43311 9.00061C6.43341 9.3132 6.68689 9.56684 6.99951 9.56702L8.99951 9.56702ZM13.8833 13.3336C13.8831 13.6372 13.6371 13.8834 13.3335 13.8834C13.0298 13.8834 12.7839 13.6372 12.7837 13.3336L12.7837 2.66663C12.7837 2.36287 13.0297 2.11682 13.3335 2.11682C13.6373 2.11682 13.8833 2.36287 13.8833 2.66663L13.8833 13.3336ZM6.99951 10.6666L6.82959 10.6588C6.04511 10.5792 5.42099 9.95498 5.34131 9.17053L5.3335 9.00061L5.3335 7.00061C5.3335 6.13763 5.98911 5.42771 6.82959 5.34241L6.99951 5.33362L8.99951 5.33362L9.17041 5.34241C10.0107 5.42785 10.6665 6.13774 10.6665 7.00061L10.6665 9.00061L10.6577 9.17053C10.578 9.95484 9.95472 10.5791 9.17041 10.6588L8.99951 10.6666L6.99951 10.6666Z" fill="currentColor"/></svg>