<svg width="24" height="24" viewBox="0 0 16 16" fill="currentColor" xmlns="http://www.w3.org/2000/svg"><path d="M7.00049 9.56702C6.68772 9.56702 6.43341 9.31331 6.43311 9.00061L6.43311 7.00061C6.43311 6.68765 6.68753 6.43323 7.00049 6.43323L9.00049 6.43323C9.3133 6.4334 9.5669 6.68776 9.5669 7.00061L9.56689 9.00061C9.56659 9.3132 9.31311 9.56684 9.00049 9.56702L7.00049 9.56702ZM2.1167 13.3336C2.11688 13.6372 2.36286 13.8834 2.6665 13.8834C2.97015 13.8834 3.21613 13.6372 3.21631 13.3336L3.21631 2.66663C3.21631 2.36287 2.97026 2.11682 2.6665 2.11682C2.36275 2.11682 2.1167 2.36287 2.1167 2.66663L2.1167 13.3336ZM9.00049 10.6666L9.17041 10.6588C9.95489 10.5792 10.579 9.95498 10.6587 9.17053L10.6665 9.00061L10.6665 7.00061C10.6665 6.13763 10.0109 5.42771 9.17041 5.34241L9.00049 5.33362L7.00049 5.33362L6.82959 5.34241C5.98926 5.42785 5.3335 6.13774 5.3335 7.00061L5.3335 9.00061L5.34229 9.17053C5.42199 9.95484 6.04528 10.5791 6.82959 10.6588L7.00049 10.6666L9.00049 10.6666Z" fill="currentColor"/></svg>