<svg width="24" height="24" viewBox="0 0 16 16" fill="currentColor" xmlns="http://www.w3.org/2000/svg"><path d="M4.04175 10.667V6C4.04175 5.65482 4.32157 5.375 4.66675 5.375C5.01193 5.375 5.29175 5.65482 5.29175 6V10.667C5.29192 12.1625 6.50425 13.3748 7.99976 13.375C9.4954 13.375 10.7086 12.1626 10.7087 10.667V3.66699C10.7087 3.0917 10.242 2.625 9.66675 2.625C9.09146 2.625 8.62476 3.0917 8.62476 3.66699V10C8.62476 10.3452 8.34493 10.625 7.99976 10.625C7.65473 10.6248 7.37476 10.3451 7.37476 10V3.66699C7.37476 2.40134 8.4011 1.375 9.66675 1.375C10.9324 1.375 11.9587 2.40134 11.9587 3.66699V10.667C11.9586 12.853 10.1858 14.625 7.99976 14.625C5.81389 14.6248 4.04192 12.8528 4.04175 10.667Z" fill="currentColor"/></svg>