<svg width="24" height="24" viewBox="0 0 16 16" fill="currentColor" xmlns="http://www.w3.org/2000/svg"><path d="M3.375 10V7.33301C3.37518 6.98798 3.65493 6.70801 4 6.70801C4.34507 6.70801 4.62482 6.98798 4.625 7.33301V10C4.625 11.864 6.13604 13.375 8 13.375C9.86396 13.375 11.375 11.864 11.375 10V4.66699C11.375 3.53941 10.4606 2.625 9.33301 2.625C8.2056 2.62518 7.29199 3.53952 7.29199 4.66699V10C7.29199 10.3912 7.60878 10.708 8 10.708C8.39122 10.708 8.70801 10.3912 8.70801 10V4.66699C8.70801 4.32192 8.98798 4.04217 9.33301 4.04199C9.67819 4.04199 9.95801 4.32181 9.95801 4.66699V10C9.95801 11.0816 9.08158 11.958 8 11.958C6.91842 11.958 6.04199 11.0816 6.04199 10V4.66699C6.04199 2.84916 7.51525 1.37518 9.33301 1.375C11.1509 1.375 12.625 2.84905 12.625 4.66699V10C12.625 12.5543 10.5543 14.625 8 14.625C5.44568 14.625 3.375 12.5543 3.375 10Z" fill="currentColor"/></svg>