<svg width="24" height="24" viewBox="0 0 14 14" fill="currentColor" xmlns="http://www.w3.org/2000/svg"><path d="M12.2357 7.00034C12.2357 4.109 9.89163 1.76516 7.00034 1.76498C4.10889 1.76498 1.76498 4.10889 1.76498 7.00034C1.76516 9.89163 4.109 12.2357 7.00034 12.2357C9.89152 12.2355 12.2355 9.89152 12.2357 7.00034ZM13.2855 7.00034C13.2853 10.4714 10.4714 13.2853 7.00034 13.2855C3.5291 13.2855 0.714379 10.4715 0.714203 7.00034C0.714203 3.529 3.529 0.714203 7.00034 0.714203C10.4715 0.714379 13.2855 3.5291 13.2855 7.00034Z" fill="currentColor"/><path d="M6.09921 4.25V9.44922H4.89999V4.25H6.09921ZM9.09921 4.25V9.44922H7.89999V4.25H9.09921Z" fill="currentColor"/></svg>