<svg width="24" height="24" viewBox="0 0 16 16" fill="currentColor" xmlns="http://www.w3.org/2000/svg"><path d="M8.14175 4.7122C8.48652 4.70387 9.44067 4.67863 10.4992 4.88017L10.7544 4.9329C12.016 5.21379 13.035 5.75856 13.7121 6.60673C14.326 7.37608 14.5683 8.16437 14.5122 8.73629C14.4867 9.0051 14.3898 9.43784 14.2355 9.82222L14.2348 9.82287C14.0005 10.4045 13.5985 10.9566 12.9263 11.0501L12.9256 11.0494C12.8575 11.0592 12.7896 11.0644 12.7238 11.0644C12.4232 11.0644 12.1133 10.9803 11.882 10.9023C11.6393 10.8205 11.425 10.725 11.3006 10.6666L11.3 10.666C11.0885 10.5665 10.8326 10.4321 10.6027 10.2701C10.3916 10.1214 10.1158 9.89114 9.97508 9.57483V9.57353C9.82231 9.22853 9.78818 8.93591 9.77912 8.72978C9.7078 8.70819 9.61364 8.68319 9.49136 8.65751L9.23355 8.60933C8.73793 8.52851 8.23852 8.49934 8.06037 8.49931C7.88242 8.49931 7.38135 8.52793 6.88719 8.60868L6.88784 8.60933C6.63329 8.65146 6.45767 8.69492 6.34032 8.73043C6.33125 8.9372 6.29819 9.23044 6.14501 9.57483C6.00418 9.89147 5.72818 10.1212 5.5174 10.2695C5.28772 10.4311 5.03232 10.5657 4.82209 10.6653C4.69488 10.726 4.48094 10.8215 4.23876 10.903C4.00663 10.981 3.69689 11.0644 3.39631 11.0644C3.33025 11.0644 3.26214 11.0593 3.19383 11.0494C2.52167 10.9559 2.11953 10.4045 1.88524 9.82287C1.73062 9.43918 1.63275 9.00656 1.60724 8.73629V8.73563C1.55413 8.1669 1.79463 7.37862 2.41063 6.60673C3.13284 5.70195 4.24546 5.14235 5.62352 4.88017C6.68233 4.67857 7.63831 4.70388 7.98159 4.7122L7.98094 4.71285C8.00186 4.71297 8.02065 4.71255 8.03498 4.71285C8.04508 4.71306 8.05021 4.71338 8.05646 4.7135C8.0622 4.71361 8.06315 4.7135 8.06167 4.7135C8.07888 4.7135 8.10528 4.71319 8.13589 4.7122H8.14175ZM8.1717 5.96545L8.17105 5.9648C8.12141 5.96632 8.08037 5.96675 8.06167 5.96675C8.05066 5.96675 8.03952 5.96689 8.03237 5.96675C8.02542 5.96662 8.01525 5.96623 8.00894 5.9661C7.9937 5.96579 7.97953 5.96545 7.96597 5.96545H7.95099C7.61855 5.9574 6.77668 5.93635 5.8579 6.11129C4.74299 6.3234 3.96963 6.73405 3.48355 7.27795L3.39045 7.38863C2.91394 7.98572 2.84087 8.46069 2.85529 8.61845C2.86892 8.76293 2.93586 9.07812 3.04735 9.35478C3.13143 9.56347 3.21349 9.6836 3.27521 9.74735C3.33003 9.80393 3.35936 9.80759 3.36636 9.80855L3.37287 9.8092C3.37555 9.8096 3.3835 9.8105 3.39631 9.8105C3.49222 9.8105 3.64828 9.77892 3.83902 9.7148C4.01887 9.65432 4.18502 9.58093 4.28368 9.53381L4.28498 9.53251C4.46337 9.44799 4.64819 9.34875 4.79605 9.24475C4.96287 9.12737 5.00235 9.06002 4.99982 9.06571V9.06506C5.08567 8.87194 5.08929 8.73082 5.09162 8.56897V8.56636C5.09371 8.4517 5.08708 8.22905 5.21922 7.99866L5.25698 7.93225L5.30972 7.87756C5.47353 7.70623 5.82879 7.51444 6.68342 7.373L6.68472 7.37235C7.24168 7.28131 7.81056 7.24605 8.06037 7.24605C8.31049 7.24608 8.87756 7.28138 9.43537 7.37235L9.43602 7.373C10.1971 7.4977 10.5468 7.66247 10.7264 7.80269L10.7941 7.86063L10.8572 7.92248L10.9009 7.99866C10.9999 8.17134 11.0207 8.33868 11.0259 8.4609L11.0285 8.56636V8.56897C11.0308 8.72905 11.0344 8.87109 11.1209 9.06636C11.1275 9.07507 11.175 9.14037 11.324 9.2454C11.4716 9.34937 11.6561 9.44857 11.8332 9.53186H11.8325C11.9351 9.57995 12.1021 9.65339 12.2824 9.71415C12.474 9.77872 12.6292 9.8105 12.7238 9.8105C12.7366 9.8105 12.7445 9.8096 12.7472 9.8092L12.7537 9.80855L12.7811 9.79879C12.7961 9.79072 12.8174 9.77574 12.8449 9.74735C12.9065 9.68368 12.9881 9.56365 13.0721 9.35543L13.1476 9.14254C13.2142 8.92983 13.2546 8.72591 13.2648 8.61845L13.2654 8.61454C13.2809 8.46077 13.21 7.98723 12.7322 7.38863C12.2841 6.8272 11.5538 6.39448 10.4835 6.15621L10.2648 6.11129C9.34601 5.93635 8.5055 5.9574 8.1717 5.96545Z" fill="currentColor"/></svg>