<svg width="24" height="24" viewBox="0 0 24 24" fill="none" xmlns="http://www.w3.org/2000/svg"><path d="M9.189 10.2458C8.95058 9.9691 8.65091 9.75181 8.3138 9.6112C7.9767 9.47059 7.61145 9.41053 7.24707 9.43581H4.45221C4.41827 9.4364 4.38574 9.44949 4.36083 9.47255C4.33593 9.49562 4.3204 9.52706 4.31721 9.56085L3.01342 16.8713C3.00457 16.8908 3 16.9119 3 16.9333C3 16.9547 3.00457 16.9758 3.01342 16.9953C3.04042 17.0453 3.09641 17.0693 3.14842 17.0523H4.60435C4.63812 17.0518 4.67052 17.0388 4.69541 17.0159C4.72029 16.9931 4.73592 16.9619 4.73935 16.9283L5.06327 15.1484H6.19519C6.67081 15.162 7.14528 15.0945 7.59816 14.9485C7.97815 14.8055 8.32413 14.5785 8.61308 14.2825C8.85942 14.0311 9.06822 13.7455 9.23304 13.4345C9.40097 13.1063 9.51349 12.7525 9.56605 12.3875C9.66266 12.0246 9.67898 11.645 9.61388 11.2751C9.54877 10.9051 9.40372 10.554 9.189 10.2458ZM7.76907 12.2157C7.72811 12.6405 7.54077 13.0378 7.2391 13.3396C6.87513 13.5856 6.44615 13.6996 6.01614 13.6635H5.29614L5.78214 10.9218H6.6811C7.03609 10.8717 7.39505 10.9747 7.67907 11.2078C7.85708 11.5088 7.89905 11.8777 7.79503 12.2166H7.76803L7.76907 12.2157ZM15.1116 11.6067C15.193 11.328 15.2061 11.0337 15.1499 10.7489C15.0936 10.464 14.9698 10.1968 14.7886 9.96984C14.5371 9.77124 14.2487 9.62438 13.9402 9.5377C13.6316 9.45103 13.3089 9.42625 12.9908 9.4648H11.9029L12.2179 7.71395C12.2274 7.69466 12.2324 7.67345 12.2324 7.65194C12.2324 7.63044 12.2274 7.60921 12.2179 7.58994C12.2045 7.5672 12.1841 7.54938 12.1597 7.53911C12.1354 7.52884 12.1085 7.52667 12.0829 7.5329H10.6449C10.6282 7.53158 10.6114 7.53374 10.5956 7.53925C10.5797 7.54476 10.5652 7.5535 10.5529 7.56492C10.5275 7.58864 10.5121 7.62117 10.5099 7.65596L9.207 14.9395C9.19055 14.9789 9.19055 15.0232 9.207 15.0626C9.22456 15.1053 9.26126 15.1371 9.306 15.1485H10.7889C10.8216 15.1447 10.8523 15.1307 10.8765 15.1084C10.9008 15.0862 10.9174 15.0568 10.9239 15.0245L11.6429 10.9697H12.6848C13.1077 10.9697 13.2607 11.0647 13.3048 11.1218C13.3498 11.1787 13.3948 11.4357 13.3048 11.7407L12.7298 14.9676C12.718 15.0081 12.718 15.0511 12.7298 15.0916C12.7446 15.1225 12.7713 15.1463 12.8038 15.1575C12.8359 15.1684 12.8712 15.1651 12.9007 15.1485H14.3747C14.4115 15.1431 14.4452 15.1249 14.4699 15.0971C14.4946 15.0693 14.5087 15.0337 14.5097 14.9965L15.1116 11.6067ZM18.5995 9.43684H15.8036C15.77 9.43766 15.7379 9.45071 15.7132 9.47354C15.6885 9.49638 15.6731 9.52742 15.6696 9.56085L14.3657 16.8434C14.3569 16.8629 14.3523 16.884 14.3523 16.9054C14.3523 16.9268 14.3569 16.948 14.3657 16.9674C14.3865 17.0029 14.4246 17.0248 14.4657 17.0244H15.9566C15.9906 17.0268 16.0239 17.0149 16.0485 16.9914C16.074 16.9677 16.0894 16.9351 16.0916 16.9004L16.4156 15.0916H17.5475C18.0231 15.1052 18.4976 15.0376 18.9505 14.8916C19.3304 14.7485 19.6755 14.5215 19.9654 14.2256C20.474 13.7212 20.8079 13.0674 20.9184 12.3597C21.0108 12.0009 21.0249 11.6265 20.9598 11.2617C20.8948 10.897 20.752 10.5505 20.5413 10.2458C20.3029 9.9691 20.0032 9.75181 19.6661 9.6112C19.329 9.47059 18.9637 9.41053 18.5994 9.43581L18.5995 9.43684ZM18.6625 13.3396C18.2994 13.5856 17.8695 13.6996 17.4395 13.6635H16.7206L17.2066 10.9218H18.1055C18.4605 10.8717 18.8195 10.9747 19.1024 11.2078C19.2724 11.5127 19.3055 11.8828 19.1924 12.2166C19.1513 12.6411 18.9639 13.038 18.6625 13.3396Z" fill="#686FB9"/></svg>