<svg width="24" height="24" viewBox="0 0 16 16" fill="currentColor" xmlns="http://www.w3.org/2000/svg"><path d="M10.3752 4C10.3752 3.24071 9.75951 2.62518 9.00024 2.625H7.00024C6.24086 2.625 5.62524 3.24061 5.62524 4V4.99902C5.62524 6.23217 5.13487 7.41511 4.26294 8.28711C4.06781 8.48223 3.95825 8.74747 3.95825 9.02344V9.375H12.0413V9.02344C12.0413 8.74747 11.9317 8.48223 11.7366 8.28711C10.8648 7.41513 10.3752 6.2321 10.3752 4.99902V4ZM11.6252 4.99902C11.6252 5.90058 11.983 6.76576 12.6204 7.40332C13.0499 7.83286 13.2913 8.41594 13.2913 9.02344V10C13.2913 10.3452 13.0114 10.625 12.6663 10.625H8.62524V14C8.62524 14.3451 8.34527 14.6248 8.00024 14.625C7.65507 14.625 7.37524 14.3452 7.37524 14V10.625H3.33325C2.98807 10.625 2.70825 10.3452 2.70825 10V9.02344C2.70825 8.41594 2.9496 7.83287 3.37915 7.40332C4.01665 6.76575 4.37524 5.90066 4.37524 4.99902V4C4.37524 2.55026 5.5505 1.375 7.00024 1.375H9.00024C10.4499 1.37518 11.6252 2.55037 11.6252 4V4.99902Z" fill="currentColor"/></svg>