<svg width="24" height="24" viewBox="0 0 16 16" fill="currentColor" xmlns="http://www.w3.org/2000/svg"><path d="M8.17354 2.73625C9.0076 1.18719 11.0993 0.880241 12.3435 2.12394L13.8757 3.65617C15.1199 4.90034 14.8125 6.99192 13.2634 7.82609L12.2438 8.37589C11.8381 8.5944 11.5688 9.00192 11.5271 9.46086L11.3444 11.4706C11.1428 13.6883 8.44552 14.6652 6.8708 13.0907L5.33272 11.5517L3.11006 13.7763C2.86533 14.021 2.46807 14.021 2.22334 13.7763C1.97891 13.5316 1.97897 13.1352 2.22334 12.8905L4.44697 10.6659L2.90986 9.12882C1.33528 7.55416 2.31134 4.85792 4.52901 4.65617L6.53975 4.47355C6.99861 4.43181 7.40621 4.16248 7.62471 3.75675L8.17354 2.73625ZM11.4577 3.01066C10.8072 2.36015 9.71317 2.52101 9.27705 3.33097L8.72822 4.3505C8.31033 5.12653 7.53079 5.6418 6.65303 5.7216L4.64229 5.90421C3.48299 6.00989 2.97247 7.41986 3.79561 8.24308L7.75752 12.204C8.58084 13.0271 9.98999 12.5168 10.0954 11.3573L10.279 9.3466C10.3589 8.46907 10.8733 7.69024 11.6491 7.27238L12.6696 6.72257C13.4795 6.28639 13.6404 5.19237 12.9899 4.54191L11.4577 3.01066Z" fill="currentColor"/></svg>