<svg width="24" height="24" viewBox="0 0 16 16" fill="currentColor" xmlns="http://www.w3.org/2000/svg"><path fill-rule="evenodd" clip-rule="evenodd" d="M8 4C8.3682 4 8.66667 4.29848 8.66667 4.66667V7.33333H11.3333C11.7015 7.33333 12 7.6318 12 8C12 8.3682 11.7015 8.66667 11.3333 8.66667H8.66667V11.3333C8.66667 11.7015 8.3682 12 8 12C7.6318 12 7.33333 11.7015 7.33333 11.3333V8.66667H4.66667C4.29848 8.66667 4 8.3682 4 8C4 7.6318 4.29848 7.33333 4.66667 7.33333H7.33333V4.66667C7.33333 4.29848 7.6318 4 8 4Z" fill="currentColor"/></svg>