<svg width="24" height="24" viewBox="0 0 16 16" fill="currentColor" xmlns="http://www.w3.org/2000/svg"><path d="M13.375 8C13.375 5.03147 10.9686 2.625 8 2.625C5.03147 2.625 2.625 5.03147 2.625 8C2.625 10.9686 5.03147 13.375 8 13.375C10.9686 13.375 13.375 10.9686 13.375 8ZM7.375 10.667V8.625H5.33301C4.98799 8.62482 4.70802 8.34506 4.70801 8C4.70804 7.65496 4.988 7.37518 5.33301 7.375H7.375V5.33301C7.37522 4.98802 7.65496 4.70801 8 4.70801C8.34504 4.70801 8.62478 4.98802 8.625 5.33301V7.375H10.667C11.012 7.37518 11.292 7.65494 11.292 8C11.292 8.34504 11.012 8.62482 10.667 8.625H8.625V10.667C8.62482 11.012 8.34507 11.292 8 11.292C7.65493 11.292 7.37518 11.012 7.375 10.667ZM14.625 8C14.625 11.6589 11.6589 14.625 8 14.625C4.34112 14.625 1.375 11.6589 1.375 8C1.375 4.34112 4.34112 1.375 8 1.375C11.6589 1.375 14.625 4.34112 14.625 8Z" fill="currentColor"/></svg>