<svg width="24" height="24" viewBox="0 0 16 16" fill="currentColor" xmlns="http://www.w3.org/2000/svg"><path d="M5.26125 12.4246C4.94232 12.4246 4.68848 12.1968 4.68848 11.917C4.68848 11.7933 4.73404 11.6696 4.81865 11.546L7.5914 7.62767V7.58211L4.88374 3.78098C4.78611 3.64429 4.75357 3.52713 4.75357 3.39696C4.75357 3.09105 5.02043 2.85022 5.35888 2.85022C5.58669 2.85022 5.71036 2.92833 5.8926 3.19519L8.35293 6.71644H8.39849L10.9044 3.16915C11.0736 2.93483 11.1842 2.85022 11.4055 2.85022C11.7245 2.85022 11.9783 3.07803 11.9783 3.35791C11.9783 3.48157 11.9393 3.59873 11.8481 3.72891L9.02984 7.64069V7.67974L11.7635 11.5134C11.8416 11.6241 11.8872 11.7542 11.8872 11.8844C11.8872 12.1838 11.6138 12.4246 11.2884 12.4246C11.0671 12.4246 10.9304 12.34 10.7807 12.1252L8.30085 8.59097H8.25529L5.76243 12.1057C5.58669 12.3531 5.47604 12.4246 5.26125 12.4246Z" fill="currentColor"/></svg>