<svg width="24" height="24" viewBox="0 0 16 16" fill="currentColor" xmlns="http://www.w3.org/2000/svg"><path d="M7.99988 12.4246C7.6419 12.4246 7.41409 12.1903 7.41409 11.8193V8.29157L4.37448 3.74192C4.28336 3.60524 4.25732 3.49459 4.25732 3.36441C4.25732 3.07152 4.50466 2.85022 4.82359 2.85022C5.05791 2.85022 5.19459 2.93483 5.33778 3.14962L7.98035 7.15904H8.01941L10.662 3.14962C10.8052 2.93483 10.9419 2.85022 11.1762 2.85022C11.4951 2.85022 11.7424 3.07152 11.7424 3.36441C11.7424 3.49459 11.7164 3.60524 11.6253 3.74192L8.58567 8.29157V11.8193C8.58567 12.1903 8.35786 12.4246 7.99988 12.4246Z" fill="currentColor"/></svg>