<svg xmlns="http://www.w3.org/2000/svg" width="24" height="24" fill="none" viewBox="0 0 16 16"><path fill="#2f74ff" d="M8 1.5A6.5 6.5 0 0 0 1.5 8a6.5 6.5 0 0 0 1.86 4.55V8c0-1.24.48-2.4 1.36-3.28A4.6 4.6 0 0 1 8 3.36h.04H8a4.64 4.64 0 0 1 4.6 5.3L9.98 6.05A2.8 2.8 0 0 0 8 5.22a2.8 2.8 0 0 0-1.97.82A2.8 2.8 0 0 0 5.23 8c0 .74.29 1.44.81 1.97a2.8 2.8 0 0 0 1.97.81 2.8 2.8 0 0 0 2.78-2.63l1.54 1.55A4.65 4.65 0 0 1 8 12.65a4.6 4.6 0 0 1-2.78-.93v2.15A6.5 6.5 0 0 0 14.5 8 6.5 6.5 0 0 0 8 1.5"/></svg>