<svg width="24" height="24" viewBox="0 0 16 16" fill="currentColor" xmlns="http://www.w3.org/2000/svg"><path d="M14.6663 2.0415C15.0114 2.0415 15.2913 2.32133 15.2913 2.6665C15.2913 3.01168 15.0114 3.2915 14.6663 3.2915H1.33325C0.988074 3.2915 0.708252 3.01168 0.708252 2.6665C0.708252 2.32133 0.988074 2.0415 1.33325 2.0415H14.6663Z" fill="currentColor"/><path d="M12.7087 3.2915H3.29175V9.3335C3.29192 10.0927 3.90747 10.7085 4.66675 10.7085H11.3337C12.0929 10.7083 12.7086 10.0926 12.7087 9.3335V3.2915ZM13.9587 9.3335C13.9586 10.783 12.7832 11.9583 11.3337 11.9585H4.66675C3.21711 11.9585 2.04192 10.7831 2.04175 9.3335V2.6665C2.04175 2.32133 2.32157 2.0415 2.66675 2.0415H13.3337C13.6788 2.04168 13.9587 2.32143 13.9587 2.6665V9.3335Z" fill="currentColor"/><path d="M9.89082 5.55757C10.1349 5.31349 10.5315 5.31349 10.7756 5.55757L11.7756 6.55757C12.0197 6.80165 12.0197 7.19826 11.7756 7.44234L10.7756 8.44234C10.5315 8.68641 10.1349 8.68641 9.89082 8.44234C9.64674 8.19826 9.64674 7.80165 9.89082 7.55757L10.4484 6.99995L9.89082 6.44234C9.64674 6.19826 9.64674 5.80165 9.89082 5.55757Z" fill="currentColor"/><path d="M5.22432 5.55757C5.4684 5.31349 5.86501 5.31349 6.10908 5.55757C6.35316 5.80165 6.35316 6.19826 6.10908 6.44234L5.55147 6.99995L6.10908 7.55757C6.35316 7.80165 6.35316 8.19826 6.10908 8.44234C5.86501 8.68641 5.4684 8.68641 5.22432 8.44234L4.22432 7.44234C3.98024 7.19826 3.98024 6.80165 4.22432 6.55757L5.22432 5.55757Z" fill="currentColor"/><path d="M6.85078 11.599C7.48538 10.9644 8.51403 10.9644 9.14863 11.599L11.1086 13.558C11.3526 13.802 11.3525 14.1977 11.1086 14.4418C10.8645 14.6858 10.4689 14.6858 10.2248 14.4418L8.26485 12.4828C8.1184 12.3363 7.88102 12.3363 7.73457 12.4828L5.77559 14.4418C5.53151 14.6858 5.1349 14.6858 4.89082 14.4418C4.64712 14.1977 4.64702 13.802 4.89082 13.558L6.85078 11.599Z" fill="currentColor"/></svg>