<svg width="24" height="24" viewBox="0 0 14 14" fill="currentColor" xmlns="http://www.w3.org/2000/svg"><path fill-rule="evenodd" clip-rule="evenodd" d="M1.88965 5.25007C1.88965 5.09543 2.01501 4.97007 2.16965 4.97007H11.7597C11.9143 4.97007 12.0397 5.09543 12.0397 5.25007V12.1334C12.0397 12.288 11.9143 12.4134 11.7597 12.4134H2.16965C2.01501 12.4134 1.88965 12.288 1.88965 12.1334V5.25007ZM4.59634 6.58C4.59634 6.42536 4.7217 6.3 4.87634 6.3H9.05299C9.20762 6.3 9.33299 6.42536 9.33299 6.58V7.14C9.33299 7.29463 9.20762 7.42 9.05299 7.42H4.87634C4.7217 7.42 4.59634 7.29463 4.59634 7.14V6.58ZM4.87634 9.00669C4.7217 9.00669 4.59634 9.13206 4.59634 9.28669V9.84669C4.59634 10.0013 4.7217 10.1267 4.87634 10.1267H9.05299C9.20762 10.1267 9.33299 10.0013 9.33299 9.84669V9.28669C9.33299 9.13206 9.20762 9.00669 9.05299 9.00669H4.87634Z" fill="currentColor"/><path opacity=".5" fill-rule="evenodd" clip-rule="evenodd" d="M3.58129 1.58662H4.93462V2.26331H8.99468V1.58662H10.348V2.26331H11.7597C11.9143 2.26331 12.0397 2.38867 12.0397 2.54331V4.01331C12.0397 4.16795 11.9143 4.29331 11.7597 4.29331H2.16965C2.01501 4.29331 1.88965 4.16795 1.88965 4.01331V2.54331C1.88965 2.38867 2.01501 2.26331 2.16965 2.26331H3.58129V1.58662Z" fill="currentColor"/></svg>