<svg width="24" height="24" viewBox="0 0 16 16" fill="currentColor" xmlns="http://www.w3.org/2000/svg"><path d="M9.46558 11.0115V4.65771C9.46558 3.98022 9.79517 3.66895 10.5154 3.66895H12.7859C14.2568 3.66895 15.1785 4.4624 15.1785 5.71973C15.1785 6.65356 14.6719 7.31885 13.7991 7.55078V7.61182C14.9221 7.73999 15.6301 8.51514 15.6301 9.65649C15.6301 11.0969 14.5071 12.0002 12.7249 12.0002H10.5154C9.79517 12.0002 9.46558 11.6951 9.46558 11.0115ZM10.845 7.19067H12.0168C13.2559 7.19067 13.8052 6.77563 13.8052 5.95166C13.8052 5.21313 13.323 4.76758 12.499 4.76758H10.845V7.19067ZM10.845 10.9016H12.1694C13.6282 10.9016 14.2202 10.4866 14.2202 9.60767C14.2202 8.74707 13.6404 8.23438 12.6089 8.23438H10.845V10.9016Z" fill="currentColor"/><path d="M1.94604 12.0732C1.56152 12.0732 1.29907 11.8474 1.29907 11.4934C1.29907 11.3469 1.33569 11.1882 1.41504 10.9563L3.70386 4.48047C3.91748 3.87012 4.21655 3.60156 4.77197 3.60156C5.32739 3.60156 5.62646 3.86401 5.83398 4.48047L8.1228 10.9563C8.18994 11.1577 8.22656 11.3225 8.22656 11.4751C8.22656 11.8413 7.96411 12.0732 7.56738 12.0732C7.19507 12.0732 6.97534 11.884 6.83496 11.4141L6.26123 9.69287H3.24609L2.67236 11.4141C2.52588 11.8901 2.31836 12.0732 1.94604 12.0732ZM3.57568 8.63086H5.93164L4.79028 5.10913H4.72314L3.57568 8.63086Z" fill="currentColor"/></svg>