<svg width="24" height="24" viewBox="0 0 16 16" fill="currentColor" xmlns="http://www.w3.org/2000/svg"><path d="M8.00049 2.70837C10.5196 2.70856 12.9759 4.10382 14.6763 6.76501C15.1566 7.51687 15.1566 8.48286 14.6763 9.23474C12.9759 11.896 10.5196 13.2912 8.00049 13.2914C5.48116 13.2914 3.0242 11.8961 1.32373 9.23474C0.843448 8.48285 0.843351 7.51686 1.32373 6.76501C3.0242 4.10366 5.48118 2.70839 8.00049 2.70837ZM8.00049 3.95837C5.97532 3.95839 3.88709 5.07532 2.37744 7.43787C2.15922 7.77941 2.15922 8.22034 2.37744 8.56189C3.88711 10.9246 5.97525 12.0414 8.00049 12.0414C10.0256 12.0412 12.114 10.9245 13.6235 8.56189C13.8415 8.22044 13.8416 7.77928 13.6235 7.43787C12.114 5.07528 10.0256 3.95855 8.00049 3.95837ZM8.00049 5.33337C8.16097 5.33356 8.30518 5.43259 8.36279 5.5824L8.82666 6.79041C8.8943 6.96633 9.03358 7.10552 9.20947 7.17322L10.4175 7.63806C10.5674 7.69573 10.6665 7.8397 10.6665 8.00037C10.6664 8.1609 10.5673 8.30504 10.4175 8.36267L9.20947 8.82751C9.03366 8.89526 8.89426 9.03444 8.82666 9.21033L8.36279 10.4174C8.30518 10.5672 8.16097 10.6662 8.00049 10.6664C7.83982 10.6664 7.69487 10.5673 7.63721 10.4174L7.17334 9.21033C7.10573 9.03442 6.96637 8.89525 6.79053 8.82751L5.58252 8.36267C5.43267 8.30504 5.33363 8.1609 5.3335 8.00037C5.3335 7.8397 5.43257 7.69573 5.58252 7.63806L6.79053 7.17322C6.96644 7.10553 7.10569 6.96634 7.17334 6.79041L7.63721 5.5824C7.69487 5.43245 7.83982 5.33337 8.00049 5.33337Z" fill="currentColor"/></svg>