<svg width="24" height="24" viewBox="0 0 16 16" fill="currentColor" xmlns="http://www.w3.org/2000/svg"><path d="M3.625 3C3.97018 3 4.25 3.27982 4.25 3.625V12.375C4.25 12.7202 3.97018 13 3.625 13C3.27982 13 3 12.7202 3 12.375V3.625C3 3.27982 3.27982 3 3.625 3ZM10.5938 3.46387C11.9572 2.56799 13.7704 3.54628 13.7705 5.17773V10.8223C13.7703 12.4537 11.9572 13.4319 10.5938 12.5361L6.2998 9.71387C5.0672 8.90389 5.06723 7.09613 6.2998 6.28613L10.5938 3.46387ZM12.5205 5.17773C12.5204 4.54085 11.8125 4.15904 11.2803 4.50879L6.98633 7.33105C6.50512 7.64729 6.50512 8.35273 6.98633 8.66895L11.2803 11.4912C11.8126 11.8409 12.5203 11.4591 12.5205 10.8223V5.17773Z" fill="currentColor"/></svg>