<svg width="24" height="24" viewBox="0 0 16 16" fill="currentColor" xmlns="http://www.w3.org/2000/svg"><path d="M5.21163 11.7207C5.5501 11.653 5.88026 11.8725 5.94796 12.2109L6.07491 12.8467C6.13636 13.1539 6.40621 13.375 6.71944 13.375C7.08224 13.3748 7.37667 13.0806 7.37667 12.7178V10.667C7.37667 10.3218 7.65649 10.042 8.00167 10.042C8.34668 10.0422 8.62667 10.3219 8.62667 10.667V12.7178C8.62667 13.771 7.7726 14.6248 6.71944 14.625C5.81034 14.625 5.02763 13.9833 4.84932 13.0918L4.72139 12.4561C4.65373 12.1177 4.87342 11.7886 5.21163 11.7207ZM7.37667 2C7.37667 1.65482 7.65649 1.375 8.00167 1.375C8.34668 1.3752 8.62667 1.65494 8.62667 2V2.73242C10.8343 2.88786 12.7933 3.8573 14.0778 5.32227C14.7061 6.03884 14.6931 6.91417 14.2634 7.57715C13.8536 8.20921 13.09 8.62487 12.236 8.625H3.76729C2.91311 8.625 2.14887 8.20931 1.73897 7.57715C1.3093 6.91418 1.29628 6.0388 1.92452 5.32227C3.20924 3.85707 5.16874 2.88771 7.37667 2.73242V2ZM8.00167 3.95801C5.87664 3.95801 4.01586 4.83273 2.86397 6.14648C2.62707 6.41681 2.64328 6.67451 2.7878 6.89746C2.95241 7.15134 3.3087 7.375 3.76729 7.375H12.236C12.6944 7.37487 13.05 7.15126 13.2146 6.89746C13.3592 6.67445 13.3754 6.41689 13.1384 6.14648C11.9866 4.83281 10.1266 3.95811 8.00167 3.95801Z" fill="currentColor"/></svg>