<svg width="24" height="24" viewBox="0 0 16 16" fill="currentColor" xmlns="http://www.w3.org/2000/svg"><path d="M11.666 2.04199C12.7475 2.04199 13.6248 2.91859 13.625 4C13.6249 4.86286 13.0661 5.59445 12.291 5.85547V6C12.2908 7.44963 11.1157 8.625 9.66602 8.625H6.33301C5.57381 8.62513 4.95814 9.24078 4.95801 10V10.1445C5.73305 10.4054 6.29185 11.1372 6.29199 12C6.29186 13.0814 5.41448 13.959 4.33301 13.959C3.25168 13.9588 2.37513 13.0813 2.375 12C2.37514 11.1374 2.93347 10.4066 3.70801 10.1455V5.85352C2.93367 5.59216 2.37511 4.86243 2.375 4C2.37518 2.9187 3.25171 2.04217 4.33301 2.04199C5.41446 2.04199 6.29182 2.91859 6.29199 4C6.29189 4.86267 5.73286 5.59332 4.95801 5.85449V7.7666C5.35814 7.51972 5.82833 7.37505 6.33301 7.375H9.66602C10.4253 7.375 11.0408 6.75927 11.041 6V5.85352C10.2668 5.59209 9.70811 4.86235 9.70801 4C9.70818 2.91878 10.5848 2.0423 11.666 2.04199ZM4.33301 11.292C3.94206 11.2922 3.62518 11.6091 3.625 12C3.62513 12.391 3.94204 12.7088 4.33301 12.709C4.72413 12.709 5.04186 12.3911 5.04199 12C5.04182 11.6089 4.7241 11.292 4.33301 11.292ZM11.666 3.29199C11.2752 3.2923 10.9582 3.60914 10.958 4C10.9581 4.38927 11.2725 4.70507 11.6611 4.70801H11.6699C12.0594 4.70603 12.3749 4.38987 12.375 4C12.3748 3.60895 12.0571 3.29199 11.666 3.29199ZM4.33301 3.29199C3.94206 3.29217 3.62518 3.60906 3.625 4C3.62513 4.38935 3.9394 4.7052 4.32812 4.70801H4.33691C4.72624 4.7059 5.04186 4.38979 5.04199 4C5.04182 3.60895 4.7241 3.29199 4.33301 3.29199Z" fill="currentColor"/></svg>