<svg width="24" height="24" viewBox="0 0 16 16" fill="currentColor" xmlns="http://www.w3.org/2000/svg"><path d="M10.0029 3.375C12.5571 3.37514 14.6279 5.44577 14.6279 8C14.6279 9.05222 14.2754 10.0217 13.6836 10.7988L15.1084 12.2246C15.3524 12.4687 15.3525 12.8643 15.1084 13.1084C14.8643 13.3525 14.4687 13.3524 14.2246 13.1084L12.7979 11.6826C12.0213 12.2729 11.0536 12.6249 10.0029 12.625C7.44862 12.625 5.37793 10.5543 5.37793 8C5.37793 5.44568 7.44862 3.375 10.0029 3.375ZM4.00293 10.708C4.34791 10.7081 4.6278 10.988 4.62793 11.333C4.62793 11.6781 4.348 11.9579 4.00293 11.958H2.00293C1.65775 11.958 1.37793 11.6782 1.37793 11.333C1.37806 10.9879 1.65783 10.708 2.00293 10.708H4.00293ZM10.0029 4.625C8.13898 4.625 6.62793 6.13604 6.62793 8C6.62793 9.86396 8.13898 11.375 10.0029 11.375C11.8668 11.3749 13.3779 9.86387 13.3779 8C13.3779 6.13612 11.8668 4.62514 10.0029 4.625ZM3.33594 7.375C3.681 7.37513 3.96094 7.6549 3.96094 8C3.96094 8.3451 3.681 8.62487 3.33594 8.625H2.00293C1.65775 8.625 1.37793 8.34518 1.37793 8C1.37793 7.65482 1.65775 7.375 2.00293 7.375H3.33594ZM4.00293 4.04199C4.348 4.04212 4.62793 4.3219 4.62793 4.66699C4.6278 5.01198 4.34791 5.29186 4.00293 5.29199H2.00293C1.65783 5.29199 1.37806 5.01206 1.37793 4.66699C1.37793 4.32181 1.65775 4.04199 2.00293 4.04199H4.00293Z" fill="currentColor"/></svg>