<svg width="24" height="24" viewBox="0 0 16 16" fill="currentColor" xmlns="http://www.w3.org/2000/svg"><path d="M9.17139 4.06006C9.51749 4.06006 9.79834 4.34091 9.79834 4.68701C9.79834 5.03311 9.51749 5.31396 9.17139 5.31396H2.10791C1.76181 5.31396 1.48096 5.03311 1.48096 4.68701C1.48096 4.34091 1.76181 4.06006 2.10791 4.06006H9.17139Z" fill="currentColor"/><path d="M13.2659 4.6875C13.2659 3.90885 12.6343 3.27754 11.8557 3.27734C11.0769 3.27734 10.4456 3.90873 10.4456 4.6875C10.4457 5.46611 11.0771 6.09766 11.8557 6.09766C12.6342 6.09746 13.2657 5.46599 13.2659 4.6875ZM14.5188 4.6875C14.5186 6.15818 13.3264 7.35039 11.8557 7.35059C10.3849 7.35059 9.19184 6.1583 9.19165 4.6875C9.19165 3.21653 10.3847 2.02344 11.8557 2.02344C13.3265 2.02363 14.5188 3.21665 14.5188 4.6875Z" fill="currentColor"/><path d="M7.95972 11.9912C7.61362 11.9912 7.33276 11.7104 7.33276 11.3643C7.33276 11.0182 7.61362 10.7373 7.95972 10.7373L13.8923 10.7373C14.2384 10.7373 14.5193 11.0182 14.5193 11.3643C14.5193 11.7104 14.2384 11.9912 13.8923 11.9912L7.95972 11.9912Z" fill="currentColor"/><path d="M2.10815 11.9912C1.76206 11.9912 1.4812 11.7104 1.4812 11.3643C1.4812 11.0182 1.76206 10.7373 2.10815 10.7373H3.8855C4.2316 10.7373 4.51245 11.0182 4.51245 11.3643C4.51245 11.7104 4.2316 11.9912 3.8855 11.9912H2.10815Z" fill="currentColor"/><path d="M4.51196 11.3647C4.51196 10.5861 5.14351 9.95478 5.92212 9.95459C6.70089 9.95459 7.33228 10.586 7.33228 11.3647C7.33208 12.1434 6.70077 12.7749 5.92212 12.7749C5.14363 12.7747 4.51216 12.1432 4.51196 11.3647ZM3.25903 11.3647C3.25923 12.8354 4.45144 14.0276 5.92212 14.0278C7.39297 14.0278 8.58599 12.8355 8.58618 11.3647C8.58618 9.89378 7.39309 8.70068 5.92212 8.70068C4.45132 8.70088 3.25903 9.8939 3.25903 11.3647Z" fill="currentColor"/></svg>