<svg width="24" height="24" viewBox="0 0 16 16" fill="currentColor" xmlns="http://www.w3.org/2000/svg"><path d="M13.4004 8C13.4004 5.01766 10.9823 2.59961 8 2.59961C5.01766 2.59961 2.59961 5.01766 2.59961 8C2.59961 9.41858 3.14677 10.7087 4.04199 11.6729C5.03117 10.6745 6.40181 10.0664 8 10.0664C9.59793 10.0664 10.9679 10.6747 11.957 11.6729C12.8525 10.7087 13.4004 9.41882 13.4004 8ZM8 11.2666C6.75463 11.2666 5.71296 11.7221 4.9541 12.458C5.82133 13.0518 6.86922 13.4004 8 13.4004C9.13049 13.4004 10.1778 13.0516 11.0449 12.458C10.2861 11.7224 9.2451 11.2666 8 11.2666ZM9.40039 6.66699C9.40039 5.89379 8.7732 5.2666 8 5.2666C7.2268 5.2666 6.59961 5.89379 6.59961 6.66699C6.59979 7.44004 7.22691 8.06641 8 8.06641C8.77309 8.06641 9.40021 7.44004 9.40039 6.66699ZM14.5996 8C14.5996 9.99549 13.7138 11.7848 12.3154 12.9941C11.1587 13.9944 9.64922 14.5996 8 14.5996C6.35078 14.5996 4.84127 13.9944 3.68457 12.9941C2.28618 11.7848 1.40039 9.99549 1.40039 8C1.40039 4.35492 4.35492 1.40039 8 1.40039C11.6451 1.40039 14.5996 4.35492 14.5996 8ZM10.5996 6.66699C10.5994 8.10278 9.43583 9.2666 8 9.2666C6.56417 9.2666 5.40057 8.10278 5.40039 6.66699C5.40039 5.23105 6.56406 4.06641 8 4.06641C9.43594 4.06641 10.5996 5.23105 10.5996 6.66699Z" fill="currentColor"/></svg>