<svg width="24" height="24" viewBox="0 0 16 16" fill="currentColor" xmlns="http://www.w3.org/2000/svg"><path d="M12.7087 5.33337C12.7087 4.57409 12.093 3.95855 11.3337 3.95837H9.66675C9.32157 3.95837 9.04175 3.67855 9.04175 3.33337V3.00037C9.04175 2.42507 8.57505 1.95837 7.99976 1.95837C7.42462 1.95855 6.95874 2.42518 6.95874 3.00037V3.33337C6.95874 3.67844 6.67877 3.9582 6.33374 3.95837H4.66675C3.90736 3.95837 3.29175 4.57399 3.29175 5.33337V10.6664C3.29175 11.4258 3.90735 12.0414 4.66675 12.0414H11.3337C12.093 12.0412 12.7087 11.4257 12.7087 10.6664V10.2709C11.5809 10.1276 10.7089 9.16706 10.7087 8.00037C10.7087 6.83347 11.5807 5.8711 12.7087 5.72791V5.33337ZM13.9587 6.33337C13.9587 6.67844 13.6788 6.9582 13.3337 6.95837H12.9998C12.4246 6.95855 11.9587 7.42519 11.9587 8.00037C11.9589 8.5754 12.4247 9.04121 12.9998 9.04138H13.3337C13.6787 9.04156 13.9586 9.32146 13.9587 9.66638V10.6664C13.9587 12.1161 12.7834 13.2912 11.3337 13.2914H4.66675C3.21701 13.2914 2.04175 12.1162 2.04175 10.6664V5.33337C2.04175 3.88363 3.217 2.70837 4.66675 2.70837H5.72925C5.87264 1.5807 6.83317 0.708536 7.99976 0.708374C9.1665 0.708374 10.1278 1.58057 10.2712 2.70837H11.3337C12.7834 2.70855 13.9587 3.88374 13.9587 5.33337V6.33337Z" fill="currentColor"/></svg>