<svg width="24" height="24" viewBox="0 0 24 24" fill="none" xmlns="http://www.w3.org/2000/svg"><path d="M11.9283 5.93406C11.4335 5.93638 10.961 5.97858 10.5452 6.05213C9.32045 6.26852 9.09806 6.72142 9.09806 7.55666V8.65973H11.9924V9.02739H9.09806H8.01187C7.17067 9.02739 6.43415 9.53301 6.20376 10.4948C5.93801 11.5972 5.92621 12.2852 6.20376 13.4363C6.40951 14.2932 6.90085 14.9037 7.74201 14.9037H8.73712V13.5814C8.73712 12.6261 9.56368 11.7834 10.5452 11.7834H13.4361C14.2409 11.7834 14.8833 11.1208 14.8833 10.3127V7.55666C14.8833 6.77226 14.2216 6.18305 13.4361 6.05213C12.939 5.96938 12.4231 5.93178 11.9283 5.93406ZM10.363 6.82126C10.662 6.82126 10.9062 7.0694 10.9062 7.37447C10.9062 7.6785 10.662 7.92432 10.363 7.92432C10.063 7.92432 9.81995 7.6785 9.81995 7.37447C9.81995 7.0694 10.063 6.82126 10.363 6.82126Z" fill="url(#svg_a7f5f35426__paint0_linear_10095_253003)"/><path d="M15.2448 9.02747V10.3127C15.2448 11.3091 14.4 12.1478 13.4367 12.1478H10.5458C9.75392 12.1478 9.09863 12.8255 9.09863 13.6186V16.3746C9.09863 17.1589 9.78068 17.6203 10.5458 17.8453C11.462 18.1147 12.3405 18.1634 13.4367 17.8453C14.1654 17.6343 14.8839 17.2098 14.8839 16.3746V15.2715H11.9929V14.9038H14.8839H16.331C17.1722 14.9038 17.4856 14.3171 17.7782 13.4364C18.0803 12.5298 18.0675 11.6579 17.7782 10.4949C17.5703 9.65748 17.1733 9.02747 16.331 9.02747H15.2448ZM13.6189 16.0069C13.9189 16.0069 14.162 16.2527 14.162 16.5567C14.162 16.8618 13.9189 17.1099 13.6189 17.1099C13.3199 17.1099 13.0758 16.8618 13.0758 16.5567C13.0758 16.2527 13.3199 16.0069 13.6189 16.0069Z" fill="url(#svg_a7f5f35426__paint1_linear_10095_253003)"/><defs><linearGradient id="svg_a7f5f35426__paint0_linear_10095_253003" x1="6" y1="5.934" x2="12.674" y2="11.621" gradientUnits="userSpaceOnUse"><stop stop-color="#5A9FD4"/><stop offset="1" stop-color="#306998"/></linearGradient><linearGradient id="svg_a7f5f35426__paint1_linear_10095_253003" x1="13.549" y1="16.464" x2="11.155" y2="13.109" gradientUnits="userSpaceOnUse"><stop stop-color="#FFD43B"/><stop offset="1" stop-color="#FFE873"/></linearGradient></defs></svg>