<svg width="24" height="24" viewBox="0 0 16 16" fill="currentColor" xmlns="http://www.w3.org/2000/svg"><path d="M12.7019 3.66675C12.7019 3.4597 12.5339 3.29183 12.3269 3.29175H10.7732C10.5662 3.29187 10.3982 3.45969 10.3982 3.66675V12.7087H12.3269C12.5338 12.7087 12.7017 12.5406 12.7019 12.3337V3.66675ZM3.29175 12.3337C3.29192 12.5407 3.45976 12.7087 3.66675 12.7087H5.59546V10.6248H3.66675C3.45976 10.6248 3.29192 10.7928 3.29175 10.9998V12.3337ZM6.84546 12.7087H9.14819V6.95874H7.22046C7.01338 6.95874 6.84546 7.12664 6.84546 7.33374V12.7087ZM13.9519 12.3337C13.9517 13.231 13.2242 13.9587 12.3269 13.9587H3.66675C2.76938 13.9587 2.04192 13.231 2.04175 12.3337V10.9998C2.04192 10.1025 2.76938 9.37476 3.66675 9.37476H5.59546V7.33374C5.59546 6.43631 6.323 5.70874 7.22046 5.70874H9.14819V3.66675C9.14819 2.76938 9.87576 2.04187 10.7732 2.04175H12.3269C13.2243 2.04183 13.9519 2.76933 13.9519 3.66675V12.3337Z" fill="currentColor"/></svg>