<svg width="24" height="24" viewBox="0 0 16 16" fill="none" xmlns="http://www.w3.org/2000/svg"><path d="M7.99998 1.7002C8.05258 1.70021 8.10392 1.71465 8.14947 1.74097C8.19508 1.76735 8.23306 1.80514 8.25932 1.85082L9.03847 3.20074H12.3306C12.3831 3.20085 12.4346 3.21415 12.4801 3.24037C12.5256 3.26669 12.5636 3.30475 12.5899 3.35022L13.4563 4.84963C13.4826 4.89525 13.4971 4.94757 13.4971 5.00025C13.497 5.05276 13.4825 5.10422 13.4563 5.14974L12.6771 6.49966H12.6737L12.676 6.50079V6.50192L12.6771 6.50079L13.5344 7.98661L14.3215 9.35012C14.3481 9.39566 14.3623 9.44801 14.3623 9.50074C14.3622 9.55328 14.348 9.60482 14.3215 9.65022L13.4551 11.1496C13.4018 11.2424 13.3029 11.3002 13.1958 11.3002H11.6375L11.6386 11.2923L9.99089 14.1507C9.9645 14.196 9.92647 14.2332 9.88103 14.2594C9.83547 14.2857 9.78414 14.3001 9.73155 14.3002H7.99998C7.9474 14.3002 7.89492 14.2868 7.84936 14.2606C7.80384 14.2343 7.76586 14.1962 7.73951 14.1507L6.96036 12.8008L6.95923 12.7997L3.6705 12.8008C3.61777 12.801 3.56552 12.7864 3.51988 12.76C3.47431 12.7336 3.43612 12.6959 3.41003 12.6502L2.54481 11.1508C2.51843 11.1052 2.50404 11.0528 2.50404 11.0001C2.50407 10.9475 2.51849 10.8962 2.54481 10.8507L3.32396 9.50074L3.32736 9.50413L1.67846 6.65028C1.65217 6.60464 1.6377 6.55233 1.6377 6.49966C1.6377 6.44714 1.65231 6.3957 1.67846 6.35017L2.54481 4.84963C2.57116 4.80426 2.60921 4.766 2.65466 4.73978C2.70012 4.71368 2.75173 4.70015 2.80415 4.70014H4.36245L4.36358 4.70127V4.69788L4.36245 4.69901L5.22087 3.21433L6.00795 1.84968C6.03412 1.80406 6.07223 1.76611 6.1178 1.73983C6.16324 1.71366 6.21485 1.70006 6.26728 1.7002H7.99998ZM10.4133 6.79184L7.15515 12.4939H7.15402L8.02263 13.991L11.4575 7.98434L12.3283 9.47922L14.0542 9.47129L12.4891 6.78504L10.4133 6.79184ZM2.79962 5.02403L6.2854 11.0024L4.55497 11.0092L3.69881 12.5075L7.14722 12.4939L6.80974 12.495L7.83804 10.6944L5.57647 6.81335L5.40207 6.51438H5.40093L4.53119 5.02063L2.79962 5.02403ZM4.70333 4.72053L5.74747 6.51211L10.5843 6.49286H10.5832L12.3147 6.48607L13.1766 4.98553L6.25709 5.01384L7.11551 3.51217L6.2469 2.02069L4.70333 4.72053Z" fill="#31353A"/></svg>