<svg xmlns="http://www.w3.org/2000/svg" width="24" height="24" fill="none" viewBox="0 0 16 16"><path fill="#7864ff" d="M8.001 1.7a.3.3 0 0 1 .26.15l.778 1.35h3.293a.3.3 0 0 1 .259.15l.866 1.5a.3.3 0 0 1 .041.15.3.3 0 0 1-.04.15l-.78 1.35h-.003.002v.002l.001-.001.857 1.486.787 1.363a.3.3 0 0 1 0 .3l-.866 1.5a.3.3 0 0 1-.26.15H11.64v-.008l-1.647 2.859a.3.3 0 0 1-.26.15H8.002a.3.3 0 0 1-.26-.15l-.78-1.35V12.8H3.67a.3.3 0 0 1-.26-.15l-.865-1.5a.3.3 0 0 1 0-.3l.779-1.35.003.004L1.68 6.65a.3.3 0 0 1 0-.3l.867-1.5a.3.3 0 0 1 .26-.15h1.557l.002.001v-.003l-.002.001.859-1.485.787-1.364a.3.3 0 0 1 .26-.15zm2.413 5.092-3.258 5.702h-.001l.869 1.497 3.434-6.007.871 1.495 1.726-.008-1.565-2.686zM2.801 5.024l3.485 5.978-1.73.007-.856 1.499 3.448-.014-.337.001 1.028-1.8-2.262-3.882-.174-.299h-.001l-.87-1.493zm1.903-.303 1.044 1.791 4.837-.02 1.73-.006.863-1.5-6.92.028.858-1.502-.868-1.491z"/></svg>