<svg width="24" height="24" viewBox="0 0 16 16" fill="currentColor" xmlns="http://www.w3.org/2000/svg"><path d="M4 11C4.26522 11 4.51949 11.1054 4.70703 11.293C4.89457 11.4805 5 11.7348 5 12V13C5 13.2652 4.89457 13.5195 4.70703 13.707C4.51949 13.8946 4.26522 14 4 14H3C2.73478 14 2.48051 13.8946 2.29297 13.707C2.10543 13.5195 2 13.2652 2 13V12C2 11.7348 2.10543 11.4805 2.29297 11.293C2.48051 11.1054 2.73478 11 3 11H4ZM10.333 2.375C10.6782 2.375 10.958 2.65482 10.958 3V5.25L12.9072 4.125C13.206 3.9525 13.588 4.05497 13.7607 4.35352C13.9333 4.65239 13.831 5.03439 13.5322 5.20703L11.583 6.33203L13.5322 7.45801C13.831 7.63053 13.933 8.01267 13.7607 8.31152C13.5882 8.61037 13.2061 8.7134 12.9072 8.54102L10.958 7.41504V9.66699C10.9578 10.012 10.6781 10.292 10.333 10.292C9.98805 10.2919 9.70818 10.0119 9.70801 9.66699V7.41504L7.75879 8.54102C7.4599 8.71339 7.07781 8.61036 6.90527 8.31152C6.73317 8.01271 6.83512 7.63051 7.13379 7.45801L9.08301 6.33203L7.13379 5.20703C6.83514 5.03434 6.73275 4.65232 6.90527 4.35352C7.0779 4.05493 7.46001 3.95269 7.75879 4.125L9.70801 5.25V3C9.70801 2.6549 9.98794 2.37513 10.333 2.375Z" fill="currentColor"/></svg>