<svg width="24" height="24" viewBox="0 0 16 16" fill="currentColor" xmlns="http://www.w3.org/2000/svg"><path d="M13.3337 7.37463C13.6786 7.37481 13.9585 7.65473 13.9587 7.99963C13.9587 11.2903 11.2905 13.9576 7.99976 13.9576C6.45541 13.9575 5.0246 13.3676 3.95093 12.401V13.3336C3.95075 13.6785 3.67077 13.9584 3.32593 13.9586C2.98086 13.9586 2.7011 13.6786 2.70093 13.3336V10.6666C2.70093 10.3214 2.98075 10.0416 3.32593 10.0416H5.99292C6.33772 10.0421 6.61792 10.3217 6.61792 10.6666C6.61792 11.0115 6.33772 11.2912 5.99292 11.2916H4.59644C5.46314 12.1639 6.67927 12.7075 7.99976 12.7076C10.6001 12.7076 12.7087 10.6 12.7087 7.99963C12.7089 7.65466 12.9887 7.3747 13.3337 7.37463ZM12.6667 2.04163C13.0118 2.0418 13.2917 2.32156 13.2917 2.66663V5.33362C13.2916 5.67854 13.0117 5.95844 12.6667 5.95862H9.99976C9.6548 5.95849 9.37493 5.67857 9.37476 5.33362C9.37476 4.98852 9.65469 4.70875 9.99976 4.70862H11.405C10.538 3.83572 9.32065 3.29163 7.99976 3.29163C5.39967 3.2918 3.29192 5.39955 3.29175 7.99963C3.29175 8.34481 3.01193 8.62463 2.66675 8.62463C2.32157 8.62463 2.04175 8.34481 2.04175 7.99963C2.04192 4.70919 4.70932 2.0418 7.99976 2.04163C9.54043 2.04163 10.969 2.62813 12.0417 3.59045V2.66663C12.0417 2.32153 12.3217 2.04176 12.6667 2.04163Z" fill="currentColor"/></svg>