<svg width="24" height="24" viewBox="0 0 16 16" fill="currentColor" xmlns="http://www.w3.org/2000/svg"><path d="M5.40234 9.61719C5.79526 9.61719 6.10569 9.71463 6.33398 9.90918C6.56603 10.1001 6.68261 10.358 6.68262 10.6836V12.7607H5.86816V12.2559H5.85059C5.81514 12.3983 5.73878 12.5185 5.62109 12.6152C5.45646 12.7497 5.23571 12.8174 4.95898 12.8174C4.64835 12.8174 4.40116 12.7329 4.21777 12.5645C4.03824 12.3961 3.94834 12.1678 3.94824 11.8799C3.94824 11.5692 4.05522 11.3307 4.26855 11.166C4.48558 10.9977 4.79624 10.9141 5.2002 10.9141H5.84082V10.6836C5.84082 10.5638 5.79702 10.4686 5.71094 10.3975C5.62861 10.3264 5.51618 10.291 5.37402 10.291C5.24322 10.2911 5.13482 10.321 5.04883 10.3809C4.96286 10.4407 4.9103 10.5232 4.8916 10.6279H4.07715C4.11083 10.3173 4.24567 10.0712 4.48145 9.8916C4.72094 9.70824 5.02816 9.61722 5.40234 9.61719ZM8.45996 9.61719C8.86782 9.61719 9.19327 9.72003 9.43652 9.92578C9.67974 10.1316 9.8092 10.4121 9.82422 10.7676H8.98242C8.97116 10.6367 8.91864 10.5338 8.8252 10.459C8.73537 10.3841 8.61341 10.3467 8.45996 10.3467C8.29158 10.3467 8.16208 10.3895 8.07227 10.4756C7.98256 10.5616 7.93759 10.6872 7.9375 10.8516V11.582C7.93753 11.7428 7.9826 11.8682 8.07227 11.958C8.16208 12.0441 8.29158 12.0869 8.45996 12.0869C8.61341 12.0869 8.73537 12.0516 8.8252 11.9805C8.91867 11.9056 8.9712 11.8007 8.98242 11.666H9.82422C9.80925 12.0216 9.6798 12.302 9.43652 12.5078C9.19325 12.7136 8.8679 12.8174 8.45996 12.8174C8.18678 12.8174 7.94704 12.7661 7.74121 12.665C7.53567 12.5603 7.37686 12.4165 7.26465 12.2334C7.15239 12.0463 7.09573 11.829 7.0957 11.582V10.8516C7.09577 10.601 7.15247 10.3844 7.26465 10.2012C7.37688 10.0179 7.53551 9.87546 7.74121 9.77441C7.94704 9.66963 8.18678 9.6172 8.45996 9.61719ZM5.2168 11.3906C5.08977 11.3907 4.9867 11.4282 4.9082 11.5029C4.82961 11.574 4.79102 11.6703 4.79102 11.79C4.79112 11.9171 4.83394 12.018 4.91992 12.0928C5.00599 12.1638 5.12381 12.1992 5.27344 12.1992C5.4381 12.1992 5.57295 12.1564 5.67773 12.0703C5.78612 11.9806 5.84071 11.8646 5.84082 11.7227V11.3906H5.2168ZM8.63867 1.85449C9.0319 1.85449 9.34284 1.95174 9.57129 2.14648C9.80335 2.33739 9.91982 2.59531 9.91992 2.9209V5H9.10547V4.49414H9.08691C9.0515 4.63669 8.97607 4.75667 8.8584 4.85352C8.69363 4.98832 8.4724 5.05565 8.19531 5.05566C7.88448 5.05566 7.63761 4.97126 7.4541 4.80273C7.27442 4.63427 7.18463 4.40637 7.18457 4.11816C7.18457 3.80741 7.29055 3.56907 7.50391 3.4043C7.72107 3.23581 8.03219 3.1514 8.43652 3.15137H9.07715V2.9209C9.07705 2.80132 9.03419 2.70582 8.94824 2.63477C8.86593 2.56368 8.75345 2.52839 8.61133 2.52832C8.48025 2.52832 8.37129 2.55824 8.28516 2.61816C8.19905 2.67808 8.14665 2.7604 8.12793 2.86523H7.31348C7.34718 2.5544 7.48184 2.30867 7.71777 2.12891C7.95735 1.94555 8.26443 1.85455 8.63867 1.85449ZM11.209 1.74121L11.1816 2.5H11.1973C11.2255 2.32695 11.2926 2.18591 11.4004 2.07812C11.5464 1.92847 11.7474 1.85352 12.002 1.85352C12.3126 1.85362 12.5619 1.9647 12.749 2.18555C12.9361 2.4027 13.0293 2.69475 13.0293 3.06152V3.84766C13.0293 4.21841 12.9363 4.51326 12.749 4.73047C12.5619 4.94755 12.3126 5.05556 12.002 5.05566C11.7473 5.05566 11.5464 4.98295 11.4004 4.83691C11.2926 4.72636 11.2255 4.58394 11.1973 4.41016H11.1816V5H10.3672V0.898438H11.209V1.74121ZM8.4541 3.62891C8.3268 3.62891 8.22317 3.66635 8.14453 3.74121C8.06589 3.81237 8.02637 3.90848 8.02637 4.02832C8.02644 4.15549 8.07019 4.25622 8.15625 4.33105C8.24237 4.40216 8.36003 4.43847 8.50977 4.43848C8.67455 4.43848 8.8092 4.39473 8.91406 4.30859C9.02257 4.21879 9.07705 4.10308 9.07715 3.96094V3.62891H8.4541ZM11.6982 2.58398C11.5448 2.58398 11.425 2.62903 11.3389 2.71875C11.2527 2.80489 11.209 2.92881 11.209 3.08984V3.82031C11.209 3.98121 11.2528 4.10646 11.3389 4.19629C11.425 4.28239 11.5447 4.3252 11.6982 4.3252C11.8555 4.32518 11.9752 4.28241 12.0576 4.19629C12.1437 4.10646 12.1865 3.9812 12.1865 3.82031V3.08984C12.1865 2.92881 12.1438 2.80489 12.0576 2.71875C11.9752 2.629 11.8554 2.584 11.6982 2.58398Z" fill="currentColor"/><path d="M10.3115 13.7744V14.7744H3.4043V13.7744H10.3115ZM11.3115 12.7744V9.64746C11.3115 9.09518 10.8638 8.64746 10.3115 8.64746H3.4043C2.85201 8.64746 2.4043 9.09518 2.4043 9.64746V12.7744C2.4043 13.3267 2.85201 13.7744 3.4043 13.7744V14.7744L3.2002 14.7637C2.25864 14.6682 1.5105 13.9201 1.41504 12.9785L1.4043 12.7744V9.64746C1.4043 8.54289 2.29973 7.64746 3.4043 7.64746H10.3115C11.4161 7.64746 12.3115 8.54289 12.3115 9.64746V12.7744C12.3115 13.879 11.4161 14.7744 10.3115 14.7744V13.7744C10.8638 13.7744 11.3115 13.3267 11.3115 12.7744Z" fill="currentColor"/><path d="M13.5471 11.7383V7.59082C13.5471 7.03854 13.0994 6.59082 12.5471 6.59082H6.76392C6.48777 6.59082 6.26392 6.36696 6.26392 6.09082C6.26392 5.81468 6.48777 5.59082 6.76392 5.59082H12.5471C13.6517 5.59082 14.5471 6.48625 14.5471 7.59082V11.7383C14.5471 12.0144 14.3233 12.2383 14.0471 12.2383C13.771 12.2382 13.5471 12.0144 13.5471 11.7383Z" fill="currentColor"/><path d="M3.86133 5.62793V3.80371C3.86133 3.47234 4.13054 3.2041 4.46191 3.2041H5.93066C6.15158 3.2041 6.33105 3.02462 6.33105 2.80371C6.33105 2.5828 6.15158 2.40332 5.93066 2.40332H4.46191C3.68872 2.40332 3.06152 3.03051 3.06152 3.80371V5.62793C3.06152 5.84884 3.241 6.02832 3.46191 6.02832C3.68275 6.02823 3.86133 5.84879 3.86133 5.62793Z" fill="currentColor"/><path d="M1.48116 4.54195C1.63735 4.38575 1.89134 4.38576 2.04756 4.54195L3.36885 5.86324L4.69112 4.54292C4.84735 4.38675 5.10036 4.38669 5.25655 4.54292C5.41267 4.69913 5.41267 4.95217 5.25655 5.10835L3.65205 6.71284C3.49593 6.86877 3.2428 6.86869 3.08662 6.71284L1.48116 5.10835C1.32496 4.95216 1.32497 4.69816 1.48116 4.54195Z" fill="currentColor"/></svg>