<svg width="24" height="24" viewBox="0 0 16 16" fill="currentColor" xmlns="http://www.w3.org/2000/svg"><path d="M7.99951 8.92822C8.44826 8.92822 8.8071 9.04163 9.07471 9.26807C9.34206 9.49441 9.48396 9.80302 9.50049 10.1938H8.57373C8.56131 10.0499 8.50371 9.93725 8.40088 9.85498C8.30208 9.77266 8.16829 9.73096 7.99951 9.73096C7.81444 9.73102 7.67247 9.77891 7.57373 9.87354C7.47514 9.96818 7.42533 10.1057 7.42529 10.2866V11.0894C7.42529 11.2664 7.47493 11.4046 7.57373 11.5034C7.67247 11.598 7.81444 11.645 7.99951 11.645C8.16823 11.645 8.30209 11.606 8.40088 11.5278C8.5038 11.4455 8.56138 11.3303 8.57373 11.1821H9.50049C9.48402 11.5732 9.3423 11.8825 9.07471 12.1089C8.8071 12.3353 8.44826 12.4478 7.99951 12.4478C7.69919 12.4477 7.43578 12.3928 7.20947 12.2817C6.98304 12.1665 6.80759 12.0079 6.68408 11.8062C6.5606 11.6003 6.49951 11.361 6.49951 11.0894V10.2866C6.49954 10.0111 6.56078 9.77239 6.68408 9.5708C6.80759 9.36907 6.98304 9.21223 7.20947 9.10107C7.4358 8.98587 7.69916 8.92827 7.99951 8.92822ZM9.96826 2.32666L9.93701 3.16064H9.95459C9.98567 2.97058 10.0599 2.81621 10.1782 2.69775C10.3388 2.53304 10.5594 2.45074 10.8394 2.45068C11.1813 2.45068 11.4556 2.57189 11.6616 2.81494C11.8675 3.05385 11.9702 3.37518 11.9702 3.77881V4.64404C11.9702 5.0517 11.8674 5.37487 11.6616 5.61377C11.4556 5.8527 11.1813 5.97217 10.8394 5.97217C10.5594 5.97211 10.3388 5.8925 10.1782 5.73193C10.0596 5.6103 9.98564 5.45342 9.95459 5.26221H9.93701V5.91064H9.0415V1.3999H9.96826V2.32666ZM10.5063 3.25342C10.3376 3.25342 10.2056 3.30314 10.1108 3.40186C10.0161 3.4966 9.96826 3.63292 9.96826 3.81006V4.61279C9.96826 4.78993 10.0161 4.92799 10.1108 5.02686C10.2056 5.12158 10.3375 5.16943 10.5063 5.16943C10.6792 5.16937 10.8113 5.12154 10.9019 5.02686C10.9964 4.92801 11.0435 4.78973 11.0435 4.61279V3.81006C11.0435 3.63301 10.9965 3.4966 10.9019 3.40186C10.8113 3.30306 10.6792 3.25349 10.5063 3.25342Z" fill="currentColor"/><path d="M6.29443 4.45508V2.63086C6.29443 2.29959 6.56281 2.03141 6.89404 2.03125H7.60303C7.82394 2.03125 8.00342 1.85177 8.00342 1.63086C8.00342 1.40995 7.82394 1.23047 7.60303 1.23047H6.89404C6.12098 1.23063 5.49463 1.85776 5.49463 2.63086V4.45508C5.49463 4.6759 5.67326 4.85531 5.89404 4.85547C6.11496 4.85547 6.29443 4.67599 6.29443 4.45508Z" fill="currentColor"/><path d="M3.91377 3.36909C4.06997 3.2129 4.32396 3.21291 4.48018 3.36909L5.80147 4.69038L7.12373 3.37007C7.27997 3.2139 7.53298 3.21384 7.68916 3.37007C7.84528 3.52628 7.84529 3.77932 7.68916 3.9355L6.08467 5.53999C5.92855 5.69592 5.67542 5.69583 5.51924 5.53999L3.91377 3.9355C3.75758 3.77931 3.75759 3.52531 3.91377 3.36909Z" fill="currentColor"/><path d="M10.3118 13.7744V14.7744H5.70844V13.7744H10.3118ZM11.3118 12.7744V8.61621C11.3118 8.064 10.864 7.61633 10.3118 7.61621H5.70844C5.15617 7.61621 4.70847 8.06393 4.70847 8.61621V12.7744C4.70847 13.3267 5.15618 13.7744 5.70844 13.7744V14.7744L5.50435 14.7637C4.56282 14.6682 3.81469 13.9201 3.71924 12.9785L3.7085 12.7744V8.61621C3.7085 7.58056 4.4957 6.72922 5.50435 6.62695L5.70844 6.61621H10.3118L10.5159 6.62695C11.5245 6.72932 12.3118 7.58063 12.3118 8.61621V12.7744L12.301 12.9785C12.2056 13.92 11.4574 14.6681 10.5159 14.7637L10.3118 14.7744V13.7744C10.864 13.7743 11.3118 13.3266 11.3118 12.7744Z" fill="currentColor"/></svg>