<svg width="24" height="24" viewBox="0 0 16 16" fill="currentColor" xmlns="http://www.w3.org/2000/svg"><path d="M4.22412 1.55725C4.46812 1.31338 4.86483 1.31348 5.10889 1.55725C5.35293 1.80129 5.35285 2.19793 5.10889 2.44202L4.17627 3.37463H9.00049C11.7384 3.37497 13.9581 5.59476 13.9585 8.33264C13.9585 11.0709 11.7386 13.2913 9.00049 13.2916H4.00049C3.65542 13.2916 3.37566 13.0117 3.37549 12.6666C3.37569 12.3216 3.65543 12.0416 4.00049 12.0416H9.00049C11.0483 12.0413 12.7085 10.3805 12.7085 8.33264C12.7081 6.28511 11.0481 4.62497 9.00049 4.62463H4.17627L5.10889 5.55725C5.35293 5.80129 5.35285 6.19793 5.10889 6.44202C4.86481 6.68609 4.4682 6.68609 4.22412 6.44202L2.22412 4.44202C1.98031 4.19792 1.98013 3.80124 2.22412 3.55725L4.22412 1.55725Z" fill="currentColor"/></svg>