<svg width="24" height="24" viewBox="0 0 16 16" fill="currentColor" xmlns="http://www.w3.org/2000/svg"><path d="M13.3335 13.9086C13.6509 13.9084 13.9077 13.6508 13.9077 13.3334C13.9077 13.0159 13.6509 12.7584 13.3335 12.7582H9.14111C8.86653 9.62686 6.37299 7.13438 3.2417 6.85974V2.66638C3.24152 2.34897 2.98396 2.09216 2.6665 2.09216C2.34905 2.09216 2.09149 2.34897 2.09131 2.66638V12.3334C2.09131 13.2032 2.79666 13.9086 3.6665 13.9086H13.3335ZM3.6665 12.7582C3.43178 12.7582 3.2417 12.5681 3.2417 12.3334V8.01404C5.73737 8.28079 7.7191 10.2625 7.98584 12.7582H3.6665Z" fill="currentColor"/></svg>