<svg width="24" height="24" viewBox="0 0 16 16" fill="currentColor" xmlns="http://www.w3.org/2000/svg"><path d="M12.2221 4.88373C12.7097 4.88355 13.1048 4.48756 13.1049 3.99994V1.66693C13.1049 1.36318 12.8589 1.11713 12.5551 1.11713C12.2515 1.11731 12.0053 1.36329 12.0053 1.66693V3.07123L10.4311 1.49701C9.17497 0.241093 7.1384 0.240193 5.88225 1.49604L3.50041 3.87885C3.28565 4.09361 3.28569 4.4414 3.50041 4.65619C3.7152 4.87098 4.06297 4.87098 4.27776 4.65619L6.66057 2.27436C7.48714 1.44809 8.82721 1.44801 9.65373 2.27436L11.1625 3.78314H9.99944C9.69584 3.78333 9.44963 4.03028 9.44963 4.33393C9.44996 4.63729 9.69604 4.88355 9.99944 4.88373H12.2221ZM6.62053 14.4687C7.50575 15.3532 8.94064 15.3536 9.82561 14.4687L12.3578 11.9365C13.2426 11.0514 13.2426 9.61552 12.3578 8.73041L9.82561 6.19818C8.94051 5.31326 7.50472 5.31337 6.61955 6.19818L4.0883 8.73041C3.20312 9.6156 3.20312 11.0513 4.0883 11.9365L6.62053 14.4687ZM8.97698 13.6201C8.56052 14.0364 7.88475 14.0363 7.46819 13.6201L4.93596 11.0878C4.51958 10.6713 4.51952 9.99556 4.93596 9.57904L7.46819 7.04682C7.88472 6.63063 8.56051 6.63052 8.97698 7.04682L11.5092 9.57904C11.9253 9.99552 11.9253 10.6714 11.5092 11.0878L8.97698 13.6201Z" fill="currentColor"/></svg>