<svg width="24" height="24" viewBox="0 0 16 16" fill="currentColor" xmlns="http://www.w3.org/2000/svg"><path d="M8.51685 3.28687C8.51685 3.07976 8.34895 2.91187 8.14185 2.91187H3.29224C3.08513 2.91187 2.91724 3.07976 2.91724 3.28687V12.7029C2.91724 12.91 3.08513 13.0779 3.29224 13.0779H8.14185C8.34895 13.0779 8.51685 12.91 8.51685 12.7029V3.28687ZM6.85864 11.366C7.20382 11.366 7.48364 11.6458 7.48364 11.991C7.48358 12.3361 7.20378 12.616 6.85864 12.616H4.57544C4.23034 12.6159 3.9505 12.3361 3.95044 11.991C3.95044 11.6458 4.2303 11.366 4.57544 11.366H6.85864ZM9.76685 12.7029C9.76685 13.6003 9.03931 14.3279 8.14185 14.3279H3.29224C2.39477 14.3279 1.66724 13.6003 1.66724 12.7029V3.28687C1.66724 2.3894 2.39477 1.66187 3.29224 1.66187H8.14185C9.03931 1.66187 9.76685 2.3894 9.76685 3.28687V12.7029Z" fill="currentColor"/><path d="M9.14209 13.0784L12.7085 13.0784C12.9156 13.0784 13.0835 12.9105 13.0835 12.7034L13.0835 7.85376C13.0835 7.64665 12.9156 7.47876 12.7085 7.47876L9.14209 7.47876C8.79691 7.47876 8.51709 7.19894 8.51709 6.85376C8.51709 6.50858 8.79691 6.22876 9.14209 6.22876L12.7085 6.22876C13.606 6.22876 14.3335 6.9563 14.3335 7.85376L14.3335 12.7034C14.3335 13.6008 13.606 14.3284 12.7085 14.3284L9.14209 14.3284C8.79691 14.3284 8.51709 14.0485 8.51709 13.7034C8.51723 13.3583 8.797 13.0784 9.14209 13.0784Z" fill="currentColor"/><path d="M13.0837 5.14331C13.0837 3.91095 12.0847 2.91187 10.8523 2.91187C10.5071 2.91187 10.2273 2.63204 10.2273 2.28687C10.2273 1.94169 10.5071 1.66187 10.8523 1.66187C12.775 1.66187 14.3337 3.22059 14.3337 5.14331C14.3337 5.48845 14.0539 5.76828 13.7087 5.76831C13.3636 5.76831 13.0838 5.48846 13.0837 5.14331Z" fill="currentColor"/></svg>