<svg width="24" height="24" viewBox="0 0 24 24" fill="none" xmlns="http://www.w3.org/2000/svg"><path d="M15.7412 6.53811C17.1313 6.77873 17.5256 7.72886 17.4961 8.72436L17.5029 8.71026L16.8773 16.909L8.7514 17.4663C8.07627 17.4377 6.57168 17.3759 6.50293 15.2721L7.25677 13.8971L8.7792 17.4529L10.0648 13.2619L10.0511 13.265L10.0583 13.2512L14.3002 14.6059L13.6604 12.1168L13.2067 10.3293L17.2492 10.0684L16.9673 9.83467L14.0651 7.46864L15.7423 6.53333L15.7412 6.53811ZM8.85418 8.82507C10.4863 7.20567 12.5928 6.24866 13.4016 7.06506C14.2091 7.87941 13.3535 9.86319 11.7183 11.4816C10.0851 13.1003 8.00443 14.1095 7.1973 13.2952C6.38777 12.4809 7.21793 10.4459 8.8528 8.82645L8.85418 8.82507Z" fill="#CC342D"/></svg>