<svg width="24" height="24" viewBox="0 0 16 16" fill="currentColor" xmlns="http://www.w3.org/2000/svg"><path d="M11 1.70801C12.4497 1.70801 13.6248 2.88344 13.625 4.33301V11.666C13.625 13.1158 12.4498 14.291 11 14.291H5C3.55026 14.291 2.375 13.1158 2.375 11.666V4.33301C2.3752 2.88343 3.55038 1.70801 5 1.70801H11ZM5 2.95801C4.24073 2.95801 3.6252 3.57379 3.625 4.33301V11.666C3.625 12.4254 4.2406 13.041 5 13.041H5.375V2.95801H5ZM6.625 13.041H11C11.7594 13.041 12.375 12.4254 12.375 11.666V4.33301C12.3748 3.57378 11.7593 2.95801 11 2.95801H6.625V13.041ZM10.334 7.375C10.6789 7.37531 10.959 7.65501 10.959 8C10.959 8.34499 10.6789 8.62469 10.334 8.625H8.66699C8.32181 8.625 8.04199 8.34518 8.04199 8C8.04199 7.65482 8.32181 7.375 8.66699 7.375H10.334ZM10.334 4.70801C10.6788 4.70832 10.9588 4.98819 10.959 5.33301C10.959 5.678 10.6789 5.9577 10.334 5.95801H8.66699C8.32181 5.95801 8.04199 5.67819 8.04199 5.33301C8.04219 4.988 8.32194 4.70801 8.66699 4.70801H10.334Z" fill="currentColor"/></svg>