<svg width="24" height="24" viewBox="0 0 16 16" fill="currentColor" xmlns="http://www.w3.org/2000/svg"><path d="M2.66699 2.70801C3.01196 2.70814 3.29183 2.98805 3.29199 3.33301V8C3.29217 8.75927 3.90771 9.375 4.66699 9.375H11.8252L10.2246 7.77539C9.98055 7.53131 9.98054 7.1347 10.2246 6.89062C10.4687 6.64686 10.8654 6.64666 11.1094 6.89062L13.7754 9.55762C14.0194 9.80159 14.0192 10.1973 13.7754 10.4414L11.1094 13.1084C10.8653 13.3525 10.4687 13.3525 10.2246 13.1084C9.98082 12.8644 9.98092 12.4687 10.2246 12.2246L11.8232 10.625H4.66699C3.21736 10.625 2.04217 9.44964 2.04199 8V3.33301C2.04216 2.98797 2.32192 2.70801 2.66699 2.70801Z" fill="currentColor"/></svg>