<svg width="24" height="24" viewBox="0 0 24 24" fill="none" xmlns="http://www.w3.org/2000/svg"><path d="M15.7405 16.8978C15.7405 16.9582 15.7394 17.0186 15.7407 17.079C15.7415 17.1141 15.7478 17.149 15.7488 17.1842C15.7501 17.2214 15.7551 17.2602 15.7465 17.2956C15.7186 17.4117 15.6004 17.4726 15.4877 17.4273C15.3799 17.3838 15.2748 17.3336 15.1688 17.2854C15.1006 17.2545 15.0329 17.2227 14.9655 17.1899C14.9192 17.1675 14.8796 17.1678 14.8317 17.1956C14.7736 17.2292 14.7476 17.2711 14.738 17.337C14.7122 17.5177 14.6799 17.6975 14.6482 17.8774C14.6297 17.9813 14.524 18.0472 14.4225 18.0167C14.3816 18.0045 14.3415 17.9834 14.3063 17.9587C14.1684 17.8618 14.0327 17.7621 13.8963 17.6632C13.8003 17.5937 13.6896 17.6293 13.648 17.742C13.5839 17.9157 13.5181 18.0886 13.453 18.2617C13.4311 18.3202 13.3913 18.3621 13.3301 18.3749C13.2556 18.3905 13.1851 18.3814 13.1291 18.3213C13.0141 18.1982 12.899 18.0755 12.7837 17.9527C12.7694 17.9376 12.7538 17.9235 12.7407 17.9073C12.7118 17.8719 12.6754 17.8621 12.6304 17.8623C12.5707 17.8629 12.5298 17.8826 12.4978 17.9363C12.4052 18.0917 12.3075 18.2442 12.2125 18.3981C12.1537 18.4933 12.0441 18.5262 11.9423 18.478C11.9072 18.4614 11.8824 18.4356 11.8624 18.4025C11.7671 18.2463 11.6708 18.0906 11.5742 17.9352C11.5367 17.8746 11.4539 17.8441 11.3852 17.866C11.3704 17.8707 11.3566 17.8826 11.3453 17.8941C11.2295 18.0164 11.1145 18.1393 10.9991 18.2619C10.9806 18.2817 10.9611 18.3004 10.9434 18.321C10.8635 18.4134 10.6722 18.4082 10.6151 18.2562C10.5774 18.1549 10.5389 18.0539 10.5014 17.9527C10.4746 17.8805 10.4446 17.8092 10.4235 17.7355C10.3926 17.6265 10.2512 17.6064 10.1833 17.658C10.1385 17.6918 10.094 17.7262 10.0481 17.7587C9.93959 17.836 9.83104 17.9128 9.7217 17.9888C9.67925 18.0183 9.6319 18.0326 9.58008 18.0235C9.49027 18.0081 9.43427 17.9534 9.41764 17.8576C9.38612 17.6757 9.35671 17.4932 9.32885 17.3107C9.31244 17.2032 9.20702 17.1438 9.10785 17.1896C8.94175 17.2664 8.77539 17.3427 8.60958 17.4198C8.53539 17.4541 8.46327 17.4554 8.39896 17.4013C8.33207 17.3451 8.30236 17.2729 8.32451 17.1844C8.32789 17.1704 8.3292 17.1558 8.32945 17.1412C8.33258 16.9874 8.33595 16.8335 8.33777 16.6796C8.33882 16.5675 8.24695 16.4959 8.13811 16.5219C7.98062 16.5597 7.82338 16.5984 7.66563 16.6346C7.62343 16.6442 7.57946 16.6492 7.53624 16.6505C7.44328 16.6536 7.36233 16.5711 7.36626 16.481C7.36858 16.4245 7.37457 16.3701 7.38863 16.3152C7.42766 16.1624 7.46438 16.0088 7.49953 15.8549C7.51721 15.7773 7.44459 15.6865 7.35841 15.6823C7.28397 15.6787 7.20902 15.6852 7.13428 15.6873C7.11972 15.6878 7.10512 15.6891 7.09081 15.6891C6.97628 15.6891 6.8612 15.6818 6.74743 15.6912C6.63213 15.7008 6.53241 15.5532 6.58056 15.4457C6.60529 15.3908 6.62872 15.3353 6.65374 15.2804C6.7097 15.1572 6.76646 15.0346 6.82242 14.9118C6.86407 14.8204 6.80055 14.7082 6.70007 14.6931C6.5298 14.6673 6.35956 14.6407 6.18928 14.6145C6.17497 14.6121 6.16092 14.608 6.14686 14.6048C5.99249 14.5731 5.96464 14.4476 6.0068 14.3338C6.01827 14.3031 6.03727 14.2745 6.05651 14.2477C6.15598 14.1092 6.25697 13.9717 6.35694 13.8335C6.41032 13.7595 6.3796 13.6507 6.29473 13.6177C6.11066 13.5461 5.92531 13.4776 5.74203 13.4042C5.61657 13.354 5.58534 13.1936 5.67877 13.0949C5.70456 13.0676 5.73085 13.041 5.75845 13.0155C5.8761 12.9072 5.99511 12.8 6.11222 12.6911C6.16822 12.6394 6.16379 12.5399 6.10365 12.4842C6.08567 12.4675 6.06356 12.4545 6.04246 12.4415C5.89383 12.3499 5.7449 12.2585 5.59601 12.1671C5.46246 12.0854 5.47391 11.9026 5.59521 11.8308C5.75456 11.7365 5.911 11.6376 6.06875 11.5408C6.138 11.4983 6.16455 11.4465 6.14893 11.3708C6.1445 11.35 6.12994 11.3286 6.11433 11.3135C6.02634 11.2279 5.93679 11.144 5.84749 11.06C5.79309 11.0086 5.73659 10.9595 5.684 10.9061C5.57985 10.8009 5.61864 10.6335 5.75768 10.5809C5.92088 10.5192 6.08437 10.4578 6.24785 10.3963C6.25751 10.3927 6.26688 10.3875 6.27701 10.3854C6.35669 10.3701 6.37281 10.3063 6.38116 10.2417C6.38429 10.2183 6.3723 10.1886 6.35799 10.1683C6.26194 10.0324 6.16328 9.89837 6.06537 9.76375C6.03102 9.7164 5.99899 9.66901 5.99093 9.60837C5.9792 9.52063 6.02241 9.41779 6.13256 9.40007C6.25958 9.37951 6.38559 9.35373 6.51236 9.33187C6.5798 9.32018 6.64774 9.31182 6.71569 9.30271C6.74587 9.29857 6.77165 9.28764 6.79013 9.26236C6.83621 9.19885 6.85027 9.13559 6.81225 9.05933C6.7378 8.91066 6.6691 8.75916 6.60061 8.60766C6.57769 8.55689 6.56026 8.50405 6.57562 8.44519C6.59723 8.36217 6.65737 8.30487 6.7438 8.30436C6.8539 8.3036 6.96379 8.31166 7.07389 8.31398C7.17593 8.31609 7.27772 8.31685 7.37977 8.31609C7.40762 8.31609 7.42715 8.29837 7.44745 8.27782C7.50498 8.21975 7.50498 8.1591 7.48366 8.08386C7.44016 7.93 7.40635 7.77356 7.37145 7.61737C7.36339 7.58167 7.36909 7.54289 7.36676 7.50592C7.36103 7.41924 7.45425 7.34243 7.53287 7.34556C7.57815 7.34741 7.62398 7.35235 7.66821 7.36223C7.83667 7.39919 8.0043 7.43852 8.17221 7.47756C8.20711 7.48562 8.23754 7.48304 8.26358 7.45465C8.2748 7.44241 8.28885 7.43278 8.30236 7.42342C8.32633 7.40649 8.33831 7.38332 8.33777 7.35442C8.33465 7.17975 8.33152 7.00508 8.32764 6.83066C8.32684 6.79159 8.31645 6.75124 8.32346 6.71402C8.34507 6.59919 8.44867 6.53492 8.56168 6.56538C8.6114 6.57889 8.65929 6.6005 8.70639 6.62185C8.83865 6.6825 8.97011 6.74525 9.10185 6.80669C9.20284 6.85383 9.31088 6.79289 9.32885 6.68174C9.35751 6.5034 9.38823 6.3256 9.41764 6.14726C9.4317 6.06189 9.47309 6.00175 9.56028 5.97677C9.60793 5.96297 9.65245 5.97027 9.69229 5.99395C9.75812 6.03327 9.82218 6.0762 9.88464 6.12072C9.98462 6.19204 10.083 6.26547 10.1814 6.33864C10.2626 6.39903 10.3811 6.36649 10.4181 6.2712C10.4871 6.09287 10.5542 5.91376 10.6232 5.73542C10.6321 5.71255 10.6435 5.68909 10.6594 5.67115C10.7154 5.60764 10.8221 5.59329 10.8937 5.63988C10.9213 5.65786 10.9476 5.67946 10.9702 5.70343C11.0715 5.81067 11.1712 5.9195 11.2717 6.02754C11.2915 6.04889 11.3131 6.06864 11.3326 6.09025C11.3675 6.12878 11.4081 6.1392 11.4607 6.13506C11.5156 6.13063 11.5476 6.10536 11.5744 6.06138C11.67 5.90516 11.7767 5.75522 11.8608 5.59304C11.923 5.47251 12.1375 5.46392 12.2135 5.59772C12.2937 5.73855 12.383 5.87447 12.4684 6.01243C12.4739 6.02129 12.4809 6.02935 12.4851 6.03872C12.5137 6.10459 12.5595 6.13764 12.635 6.13532C12.6683 6.13426 12.6965 6.13165 12.7197 6.10848C12.7475 6.08037 12.7738 6.05096 12.8009 6.02205C12.9019 5.91456 13.0031 5.80678 13.1044 5.69951C13.1432 5.65837 13.183 5.62169 13.2445 5.61388C13.333 5.60295 13.4189 5.64616 13.4452 5.71567C13.5092 5.88486 13.5753 6.05303 13.6365 6.22305C13.6597 6.28733 13.6893 6.33915 13.7586 6.36101C13.8034 6.37532 13.8422 6.37274 13.8815 6.34358C14.0137 6.24593 14.1462 6.14883 14.2813 6.05513C14.3266 6.02361 14.3769 5.995 14.4292 5.97858C14.5219 5.94968 14.6192 6.00749 14.6398 6.10249C14.6674 6.23031 14.6888 6.35945 14.7117 6.48804C14.7255 6.56564 14.7369 6.64346 14.7494 6.72132C14.7504 6.72731 14.7518 6.73356 14.7544 6.73926C14.7778 6.79315 14.8929 6.83948 14.9465 6.81501C15.1167 6.7377 15.2867 6.65933 15.457 6.58176C15.5033 6.56066 15.5515 6.55079 15.6025 6.56121C15.7337 6.58826 15.7637 6.71453 15.7504 6.80669C15.7462 6.83534 15.7413 6.86396 15.7407 6.89261C15.7384 7.04048 15.7371 7.18806 15.7363 7.33593C15.7358 7.41612 15.8139 7.48874 15.8946 7.48094C15.9295 7.47756 15.9636 7.46663 15.9979 7.45857C16.1476 7.42342 16.2971 7.38721 16.4468 7.35311C16.4767 7.34636 16.5085 7.3448 16.5394 7.3453C16.6342 7.34687 16.6977 7.41768 16.704 7.51246C16.7102 7.60876 16.6764 7.69701 16.6581 7.78812C16.6363 7.898 16.6087 8.0068 16.5811 8.11564C16.5702 8.1586 16.5738 8.19945 16.5923 8.23722C16.6162 8.28588 16.6508 8.31972 16.7136 8.3166C16.8568 8.30984 17.0002 8.30643 17.1437 8.30411C17.2124 8.3028 17.2811 8.30331 17.3496 8.30828C17.4592 8.31634 17.5336 8.44363 17.4902 8.55141C17.4467 8.65919 17.3977 8.76515 17.3501 8.87137C17.3176 8.94345 17.2842 9.01506 17.2491 9.08562C17.2311 9.12154 17.2249 9.15484 17.2478 9.19079C17.2556 9.20277 17.2595 9.21733 17.2647 9.23088C17.2822 9.27642 17.3155 9.29752 17.3637 9.30456C17.5258 9.32798 17.6878 9.35373 17.8497 9.37875C17.8744 9.38264 17.8986 9.38812 17.9233 9.39175C18.0686 9.41285 18.1272 9.57241 18.0553 9.68906C18.0194 9.74738 17.978 9.80228 17.9379 9.85799C17.865 9.95927 17.7911 10.06 17.7182 10.1613C17.6615 10.2402 17.6911 10.3459 17.7807 10.38C17.9244 10.4349 18.0689 10.4877 18.2128 10.5416C18.2516 10.5562 18.2907 10.5711 18.3289 10.5869C18.469 10.6452 18.487 10.8165 18.387 10.9115C18.2482 11.0433 18.1074 11.1727 17.9668 11.3023C17.8994 11.3643 17.9061 11.4778 17.9832 11.5259C18.142 11.6249 18.3014 11.7233 18.4612 11.8209C18.5052 11.8477 18.5419 11.8803 18.5598 11.9292C18.5937 12.0213 18.5617 12.1132 18.4755 12.1668C18.3289 12.2582 18.1816 12.3481 18.0345 12.4384C18.0238 12.4449 18.0129 12.4509 18.0025 12.4576C17.9051 12.5175 17.8931 12.6302 17.978 12.7091C18.0983 12.8208 18.2201 12.9309 18.3409 13.0421C18.3609 13.0603 18.3797 13.0798 18.3987 13.0994C18.481 13.184 18.4633 13.3469 18.3461 13.4016C18.318 13.4149 18.2886 13.4253 18.2594 13.4362C18.098 13.4969 17.9364 13.5575 17.7747 13.6174C17.739 13.6307 17.7114 13.6484 17.7094 13.6911C17.7088 13.701 17.7021 13.7103 17.6981 13.72C17.6825 13.7575 17.6859 13.7908 17.7109 13.8252C17.8117 13.9629 17.9108 14.1016 18.0095 14.2406C18.0322 14.2727 18.0553 14.3057 18.0704 14.3416C18.1183 14.4559 18.0639 14.5705 17.9439 14.5994C17.8473 14.6228 17.7481 14.6363 17.65 14.6522C17.5558 14.6673 17.461 14.6788 17.3668 14.6936C17.2725 14.7084 17.2116 14.8108 17.2491 14.9003C17.3027 15.0287 17.3629 15.1544 17.4201 15.2814C17.443 15.3327 17.467 15.3835 17.4873 15.4358C17.5375 15.5652 17.4686 15.6782 17.3301 15.6909C17.2744 15.6961 17.2176 15.6935 17.1616 15.6922C17.0182 15.6888 16.875 15.6831 16.7316 15.6808C16.6235 15.679 16.5553 15.7672 16.5806 15.8729C16.6152 16.0163 16.6514 16.1593 16.6857 16.3027C16.7016 16.3691 16.7136 16.436 16.7042 16.5052C16.6935 16.5851 16.6321 16.6476 16.5512 16.6502C16.5079 16.6515 16.4637 16.6479 16.4215 16.639C16.3018 16.6133 16.1833 16.5831 16.0638 16.556C16.0133 16.5445 15.961 16.5388 15.9113 16.5245C15.8743 16.5138 15.8428 16.512 15.8121 16.5372C15.7746 16.5682 15.7392 16.6008 15.7379 16.6544C15.7369 16.694 15.7371 16.7335 15.7379 16.7731C15.7389 16.8148 15.7413 16.8562 15.7431 16.8978C15.7426 16.8978 15.742 16.8978 15.7415 16.8978H15.7405ZM16.7979 12.2999C16.8024 12.2338 16.8107 12.1721 16.8102 12.1104C16.8084 11.9294 16.7998 11.7488 16.8006 11.5678C16.8006 11.5009 16.7693 11.4705 16.7152 11.4471C16.5759 11.3869 16.4374 11.325 16.2986 11.2635C16.1619 11.2028 16.0247 11.1427 15.8889 11.0805C15.8186 11.0482 15.7673 10.9956 15.7342 10.9243C15.6879 10.8249 15.6949 10.7257 15.7345 10.6281C15.7829 10.5088 15.835 10.3909 15.8873 10.273C15.9784 10.0678 16.0706 9.86322 16.163 9.65859C16.1784 9.62423 16.1849 9.59221 16.1625 9.55836C16.075 9.42665 15.9928 9.29152 15.9003 9.1637C15.6991 8.88462 15.4739 8.62589 15.212 8.40172C14.8822 8.11952 14.5294 7.87091 14.1361 7.68295C13.7745 7.5101 13.4001 7.37708 13.006 7.29922C12.9383 7.28597 12.8912 7.29977 12.8441 7.34585C12.6907 7.49554 12.5361 7.64366 12.3807 7.79124C12.3219 7.84695 12.2643 7.90527 12.1987 7.95215C12.048 8.05964 11.8676 8.02478 11.7499 7.90501C11.5664 7.71811 11.3857 7.52807 11.2063 7.33699C11.1668 7.29479 11.1275 7.28727 11.0733 7.2982C10.8671 7.33986 10.6662 7.39738 10.4675 7.46663C10.2353 7.54732 10.0075 7.63687 9.79302 7.7582C9.60844 7.8626 9.42284 7.9654 9.2518 8.09218C9.05472 8.23849 8.86262 8.39104 8.68664 8.56259C8.62701 8.62066 8.57287 8.68392 8.51611 8.74456C8.50438 8.75734 8.49425 8.77034 8.51142 8.79064C8.5359 8.79064 8.56295 8.79064 8.58979 8.79064C10.2536 8.79064 11.9175 8.79064 13.5813 8.79064C13.6105 8.79064 13.6404 8.78832 13.6685 8.79457C13.8062 8.82474 13.9463 8.84871 14.0806 8.89142C14.3553 8.97861 14.601 9.11867 14.8155 9.31418C15.0295 9.50916 15.1891 9.73746 15.2683 10.0178C15.3555 10.3276 15.3313 10.6273 15.1763 10.9121C15.0616 11.1232 14.9043 11.2997 14.7182 11.4499C14.6179 11.5309 14.512 11.6048 14.4076 11.6801C14.3475 11.7235 14.3462 11.7303 14.4047 11.7785C14.456 11.8206 14.5078 11.8625 14.5589 11.905C14.7143 12.0346 14.8429 12.1856 14.9262 12.3715C15.0097 12.5581 15.073 12.751 15.1011 12.9544C15.1118 13.0309 15.1362 13.102 15.2006 13.1491C15.2487 13.1845 15.3003 13.2181 15.3549 13.2407C15.5302 13.3136 15.7079 13.3063 15.8842 13.2417C16.0242 13.1905 16.1253 13.097 16.1838 12.9593C16.22 12.8739 16.2333 12.7838 16.2356 12.6919C16.238 12.5982 16.2372 12.5045 16.2403 12.4111C16.2429 12.334 16.2656 12.3124 16.3416 12.3069C16.3562 12.3059 16.3707 12.3067 16.3853 12.3067C16.4936 12.3067 16.6019 12.3072 16.7102 12.3064C16.7388 12.3064 16.7677 12.3022 16.7979 12.2999ZM8.20555 14.7842C8.2248 14.8162 8.23315 14.8358 8.24615 14.8511C8.35211 14.9766 8.45909 15.1008 8.56531 15.226C8.59603 15.2622 8.63064 15.2684 8.67647 15.2583C8.91752 15.2036 9.15988 15.1552 9.40018 15.0982C9.56628 15.0588 9.78496 15.1547 9.82636 15.3652C9.86147 15.5446 9.90367 15.7224 9.94271 15.901C9.96613 16.0085 9.9901 16.116 10.0127 16.2236C10.0198 16.2571 10.0383 16.2787 10.07 16.2918C10.1703 16.3324 10.2689 16.3764 10.3702 16.4144C10.6021 16.5013 10.8393 16.5687 11.0827 16.6159C11.2909 16.6562 11.499 16.6942 11.7111 16.7012C11.8775 16.7067 12.0441 16.7052 12.2107 16.7054C12.2794 16.7054 12.3484 16.7072 12.4166 16.7002C12.6642 16.6747 12.9115 16.644 13.1534 16.5828C13.4296 16.513 13.7003 16.4256 13.9624 16.3126C13.9999 16.2965 14.0148 16.2689 14.0223 16.2321C14.0442 16.1244 14.065 16.0161 14.0889 15.9088C14.1298 15.7263 14.1723 15.5443 14.2147 15.3624C14.2303 15.2957 14.2637 15.2408 14.3167 15.1955C14.418 15.1091 14.5344 15.0987 14.6573 15.1239C14.8931 15.1726 15.1287 15.2229 15.364 15.2741C15.4203 15.2864 15.4645 15.2775 15.5031 15.2314C15.6137 15.0992 15.7269 14.9693 15.8384 14.8376C15.8503 14.8233 15.8561 14.8037 15.8696 14.7767H15.7834C15.1607 14.7767 14.5383 14.7764 13.9156 14.7767C13.7904 14.7767 13.6777 14.7413 13.5803 14.6626C13.398 14.5155 13.2632 14.3323 13.1869 14.1112C13.108 13.8832 13.0703 13.644 13.0146 13.4099C12.9834 13.2787 12.9633 13.1446 12.9274 13.0147C12.8818 12.8513 12.7936 12.7104 12.6626 12.6C12.521 12.4806 12.351 12.4342 12.1709 12.4324C11.7918 12.4282 11.4128 12.4308 11.034 12.4314C10.9614 12.4314 10.951 12.4425 10.951 12.5144C10.951 12.7435 10.951 12.9726 10.951 13.2017C10.951 13.2794 10.99 13.3184 11.0681 13.3185C11.4055 13.3185 11.7429 13.3185 12.0803 13.3185H12.1568C12.1711 13.8036 12.1709 14.2825 12.1605 14.7654C12.111 14.7696 12.0701 14.7761 12.029 14.7761C11.4459 14.7769 10.863 14.7767 10.2798 14.7767C9.6238 14.7767 8.96804 14.7767 8.31202 14.7769C8.28181 14.7769 8.25163 14.7808 8.20657 14.7842H8.20555ZM8.81287 13.2615V13.179C8.81287 12.2254 8.81287 11.2721 8.81287 10.3185C8.81287 10.306 8.81316 10.2935 8.81287 10.281C8.81131 10.2282 8.80404 10.2199 8.75066 10.2196C8.57156 10.2191 8.39271 10.2191 8.21361 10.2196C8.15086 10.2196 8.13706 10.243 8.16284 10.3021C8.1777 10.3365 8.19513 10.3695 8.20998 10.4039C8.24666 10.4898 8.28548 10.5749 8.31801 10.6624C8.36017 10.7762 8.30966 10.9839 8.15947 11.0519C7.89837 11.1703 7.63672 11.2877 7.37483 11.4044C7.29257 11.4411 7.27591 11.4627 7.27591 11.5559C7.27591 11.8224 7.27591 12.0888 7.27591 12.3553C7.27591 12.3824 7.27747 12.4095 7.2811 12.4363C7.29232 12.5207 7.30612 12.6045 7.31676 12.6888C7.33866 12.8643 7.37744 13.0361 7.42559 13.2061C7.43652 13.2452 7.45893 13.261 7.49535 13.2639C7.50785 13.2649 7.52034 13.2644 7.53287 13.2644C7.93661 13.2644 8.34064 13.2644 8.74441 13.2644C8.76471 13.2644 8.78472 13.2626 8.81287 13.2615ZM10.9535 10.2688C10.952 10.2956 10.9499 10.3159 10.9499 10.3362C10.9499 10.582 10.9499 10.8277 10.9499 11.0735C10.9499 11.0818 10.9497 11.0901 10.9499 11.0985C10.9525 11.1414 10.9588 11.1495 11.0012 11.1518C11.0384 11.1542 11.0759 11.1524 11.1134 11.1524C11.5424 11.1524 11.9714 11.1529 12.4005 11.1518C12.4731 11.1518 12.5463 11.1505 12.6181 11.1417C12.7641 11.1242 12.9037 11.0862 13.0229 10.9936C13.1205 10.9175 13.163 10.8202 13.1554 10.6955C13.1481 10.577 13.0862 10.4937 13.0011 10.4216C12.8628 10.3047 12.6991 10.2576 12.5218 10.2571C12.0282 10.2553 11.5346 10.2563 11.041 10.2571C11.0129 10.2571 10.9851 10.2644 10.9538 10.2686L10.9535 10.2688ZM16.2528 10.5437C16.2596 10.758 16.3916 10.936 16.6326 10.9368C16.8753 10.9376 17.0276 10.8014 17.0336 10.5416C17.0385 10.3258 16.8693 10.1592 16.6433 10.1587C16.4087 10.1582 16.2562 10.3417 16.2528 10.5437ZM9.52931 15.9692C9.53893 15.7633 9.37831 15.5829 9.13933 15.5808C8.91495 15.5787 8.75378 15.7688 8.75328 15.971C8.75277 16.2131 8.96934 16.3597 9.14169 16.3595C9.34422 16.3595 9.54336 16.1931 9.52931 15.9692ZM11.6275 7.03369C11.6307 7.26879 11.7916 7.42135 12.0311 7.42029C12.2294 7.41949 12.4106 7.23938 12.4052 7.02512C12.3999 6.81969 12.2281 6.63253 11.9918 6.64371C11.7892 6.65337 11.6247 6.82256 11.6275 7.03369ZM7.38812 10.1402C7.18766 10.1337 7.00359 10.2899 7.00152 10.5328C6.9997 10.7462 7.17593 10.9199 7.39099 10.9191C7.60626 10.9183 7.77679 10.7455 7.77679 10.5302C7.77679 10.2961 7.59064 10.1314 7.38812 10.1402ZM14.5031 15.9885C14.4909 16.191 14.6674 16.3803 14.8869 16.3795C15.1308 16.3787 15.2737 16.185 15.2758 15.9867C15.2779 15.7706 15.0777 15.6011 14.8905 15.5998C14.6955 15.5982 14.4873 15.7808 14.5031 15.9885Z" fill="#B7644B"/></svg>