<svg width="24" height="24" viewBox="0 0 16 16" fill="currentColor" xmlns="http://www.w3.org/2000/svg"><path d="M10.6123 2.04688C10.6301 2.04534 10.6478 2.04201 10.666 2.04199C10.7186 2.04199 10.7696 2.05026 10.8184 2.0625C11.3989 2.1324 11.9437 2.39297 12.3613 2.81055L13.1895 3.63965C13.6814 4.13182 13.9589 4.79917 13.959 5.49512V11.334C13.9587 12.7833 12.7833 13.9586 11.334 13.959H4.66699C3.21744 13.959 2.0423 12.7835 2.04199 11.334V4.66699C2.04199 3.21725 3.21725 2.04199 4.66699 2.04199H10.5049C10.5408 2.042 10.5765 2.04541 10.6123 2.04688ZM4.66699 3.29199C3.9076 3.29199 3.29199 3.9076 3.29199 4.66699V11.334C3.2923 12.0931 3.90779 12.709 4.66699 12.709H4.70996C4.70951 12.695 4.70801 12.6811 4.70801 12.667V9.33398C4.70801 8.62072 5.28681 8.04219 6 8.04199H10C10.7132 8.04217 11.291 8.62071 11.291 9.33398V12.667C11.291 12.6811 11.2895 12.695 11.2891 12.709H11.334C12.0929 12.7086 12.7087 12.0929 12.709 11.334V5.49512C12.7089 5.13072 12.5633 4.78121 12.3057 4.52344L11.4775 3.69434C11.4199 3.63674 11.357 3.58501 11.291 3.53906V4.66699C11.2909 5.38013 10.7132 5.95881 10 5.95898H6C5.28688 5.95879 4.70814 5.38012 4.70801 4.66699V3.29199H4.66699ZM6 9.29199C5.97715 9.29219 5.95801 9.31109 5.95801 9.33398V12.667C5.95814 12.6898 5.97723 12.7088 6 12.709H10C10.0228 12.7088 10.0409 12.6898 10.041 12.667V9.33398C10.041 9.31107 10.0229 9.29217 10 9.29199H6ZM5.95801 4.66699C5.95814 4.68977 5.97724 4.70879 6 4.70898H10C10.0228 4.70881 10.0409 4.68979 10.041 4.66699V3.29199H5.95801V4.66699Z" fill="currentColor"/></svg>