<svg width="24" height="24" viewBox="0 0 16 16" fill="currentColor" xmlns="http://www.w3.org/2000/svg"><path d="M3.33398 11.375C4.04708 11.3753 4.625 11.9538 4.625 12.667C4.62482 13.38 4.04697 13.9577 3.33398 13.958C2.62074 13.958 2.04217 13.3802 2.04199 12.667C2.04199 11.9536 2.62063 11.375 3.33398 11.375ZM8 11.375C8.71323 11.3752 9.29102 11.9537 9.29102 12.667C9.29084 13.3801 8.71312 13.9578 8 13.958C7.28684 13.9579 6.70818 13.3801 6.70801 12.667C6.70801 11.9537 7.28673 11.3751 8 11.375ZM12.667 11.375C13.3802 11.3752 13.958 11.9537 13.958 12.667C13.9578 13.3801 13.3801 13.9578 12.667 13.958C11.9537 13.958 11.3752 13.3802 11.375 12.667C11.375 11.9536 11.9536 11.375 12.667 11.375ZM3.33398 12.625C3.31097 12.625 3.29199 12.644 3.29199 12.667C3.29217 12.6899 3.31108 12.708 3.33398 12.708C3.35663 12.7077 3.37483 12.6897 3.375 12.667C3.375 12.6442 3.35674 12.6253 3.33398 12.625ZM8 12.625C7.97709 12.6251 7.95801 12.6441 7.95801 12.667C7.95818 12.6898 7.9772 12.7079 8 12.708C8.02276 12.7078 8.04084 12.6898 8.04102 12.667C8.04102 12.6441 8.02287 12.6252 8 12.625ZM12.667 12.625C12.644 12.625 12.625 12.644 12.625 12.667C12.6252 12.6899 12.6441 12.708 12.667 12.708C12.6898 12.7078 12.7078 12.6898 12.708 12.667C12.708 12.6441 12.6899 12.6252 12.667 12.625ZM8 6.70801C8.71315 6.70818 9.29088 7.28684 9.29102 8C9.29084 8.71312 8.71312 9.29084 8 9.29102C7.28684 9.29088 6.70818 8.71315 6.70801 8C6.70814 7.28682 7.28682 6.70814 8 6.70801ZM12.667 6.70801C13.3801 6.70818 13.9579 7.28684 13.958 8C13.9578 8.71312 13.3801 9.29084 12.667 9.29102C11.9537 9.29102 11.3752 8.71323 11.375 8C11.3751 7.28673 11.9537 6.70801 12.667 6.70801ZM8 7.95801C7.97717 7.95814 7.95814 7.97717 7.95801 8C7.95818 8.02279 7.9772 8.04089 8 8.04102C8.02276 8.04084 8.04084 8.02276 8.04102 8C8.04089 7.9772 8.02279 7.95818 8 7.95801ZM12.667 7.95801C12.6441 7.95801 12.6251 7.97709 12.625 8C12.6252 8.02287 12.6441 8.04102 12.667 8.04102C12.6898 8.04084 12.7078 8.02276 12.708 8C12.7079 7.9772 12.6898 7.95818 12.667 7.95801ZM12.667 2.04199C13.3802 2.04217 13.958 2.62074 13.958 3.33398C13.9577 4.04697 13.38 4.62482 12.667 4.625C11.9538 4.625 11.3753 4.04708 11.375 3.33398C11.375 2.62063 11.9536 2.04199 12.667 2.04199ZM12.667 3.29199C12.644 3.29199 12.625 3.31097 12.625 3.33398C12.6253 3.35674 12.6442 3.375 12.667 3.375C12.6897 3.37483 12.7077 3.35663 12.708 3.33398C12.708 3.31108 12.6899 3.29217 12.667 3.29199Z" fill="currentColor"/></svg>