<svg width="24" height="24" viewBox="0 0 16 16" fill="currentColor" xmlns="http://www.w3.org/2000/svg"><path d="M7.33398 2.04102C10.2562 2.04132 12.625 4.41167 12.625 7.33398C12.6248 8.56968 12.1992 9.70504 11.4893 10.6055L13.7754 12.8916C14.0193 13.1357 14.0193 13.5314 13.7754 13.7754C13.5314 14.0194 13.1357 14.0193 12.8916 13.7754L10.6045 11.4893C9.70414 12.1988 8.56938 12.6249 7.33398 12.625C4.41175 12.625 2.04243 10.2561 2.04199 7.33398C2.04199 4.41148 4.41148 2.04102 7.33398 2.04102ZM7.33398 3.29199C5.10184 3.29199 3.29199 5.10184 3.29199 7.33398C3.29243 9.56576 5.10211 11.375 7.33398 11.375C9.56561 11.3747 11.3746 9.56558 11.375 7.33398C11.375 5.10203 9.56588 3.2923 7.33398 3.29199ZM5.22461 5.22363C5.46869 4.97995 5.86541 4.97975 6.10938 5.22363L7.33398 6.44824L8.55859 5.22461C8.80264 4.98091 9.1984 4.9808 9.44238 5.22461C9.68617 5.46871 9.68636 5.86539 9.44238 6.10938L8.21777 7.33301L9.44238 8.55762C9.68618 8.80159 9.68604 9.19735 9.44238 9.44141C9.19836 9.68543 8.80268 9.68532 8.55859 9.44141L7.33398 8.2168L6.10938 9.44238C5.86539 9.68636 5.46871 9.68617 5.22461 9.44238C4.9808 9.1984 4.98091 8.80264 5.22461 8.55859L6.44922 7.33301L5.22461 6.1084C4.98061 5.86431 4.98056 5.46769 5.22461 5.22363Z" fill="currentColor"/></svg>