<svg width="24" height="24" viewBox="0 0 16 16" fill="currentColor" xmlns="http://www.w3.org/2000/svg"><path d="M11 8.70801C12.6335 8.70814 13.9587 10.0325 13.959 11.666C13.959 12.2509 13.7863 12.7958 13.4932 13.2549L14.1162 13.8984C14.356 14.1464 14.3493 14.5422 14.1016 14.7822C13.8535 15.0222 13.4578 15.0156 13.2178 14.7676L12.6133 14.1426C12.149 14.4457 11.5956 14.625 11 14.625C9.3663 14.6248 8.04199 13.2998 8.04199 11.666C8.0423 10.0325 9.36649 8.70818 11 8.70801ZM10.666 1.375C12.1158 1.375 13.291 2.55026 13.291 4V6.66699C13.2908 7.01202 13.0111 7.29199 12.666 7.29199C12.3212 7.29168 12.0412 7.01183 12.041 6.66699V4C12.041 3.2406 11.4254 2.625 10.666 2.625H5.33301C4.57373 2.62513 3.95801 3.24069 3.95801 4V12C3.95801 12.7593 4.57372 13.3749 5.33301 13.375H6.33301C6.67819 13.375 6.95801 13.6548 6.95801 14C6.95801 14.3452 6.67819 14.625 6.33301 14.625H5.33301C3.88338 14.6249 2.70801 13.4497 2.70801 12V4C2.70801 2.55034 3.88338 1.37513 5.33301 1.375H10.666ZM11 9.95801C10.0569 9.95818 9.2923 10.7229 9.29199 11.666C9.29199 12.6094 10.0567 13.3748 11 13.375C11.4779 13.3749 11.9099 13.1793 12.2207 12.8623C12.5231 12.5535 12.709 12.1316 12.709 11.666C12.7087 10.7229 11.9432 9.95814 11 9.95801ZM8 6.70801C8.3451 6.70801 8.62487 6.98794 8.625 7.33301C8.625 7.67819 8.34518 7.95801 8 7.95801H6C5.65482 7.95801 5.375 7.67819 5.375 7.33301C5.37513 6.98794 5.6549 6.70801 6 6.70801H8ZM10 4.04199C10.3452 4.04199 10.625 4.32181 10.625 4.66699C10.6249 5.01206 10.3451 5.29199 10 5.29199H6C5.6549 5.29199 5.37513 5.01206 5.375 4.66699C5.375 4.32181 5.65482 4.04199 6 4.04199H10Z" fill="currentColor"/></svg>