<svg width="24" height="24" viewBox="0 0 16 16" fill="currentColor" xmlns="http://www.w3.org/2000/svg"><path d="M5.82227 2.26074C6.15282 2.1626 6.50098 2.35027 6.59961 2.68066C6.69802 3.01133 6.50924 3.35934 6.17871 3.45801C4.50886 3.95498 3.29211 5.50313 3.29199 7.33301C3.2921 9.56507 5.1019 11.374 7.33398 11.374C9.16375 11.3738 10.7111 10.1571 11.208 8.4873C11.3067 8.1569 11.6547 7.969 11.9854 8.06738C12.3159 8.1659 12.5045 8.51406 12.4062 8.84473C12.2135 9.49228 11.8982 10.0869 11.4902 10.6045L13.7754 12.8906C14.0193 13.1346 14.0191 13.5303 13.7754 13.7744C13.5313 14.0185 13.1357 14.0185 12.8916 13.7744L10.6055 11.4893C9.70512 12.1989 8.56988 12.6239 7.33398 12.624C4.41154 12.624 2.0421 10.2554 2.04199 7.33301C2.04211 4.93504 3.63696 2.91112 5.82227 2.26074ZM10.667 1.33301C10.8274 1.33314 10.9716 1.43232 11.0293 1.58203L11.4941 2.79004C11.5618 2.9661 11.7009 3.10513 11.877 3.17285L13.084 3.6377C13.2339 3.69535 13.3329 3.83941 13.333 4C13.333 4.16066 13.2339 4.30463 13.084 4.3623L11.877 4.82715C11.701 4.89484 11.5618 5.03401 11.4941 5.20996L11.0293 6.41797C10.9717 6.56781 10.8275 6.66686 10.667 6.66699C10.5064 6.66699 10.3624 6.56782 10.3047 6.41797L9.83984 5.20996C9.7722 5.03398 9.633 4.8949 9.45703 4.82715L8.24902 4.3623C8.09909 4.30463 8 4.16066 8 4C8.00007 3.83941 8.09914 3.69535 8.24902 3.6377L9.45703 3.17285C9.63295 3.10509 9.77222 2.96599 9.83984 2.79004L10.3047 1.58203C10.3625 1.43234 10.5065 1.33301 10.667 1.33301Z" fill="currentColor"/></svg>