<svg width="24" height="24" viewBox="0 0 16 16" fill="currentColor" xmlns="http://www.w3.org/2000/svg"><path d="M6.34375 7.80371C5.98167 6.88793 6.88793 5.98167 7.80371 6.34375L14.1084 8.83984C14.8431 9.13074 14.9306 10.1366 14.2559 10.5488L11.9541 11.9541L10.5488 14.2559C10.1366 14.9306 9.13074 14.8431 8.83984 14.1084L6.34375 7.80371ZM9.78613 13.1035L10.9033 11.2773C10.9964 11.1247 11.1247 10.9964 11.2773 10.9033L13.1035 9.78613L7.61133 7.61133L9.78613 13.1035ZM3.82715 9.95508C4.07113 9.71128 4.46689 9.71138 4.71094 9.95508C4.95502 10.1992 4.95501 10.5958 4.71094 10.8398L4.00391 11.5469C3.75986 11.7907 3.36413 11.7907 3.12012 11.5469C2.87611 11.3029 2.87627 10.9072 3.12012 10.6631L3.82715 9.95508ZM3 6.70801C3.34507 6.70801 3.62482 6.98798 3.625 7.33301C3.625 7.67819 3.34518 7.95801 3 7.95801H2C1.65482 7.95801 1.375 7.67819 1.375 7.33301C1.37518 6.98798 1.65493 6.70801 2 6.70801H3ZM3.12012 3.12012C3.36417 2.87607 3.75982 2.87613 4.00391 3.12012L4.71094 3.82715C4.95502 4.07123 4.95502 4.46686 4.71094 4.71094C4.46686 4.95502 4.07123 4.95502 3.82715 4.71094L3.12012 4.00391C2.87613 3.75982 2.87607 3.36417 3.12012 3.12012ZM10.6631 3.12012C10.9072 2.87631 11.3029 2.87612 11.5469 3.12012C11.7908 3.36411 11.7906 3.75984 11.5469 4.00391L10.8398 4.71094C10.5958 4.95501 10.1992 4.95502 9.95508 4.71094C9.71141 4.46687 9.71125 4.07111 9.95508 3.82715L10.6631 3.12012ZM6.70801 3V2C6.70801 1.65493 6.98798 1.37518 7.33301 1.375C7.67819 1.375 7.95801 1.65482 7.95801 2V3C7.95801 3.34518 7.67819 3.625 7.33301 3.625C6.98798 3.62482 6.70801 3.34507 6.70801 3Z" fill="currentColor"/></svg>