<svg width="24" height="24" viewBox="0 0 16 16" fill="currentColor" xmlns="http://www.w3.org/2000/svg"><path d="M2.11505 4.10636C1.68308 2.73782 3.10775 1.52232 4.39142 2.16398L13.158 6.54679C14.3555 7.14572 14.3556 8.85517 13.158 9.45402L4.39142 13.8368C3.1077 14.4783 1.68289 13.262 2.11505 11.8935L3.34454 7.99992L2.11505 4.10636ZM3.83283 3.28214C3.53657 3.13401 3.20769 3.41453 3.30744 3.73038L4.4588 7.37492H6.00079C6.34576 7.37508 6.62567 7.65494 6.62579 7.99992C6.62579 8.34499 6.34584 8.62475 6.00079 8.62492H4.4588L3.30744 12.2704C3.20788 12.5862 3.53665 12.8667 3.83283 12.7187L12.5985 8.33585C12.8748 8.19765 12.8748 7.80315 12.5985 7.66495L3.83283 3.28214Z" fill="currentColor"/></svg>