<svg width="24" height="24" viewBox="0 0 16 16" fill="currentColor" xmlns="http://www.w3.org/2000/svg"><path d="M10.0718 4.89648C10.4179 4.89648 10.6987 5.17734 10.6987 5.52344C10.6987 5.86954 10.4179 6.15039 10.0718 6.15039H5.91455C5.56845 6.15039 5.2876 5.86954 5.2876 5.52344C5.2876 5.17734 5.56845 4.89648 5.91455 4.89648H10.0718Z" fill="currentColor"/><path d="M8.25537 7.61182C8.60147 7.61182 8.88232 7.89267 8.88232 8.23877C8.88232 8.58487 8.60147 8.86572 8.25537 8.86572H5.91455C5.56845 8.86572 5.2876 8.58487 5.2876 8.23877C5.2876 7.89267 5.56845 7.61182 5.91455 7.61182H8.25537Z" fill="currentColor"/><path d="M12.3271 4.36963C12.3271 3.61117 11.7126 2.9966 10.9541 2.99658H5.03223C4.27376 2.99658 3.65918 3.61116 3.65918 4.36963V11.6538C3.65922 12.4122 4.27378 13.0269 5.03223 13.0269H10.9541C11.7125 13.0268 12.3271 12.4122 12.3271 11.6538V4.36963ZM13.5811 11.6538C13.581 13.1044 12.4047 14.2807 10.9541 14.2808H5.03223C3.58158 14.2808 2.40532 13.1044 2.40527 11.6538V4.36963C2.40527 2.91896 3.58156 1.74268 5.03223 1.74268H10.9541C12.4048 1.7427 13.5811 2.91897 13.5811 4.36963V11.6538Z" fill="currentColor"/></svg>