<svg width="24" height="24" viewBox="0 0 16 16" fill="currentColor" xmlns="http://www.w3.org/2000/svg"><path d="M12 2.70801C13.4497 2.70801 14.6248 3.88342 14.625 5.33301V10.667C14.6248 12.1166 13.4497 13.292 12 13.292H4C2.55037 13.292 1.37518 12.1166 1.375 10.667V5.33301C1.37518 3.88341 2.55036 2.70801 4 2.70801H12ZM2.625 10.667C2.62518 11.4263 3.24071 12.042 4 12.042H12C12.7593 12.042 13.3748 11.4263 13.375 10.667V8.625H2.625V10.667ZM4.33301 9.5C4.79315 9.5 5.16681 9.87296 5.16699 10.333C5.16699 10.7932 4.79325 11.166 4.33301 11.166C3.87291 11.1658 3.5 10.7931 3.5 10.333C3.50018 9.87307 3.87302 9.50018 4.33301 9.5ZM4 3.95801C3.24072 3.95801 2.62518 4.57377 2.625 5.33301V7.375H13.375V5.33301C13.3748 4.57376 12.7593 3.95801 12 3.95801H4ZM4.33301 4.83301C4.79303 4.83301 5.16664 5.20608 5.16699 5.66602C5.16699 6.12625 4.79325 6.5 4.33301 6.5C3.87292 6.49982 3.5 6.12614 3.5 5.66602C3.50035 5.20619 3.87314 4.83318 4.33301 4.83301Z" fill="currentColor"/></svg>