<svg width="24" height="24" viewBox="0 0 16 16" fill="currentColor" xmlns="http://www.w3.org/2000/svg"><path d="M8 1.375C8.58386 1.375 9.12929 1.66661 9.45312 2.15234L9.7041 2.5293C9.93056 2.86888 10.3434 3.03299 10.7412 2.94141L10.9893 2.88379C11.585 2.74631 12.2093 2.92608 12.6416 3.3584C13.0739 3.7907 13.2537 4.41501 13.1162 5.01074L13.0586 5.25879C12.967 5.65656 13.1311 6.06946 13.4707 6.2959L13.8477 6.54688C14.3334 6.87071 14.625 7.41615 14.625 8C14.625 8.58385 14.3334 9.12929 13.8477 9.45312L13.4707 9.7041C13.1311 9.93055 12.967 10.3434 13.0586 10.7412L13.1162 10.9893L13.1523 11.2139C13.2042 11.7384 13.0198 12.2634 12.6416 12.6416C12.2093 13.0739 11.585 13.2537 10.9893 13.1162L10.7412 13.0586C10.3434 12.967 9.93055 13.1311 9.7041 13.4707L9.45312 13.8477C9.12929 14.3334 8.58385 14.625 8 14.625C7.41615 14.625 6.87071 14.3334 6.54688 13.8477L6.2959 13.4707C6.06946 13.1311 5.65656 12.967 5.25879 13.0586L5.01074 13.1162C4.41501 13.2537 3.7907 13.0739 3.3584 12.6416C2.92608 12.2093 2.74631 11.585 2.88379 10.9893L2.94141 10.7412C3.03299 10.3434 2.86888 9.93056 2.5293 9.7041L2.15234 9.45312C1.6666 9.12929 1.375 8.58386 1.375 8C1.375 7.41614 1.6666 6.87071 2.15234 6.54688L2.5293 6.2959C2.86887 6.06945 3.03299 5.65655 2.94141 5.25879L2.88379 5.01074C2.74631 4.41501 2.92608 3.79072 3.3584 3.3584C3.79072 2.92608 4.41502 2.74631 5.01074 2.88379L5.25879 2.94141C5.65655 3.03299 6.06945 2.86887 6.2959 2.5293L6.54688 2.15234C6.87071 1.6666 7.41614 1.375 8 1.375ZM8 6C6.8954 6 6 6.8954 6 8C6 9.1046 6.8954 10 8 10C9.1046 10 10 9.1046 10 8C10 6.8954 9.1046 6 8 6Z" fill="currentColor"/></svg>