<svg width="24" height="24" viewBox="0 0 16 16" fill="none" xmlns="http://www.w3.org/2000/svg"><path d="M13.334 11.6665C13.334 12.587 12.5875 13.3335 11.667 13.3335H4.33398C3.41351 13.3335 2.667 12.587 2.66699 11.6665V8.6665C2.667 9.58698 3.41351 10.3335 4.33398 10.3335H11.667C12.5875 10.3335 13.334 9.58697 13.334 8.6665V11.6665Z" fill="#C2C2C2"/><path d="M14.2339 4.33612L14.2339 11.6633C14.2338 13.0826 13.0829 14.2335 11.6636 14.2336L11.6636 13.3332C12.5858 13.3331 13.3335 12.5855 13.3335 11.6633L13.3335 4.33612L13.3247 4.1662C13.2451 3.38011 12.6205 2.75491 11.8345 2.67499L11.6636 2.6662L4.33643 2.6662L4.1665 2.67499C3.38019 2.75464 2.75494 3.37988 2.67529 4.1662L2.6665 4.33612L2.6665 11.6633C2.66654 12.528 3.32423 13.2391 4.1665 13.3244L4.33643 13.3332L4.33643 14.2336C2.91727 14.2334 1.76713 13.0825 1.76709 11.6633L1.76709 4.33612C1.76731 2.91707 2.91737 1.767 4.33643 1.76678L11.6636 1.76678C13.0828 1.76683 14.2337 2.91696 14.2339 4.33612ZM4.33643 14.2336L4.33643 13.3332L11.6636 13.3332L11.6636 14.2336L4.33643 14.2336Z" fill="#262626"/></svg>