<svg width="24" height="24" viewBox="0 0 16 16" fill="none" xmlns="http://www.w3.org/2000/svg"><path d="M13.334 4.3335C13.334 3.41303 12.5875 2.6665 11.667 2.6665H4.33398C3.41351 2.6665 2.667 3.41302 2.66699 4.3335V7.3335C2.667 6.41302 3.41351 5.6665 4.33398 5.6665H11.667C12.5875 5.6665 13.334 6.41303 13.334 7.3335V4.3335Z" fill="#C2C2C2"/><path d="M14.2339 11.6639L14.2339 4.33673C14.2338 2.91742 13.0829 1.76646 11.6636 1.76642L11.6636 2.66681C12.5858 2.66685 13.3335 3.41448 13.3335 4.33673L13.3335 11.6639L13.3247 11.8338C13.2451 12.6199 12.6205 13.2451 11.8345 13.325L11.6636 13.3338L4.33643 13.3338L4.1665 13.325C3.38019 13.2454 2.75494 12.6201 2.67529 11.8338L2.6665 11.6639L2.6665 4.33673C2.66654 3.47196 3.32423 2.76093 4.1665 2.6756L4.33643 2.66681L4.33643 1.76642C2.91727 1.76664 1.76713 2.91753 1.76709 4.33673L1.76709 11.6639C1.76731 13.0829 2.91737 14.233 4.33643 14.2332L11.6636 14.2332C13.0828 14.2332 14.2337 13.083 14.2339 11.6639ZM4.33643 1.76642L4.33643 2.66681L11.6636 2.66681L11.6636 1.76642L4.33643 1.76642Z" fill="#262626"/></svg>