<svg width="24" height="24" viewBox="0 0 16 16" fill="currentColor" xmlns="http://www.w3.org/2000/svg"><path d="M1.375 10.6669V5.33296C1.37518 4.98793 1.65493 4.70796 2 4.70796C2.34507 4.70796 2.62482 4.98793 2.625 5.33296V10.6669C2.62518 11.4262 3.24071 12.0419 4 12.0419H12.667C13.012 12.0421 13.292 12.3219 13.292 12.6669C13.2918 13.0119 13.0119 13.2918 12.667 13.2919H4C2.55037 13.2919 1.37518 12.1166 1.375 10.6669ZM4.70801 9.33296V8.66694C4.70801 6.48083 6.48088 4.70796 8.66699 4.70796H11.8242L10.5576 3.44234C10.3135 3.19826 10.3135 2.80165 10.5576 2.55757C10.8017 2.31349 11.1983 2.31349 11.4424 2.55757L13.7754 4.89155C14.0193 5.13565 14.0194 5.53132 13.7754 5.77534L11.4424 8.10835C11.1983 8.35243 10.8017 8.35243 10.5576 8.10835C10.3139 7.8643 10.3138 7.46854 10.5576 7.22456L11.8252 5.95796H8.66699C7.17124 5.95796 5.95801 7.17119 5.95801 8.66694V9.33296C5.95801 9.67814 5.67819 9.95796 5.33301 9.95796C4.98798 9.95778 4.70801 9.67803 4.70801 9.33296Z" fill="currentColor"/></svg>