<svg width="24" height="24" viewBox="0 0 16 16" fill="currentColor" xmlns="http://www.w3.org/2000/svg"><path d="M12.7085 4.78482C12.7084 4.48239 12.5159 4.2132 12.23 4.1149L8.44678 2.81412C8.15731 2.71465 7.84271 2.71472 7.55322 2.81412L3.77002 4.1149C3.48404 4.2132 3.29156 4.48241 3.2915 4.78482V7.94205C3.29163 9.39897 3.86553 10.4233 4.76318 11.2731C5.62265 12.0868 6.7608 12.7233 7.99951 13.3932C9.23847 12.7232 10.3772 12.0869 11.2368 11.2731C12.1344 10.4233 12.7084 9.39894 12.7085 7.94205V4.78482ZM7.37451 9.99966V8.49966C6.78758 8.25463 6.37451 7.67542 6.37451 6.99966C6.37471 6.10248 7.10234 5.37484 7.99951 5.37466C8.89683 5.37466 9.62431 6.10237 9.62451 6.99966C9.62451 7.67563 9.21174 8.25476 8.62451 8.49966V9.99966C8.62451 10.3448 8.34469 10.6247 7.99951 10.6247C7.65448 10.6245 7.37451 10.3447 7.37451 9.99966ZM13.9585 7.94205C13.9584 9.79961 13.1983 11.1379 12.0962 12.1813C11.0241 13.1962 9.60941 13.9466 8.29639 14.6549C8.11117 14.7549 7.88785 14.7549 7.70264 14.6549C6.38983 13.9467 4.9757 13.196 3.90381 12.1813C2.80166 11.1379 2.04164 9.79961 2.0415 7.94205V4.78482C2.04156 3.94884 2.57232 3.2052 3.36279 2.93326L7.14697 1.63248C7.69983 1.44253 8.30019 1.44246 8.85303 1.63248L12.6362 2.93326C13.427 3.20508 13.9584 3.94869 13.9585 4.78482V7.94205Z" fill="currentColor"/></svg>