<svg width="24" height="24" viewBox="0 0 16 16" fill="currentColor" xmlns="http://www.w3.org/2000/svg"><path d="M12.7087 4.78482C12.7087 4.48239 12.5162 4.2132 12.2302 4.1149L8.44702 2.81412C8.15755 2.71465 7.84295 2.71472 7.55347 2.81412L3.77026 4.1149C3.48428 4.2132 3.2918 4.48241 3.29175 4.78482V7.94205C3.29187 9.39897 3.86577 10.4233 4.76343 11.2731C5.6229 12.0868 6.76105 12.7233 7.99976 13.3932C9.23872 12.7232 10.3775 12.0869 11.2371 11.2731C12.1347 10.4233 12.7086 9.39894 12.7087 7.94205V4.78482ZM9.22437 6.05826C9.46844 5.81418 9.86505 5.81418 10.1091 6.05826C10.3528 6.3023 10.3529 6.69805 10.1091 6.94205L7.77515 9.27505C7.53107 9.51913 7.13544 9.51913 6.89136 9.27505L5.89136 8.27505C5.64746 8.03096 5.64734 7.63528 5.89136 7.39126C6.13538 7.14727 6.53106 7.14738 6.77515 7.39126L7.33276 7.94888L9.22437 6.05826ZM13.9587 7.94205C13.9586 9.79961 13.1986 11.1379 12.0964 12.1813C11.0244 13.1962 9.60965 13.9466 8.29663 14.6549C8.11142 14.7549 7.88809 14.7549 7.70288 14.6549C6.39007 13.9467 4.97594 13.196 3.90405 12.1813C2.8019 11.1379 2.04188 9.79961 2.04175 7.94205V4.78482C2.0418 3.94884 2.57256 3.2052 3.36304 2.93326L7.14722 1.63248C7.70008 1.44253 8.30043 1.44246 8.85327 1.63248L12.6365 2.93326C13.4272 3.20508 13.9587 3.94869 13.9587 4.78482V7.94205Z" fill="currentColor"/></svg>