<svg width="24" height="24" viewBox="0 0 18 18" fill="currentColor" xmlns="http://www.w3.org/2000/svg"><g clip-path="url(#svg_edf0923840__clip0_7623_42719)"><path d="M9.12891 1.6875C9.67582 1.68755 10.2002 1.90526 10.5869 2.29199L14.208 5.91309C14.5948 6.29984 14.8124 6.82417 14.8125 7.37109V13.5C14.8125 15.0533 13.5533 16.3125 12 16.3125H6C4.44671 16.3125 3.1875 15.0533 3.1875 13.5V4.5C3.1875 2.9467 4.4467 1.6875 6 1.6875H9.12891ZM6 2.8125C5.06802 2.8125 4.3125 3.56802 4.3125 4.5V13.5C4.3125 14.432 5.06802 15.1875 6 15.1875H12C12.932 15.1875 13.6875 14.432 13.6875 13.5V7.37109C13.6875 7.35147 13.6858 7.33197 13.6846 7.3125H11.25C10.1109 7.3125 9.1875 6.38908 9.1875 5.25V2.81543C9.16803 2.8142 9.14853 2.8125 9.12891 2.8125H6ZM11.625 12.1875C11.9357 12.1875 12.1875 12.4393 12.1875 12.75C12.1875 13.0607 11.9357 13.3125 11.625 13.3125H6.75C6.43934 13.3125 6.1875 13.0607 6.1875 12.75C6.1875 12.4393 6.43934 12.1875 6.75 12.1875H11.625ZM9 9.1875C9.31066 9.1875 9.5625 9.43934 9.5625 9.75C9.5625 10.0607 9.31066 10.3125 9 10.3125H6.75C6.43934 10.3125 6.1875 10.0607 6.1875 9.75C6.1875 9.43934 6.43934 9.1875 6.75 9.1875H9ZM10.3125 5.25C10.3125 5.76777 10.7322 6.1875 11.25 6.1875H12.8926L10.3125 3.60742V5.25Z" fill="currentColor"/></g><defs><clipPath id="svg_edf0923840__clip0_7623_42719"><path fill="currentColor" d="M0 0H18V18H0z"/></clipPath></defs></svg>