<svg width="24" height="24" viewBox="0 0 18 18" fill="currentColor" xmlns="http://www.w3.org/2000/svg"><path d="M14.375 4.625H3.625V11.5C3.625 12.3975 4.35253 13.125 5.25 13.125H12.75C13.6475 13.125 14.375 12.3975 14.375 11.5V4.625ZM15.625 11.5C15.625 13.0879 14.3379 14.375 12.75 14.375H5.25C3.66219 14.375 2.375 13.0879 2.375 11.5V4.625H1.5C1.15482 4.625 0.875 4.34518 0.875 4C0.875 3.65482 1.15482 3.375 1.5 3.375H16.5C16.8452 3.375 17.125 3.65482 17.125 4C17.125 4.34518 16.8452 4.625 16.5 4.625H15.625V11.5Z" fill="currentColor"/><path d="M8.375 10.75V7C8.375 6.65482 8.65482 6.375 9 6.375C9.34518 6.375 9.625 6.65482 9.625 7V10.75C9.625 11.0952 9.34518 11.375 9 11.375C8.65482 11.375 8.375 11.0952 8.375 10.75Z" fill="currentColor"/><path d="M5.375 10.75V10C5.375 9.65482 5.65482 9.375 6 9.375C6.34518 9.375 6.625 9.65482 6.625 10V10.75C6.625 11.0952 6.34518 11.375 6 11.375C5.65482 11.375 5.375 11.0952 5.375 10.75Z" fill="currentColor"/><path d="M11.375 10.75V8.5C11.375 8.15482 11.6548 7.875 12 7.875C12.3452 7.875 12.625 8.15482 12.625 8.5V10.75C12.625 11.0952 12.3452 11.375 12 11.375C11.6548 11.375 11.375 11.0952 11.375 10.75Z" fill="currentColor"/><path d="M8.90141 13.6048C9.18859 13.4135 9.57718 13.4915 9.7686 13.7786L11.0186 15.6536C11.2099 15.9408 11.1319 16.3294 10.8448 16.5208C10.5577 16.712 10.17 16.6339 9.97856 16.347L8.72758 14.472C8.5363 14.1848 8.61428 13.7962 8.90141 13.6048Z" fill="currentColor"/><path d="M8.23051 13.7785C8.42198 13.4916 8.80961 13.4135 9.09672 13.6047C9.38385 13.7961 9.46184 14.1847 9.27055 14.4719L8.02055 16.3469C7.82913 16.634 7.44054 16.712 7.15336 16.5207C6.86624 16.3293 6.78826 15.9407 6.97954 15.6535L8.23051 13.7785Z" fill="currentColor"/></svg>