<svg width="24" height="24" viewBox="0 0 18 18" fill="currentColor" xmlns="http://www.w3.org/2000/svg"><path d="M14.5649 5.13184C14.5649 4.19502 13.8055 3.43555 12.8687 3.43555H5.13135C4.19454 3.43555 3.43506 4.19503 3.43506 5.13184V12.8691C3.43506 13.806 4.19453 14.5654 5.13135 14.5654H12.8687C13.8055 14.5654 14.5649 13.806 14.5649 12.8691V5.13184ZM15.8149 12.8691C15.8149 14.4963 14.4959 15.8154 12.8687 15.8154H5.13135C3.50419 15.8154 2.18506 14.4964 2.18506 12.8691V5.13184C2.18506 3.50467 3.50418 2.18555 5.13135 2.18555H12.8687C14.4959 2.18555 15.8149 3.50468 15.8149 5.13184V12.8691Z" fill="currentColor"/><path d="M5.18257 5.55806C5.42665 5.31398 5.82326 5.31398 6.06734 5.55806L7.37984 6.87056C7.62391 7.11464 7.62391 7.51125 7.37984 7.75532L6.06734 9.06782C5.82326 9.3119 5.42665 9.3119 5.18257 9.06782C4.93849 8.82375 4.93849 8.42714 5.18257 8.18306L6.05269 7.31294L5.18257 6.44282C4.93849 6.19875 4.93849 5.80214 5.18257 5.55806Z" fill="currentColor"/></svg>