<svg width="24" height="24" viewBox="0 0 18 18" fill="currentColor" xmlns="http://www.w3.org/2000/svg"><path d="M14.3672 4.125C14.3672 3.84886 14.1433 3.625 13.8672 3.625H12.1201C11.8439 3.625 11.6201 3.84884 11.6201 4.125V14.375H13.8672C14.1433 14.375 14.3672 14.1511 14.3672 13.875V4.125ZM3.625 13.875C3.625 14.1511 3.84886 14.375 4.125 14.375H6.37207V11.875H4.125C3.84886 11.875 3.625 12.0989 3.625 12.375V13.875ZM7.62207 14.375H10.3701V7.75H8.12207C7.84616 7.75023 7.62207 7.97401 7.62207 8.25V14.375ZM15.6172 13.875C15.6172 14.8415 14.8337 15.625 13.8672 15.625H4.125C3.15849 15.625 2.375 14.8415 2.375 13.875V12.375C2.375 11.4085 3.15849 10.625 4.125 10.625H6.37207V8.25C6.37207 7.28368 7.15578 6.50023 8.12207 6.5H10.3701V4.125C10.3701 3.15852 11.1535 2.375 12.1201 2.375H13.8672C14.8337 2.375 15.6172 3.15849 15.6172 4.125V13.875Z" fill="currentColor"/></svg>