<svg width="24" height="24" viewBox="0 0 18 18" fill="currentColor" xmlns="http://www.w3.org/2000/svg"><path d="M14.5625 5.0625C14.5625 4.16503 13.835 3.4375 12.9375 3.4375H5.0625C4.16504 3.4375 3.4375 4.16504 3.4375 5.0625V12.9375C3.4375 13.835 4.16503 14.5625 5.0625 14.5625H12.9375C13.835 14.5625 14.5625 13.835 14.5625 12.9375V5.0625ZM15.8125 12.9375C15.8125 14.5254 14.5254 15.8125 12.9375 15.8125H5.0625C3.47469 15.8125 2.1875 14.5254 2.1875 12.9375V5.0625C2.1875 3.47468 3.47468 2.1875 5.0625 2.1875H12.9375C14.5254 2.1875 15.8125 3.47469 15.8125 5.0625V12.9375Z" fill="currentColor"/><path d="M10.7614 11.8182C10.7614 11.2345 11.2345 10.7614 11.8182 10.7614C12.4018 10.7614 12.875 11.2345 12.875 11.8182C12.875 12.4018 12.4018 12.875 11.8182 12.875C11.2345 12.875 10.7614 12.4018 10.7614 11.8182ZM7.94318 9C7.94318 8.41635 8.41635 7.94318 9 7.94318C9.58365 7.94318 10.0568 8.41635 10.0568 9C10.0568 9.58365 9.58365 10.0568 9 10.0568C8.41635 10.0568 7.94318 9.58365 7.94318 9ZM5.125 6.18182C5.125 5.59815 5.59815 5.125 6.18182 5.125C6.76548 5.125 7.23864 5.59815 7.23864 6.18182C7.23864 6.76548 6.76548 7.23864 6.18182 7.23864C5.59815 7.23864 5.125 6.76548 5.125 6.18182Z" fill="currentColor"/></svg>