<svg width="24" height="24" viewBox="0 0 18 18" fill="currentColor" xmlns="http://www.w3.org/2000/svg"><path d="M11.9326 2.9342C12.798 2.0688 14.202 2.06882 15.0674 2.9342C15.9323 3.7996 15.9325 5.20272 15.0674 6.06799L12.3506 8.78381C11.8115 9.32285 11.0806 9.6255 10.3184 9.6256H9C8.65482 9.6256 8.375 9.34578 8.375 9.0006V7.68322C8.375 6.92084 8.6778 6.18915 9.2168 5.65002L11.9326 2.9342ZM9.625 8.3756H10.3184C10.7492 8.3755 11.1622 8.20454 11.4668 7.90002L14.1826 5.1842C14.5599 4.80695 14.5598 4.19522 14.1826 3.81799C13.8054 3.44087 13.1946 3.44086 12.8174 3.81799L10.1006 6.53381C9.79598 6.83855 9.625 7.25241 9.625 7.68322V8.3756Z" fill="currentColor"/><path d="M12.875 13.5C12.875 13.0167 12.4833 12.625 12 12.625H4.5C3.3264 12.625 2.375 11.6736 2.375 10.5C2.375 9.32637 3.3264 8.375 4.5 8.375H6C6.34518 8.375 6.625 8.65482 6.625 9C6.625 9.34518 6.34518 9.625 6 9.625H4.5C4.01674 9.625 3.625 10.0167 3.625 10.5C3.625 10.9833 4.01674 11.375 4.5 11.375H12C13.1736 11.375 14.125 12.3264 14.125 13.5C14.125 14.6736 13.1736 15.625 12 15.625H9C8.65482 15.625 8.375 15.3452 8.375 15C8.375 14.6548 8.65482 14.375 9 14.375H12C12.4833 14.375 12.875 13.9833 12.875 13.5Z" fill="currentColor"/></svg>