<svg width="24" height="24" viewBox="0 0 18 18" fill="currentColor" xmlns="http://www.w3.org/2000/svg"><path d="M11.7327 1.85156C12.8718 1.85156 13.7952 2.77498 13.7952 3.91406V14.4141C13.7952 15.5532 12.8718 16.4766 11.7327 16.4766H5.73267C4.59362 16.4765 3.67017 15.5531 3.67017 14.4141V3.91406C3.67017 2.77501 4.59362 1.85161 5.73267 1.85156H11.7327ZM5.73267 2.97656C5.21494 2.97661 4.79517 3.39633 4.79517 3.91406V14.4141C4.79517 14.9318 5.21494 15.3515 5.73267 15.3516H11.7327C12.2504 15.3516 12.6702 14.9318 12.6702 14.4141V3.91406C12.6702 3.3963 12.2504 2.97656 11.7327 2.97656H10.2288C10.2093 3.29028 9.95164 3.53891 9.63306 3.53906H7.83228C7.51377 3.53881 7.256 3.29023 7.23657 2.97656H5.73267ZM9.67017 12.9141C9.98083 12.9141 10.2327 13.1659 10.2327 13.4766C10.2327 13.7872 9.98083 14.0391 9.67017 14.0391H7.79517C7.48455 14.039 7.23267 13.7872 7.23267 13.4766C7.23267 13.1659 7.48455 12.9141 7.79517 12.9141H9.67017Z" fill="currentColor"/><path d="M5.73267 16.4766L5.73266 16.5266H5.73267V16.4766ZM5.73267 1.85156V1.80156H5.73266L5.73267 1.85156ZM5.73267 2.97656V2.92656H5.73266L5.73267 2.97656ZM5.73267 15.3516L5.73266 15.4016H5.73267V15.3516ZM10.2288 2.97656V2.92656H10.1818L10.1789 2.97347L10.2288 2.97656ZM9.63306 3.53906V3.58906H9.63308L9.63306 3.53906ZM7.83228 3.53906L7.83224 3.58906H7.83228V3.53906ZM7.23657 2.97656L7.28648 2.97347L7.28357 2.92656H7.23657V2.97656ZM7.79517 14.0391L7.79516 14.0891H7.79517V14.0391ZM7.79517 12.9141V12.8641H7.79516L7.79517 12.9141ZM11.7327 1.85156V1.90156C12.8441 1.90156 13.7452 2.80259 13.7452 3.91406H13.7952H13.8452C13.8452 2.74736 12.8994 1.80156 11.7327 1.80156V1.85156ZM13.7952 3.91406H13.7452V14.4141H13.7952H13.8452V3.91406H13.7952ZM13.7952 14.4141H13.7452C13.7452 15.5255 12.8441 16.4266 11.7327 16.4266V16.4766V16.5266C12.8994 16.5266 13.8452 15.5808 13.8452 14.4141H13.7952ZM11.7327 16.4766V16.4266H5.73267V16.4766V16.5266H11.7327V16.4766ZM5.73267 16.4766L5.73267 16.4266C4.62123 16.4265 3.72017 15.5255 3.72017 14.4141H3.67017H3.62017C3.62017 15.5807 4.56601 16.5265 5.73266 16.5266L5.73267 16.4766ZM3.67017 14.4141H3.72017V3.91406H3.67017H3.62017V14.4141H3.67017ZM3.67017 3.91406H3.72017C3.72017 2.80262 4.62123 1.90161 5.73267 1.90156L5.73267 1.85156L5.73266 1.80156C4.56601 1.80161 3.62017 2.74739 3.62017 3.91406H3.67017ZM5.73267 1.85156V1.90156H11.7327V1.85156V1.80156H5.73267V1.85156ZM5.73267 2.97656L5.73266 2.92656C5.18733 2.92661 4.74517 3.36871 4.74517 3.91406H4.79517H4.84517C4.84517 3.42395 5.24255 3.02661 5.73267 3.02656L5.73267 2.97656ZM4.79517 3.91406H4.74517V14.4141H4.79517H4.84517V3.91406H4.79517ZM4.79517 14.4141H4.74517C4.74517 14.9594 5.18733 15.4015 5.73266 15.4016L5.73267 15.3516L5.73267 15.3016C5.24255 15.3015 4.84517 14.9042 4.84517 14.4141H4.79517ZM5.73267 15.3516V15.4016H11.7327V15.3516V15.3016H5.73267V15.3516ZM11.7327 15.3516V15.4016C12.278 15.4016 12.7202 14.9594 12.7202 14.4141H12.6702H12.6202C12.6202 14.9042 12.2228 15.3016 11.7327 15.3016V15.3516ZM12.6702 14.4141H12.7202V3.91406H12.6702H12.6202V14.4141H12.6702ZM12.6702 3.91406H12.7202C12.7202 3.36868 12.278 2.92656 11.7327 2.92656V2.97656V3.02656C12.2228 3.02656 12.6202 3.42391 12.6202 3.91406H12.6702ZM11.7327 2.97656V2.92656H10.2288V2.97656V3.02656H11.7327V2.97656ZM10.2288 2.97656L10.1789 2.97347C10.161 3.26132 9.92472 3.48892 9.63303 3.48906L9.63306 3.53906L9.63308 3.58906C9.97855 3.58889 10.2576 3.31924 10.2787 2.97965L10.2288 2.97656ZM9.63306 3.53906V3.48906H7.83228V3.53906V3.58906H9.63306V3.53906ZM7.83228 3.53906L7.83231 3.48906C7.54067 3.48883 7.3043 3.26125 7.28648 2.97347L7.23657 2.97656L7.18667 2.97965C7.2077 3.3192 7.48687 3.58879 7.83224 3.58906L7.83228 3.53906ZM7.23657 2.97656V2.92656H5.73267V2.97656V3.02656H7.23657V2.97656ZM9.67017 12.9141V12.9641C9.95321 12.9641 10.1827 13.1935 10.1827 13.4766H10.2327H10.2827C10.2827 13.1383 10.0084 12.8641 9.67017 12.8641V12.9141ZM10.2327 13.4766H10.1827C10.1827 13.7596 9.95321 13.9891 9.67017 13.9891V14.0391V14.0891C10.0084 14.0891 10.2827 13.8148 10.2827 13.4766H10.2327ZM9.67017 14.0391V13.9891H7.79517V14.0391V14.0891H9.67017V14.0391ZM7.79517 14.0391L7.79517 13.9891C7.51216 13.989 7.28267 13.7596 7.28267 13.4766H7.23267H7.18267C7.18267 13.8148 7.45694 14.089 7.79516 14.0891L7.79517 14.0391ZM7.23267 13.4766H7.28267C7.28267 13.1936 7.51216 12.9641 7.79517 12.9641L7.79517 12.9141L7.79516 12.8641C7.45694 12.8641 7.18267 13.1383 7.18267 13.4766H7.23267ZM7.79517 12.9141V12.9641H9.67017V12.9141V12.8641H7.79517V12.9141Z" fill="currentColor"/></svg>