<svg width="24" height="24" viewBox="0 0 18 18" fill="currentColor" xmlns="http://www.w3.org/2000/svg"><path d="M6.875 9C6.875 7.68832 5.81168 6.625 4.5 6.625C3.18832 6.625 2.125 7.68832 2.125 9C2.125 10.3117 3.18833 11.375 4.5 11.375C5.81167 11.375 6.875 10.3117 6.875 9ZM8.125 9C8.125 11.002 6.50204 12.625 4.5 12.625C2.49796 12.625 0.875 11.002 0.875 9C0.875 6.99797 2.49797 5.375 4.5 5.375C6.50203 5.375 8.125 6.99797 8.125 9Z" fill="currentColor"/><path d="M15.875 9C15.875 7.68833 14.8117 6.625 13.5 6.625C12.1883 6.625 11.125 7.68833 11.125 9C11.125 10.3116 12.1884 11.375 13.5 11.375C14.8116 11.375 15.875 10.3116 15.875 9ZM17.125 9C17.125 11.002 15.502 12.625 13.5 12.625C11.498 12.625 9.875 11.002 9.875 9C9.875 6.99796 11.498 5.375 13.5 5.375C15.502 5.375 17.125 6.99796 17.125 9Z" fill="currentColor"/><path d="M1.5 6.875C1.84518 6.875 2.125 7.15482 2.125 7.5C2.125 7.84518 1.84518 8.125 1.5 8.125H0.75C0.404822 8.125 0.125 7.84518 0.125 7.5C0.125 7.15482 0.404822 6.875 0.75 6.875H1.5Z" fill="currentColor"/><path d="M17.25 6.875C17.5952 6.875 17.875 7.15482 17.875 7.5C17.875 7.84518 17.5952 8.125 17.25 8.125H16.5C16.1548 8.125 15.875 7.84518 15.875 7.5C15.875 7.15482 16.1548 6.875 16.5 6.875H17.25Z" fill="currentColor"/><path d="M9.00003 6.125C9.78466 6.12503 10.5127 6.37516 11.1065 6.7998C11.3872 7.0006 11.4518 7.39111 11.251 7.67188C11.0502 7.95232 10.6606 8.01697 10.3799 7.81641C9.99117 7.53838 9.51543 7.37503 9.00003 7.375C8.49784 7.375 8.03344 7.52992 7.65042 7.79492C7.36659 7.9913 6.9777 7.92052 6.78128 7.63672C6.5849 7.35288 6.65568 6.96399 6.93949 6.76758C7.52477 6.36263 8.23564 6.125 9.00003 6.125Z" fill="currentColor"/></svg>