<svg width="24" height="24" viewBox="0 0 16 16" fill="currentColor" xmlns="http://www.w3.org/2000/svg"><path d="M11.5576 8.89131C11.8017 8.64723 12.1983 8.64723 12.4424 8.89131L14.4424 10.8913C14.6862 11.1353 14.6861 11.531 14.4424 11.7751L12.4424 13.7751C12.1983 14.0192 11.8017 14.0192 11.5576 13.7751C11.3139 13.531 11.3138 13.1353 11.5576 12.8913L12.4902 11.9587H11.4951C10.7989 11.9587 10.1309 11.6814 9.63867 11.1892L8.8916 10.4421C8.64752 10.198 8.64752 9.80238 8.8916 9.5583C9.13568 9.31422 9.53131 9.31422 9.77539 9.5583L10.5225 10.3054C10.7803 10.5632 11.1305 10.7087 11.4951 10.7087H12.4912L11.5576 9.7751C11.3139 9.53105 11.3138 9.13529 11.5576 8.89131ZM11.5576 2.22432C11.8017 1.98024 12.1983 1.98024 12.4424 2.22432L14.4424 4.22432C14.6865 4.4684 14.6865 4.86501 14.4424 5.10908L12.4424 7.10908C12.1983 7.35316 11.8017 7.35316 11.5576 7.10908C11.3135 6.86501 11.3135 6.4684 11.5576 6.22432L12.4902 5.2917H11.4951C11.1305 5.2917 10.7803 5.4362 10.5225 5.69404L4.36133 11.8562C3.86906 12.3484 3.20109 12.6247 2.50488 12.6247H2C1.65482 12.6247 1.375 12.3449 1.375 11.9997C1.37518 11.6547 1.65493 11.3747 2 11.3747H2.50488C2.86954 11.3747 3.21966 11.2302 3.47754 10.9724L9.63867 4.81026C10.131 4.31798 10.799 4.0417 11.4951 4.0417H12.4902L11.5576 3.10908C11.3135 2.86501 11.3135 2.4684 11.5576 2.22432ZM2.50488 3.37471C3.20108 3.37471 3.86904 3.65196 4.36133 4.14424L5.77539 5.5583C6.01931 5.80239 6.01941 6.19807 5.77539 6.44209C5.53137 6.68611 5.13569 6.68601 4.8916 6.44209L3.47754 5.02803C3.21968 4.77017 2.86956 4.62471 2.50488 4.62471H2C1.65482 4.62471 1.375 4.34489 1.375 3.99971C1.37518 3.65468 1.65493 3.37471 2 3.37471H2.50488Z" fill="currentColor"/></svg>