<svg width="24" height="24" viewBox="0 0 16 16" fill="currentColor" xmlns="http://www.w3.org/2000/svg"><path d="M14.0413 4.25806C14.0411 3.867 13.7244 3.55005 13.3333 3.55005H10.0002C9.28831 3.55005 8.70251 4.09109 8.63208 4.78442L8.62524 4.92505V12.0432C9.00397 11.8205 9.41771 11.6953 9.83545 11.6513C10.0277 11.631 10.1848 11.7898 10.1848 11.9831V12.5331C10.1848 12.7264 10.0269 12.8793 9.83644 12.9122C9.61571 12.9503 9.4104 13.0257 9.22876 13.1379C8.94173 13.3154 8.70977 13.5695 8.55884 13.8713C8.45299 14.0829 8.2368 14.2169 8.00024 14.217C7.76351 14.217 7.54654 14.0831 7.44067 13.8713C7.28971 13.5694 7.05786 13.3154 6.77075 13.1379C6.49667 12.9686 6.16923 12.8831 5.81567 12.8831H2.66626C1.58486 12.8829 0.708252 12.0065 0.708252 10.925V4.25806C0.708428 3.17676 1.58496 2.30022 2.66626 2.30005H6.00024C6.80143 2.30015 7.51785 2.65993 7.99927 3.22583C8.48076 2.65948 9.19862 2.30005 10.0002 2.30005H13.3333C14.4147 2.30005 15.2911 3.17665 15.2913 4.25806V7.24497C15.2913 7.43827 15.1346 7.59497 14.9413 7.59497H14.3913C14.198 7.59497 14.0413 7.43827 14.0413 7.24497V4.25806ZM1.95825 10.925C1.95825 11.3162 2.2752 11.6329 2.66626 11.6331H5.81567C6.34976 11.6331 6.89092 11.7591 7.37524 12.0442V4.92505C7.37524 4.16576 6.75951 3.55022 6.00024 3.55005H2.66626C2.27532 3.55022 1.95843 3.86711 1.95825 4.25806V10.925Z" fill="currentColor"/><path d="M13.6256 13.2455C13.9053 13.2455 14.132 13.4723 14.132 13.7519C14.132 14.0316 13.9053 14.2583 13.6256 14.2583H11.408C11.1283 14.2583 10.9016 14.0316 10.9016 13.7519C10.9016 13.4723 11.1283 13.2455 11.408 13.2455H13.6256ZM15.1156 10.996C15.3953 10.996 15.622 11.2227 15.622 11.5024C15.622 11.782 15.3953 12.0087 15.1156 12.0087H11.408C11.1283 12.0087 10.9016 11.782 10.9016 11.5024C10.9016 11.2227 11.1283 10.996 11.408 10.996H15.1156ZM15.1156 8.74731C15.3953 8.74731 15.622 8.97403 15.622 9.25371C15.622 9.53338 15.3953 9.7601 15.1156 9.7601H11.408C11.1283 9.7601 10.9016 9.53338 10.9016 9.25371C10.9016 8.97403 11.1283 8.74731 11.408 8.74731H15.1156Z" fill="currentColor"/></svg>