<svg width="24" height="24" viewBox="0 0 16 16" fill="currentColor" xmlns="http://www.w3.org/2000/svg"><path d="M12.7062 4.66675C12.7062 3.90827 12.0917 3.2937 11.3332 3.2937H4.6665C3.90804 3.2937 3.29346 3.90828 3.29346 4.66675V11.3334C3.29346 12.0919 3.90803 12.7065 4.6665 12.7065H11.3332C12.0917 12.7065 12.7062 12.0919 12.7062 11.3334V4.66675ZM8.77262 5.05347C8.92736 4.74399 9.30361 4.61829 9.61312 4.77287C9.92259 4.9276 10.0483 5.30385 9.89372 5.61336L7.22705 10.9467C7.07231 11.2562 6.69607 11.3819 6.38656 11.2273C6.07708 11.0726 5.95138 10.6963 6.10596 10.3868L8.77262 5.05347ZM13.9601 11.3334C13.9601 12.7841 12.7839 13.9604 11.3332 13.9604H4.6665C3.21585 13.9604 2.03955 12.7841 2.03955 11.3334V4.66675C2.03955 3.21608 3.21584 2.03979 4.6665 2.03979H11.3332C12.7839 2.03979 13.9601 3.21609 13.9601 4.66675V11.3334Z" fill="currentColor"/></svg>