<svg width="24" height="24" viewBox="0 0 16 16" fill="none" xmlns="http://www.w3.org/2000/svg"><path d="M12.6665 12.085V13.335H3.3335V12.085H12.6665ZM13.4165 11.335V4.66504C13.4165 4.25083 13.0807 3.91504 12.6665 3.91504H3.3335C2.91928 3.91504 2.5835 4.25083 2.5835 4.66504V11.335C2.5835 11.7492 2.91928 12.085 3.3335 12.085V13.335C2.22893 13.335 1.3335 12.4395 1.3335 11.335V4.66504C1.3335 3.56047 2.22893 2.66504 3.3335 2.66504H12.6665C13.7711 2.66504 14.6665 3.56047 14.6665 4.66504V11.335C14.6665 12.4395 13.7711 13.335 12.6665 13.335V12.085C13.0807 12.085 13.4165 11.7492 13.4165 11.335Z" fill="#F2A90C"/><path d="M9.31348 6.96191C9.6586 6.96198 9.93848 7.24178 9.93848 7.58691C9.93848 7.93205 9.6586 8.21185 9.31348 8.21191H6.71387C6.36869 8.21191 6.08887 7.93209 6.08887 7.58691C6.08887 7.24174 6.36869 6.96191 6.71387 6.96191H9.31348Z" fill="#F2A90C"/><path d="M1.3335 9.73828H3.84202C4.16823 9.73828 4.47394 9.89739 4.66109 10.1646L6.88171 13.335H3.3335C2.22893 13.335 1.3335 12.4395 1.3335 11.335V9.73828Z" fill="#F2A90C"/><path d="M14.667 9.73828H12.1585C11.8323 9.73828 11.5266 9.89739 11.3394 10.1646L9.11877 13.335H12.667C13.7716 13.335 14.667 12.4395 14.667 11.335V9.73828Z" fill="#F2A90C"/></svg>