<svg width="24" height="24" viewBox="0 0 16 16" fill="none" xmlns="http://www.w3.org/2000/svg"><path d="M6.07002 7.00996C6.31402 6.76619 6.70978 6.76623 6.95381 7.00996C7.19789 7.25404 7.19789 7.65065 6.95381 7.89473L6.15987 8.6877L6.95381 9.48262C7.19774 9.72671 7.19784 10.1224 6.95381 10.3664C6.70977 10.6102 6.31404 10.6103 6.07002 10.3664L4.83369 9.13008C4.58996 8.88605 4.58992 8.49029 4.83369 8.24629L6.07002 7.00996Z" fill="#00B983"/><path d="M9.90898 7.00996C9.66498 6.76619 9.26922 6.76623 9.02519 7.00996C8.78112 7.25404 8.78112 7.65065 9.02519 7.89473L9.81914 8.6877L9.02519 9.48262C8.78127 9.72671 8.78117 10.1224 9.02519 10.3664C9.26924 10.6102 9.66496 10.6103 9.90898 10.3664L11.1453 9.13008C11.389 8.88605 11.3891 8.49029 11.1453 8.24629L9.90898 7.00996Z" fill="#00B983"/><path d="M12.666 2.66504C13.7706 2.66504 14.666 3.56047 14.666 4.66504V6.24707C14.666 5.1425 13.7706 4.24707 12.666 4.24707H3.33496C2.23045 4.24714 1.33496 5.14254 1.33496 6.24707V4.66504C1.33496 3.56051 2.23045 2.6651 3.33496 2.66504H12.666Z" fill="#00B983"/><path d="M12.666 12.1287V13.3787H3.33506V12.1287H12.666ZM13.416 11.3787V5.332C13.416 5.19397 13.304 5.08207 13.166 5.082H2.83507C2.697 5.082 2.58507 5.19393 2.58507 5.332V11.3787C2.58519 11.7928 2.92093 12.1287 3.33506 12.1287V13.3787L3.13096 13.3679C2.18948 13.2725 1.44137 12.5243 1.34583 11.5828L1.33508 11.3787V5.332C1.33508 4.50359 2.00665 3.83203 2.83507 3.83203H13.166L13.3193 3.83984C14.0757 3.91669 14.666 4.55539 14.666 5.332V11.3787L14.6553 11.5828C14.5597 12.5242 13.8116 13.2725 12.8701 13.3679L12.666 13.3787V12.1287C13.0801 12.1287 13.4159 11.7928 13.416 11.3787Z" fill="#00B983"/><path d="M1.33508 4.16504C1.33508 3.33661 2.00666 2.66504 2.83508 2.66504H13.166C13.9944 2.66504 14.666 3.33661 14.666 4.16504V4.96387H1.33508V4.16504Z" fill="#00B983"/></svg>