<svg width="24" height="24" viewBox="0 0 16 16" fill="none" xmlns="http://www.w3.org/2000/svg"><path d="M12.2764 7.66504C12.2764 8.21732 11.8287 8.66504 11.2764 8.66504H9.07617C8.52389 8.66504 8.07617 8.21732 8.07617 7.66504V7.26562C8.07617 6.71334 8.52389 6.26562 9.07617 6.26562H11.2764C11.8287 6.26562 12.2764 6.71334 12.2764 7.26562V7.66504Z" fill="#3F85FF"/><path d="M12.6655 2.64355C13.7701 2.64355 14.6655 3.53899 14.6655 4.64355V6.22559C14.6655 5.12102 13.7701 4.22559 12.6655 4.22559H3.33447C2.22996 4.22565 1.33447 5.12106 1.33447 6.22559V4.64355C1.33447 3.53903 2.22996 2.64362 3.33447 2.64355H12.6655Z" fill="#3F85FF"/><path d="M12.6654 12.1072V13.3572H3.33445V12.1072H12.6654ZM13.4154 11.3573V5.31051C13.4154 5.17249 13.3034 5.06058 13.1654 5.06052H2.83446C2.69639 5.06052 2.58446 5.17245 2.58446 5.31051V11.3573C2.58458 11.7714 2.92032 12.1072 3.33445 12.1072V13.3572L3.13035 13.3465C2.18887 13.251 1.44076 12.5028 1.34521 11.5613L1.33447 11.3573V5.31051C1.33447 4.4821 2.00604 3.81055 2.83446 3.81055H13.1654L13.3187 3.81836C14.0751 3.89521 14.6654 4.53391 14.6654 5.31051V11.3573L14.6547 11.5613C14.5591 12.5027 13.811 13.251 12.8695 13.3465L12.6654 13.3572V12.1072C13.0795 12.1072 13.4153 11.7713 13.4154 11.3573Z" fill="#3F85FF"/><path d="M1.33447 4.14355C1.33447 3.31513 2.00605 2.64355 2.83447 2.64355H13.1654C13.9938 2.64355 14.6654 3.31513 14.6654 4.14355V4.94238H1.33447V4.14355Z" fill="#3F85FF"/></svg>