<svg width="24" height="24" viewBox="0 0 16 16" fill="currentColor" xmlns="http://www.w3.org/2000/svg"><path d="M6.04175 3.99976C6.04157 3.60881 5.72468 3.29192 5.33374 3.29175H3.99976C3.60881 3.29192 3.29192 3.60881 3.29175 3.99976V5.33374C3.29192 5.72468 3.60881 6.04157 3.99976 6.04175H5.33374C5.72468 6.04157 6.04157 5.72468 6.04175 5.33374V3.99976ZM7.29175 5.33374C7.29157 6.41504 6.41504 7.29157 5.33374 7.29175H3.99976C2.91846 7.29157 2.04192 6.41504 2.04175 5.33374V3.99976C2.04192 2.91846 2.91846 2.04192 3.99976 2.04175H5.33374C6.41504 2.04192 7.29157 2.91846 7.29175 3.99976V5.33374Z" fill="currentColor"/><path d="M6.04175 10.6665C6.04157 10.2755 5.72469 9.95867 5.33374 9.9585H3.99976C3.60881 9.95867 3.29192 10.2755 3.29175 10.6665V12.0005C3.29192 12.3914 3.60881 12.7083 3.99976 12.7085H5.33374C5.72469 12.7083 6.04157 12.3914 6.04175 12.0005V10.6665ZM7.29175 12.0005C7.29157 13.0818 6.41503 13.9583 5.33374 13.9585H3.99976C2.91846 13.9583 2.04192 13.0818 2.04175 12.0005V10.6665C2.04192 9.58518 2.91846 8.70867 3.99976 8.7085H5.33374C6.41503 8.70867 7.29157 9.58518 7.29175 10.6665V12.0005Z" fill="currentColor"/><path d="M12.7772 5.16729C13.0535 4.89073 13.0535 4.44259 12.7772 4.16602L11.8339 3.22275C11.5573 2.94643 11.1092 2.94643 10.8326 3.22275L9.88935 4.16602C9.61303 4.44259 9.61302 4.89072 9.88935 5.16729L10.8326 6.11056C11.1092 6.38689 11.5573 6.38688 11.8339 6.11056L12.7772 5.16729ZM12.7178 6.99445C11.9531 7.75891 10.7135 7.75893 9.94873 6.99445L9.00546 6.05118C8.24097 5.28644 8.241 4.04685 9.00546 3.28214L9.94873 2.33887C10.7134 1.5744 11.953 1.57438 12.7178 2.33887L13.661 3.28214C14.4255 4.04687 14.4255 5.28646 13.661 6.05118L12.7178 6.99445Z" fill="currentColor"/><path d="M12.7083 10.6665C12.7081 10.2756 12.3912 9.95867 12.0002 9.9585H10.6663C10.2753 9.95867 9.95843 10.2756 9.95825 10.6665V12.0005C9.95843 12.3914 10.2753 12.7083 10.6663 12.7085H12.0002C12.3912 12.7083 12.7081 12.3914 12.7083 12.0005V10.6665ZM13.9583 12.0005C13.9581 13.0818 13.0816 13.9583 12.0002 13.9585H10.6663C9.58493 13.9583 8.70843 13.0818 8.70825 12.0005V10.6665C8.70843 9.58521 9.58493 8.70867 10.6663 8.7085H12.0002C13.0816 8.70867 13.9581 9.58521 13.9583 10.6665V12.0005Z" fill="currentColor"/></svg>