<svg width="24" height="24" viewBox="0 0 16 16" fill="none" xmlns="http://www.w3.org/2000/svg"><path d="M12.6655 2.64355C13.7701 2.64355 14.6655 3.53899 14.6655 4.64355V6.22559C14.6655 5.12102 13.7701 4.22559 12.6655 4.22559H3.33447C2.22996 4.22565 1.33447 5.12106 1.33447 6.22559V4.64355C1.33447 3.53903 2.22996 2.64362 3.33447 2.64355H12.6655Z" fill="#747E94"/><path d="M12.6655 12.1072V13.3572H3.33458V12.1072H12.6655ZM13.4155 11.3573V5.31051C13.4155 5.17249 13.3036 5.06058 13.1655 5.06052H2.83458C2.69651 5.06052 2.58458 5.17245 2.58458 5.31051V11.3573C2.5847 11.7714 2.92044 12.1072 3.33458 12.1072V13.3572L3.13048 13.3465C2.18899 13.251 1.44089 12.5028 1.34534 11.5613L1.33459 11.3573V5.31051C1.33459 4.4821 2.00616 3.81055 2.83458 3.81055H13.1655L13.3189 3.81836C14.0752 3.89521 14.6655 4.53391 14.6655 5.31051V11.3573L14.6548 11.5613C14.5592 12.5027 13.8111 13.251 12.8696 13.3465L12.6655 13.3572V12.1072C13.0796 12.1072 13.4154 11.7713 13.4155 11.3573Z" fill="#747E94"/><path d="M1.33459 4.14355C1.33459 3.31513 2.00617 2.64355 2.83459 2.64355H13.1655C13.994 2.64355 14.6655 3.31513 14.6655 4.14355V4.94238H1.33459V4.14355Z" fill="#747E94"/><path d="M9.41269 9.25845C9.75787 9.25845 10.0377 9.53827 10.0377 9.88345C10.0376 10.2285 9.75778 10.5084 9.41269 10.5084H7.95273C7.60763 10.5084 7.32786 10.2285 7.32773 9.88345C7.32773 9.53827 7.60755 9.25845 7.95273 9.25845H9.41269ZM4.53183 7.08462C4.76662 6.83176 5.16169 6.81679 5.41464 7.05142L6.37753 7.94497C6.81425 8.35049 6.81425 9.04238 6.37753 9.4479L5.41464 10.3415C5.16168 10.576 4.76659 10.5611 4.53183 10.3083C4.29708 10.0553 4.31213 9.66028 4.56503 9.42544L5.34921 8.69595L4.56503 7.96743C4.31218 7.73264 4.29721 7.33757 4.53183 7.08462Z" fill="#747E94"/></svg>