<svg width="24" height="24" viewBox="0 0 16 16" fill="none" xmlns="http://www.w3.org/2000/svg"><path d="M1.4209 11.335V4.71094C1.4209 3.67529 2.20812 2.82394 3.2168 2.72168L3.4209 2.71094H7.95605V13.335H3.4209V12.085H6.70605V3.96094H3.4209C3.00668 3.96094 2.6709 4.29672 2.6709 4.71094V11.335C2.6709 11.7492 3.00668 12.085 3.4209 12.085V13.335C2.38525 13.335 1.5339 12.5477 1.43164 11.5391L1.4209 11.335Z" fill="#9570FF"/><path d="M7.95605 13.335H3.4209C2.31633 13.335 1.4209 12.4395 1.4209 11.335V4.71094C1.4209 3.60637 2.31633 2.71094 3.4209 2.71094H7.95605V13.335ZM4.61426 9.63184C4.26908 9.63184 3.98926 9.91166 3.98926 10.2568C3.98926 10.602 4.26908 10.8818 4.61426 10.8818H5.87891C6.22397 10.8817 6.50391 10.6019 6.50391 10.2568C6.50391 9.91174 6.22397 9.63197 5.87891 9.63184H4.61426ZM4.61426 7.375C4.26908 7.375 3.98926 7.65482 3.98926 8C3.98926 8.34518 4.26908 8.625 4.61426 8.625H5.87891C6.22397 8.62487 6.50391 8.3451 6.50391 8C6.50391 7.6549 6.22397 7.37513 5.87891 7.375H4.61426ZM4.61426 5.11816C4.26908 5.11816 3.98926 5.39799 3.98926 5.74316C3.98926 6.08834 4.26908 6.36816 4.61426 6.36816H5.87891C6.22397 6.36803 6.50391 6.08826 6.50391 5.74316C6.50391 5.39807 6.22397 5.1183 5.87891 5.11816H4.61426Z" fill="#9570FF"/><path d="M13.4175 4.71094C13.4175 4.29689 13.0815 3.9612 12.6675 3.96094H7.95361V12.085H12.6675C13.0815 12.0847 13.4175 11.749 13.4175 11.335V4.71094ZM14.6675 11.335L14.6567 11.5391C14.5545 12.5476 13.7029 13.3337 12.6675 13.334L12.6665 13.335H6.70361V2.71094H12.6675L12.8716 2.72168C13.88 2.82417 14.6675 3.67545 14.6675 4.71094V11.335Z" fill="#9570FF"/><path d="M11.415 5.11816C11.7602 5.11823 12.04 5.39803 12.04 5.74316C12.04 6.0883 11.7602 6.3681 11.415 6.36816H10.1504C9.80521 6.36816 9.52539 6.08834 9.52539 5.74316C9.52539 5.39799 9.80521 5.11816 10.1504 5.11816H11.415Z" fill="#9570FF"/><path d="M11.415 7.375C11.7602 7.37507 12.04 7.65486 12.04 8C12.04 8.34514 11.7602 8.62493 11.415 8.625H10.1504C9.80521 8.625 9.52539 8.34518 9.52539 8C9.52539 7.65482 9.80521 7.375 10.1504 7.375H11.415Z" fill="#9570FF"/><path d="M11.415 9.63184C11.7602 9.6319 12.04 9.9117 12.04 10.2568C12.04 10.602 11.7602 10.8818 11.415 10.8818H10.1504C9.80521 10.8818 9.52539 10.602 9.52539 10.2568C9.52539 9.91166 9.80521 9.63184 10.1504 9.63184H11.415Z" fill="#9570FF"/></svg>