<svg width="24" height="24" viewBox="0 0 16 16" fill="currentColor" xmlns="http://www.w3.org/2000/svg"><path d="M4.00122 13.292C4.34625 13.2919 4.62609 13.012 4.62622 12.667V4.84375L5.55786 5.77539C5.80186 6.01931 6.19756 6.01924 6.44165 5.77539C6.68571 5.53146 6.6864 5.13576 6.44263 4.8916L4.4436 2.8916C4.32646 2.77439 4.16693 2.70907 4.00122 2.70898C3.83563 2.70901 3.67698 2.77458 3.55981 2.8916L1.55884 4.8916C1.31482 5.13555 1.31407 5.53125 1.55786 5.77539C1.80186 6.01931 2.19756 6.01924 2.44165 5.77539L3.37622 4.8418V12.667C3.37635 13.012 3.65617 13.2919 4.00122 13.292ZM13.3342 5.29199C13.679 5.29156 13.9591 5.01179 13.9592 4.66699C13.9592 4.32208 13.679 4.04243 13.3342 4.04199H10.6672C10.3221 4.04199 10.0422 4.32181 10.0422 4.66699C10.0424 5.01206 10.3221 5.29199 10.6672 5.29199H13.3342ZM13.3333 8.625C13.6784 8.625 13.9583 8.34518 13.9583 8C13.9583 7.65482 13.6784 7.375 13.3333 7.375H9.33325C8.98808 7.37501 8.70825 7.65483 8.70825 8C8.70825 8.34517 8.98808 8.62499 9.33325 8.625H13.3333ZM13.3333 11.958C13.6783 11.9579 13.9583 11.6781 13.9583 11.333C13.9581 10.988 13.6782 10.7081 13.3333 10.708H8.00024C7.65515 10.708 7.37538 10.9879 7.37524 11.333C7.37524 11.6782 7.65507 11.958 8.00024 11.958H13.3333Z" fill="currentColor"/></svg>