<svg width="24" height="24" viewBox="0 0 16 16" fill="currentColor" xmlns="http://www.w3.org/2000/svg"><g clip-path="url(#svg_be538c9864__clip0_13543_2901)"><path d="M9.4502 11.6664C9.4502 12.5224 10.144 13.2172 11 13.2172L13 13.2172C13.856 13.2172 14.5498 12.5224 14.5498 11.6664L14.5498 4.33337C14.5498 3.47733 13.856 2.78357 13 2.78357L11 2.78357C10.144 2.78357 9.4502 3.47733 9.4502 4.33337L9.4502 11.6664ZM10.5498 4.33337C10.5498 4.08485 10.7515 3.88318 11 3.88318L13 3.88318C13.2485 3.88318 13.4502 4.08485 13.4502 4.33337L13.4502 11.6664C13.4502 11.9149 13.2485 12.1166 13 12.1166L11 12.1166C10.7515 12.1166 10.5498 11.9149 10.5498 11.6664L10.5498 4.33337ZM7.4502 14.6664C7.4502 14.9701 7.69624 15.2172 8 15.2172C8.30376 15.2172 8.5498 14.9701 8.5498 14.6664L8.54981 1.33337C8.54981 1.02962 8.30376 0.78357 8 0.78357C7.69624 0.78357 7.4502 1.02962 7.4502 1.33337L7.4502 14.6664ZM1.4502 11.6664C1.4502 12.5224 2.14396 13.2172 3 13.2172L5 13.2172C5.85604 13.2172 6.5498 12.5224 6.5498 11.6664L6.54981 4.33337C6.54981 3.47733 5.85604 2.78357 5 2.78357L3 2.78357C2.14396 2.78357 1.4502 3.47733 1.4502 4.33337L1.4502 11.6664ZM2.54981 4.33337C2.54981 4.08485 2.75147 3.88318 3 3.88318L5 3.88318C5.24853 3.88318 5.4502 4.08485 5.4502 4.33337L5.4502 11.6664C5.4502 11.9149 5.24853 12.1166 5 12.1166L3 12.1166C2.75147 12.1166 2.5498 11.9149 2.5498 11.6664L2.54981 4.33337Z" fill="currentColor"/></g><defs><clipPath id="svg_be538c9864__clip0_13543_2901"><path fill="currentColor" transform="matrix(0 1 1 0 0 0)" d="M0 0H16V16H0z"/></clipPath></defs></svg>