<svg width="24" height="24" viewBox="0 0 16 16" fill="currentColor" xmlns="http://www.w3.org/2000/svg"><path d="M7.02002 11.1C7.241 10.8348 7.63473 10.7989 7.8999 11.0199L9.80713 12.6088C9.8141 12.6145 9.81875 12.6167 9.8208 12.6176C9.8229 12.6184 9.82471 12.6193 9.82666 12.6195C9.8313 12.62 9.84055 12.6195 9.85107 12.6146C9.86167 12.6097 9.86799 12.6029 9.87061 12.599C9.87176 12.5973 9.87283 12.5954 9.87354 12.5931C9.87419 12.591 9.87548 12.5858 9.87549 12.5765V8.50037C9.87549 8.15519 10.1553 7.87537 10.5005 7.87537C10.8455 7.87554 11.1255 8.1553 11.1255 8.50037V12.5765C11.1254 13.6717 9.84757 14.2697 9.00635 13.5687L7.1001 11.9799C6.83499 11.7589 6.7992 11.3651 7.02002 11.1ZM9.87549 5.09998V3.42322C9.87549 3.41405 9.8742 3.40884 9.87354 3.40662C9.87284 3.40434 9.87175 3.40248 9.87061 3.40076C9.868 3.39685 9.8617 3.39011 9.85107 3.38513C9.84054 3.38024 9.8313 3.37976 9.82666 3.38025C9.82472 3.38049 9.82289 3.38133 9.8208 3.3822C9.81871 3.38309 9.81406 3.38525 9.80713 3.39099L7.271 5.50428C6.91906 5.79752 6.47517 5.95838 6.01709 5.95838H5.1665C4.77549 5.95855 4.45856 6.27534 4.4585 6.66638V9.33338C4.45861 9.72439 4.77551 10.0412 5.1665 10.0414C5.51164 10.0414 5.79144 10.3213 5.7915 10.6664C5.7915 11.0116 5.51168 11.2914 5.1665 11.2914C4.08517 11.2912 3.20861 10.4148 3.2085 9.33338V6.66638C3.20856 5.58499 4.08513 4.70855 5.1665 4.70838H6.01709C6.1828 4.70838 6.3439 4.65039 6.47119 4.54431L9.00635 2.43103C9.84763 1.72992 11.1255 2.3281 11.1255 3.42322V5.09998C11.1254 5.445 10.8455 5.7248 10.5005 5.72498C10.1553 5.72498 9.87554 5.44511 9.87549 5.09998Z" fill="currentColor"/><path d="M12.488 2.55817C12.7321 2.31409 13.1278 2.31409 13.3719 2.55817C13.6159 2.80224 13.6159 3.19797 13.3719 3.44205L2.94204 13.8719C2.69796 14.116 2.30223 14.116 2.05815 13.8719C1.81408 13.6278 1.81407 13.2321 2.05815 12.988L12.488 2.55817Z" fill="currentColor"/></svg>