<svg width="24" height="24" viewBox="0 0 16 16" fill="currentColor" xmlns="http://www.w3.org/2000/svg"><path d="M7.37354 3.40662C7.37284 3.40434 7.37175 3.40248 7.37061 3.40076C7.368 3.39685 7.3617 3.39011 7.35107 3.38513C7.34054 3.38024 7.3313 3.37976 7.32666 3.38025C7.32472 3.38049 7.32289 3.38133 7.3208 3.3822C7.31871 3.38309 7.31406 3.38526 7.30713 3.39099L4.771 5.50428C4.41906 5.79752 3.97517 5.95838 3.51709 5.95838H2.6665C2.27549 5.95855 1.95856 6.27534 1.9585 6.66638V9.33338C1.95861 9.72439 2.27551 10.0412 2.6665 10.0414H3.51709C3.97518 10.0414 4.41904 10.2022 4.771 10.4955L7.30713 12.6088C7.3141 12.6145 7.31875 12.6167 7.3208 12.6176C7.3229 12.6184 7.32471 12.6193 7.32666 12.6195C7.3313 12.62 7.34055 12.6195 7.35107 12.6146C7.36167 12.6097 7.36799 12.6029 7.37061 12.599C7.37176 12.5973 7.37283 12.5954 7.37354 12.5931C7.37419 12.591 7.37548 12.5858 7.37549 12.5765V3.42322C7.37549 3.41405 7.3742 3.40884 7.37354 3.40662ZM14.0415 8.00037C14.0415 6.33187 13.366 4.82192 12.272 3.72791C12.0282 3.48381 12.028 3.0881 12.272 2.84412C12.516 2.60013 12.9117 2.60033 13.1558 2.84412C14.4747 4.16296 15.2915 5.98703 15.2915 8.00037C15.2915 10.0138 14.4746 11.8378 13.1558 13.1566C12.9117 13.4004 12.5159 13.4006 12.272 13.1566C12.028 12.9126 12.0282 12.5169 12.272 12.2728C13.366 11.1789 14.0415 9.66893 14.0415 8.00037ZM11.0415 8.00037C11.0415 7.16025 10.702 6.40012 10.1509 5.849C9.907 5.60491 9.90687 5.20922 10.1509 4.96521C10.3949 4.72128 10.7906 4.72136 11.0347 4.96521C11.8106 5.74117 12.2915 6.81542 12.2915 8.00037C12.2914 9.18519 11.8105 10.2587 11.0347 11.0345C10.7906 11.2786 10.395 11.2786 10.1509 11.0345C9.90696 10.7905 9.90685 10.3948 10.1509 10.1508C10.7019 9.59971 11.0414 8.84037 11.0415 8.00037ZM8.62549 12.5765C8.62541 13.6717 7.34757 14.2697 6.50635 13.5687L3.97119 11.4554C3.84391 11.3494 3.68283 11.2914 3.51709 11.2914H2.6665C1.58517 11.2912 0.708606 10.4148 0.708496 9.33338V6.66638C0.708559 5.58499 1.58513 4.70855 2.6665 4.70838H3.51709C3.6828 4.70838 3.8439 4.65039 3.97119 4.54431L6.50635 2.43103C7.34763 1.72992 8.62549 2.3281 8.62549 3.42322V12.5765Z" fill="currentColor"/></svg>