<svg width="24" height="24" viewBox="0 0 16 16" fill="currentColor" xmlns="http://www.w3.org/2000/svg"><path d="M13.5754 4C13.5754 3.51688 13.1835 3.12521 12.7004 3.125H3.30005C2.8168 3.125 2.42505 3.51675 2.42505 4V9.40039C2.42526 9.88346 2.81693 10.2754 3.30005 10.2754H12.7004C13.1834 10.2752 13.5752 9.88333 13.5754 9.40039V4ZM14.8254 9.40039C14.8252 10.5737 13.8737 11.5252 12.7004 11.5254H3.30005C2.12657 11.5254 1.17526 10.5738 1.17505 9.40039V4C1.17505 2.8264 2.12644 1.875 3.30005 1.875H12.7004C13.8739 1.87521 14.8254 2.82653 14.8254 4V9.40039Z" fill="currentColor"/><path d="M6.4822 4.52388C6.70675 4.29933 7.07113 4.29933 7.29568 4.52388C7.51987 4.74837 7.51987 5.1119 7.29568 5.33638L5.92361 6.70748L7.29568 8.07955C7.51983 8.30405 7.5199 8.66759 7.29568 8.89205C7.07113 9.1166 6.70675 9.1166 6.4822 8.89205L4.82986 7.24068C4.53588 6.9467 4.53588 6.46923 4.82986 6.17525L6.4822 4.52388ZM8.70486 4.52388C8.92941 4.29933 9.29281 4.29933 9.51736 4.52388L11.1697 6.17525C11.4637 6.46923 11.4637 6.9467 11.1697 7.24068L9.51736 8.89205C9.29282 9.11653 8.9294 9.11653 8.70486 8.89205C8.48032 8.66751 8.48036 8.3041 8.70486 8.07955L10.075 6.70748L8.70486 5.33638C8.48031 5.11183 8.48031 4.74843 8.70486 4.52388Z" fill="currentColor"/><path d="M10.5 12.6748C10.8452 12.6748 11.125 12.9546 11.125 13.2998C11.125 13.645 10.8452 13.9248 10.5 13.9248H5.5C5.15482 13.9248 4.875 13.645 4.875 13.2998C4.875 12.9546 5.15482 12.6748 5.5 12.6748H10.5Z" fill="currentColor"/></svg>