<svg width="24" height="24" viewBox="0 0 16 16" fill="currentColor" xmlns="http://www.w3.org/2000/svg"><path d="M6.76452 1.48267C7.26184 0.450764 8.73888 0.450764 9.2362 1.48267L10.5799 4.26978C10.5962 4.30325 10.6298 4.3296 10.6727 4.33521L13.7655 4.73853C14.9011 4.88677 15.3741 6.28621 14.5282 7.0813L12.2665 9.20728C12.2377 9.23429 12.2259 9.27195 12.2323 9.30689L12.8007 12.344C13.0074 13.4495 11.8767 14.2768 10.8964 13.8391L10.8016 13.7922L8.06042 12.3196C8.02327 12.2996 7.97745 12.2996 7.9403 12.3196L5.19909 13.7922C4.19864 14.3298 2.98664 13.4852 3.20007 12.344L3.76745 9.30689C3.77394 9.2719 3.76299 9.2343 3.73425 9.20728L1.47155 7.0813C0.625818 6.28617 1.09974 4.88673 2.23522 4.73853L5.328 4.33521C5.37076 4.3295 5.40459 4.30323 5.42077 4.26978L6.76452 1.48267ZM7.99987 1.95825C7.97307 1.95831 7.95022 1.96588 7.93347 1.97583C7.91909 1.98439 7.90361 1.99756 7.8905 2.02466L6.54675 4.81275C6.34551 5.22995 5.94639 5.51479 5.48913 5.57446L2.39636 5.97876C2.28891 5.99308 2.26458 6.11038 2.328 6.17017L4.59069 8.29712C4.92779 8.61419 5.08228 9.08104 4.99694 9.53736L4.42858 12.5735C4.42316 12.6025 4.42781 12.6208 4.43347 12.634C4.44027 12.6499 4.45362 12.6679 4.47448 12.6829C4.49524 12.6978 4.51761 12.7065 4.53796 12.7083C4.55575 12.7098 4.57841 12.7072 4.60729 12.6917L7.3485 11.218C7.75495 10.9997 8.24474 10.9998 8.65124 11.218L11.3934 12.6917C11.422 12.707 11.4441 12.7097 11.4618 12.7083C11.4822 12.7065 11.5054 12.6979 11.5262 12.6829C11.5471 12.6679 11.5605 12.6499 11.5673 12.634C11.5729 12.6208 11.5775 12.6024 11.5721 12.5735L11.0038 9.53736V9.53638C10.9186 9.0801 11.073 8.61406 11.41 8.29712L13.6727 6.17017C13.736 6.11025 13.7111 5.99282 13.6034 5.97876L10.5106 5.57446C10.0534 5.51467 9.65412 5.22997 9.453 4.81275L8.11022 2.02466C8.09715 1.99758 8.0816 1.98441 8.06725 1.97583C8.05043 1.96582 8.02685 1.95825 7.99987 1.95825Z" fill="currentColor"/></svg>