<svg width="24" height="24" viewBox="0 0 16 16" fill="currentColor" xmlns="http://www.w3.org/2000/svg"><path d="M6.33325 7.00004C6.33325 6.63185 6.63173 6.33337 6.99992 6.33337H8.99992C9.36812 6.33337 9.66659 6.63185 9.66659 7.00004V9.00004C9.66659 9.36824 9.36812 9.66671 8.99992 9.66671H6.99992C6.63173 9.66671 6.33325 9.36824 6.33325 9.00004V7.00004Z" fill="currentColor"/><path d="M13.375 8C13.375 5.03147 10.9685 2.625 8 2.625C5.03147 2.625 2.625 5.03147 2.625 8C2.625 10.9685 5.03147 13.375 8 13.375C10.9685 13.375 13.375 10.9685 13.375 8ZM14.625 8C14.625 11.6589 11.6589 14.625 8 14.625C4.34111 14.625 1.375 11.6589 1.375 8C1.375 4.34111 4.34111 1.375 8 1.375C11.6589 1.375 14.625 4.34111 14.625 8Z" fill="currentColor"/></svg>