<svg width="24" height="24" viewBox="0 0 16 16" fill="currentColor" xmlns="http://www.w3.org/2000/svg"><path d="M9.9345 3H6.0655C5.61392 2.99999 5.24969 2.99999 4.95474 3.02409C4.65106 3.04891 4.38431 3.10133 4.13752 3.22707C3.74552 3.42681 3.42681 3.74552 3.22707 4.13752C3.10133 4.38431 3.04891 4.65106 3.02409 4.95474C2.99999 5.24969 2.99999 5.61392 3 6.06549V9.9345C2.99999 10.3861 2.99999 10.7503 3.02409 11.0453C3.04891 11.3489 3.10133 11.6157 3.22707 11.8625C3.42681 12.2545 3.74552 12.5732 4.13752 12.7729C4.38431 12.8987 4.65106 12.9511 4.95474 12.9759C5.24969 13 5.61392 13 6.06549 13H9.9345C10.3861 13 10.7503 13 11.0453 12.9759C11.3489 12.9511 11.6157 12.8987 11.8625 12.7729C12.2545 12.5732 12.5732 12.2545 12.7729 11.8625C12.8987 11.6157 12.9511 11.3489 12.9759 11.0453C13 10.7503 13 10.3861 13 9.9345V6.06549C13 5.61392 13 5.24969 12.9759 4.95474C12.9511 4.65106 12.8987 4.38431 12.7729 4.13752C12.5732 3.74552 12.2545 3.42681 11.8625 3.22707C11.6157 3.10133 11.3489 3.04891 11.0453 3.02409C10.7503 2.99999 10.3861 2.99999 9.9345 3Z" fill="currentColor"/></svg>