<svg width="24" height="24" viewBox="0 0 16 16" fill="currentColor" xmlns="http://www.w3.org/2000/svg"><path d="M12.0415 9.54102C11.8735 9.62302 11.6964 9.70111 11.5103 9.76758C10.5823 10.099 9.34122 10.292 8.00049 10.292C6.65958 10.292 5.41783 10.099 4.48975 9.76758C4.3036 9.70109 4.12648 9.62305 3.9585 9.54102V12.333C3.95836 12.3087 3.94282 12.3696 4.10303 12.5049C4.26112 12.6384 4.52749 12.786 4.91064 12.9229C5.67156 13.1946 6.76407 13.375 8.00049 13.375C9.23664 13.375 10.3285 13.1945 11.0894 12.9229C11.4724 12.786 11.7389 12.6383 11.897 12.5049C12.0573 12.3695 12.0416 12.3087 12.0415 12.333V9.54102ZM12.0415 5.20801C11.8736 5.28998 11.6963 5.36715 11.5103 5.43359C10.5822 5.76503 9.34128 5.95798 8.00049 5.95801C6.65958 5.95801 5.41783 5.76505 4.48975 5.43359C4.30372 5.36714 4.12638 5.28998 3.9585 5.20801V8C3.9585 7.97482 3.94246 8.03519 4.10303 8.1709C4.26112 8.30439 4.52747 8.45299 4.91064 8.58984C5.67156 8.86159 6.76411 9.04199 8.00049 9.04199C9.23658 9.04196 10.3285 8.86151 11.0894 8.58984C11.4725 8.45299 11.7389 8.30439 11.897 8.1709C12.0577 8.03508 12.0415 7.97481 12.0415 8V5.20801ZM12.0415 3.66699C12.0416 3.69134 12.0573 3.63046 11.897 3.49512C11.7389 3.36165 11.4724 3.21396 11.0894 3.07715C10.3285 2.80547 9.23664 2.62503 8.00049 2.625C6.76407 2.625 5.67156 2.80539 4.91064 3.07715C4.52749 3.21399 4.26112 3.36163 4.10303 3.49512C3.94282 3.63042 3.95836 3.69133 3.9585 3.66699C3.9585 3.6418 3.94229 3.70209 4.10303 3.83789C4.26112 3.97138 4.52747 4.11999 4.91064 4.25684C5.67155 4.52856 6.76416 4.70801 8.00049 4.70801C9.23653 4.70798 10.3285 4.52848 11.0894 4.25684C11.4725 4.11999 11.7389 3.97138 11.897 3.83789C12.0579 3.70198 12.0415 3.6418 12.0415 3.66699ZM13.2915 12.333C13.2915 12.8184 13.0149 13.1971 12.7036 13.46C12.3894 13.7253 11.9716 13.9358 11.5103 14.1006C10.5822 14.432 9.34127 14.625 8.00049 14.625C6.65958 14.625 5.41783 14.432 4.48975 14.1006C4.02872 13.9359 3.61145 13.7251 3.29736 13.46C2.98606 13.1971 2.7085 12.8184 2.7085 12.333V3.66699C2.7085 3.18156 2.98606 2.8029 3.29736 2.54004C3.61145 2.27494 4.02872 2.06409 4.48975 1.89941C5.41783 1.56795 6.65958 1.375 8.00049 1.375C9.34127 1.37503 10.5822 1.56798 11.5103 1.89941C11.9716 2.06417 12.3894 2.27474 12.7036 2.54004C13.0149 2.8029 13.2915 3.18156 13.2915 3.66699V12.333Z" fill="currentColor"/></svg>