<svg width="24" height="24" viewBox="0 0 16 16" fill="currentColor" xmlns="http://www.w3.org/2000/svg"><path d="M11.7393 10.0459C12.0821 10.0063 12.3919 10.252 12.4316 10.5947C12.4468 10.7259 12.4551 10.8612 12.4551 11C12.4551 12.6428 10.9753 14.625 7.99609 14.625C6.45133 14.6249 5.38106 14.0936 4.66309 13.4131C3.95986 12.7465 3.63078 11.9729 3.4873 11.5234C3.38247 11.1948 3.56416 10.8435 3.89258 10.7383C4.22139 10.6333 4.57372 10.8148 4.67871 11.1436C4.78476 11.4756 5.02555 12.0347 5.52246 12.5059C6.00504 12.9632 6.76683 13.3749 7.99609 13.375C10.3502 13.375 11.2051 11.889 11.2051 11C11.2051 10.9067 11.1998 10.8196 11.1904 10.7383C11.1509 10.3955 11.3965 10.0856 11.7393 10.0459ZM7.99609 1.375C9.54165 1.375 10.5741 1.90789 11.2383 2.61133C11.8842 3.29561 12.1314 4.08636 12.2256 4.53906C12.2959 4.877 12.0782 5.20802 11.7402 5.27832C11.4024 5.34838 11.0713 5.13176 11.001 4.79395C10.9326 4.46512 10.7579 3.92312 10.3301 3.46973C9.91999 3.03536 9.2247 2.625 7.99609 2.625C6.80699 2.62508 6.05871 3.0072 5.6084 3.46387C5.14707 3.93191 4.95508 4.52154 4.95508 5C4.95508 5.39137 5.04323 5.68003 5.17871 5.90625C5.31642 6.13616 5.52314 6.33573 5.80566 6.51562C6.3948 6.89062 7.21136 7.12156 8.15723 7.37402L8.16016 7.375H14C14.3452 7.375 14.625 7.65482 14.625 8C14.625 8.34518 14.3452 8.625 14 8.625H2C1.65482 8.625 1.375 8.34518 1.375 8C1.375 7.65482 1.65482 7.375 2 7.375H4.85547C4.56491 7.15162 4.30563 6.88129 4.10645 6.54883C3.84304 6.10903 3.70508 5.59375 3.70508 5C3.70508 4.2127 4.01272 3.30233 4.71777 2.58691C5.43405 1.86028 6.51915 1.37508 7.99609 1.375Z" fill="currentColor"/></svg>