<svg width="24" height="24" viewBox="0 0 16 16" fill="currentColor" xmlns="http://www.w3.org/2000/svg"><path d="M3.66699 7.4502C3.9706 7.45037 4.2168 7.69635 4.2168 8C4.2168 8.30365 3.9706 8.54963 3.66699 8.5498H2C1.69624 8.5498 1.4502 8.30376 1.4502 8C1.4502 7.69624 1.69624 7.4502 2 7.4502H3.66699ZM9 7.4502C9.30361 7.45037 9.5498 7.69635 9.5498 8C9.5498 8.30365 9.30361 8.54963 9 8.5498H7.33301C7.02936 8.54967 6.7832 8.30368 6.7832 8C6.7832 7.69632 7.02936 7.45033 7.33301 7.4502H9ZM14 7.4502C14.3036 7.45033 14.5508 7.69632 14.5508 8C14.5508 8.30368 14.3036 8.54967 14 8.5498H12.667C12.3632 8.5498 12.1172 8.30376 12.1172 8C12.1172 7.69624 12.3632 7.4502 12.667 7.4502H14Z" fill="currentColor"/></svg>