<svg width="24" height="24" viewBox="0 0 16 16" fill="currentColor" xmlns="http://www.w3.org/2000/svg"><path d="M1.90527 8.56787C2.22155 8.56787 2.47852 8.3109 2.47852 7.99463C2.4783 7.67854 2.22142 7.42236 1.90527 7.42236C1.58932 7.42258 1.33323 7.67867 1.33301 7.99463C1.33301 8.31077 1.58918 8.56765 1.90527 8.56787ZM4.31152 8.56787C4.6278 8.56787 4.88477 8.3109 4.88477 7.99463C4.88455 7.67854 4.62767 7.42236 4.31152 7.42236C3.99557 7.42258 3.73948 7.67867 3.73926 7.99463C3.73926 8.31077 3.99543 8.56765 4.31152 8.56787ZM6.77051 8.56787C7.08674 8.56782 7.34277 8.31088 7.34277 7.99463C7.34256 7.67857 7.08661 7.42241 6.77051 7.42236C6.45437 7.42236 6.19846 7.67854 6.19824 7.99463C6.19824 8.3109 6.45423 8.56787 6.77051 8.56787ZM9.22852 8.56787C9.54479 8.56787 9.80176 8.3109 9.80176 7.99463C9.80154 7.67854 9.54466 7.42236 9.22852 7.42236C8.91256 7.42258 8.65647 7.67867 8.65625 7.99463C8.65625 8.31077 8.91242 8.56765 9.22852 8.56787ZM11.6875 8.56787C12.0037 8.56782 12.2598 8.31088 12.2598 7.99463C12.2595 7.67857 12.0036 7.42241 11.6875 7.42236C11.3714 7.42236 11.1155 7.67854 11.1152 7.99463C11.1152 8.3109 11.3712 8.56787 11.6875 8.56787ZM14.1455 8.56787C14.4618 8.56787 14.7188 8.3109 14.7188 7.99463C14.7185 7.67854 14.4616 7.42236 14.1455 7.42236C13.8294 7.42245 13.5735 7.67859 13.5732 7.99463C13.5732 8.31085 13.8293 8.56779 14.1455 8.56787Z" fill="currentColor"/></svg>