<svg width="24" height="24" viewBox="0 0 16 16" fill="currentColor" xmlns="http://www.w3.org/2000/svg"><path d="M5.45703 5.87939C5.88806 5.7009 6.36274 5.65465 6.82031 5.7456C7.27798 5.83665 7.69931 6.06117 8.0293 6.39111L7.1543 7.26611C6.99735 7.10921 6.79675 7.00278 6.5791 6.95947C6.36147 6.9162 6.13568 6.93808 5.93066 7.02294C5.72578 7.10784 5.55006 7.25169 5.42676 7.43603C5.30355 7.62049 5.23835 7.83823 5.23828 8.06005C5.23833 8.28188 5.30355 8.4996 5.42676 8.68407C5.55008 8.86848 5.72571 9.01226 5.93066 9.09716C6.1357 9.18207 6.36144 9.2039 6.5791 9.16064C6.79672 9.11731 6.99738 9.01087 7.1543 8.854L8.0293 9.729C7.69933 10.0589 7.27795 10.2834 6.82031 10.3745C6.3627 10.4654 5.88809 10.4183 5.45703 10.2397C5.02604 10.0611 4.65766 9.75849 4.39844 9.3706C4.13935 8.98269 4.00005 8.52653 4 8.06005C4.00007 7.59351 4.13927 7.13646 4.39844 6.74853C4.65769 6.36084 5.02614 6.05789 5.45703 5.87939ZM9.63574 5.87939C10.0668 5.70089 10.5414 5.65465 10.999 5.7456C11.4567 5.83665 11.878 6.06117 12.208 6.39111L11.333 7.26611C11.1761 7.10921 10.9755 7.00277 10.7578 6.95947C10.5402 6.91619 10.3144 6.93807 10.1094 7.02294C9.90449 7.10784 9.72877 7.25168 9.60547 7.43603C9.48226 7.62049 9.41706 7.83823 9.41699 8.06005C9.41705 8.28188 9.48227 8.4996 9.60547 8.68407C9.72878 8.86847 9.90443 9.01225 10.1094 9.09716C10.3144 9.18207 10.5401 9.2039 10.7578 9.16064C10.9754 9.11732 11.1761 9.01088 11.333 8.854L12.208 9.729C11.878 10.0589 11.4567 10.2834 10.999 10.3745C10.5414 10.4654 10.0668 10.4183 9.63574 10.2397C9.20476 10.0611 8.83637 9.75848 8.57715 9.3706C8.31807 8.98269 8.17877 8.52652 8.17871 8.06005C8.17878 7.59351 8.31798 7.13646 8.57715 6.74853C8.8364 6.36083 9.20485 6.05789 9.63574 5.87939Z" fill="currentColor"/><path d="M11.5059 2C12.9786 2 14.1728 3.19425 14.1729 4.66699V11.5059C14.1729 12.9786 12.9786 14.1729 11.5059 14.1729H4.66699C3.19434 14.1727 2 12.9785 2 11.5059V4.66699C2.00002 3.19433 3.19436 2.00013 4.66699 2H11.5059ZM4.66699 3.33398C3.93074 3.33412 3.334 3.93071 3.33398 4.66699V11.5059C3.33398 12.2422 3.93073 12.8387 4.66699 12.8389H11.5059C12.2422 12.8389 12.8389 12.2422 12.8389 11.5059V4.66699C12.8389 3.93063 12.2422 3.33398 11.5059 3.33398H4.66699Z" fill="currentColor"/></svg>