<svg width="24" height="24" viewBox="0 0 20 20" fill="currentColor" xmlns="http://www.w3.org/2000/svg"><path d="M15.145 6.43676C15.145 5.56271 14.437 4.85473 13.563 4.85473C12.7013 4.85473 11.8749 4.51184 11.2656 3.90258L11.1777 3.81469V3.81591C10.5268 3.16506 9.47261 3.16505 8.82176 3.81591L8.73387 3.90258C8.12453 4.51183 7.29818 4.85473 6.4365 4.85473C5.56248 4.85476 4.85449 5.56275 4.85447 6.43676C4.85447 7.29845 4.51157 8.12479 3.90232 8.73413L3.81565 8.82202C3.16479 9.47288 3.1648 10.5271 3.81565 11.178H3.81443L3.90232 11.2659L4.11839 11.5039C4.59208 12.0821 4.85447 12.8092 4.85447 13.5632C4.85447 14.4372 5.56246 15.1452 6.4365 15.1453C7.2982 15.1453 8.12456 15.4882 8.73387 16.0974L8.82054 16.1841H8.82176C9.47262 16.835 10.5268 16.835 11.1777 16.1841L11.2656 16.0974C11.8749 15.4882 12.7013 15.1453 13.563 15.1453C14.437 15.1453 15.145 14.4373 15.145 13.5632C15.145 12.7015 15.4879 11.8752 16.0971 11.2659L16.1838 11.178C16.8347 10.5271 16.8347 9.47289 16.1838 8.82202V8.8208L16.0971 8.73413C15.4879 8.12482 15.145 7.29847 15.145 6.43676ZM16.8125 6.43676C16.8125 6.85646 16.9795 7.25933 17.2763 7.55615L17.363 7.64282L17.5913 7.89672C18.659 9.20597 18.5834 11.1368 17.363 12.3572L17.2763 12.4438C16.9795 12.7407 16.8125 13.1435 16.8125 13.5632C16.8125 15.3577 15.3576 16.8127 13.563 16.8127C13.1433 16.8127 12.7404 16.9798 12.4436 17.2766L12.3569 17.3633C11.1365 18.5836 9.20571 18.6593 7.89646 17.5915L7.64256 17.3633L7.55589 17.2766C7.25906 16.9798 6.85619 16.8127 6.4365 16.8127C4.642 16.8127 3.18699 15.3577 3.18699 13.5632C3.18699 13.1435 3.01992 12.7406 2.72312 12.4438V12.4426L2.63645 12.3572C1.33474 11.0554 1.33471 8.94457 2.63645 7.64282L2.72312 7.55615C3.01992 7.25935 3.18699 6.8565 3.18699 6.43676C3.18701 4.64227 4.64201 3.18728 6.4365 3.18725C6.85623 3.18725 7.25909 3.02018 7.55589 2.72339L7.64256 2.63672C8.86312 1.41615 10.795 1.34014 12.1042 2.40844L12.3569 2.63672L12.4424 2.72339H12.4436C12.7404 3.02019 13.1432 3.18725 13.563 3.18725C15.3575 3.18725 16.8125 4.64228 16.8125 6.43676Z" fill="currentColor"/><path d="M11.4001 7.64769C11.6641 7.27065 12.184 7.17869 12.561 7.44261C12.9379 7.70645 13.0296 8.22529 12.7661 8.60228L9.84983 12.7698C9.71412 12.9636 9.50128 13.0904 9.26634 13.1189C9.03162 13.1472 8.7961 13.0744 8.61814 12.9187L6.95066 11.4599C6.60486 11.1568 6.56969 10.6306 6.87254 10.2844C7.17561 9.93805 7.70293 9.90322 8.0493 10.2063L9.01609 11.0522L11.4001 7.64769Z" fill="currentColor"/></svg>