<svg width="24" height="24" viewBox="0 0 16 16" fill="currentColor" xmlns="http://www.w3.org/2000/svg"><path d="M5.45703 5.8784C5.88805 5.69992 6.36275 5.65368 6.82031 5.74461C7.27793 5.83567 7.69933 6.06024 8.0293 6.39012L7.1543 7.26512C6.99738 7.10828 6.7967 7.00179 6.5791 6.95848C6.36148 6.91523 6.13566 6.93709 5.93066 7.02196C5.72573 7.10686 5.55007 7.25066 5.42676 7.43504C5.3035 7.61952 5.23836 7.83721 5.23828 8.05907C5.23832 8.2809 5.30357 8.49861 5.42676 8.68309C5.55005 8.86746 5.72576 9.01127 5.93066 9.09618C6.13569 9.18107 6.36145 9.20292 6.5791 9.15965C6.79678 9.11632 6.99736 9.00995 7.1543 8.85301L7.67188 9.37059C7.55887 9.62735 7.46857 9.89604 7.40234 10.1743C7.2184 10.2648 7.0234 10.3331 6.82031 10.3735C6.36272 10.4645 5.88808 10.4173 5.45703 10.2388C5.02609 10.0601 4.65764 9.75747 4.39844 9.36961C4.13937 8.98169 4.00004 8.52555 4 8.05907C4.00008 7.59249 4.13922 7.1355 4.39844 6.74754C4.65771 6.35981 5.02609 6.05691 5.45703 5.8784ZM9.63574 5.8784C10.0668 5.6999 10.5414 5.65368 10.999 5.74461C11.4567 5.83566 11.878 6.06023 12.208 6.39012L12.0508 6.54637C12.0339 6.54619 12.017 6.5454 12 6.5454C10.4498 6.5454 9.07301 7.29101 8.21094 8.44383C8.18994 8.31731 8.17872 8.18844 8.17871 8.05907C8.17879 7.59249 8.31794 7.1355 8.57715 6.74754C8.83642 6.35981 9.2048 6.05691 9.63574 5.8784Z" fill="currentColor"/><path d="M11.5059 2C12.9786 2 14.1728 3.19425 14.1729 4.66699V7.07422C13.7599 6.86009 13.3117 6.70481 12.8389 6.62012V4.66699C12.8389 3.93063 12.2422 3.33398 11.5059 3.33398H4.66699C3.93074 3.33412 3.334 3.93071 3.33398 4.66699V11.5059C3.33398 12.2422 3.93073 12.8387 4.66699 12.8389H7.53906C7.70973 13.325 7.95818 13.7741 8.26855 14.1729H4.66699C3.19434 14.1727 2 12.9785 2 11.5059V4.66699C2.00002 3.19433 3.19436 2.00013 4.66699 2H11.5059Z" fill="currentColor"/><path fill-rule="evenodd" clip-rule="evenodd" d="M12 7.27246C9.79086 7.27246 8 9.06332 8 11.2725C8 13.4816 9.79086 15.2725 12 15.2725C14.2091 15.2725 16 13.4816 16 11.2725C16 9.06332 14.2091 7.27246 12 7.27246ZM13.5096 10.5258C13.6495 10.3548 13.6243 10.1028 13.4533 9.96289C13.2823 9.823 13.0303 9.8482 12.8904 10.0192L11.3703 11.8771L10.8828 11.3896C10.7266 11.2334 10.4734 11.2334 10.3172 11.3896C10.1609 11.5458 10.1609 11.7991 10.3172 11.9553L11.1172 12.7553C11.1971 12.8352 11.307 12.8776 11.4199 12.872C11.5328 12.8663 11.638 12.8132 11.7096 12.7258L13.5096 10.5258Z" fill="currentColor"/></svg>