<svg width="24" height="24" viewBox="0 0 16 16" fill="currentColor" xmlns="http://www.w3.org/2000/svg"><path d="M7.33374 10.0417C7.67877 10.0419 7.95874 10.3217 7.95874 10.6667C7.95874 11.0118 7.67877 11.2916 7.33374 11.2917H4.66675C4.32157 11.2917 4.04175 11.0119 4.04175 10.6667C4.04175 10.3216 4.32157 10.0417 4.66675 10.0417H7.33374Z" fill="currentColor"/><path d="M11.3337 4.70825C11.6788 4.70843 11.9587 4.98818 11.9587 5.33325C11.9587 5.67832 11.6788 5.95808 11.3337 5.95825H4.66675C4.32157 5.95825 4.04175 5.67843 4.04175 5.33325C4.04175 4.98807 4.32157 4.70825 4.66675 4.70825H11.3337Z" fill="currentColor"/><path d="M11.333 10.0417C11.6782 10.0417 11.958 10.3216 11.958 10.6667C11.958 11.0119 11.6782 11.2917 11.333 11.2917H10C9.65482 11.2917 9.375 11.0119 9.375 10.6667C9.375 10.3216 9.65482 10.0417 10 10.0417H11.333Z" fill="currentColor"/><path d="M5.33374 7.375C5.67877 7.37518 5.95874 7.65493 5.95874 8C5.95874 8.34507 5.67877 8.62482 5.33374 8.625H4.66675C4.32157 8.625 4.04175 8.34518 4.04175 8C4.04175 7.65482 4.32157 7.375 4.66675 7.375H5.33374Z" fill="currentColor"/><path d="M11.333 7.375C11.6782 7.375 11.958 7.65482 11.958 8C11.958 8.34518 11.6782 8.625 11.333 8.625H8C7.65482 8.625 7.375 8.34518 7.375 8C7.375 7.65482 7.65482 7.375 8 7.375H11.333Z" fill="currentColor"/><path d="M13.375 4.25C13.375 3.35254 12.6475 2.625 11.75 2.625H4.25C3.35254 2.625 2.625 3.35254 2.625 4.25V11.75C2.625 12.6475 3.35254 13.375 4.25 13.375H11.75C12.6475 13.375 13.375 12.6475 13.375 11.75V4.25ZM14.625 11.75C14.625 13.3378 13.3378 14.625 11.75 14.625H4.25C2.66218 14.625 1.375 13.3378 1.375 11.75V4.25C1.375 2.66218 2.66218 1.375 4.25 1.375H11.75C13.3378 1.375 14.625 2.66218 14.625 4.25V11.75Z" fill="currentColor"/></svg>