<svg width="24" height="24" viewBox="0 0 16 16" fill="currentColor" xmlns="http://www.w3.org/2000/svg"><path fill-rule="evenodd" clip-rule="evenodd" d="M7.99992 1.33334C4.31802 1.33334 1.33325 4.3181 1.33325 8C1.33325 11.6819 4.31802 14.6667 7.99992 14.6667C11.6818 14.6667 14.6666 11.6819 14.6666 8C14.6666 4.3181 11.6818 1.33334 7.99992 1.33334ZM10.5159 6.75554C10.7491 6.47055 10.7071 6.05054 10.4221 5.81738C10.1371 5.58424 9.71712 5.62624 9.48392 5.9112L6.95045 9.00774L6.13799 8.19527C5.87764 7.93494 5.45553 7.93494 5.19518 8.19527C4.93483 8.4556 4.93483 8.87774 5.19518 9.13807L6.52851 10.4714C6.6617 10.6046 6.84499 10.6753 7.03312 10.6659C7.22125 10.6565 7.39658 10.5679 7.51592 10.4222L10.5159 6.75554Z" fill="currentColor"/></svg>