<svg width="24" height="24" viewBox="0 0 16 16" fill="currentColor" xmlns="http://www.w3.org/2000/svg"><g clip-path="url(#svg_ef6572e4cd__svg_bb447a2b06__clip0_11077_235)"><path d="M7.37524 14.6663V14.0002C7.37524 13.6551 7.65507 13.3752 8.00024 13.3752C8.34527 13.3754 8.62524 13.6552 8.62524 14.0002V14.6663C8.62524 15.0113 8.34527 15.2911 8.00024 15.2913C7.65507 15.2913 7.37524 15.0114 7.37524 14.6663ZM3.31763 11.7981C3.5617 11.554 3.95832 11.554 4.20239 11.7981C4.44613 12.0421 4.44618 12.4379 4.20239 12.6819L3.72876 13.1555C3.48476 13.3994 3.08904 13.3993 2.84497 13.1555C2.60093 12.9115 2.60099 12.5158 2.84497 12.2717L3.31763 11.7981ZM11.7981 11.7981C12.0422 11.5541 12.4378 11.554 12.6819 11.7981L13.1555 12.2717C13.3991 12.5158 13.3994 12.9116 13.1555 13.1555C12.9114 13.3996 12.5148 13.3996 12.2708 13.1555L11.7981 12.6819C11.554 12.4378 11.554 12.0422 11.7981 11.7981ZM5.20142 5.20142C6.74724 3.6556 9.25326 3.65559 10.7991 5.20142C12.3446 6.74727 12.3448 9.25337 10.7991 10.7991C9.25337 12.3448 6.74727 12.3446 5.20142 10.7991C3.65559 9.25326 3.6556 6.74724 5.20142 5.20142ZM9.91528 6.08521C8.85763 5.02754 7.14288 5.02753 6.08521 6.08521C5.02753 7.14288 5.02754 8.85763 6.08521 9.91528C7.14291 10.9727 8.85774 10.9729 9.91528 9.91528C10.9729 8.85774 10.9727 7.14291 9.91528 6.08521ZM2.00024 7.37524C2.34527 7.37542 2.62524 7.65518 2.62524 8.00024C2.62507 8.34516 2.34516 8.62507 2.00024 8.62524H1.33325C0.988183 8.62524 0.708428 8.34527 0.708252 8.00024C0.708252 7.65507 0.988074 7.37524 1.33325 7.37524H2.00024ZM14.6663 7.37524C15.0114 7.37524 15.2913 7.65507 15.2913 8.00024C15.2911 8.34527 15.0113 8.62524 14.6663 8.62524H14.0002C13.6552 8.62524 13.3754 8.34527 13.3752 8.00024C13.3752 7.65507 13.6551 7.37524 14.0002 7.37524H14.6663ZM2.84497 2.84497C3.08905 2.60089 3.48468 2.60089 3.72876 2.84497L4.20239 3.31763C4.4463 3.56156 4.44601 3.95731 4.20239 4.20142C3.95831 4.44549 3.5617 4.44549 3.31763 4.20142L2.84497 3.72876C2.60091 3.48469 2.60093 3.08905 2.84497 2.84497ZM12.2708 2.84497C12.5148 2.60089 12.9114 2.60089 13.1555 2.84497C13.3992 3.08904 13.3993 3.4848 13.1555 3.72876L12.6819 4.20142C12.4378 4.44549 12.0422 4.44549 11.7981 4.20142C11.5541 3.95733 11.5541 3.56167 11.7981 3.31763L12.2708 2.84497ZM7.37524 2.00024V1.33325C7.37524 0.988074 7.65507 0.708252 8.00024 0.708252C8.34527 0.708428 8.62524 0.988183 8.62524 1.33325V2.00024C8.62507 2.34516 8.34516 2.62507 8.00024 2.62524C7.65518 2.62524 7.37542 2.34527 7.37524 2.00024Z" fill="currentColor"/></g><defs><clipPath id="svg_ef6572e4cd__svg_bb447a2b06__clip0_11077_235"><path fill="currentColor" d="M0 0H16V16H0z"/></clipPath></defs></svg>