<svg width="24" height="24" viewBox="0 0 16 16" fill="currentColor" xmlns="http://www.w3.org/2000/svg"><path fill-rule="evenodd" clip-rule="evenodd" d="M13.6627 1.42039C13.9828 1.60228 14.0949 2.00924 13.913 2.32937L10.8073 7.79552L10.9826 7.85932C11.9964 8.22832 12.8071 9.23399 12.6385 10.4352C12.4145 12.0306 11.7331 13.1821 10.4755 14.4665C10.2841 14.662 9.9926 14.7207 9.7404 14.6145L3.40794 11.9478C3.18176 11.8525 3.0262 11.6407 3.003 11.3964C2.97978 11.1521 3.09268 10.9148 3.29687 10.7787C4.2684 10.131 5.04518 9.49679 5.62872 8.57885C6.33303 7.47085 7.7316 6.67605 9.14933 7.19205L9.5366 7.33299L12.7537 1.67071C12.9356 1.35058 13.3425 1.23851 13.6627 1.42039ZM8.69326 8.44499C8.03766 8.20632 7.23326 8.54005 6.75393 9.29412C6.26232 10.0675 5.66826 10.6636 5.01916 11.1795L6.1578 11.6591C6.19608 11.6752 6.23968 11.6725 6.27573 11.6519L7.69646 10.8397C7.80273 10.779 7.9278 10.8815 7.88913 10.9977L7.52173 12.0999C7.49966 12.1659 7.53226 12.2379 7.59646 12.2649L9.83213 13.2064C10.7378 12.2105 11.1614 11.366 11.3181 10.2499C11.3813 9.79999 11.0795 9.31345 10.5266 9.11225L8.69326 8.44499Z" fill="currentColor"/><path d="M6.47938 2.37351C6.45634 2.41959 6.41898 2.45695 6.3729 2.47999L5.75869 2.78709C5.5832 2.87483 5.5832 3.12527 5.75869 3.21301L6.3729 3.52011C6.41898 3.54315 6.45634 3.58051 6.47938 3.62659L6.78647 4.2408C6.8742 4.41629 7.12467 4.41629 7.2124 4.2408L7.51947 3.62659C7.54254 3.58051 7.57994 3.54315 7.626 3.52011L8.2402 3.21301C8.41567 3.12527 8.41567 2.87483 8.2402 2.78709L7.626 2.47999C7.57994 2.45695 7.54254 2.41959 7.51947 2.37351L7.2124 1.7593C7.12467 1.58381 6.8742 1.58381 6.78647 1.7593L6.47938 2.37351Z" fill="currentColor"/><path d="M2.93797 4.78951C2.90572 4.85402 2.85341 4.90633 2.7889 4.93858L1.92901 5.36853C1.68333 5.49137 1.68333 5.84197 1.92901 5.96481L2.7889 6.39475C2.85341 6.42701 2.90572 6.47932 2.93797 6.54383L3.36792 7.4037C3.49076 7.64943 3.84136 7.64943 3.9642 7.4037L4.39414 6.54383C4.4264 6.47932 4.47871 6.42701 4.54322 6.39475L5.40311 5.96481C5.64879 5.84197 5.64879 5.49137 5.40311 5.36853L4.54322 4.93858C4.47871 4.90633 4.4264 4.85402 4.39414 4.78951L3.9642 3.92962C3.84136 3.68394 3.49076 3.68394 3.36792 3.92962L2.93797 4.78951Z" fill="currentColor"/></svg>