<svg width="24" height="24" viewBox="0 0 24 24" fill="none" xmlns="http://www.w3.org/2000/svg"><path d="M17.609 14.6735C17.6406 14.6108 17.6406 14.5476 17.6718 14.4848C18.4281 11.5233 16.632 8.0584 13.5445 6.23071C14.8995 8.05798 15.435 10.2316 14.9623 12.1848C14.9307 12.342 14.8679 12.5316 14.8051 12.6887C14.7149 12.639 14.6275 12.5844 14.5431 12.5253L14.5523 12.5316C14.5523 12.5316 11.4969 10.6411 8.22116 7.33373C8.12636 7.23936 9.98523 9.97956 12.064 12.1536C11.0878 11.5861 8.31553 9.6021 6.58221 7.99478C6.77139 8.34153 7.05535 8.68786 7.33848 9.0346C8.78784 10.8935 10.6783 13.1614 12.9467 14.8939C11.3402 15.8714 9.10299 15.9337 6.83459 14.8939C6.26708 14.6424 5.79519 14.3272 5.25928 13.9489C6.2043 15.4298 7.68482 16.7848 9.4493 17.5086C11.5597 18.4225 13.7017 18.3597 15.2454 17.5086H15.2774C15.3402 17.477 15.4034 17.4458 15.4662 17.3826C16.2224 17.0047 17.703 16.5952 18.5219 18.1701C18.7423 18.6112 19.1518 16.5636 17.6081 14.6731L17.609 14.6735Z" fill="#FA7343"/></svg>