<svg width="24" height="24" viewBox="0 0 16 16" fill="currentColor" xmlns="http://www.w3.org/2000/svg"><path d="M4.55835 8.22418C4.80239 7.98069 5.19821 7.98052 5.44214 8.22418C5.68601 8.46819 5.68592 8.86489 5.44214 9.10895L3.84155 10.7086H13.3337C13.6787 10.7088 13.9587 10.9885 13.9587 11.3336C13.9586 11.6785 13.6786 11.9583 13.3337 11.9586H3.84253L5.44214 13.5582C5.68593 13.8022 5.68589 14.1979 5.44214 14.442C5.19812 14.6859 4.80242 14.6858 4.55835 14.442L2.59839 12.482C1.96419 11.8474 1.96408 10.8187 2.59839 10.1841L4.55835 8.22418ZM10.5574 1.55719C10.8014 1.31334 11.1981 1.31347 11.4421 1.55719L13.4011 3.51715C14.0357 4.15168 14.0355 5.18038 13.4011 5.815L11.4421 7.77496C11.1981 8.01904 10.8015 8.01904 10.5574 7.77496C10.3139 7.53096 10.3138 7.13512 10.5574 6.89117L12.157 5.29156H2.66675C2.32157 5.29156 2.04175 5.01174 2.04175 4.66656C2.04181 4.32144 2.32161 4.04156 2.66675 4.04156H12.158L10.5574 2.44196C10.3136 2.19785 10.3134 1.80116 10.5574 1.55719Z" fill="currentColor"/></svg>