<svg width="24" height="24" viewBox="0 0 16 16" fill="currentColor" xmlns="http://www.w3.org/2000/svg"><path d="M4.99536 3.48047C5.28247 3.28886 5.67094 3.36621 5.86255 3.65332C6.05362 3.94031 5.97646 4.32801 5.6897 4.51953C4.685 5.19004 3.9045 5.75918 3.37622 6.50684C3.26952 6.6579 3.17159 6.81893 3.08423 6.99219C3.46654 6.81153 3.89304 6.70801 4.34399 6.70801C5.97691 6.70823 7.30005 8.0339 7.30005 9.66699C7.29961 11.2997 5.97664 12.6248 4.34399 12.625C2.72192 12.625 1.40662 11.3172 1.38892 9.69922C1.29976 8.00268 1.65711 6.774 2.35571 5.78516C3.03436 4.82469 4.00241 4.14315 4.99536 3.48047ZM12.3235 3.48047C12.6106 3.28886 12.9991 3.36621 13.1907 3.65332C13.3818 3.94032 13.3046 4.32801 13.0178 4.51953C12.0131 5.19004 11.2326 5.75918 10.7043 6.50684C10.5976 6.6579 10.4997 6.81893 10.4124 6.99219C10.7947 6.81152 11.2212 6.70801 11.6721 6.70801C13.305 6.7082 14.6282 8.03389 14.6282 9.66699C14.6277 11.2997 13.3047 12.6248 11.6721 12.625C10.05 12.625 8.73474 11.3172 8.71704 9.69922C8.6279 8.00268 8.98523 6.774 9.68384 5.78516C10.3625 4.82469 11.3305 4.14315 12.3235 3.48047ZM4.34399 7.95801C3.40248 7.95801 2.63794 8.72288 2.63794 9.66699C2.63838 10.6107 3.40275 11.375 4.34399 11.375C5.28505 11.3748 6.04961 10.6106 6.05005 9.66699C6.05005 8.72302 5.28532 7.95823 4.34399 7.95801ZM11.6721 7.95801C10.7306 7.95801 9.96606 8.7229 9.96606 9.66699C9.9665 10.6107 10.7308 11.375 11.6721 11.375C12.6132 11.3748 13.3777 10.6106 13.3782 9.66699C13.3782 8.72301 12.6134 7.9582 11.6721 7.95801Z" fill="currentColor"/></svg>