<svg width="24" height="24" viewBox="0 0 16 16" fill="currentColor" xmlns="http://www.w3.org/2000/svg"><path d="M9.1709 1.40039C9.86028 1.40039 10.5222 1.67372 11.0098 2.16113L13.1719 4.32324C13.6593 4.81081 13.9326 5.47261 13.9326 6.16211V10C13.9326 11.3493 12.9053 12.4571 11.5898 12.5859C11.4944 13.935 10.3733 15 9 15H6.2002C4.10159 15 2.40052 13.2988 2.40039 11.2002V6.2002C2.40039 4.8436 3.43905 3.73025 4.76465 3.61133C4.95232 2.36005 6.02938 1.40051 7.33301 1.40039H9.1709ZM4.7334 4.8252C4.08765 4.94977 3.59961 5.51817 3.59961 6.2002V11.2002C3.59974 12.636 4.76434 13.7998 6.2002 13.7998H9C9.70535 13.7998 10.2877 13.2781 10.3848 12.5996H7.33301C5.89719 12.5995 4.7334 11.4359 4.7334 10V4.8252ZM7.33301 2.59961C6.55992 2.59974 5.93262 3.22689 5.93262 4V10C5.93262 10.7731 6.55992 11.4003 7.33301 11.4004H11.333C12.1062 11.4004 12.7334 10.7732 12.7334 10V6.59961H10.7041C9.43224 6.59961 8.40039 5.56988 8.40039 4.29785V2.59961H7.33301ZM9.59961 4.29785C9.59961 4.90596 10.0938 5.40039 10.7041 5.40039H12.5078C12.4548 5.31863 12.3931 5.24181 12.3232 5.17188L10.1611 3.00977C10.0024 2.85116 9.80947 2.73448 9.59961 2.66699V4.29785Z" fill="currentColor"/></svg>