<svg width="24" height="24" viewBox="0 0 16 16" fill="currentColor" xmlns="http://www.w3.org/2000/svg"><path d="M7.17188 1.375C7.86777 1.37507 8.53516 1.65155 9.02734 2.14355L13.8613 6.97754C14.8861 8.00266 14.8862 9.6644 13.8613 10.6895L10.6895 13.8613C9.6644 14.8862 8.00266 14.8861 6.97754 13.8613L2.14355 9.02734C1.65155 8.53516 1.37507 7.86777 1.375 7.17188V4C1.375 2.55026 2.55026 1.375 4 1.375H7.17188ZM4 2.625C3.24061 2.625 2.625 3.24061 2.625 4V7.17188C2.62507 7.53626 2.76977 7.8858 3.02734 8.14355L7.86133 12.9775C8.3983 13.5142 9.26876 13.5143 9.80566 12.9775L12.9775 9.80566C13.5143 9.26876 13.5142 8.3983 12.9775 7.86133L8.14355 3.02734C7.8858 2.76977 7.53626 2.62507 7.17188 2.625H4ZM5 4.04199C5.26971 4.04206 5.51323 4.15363 5.6875 4.33301H5.73242V4.38281C5.87325 4.54954 5.95891 4.76479 5.95898 5C5.95893 5.23494 5.87294 5.44941 5.73242 5.61621V5.66699H5.6875C5.51322 5.84659 5.26975 5.95892 5 5.95898C4.73024 5.95889 4.4866 5.84662 4.3125 5.66699H4.26562V5.61426C4.12636 5.44777 4.04205 5.2339 4.04199 5C4.04207 4.76583 4.12606 4.55118 4.26562 4.38477V4.33301H4.3125C4.4866 4.15359 4.73028 4.04208 5 4.04199Z" fill="currentColor"/></svg>