<svg width="24" height="24" viewBox="0 0 16 16" fill="currentColor" xmlns="http://www.w3.org/2000/svg"><path d="M8 1.40039C11.6451 1.40039 14.5996 4.35492 14.5996 8C14.5996 11.6451 11.6451 14.5996 8 14.5996C4.35492 14.5996 1.40039 11.6451 1.40039 8C1.40039 4.35492 4.35492 1.40039 8 1.40039ZM8 2.59961C5.01766 2.59961 2.59961 5.01766 2.59961 8C2.59961 10.9823 5.01766 13.4004 8 13.4004C10.9823 13.4004 13.4004 10.9823 13.4004 8C13.4004 5.01766 10.9823 2.59961 8 2.59961ZM8.59961 11.1123H7.40039V9.90625H8.59961V11.1123ZM8.59961 9.1123H7.40039V4.88867H8.59961V9.1123Z" fill="currentColor"/></svg>