<svg width="24" height="24" viewBox="0 0 16 16" fill="currentColor" xmlns="http://www.w3.org/2000/svg"><path opacity=".32" d="M13.0135 7.99941C13.0133 5.2296 10.7678 2.98386 7.99795 2.98386C5.22826 2.98407 2.98261 5.22973 2.9824 7.99941C2.9824 10.7693 5.22813 13.0148 7.99795 13.015V14.5999L7.65909 14.5911C4.17172 14.4145 1.39844 11.5306 1.39844 7.99941C1.39865 4.3547 4.35324 1.40011 7.99795 1.3999C11.6428 1.3999 14.5982 4.35457 14.5984 7.99941L14.5896 8.33925C14.413 11.8265 11.5291 14.5999 7.99795 14.5999V13.015C10.7679 13.015 13.0135 10.7694 13.0135 7.99941Z" fill="currentColor"/><path d="M7.99902 1.3999C11.6437 1.40013 14.5994 4.35478 14.5996 7.99951L14.5908 8.33936C14.4981 10.1692 13.6579 11.8007 12.3721 12.9399L11.249 11.8169C12.3284 10.8969 13.0146 9.52887 13.0146 7.99951C13.0144 5.22983 10.7687 2.98412 7.99902 2.98389C7.92027 2.98389 7.84153 2.98615 7.76367 2.98975V1.40576C7.84166 1.40303 7.92037 1.39991 7.99902 1.3999Z" fill="currentColor"/></svg>