<svg width="24" height="24" viewBox="0 0 16 16" fill="currentColor" xmlns="http://www.w3.org/2000/svg"><path d="M3.99988 8.70801C5.08116 8.7081 5.95856 9.58475 5.95886 10.666C5.95886 11.7475 5.08135 12.6249 3.99988 12.625C2.91848 12.6248 2.04187 11.7475 2.04187 10.666C2.04218 9.5848 2.91866 8.70818 3.99988 8.70801ZM3.99988 9.95801C3.60901 9.95818 3.29218 10.2752 3.29187 10.666C3.29187 11.0571 3.60882 11.3748 3.99988 11.375C4.39101 11.3749 4.70886 11.0572 4.70886 10.666C4.70856 10.2751 4.39082 9.9581 3.99988 9.95801ZM13.3339 10.042C13.6788 10.0423 13.9589 10.322 13.9589 10.667C13.9587 11.0119 13.6787 11.2917 13.3339 11.292H8.66687C8.32177 11.292 8.042 11.0121 8.04187 10.667C8.04187 10.3218 8.32169 10.042 8.66687 10.042H13.3339ZM5.16687 3.625C5.37399 3.34892 5.76575 3.29291 6.04187 3.5C6.31794 3.7071 6.3739 4.09888 6.16687 4.375L4.16687 7.04199C4.0641 7.1789 3.90917 7.26722 3.73914 7.28711C3.56906 7.30692 3.39803 7.25609 3.26648 7.14648L2.26648 6.31348C2.00158 6.09258 1.96582 5.69871 2.1864 5.43359C2.40739 5.16849 2.80211 5.13256 3.06726 5.35352L3.5614 5.76465L5.16687 3.625ZM13.3339 4.70801C13.6787 4.70828 13.9587 4.98811 13.9589 5.33301C13.9589 5.67802 13.6788 5.95774 13.3339 5.95801H8.66687C8.32169 5.95801 8.04187 5.67819 8.04187 5.33301C8.042 4.98794 8.32177 4.70801 8.66687 4.70801H13.3339Z" fill="currentColor"/></svg>