<svg xmlns="http://www.w3.org/2000/svg" width="24" height="24" fill="none" viewBox="0 0 16 16"><path fill="#00a3ff" d="M13.56 11.48c-.24.25-.73.61-1.59.61H6.72c1.59-1.52 2.93-2.8 3.05-2.93.12-.12.43-.43.74-.67.6-.55 1.1-.61 1.52-.61.61 0 1.1.24 1.53.6.86.8.86 2.2 0 3m1.04-3.97a3.4 3.4 0 0 0-2.5-1.1c-.86 0-1.6.3-2.27.8-.24.24-.6.48-.91.85l-5.5 5.38c.3.06.67.06.97.06h6.66c.5 0 .86 0 1.23-.06a3.8 3.8 0 0 0 2.26-.98 3.5 3.5 0 0 0 .06-4.95"/><path fill="#00c8dc" d="M6.04 7.14a3.4 3.4 0 0 0-4.64.37 3.56 3.56 0 0 0 .06 5.01c.61.55 1.22.86 1.96.92l1.4-1.34h-.8c-.79-.07-1.28-.31-1.58-.62a2.2 2.2 0 0 1-.06-3.05Q3 7.8 3.9 7.82c.37 0 .92.06 1.47.6.25.25.92.74 1.16.99h.06l.92-.92v-.06c-.43-.43-1.1-.98-1.47-1.29"/><path fill="#006eff" d="M12.46 5.62A4.8 4.8 0 0 0 8 2.5a4.7 4.7 0 0 0-4.64 3.97c.18 0 .36-.06.6-.06.25 0 .56.06.8.06A3.3 3.3 0 0 1 8 3.84c1.34 0 2.5.8 3.06 1.96 0 0 .06.06.06 0 .42-.06.91-.18 1.34-.18q0 .09 0 0"/></svg>