<svg width="24" height="24" viewBox="0 0 16 16" fill="currentColor" xmlns="http://www.w3.org/2000/svg"><path d="M12.7087 4.6665C12.7087 3.90722 12.093 3.29168 11.3337 3.2915H4.66675C3.90736 3.2915 3.29175 3.90712 3.29175 4.6665V11.3335C3.29192 12.0928 3.90746 12.7085 4.66675 12.7085H11.3337C12.0929 12.7083 12.7086 12.0927 12.7087 11.3335V4.6665ZM4.55835 4.89111C4.80244 4.6472 5.19812 4.64709 5.44214 4.89111L6.60913 6.05811C6.85283 6.30216 6.85294 6.69791 6.60913 6.94189L5.44214 8.10889C5.19816 8.35269 4.8024 8.35258 4.55835 8.10889C4.31427 7.86481 4.31427 7.4682 4.55835 7.22412L5.28198 6.49951L4.55835 5.7749C4.31427 5.53082 4.31427 5.13519 4.55835 4.89111ZM9.33374 7.0415C9.67877 7.04168 9.95874 7.32143 9.95874 7.6665C9.95874 8.01157 9.67877 8.29133 9.33374 8.2915H7.99976C7.65473 8.29133 7.37476 8.01157 7.37476 7.6665C7.37476 7.32143 7.65473 7.04168 7.99976 7.0415H9.33374ZM13.9587 11.3335C13.9586 12.783 12.7833 13.9583 11.3337 13.9585H4.66675C3.21712 13.9585 2.04192 12.7831 2.04175 11.3335V4.6665C2.04175 3.21676 3.217 2.0415 4.66675 2.0415H11.3337C12.7834 2.04168 13.9587 3.21687 13.9587 4.6665V11.3335Z" fill="currentColor"/></svg>