<svg width="24" height="24" viewBox="0 0 16 16" fill="currentColor" xmlns="http://www.w3.org/2000/svg"><path d="M13.0005 1.375C13.3454 1.37537 13.6255 1.65505 13.6255 2C13.6255 2.34495 13.3454 2.62463 13.0005 2.625H12.2915V13.375H13.0005C13.3454 13.3754 13.6255 13.6551 13.6255 14C13.6255 14.3449 13.3454 14.6246 13.0005 14.625H10.3335C9.98832 14.625 9.7085 14.3452 9.7085 14C9.7085 13.6548 9.98832 13.375 10.3335 13.375H11.0415V2.625H10.3335C9.98832 2.625 9.7085 2.34518 9.7085 2C9.7085 1.65482 9.98832 1.375 10.3335 1.375H13.0005ZM5.6665 3.70996C5.9233 3.71006 6.15357 3.86746 6.24756 4.10645L9.12744 11.4365C9.25361 11.7577 9.09599 12.1208 8.7749 12.2471C8.45372 12.3731 8.09058 12.2147 7.96436 11.8936L7.09131 9.67285H4.24072L3.36865 11.8936C3.24243 12.2147 2.87932 12.3732 2.55811 12.2471C2.23707 12.1208 2.0786 11.7577 2.20459 11.4365L5.08447 4.10645C5.17841 3.86735 5.40963 3.71006 5.6665 3.70996ZM4.73096 8.42285H6.60107L5.66553 6.04297L4.73096 8.42285Z" fill="currentColor"/></svg>