<svg width="24" height="24" viewBox="0 0 16 16" fill="currentColor" xmlns="http://www.w3.org/2000/svg"><path d="M6.85156 4.59863C7.4861 3.96437 8.51492 3.96434 9.14941 4.59863L11.2754 6.72559C11.5191 6.9697 11.5193 7.36543 11.2754 7.60938C11.0314 7.85306 10.6356 7.85297 10.3916 7.60938L8.625 5.8418V14.001C8.62456 14.3458 8.34491 14.626 8 14.626C7.65509 14.626 7.37544 14.3458 7.375 14.001V5.84277L5.60938 7.60938C5.3654 7.85331 4.9687 7.85311 4.72461 7.60938C4.48077 7.36543 4.48099 6.96967 4.72461 6.72559L6.85156 4.59863ZM12.666 1.375C13.0112 1.375 13.291 1.65482 13.291 2C13.291 2.34518 13.0112 2.625 12.666 2.625H3.33301C2.98794 2.62487 2.70801 2.3451 2.70801 2C2.70801 1.6549 2.98794 1.37513 3.33301 1.375H12.666Z" fill="currentColor"/></svg>