<svg width="24" height="24" viewBox="0 0 16 16" fill="currentColor" xmlns="http://www.w3.org/2000/svg"><path d="M12.666 13.375C13.0112 13.375 13.291 13.6548 13.291 14C13.291 14.3452 13.0112 14.625 12.666 14.625H3.33301C2.98794 14.6249 2.70801 14.3451 2.70801 14C2.70801 13.6549 2.98794 13.3751 3.33301 13.375H12.666ZM8 1.375C8.34518 1.375 8.625 1.65482 8.625 2V10.1572L10.3916 8.39062C10.6356 8.14721 11.0315 8.14712 11.2754 8.39062C11.5193 8.63458 11.5191 9.03128 11.2754 9.27539L9.14941 11.4014C8.51491 12.0358 7.48612 12.0357 6.85156 11.4014L4.72461 9.27539C4.48061 9.03131 4.48056 8.63468 4.72461 8.39062C4.96869 8.14694 5.36541 8.14675 5.60938 8.39062L7.375 10.1562V2C7.375 1.65482 7.65482 1.375 8 1.375Z" fill="currentColor"/></svg>