<svg width="24" height="24" viewBox="0 0 16 16" fill="currentColor" xmlns="http://www.w3.org/2000/svg"><path d="M13.9326 8.00049C13.9324 8.33163 13.6642 8.6001 13.333 8.6001H2.66602C2.33496 8.59992 2.06667 8.33153 2.06641 8.00049C2.06641 7.66923 2.33479 7.40105 2.66602 7.40088H13.333C13.6644 7.40088 13.9326 7.66912 13.9326 8.00049ZM10.4062 2.92725C10.6307 3.15178 10.6307 3.51523 10.4062 3.73975L8.40625 5.73975C8.18174 5.96426 7.81831 5.96418 7.59375 5.73975L5.59375 3.73975C5.3692 3.51519 5.3692 3.1518 5.59375 2.92725C5.81831 2.70277 6.18172 2.70272 6.40625 2.92725L7.4248 3.9458V1.3335C7.4248 1.01593 7.68244 0.758301 8 0.758301C8.31745 0.758433 8.5752 1.01601 8.5752 1.3335V3.9458L9.59375 2.92725C9.81831 2.70277 10.1817 2.70272 10.4062 2.92725ZM10.4062 12.2603C10.6307 12.4848 10.6307 12.8482 10.4062 13.0728C10.1817 13.2973 9.81831 13.2972 9.59375 13.0728L8.5752 12.0542V14.6665C8.5752 14.984 8.31745 15.2416 8 15.2417C7.68244 15.2417 7.4248 14.9841 7.4248 14.6665V12.0542L6.40625 13.0728C6.18174 13.2973 5.81831 13.2972 5.59375 13.0728C5.3692 12.8482 5.3692 12.4848 5.59375 12.2603L7.59375 10.2603C7.81831 10.0358 8.18172 10.0357 8.40625 10.2603L10.4062 12.2603Z" fill="currentColor"/></svg>