<svg width="24" height="24" viewBox="0 0 16 16" fill="currentColor" xmlns="http://www.w3.org/2000/svg"><path d="M13.334 12.042C13.6788 12.0424 13.959 12.322 13.959 12.667C13.9587 13.0117 13.6787 13.2916 13.334 13.292H2.66699C2.32198 13.292 2.04226 13.0119 2.04199 12.667C2.04199 12.3218 2.32181 12.042 2.66699 12.042H13.334ZM10.666 7.375C11.0112 7.375 11.291 7.65482 11.291 8C11.291 8.34518 11.0112 8.625 10.666 8.625H5.33301C4.988 8.6248 4.70801 8.34506 4.70801 8C4.70801 7.65494 4.988 7.3752 5.33301 7.375H10.666ZM13.334 2.70801C13.6788 2.70838 13.959 2.98904 13.959 3.33398C13.9587 3.67871 13.6787 3.95861 13.334 3.95898H2.66699C2.32198 3.95898 2.04226 3.67894 2.04199 3.33398C2.04199 2.98881 2.32181 2.70801 2.66699 2.70801H13.334Z" fill="currentColor"/></svg>