<svg width="24" height="24" viewBox="0 0 16 16" fill="currentColor" xmlns="http://www.w3.org/2000/svg"><path d="M13.334 2.04102C13.6789 2.04132 13.959 2.322 13.959 2.66699V4C13.9587 4.34476 13.6787 4.62469 13.334 4.625C12.989 4.625 12.7092 4.34495 12.709 4V3.29199H8.625V12.709H9.33398C9.6789 12.7093 9.95898 12.989 9.95898 13.334C9.95872 13.6787 9.67874 13.9587 9.33398 13.959H6.66699C6.32198 13.959 6.04226 13.6789 6.04199 13.334C6.04199 12.9888 6.32181 12.709 6.66699 12.709H7.375V3.29199H3.29199V4C3.29173 4.34487 3.0119 4.62487 2.66699 4.625C2.32198 4.625 2.04226 4.34495 2.04199 4V2.66699C2.04199 2.32181 2.32181 2.04102 2.66699 2.04102H13.334Z" fill="currentColor"/></svg>