<svg width="24" height="24" viewBox="0 0 16 16" fill="currentColor" xmlns="http://www.w3.org/2000/svg"><path d="M13.3335 3.2168C13.637 3.21662 13.8831 2.97047 13.8833 2.66699C13.8833 2.36334 13.6371 2.11736 13.3335 2.11719H2.6665C2.36275 2.11719 2.1167 2.36324 2.1167 2.66699C2.1169 2.97058 2.36287 3.2168 2.6665 3.2168H13.3335ZM10.2544 11.5586C10.5715 11.5584 10.7817 11.3729 10.7817 11.0801C10.7817 10.958 10.7524 10.8261 10.6987 10.665L8.86768 5.48438C8.70172 4.99139 8.46209 4.7814 8.01807 4.78125C7.57378 4.78125 7.33447 4.9962 7.16357 5.48438L5.33252 10.665C5.26904 10.8506 5.23975 10.9775 5.23975 11.0947C5.23975 11.3779 5.44971 11.5586 5.75732 11.5586C6.05487 11.5584 6.22126 11.4119 6.33838 11.0312L6.79736 9.6543H9.20947L9.66846 11.0312C9.78076 11.4071 9.95658 11.5586 10.2544 11.5586ZM7.06104 8.80469L7.979 5.9873H8.03271L8.9458 8.80469H7.06104ZM13.3335 14.5498C13.6371 14.5496 13.8833 14.3036 13.8833 14C13.8833 13.6964 13.6371 13.4504 13.3335 13.4502H2.6665C2.36275 13.4502 2.1167 13.6962 2.1167 14C2.1167 14.3038 2.36275 14.5498 2.6665 14.5498H13.3335Z" fill="currentColor"/></svg>