<svg width="24" height="24" viewBox="0 0 16 16" fill="currentColor" xmlns="http://www.w3.org/2000/svg"><path d="M7.375 5.33301C7.37518 4.98798 7.65493 4.70801 8 4.70801C8.34507 4.70801 8.62482 4.98798 8.625 5.33301V7.74023L10.1084 9.22461C10.3525 9.46869 10.3525 9.86432 10.1084 10.1084C9.86432 10.3525 9.46869 10.3525 9.22461 10.1084L7.55762 8.44238C7.44041 8.32517 7.375 8.16576 7.375 8V5.33301ZM13.375 8C13.375 5.03147 10.9686 2.625 8 2.625C5.03147 2.625 2.625 5.03147 2.625 8C2.625 10.9686 5.03147 13.375 8 13.375C8.51902 13.375 9.01983 13.3016 9.49316 13.165C9.82472 13.0694 10.1718 13.2603 10.2676 13.5918C10.3633 13.9234 10.1715 14.2705 9.83984 14.3662C9.25499 14.535 8.63747 14.625 8 14.625C4.34112 14.625 1.375 11.6589 1.375 8C1.375 4.34112 4.34112 1.375 8 1.375C11.6589 1.375 14.625 4.34112 14.625 8C14.625 8.57094 14.5524 9.12636 14.416 9.65625C14.3298 9.9902 13.9894 10.1914 13.6553 10.1055C13.321 10.0194 13.12 9.67803 13.2061 9.34375C13.3164 8.91494 13.375 8.46477 13.375 8Z" fill="currentColor"/></svg>