<svg width="24" height="24" viewBox="0 0 16 16" fill="currentColor" xmlns="http://www.w3.org/2000/svg"><path d="M13.375 8C13.375 5.03147 10.9686 2.625 8 2.625C5.03147 2.625 2.625 5.03147 2.625 8C2.625 10.9686 5.03147 13.375 8 13.375C10.9686 13.375 13.375 10.9686 13.375 8ZM7.375 5.33301C7.37518 4.98798 7.65493 4.70801 8 4.70801C8.34507 4.70801 8.62482 4.98798 8.625 5.33301V7.74023L10.1084 9.22461C10.3525 9.46869 10.3525 9.86432 10.1084 10.1084C9.86432 10.3525 9.46869 10.3525 9.22461 10.1084L7.55762 8.44238C7.44041 8.32517 7.375 8.16576 7.375 8V5.33301ZM14.625 8C14.625 11.6589 11.6589 14.625 8 14.625C4.34112 14.625 1.375 11.6589 1.375 8C1.375 4.34112 4.34112 1.375 8 1.375C11.6589 1.375 14.625 4.34112 14.625 8Z" fill="currentColor"/></svg>