<svg width="24" height="24" viewBox="0 0 16 16" fill="none" xmlns="http://www.w3.org/2000/svg"><path d="M6 2H2V14H6V2Z" fill="#747E94"/><path d="M3.33301 1.375C2.25171 1.37518 1.37518 2.25171 1.375 3.33301V12.667C1.37518 13.7483 2.25171 14.6248 3.33301 14.625H12.667C13.7483 14.6248 14.6248 13.7483 14.625 12.667V3.33301C14.6248 2.25171 13.7483 1.37518 12.667 1.375H3.33301ZM13.375 10.625V12.667C13.3748 13.0579 13.0579 13.3748 12.667 13.375H10.625V10.625H13.375ZM9.375 10.625V13.375H6.625V10.625H9.375ZM5.375 10.625V13.375H3.33301C2.94206 13.3748 2.62518 13.0579 2.625 12.667V10.625H5.375ZM13.375 9.375H10.625V6.625H13.375V9.375ZM9.375 9.375H6.625V6.625H9.375V9.375ZM5.375 9.375H2.625V6.625H5.375V9.375ZM12.667 2.625C13.0579 2.62518 13.3748 2.94206 13.375 3.33301V5.375H10.625V2.625H12.667ZM9.375 5.375H6.625V2.625H9.375V5.375ZM5.375 5.375H2.625V3.33301C2.62518 2.94206 2.94206 2.62518 3.33301 2.625H5.375V5.375Z" fill="#262626"/></svg>