<svg width="24" height="24" viewBox="0 0 16 16" fill="none" xmlns="http://www.w3.org/2000/svg"><path d="M2 6V2H14V6H2Z" fill="#747E94"/><path d="M12.667 1.375C13.7483 1.37518 14.6248 2.25171 14.625 3.33301V12.667C14.6248 13.7483 13.7483 14.6248 12.667 14.625H3.33301C2.25171 14.6248 1.37518 13.7483 1.375 12.667V3.33301C1.37518 2.25171 2.25171 1.37518 3.33301 1.375H12.667ZM2.625 12.667C2.62518 13.0579 2.94206 13.3748 3.33301 13.375H5.375V10.625H2.625V12.667ZM10.625 13.375H12.667C13.0579 13.3748 13.3748 13.0579 13.375 12.667V10.625H10.625V13.375ZM6.625 13.375H9.375V10.625H6.625V13.375ZM2.625 9.375H5.375V6.625H2.625V9.375ZM10.625 9.375H13.375V6.625H10.625V9.375ZM6.625 9.375H9.375V6.625H6.625V9.375ZM3.33301 2.625C2.94206 2.62518 2.62518 2.94206 2.625 3.33301V5.375H5.375V2.625H3.33301ZM10.625 5.375H13.375V3.33301C13.3748 2.94206 13.0579 2.62518 12.667 2.625H10.625V5.375ZM6.625 5.375H9.375V2.625H6.625V5.375Z" fill="#262626"/></svg>