<svg width="24" height="24" viewBox="0 0 16 16" fill="currentColor" xmlns="http://www.w3.org/2000/svg"><path d="M12.7087 11.3335V4.6665C12.7087 3.90722 12.093 3.29168 11.3337 3.2915H4.66675C3.90736 3.2915 3.29175 3.90712 3.29175 4.6665V11.3335C3.29192 12.0928 3.90746 12.7085 4.66675 12.7085H11.3337C11.6788 12.7087 11.9587 12.9884 11.9587 13.3335C11.9586 13.6784 11.6787 13.9583 11.3337 13.9585H4.66675C3.21712 13.9585 2.04192 12.7831 2.04175 11.3335V4.6665C2.04175 3.21676 3.217 2.0415 4.66675 2.0415H11.3337C12.7834 2.04168 13.9587 3.21687 13.9587 4.6665V11.3335C13.9586 12.783 12.7833 13.9583 11.3337 13.9585H10.6667C10.3217 13.9585 10.0419 13.6785 10.0417 13.3335C10.0417 12.9883 10.3216 12.7085 10.6667 12.7085H11.3337C12.0929 12.7083 12.7086 12.0927 12.7087 11.3335ZM9.32104 6.14111C9.519 5.85837 9.90937 5.78986 10.1921 5.98779C10.4747 6.18573 10.5432 6.57521 10.3455 6.85791L8.01245 10.1919C7.91066 10.3373 7.75114 10.4323 7.57495 10.4536C7.39885 10.4749 7.22212 10.42 7.08862 10.3032L5.75562 9.13721C5.49598 8.91003 5.46913 8.51515 5.69604 8.25537C5.92322 7.99574 6.3181 7.96889 6.57788 8.1958L7.38745 8.90381L9.32104 6.14111Z" fill="currentColor"/></svg>