<svg width="24" height="24" viewBox="0 0 16 16" fill="currentColor" xmlns="http://www.w3.org/2000/svg"><path d="M11.333 2.04199C12.7828 2.04199 13.958 3.21725 13.958 4.66699V5.71484C14.7541 6.16566 15.292 7.01976 15.292 8V12C15.292 13.4497 14.1167 14.6249 12.667 14.625H10.667C9.99714 14.625 9.38762 14.3719 8.92383 13.959H3.33301C3.0797 13.959 2.78652 13.9649 2.53516 13.957C2.27992 13.9491 1.99689 13.9259 1.73438 13.8447C1.46027 13.7599 1.17932 13.6026 0.977539 13.3125C0.780509 13.0292 0.708085 12.69 0.708008 12.334V10.667C0.708008 10.3219 0.987942 10.0421 1.33301 10.042H2.04102V4.66699C2.04102 3.21744 3.21653 2.0423 4.66602 2.04199H11.333ZM10.667 6.625C9.90757 6.625 9.29199 7.24058 9.29199 8V12C9.29199 12.7594 9.90757 13.375 10.667 13.375H12.667C13.4263 13.3749 14.042 12.7593 14.042 12V8C14.042 7.24066 13.4263 6.62513 12.667 6.625H10.667ZM1.95801 12.334C1.95808 12.5261 1.99654 12.5892 2.00293 12.5986C2.00393 12.6003 2.01751 12.6238 2.10352 12.6504C2.20277 12.6811 2.35114 12.701 2.57422 12.708C2.80117 12.7151 3.03434 12.709 3.33301 12.709H8.1416C8.07835 12.4832 8.04199 12.246 8.04199 12V11.292H1.95801V12.334ZM12 11.375C12.345 11.3752 12.625 11.6549 12.625 12C12.625 12.3451 12.345 12.6248 12 12.625H11.333C10.9879 12.6249 10.708 12.3451 10.708 12C10.708 11.6549 10.9879 11.3751 11.333 11.375H12ZM4.66602 3.29199C3.90689 3.2923 3.29102 3.90779 3.29102 4.66699V10.042H8.04199V8C8.04199 6.55022 9.21721 5.375 10.667 5.375H12.667C12.6807 5.375 12.6944 5.37674 12.708 5.37695V4.66699C12.708 3.9076 12.0924 3.29199 11.333 3.29199H4.66602Z" fill="currentColor"/></svg>