<svg width="24" height="24" viewBox="0 0 16 16" fill="currentColor" xmlns="http://www.w3.org/2000/svg"><path d="M13.3684 6.18066L12.4417 7.1084C11.4612 8.08876 9.8723 8.08877 8.89185 7.1084C7.91136 6.12794 7.91136 4.53808 8.89185 3.55762L9.81763 2.63086C9.76773 2.62887 9.71767 2.62501 9.66724 2.625C7.61926 2.625 5.95843 4.2851 5.95826 6.33301C5.95826 6.8397 6.05963 7.32153 6.24244 7.75977C6.33999 7.99355 6.28674 8.26321 6.10767 8.44238L2.94165 11.6084C2.54163 12.0085 2.54184 12.6574 2.94165 13.0576C3.34191 13.4579 3.99159 13.4579 4.39185 13.0576L7.55689 9.89258L7.62818 9.83105C7.80298 9.70208 8.03486 9.67251 8.23951 9.75781C8.67784 9.94074 9.16037 10.042 9.66724 10.042C11.7151 10.0417 13.3752 8.38094 13.3752 6.33301C13.3752 6.28191 13.3705 6.23122 13.3684 6.18066ZM14.6252 6.33301C14.6252 9.07129 12.4055 11.2917 9.66724 11.292C9.14274 11.292 8.63612 11.2092 8.1604 11.0576L5.27564 13.9424C4.38725 14.8307 2.94625 14.8307 2.05787 13.9424C1.16948 13.054 1.16954 11.613 2.05787 10.7246L4.94263 7.83984C4.79103 7.36409 4.70826 6.85758 4.70826 6.33301C4.70843 3.59475 6.9289 1.375 9.66724 1.375C10.2378 1.37505 10.7873 1.47206 11.2991 1.65039C11.502 1.72122 11.6544 1.8911 11.7024 2.10059C11.7504 2.31026 11.6875 2.53052 11.5354 2.68262L9.77564 4.44238C9.28341 4.93469 9.28335 5.73234 9.77564 6.22461C10.2679 6.71683 11.0656 6.71682 11.5579 6.22461L13.3176 4.46484C13.4697 4.31274 13.69 4.24985 13.8997 4.29785C14.1091 4.34594 14.2791 4.49823 14.3499 4.70117C14.5282 5.21299 14.6252 5.76241 14.6252 6.33301Z" fill="currentColor"/></svg>