<svg width="24" height="24" viewBox="0 0 16 16" fill="currentColor" xmlns="http://www.w3.org/2000/svg"><path d="M10.74 11.6577C11.0852 11.6577 11.365 11.9375 11.365 12.2827C11.365 12.6279 11.0852 12.9077 10.74 12.9077L7.11401 12.9077C6.76884 12.9077 6.48901 12.6279 6.48901 12.2827C6.48901 11.9375 6.76884 11.6577 7.11401 11.6577L10.74 11.6577Z" fill="currentColor"/><path d="M12.8079 10.7671C12.8078 11.1122 12.528 11.3921 12.1829 11.3921C11.8377 11.3921 11.5579 11.1122 11.5579 10.7671L11.5579 7.27295C11.5579 6.92777 11.8377 6.64795 12.1829 6.64795C12.528 6.64795 12.8079 6.92777 12.8079 7.27295L12.8079 10.7671Z" fill="currentColor"/><path d="M12.8411 12.2935C12.8409 11.9363 12.5508 11.647 12.1936 11.647C11.8365 11.6471 11.5473 11.9364 11.5471 12.2935C11.5471 12.6507 11.8364 12.9408 12.1936 12.9409C12.5509 12.9409 12.8411 12.6508 12.8411 12.2935ZM13.9905 12.2935C13.9905 13.2859 13.186 14.0903 12.1936 14.0903C11.2013 14.0902 10.3967 13.2858 10.3967 12.2935C10.3969 11.3012 11.2014 10.4967 12.1936 10.4966C13.1859 10.4966 13.9903 11.3012 13.9905 12.2935Z" fill="currentColor"/><path d="M4.42358 11.6191C4.42347 11.5656 4.37948 11.5225 4.32593 11.5225H3.22632C3.17287 11.5226 3.12975 11.5657 3.12964 11.6191V12.7188C3.12964 12.7723 3.1728 12.8163 3.22632 12.8164H4.32593C4.37955 12.8164 4.42358 12.7724 4.42358 12.7188V11.6191ZM5.573 12.7188C5.573 13.4075 5.01467 13.9658 4.32593 13.9658H3.22632C2.53767 13.9657 1.97925 13.4074 1.97925 12.7188V11.6191C1.97936 10.9306 2.53774 10.3722 3.22632 10.3721H4.32593C5.0146 10.3721 5.57288 10.9305 5.573 11.6191V12.7188Z" fill="currentColor"/><path d="M4.896 4.37451C4.55082 4.37451 4.271 4.09469 4.271 3.74951C4.271 3.40433 4.55082 3.12451 4.896 3.12451L8.52197 3.12451C8.86715 3.12451 9.14697 3.40433 9.14697 3.74951C9.14697 4.09469 8.86715 4.37451 8.52197 4.37451L4.896 4.37451Z" fill="currentColor"/><path d="M2.82837 5.26514C2.82844 4.92002 3.10824 4.64014 3.45337 4.64014C3.7985 4.64014 4.0783 4.92002 4.07837 5.26514L4.07837 8.75928C4.07837 9.10446 3.79855 9.38428 3.45337 9.38428C3.10819 9.38428 2.82837 9.10446 2.82837 8.75928L2.82837 5.26514Z" fill="currentColor"/><path d="M2.79517 3.73877C2.79532 4.09595 3.08541 4.38525 3.44263 4.38525C3.79971 4.3851 4.08895 4.09585 4.08911 3.73877C4.08911 3.38155 3.79981 3.09147 3.44263 3.09131C3.08531 3.09131 2.79517 3.38146 2.79517 3.73877ZM1.64575 3.73877C1.64575 2.74633 2.45019 1.94189 3.44263 1.94189C4.43493 1.94205 5.2395 2.74643 5.2395 3.73877C5.23934 4.73098 4.43484 5.53549 3.44263 5.53564C2.45028 5.53564 1.64591 4.73108 1.64575 3.73877Z" fill="currentColor"/><path d="M11.2124 4.41357C11.2125 4.4671 11.2565 4.51025 11.3101 4.51025H12.4097C12.4631 4.51014 12.5062 4.46703 12.5063 4.41357V3.31396C12.5063 3.26042 12.4632 3.21642 12.4097 3.21631H11.3101C11.2564 3.21631 11.2124 3.26035 11.2124 3.31396V4.41357ZM10.063 3.31396C10.063 2.62522 10.6213 2.06689 11.3101 2.06689H12.4097C13.0983 2.06701 13.6567 2.62529 13.6567 3.31396V4.41357C13.6566 5.10215 13.0982 5.66053 12.4097 5.66064H11.3101C10.6214 5.66064 10.0631 5.10222 10.063 4.41357V3.31396Z" fill="currentColor"/></svg>