<svg width="24" height="24" viewBox="0 0 16 16" fill="currentColor" xmlns="http://www.w3.org/2000/svg"><path d="M3.33301 2.04199C4.41446 2.04199 5.29182 2.91859 5.29199 4C5.29189 4.86234 4.73338 5.59307 3.95898 5.85449V8.04102H6.00098C6.34559 8.04145 6.62567 8.32137 6.62598 8.66602C6.62598 9.01092 6.34578 9.29058 6.00098 9.29102H3.95898V11.833C3.95898 12.3163 4.35074 12.708 4.83398 12.708H6.00098C6.3457 12.7084 6.62584 12.9882 6.62598 13.333C6.62598 13.6779 6.34578 13.9576 6.00098 13.958H4.83398C3.66038 13.958 2.70898 13.0066 2.70898 11.833V5.85449C1.93403 5.59348 1.37511 4.86286 1.375 4C1.37518 2.9187 2.25171 2.04217 3.33301 2.04199ZM14 12.708C14.3451 12.708 14.6248 12.988 14.625 13.333C14.625 13.6782 14.3452 13.958 14 13.958H9.33301C8.98798 13.9578 8.70801 13.6781 8.70801 13.333C8.70818 12.9881 8.98809 12.7082 9.33301 12.708H14ZM14 8.04199C14.3452 8.04199 14.625 8.32181 14.625 8.66699C14.6248 9.01202 14.3451 9.29199 14 9.29199H9.33301C8.98809 9.29182 8.70818 9.01191 8.70801 8.66699C8.70801 8.32192 8.98798 8.04217 9.33301 8.04199H14ZM3.33301 3.29199C2.94206 3.29217 2.62518 3.60906 2.625 4C2.62513 4.38935 2.9394 4.7052 3.32812 4.70801H3.33789C3.72677 4.70537 4.04186 4.38946 4.04199 4C4.04182 3.60895 3.7241 3.29199 3.33301 3.29199ZM14 3.375C14.3452 3.375 14.625 3.65482 14.625 4C14.625 4.34518 14.3452 4.625 14 4.625H8C7.65482 4.625 7.375 4.34518 7.375 4C7.375 3.65482 7.65482 3.375 8 3.375H14Z" fill="currentColor"/></svg>