<svg width="24" height="24" viewBox="0 0 28 28" fill="none" xmlns="http://www.w3.org/2000/svg"><path fill="#51BDEA" d="M0 0H28V28H0z"/><path d="M20.7566 16.6881C20.7566 16.4937 20.7267 16.3192 20.6668 16.1647C20.612 16.0051 20.5073 15.8606 20.3528 15.731C20.1982 15.5964 19.9814 15.4643 19.7022 15.3346C19.4231 15.205 19.0616 15.0704 18.618 14.9308C18.1244 14.7713 17.6558 14.5919 17.2121 14.3924C16.7734 14.193 16.3846 13.9612 16.0456 13.697C15.7116 13.4278 15.4474 13.1162 15.253 12.7623C15.0635 12.4084 14.9688 11.9971 14.9688 11.5285C14.9688 11.0748 15.0685 10.6636 15.2679 10.2947C15.4673 9.92077 15.7465 9.60172 16.1054 9.3375C16.4644 9.06831 16.8881 8.86142 17.3766 8.71685C17.8702 8.57228 18.4111 8.5 18.9993 8.5C19.8019 8.5 20.5023 8.64457 21.1006 8.93371C21.6988 9.22285 22.1624 9.61917 22.4914 10.1227C22.8254 10.6262 22.9924 11.202 22.9924 11.85H20.7641C20.7641 11.531 20.6968 11.2518 20.5622 11.0125C20.4325 10.7682 20.2331 10.5763 19.9639 10.4367C19.6997 10.2971 19.3657 10.2274 18.9619 10.2274C18.5731 10.2274 18.2491 10.2872 17.9898 10.4068C17.7306 10.5215 17.5362 10.6785 17.4066 10.8779C17.2769 11.0723 17.2121 11.2917 17.2121 11.536C17.2121 11.7204 17.257 11.8874 17.3467 12.037C17.4415 12.1865 17.581 12.3261 17.7655 12.4557C17.9499 12.5853 18.1768 12.7075 18.446 12.8221C18.7152 12.9368 19.0267 13.0489 19.3807 13.1586C19.9739 13.3381 20.4949 13.54 20.9435 13.7643C21.3972 13.9886 21.776 14.2404 22.0801 14.5196C22.3842 14.7987 22.6135 15.1153 22.7681 15.4692C22.9226 15.8232 22.9999 16.2245 22.9999 16.6732C22.9999 17.1467 22.9077 17.5705 22.7232 17.9444C22.5388 18.3183 22.2721 18.6348 21.9231 18.894C21.5741 19.1533 21.1579 19.3502 20.6743 19.4848C20.1908 19.6194 19.6499 19.6867 19.0517 19.6867C18.5133 19.6867 17.9823 19.6169 17.4589 19.4773C16.9355 19.3327 16.4594 19.1159 16.0307 18.8267C15.6069 18.5376 15.2679 18.1687 15.0137 17.72C14.7594 17.2714 14.6323 16.7405 14.6323 16.1273H16.8831C16.8831 16.4663 16.9355 16.7529 17.0402 16.9872C17.1448 17.2215 17.2919 17.411 17.4813 17.5555C17.6758 17.7001 17.9051 17.8048 18.1693 17.8696C18.4385 17.9344 18.7326 17.9668 19.0517 17.9668C19.4405 17.9668 19.7596 17.912 20.0088 17.8023C20.2631 17.6926 20.45 17.5406 20.5696 17.3461C20.6943 17.1517 20.7566 16.9324 20.7566 16.6881Z" fill="#0E2F4E"/><path d="M10.5335 8.64966V19.5372H8.29768V8.64966H10.5335ZM13.8835 8.64966V10.4069H5V8.64966H13.8835Z" fill="#0E2F4E"/></svg>