<svg width="24" height="24" viewBox="0 0 16 16" fill="currentColor" xmlns="http://www.w3.org/2000/svg"><path d="M12 13.375C12.3452 13.375 12.625 13.6548 12.625 14C12.625 14.3452 12.3452 14.625 12 14.625H4C3.65482 14.625 3.375 14.3452 3.375 14C3.375 13.6548 3.65482 13.375 4 13.375H12ZM12 2.04102C12.3452 2.04102 12.625 2.32181 12.625 2.66699V8C12.6247 10.5541 10.5541 12.625 8 12.625C5.44584 12.625 3.37526 10.5541 3.375 8V2.66699C3.375 2.32181 3.65482 2.04102 4 2.04102C4.34518 2.04102 4.625 2.32181 4.625 2.66699V8C4.62526 9.86373 6.1362 11.375 8 11.375C9.86379 11.375 11.3747 9.86373 11.375 8V2.66699C11.375 2.32181 11.6548 2.04102 12 2.04102Z" fill="currentColor"/></svg>