<svg width="24" height="24" viewBox="0 0 16 16" fill="currentColor" xmlns="http://www.w3.org/2000/svg"><path d="M7.0793 3.38052C7.61391 2.9444 8.38545 2.9445 8.92012 3.38052L9.03145 3.48013L11.1086 5.55826C11.3524 5.80236 11.3526 6.19805 11.1086 6.44205C10.8646 6.68599 10.4689 6.68588 10.2248 6.44205L8.14766 4.36392V4.3649C8.06626 4.28351 7.93413 4.28351 7.85274 4.3649L5.77559 6.44205C5.53151 6.68613 5.1349 6.68612 4.89082 6.44205C4.64697 6.19809 4.64717 5.80233 4.89082 5.55826L6.96895 3.48013L7.0793 3.38052Z" fill="currentColor"/><path d="M10.2248 9.55763C10.4689 9.31393 10.8646 9.31382 11.1086 9.55763C11.3527 9.80171 11.3527 10.1983 11.1086 10.4424L9.03145 12.5195C8.46198 13.089 7.53851 13.0889 6.96895 12.5195L4.89082 10.4424C4.64674 10.1983 4.64674 9.80171 4.89082 9.55763C5.1349 9.31355 5.53151 9.31355 5.77559 9.55763L7.85274 11.6358C7.93414 11.7169 8.06635 11.7171 8.14766 11.6358L10.2248 9.55763Z" fill="currentColor"/></svg>