<svg width="24" height="24" viewBox="0 0 16 16" fill="currentColor" xmlns="http://www.w3.org/2000/svg"><path d="M8.27539 2.375C9.77269 2.37503 11.1515 2.54666 12.1758 2.83789C12.6837 2.98232 13.1405 3.16628 13.4844 3.39746C13.8058 3.61359 14.1748 3.97439 14.1748 4.5V11.5C14.1748 12.0105 13.8231 12.3684 13.502 12.5889C13.1611 12.8229 12.7029 13.0122 12.1758 13.1621C11.1151 13.4637 9.71272 13.625 8.27539 13.625C6.83785 13.625 5.43478 13.4637 4.37402 13.1621C3.8469 13.0122 3.38875 12.8229 3.04785 12.5889C2.72678 12.3684 2.375 12.0104 2.375 11.5V4.5C2.375 3.97446 2.74404 3.6136 3.06543 3.39746C3.40929 3.16628 3.8661 2.98232 4.37402 2.83789C5.39842 2.5466 6.77785 2.375 8.27539 2.375ZM12.9248 9.39941C12.6975 9.4976 12.4458 9.58533 12.1758 9.66211C11.1151 9.96368 9.71272 10.125 8.27539 10.125C6.83785 10.125 5.43478 9.96374 4.37402 9.66211C4.104 9.58533 3.85233 9.4976 3.625 9.39941V11.4473C3.64163 11.4672 3.67776 11.5056 3.75488 11.5586C3.93918 11.6851 4.2537 11.8286 4.71582 11.96C5.63356 12.2209 6.91492 12.375 8.27539 12.375C9.63563 12.375 10.9163 12.2209 11.834 11.96C12.2961 11.8286 12.6106 11.6851 12.7949 11.5586C12.872 11.5057 12.9081 11.4672 12.9248 11.4473V9.39941ZM12.9248 5.89941C12.6951 5.99827 12.4427 6.0862 12.1758 6.16211C11.1515 6.45334 9.77269 6.62497 8.27539 6.625C6.77785 6.625 5.39842 6.4534 4.37402 6.16211C4.10708 6.0862 3.85473 5.99827 3.625 5.89941V7.94824C3.64189 7.96829 3.67851 8.00613 3.75488 8.05859C3.93918 8.18511 4.2537 8.32855 4.71582 8.45996C5.63356 8.72093 6.91492 8.875 8.27539 8.875C9.63563 8.87497 10.9163 8.72088 11.834 8.45996C12.2961 8.32855 12.6106 8.18512 12.7949 8.05859C12.872 8.00563 12.9082 7.96728 12.9248 7.94727V5.89941ZM8.27539 3.625C6.85964 3.625 5.6006 3.78844 4.71582 4.04004C4.26948 4.16696 3.95371 4.30691 3.76367 4.43457C3.72725 4.45906 3.7001 4.4821 3.67871 4.5C3.7001 4.5179 3.72725 4.54094 3.76367 4.56543C3.95371 4.69309 4.26948 4.83304 4.71582 4.95996C5.6006 5.21156 6.85964 5.375 8.27539 5.375C9.69089 5.37497 10.9493 5.2115 11.834 4.95996C12.2807 4.83295 12.5971 4.69317 12.7871 4.56543C12.8234 4.54102 12.8497 4.51786 12.8711 4.5C12.8497 4.48214 12.8234 4.45898 12.7871 4.43457C12.5971 4.30683 12.2807 4.16705 11.834 4.04004C10.9493 3.7885 9.69089 3.62503 8.27539 3.625Z" fill="currentColor"/></svg>