<svg width="24" height="24" viewBox="0 0 16 16" fill="currentColor" xmlns="http://www.w3.org/2000/svg"><path d="M13.375 3.33362C13.375 3.3106 13.356 3.29163 13.333 3.29163H11.958V8.04163H13.333C13.356 8.04163 13.375 8.02266 13.375 7.99963V3.33362ZM4.44627 3.29163C3.76412 3.29163 3.18377 3.7975 3.0908 4.4801L2.63768 7.81409C2.52528 8.64208 3.16671 9.37456 3.99315 9.37463H7.34568C7.52811 9.37463 7.70156 9.45491 7.82029 9.59338C7.93903 9.732 7.99187 9.91596 7.96385 10.0963L7.58104 12.5573C7.51398 12.9893 7.84713 13.3746 8.27635 13.3746C8.28943 13.3746 8.30171 13.3677 8.3076 13.3561L10.708 8.51917V3.29163H4.44627ZM14.625 7.99963C14.625 8.71301 14.0464 9.29163 13.333 9.29163H11.7217L9.42674 13.9117C9.20972 14.3486 8.76412 14.6246 8.27635 14.6246C7.07504 14.6246 6.16163 13.5496 6.34568 12.3649L6.61619 10.6246H3.99315C2.40438 10.6246 1.18558 9.21859 1.3994 7.64514L1.85252 4.31213C2.02911 3.01308 3.13537 2.04163 4.44627 2.04163H13.333C14.0464 2.04163 14.625 2.62026 14.625 3.33362V7.99963Z" fill="currentColor"/></svg>