<svg width="24" height="24" viewBox="0 0 16 16" fill="none" xmlns="http://www.w3.org/2000/svg"><g clip-path="url(#svg_a128b8c324__clip0_12617_608)" fill="#262626"><path d="M0.708252 9.33374V6.66675C0.708252 5.217 1.88351 4.04175 3.33325 4.04175H5.33325C5.67843 4.04175 5.95825 4.32157 5.95825 4.66675C5.95825 5.01193 5.67843 5.29175 5.33325 5.29175H3.33325C2.57386 5.29175 1.95825 5.90736 1.95825 6.66675V9.33374C1.95843 10.093 2.57397 10.7087 3.33325 10.7087H5.33325C5.67843 10.7087 5.95825 10.9886 5.95825 11.3337C5.95808 11.6788 5.67832 11.9587 5.33325 11.9587H3.33325C1.88362 11.9587 0.708428 10.7834 0.708252 9.33374ZM14.0413 9.33374V6.66675C14.0413 5.90735 13.4257 5.29175 12.6663 5.29175H10.6663C10.3212 5.29157 10.0413 5.01182 10.0413 4.66675C10.0413 4.32168 10.3212 4.04192 10.6663 4.04175H12.6663C14.116 4.04175 15.2913 5.21701 15.2913 6.66675V9.33374C15.2911 10.7834 14.1159 11.9587 12.6663 11.9587H10.6663C10.3213 11.9586 10.0414 11.6787 10.0413 11.3337C10.0413 10.9887 10.3212 10.7089 10.6663 10.7087H12.6663C13.4256 10.7087 14.0411 10.093 14.0413 9.33374Z"/><path d="M6.10742 13.054C6.26179 12.7452 6.63755 12.6203 6.94629 12.7747C7.25479 12.9291 7.37981 13.3039 7.22559 13.6125L6.55859 14.9465C6.40411 15.2548 6.02922 15.3799 5.7207 15.2258C5.41197 15.0715 5.28704 14.6957 5.44141 14.387L6.10742 13.054ZM9.05371 12.7747C9.36245 12.6203 9.73821 12.7452 9.89258 13.054L10.5586 14.387C10.713 14.6957 10.588 15.0715 10.2793 15.2258C9.97078 15.3799 9.59589 15.2548 9.44141 14.9465L8.77442 13.6125C8.62019 13.3039 8.74521 12.9291 9.05371 12.7747ZM5.7207 0.774659C6.02944 0.620291 6.40423 0.74522 6.55859 1.05396L7.22559 2.38696C7.37996 2.6957 7.25503 3.07146 6.94629 3.22583C6.63764 3.38016 6.26187 3.25508 6.10742 2.94653L5.44141 1.61255C5.28704 1.30381 5.41197 0.929028 5.7207 0.774659ZM9.44141 1.05396C9.59578 0.74522 9.97056 0.620291 10.2793 0.774659C10.588 0.929028 10.713 1.30381 10.5586 1.61255L9.89258 2.94653C9.73813 3.25508 9.36236 3.38016 9.05371 3.22583C8.74498 3.07146 8.62005 2.6957 8.77442 2.38696L9.44141 1.05396Z"/></g><defs><clipPath id="svg_a128b8c324__clip0_12617_608"><path fill="#fff" d="M0 0H16V16H0z"/></clipPath></defs></svg>