<svg width="24" height="24" viewBox="0 0 16 16" fill="currentColor" xmlns="http://www.w3.org/2000/svg"><path d="M8 1.375C9.5343 1.37515 10.8219 2.42454 11.1875 3.84375C11.2735 4.178 11.0725 4.51939 10.7383 4.60547C10.4043 4.69132 10.0638 4.49014 9.97754 4.15625C9.75083 3.27564 8.95028 2.62515 8 2.625C6.87253 2.62513 5.95801 3.53949 5.95801 4.66699V6.04199H10.666C12.1158 6.04199 13.291 7.21721 13.291 8.66699V12C13.291 13.4498 12.1158 14.625 10.666 14.625H5.33301C3.88338 14.6249 2.70801 13.4497 2.70801 12V8.66699C2.70801 7.43289 3.56043 6.39982 4.70801 6.11914V4.66699C4.70801 2.84914 6.18217 1.37513 8 1.375ZM5.33301 7.29199C4.57372 7.29212 3.95801 7.90766 3.95801 8.66699V12C3.95801 12.7593 4.57372 13.3749 5.33301 13.375H10.666C11.4254 13.375 12.041 12.7594 12.041 12V8.66699C12.041 7.90757 11.4254 7.29199 10.666 7.29199H5.33301ZM8 8.66602C8.36811 8.66602 8.66686 8.96493 8.66699 9.33301V11.333C8.66699 11.7012 8.36819 12 8 12C7.63181 12 7.33301 11.7012 7.33301 11.333V9.33301C7.33314 8.96493 7.63189 8.66602 8 8.66602Z" fill="currentColor"/></svg>