<svg width="24" height="24" viewBox="0 0 16 16" fill="currentColor" xmlns="http://www.w3.org/2000/svg"><path d="M5.30409 5.42383C5.58535 5.22373 5.97606 5.29003 6.17616 5.57129C6.37603 5.85253 6.30988 6.24235 6.0287 6.44238L5.69569 6.67969L5.69081 6.68359C4.80447 7.30202 4.17955 8.2645 4.00721 9.375H10.0004C10.3453 9.37526 10.6254 9.65498 10.6254 10C10.6254 10.345 10.3453 10.6247 10.0004 10.625H4.00038C3.31533 10.625 2.64684 10.0483 2.76112 9.24707L2.80799 8.9707C3.07756 7.60456 3.87274 6.42908 4.97108 5.66113L5.30409 5.42383ZM10.0414 4C10.0414 3.2406 9.42581 2.625 8.66639 2.625H7.33338C6.9809 2.625 6.66005 2.75657 6.41639 2.97461C6.15918 3.20467 5.76471 3.18292 5.53456 2.92578C5.30438 2.66856 5.32616 2.27315 5.58338 2.04297C6.04733 1.62792 6.66173 1.375 7.33338 1.375H8.66639C10.1162 1.375 11.2914 2.55026 11.2914 4V5.8584C12.3223 6.67866 13.0418 7.87625 13.2377 9.24512C13.2864 9.5867 13.049 9.90326 12.7074 9.95215C12.3659 10.0008 12.0493 9.76342 12.0004 9.42188C11.8386 8.29155 11.2078 7.31078 10.309 6.68359C10.1415 6.56676 10.0415 6.37507 10.0414 6.1709V4Z" fill="currentColor"/><path d="M1.90459 1.21159C2.15587 0.975087 2.55178 0.986808 2.78838 1.23796L13.4554 12.5719C13.6916 12.8233 13.6793 13.2183 13.428 13.4548C13.1767 13.6913 12.7818 13.6796 12.5452 13.4284L1.87822 2.09538C1.64171 1.84409 1.65343 1.44819 1.90459 1.21159Z" fill="currentColor"/><path d="M8.6001 14.0254C8.59989 14.3704 8.32015 14.6504 7.9751 14.6504C7.63005 14.6504 7.35031 14.3704 7.3501 14.0254L7.3501 10.625C7.3501 10.2798 7.62992 10 7.9751 10C8.32028 10 8.6001 10.2798 8.6001 10.625L8.6001 14.0254Z" fill="currentColor"/></svg>