<svg width="24" height="24" viewBox="0 0 16 16" fill="currentColor" xmlns="http://www.w3.org/2000/svg"><path d="M1.55658 1.55664C1.80129 1.31196 2.19857 1.31196 2.44329 1.55664L14.4433 13.5566C14.688 13.8014 14.688 14.1986 14.4433 14.4434C14.1986 14.6881 13.8013 14.6881 13.5566 14.4434L11.2109 12.0977C10.6127 13.8581 8.28818 14.5075 6.87103 13.0908L5.33294 11.5518L3.10931 13.7764C2.86457 14.021 2.46825 14.021 2.22357 13.7764C1.97891 13.5317 1.97898 13.1353 2.22357 12.8906L4.4472 10.666L2.90911 9.1289C1.49263 7.7119 2.14139 5.3866 3.9013 4.78808L1.55658 2.44336C1.31188 2.19862 1.31186 1.80135 1.55658 1.55664ZM4.64251 5.90429C3.48295 6.00974 2.97252 7.41987 3.79583 8.24316L7.75677 12.2041C8.58009 13.0274 9.99021 12.517 10.0956 11.3574L10.1269 11.0137L4.98529 5.87207L4.64251 5.90429ZM8.17376 2.73632C9.00789 1.18726 11.0995 0.880146 12.3437 2.12402L13.8759 3.65625C15.1199 4.90044 14.8127 6.99204 13.2636 7.82617L12.2431 8.37597C11.9385 8.5398 11.5585 8.42564 11.3945 8.12109C11.2304 7.81636 11.3446 7.43654 11.6493 7.27246L12.6699 6.72265C13.4795 6.28639 13.6396 5.19239 12.9892 4.54199L11.4579 3.01074C10.8074 2.36023 9.71339 2.52109 9.27728 3.33105L8.72747 4.35058C8.56339 4.65531 8.18357 4.76955 7.87884 4.60547C7.57434 4.44138 7.46013 4.06145 7.62396 3.75683L8.17376 2.73632Z" fill="currentColor"/></svg>