<svg width="24" height="24" viewBox="0 0 16 16" fill="currentColor" xmlns="http://www.w3.org/2000/svg"><path d="M13.3594 8.00098C13.3594 5.04636 10.9643 2.65065 8.00977 2.65039C5.05499 2.65039 2.65918 5.0462 2.65918 8.00098C2.65944 10.9555 5.05515 13.3506 8.00977 13.3506V14.6006L7.66992 14.5918C4.2949 14.4209 1.58891 11.7149 1.41797 8.33984L1.40918 8.00098C1.40918 4.35584 4.36463 1.40039 8.00977 1.40039L8.34863 1.40918C11.8361 1.58581 14.6094 4.46966 14.6094 8.00098L14.6006 8.33984C14.424 11.8271 11.5409 14.6003 8.00977 14.6006V13.3506C10.9642 13.3503 13.3591 10.9554 13.3594 8.00098Z" fill="currentColor"/><path d="M10.4484 4.70345C10.6646 4.49013 11.0134 4.49208 11.2267 4.70833C11.8158 5.30552 12.24 6.06746 12.4249 6.91927C12.4893 7.21605 12.3008 7.50913 12.004 7.57357C11.7073 7.63779 11.4142 7.44933 11.3497 7.15267C11.2102 6.51013 10.8902 5.9337 10.4435 5.48079C10.2302 5.2646 10.2323 4.91678 10.4484 4.70345ZM7.33216 3.41341C7.63245 3.36827 7.91285 3.57509 7.95813 3.87533C8.00328 4.17566 7.79652 4.45608 7.49622 4.5013C6.11799 4.70848 5.00774 5.74048 4.68567 7.07845C4.6146 7.37378 4.31694 7.55577 4.02161 7.4847C3.72656 7.41358 3.54461 7.11672 3.61536 6.82161C4.04123 5.0519 5.50744 3.68787 7.33216 3.41341Z" fill="currentColor"/><path d="M10.4484 4.70345C10.6646 4.49013 11.0134 4.49208 11.2267 4.70833C11.8158 5.30552 12.24 6.06746 12.4249 6.91927C12.4893 7.21605 12.3008 7.50913 12.004 7.57357C11.7073 7.63779 11.4142 7.44933 11.3497 7.15267C11.2102 6.51013 10.8902 5.9337 10.4435 5.48079C10.2302 5.2646 10.2323 4.91678 10.4484 4.70345ZM7.33216 3.41341C7.63245 3.36827 7.91285 3.57509 7.95813 3.87533C8.00328 4.17566 7.79652 4.45608 7.49622 4.5013C6.11799 4.70848 5.00774 5.74048 4.68567 7.07845C4.6146 7.37378 4.31694 7.55577 4.02161 7.4847C3.72656 7.41358 3.54461 7.11672 3.61536 6.82161C4.04123 5.0519 5.50744 3.68787 7.33216 3.41341Z" fill="currentColor"/><path d="M10.4484 4.70345C10.6646 4.49013 11.0134 4.49208 11.2267 4.70833C11.8158 5.30552 12.24 6.06746 12.4249 6.91927C12.4893 7.21605 12.3008 7.50913 12.004 7.57357C11.7073 7.63779 11.4142 7.44933 11.3497 7.15267C11.2102 6.51013 10.8902 5.9337 10.4435 5.48079C10.2302 5.2646 10.2323 4.91678 10.4484 4.70345ZM7.33216 3.41341C7.63245 3.36827 7.91285 3.57509 7.95813 3.87533C8.00328 4.17566 7.79652 4.45608 7.49622 4.5013C6.11799 4.70848 5.00774 5.74048 4.68567 7.07845C4.6146 7.37378 4.31694 7.55577 4.02161 7.4847C3.72656 7.41358 3.54461 7.11672 3.61536 6.82161C4.04123 5.0519 5.50744 3.68787 7.33216 3.41341Z" fill="currentColor"/><path d="M8.72544 4.06032C8.82032 3.77187 9.1313 3.61501 9.41977 3.70974C9.70832 3.80465 9.86527 4.11553 9.77036 4.40407L9.13559 6.33474C9.04068 6.62328 8.7298 6.78024 8.44126 6.68532C8.15275 6.59039 7.99577 6.27952 8.09067 5.99099L8.72544 4.06032Z" fill="currentColor"/><path d="M9.05478 8.00153C9.05478 7.42447 8.58683 6.95583 8.00983 6.9556C7.43263 6.9556 6.9639 7.42433 6.9639 8.00153C6.96413 8.57853 7.43277 9.04648 8.00983 9.04648V10.1461L7.79009 10.1354C6.78043 10.0329 5.97746 9.22997 5.875 8.22028L5.86426 8.00153C5.86426 6.8168 6.8251 5.85596 8.00983 5.85596L8.22858 5.8667C9.31037 5.97647 10.1544 6.89078 10.1544 8.00153L10.1437 8.22028C10.0339 9.30192 9.12037 10.1459 8.00983 10.1461V9.04648C8.58669 9.04625 9.05455 8.57839 9.05478 8.00153Z" fill="currentColor"/><path d="M9.05478 8.00153C9.05478 7.42447 8.58683 6.95583 8.00983 6.9556C7.43263 6.9556 6.9639 7.42433 6.9639 8.00153C6.96413 8.57853 7.43277 9.04648 8.00983 9.04648V10.1461L7.79009 10.1354C6.78043 10.0329 5.97746 9.22997 5.875 8.22028L5.86426 8.00153C5.86426 6.8168 6.8251 5.85596 8.00983 5.85596L8.22858 5.8667C9.31037 5.97647 10.1544 6.89078 10.1544 8.00153L10.1437 8.22028C10.0339 9.30192 9.12037 10.1459 8.00983 10.1461V9.04648C8.58669 9.04625 9.05455 8.57839 9.05478 8.00153Z" fill="currentColor"/><path d="M9.05478 8.00153C9.05478 7.42447 8.58683 6.95583 8.00983 6.9556C7.43263 6.9556 6.9639 7.42433 6.9639 8.00153C6.96413 8.57853 7.43277 9.04648 8.00983 9.04648V10.1461L7.79009 10.1354C6.78043 10.0329 5.97746 9.22997 5.875 8.22028L5.86426 8.00153C5.86426 6.8168 6.8251 5.85596 8.00983 5.85596L8.22858 5.8667C9.31037 5.97647 10.1544 6.89078 10.1544 8.00153L10.1437 8.22028C10.0339 9.30192 9.12037 10.1459 8.00983 10.1461V9.04648C8.58669 9.04625 9.05455 8.57839 9.05478 8.00153Z" fill="currentColor"/></svg>