<svg width="24" height="24" viewBox="0 0 16 16" fill="currentColor" xmlns="http://www.w3.org/2000/svg"><path d="M13.1265 9.01855C13.3003 8.72062 13.6829 8.61958 13.981 8.79297C14.2791 8.96687 14.3794 9.34932 14.2056 9.64746L11.8726 13.6475C11.775 13.8147 11.6056 13.9281 11.4136 13.9531C11.2216 13.9779 11.0281 13.9121 10.8911 13.7754L9.55811 12.4453C9.31423 12.2016 9.31371 11.8058 9.55713 11.5615C9.80081 11.3173 10.1965 11.3171 10.4409 11.5605L11.2007 12.3184L13.1265 9.01855ZM7.99951 1.70801C9.90931 1.70801 11.4582 3.25629 11.4585 5.16602C11.4585 7.076 9.9095 8.625 7.99951 8.625C5.93278 8.62516 4.60661 9.87001 4.06299 11.5557C3.96968 11.845 4.04306 12.1085 4.23779 12.3223C4.44297 12.5475 4.78228 12.708 5.1665 12.708H7.3335C7.67845 12.7081 7.95832 12.9881 7.9585 13.333C7.9585 13.6781 7.67856 13.9579 7.3335 13.958H5.1665C4.44623 13.958 3.76635 13.6606 3.31396 13.1641C2.85132 12.6562 2.62814 11.9345 2.87354 11.1729C3.34557 9.70899 4.32814 8.45357 5.78076 7.81836C5.02353 7.18379 4.5415 6.23114 4.5415 5.16602C4.54181 3.25644 6.08992 1.70825 7.99951 1.70801ZM7.99951 2.95801C6.78028 2.95825 5.79181 3.9468 5.7915 5.16602C5.7915 6.38549 6.78009 7.37476 7.99951 7.375C9.21914 7.375 10.2085 6.38564 10.2085 5.16602C10.2082 3.94665 9.21895 2.95801 7.99951 2.95801Z" fill="currentColor"/></svg>