<svg width="24" height="24" viewBox="0 0 16 16" fill="currentColor" xmlns="http://www.w3.org/2000/svg"><path d="M7.99951 1.70801C9.90931 1.70801 11.4582 3.25629 11.4585 5.16602C11.4585 7.076 9.9095 8.625 7.99951 8.625C5.93278 8.62516 4.60661 9.87001 4.06299 11.5557C3.96968 11.845 4.04306 12.1085 4.23779 12.3223C4.44297 12.5475 4.78228 12.708 5.1665 12.708H7.3335C7.67845 12.7081 7.95832 12.9881 7.9585 13.333C7.9585 13.6781 7.67856 13.9579 7.3335 13.958H5.1665C4.44623 13.958 3.76635 13.6606 3.31396 13.1641C2.85132 12.6562 2.62814 11.9345 2.87354 11.1729C3.34557 9.70899 4.32814 8.45357 5.78076 7.81836C5.02353 7.18379 4.5415 6.23114 4.5415 5.16602C4.54181 3.25644 6.08992 1.70825 7.99951 1.70801ZM11.9995 8.70801C12.3446 8.70801 12.6244 8.98794 12.6245 9.33301V10.708H13.9995C14.3446 10.708 14.6244 10.9879 14.6245 11.333C14.6245 11.6782 14.3447 11.958 13.9995 11.958H12.6245V13.333C12.6245 13.6782 12.3447 13.958 11.9995 13.958C11.6545 13.9578 11.3745 13.6781 11.3745 13.333V11.958H9.99951C9.6545 11.9578 9.37451 11.6781 9.37451 11.333C9.37464 10.9881 9.65458 10.7082 9.99951 10.708H11.3745V9.33301C11.3746 8.98806 11.6546 8.70821 11.9995 8.70801ZM7.99951 2.95801C6.78028 2.95825 5.79181 3.9468 5.7915 5.16602C5.7915 6.38549 6.78009 7.37476 7.99951 7.375C9.21914 7.375 10.2085 6.38564 10.2085 5.16602C10.2082 3.94665 9.21895 2.95801 7.99951 2.95801Z" fill="currentColor"/></svg>