<svg width="24" height="24" viewBox="0 0 16 16" fill="currentColor" xmlns="http://www.w3.org/2000/svg"><path d="M13.375 5.57715C13.375 4.75283 12.7374 4.125 12 4.125H4C3.26263 4.125 2.625 4.75283 2.625 5.57715V10.4229C2.625 11.2472 3.26263 11.875 4 11.875H12C12.7374 11.875 13.375 11.2472 13.375 10.4229V5.57715ZM7.06738 6.0498C7.28672 5.94687 7.54602 5.97999 7.73242 6.13477L9.39941 7.51953C9.54225 7.63827 9.625 7.81425 9.625 8C9.625 8.18575 9.54225 8.36173 9.39941 8.48047L7.73242 9.86523C7.54602 10.02 7.28672 10.0531 7.06738 9.9502C6.84829 9.84717 6.70807 9.62689 6.70801 9.38477V6.61523C6.70807 6.37311 6.84829 6.15283 7.06738 6.0498ZM7.95801 8.05273L8.02148 8L7.95801 7.94629V8.05273ZM14.625 10.4229C14.625 11.8927 13.4718 13.125 12 13.125H4C2.52824 13.125 1.375 11.8927 1.375 10.4229V5.57715C1.375 4.10736 2.52823 2.875 4 2.875H12C13.4718 2.875 14.625 4.10737 14.625 5.57715V10.4229Z" fill="currentColor"/></svg>