<svg width="24" height="24" viewBox="0 0 16 16" fill="currentColor" xmlns="http://www.w3.org/2000/svg"><path d="M11.334 2.04102C12.7833 2.04132 13.9587 3.21669 13.959 4.66602V11.333C13.959 12.7826 12.7835 13.9577 11.334 13.958H4.66699C3.21725 13.958 2.04199 12.7828 2.04199 11.333V4.66602C2.0423 3.21649 3.21744 2.04102 4.66699 2.04102H11.334ZM12.667 10.625H3.33398C3.31996 10.625 3.30579 10.621 3.29199 10.6201V11.333C3.29199 12.0924 3.9076 12.708 4.66699 12.708H11.334C12.0931 12.7077 12.709 12.0922 12.709 11.333V10.6201C12.695 10.6211 12.6812 10.625 12.667 10.625ZM4.66699 3.29102C3.90779 3.29102 3.2923 3.90686 3.29199 4.66602V9.37891C3.30577 9.378 3.31998 9.375 3.33398 9.375H12.667C12.6812 9.37501 12.6951 9.37797 12.709 9.37891V4.66602C12.7087 3.90704 12.093 3.29132 11.334 3.29102H4.66699Z" fill="currentColor"/></svg>