<svg width="24" height="24" viewBox="0 0 16 16" fill="currentColor" xmlns="http://www.w3.org/2000/svg"><path d="M11.334 2.04199C12.7835 2.04237 13.959 3.21748 13.959 4.66699V11.334C13.9586 12.7832 12.7832 13.9586 11.334 13.959H4.66699C3.21748 13.959 2.04237 12.7835 2.04199 11.334V4.66699C2.04199 3.21725 3.21725 2.04199 4.66699 2.04199H11.334ZM6.625 3.33301V12.666C6.625 12.6804 6.62205 12.6949 6.62109 12.709H11.334C12.0929 12.7086 12.7086 12.0929 12.709 11.334V4.66699C12.709 3.90783 12.0931 3.29237 11.334 3.29199H6.62109C6.62199 3.30561 6.62499 3.31917 6.625 3.33301ZM4.66699 3.29199C3.9076 3.29199 3.29199 3.9076 3.29199 4.66699V11.334C3.29237 12.0931 3.90783 12.709 4.66699 12.709H5.37891C5.37795 12.6949 5.375 12.6804 5.375 12.666V3.33301C5.37501 3.31917 5.37801 3.30561 5.37891 3.29199H4.66699Z" fill="currentColor"/></svg>