<svg width="24" height="24" viewBox="0 0 16 16" fill="currentColor" xmlns="http://www.w3.org/2000/svg"><path d="M11.333 2.04102C12.7826 2.04102 13.9577 3.21649 13.958 4.66602V11.333C13.958 12.7828 12.7828 13.958 11.333 13.958H4.66602C3.21649 13.9577 2.04102 12.7826 2.04102 11.333V4.66602C2.04132 3.21669 3.21669 2.04132 4.66602 2.04102H11.333ZM8.625 3.33398V12.667C8.62499 12.6808 8.62199 12.6944 8.62109 12.708H11.333C12.0924 12.708 12.708 12.0924 12.708 11.333V4.66602C12.7077 3.90686 12.0922 3.29102 11.333 3.29102H8.62109C8.62204 3.30511 8.625 3.31965 8.625 3.33398ZM4.66602 3.29102C3.90704 3.29132 3.29132 3.90704 3.29102 4.66602V11.333C3.29102 12.0922 3.90686 12.7077 4.66602 12.708H7.37891C7.37801 12.6944 7.37501 12.6808 7.375 12.667V3.33398C7.375 3.31965 7.37796 3.30511 7.37891 3.29102H4.66602Z" fill="currentColor"/></svg>