<svg width="24" height="24" viewBox="0 0 16 16" fill="currentColor" xmlns="http://www.w3.org/2000/svg"><path d="M8 1.375C11.6589 1.375 14.625 4.34112 14.625 8C14.625 11.6589 11.6589 14.625 8 14.625C7.04596 14.625 6.13755 14.4228 5.31641 14.0586C5.285 14.0447 5.26455 14.0481 5.25879 14.0498L3.4668 14.5752C2.22222 14.9399 1.07254 13.7708 1.45801 12.5322L1.98828 10.8271L1.99023 10.8066C1.98942 10.7965 1.98596 10.7828 1.97852 10.7666C1.59076 9.9239 1.375 8.98625 1.375 8C1.375 4.34112 4.34112 1.375 8 1.375ZM8 2.625C5.03147 2.625 2.625 5.03147 2.625 8C2.625 8.80228 2.80034 9.56195 3.11426 10.2441C3.24568 10.5296 3.28488 10.8695 3.18262 11.1982L2.65137 12.9043C2.56261 13.19 2.82797 13.4592 3.11523 13.375L4.90723 12.8496C5.22348 12.757 5.54798 12.7939 5.82324 12.916L6.0752 13.0205C6.67209 13.2495 7.32078 13.375 8 13.375C10.9686 13.375 13.375 10.9686 13.375 8C13.375 5.03147 10.9686 2.625 8 2.625ZM7.95312 4.88379C8.2845 4.88379 8.55273 5.15203 8.55273 5.4834V10.8164C8.55273 11.1478 8.2845 11.417 7.95312 11.417C7.62187 11.4169 7.35352 11.1477 7.35352 10.8164V5.4834C7.35352 5.15211 7.62187 4.88392 7.95312 4.88379ZM10.4199 6.08691C10.7512 6.08691 11.0194 6.35527 11.0195 6.68652V9.35352C11.0194 9.68474 10.7512 9.95312 10.4199 9.95312C10.0887 9.95312 9.82049 9.68474 9.82031 9.35352V6.68652C9.82044 6.35527 10.0886 6.08691 10.4199 6.08691ZM5.59961 6.88379C5.93098 6.88379 6.19922 7.15203 6.19922 7.4834V8.81641C6.19922 9.14778 5.93098 9.41699 5.59961 9.41699C5.26835 9.41686 5 9.1477 5 8.81641V7.4834C5 7.15211 5.26835 6.88392 5.59961 6.88379Z" fill="currentColor"/></svg>