<svg xmlns="http://www.w3.org/2000/svg" width="24" height="24" fill="none" viewBox="0 0 16 16"><path fill="#35ede8" d="m12.617 7.481-1.8 7.091c-.02.083.039.16.126.16h3.594a.13.13 0 0 0 .126-.16l-1.795-7.09c-.034-.131-.218-.131-.251 0m-9.892 1.61-1.388 5.485c-.02.082.038.16.125.16H4.24a.13.13 0 0 0 .126-.16l-1.39-5.485a.13.13 0 0 0-.251 0"/><path fill="#1664ff" d="m5.178 4.548-2.54 10.027c-.019.083.04.16.126.16h5.074a.13.13 0 0 0 .126-.16L5.424 4.548c-.028-.13-.212-.13-.246 0"/><path fill="#1664ff" d="M9.555 1.362a.13.13 0 0 0-.251 0L5.836 14.576c-.02.083.038.16.126.16h6.936a.13.13 0 0 0 .126-.16z"/><path fill="#35ede8" d="m7.006 6.004-2.2 8.567c-.02.082.038.16.125.16h4.397a.13.13 0 0 0 .126-.16L7.253 6.004c-.029-.13-.213-.13-.247 0"/></svg>