<svg width="24" height="24" viewBox="0 0 16 16" fill="currentColor" xmlns="http://www.w3.org/2000/svg"><path d="M13.375 8C13.375 5.03147 10.9685 2.625 8 2.625C5.03147 2.625 2.625 5.03147 2.625 8C2.625 10.9685 5.03147 13.375 8 13.375C10.9685 13.375 13.375 10.9685 13.375 8ZM14.625 8C14.625 11.6589 11.6589 14.625 8 14.625C4.34111 14.625 1.375 11.6589 1.375 8C1.375 4.34111 4.34111 1.375 8 1.375C11.6589 1.375 14.625 4.34111 14.625 8Z" fill="currentColor"/><path d="M7.375 8.33334V5.33334C7.375 4.98816 7.65482 4.70834 8 4.70834C8.34518 4.70834 8.625 4.98816 8.625 5.33334V8.33334C8.625 8.67851 8.34518 8.95834 8 8.95834C7.65482 8.95834 7.375 8.67851 7.375 8.33334Z" fill="currentColor"/><path d="M7.99995 11.3331C8.44178 11.3331 8.79995 10.9749 8.79995 10.5331C8.79995 10.0912 8.44178 9.73307 7.99995 9.73307C7.55812 9.73307 7.19995 10.0912 7.19995 10.5331C7.19995 10.9749 7.55812 11.3331 7.99995 11.3331Z" fill="currentColor"/></svg>