<svg width="24" height="24" viewBox="0 0 16 16" fill="currentColor" xmlns="http://www.w3.org/2000/svg"><path d="M5.78722 2.63086C6.80392 0.956717 9.19628 0.956735 10.213 2.63086L14.2335 9.25098C15.2915 10.9932 14.0835 13.292 12.0206 13.292H3.9796C1.91667 13.292 0.708742 10.9932 1.76671 9.25098L5.78722 2.63086ZM9.14464 3.2793C8.61469 2.40672 7.3855 2.40673 6.85558 3.2793L2.83507 9.90039C2.25677 10.8534 2.94241 12.042 3.9796 12.042H12.0206C13.0578 12.042 13.7435 10.8534 13.1651 9.90039L9.14464 3.2793ZM8.08116 9.21289C8.4803 9.2535 8.7921 9.59014 8.7921 10C8.7921 10.4372 8.43735 10.792 8.00011 10.792C7.59025 10.792 7.25361 10.4802 7.213 10.0811L7.20812 10L7.213 9.91895C7.25361 9.5198 7.59024 9.20801 8.00011 9.20801L8.08116 9.21289ZM7.37511 7.94629V5.92285C7.37522 5.57777 7.655 5.29785 8.00011 5.29785C8.34521 5.29785 8.62499 5.57777 8.62511 5.92285V7.94629C8.62502 8.29139 8.34523 8.57129 8.00011 8.57129C7.65498 8.57129 7.37519 8.29139 7.37511 7.94629Z" fill="currentColor"/></svg>