<svg width="24" height="24" viewBox="0 0 16 16" fill="currentColor" xmlns="http://www.w3.org/2000/svg"><path fill-rule="evenodd" clip-rule="evenodd" d="M5.73515 2.71392C6.77855 1.03546 9.22128 1.03546 10.2647 2.71392L14.3331 9.25893C15.4374 11.0353 14.16 13.3334 12.0684 13.3334H3.93141C1.83983 13.3334 0.562431 11.0353 1.66665 9.25893L5.73515 2.71392ZM8.00008 5.33333C8.36828 5.33333 8.66675 5.6318 8.66675 6V8C8.66675 8.3682 8.36828 8.66666 8.00008 8.66666C7.63188 8.66666 7.33342 8.3682 7.33342 8V6C7.33342 5.6318 7.63188 5.33333 8.00008 5.33333ZM7.16675 10C7.16675 9.53973 7.53981 9.16666 8.00008 9.16666C8.46035 9.16666 8.83342 9.53973 8.83342 10C8.83342 10.4603 8.46035 10.8333 8.00008 10.8333C7.53981 10.8333 7.16675 10.4603 7.16675 10Z" fill="currentColor"/></svg>