<svg width="24" height="24" viewBox="0 0 16 16" fill="currentColor" xmlns="http://www.w3.org/2000/svg"><path d="M8 12.54C9.46799 12.54 10.8815 12.7857 12.2031 13.2402C12.5295 13.3525 12.7031 13.7088 12.5908 14.0352C12.4784 14.3612 12.1231 14.5349 11.7969 14.4229C10.6039 14.0125 9.32749 13.79 8 13.79C6.67253 13.79 5.39613 14.0125 4.20312 14.4229C3.87692 14.5349 3.52159 14.3612 3.40918 14.0352C3.29692 13.7088 3.4705 13.3525 3.79688 13.2402C5.11847 12.7857 6.53203 12.54 8 12.54ZM12 2.54004C13.4498 2.54004 14.625 3.7153 14.625 5.16504V9.16504C14.6249 10.6147 13.4497 11.79 12 11.79H4C2.55034 11.79 1.37513 10.6147 1.375 9.16504V5.16504C1.375 3.71529 2.55026 2.54004 4 2.54004H12ZM4 3.79004C3.24061 3.79004 2.625 4.40565 2.625 5.16504V9.16504C2.62513 9.92434 3.24069 10.54 4 10.54H12C12.7593 10.54 13.3749 9.92435 13.375 9.16504V5.16504C13.375 4.40564 12.7594 3.79004 12 3.79004H4Z" fill="currentColor"/></svg>