<svg width="24" height="24" viewBox="0 0 16 16" fill="currentColor" xmlns="http://www.w3.org/2000/svg"><path d="M5.07347 13.0912C4.72199 13.0912 4.52673 12.9154 4.41608 12.5314L2.11848 4.37588C2.07942 4.23269 2.06641 4.15458 2.06641 4.05044C2.06641 3.73802 2.30723 3.51672 2.64569 3.51672C2.9516 3.51672 3.14687 3.68595 3.22497 3.98536L5.07347 11.2752H5.12554L7.10421 4.17411C7.23439 3.70548 7.44267 3.51672 7.8397 3.51672C8.22372 3.51672 8.432 3.70548 8.55567 4.14808L10.5408 11.2752H10.5929L12.4414 3.98536C12.5195 3.67944 12.7213 3.51672 13.0207 3.51672C13.3592 3.51672 13.6 3.73802 13.6 4.05044C13.6 4.15458 13.587 4.23269 13.5479 4.37588L11.2503 12.5314C11.1397 12.9154 10.9444 13.0912 10.5929 13.0912C10.2284 13.0912 10.0332 12.9284 9.91601 12.5379L7.86574 5.54747H7.80065L5.75038 12.5379C5.63322 12.9284 5.43796 13.0912 5.07347 13.0912Z" fill="currentColor"/></svg>