<svg width="24" height="24" viewBox="0 0 16 16" fill="currentColor" xmlns="http://www.w3.org/2000/svg"><path d="M1.58987 4.85638C5.3303 1.93687 10.6698 1.93687 14.4102 4.85638C14.7005 5.08293 14.7522 5.50187 14.5256 5.79211C14.299 6.08236 13.8801 6.134 13.5899 5.90745C10.3316 3.3643 5.66851 3.3643 2.41027 5.90745C2.12002 6.134 1.70108 6.08236 1.47453 5.79211C1.24799 5.50187 1.29963 5.08293 1.58987 4.85638Z" fill="currentColor"/><path d="M11.09 9.402C9.28974 7.99793 6.711 7.99793 4.91067 9.402C4.62033 9.6284 4.20141 9.5766 3.97498 9.28627C3.74856 8.99593 3.80036 8.577 4.0907 8.3506C6.37304 6.57063 9.62767 6.57063 11.91 8.3506C12.2003 8.577 12.2521 8.99593 12.0257 9.28627C11.7993 9.5766 11.3803 9.6284 11.09 9.402Z" fill="currentColor"/><path d="M7.16663 12.5001C7.16663 12.9603 7.53969 13.3334 7.99996 13.3334C8.46023 13.3334 8.83329 12.9603 8.83329 12.5001C8.83329 12.0398 8.46023 11.6667 7.99996 11.6667C7.53969 11.6667 7.16663 12.0398 7.16663 12.5001Z" fill="currentColor"/></svg>