<svg width="24" height="24" viewBox="0 0 16 16" fill="currentColor" xmlns="http://www.w3.org/2000/svg"><path d="M10.3573 9.69028C10.0969 9.95068 9.67488 9.95068 9.41448 9.69028L8.00035 8.27615L6.58607 9.69035C6.32572 9.95075 5.90361 9.95075 5.64326 9.69035C5.38291 9.43001 5.38291 9.00795 5.64326 8.74755L7.05748 7.33335L5.64327 5.91907C5.38292 5.65873 5.38292 5.23661 5.64327 4.97627C5.90362 4.71592 6.32572 4.71592 6.58608 4.97627L8.00035 6.39051L9.41448 4.97633C9.67482 4.71598 10.0969 4.71598 10.3573 4.97633C10.6177 5.23668 10.6177 5.65879 10.3573 5.91914L8.94315 7.33335L10.3573 8.74748C10.6177 9.00788 10.6177 9.42995 10.3573 9.69028Z" fill="currentColor"/><path d="M7.16724 12.5001C7.16724 12.9603 7.5403 13.3334 8.00057 13.3334C8.46077 13.3334 8.8339 12.9603 8.8339 12.5001C8.8339 12.0398 8.46077 11.6667 8.00057 11.6667C7.5403 11.6667 7.16724 12.0398 7.16724 12.5001Z" fill="currentColor"/></svg>