<svg width="24" height="24" viewBox="0 0 16 16" fill="currentColor" xmlns="http://www.w3.org/2000/svg"><path d="M12.6672 3.99976C12.6671 3.60876 12.3502 3.29184 11.9592 3.29175C11.5681 3.29175 11.2514 3.6087 11.2512 3.99976C11.2512 4.39096 11.568 4.70874 11.9592 4.70874C12.3504 4.70865 12.6672 4.3909 12.6672 3.99976ZM11.2512 12.7087H12.6672V11.2917H11.2512V12.7087ZM3.33325 11.9998C3.33325 12.3908 3.65021 12.7086 4.04126 12.7087C4.43246 12.7087 4.75024 12.391 4.75024 11.9998C4.75007 11.6087 4.43235 11.2917 4.04126 11.2917C3.65032 11.2919 3.33343 11.6088 3.33325 11.9998ZM3.33325 3.99976C3.33325 4.39085 3.65021 4.70856 4.04126 4.70874C4.43246 4.70874 4.75024 4.39096 4.75024 3.99976C4.75007 3.6087 4.43235 3.29175 4.04126 3.29175C3.65032 3.29192 3.33343 3.60881 3.33325 3.99976ZM13.9172 3.99976C13.9172 5.08126 13.0407 5.95865 11.9592 5.95874C11.0963 5.95874 10.3657 5.39966 10.1047 4.62476H5.89673C5.69655 5.21946 5.21986 5.68669 4.61841 5.87183V6.49976C4.61841 6.98301 5.01016 7.37476 5.49341 7.37476H10.5872C11.7608 7.37476 12.7121 8.32616 12.7122 9.49976V10.0417H13.9172V13.9587H10.0012V12.6248H5.89673C5.63586 13.3998 4.90423 13.9587 4.04126 13.9587C2.95985 13.9586 2.08325 13.0812 2.08325 11.9998C2.08343 10.9185 2.95996 10.0419 4.04126 10.0417C4.90402 10.0417 5.63569 10.6 5.89673 11.3748H10.0012V10.0417H11.4622V9.49976C11.4621 9.01652 11.0704 8.62476 10.5872 8.62476H5.49341C4.3198 8.62476 3.36841 7.67336 3.36841 6.49976V5.83667C2.61898 5.56189 2.08325 4.84442 2.08325 3.99976C2.08343 2.91846 2.95996 2.04192 4.04126 2.04175C4.90402 2.04175 5.63569 2.60003 5.89673 3.37476H10.1047C10.3659 2.60016 11.0966 2.04175 11.9592 2.04175C13.0406 2.04184 13.9171 2.9184 13.9172 3.99976Z" fill="currentColor"/></svg>