<svg width="24" height="24" viewBox="0 0 16 16" fill="none" xmlns="http://www.w3.org/2000/svg"><path fill-rule="evenodd" clip-rule="evenodd" d="M12 2.70801C13.4498 2.70801 14.625 3.88425 14.625 5.33398V8.62598H2.625V10.667C2.62518 11.4263 3.24071 12.042 4 12.042H8C8.34518 12.042 8.625 12.3218 8.625 12.667C8.62482 13.012 8.34507 13.292 8 13.292H4C2.55037 13.292 1.37518 12.1166 1.375 10.667V5.33398C1.375 3.88424 2.55026 2.70801 4 2.70801H12ZM4.33301 9.50098C4.79325 9.50098 5.16699 9.87379 5.16699 10.334C5.16673 10.794 4.79309 11.167 4.33301 11.167C3.87307 11.1668 3.50026 10.7938 3.5 10.334C3.5 9.8739 3.87291 9.50115 4.33301 9.50098ZM4 3.95898C3.24061 3.95898 2.625 4.5746 2.625 5.33398V7.375H13.375V5.33398C13.375 4.57459 12.7594 3.95898 12 3.95898H4ZM4.33301 4.83398C4.79314 4.83398 5.16682 5.2069 5.16699 5.66699C5.16673 6.12701 4.79308 6.50098 4.33301 6.50098C3.87308 6.5008 3.50026 6.1269 3.5 5.66699C3.50018 5.20701 3.87303 4.83416 4.33301 4.83398Z" fill="#262626"/><path d="M14.7112 12.1281C14.7112 13.5485 13.5597 14.7 12.1393 14.7C10.7189 14.7 9.56738 13.5485 9.56738 12.1281C9.56738 10.7076 10.7189 9.55615 12.1393 9.55615C13.5597 9.55615 14.7112 10.7076 14.7112 12.1281Z" fill="#E27900"/></svg>