<svg width="24" height="24" viewBox="0 0 16 16" fill="currentColor" xmlns="http://www.w3.org/2000/svg"><path d="M5.04199 3.99951C5.04182 3.60846 4.7241 3.2915 4.33301 3.2915C3.94206 3.29168 3.62518 3.60857 3.625 3.99951C3.625 4.3906 3.94196 4.70832 4.33301 4.7085C4.72421 4.7085 5.04199 4.39071 5.04199 3.99951ZM6.29199 3.99951C6.29199 5.08107 5.41457 5.9585 4.33301 5.9585C3.2516 5.95832 2.375 5.08096 2.375 3.99951C2.37518 2.91821 3.25171 2.04168 4.33301 2.0415C5.41446 2.0415 6.29182 2.9181 6.29199 3.99951Z" fill="currentColor"/><path d="M5.04199 12.9995C5.04182 12.6085 4.7241 12.2915 4.33301 12.2915C3.94206 12.2917 3.62518 12.6086 3.625 12.9995C3.625 13.3906 3.94196 13.7083 4.33301 13.7085C4.72421 13.7085 5.04199 13.3907 5.04199 12.9995ZM6.29199 12.9995C6.29199 14.0811 5.41457 14.9585 4.33301 14.9585C3.2516 14.9583 2.375 14.081 2.375 12.9995C2.37518 11.9182 3.25171 11.0417 4.33301 11.0415C5.41446 11.0415 6.29182 11.9181 6.29199 12.9995Z" fill="currentColor"/><path d="M12.3755 3.99951C12.3753 3.60846 12.0576 3.2915 11.6665 3.2915C11.2756 3.29168 10.9587 3.60857 10.9585 3.99951C10.9585 4.3906 11.2755 4.70832 11.6665 4.7085C12.0577 4.7085 12.3755 4.39071 12.3755 3.99951ZM13.6255 3.99951C13.6255 5.08107 12.7481 5.9585 11.6665 5.9585C10.5851 5.95832 9.7085 5.08096 9.7085 3.99951C9.70867 2.91821 10.5852 2.04168 11.6665 2.0415C12.748 2.0415 13.6253 2.9181 13.6255 3.99951Z" fill="currentColor"/><path d="M3.7085 11.6633V5.33325C3.7085 4.98807 3.98832 4.70825 4.3335 4.70825C4.67867 4.70825 4.9585 4.98807 4.9585 5.33325V11.6633C4.95845 12.0085 4.67865 12.2883 4.3335 12.2883C3.98834 12.2883 3.70854 12.0085 3.7085 11.6633Z" fill="currentColor"/><path d="M3.7085 10.6663V10.0002C3.7085 8.55046 4.88376 7.37524 6.3335 7.37524H9.6665C10.4258 7.37524 11.0413 6.75952 11.0415 6.00024V5.33325C11.0415 4.98818 11.3215 4.70843 11.6665 4.70825C12.0117 4.70825 12.2915 4.98807 12.2915 5.33325V6.00024C12.2913 7.44987 11.1162 8.62524 9.6665 8.62524H6.3335C5.5741 8.62524 4.9585 9.24083 4.9585 10.0002V10.6663C4.9585 11.0114 4.67867 11.2913 4.3335 11.2913C3.98832 11.2913 3.7085 11.0114 3.7085 10.6663Z" fill="currentColor"/><path d="M12.0903 14.6592L13.7573 12.9932C13.9916 12.7589 13.9919 12.3785 13.7573 12.1445L12.0906 10.4778C11.8564 10.2436 11.4765 10.2437 11.2423 10.4779C11.008 10.7122 11.0081 11.0922 11.2427 11.3262L11.9468 12.0312H10.3638C9.57331 12.0312 8.93213 11.3901 8.93213 10.5996C8.93213 10.2685 8.66367 10 8.33252 10C8.00136 10 7.73291 10.2685 7.73291 10.5996C7.73291 12.0528 8.91057 13.2305 10.3638 13.2305H11.8237L11.2427 13.8115C11.0081 14.0455 11.0079 14.4254 11.2422 14.6597C11.4765 14.8939 11.8563 14.8937 12.0903 14.6592Z" fill="currentColor"/></svg>