<svg width="24" height="24" viewBox="0 0 16 16" fill="currentColor" xmlns="http://www.w3.org/2000/svg"><path d="M7.33301 2C10.2784 2 12.6668 4.38764 12.667 7.33301L12.6602 7.60742C12.6024 8.74795 12.1856 9.79351 11.5215 10.6348L13.7764 12.8906C14.021 13.1354 14.021 13.5317 13.7764 13.7764C13.5317 14.021 13.1353 14.0209 12.8906 13.7764L10.6348 11.5215C9.72644 12.2385 8.57986 12.667 7.33301 12.667L7.05859 12.6602C4.24075 12.5172 2 10.1864 2 7.33301C2.00018 4.38775 4.38775 2.00018 7.33301 2ZM7.33301 3.25293C5.07995 3.25311 3.25311 5.07995 3.25293 7.33301C3.25293 9.58623 5.07984 11.4129 7.33301 11.4131C9.58633 11.4131 11.4131 9.58633 11.4131 7.33301C11.4129 5.07984 9.58623 3.25293 7.33301 3.25293ZM7.35352 4.67285C7.69944 4.67298 7.98037 4.95387 7.98047 5.2998V6.70605H9.33301C9.679 6.70605 9.9598 6.98705 9.95996 7.33301C9.95996 7.67911 9.67911 7.95996 9.33301 7.95996H7.98047V9.2998C7.98047 9.64582 7.6995 9.92663 7.35352 9.92676C7.00742 9.92676 6.72656 9.6459 6.72656 9.2998V7.95996H5.33301C4.98702 7.95983 4.70605 7.67902 4.70605 7.33301C4.70622 6.98713 4.98712 6.70619 5.33301 6.70605H6.72656V5.2998C6.72666 4.95379 7.00748 4.67285 7.35352 4.67285Z" fill="currentColor"/></svg>